<?xml version="1.0" encoding="utf-8"?>
<!-- Generator: Adobe Illustrator 19.1.0, SVG Export Plug-In . SVG Version: 6.00 Build 0)  -->
<svg version="1.1" id="Layer_1" xmlns="http://www.w3.org/2000/svg" xmlns:xlink="http://www.w3.org/1999/xlink" x="0px" y="0px"
	 viewBox="-467 195 504 511" style="enable-background:new -467 195 504 511;" xml:space="preserve">
<style type="text/css">
	.st0{fill:#FFFFFF;stroke:#000000;stroke-miterlimit:10;}
	.st1{fill:#FFFFFF;}
	.st2{fill:#768EB2;}
</style>
<path class="st0" d="M14.8,262.1c4.4,4.8,8.4,9.4,7.6,16.2c-0.3,2.9,0.8,5.9,1.2,8.9c0.9,8.1,2.5,16.2,2.5,24.3
	c0.3,31,0.1,62,0.1,93c0,14.5,0.1,29,0,43.4c-0.3,48.5-0.6,97-1.1,145.4c-0.1,5.8-1.5,11.5-2.2,17.3c-0.7,5.6-1.7,11.2-1.7,16.8
	c0,8-3.9,14.8-5.7,22.3c-1.4,5.9-3.2,11.8-5.3,17.6c-1.9,5.2-5.9,8.7-11.4,9.2c-19.7,1.9-39,5.9-58.8,7.3
	c-41.7,3.1-83.2,1.3-124.9,1.6c-33.6,0.3-67.3-1.5-100.9-2c-5.9-0.1-11.7,1.4-17.6,1.8c-15.1,0.9-30.1,1.8-45.2,2.3
	c-22.5,0.8-44.4-2.6-65.4-10.5c0-0.5,0.1-1,0.1-1.5c8,0.5,15.9,0.9,23.9,1.4c2,0.1,3.9,0.6,5.9,0.8c6.1,0.5,12.2,1,18.4,1.3
	c13.3,0.7,26.5,1.2,39.8,1.8c11,0.5,21.9,0.9,32.9,1.3c1,0,2,0.3,3,0.1c24-3.9,48.4-3.2,72.6-4.7c60.9-3.6,121.9-2,182.8-3
	c9.7-0.2,20.9-2.2,28.5-7.5c12.2-8.4,22.9-19.9,21.2-37.1c-1.5-14.3-0.4-28.1,2.9-42.1c1.8-7.7,2.6-15.8,2.7-23.7
	c0.2-62.2,0.3-124.3,0-186.5c-0.1-21.5-1.6-42.9-2.5-64.4c-0.4-10.3-0.8-20.6-1.4-30.9C16.2,275.5,15.4,268.8,14.8,262.1z"/>
<rect x="-332" y="269" class="st1" width="306" height="402.1"/>
<path class="st2" d="M-147.9,484c6.2,0,12.6-0.1,19.1,0c9.8,0.2,19.6,0.7,29.4,1c4.3,0.1,6-2.3,6.4-6.6c1.6-16.8,3.6-33.6,5.3-50.5
	c0.5-4.6,0.5-9.3,0.2-14c-0.3-4.4-3.3-6.2-7.5-6.5c-15.4-0.9-30.8-2.1-46.3-2.8c-3.8-0.2-4.8-1.4-4.7-5c0.2-11,0.1-21.9-0.1-32.9
	c0-3.6,1.4-5.8,5-6.1c13.5-0.9,26.9-4.3,40.4,1.3c8.1,3.4,12.5-0.1,12.5-8.8c0-17.3,0-34.7,0-52c0-9-2.6-12.2-11.8-12.1
	c-23.6,0.2-47.3,1.3-70.9,1.4c-11.4,0.1-21.5,4.4-31.3,9c-11.1,5.3-18.5,15.2-24,26c-4.8,9.4-8.6,19.4-12.5,29.3
	c-1.2,3-1.7,6.5-1.7,9.7c-0.2,15.2-0.1,30.3-0.1,45.5c0,1.8,0,3.6,0,6.4c-6.8-0.4-13.2-0.2-19.3-1.3c-9.2-1.7-12.3,0.6-12.5,9.9
	c-0.3,17.2-0.6,34.3-1,51.5c0,1.2,0,2.3,0,3.5c0.1,6.6,2.2,8.8,8.7,8.8c7.7,0.1,15.3,0,23,0c1.8,0,3.6,0,5.9,0
	c0.1,2.3,0.3,4,0.3,5.8c0,11.8-0.3,23.7,0.1,35.5c0.6,17.8,1.8,35.5,2.5,53.3c0.3,8.2,0.3,16.5,0.1,24.7
	c-0.5,17.5-1.1,34.9-1.7,52.4c-0.1,2,0,4,0,6.5c-2.1,0.1-3.9,0.3-5.6,0.4c-7.3,0.5-14.6,1.2-21.9,1.4c-9.6,0.3-19.2,0-28.9,0.2
	c-15.1,0.3-30.3,1.4-45.4,1.2c-10.7-0.1-21.5-1.7-32.2-2.7c-1.2-0.1-2.3-0.3-3.5-0.3c-16.3-0.6-32.5-1-48.8-1.7
	c-5.8-0.3-12-0.4-17.2-2.5c-6.2-2.5-9.4-8.6-13-14.4c-6.9-11.2-3.1-23-3.2-34.5c-0.4-52.3-0.2-104.6-0.1-157
	c0-5.6,1.3-11.2,1.6-16.9c0.6-14.4,1.2-28.9,1.3-43.4c0.2-20.3-0.2-40.7,0.2-61c0.2-11.3,1.8-22.6,2.3-33.8
	c0.5-12.1,0-24.3,0.8-36.5c0.5-8.4,1.5-17,4-24.9c3-9.6,9.6-15.9,20.4-18.1c23.5-4.8,47.1-6.2,70.9-6.1c68.7,0.3,137.3,0.2,206,0
	c31.6-0.1,63.3-0.9,94.9-1.4c4.8-0.1,9.2,0.7,13.1,3.8c1.4,1.1,3.2,1.8,4.9,2.3c8.3,2.1,15.9,6.6,21.1,12.5c8.6,9.9,16.6,21,17.6,35
	c0.7,10.3,0.9,20.6,1.4,30.9c1.2,22.9,2.4,45.8,3.6,68.7c0.2,3.5,0.3,7,0.3,10.5c0,60.2,0.2,120.3-0.1,180.5
	c-0.1,10-2.4,20-3.4,30.1c-1.2,12.1-2.4,24.1-2.8,36.2S-0.2,647.9-9,656.3c-1.2,1.1-2.6,2.4-4,2.8c-8.4,1.9-16.8,4.7-25.3,5
	c-34.5,0.9-69,0.9-103.5,1.3c-8.2,0.1-8.1,0-8-8.1c0.6-37.5,1-75,1.7-112.4c0.2-12.6,1.3-25.2,1.4-37.9
	C-146.4,499.6-147.4,492-147.9,484z"/>
<path d="M-249.1,206.4c38.3,0,76.7,0.1,115,0c28-0.1,56-0.7,83.9-1.2c5.9-0.1,11.1,1.3,16,4.6c2,1.4,4.4,2.5,6.8,3.1
	c8.9,2.3,16.4,7.5,22.1,13.9c9.1,10.2,19.5,18.8,28.6,28.7c5.3,5.8,10.3,12.5,9.2,21.8c-0.5,3.8,1.3,7.8,1.8,11.8
	c0.8,7.1,1.8,14.2,1.9,21.4c0.3,34.2,0.5,68.3,0.3,102.5c-0.3,60.5-0.8,120.9-1.4,181.4c-0.1,6.3-1.7,12.5-2.3,18.8
	c-0.8,8.6-0.7,17.3-2.2,25.8c-2.4,13.6-6.9,26.8-14.4,38.5c-3.2,4.9-8.3,8.4-14.4,9.1c-20.8,2.4-41.3,6.2-62.3,7.6
	c-43.8,3-87.6,1.2-131.4,1.7c-30.8,0.3-61.6-1.2-92.4-1.2c-14.2,0-28.3,2.7-42.5,2.9c-17.1,0.2-34.3-0.6-51.4-1.6
	c-18.7-1.1-36.1-7.7-53.5-13.8c-8.2-2.9-15.3-7.9-20.8-15c-0.6-0.8-1.4-1.6-1.5-2.5c-2.5-12.8-9.3-24-9.2-38
	c0.4-56.1-0.6-112.3-0.8-168.4c0-8.4,1.6-16.8,2.5-25.2c0.2-2.1,0.4-4.3,0.4-6.5c0-32-0.4-64,0.1-96c0.4-23.6,1.5-47.2,3.1-70.8
	c1.1-15.3,5.8-29.4,18.7-39.3c2.8-2.2,6.2-4.2,9.6-4.9c24.2-4.8,48.5-8.9,73.3-8.9c35.7,0,71.3,0,107,0
	C-249.1,206.5-249.1,206.4-249.1,206.4z M-147.9,484c0.5,8,1.5,15.6,1.5,23.1c-0.1,12.6-1.1,25.2-1.4,37.9
	c-0.7,37.5-1.1,75-1.7,112.4c-0.1,8.1-0.2,8.2,8,8.1c34.5-0.3,69-0.4,103.5-1.3c8.5-0.2,16.9-3.1,25.3-5c1.5-0.3,2.9-1.6,4-2.8
	c8.9-8.4,12.5-18.8,12.9-30.9c0.4-12.1,1.6-24.2,2.8-36.2c1-10,3.3-20.1,3.4-30.1c0.3-60.2,0.2-120.3,0.1-180.5
	c0-3.5-0.2-7-0.3-10.5c-1.2-22.9-2.5-45.8-3.6-68.7c-0.5-10.3-0.7-20.6-1.4-30.9c-1-14-8.9-25.1-17.6-35c-5.2-6-12.8-10.4-21.1-12.5
	c-1.7-0.4-3.6-1.2-4.9-2.3c-3.9-3.2-8.3-3.9-13.1-3.8c-31.6,0.6-63.3,1.3-94.9,1.4c-68.7,0.2-137.3,0.2-206,0
	c-23.9-0.1-47.5,1.3-70.9,6.1c-10.9,2.5-17.6,8.7-20.6,18.3c-2.5,8-3.5,16.5-4,24.9c-0.8,12.1-0.3,24.3-0.8,36.5
	c-0.5,11.3-2.1,22.6-2.3,33.8c-0.4,20.3,0.1,40.7-0.2,61c-0.2,14.5-0.7,28.9-1.3,43.4c-0.2,5.6-1.5,11.2-1.6,16.9
	c-0.1,52.3-0.3,104.6,0.1,157c0.1,11.5-3.7,23.3,3.2,34.5c3.6,5.8,6.8,11.9,13,14.4c5.2,2.1,11.4,2.2,17.2,2.5
	c16.3,0.8,32.5,1.2,48.8,1.7c1.2,0,2.3,0.2,3.5,0.3c10.7,0.9,21.5,2.6,32.2,2.7c15.1,0.2,30.3-0.9,45.4-1.2
	c9.6-0.2,19.2,0.1,28.9-0.2c7.3-0.2,14.6-0.9,21.9-1.4c1.8-0.1,3.5-0.2,5.6-0.4c0-2.5-0.1-4.5,0-6.5c0.6-17.5,1.3-34.9,1.7-52.4
	c0.2-8.2,0.2-16.5-0.1-24.7c-0.7-17.8-1.9-35.5-2.5-53.3c-0.4-11.8-0.1-23.7-0.1-35.5c0-1.8-0.2-3.5-0.3-5.8c-2.3,0-4.1,0-5.9,0
	c-7.7,0-15.3,0.1-23,0c-6.5-0.1-8.5-2.2-8.7-8.8c0-1.2,0-2.3,0-3.5c0.3-17.2,0.7-34.3,1-51.5c0.1-9.3,3.3-11.6,12.5-9.9
	c6.1,1.1,12.5,0.9,19.3,1.3c0-2.8,0-4.6,0-6.4c0-15.2-0.1-30.3,0.1-45.5c0-3.3,0.5-6.7,1.7-9.7c3.9-9.9,7.7-19.9,12.5-29.3
	c5.5-10.8,12.9-20.7,24-26c9.8-4.6,19.8-8.9,31.3-9c23.6-0.1,47.3-1.2,70.9-1.4c9.2-0.1,11.8,3.1,11.8,12.1c0,17.3,0,34.7,0,52
	c0,8.8-4.4,12.2-12.5,8.8c-13.4-5.6-26.9-2.2-40.4-1.3c-3.6,0.3-5,2.5-5,6.1c0.1,11,0.2,21.9,0.1,32.9c-0.1,3.6,0.9,4.8,4.7,5
	c15.4,0.7,30.9,1.8,46.3,2.8c4.2,0.3,7.2,2.1,7.5,6.5c0.3,4.6,0.3,9.3-0.2,14c-1.7,16.8-3.7,33.6-5.3,50.5c-0.4,4.2-2.1,6.7-6.4,6.6
	c-9.8-0.2-19.6-0.7-29.4-1C-135.3,483.9-141.7,484-147.9,484z M-103.5,474.2c1.2-12.1,2.3-24.2,3.6-36.2c0.5-4.9,1.4-9.9,2.3-14.8
	c0.7-4.2-1-6.5-5.1-6.7c-15.1-0.6-30.2-1.4-45.3-1.3c-6.1,0-8.2-0.8-8-6.9c0.3-13.8,0.8-27.6,1.4-41.4c0.5-10.7,2.3-12.9,12.5-15.7
	c2.4-0.7,4.9-1,7.3-1.2c12-1,24.1-2.4,36.5,1.6c0-15.6,0-30.4,0-45.2c0-6.9-0.5-7.5-7.3-7.5c-14,0-28-0.6-42,0.1
	c-15.7,0.8-31.7,0.7-46.5,7.5c-3.6,1.6-7,3.8-10,6.3c-12,10.1-16.3,24.9-22.7,38.2c-2.8,5.8-3.2,13.2-3.4,19.9
	c-0.5,15.5-0.1,31-0.2,46.5c0,6.8-1.8,8.6-8.7,8.6c-7.6,0.1-15.2,0-23.4,0c0,17.5,0,34.9,0,52.8c1.8,0,3.6,0,5.4,0
	c7.8,0,15.7-0.1,23.5,0.1c6,0.1,8.2,2.3,8.3,8.2c0.4,19.5,0.6,38.9,1.1,58.4c0.3,11.3,1.1,22.6,1.5,33.9c0.3,9.1,0.6,18.2,0.4,27.2
	c-0.5,19.1-1.2,38.3-2,57.4c-0.1,3.2,1.4,4.2,4.2,4.1c3.3-0.2,6.7-1,9.9-0.6c14.1,2,27.9,0,41.8-1.8c8.6-1.1,8.6-0.9,9.1-9.7
	c0-0.3,0-0.7,0-1c0.5-14,1.1-28,1.4-41.9c0.6-30,1-59.9,1.4-89.9c0.1-12.8,0.8-25.6-3.1-38.2c-2.1-6.8,2.1-11.3,9.2-11.5
	c2-0.1,4,0.6,5.9,0.6C-130.9,474.3-117.3,474.2-103.5,474.2z M14.8,262.1c0.6,6.7,1.4,13.5,1.9,20.2c0.6,10.3,1,20.6,1.4,30.9
	c0.9,21.4,2.4,42.9,2.5,64.4c0.3,62.2,0.2,124.3,0,186.5c0,7.9-0.9,16-2.7,23.7c-3.3,13.9-4.4,27.8-2.9,42.1
	c1.8,17.2-9,28.7-21.2,37.1c-7.7,5.3-18.9,7.3-28.5,7.5c-60.9,1.1-121.9-0.6-182.8,3c-24.2,1.4-48.5,0.8-72.6,4.7
	c-1,0.2-2-0.1-3-0.1c-11-0.4-21.9-0.8-32.9-1.3c-13.3-0.6-26.5-1.2-39.8-1.8c-6.1-0.3-12.2-0.8-18.4-1.3c-2-0.2-3.9-0.7-5.9-0.8
	c-8-0.5-15.9-0.9-23.9-1.4c0,0.5-0.1,1-0.1,1.5c21.1,8,42.9,11.3,65.4,10.5c15.1-0.5,30.1-1.4,45.2-2.3c5.9-0.4,11.8-1.9,17.6-1.8
	c33.6,0.6,67.3,2.3,100.9,2c41.6-0.3,83.2,1.5,124.9-1.6c19.8-1.5,39.1-5.4,58.8-7.3c5.6-0.5,9.6-4,11.4-9.2
	c2.1-5.8,3.9-11.6,5.3-17.6c1.8-7.5,5.7-14.3,5.7-22.3c0-5.6,1-11.2,1.7-16.8c0.7-5.8,2.1-11.5,2.2-17.3c0.5-48.5,0.8-97,1.1-145.4
	c0.1-14.5,0-29,0-43.4c0-31,0.2-62-0.1-93c-0.1-8.1-1.6-16.2-2.5-24.3c-0.3-3-1.5-6-1.2-8.9C23.2,271.4,19.2,266.8,14.8,262.1z"/>
</svg>
