<?xml version="1.0" encoding="utf-8"?>
<!-- Generator: Adobe Illustrator 19.1.0, SVG Export Plug-In . SVG Version: 6.00 Build 0)  -->
<svg version="1.1" id="Layer_1" xmlns="http://www.w3.org/2000/svg" xmlns:xlink="http://www.w3.org/1999/xlink" x="0px" y="0px"
	 viewBox="0 0 766.1 160.7" style="enable-background:new 0 0 766.1 160.7;" xml:space="preserve">
<style type="text/css">
	.st0{fill:#FFFFFF;stroke:#000000;stroke-miterlimit:10;}
</style>
<g>
	<path class="st0" d="M4.8,102.4c-0.5,1.2-1.1,1.3-1.9,0.5C1.2,101,0,97.4,1.8,91c3-10.9,14.3-33.7,24.8-50.3
		c-4.1-0.4-6.2-2.2-7.7-4.8c-0.6-1.2-0.2-1.8,1.3-2c10.1-1.2,19.1-6.1,27.1-6.5c6.1-0.2,11.4,1.6,14.3,9.7
		c2.5,7.2,0.8,14.5-3.7,20.6C51.5,66.4,38.5,73.9,25.2,77c4.6,5.6,8.9,11.4,11.4,16.4c1.7,3.2,2.2,7.3,0.6,9.7
		c-0.6,1-1.2,1.3-1.9,0.2c-7.9-10.8-14.2-18.6-19.8-24.8C12.2,85,8.8,92.5,4.8,102.4z M29.4,53.5c-3.2,5.8-6.2,10.8-9.5,16.7
		C46.4,64.3,60,46.8,56.5,38.3C53.9,31.6,41.9,37.8,34,40C34,43.3,32.6,47.5,29.4,53.5z"/>
	<path class="st0" d="M75.8,106.4c-6.7,16.1-15.2,35.4-25.2,39.2c-2.3,0.8-4.6,0.8-6.8-2.5c-2.4-3.6-4.8-7.8-2.4-14.9
		c3.6-10.8,13.8-18,25.7-22.7c1.2-2.8,2.4-5.8,3.7-8.6c-3.7,3.8-8.3,7-13.1,6.6c-8.6-0.7-8.9-9.5-6.1-17.4
		c2.6-7.7,8.5-19.6,16.3-30.4c1-1.3,2.2-1.2,3,0c2.9,3.8,2.2,8.9-2.3,16c-4.3,7-7,11.9-9.2,17.5C57,95.2,57.2,99.4,60,99.6
		c4.7,0.4,10.7-7.3,16.8-17.8C82,73,87.1,62.2,91.3,56c1.1-1.6,1.9-1.8,3-0.8c1.7,2.2,2.6,7.3-0.5,13.4c-3.6,7-10.9,21.4-16,33
		c9.4-5,16.4-11.9,21.2-18.5c0.6-0.8,1.7-1,1.9,0.2c0.2,1.1-0.1,3.8-2.2,7C94.2,97.8,85.8,102.4,75.8,106.4z M46.2,139.1
		c1.6,2.3,11.4-10.8,18.8-28.4C49.4,119.6,44,136.1,46.2,139.1z"/>
	<path class="st0" d="M140.8,55.7c1.1-1.6,2-1.8,2.9-0.7c1.8,2.2,2.8,7.3-0.1,13.3c-2.6,5.4-8.6,14.4-11.5,20.8
		c-3,6.7-3.1,11.9,1,11.6c4.9-0.2,11.5-8.4,15.7-16.7c0.6-1.1,1.4-1.2,1.9-0.1c0.5,1.1,0.5,4.1-1.1,7.4
		c-3.1,6.6-10.7,13.2-17.3,12.8c-6.5-0.4-9.8-4.2-9.8-9.8c-3.8,4.9-9.2,9.4-15,9.4c-11.2,0-13.4-15.2-3.5-29.8
		c9.7-14.2,19.2-19.6,25.2-19.6c5.2,0,7.6,4,7.3,8.6C138,60.1,139.4,57.6,140.8,55.7z M131.2,60.6c-3.8-0.4-12.6,7.4-19.2,18.1
		c-6.4,10.3-7.9,20.9-3.2,21c4.9,0.1,11.2-7.6,17.3-18.1C133.6,68.4,134.6,61,131.2,60.6z"/>
	<path class="st0" d="M183.1,55c4,0.6,7.7,6.5,4.7,12.7c-2.5,5.3-8.4,14.2-11.2,20.4c-3.1,7-2.4,12.6,1.9,12.4
		c4.9-0.2,10.8-8.2,15.4-16.6c0.6-1.1,1.4-1.1,2-0.1c0.8,1.3,0.6,4.1-1.1,7.6c-3.2,6.7-10.8,12.8-17.8,12.8
		c-10.2,0-12.6-7.4-9.1-17.9c4-11.8,14.5-24.5,12.4-25.4c-1.2-0.5-8.2,2.9-15.8,11.3c-7.1,7.7-12.4,19.2-17.5,30.5
		c-0.5,1.1-1.2,1.6-2.3,0.5c-2.4-2.4-3.1-6.4-1.2-12.4c2.4-7.6,11.6-24.2,19.2-35.4c0.8-1.3,1.8-1.2,2.5,0c1.8,3,1.7,7.1,0.4,11.4
		C171,61,179.2,54.4,183.1,55z"/>
	<path class="st0" d="M228.6,76.9c-5.9,17-1.2,22.4,2.5,23.3c10.8,2.5,19.6-15.7,27.6-32.4c6.5-13.3,16.8-33.8,20.6-39.7
		c1-1.4,2-1.3,2.9,0.1c1.6,2.6,2.2,7.9-0.8,15c-4,9.4-15.6,33.2-22.2,44.2c-9.2,15.4-19.2,18.2-28.9,16.6c-9-1.6-14.2-9.8-11.4-20.2
		c1.3-5.2,4.8-8.5,7.9-9.2C228.5,74.2,229.3,74.9,228.6,76.9z"/>
	<path class="st0" d="M312.7,55.7c1.1-1.6,2-1.8,2.9-0.7c1.8,2.2,2.8,7.3-0.1,13.3c-2.6,5.4-8.6,14.4-11.5,20.8
		c-3,6.7-3.1,11.9,1,11.6c4.9-0.2,11.5-8.4,15.7-16.7c0.6-1.1,1.4-1.2,1.9-0.1c0.5,1.1,0.5,4.1-1.1,7.4
		c-3.1,6.6-10.7,13.2-17.3,12.8c-6.5-0.4-9.8-4.2-9.8-9.8c-3.8,4.9-9.2,9.4-15,9.4c-11.2,0-13.4-15.2-3.5-29.8
		c9.7-14.2,19.2-19.6,25.2-19.6c5.2,0,7.6,4,7.3,8.6C310,60.1,311.4,57.6,312.7,55.7z M303.1,60.6c-3.8-0.4-12.6,7.4-19.2,18.1
		c-6.4,10.3-7.9,20.9-3.2,21c4.9,0.1,11.2-7.6,17.3-18.1C305.5,68.4,306.6,61,303.1,60.6z"/>
	<path class="st0" d="M355.9,54.8c4.1,0.1,6.2,6.5,4.7,11.8c5.8-5.6,13.8-11.3,17.8-11.2c4.3,0.1,5.3,7.2,2.9,13.2
		c-2.2,5.4-8,13.3-11,19.3c-3.4,6.8-1.7,12.4,2.6,12.2c4.9-0.1,10.3-8,15-16.4c0.6-1.1,1.6-1.1,2.2-0.2c0.6,0.8,0.2,4.8-1.1,7.6
		c-3.4,6.8-11,12.8-18,12.8c-10.4,0-14.3-8.3-9.8-18.1c4.4-10,15.1-23.4,13.3-24c-1-0.4-5,1-12.8,8.8c-10,10-15.8,21.5-20.9,32.8
		c-0.7,1.4-1.7,1.8-2.8,0.6c-2-1.8-3.7-6.5-0.2-15.1c4-10,16.9-26.5,14.5-27.4c-1.4-0.6-7.3,2.6-15,11c-7.1,7.7-12.8,18.8-17.6,30.1
		c-0.5,1.1-1.2,1.6-2.3,0.6c-2.6-2.3-3.2-6.2-1.2-12.4c2.5-7.6,11.3-24.5,18.8-35.8c0.8-1.3,1.8-1.2,2.5,0c2,3.4,1.7,8-0.1,12.8
		C342.6,61.8,351.6,54.7,355.9,54.8z"/>
	<path class="st0" d="M402.6,100.4c10,0.5,18.7-9.1,23.9-17c0.6-1,1.6-1,2,0.1c0.5,1,0.1,4.3-2,7.4c-5,7.3-14.3,12.8-23.5,13
		c-15.2,0.2-20.5-14.8-12.7-30.2c7.8-15.5,20-21.7,26-18.2c3,1.8,5.2,3.6,7.1,6.2c2.2,2.9,1.2,10.2-3.8,16.3
		c-5.9,7.2-13.9,10.3-22.3,3.5C393.4,92.5,396.2,100.1,402.6,100.4z M412.6,72.8c3.8-5,6.5-11.3,4.8-12.6c-2.5-2-12.5,5.2-18.1,16.6
		c-0.4,0.7-0.7,1.4-1,2C404.2,82.6,409.1,77.4,412.6,72.8z"/>
	<path class="st0" d="M442.4,61.7c0.6-4.7,1.8-7,4.3-9.2c2.6-2.4,5.4-2.9,6.5-1.8c1.2,1.2,0.6,2.5-1,5.3c-0.5,0.7-0.8,1.4-1.3,2.3
		c-0.8,11,1.4,20.4,1.1,28.7c-0.2,4.7-1.1,9.7-5.4,12.6c8-3,13.1-10.2,16.1-16.7c0.6-1.3,1.8-1,2.3,0c0.5,1.1,0.4,4.2-1.7,7.9
		c-4.6,8.3-12.7,12.8-21.2,13.2c-7,0.2-13.7-1.6-17.8-9c-2.9-5.4-2.5-13.3,1.6-16.7c1.4-1.2,2.4-0.7,2.5,1.2c0.1,1,0.1,1.9,0.2,2.9
		C433.6,75.6,439,67.8,442.4,61.7z M429.7,88.8c1.8,7,5.3,11.9,9.2,10.7c5.5-1.7,3.7-20.5,3.2-30.1
		C438.7,75.7,434.3,82.3,429.7,88.8z"/>
	<path class="st0" d="M540.1,70.1c2.8,1.2,4.2,3.2,4.7,5.3c0.2,1-0.1,1.6-1.3,1.3c-1.9-0.4-4.2-0.5-6.7-0.4
		c-4.1,7.8-8.3,16.4-12.2,25.4c-0.5,1.2-1.3,1.3-2,0.2c-1.7-2.4-2.8-5.9-0.4-13.2c0.8-2.4,2.6-6.6,5-11.5c-8.8,1.1-18,2.6-23.6,2.6
		c-3.7,7.4-7.4,15.4-10.9,23.4c-0.5,1.2-1.4,1.6-2.2,0.5c-1.8-2.5-2.6-5.9-0.6-13.2c0.7-2.5,2.8-6.8,5.2-12.2
		c-2.6-1.2-3.6-2.9-4.1-3.8c-0.7-1.4-0.5-1.9,1.6-1.8c1.8,0.1,3.5,0.4,5,0.4c7.7-16,18.8-36.7,23.8-43.7c1.1-1.4,2.2-1.2,2.9,0.1
		c1.8,3.4,1.4,9.2-3,17.8c-3.5,6.7-8.4,15.2-13.7,25.2c8.3-1.1,15.7-3.1,23.6-3.6c7.8-15.5,18.4-34.6,23.2-40.9
		c1.2-1.6,2.3-1.4,3,0.1c1.7,3.5,1.3,9.1-3.7,18.1C549.9,52.7,545.3,60.7,540.1,70.1z"/>
	<path class="st0" d="M551.4,103.6c-8.5-0.6-8.8-9.5-6.1-17.4c2.6-7.9,8.8-19.7,16.6-30.6c1-1.3,2.2-1.2,3.1-0.1
		c2.6,4,2,9.4-2.3,16.2c-4.4,7.1-6.8,11.9-9.4,17.6c-2.5,5.9-2.2,10.2,0.6,10.4c4.7,0.4,11.3-8,17.8-18.5
		c7.6-12.2,11-20.5,14.9-25.7c1.2-1.7,2-1.9,3-0.7c1.8,2.2,2.8,7.4-0.1,13.4c-2.6,5.4-8.6,14.4-11.4,20.5
		c-3.1,6.8-2.6,11.9,1.7,11.6c5-0.2,11.2-8.2,15.8-16.6c0.6-1.1,1.7-1.2,2.2-0.1c0.5,1,0.6,4.2-1.1,7.6c-3.5,6.7-10.9,12.8-18,12.8
		c-7.8,0-10.9-4.9-10-11.9C564.5,97.9,558.1,104,551.4,103.6z"/>
	<path class="st0" d="M620.1,106.9c-6.6,16.1-15.1,35.2-24.8,39c-2.4,1-4.8,0.6-7-2.5c-2.5-3.6-4.7-7.8-2.4-14.9
		c3.5-10.8,13.8-18.1,25.7-22.7c1.2-2.6,2.3-5.5,3.5-8.3c-3.5,3.5-7.7,6-12.1,6c-11,0-13.2-15-3.5-29.4
		c9.4-13.9,19.1-19.3,25.2-19.3c4.8,0,7.2,3.7,7.1,7.9c1.4-2.4,2.8-4.6,4-6.6c1-1.7,2.2-1.8,3-0.7c1.8,2.2,2.8,7.3-0.2,13.2
		c-3.6,7.2-11.2,21.7-16.2,33.4c10.1-5,16.7-11.6,21.5-18c0.7-1,1.8-1,2,0.2c0.2,1.1-0.4,3.7-2.4,7
		C638.7,98.5,630.1,103.3,620.1,106.9z M590.7,139.2c1.6,2.3,11-10.2,18.8-28.4C594,119.9,588.7,136.3,590.7,139.2z M626.5,61
		c-3.7-0.2-12.5,7.4-19.1,17.9c-6.5,10.3-7.8,20.9-3,21c4.7,0.1,10.8-7.4,16.9-18C628.9,68.6,630,61.2,626.5,61z"/>
	<path class="st0" d="M671.9,103.9c-10.1,0-12.6-7.3-9-17.8c4-11.6,14.4-24.1,12.5-25.2c-1.7-1-14.8,7.2-21.7,18.6
		c-4.3,7.1-8.8,15.5-11.6,22.8c-0.5,1.1-1.3,1.3-2,0.5c-1.9-2.2-3-5.5-0.5-12.7c4.2-12,29.2-54.2,38.9-66.4c1.1-1.4,2.3-1.3,2.9,0.1
		c1.6,3.5,1.2,9.5-3.4,17c-2.9,4.8-9.2,14.5-14.4,22.6c4.9-4.8,11.2-8.8,14.4-8.4c4.1,0.5,7.8,6.5,4.7,12.6
		c-2.6,5.3-8.4,14-11.2,20.3c-3,7-2.4,12.6,2,12.4c4.9-0.2,11.5-8.9,15.2-16.6c0.5-1.1,1.7-1.1,2.2-0.1c0.6,1.3,0.6,3.8-1.2,7.4
		C686.3,97.9,678.9,103.9,671.9,103.9z"/>
	<path class="st0" d="M703.4,100.4c10,0.5,18.7-9.1,23.9-17c0.6-1,1.6-1,2,0.1c0.5,1,0.1,4.3-2,7.4c-5,7.3-14.3,12.8-23.5,13
		c-15.2,0.2-20.5-14.8-12.7-30.2c7.8-15.5,20-21.7,26-18.2c3,1.8,5.2,3.6,7.1,6.2c2.2,2.9,1.2,10.2-3.8,16.3
		c-5.9,7.2-13.9,10.3-22.3,3.5C694.2,92.5,697.1,100.1,703.4,100.4z M713.4,72.8c3.8-5,6.5-11.3,4.8-12.6c-2.5-2-12.5,5.2-18.1,16.6
		c-0.4,0.7-0.7,1.4-1,2C705,82.6,709.9,77.4,713.4,72.8z"/>
	<path class="st0" d="M743.3,61.7c0.6-4.7,1.8-7,4.3-9.2c2.6-2.4,5.4-2.9,6.5-1.8c1.2,1.2,0.6,2.5-1,5.3c-0.5,0.7-0.8,1.4-1.3,2.3
		c-0.8,11,1.4,20.4,1.1,28.7c-0.2,4.7-1.1,9.7-5.4,12.6c8-3,13.1-10.2,16.1-16.7c0.6-1.3,1.8-1,2.3,0c0.5,1.1,0.4,4.2-1.7,7.9
		c-4.6,8.3-12.7,12.8-21.2,13.2c-7,0.2-13.7-1.6-17.8-9c-2.9-5.4-2.5-13.3,1.6-16.7c1.4-1.2,2.4-0.7,2.5,1.2c0.1,1,0.1,1.9,0.2,2.9
		C734.4,75.6,739.8,67.8,743.3,61.7z M730.5,88.8c1.8,7,5.3,11.9,9.2,10.7c5.5-1.7,3.7-20.5,3.2-30.1
		C739.5,75.7,735.1,82.3,730.5,88.8z"/>
</g>
</svg>
