<?xml version="1.0" encoding="utf-8"?>
<!-- Generator: Adobe Illustrator 16.0.4, SVG Export Plug-In . SVG Version: 6.00 Build 0)  -->
<!DOCTYPE svg PUBLIC "-//W3C//DTD SVG 1.1//EN" "http://www.w3.org/Graphics/SVG/1.1/DTD/svg11.dtd">
<svg version="1.1" id="Layer_1" xmlns="http://www.w3.org/2000/svg" xmlns:xlink="http://www.w3.org/1999/xlink" x="0px" y="0px"
	 width="803.93px" height="183.524px" viewBox="-0.449 -0.52 803.93 183.524" enable-background="new -0.449 -0.52 803.93 183.524"
	 xml:space="preserve">
<path id="a1" fill="#FFFFFF" stroke="#000000" stroke-miterlimit="10" d="M34.7,20.1c-0.5,0.3-0.9,0.5-1.4,0.899
	c0.9,0.601,1.7,1.2,2.4,1.8c0.2,0.2,0.2,0.601,0.4,0.9c0.8,1.2,0.7,2.7,0.7,4c-0.1,1.7-0.3,3.5-0.6,5.2c-0.3,1.899-0.6,3.8-1,5.7
	c-0.4,2.1-0.8,4.1-1.2,6.199c-0.1,0.5-0.2,1-0.3,1.4c-0.1,0.3,0.3,0.6-0.1,0.9c-0.2,0.199-0.2,0.699-0.3,1
	C33.2,48.5,33.1,48.8,33,49.2c-0.5,1.8-0.9,3.7-1.4,5.5c-0.3,1.2-0.6,2.3-0.9,3.4c-0.4,1.6-0.8,3.1-1.2,4.699
	c-0.6,2.2-1.2,4.4-1.8,6.601c-0.4,1.3-0.7,2.7-1.1,4c-0.5,1.899-1,3.7-1.5,5.6c-0.3,1.2-0.6,2.4-1,3.601c-0.3,0.899-0.7,1.699-1,2.6
	c-0.2,0.6-0.3,1.3-0.5,1.9C22,89,21.4,90.9,20.9,92.9c-0.3,0.899-0.4,1.8-0.6,2.7c-0.4,1.3-0.8,2.5-1.2,3.699
	c-0.5,1.4-0.9,2.9-1.3,4.4c-0.1,0.2,0.1,0.5,0.2,0.9c-0.1,0-0.3,0-0.5,0.1c-0.3,1.2-0.6,2.3-0.9,3.5c-0.3,1.3-0.6,2.7-1,4
	c-0.2,0.9-0.5,1.8-0.7,2.7c-0.3,1.3-0.6,2.7-1,4c-0.2,0.6-0.2,1.3-0.5,1.899c-0.2,0.4-0.4,1-1.1,1c-0.1,0-0.1,0.101-0.2,0.2
	c0.1,0,0.2,0,0.4-0.1c-0.1,0.2-0.3,0.5-0.4,0.7c0-0.101,0-0.101-0.1-0.2c-0.2,0-0.6,0-0.6,0.1c-0.3,0.5-0.7,0.5-1.1,0.4
	c-0.2,0-0.4,0.1-0.5,0.1c-0.4-0.1-0.7-0.3-1.2-0.2C8.3,122.9,7.8,122.6,7.5,122.4C7,121.9,6.3,121.8,6,121c0-0.1-0.3-0.1-0.4-0.2
	c-0.2-0.1-0.3-0.199-0.4-0.3c0.1-0.2,0.2-0.3,0.3-0.5c-0.1,0-0.2,0-0.2,0c-0.9,0.101-1.3-0.6-1.7-1.2c-0.1-0.1-0.2-0.1-0.3-0.199
	c-1.1-0.301-2-0.7-2.9-1.301c-0.3-0.199-0.5-0.5-0.2-1c0.3-0.6,0.5-1.199,0.7-1.8c0.3-0.899,0.5-1.8,0.7-2.6
	c0.2-0.601,0.5-1.2,0.7-1.8c0.2-0.601,0.2-1.301,0.4-1.9c0.2-0.9,0.5-1.9,0.7-2.8c0.3-1.3,0.6-2.601,1-3.8c0.2-0.7,0.4-1.301,0.6-2
	c0.6-2,1.2-4,1.9-6C7.2,92.8,7.5,92,7.8,91.2c0.5-1.4,1-2.9,1.5-4.3c0.7-2.101,1.3-4.2,1.9-6.3c0.5-1.5,0.9-3.101,1.3-4.7
	c0.4-1.2,0.8-2.3,1.2-3.5c0.3-1.101,0.6-2.101,0.9-3.2c0.3-1.3,0.7-2.6,1-4c0.6-2.4,1.2-4.7,1.9-7.1c0.3-1.301,0.7-2.5,1.1-3.801
	c0.4-1.399,0.6-2.8,1-4.199C20.1,48,20.7,46,21.3,43.9c0.5-2.101,1-4.3,1.6-6.5c0.4-1.5,0.8-3,1.1-4.4c0.4-1.7,0.6-3.399,1-5
	c0.2-0.8,0.4-1.6,0.5-2.399c0-0.9,0-1.801,0.1-2.801c0.1-0.899,0.6-1.5,1.4-1.8s1.6-0.399,2.4-0.5c1.6-0.2,3.3-0.399,4.9-0.6
	C34.2,20.1,34.4,20.1,34.7,20.1z"/>
<path id="a2" fill="#FFFFFF" stroke="#000000" stroke-miterlimit="10" d="M62.1,66.3c0.4,0.2,0.7,0.4,1,0.4c3.6,0.9,5.2,3.6,5.7,6.9
	c0.3,1.6,0.2,3.3,0.2,5c0,3.5-0.8,7-1.3,10.5c-0.7,4.8-1.3,9.5-1.3,14.3c0,1.2,0,2.399,0.3,3.399c0.8,0.2,1-0.3,1.2-0.6
	c1.4-2.4,2.9-4.8,4.2-7.2c2.3-4.2,4-8.7,5.9-13.1c0.6-1.5,1.3-2.9,1.9-4.4c0.8-2,1.6-4,2.4-6c0.3-0.899,0.8-1.5,1.8-1.7
	C85.4,73.4,86.7,73,88,72.6C89.1,72.3,90.2,72,91.3,72.3c1.3,0.301,1.9,1,1.8,2.301c0,0.8,0,1.6-0.6,2.3
	C92.2,77.3,92.1,77.8,92,78.2c-1.3,4.6-2.2,9.3-2.3,14.2c0,4.1,1,7.899,2.7,11.6c0.3,0.7,0.8,1.4,1.1,1.9c0.7,0.1,0.9-0.3,1.1-0.601
	c0.6-1,1.2-1.899,1.7-2.899c2.9-5.3,5.6-10.601,7.9-16.2c1-2.4,1.9-4.7,2.4-7.4c0.4-0.199,0.9-0.399,1.4-0.6
	c0.8-0.3,1.7-0.5,2.4-0.9c1.3-0.899,2.7-1,4.1-1.1c1.6-0.2,2.7,0.7,2.7,2.3c0.2,4.2,0.5,8.3-0.1,12.5c-0.3,2.4-0.4,4.8-0.7,7.3
	c0.5-0.1,0.8-0.199,1-0.3c1.9-1.2,3.8-2.3,5.7-3.5c1-0.6,1.9-1.399,2.8-2.2c1.2-1.199,2.4-2.3,3.8-3.199
	c2.3-1.5,4.3-3.301,5.8-5.601c0.8-1.2,1.9-2.1,3.2-2.8c0.6-0.3,1.3-0.7,2-0.7c1.3,0,2.5-0.399,3.7-0.7c0.8-0.199,1.6-0.399,2.3-0.6
	c1.3-0.4,2.5-0.3,3.6,0.6c0.3,0.2,0.7,0.4,1.1,0.5c1.5,0.601,1.8,1.101,1.8,2.7c0,0.8-0.1,1.601-0.2,2.4c-0.7,5.6-0.9,11.1-1.2,16.7
	c-0.1,1.6-0.1,3.199-0.1,4.8c0,1.1,0.1,2.2,0.5,3.3c0.6,0.2,0.7-0.3,0.9-0.6c0.9-1.801,1.8-3.601,2.5-5.4c1.6-3.9,3.1-7.9,4.7-11.8
	c0.9-2.3,2.2-4.4,3.8-6.4c0.7-0.899,1.5-1.5,2.8-1.5c0.8,0,1.5-0.399,2.3-0.6c0.8-0.2,1.5-0.5,2.3-0.601c1.7-0.199,2.8,0.4,3.4,1.9
	c0.3,0.6,0.5,1.3,0.7,2c0.8-0.1,1.2-0.7,1.6-1.1C179,84,180.8,82.5,182.6,80.8c0.7-0.699,1.5-1,2.4-0.8c1.6,0.3,3-0.2,4.5-0.8
	c0.5,0.1,1,0.2,1.6,0.4C192.6,80,193.3,81,193.6,82.5c0.3,1.4,0,2.9-0.1,4.3c-0.1,1-0.3,2.101-0.6,3.101c-0.7,2.3-0.8,4.7-1.1,7.1
	c-0.3,2.4-0.1,4.8,0.4,7.101c0.6,2.6,2.1,4.399,4.6,5.5c0.7,0.3,1.5,0.6,2.2,0.8c1.1,0.399,2.2,0.399,3.3,0.1
	c0.6-0.2,1.2-0.399,1.8-0.6c4.3-1.601,8.6-3,12.8-4.7c2.7-1.1,5.6-2,8.4-2.9c0.2-0.1,0.5-0.1,0.7-0.1c0.1,0.6-0.3,0.6-0.6,0.8
	c-1.1,0.5-2.2,1-3.2,1.601c-0.7,0.399-1.7,0.699-1.5,1.899c0,0.101-0.3,0.3-0.5,0.5c-0.8,0.8-1.5,1.601-2.3,2.4
	c-0.5,0.5-1,1-1.5,1.5c-0.2,0.2-0.6,0.3-0.8,0.6c-1.6,2.5-4.5,2.9-6.9,4.101c-2.1,1-4.5,1.3-6.8,1.3c-3.8-0.101-7.5-0.5-10.7-3
	c-2.8-2.2-5.2-4.7-7.5-7.3c-2.1-2.4-2.6-5.601-2.6-8.801c0-1,0.1-2.1,0.2-3.399c-0.4,0.399-0.7,0.6-0.9,0.899
	c-0.8,1.2-1.7,2.301-2.5,3.5c-1.7,2.601-3.4,5.2-5.1,7.9c-1.1,1.7-2.1,3.4-2.6,5.4c-0.1,0.5-0.3,1.1-0.5,1.6
	c-0.7,1.8-1.8,3.2-3.9,3.5c-1.3-1.4-3.4-1.5-4.9-2.8c0.1-1.101,0.4-1.9,0.7-2.8c0.3-1,0.7-1.9,1-2.9c0.3-0.9,0.9-1.7,0.7-2.7
	c-0.4,0.7-0.9,1.4-1.3,2.101c-1.5,2.1-3,4.1-4.5,6.199c-1.1,1.7-2.8,2.601-4.5,3.4c-0.6,0.3-1.2,0.2-1.8-0.1c-1-0.5-2-0.9-3.1-1.301
	c-2.7-0.899-3.9-2.899-4.6-5.399c-0.3-1.101-0.5-2.2-0.7-3.4c-0.4,0.3-0.7,0.4-0.8,0.601c-1.8,1.899-3.4,3.8-4.8,6
	c-0.7,1.1-1.8,2-2.8,3c-0.6,0.6-1.5,0.8-1.9,1.699c-0.1,0.2-0.5,0.4-0.8,0.4c-1.4,0.3-2.9,0.4-4.1-0.7c-0.6-0.6-1.3-0.899-2.1-1
	c-0.3-0.1-0.6-0.2-0.9-0.2c-2.6-0.5-3.7-2.3-4-4.699c-0.1-1,0-2.101,0.2-3.101c0.3-1.899,1-3.7,1.8-5.399c0.2-0.4,0.3-0.9,0.5-1.301
	c-0.5-0.399-0.8,0-1.1,0.2c-2.3,1.8-4.6,3.7-6.9,5.5c-0.8,0.601-1.3,1.4-1.5,2.4c-0.1,0.7-0.3,1.399-0.5,2.1
	c-0.3,1.3-0.5,2.7-1.3,3.8c-0.2,0.301-0.3,0.601-0.4,0.9c-1,2.2-1.3,4.7-2.6,6.9c-1.2,2-1.8,4.399-2.8,6.6
	c-3.2,6.5-5.1,13.4-6.9,20.4c-0.3,1.199-0.6,2.5-0.9,3.699c-0.4,1.2-0.4,2.4-0.3,3.601c0,0.6,0,1.3-0.1,1.899
	c-1,3.801-2.9,7.301-5.3,10.4c-1.2,1.6-3.1,2.5-5.3,1.8c-1.8-0.5-3.6-0.899-5.4-0.5c-0.7,0.101-1.4-0.1-2.1-0.1
	c-2-3.5-2.9-7.2-3.3-11c-0.8-7.2,0.4-14,3.2-20.601c2.5-5.899,5.8-11.5,10-16.3c4.5-5,8.9-10,13.9-14.6c0.5-0.4,1-0.9,1.3-1.4
	c0.3-0.399,0.6-1,0.7-1.5c0.2-1.3,0.4-2.7,0.6-4.2c-0.9,0.301-1.1,1.101-1.4,1.601c-1.2,2.399-3.1,4.3-4.9,6.1
	c-1.4,1.4-2.9,2.5-4.9,2.8c-0.8,0.101-1.4,0.2-2-0.3c-1.3-1.1-2.8-1.8-4.5-2.1c-1.9-0.4-3.2-1.8-4.2-3.3c-0.8-1.301-1.4-2.7-2.1-4
	c-0.4-0.7-0.7-1.4-1.1-2.301c-1.1,1.2-1.6,2.601-2.4,3.801c-2,3-4.2,5.899-7.1,8c-1.1,0.8-2.3,1.199-3.5,1.5
	c-1.1,0.3-2.3,0.1-3.5-0.5c-1.7-0.9-3.5-1.601-5.2-2.4c-0.9-0.4-1.7-0.9-2.1-1.9c-0.4-0.8-0.8-1.6-0.9-2.5
	c-0.5-3.199-0.7-6.5-0.1-9.8c0.3-1.7,0.4-3.5,0.5-5.2c0.2-3.8,0.9-7.5,1.4-11.199c0.2-1.7,0.4-3.301,0.6-5c0.1-1,0.1-2.101-0.4-3.2
	c-0.6,0.1-1.1,0.2-1.6,0.399c-3.9,1.7-7.7,3.4-11.6,5.2c-0.6,0.3-1.2,0.5-1.8,0.8c-1.4,0.5-2.7,0.9-4.2,0.4
	c-0.5-0.2-1.1-0.1-1.8-0.1c-1.3-1.9-3.8-2.2-5.8-3.5c1.7-0.9,3.3-1.7,4.8-2.5c5.9-3.2,11.2-7.4,16-12.2c3.7-3.7,7.5-7.2,10.7-11.3
	C67.3,44.5,71.4,38.8,74.4,32.4c2-4.3,3.3-8.8,3.8-13.601c0.3-2.199,0.2-4.5,0-6.699c-0.1-1.2-0.6-2.301-0.9-3.5
	c-0.3-1-1.1-1.5-2-1.9c-2.5-0.8-5-1-7.6-0.9C61,6.2,54.3,7.4,47.7,9.5c-3.4,1.101-6.7,2.601-10,4c-2.2,1-4.3,2.2-6.4,3.3
	c-1,0.5-2,1.101-3,1.5c-1.7,0.601-3.2,1.5-4.7,2.4c-1.4,0.9-2.9,1.3-4.5,1.5c-1.4,0.2-2.8,0.1-4.2-0.6c-1.3-0.7-2.8-1.101-4.2-1.7
	c-0.5-0.2-1-0.5-1.7-0.8c0.4-0.301,0.6-0.601,1-0.7c1.8-0.5,3.3-1.601,4.9-2.5c2.4-1.4,4.7-2.8,7.1-4c3-1.601,6.1-3.2,9.2-4.601
	C37.7,4.4,44.5,2.8,51.4,1.5C56.6,0.8,61.8,0.2,67,0C72.9-0.2,78.6,1.1,83.6,4.5c3.3,2.2,5.6,5.2,6.6,9.101
	c0.5,2.1,0.4,4.3,0.2,6.399c-0.3,3.101-0.9,6.2-1.7,9.2c-0.8,2.9-2,5.6-3.5,8.1c-1.7,3-3.6,5.801-5.5,8.7c-3.8,5.8-8.2,11-13.2,15.7
	c-1,1-2.1,2-3.1,3C63,65.2,62.6,65.8,62.1,66.3z M87.7,164c0.5-0.8,0.8-1.3,1.1-1.8c2-3.4,3.3-7.1,4.6-10.8
	c2-5.601,3.9-11.101,5.6-16.8c1.2-4,2.3-8,3.4-12c0.1-0.5,0.1-1.101,0.3-2c-0.6,0.5-0.9,0.699-1.2,0.899c-3.7,3.8-6.9,7.9-9.6,12.5
	c-2.1,3.601-3.8,7.4-5,11.4c-1.3,4.399-1.7,8.8-1.1,13.3C86,160.5,86.4,162.2,87.7,164z M131,112.4c1.6-1.4,4.4-4.9,5.5-6.8
	c2.9-4.801,4.8-10.101,6.3-15.5c0.1-0.301,0-0.7,0-1.101c-0.2,0.101-0.4,0.2-0.5,0.3c-4.1,5.2-7.4,11-10.2,17
	c-0.4,0.9-0.8,1.9-1.1,2.9C130.7,110.1,130.4,111.1,131,112.4z"/>
<path id="a3" fill="#FFFFFF" stroke="#000000" stroke-miterlimit="10" d="M461.2,116.8c3.201-0.199,5.9-0.8,8.6-1.5
	c3.701-1,7.4-2.1,11.102-3c1.398-0.399,2.799-0.399,4.5-0.699c-0.4,1-0.9,1.699-0.701,2.699c0.201,1.101-0.699,2.101-1.5,2.9
	c-0.699,0.7-1.6,1.3-2.4,1.9c-0.6,0.5-1.299,0.899-2.1,1.199c-2.5,0.9-5,1.7-7.6,2c-2.5,0.301-5.1,0.601-7.6,0.801
	c-1,0.1-2.1,0-3.1-0.101c-4.301-0.5-8.5-0.3-12.4,1.7c-0.1,0-0.201,0.1-0.201,0.1c-2.299,0.9-3,0.7-4.299-1.399
	c-0.5-0.8-1.1-1.601-1.9-2.101c-0.301-0.199-0.6-0.5-0.9-0.899c0.9-0.9,2-1,3-1.5c1-0.601,2-1.101,2.9-1.601
	c1-0.6,1.9-1.199,2.801-1.899c1-0.7,1.898-1.4,2.799-2.2c0.9-0.7,1.701-1.5,2.5-2.3c0.801-0.8,1.5-1.7,2.201-2.601
	c0.699-0.899,1.299-1.8,1.898-2.699c0.602-0.9,1.201-1.801,1.801-3.4c-1,0.7-1.6,1.1-2.1,1.5c-4.5,3.8-9.4,6.9-14.1,10.3
	c-2.701,1.9-5.701,3.2-8.801,4.4c-0.699,0.3-1.5,0.5-2.301,0.6c-2.1,0.3-4-0.2-5.299-2.1c-0.801-1.2-1.801-2.2-3.301-2.7
	c-2.6,1.4-5.299,2.7-8,4.1c-2.299,1.2-4.9,1.101-6.9-0.699c-1.1-1-2.299-1.9-3.6-2.801c-2-1.5-3.199-3.5-3.1-6.1
	c0.1-3.3,0.6-6.5,1.199-9.7c0.201-1.399,0.602-2.8,1-4.2c0.201-0.699,0.301-1.399,0.4-2c-0.699-0.199-0.9,0.2-1.1,0.5
	c-1.6,2.2-3.2,4.4-4.7,6.601c-0.9,1.2-1.7,2.5-2.601,3.7c-0.8,1.1-0.8,1-2.7,1.5c-0.4-0.4-0.9-0.801-1.3-1.2
	c-0.8-0.9-1.7-1.7-2.9-2.101c-0.6-0.199-1-0.699-1.5-1.1c0.4-1.9,0.7-3.7,1.1-5.5c-0.5-0.2-0.7,0.2-0.9,0.5c-3.7,5.2-7,10.5-9,16.6
	c-0.7,2.2-1.6,4.4-2.4,6.5c-0.1,0.4-0.3,0.801-0.5,1.101c-0.5,0.8-1.6,1.1-2.5,0.8c-0.4-0.1-0.8-0.2-1.1-0.5
	c-0.8-0.9-1.9-1.2-2.9-1.6c-0.4-0.101-0.7-0.4-1.1-0.601c0.1-0.3,0.1-0.6,0.2-0.899c1.7-5.101,3.4-10.2,5-15.2
	c0.8-2.4,0.9-4.8,1.4-7.7c-0.6,0.6-0.9,0.7-1.1,1c-1,1.9-2,3.8-2.9,5.8c-1.3,2.8-2.5,5.601-3.6,8.4c-1.1,2.6-2.4,5-3.9,7.399
	c-0.4,0.801-1,1.5-1.5,2.2c-0.9,1.3-2.2,1.8-3.7,2.101c-1,0.199-1.9-0.301-2.7-0.7c-0.9-0.5-1.9-0.9-2.9-1.101
	c-1.3-0.3-2.3-1.1-3-2.199c-1.2-1.7-2-3.4-2.6-5.4c-0.9-2.9-1.4-5.9-1.5-9c0-0.9-0.1-1.7-0.2-2.9c-0.4,0.5-0.7,0.7-0.8,0.9
	c-1.6,2.9-2.3,6.1-3.4,9.2c-0.1,0.2,0,0.5-0.1,0.7c-1.8,2.899-2.8,6.3-5.6,8.5c-1.2,0.899-2.4,1.899-3.8,2.5
	c-1.7,0.8-3.6,0.699-5.4,0.199c-0.6-0.199-1.2-0.399-1.8-0.699c-1.3-0.7-2.7-1.4-4.1-1.9c-0.8-0.3-1.6-0.8-2.2-1.4
	c-0.8-0.699-1.2-1.6-1.4-2.699c-0.2-2.101-0.1-4.2,0.7-6.101c0.7-1.8,1.6-3.7,2.5-5.399c1.6-2.9,3.3-5.7,4.9-8.5
	c0.1-0.101,0-0.301,0.1-0.5c-0.4-0.301-0.8,0-1.1,0.199c-3.5,2-7,4.101-10.5,6.2c-1,0.601-1.6,1.4-1.9,2.601
	c-1.3,4.899-3.2,9.5-5,14.199c-3.2,8.4-6.9,16.5-11.4,24.301c-3.3,5.699-7.4,10.8-11.8,15.6c-1.6,1.8-3.3,3.5-5,5.2
	c-1.4,1.3-2.8,2.6-4.3,3.8c-1.3,1.1-2.8,1.8-4.4,2.3c-1.5,0.4-2.9,0.9-4.4,1.3c-0.6,0.2-1.3,0.2-1.9,0.2c-2.2,0.101-4.3-0.3-6.3-1.2
	c-0.5-0.199-1.1-0.3-1.6-0.3c-0.6,0-1.1,0.101-1.7,0c-0.6-0.1-1.2-0.3-1.9-0.5c-1-1.3-1.2-2.899-1.3-4.5c-0.1-3.8,0.5-7.5,1.6-11.1
	c1.8-5.9,4.9-11.101,8.4-16c3.8-5.2,8.1-9.9,12.8-14.2c3.8-3.5,7.8-6.6,11.8-9.8c2.6-2.2,5.3-4.4,8-6.5c1.7-1.4,3.3-2.8,5.1-4
	c1-0.8,1.6-1.7,1.9-2.9c0.5-2.2,1.2-4.3,1.6-6.5c0.9-4.6,2-9.2,2.7-13.899C306.7,71,308.2,63,309.6,55c1.1-6.7,2-13.399,2.6-20.2
	c0.5-4.899,1.1-9.699,1.7-14.5c0.4-3.199,0.7-6.399,1.1-9.5c0.4-2.899,0.7-5.699,1.1-8.6c0.1-1,0.5-1.3,1.4-1.4
	c0.9-0.1,1.7-0.399,2.6-0.399c2.4,0,4.8,0.5,6.7,2.1c1.1,1,1.5,2.2,1.7,3.601c0.2,2.199,0.1,4.3-0.2,6.5
	c-0.8,5.6-1.6,11.199-2.1,16.899c-0.6,5.601-1.3,11.101-1.8,16.7c-0.6,6.8-1.9,13.5-3.2,20.1c-1.2,6-2.1,12.101-3.3,18.2
	c-0.3,1.7-0.8,3.4-1.2,5.101c-0.1,0.5-0.1,0.899-0.2,1.5c0.8,0.199,1.3-0.101,1.8-0.4c4.1-2.1,8.1-4.2,12.2-6.2
	c3.7-1.8,7.4-3.5,11.1-5.2c0.5-0.199,1.1-0.399,1.5-0.8c1.2-1,2.5-1.2,4-1.3c1.3-0.1,2.5-0.3,3.8-0.3c1.3,0,2.7,0.1,3.8,0.1
	c0.7,0.601,0.7,1.2,0.5,1.7c-0.3,0.7-0.7,1.2-1,1.9c-0.3,0.6-0.8,1.3-0.9,1.899c-0.7,3.3-1,6.601-0.6,10c0.1,1.101,0.3,2.2,0.3,3.3
	c0,2.601,0.7,5.101,1.2,7.601c0.1,0.5,0.3,0.899,0.3,1.399c0,2.801,1.1,5.301,2,7.801c0.2,0.5,0.6,0.8,1.1,1.3
	c1.5-2.2,2.3-4.4,3.3-6.601c1.9-4.199,3.5-8.6,5.8-12.6c1.3-2.2,2.6-4.4,4.1-6.5c1.5-2.2,3.5-3.5,6.2-3.6
	c1.6-0.101,3.1-0.301,4.7,0.199c1.1,0.301,1.9,0.7,2.4,1.7c0.1,0.3,0.3,0.5,0.5,0.8c0.9,0.101,1.2-0.699,1.7-1.199
	c1.3-1.2,2.5-2.5,3.9-3.601c0.9-0.7,1.8-1.3,2.8-1.8c0.8-0.4,1.6-0.6,2.5-0.5c1.1,0.1,2.2-0.2,3.3-0.3c1.5-0.101,2.7,0.399,3.5,1.7
	c0.4,0.699,0.5,1.5,0.701,2.399c0.299-0.1,0.6-0.2,0.9-0.399c1.6-1,3.199-2.101,4.799-3.2c0.801-0.5,1.701-0.8,2.701-0.8
	c0.6,0,1.299,0,1.898-0.101c1.301-0.3,2.4,0.3,3.5,0.5c1,0.2,1.801,1.601,1.602,2.601c-0.201,1.399-0.5,2.8-1,4.199
	c-1,3.2-2.201,6.301-3.201,9.5c-1.5,4.801-2.299,9.601-2.299,14.601c0,0.6,0.1,1.3,0.1,1.899c0,0.2,0.199,0.4,0.299,0.801
	c0.4-0.101,0.801-0.101,1.102-0.2c2.299-0.9,6.5-3.601,8.199-5c0.1-1.4,0.301-2.8,0.4-4.3c0.299-3.301,1.5-6.4,3.199-9.2
	c1.9-3.2,4.201-6,6.801-8.7c1.799-1.8,3.699-3.5,5.6-5.2s4.199-2.3,6.699-1.7c0.5,0.101,1.102,0,1.701,0.101
	c1.6,0.1,3.1,0.3,4.699,0.899c1.4,0.601,2.4,1.5,3.1,2.801c-0.1,2.3-1.6,4.1-2.699,6c-0.699,1.199-1.6,2.199-2.4,3.3
	c-2.5,3.399-5.299,6.6-8.299,9.6c-1,1-2,2.101-3.102,3C436,106.1,434.5,107.1,433.1,108.2c-0.801,0.6-1.699,1.2-2.5,1.8
	c-0.1,1-0.1,1.9,0.699,2.601c0.602-0.301,1.301-0.5,1.9-0.9c1.4-0.8,2.701-1.7,4-2.6c2.6-1.9,5.201-3.7,7.801-5.601
	c4-3,7.9-6.2,11.6-9.7c1-1,2.1-1.899,3.199-2.899c1.602-1.4,3.201-2.9,4.801-4.4c0.801-0.8,1.5-1.6,2.199-2.5
	c0.4-0.6,1-0.8,1.602-0.7C469.5,83.4,470.6,83.4,471.7,83.6c0.9,0.1,1.9,0.3,2.801,0.6c0.799,0.2,1.199,1,1.5,2
	c-1.5,3.1-2.1,6.7-2.9,10.2c-1.199,4.899-3.5,9.2-6.301,13.399c-1.5,2.301-3.1,4.5-5.1,6.301C461.6,116,461.5,116.3,461.2,116.8z
	 M263.9,164.7c0.4-0.2,0.9-0.2,1.2-0.4c1-0.699,1.9-1.399,2.8-2.199c2.9-2.601,5.4-5.601,7.9-8.7c2.7-3.3,5.2-6.601,7.8-10
	c0.3-0.4,0.7-0.9,0.9-1.4c1.9-3.2,3.7-6.3,5.1-9.7c1.4-3.399,3-6.699,4.4-10.1c0.9-2.1,1.7-4.3,2.5-6.5c0.1-0.3,0.1-0.6,0.2-0.9
	c-0.2-0.1-0.3-0.1-0.3-0.1c-0.3,0.1-0.6,0.2-0.8,0.4c-5.5,4.3-11,8.5-15.8,13.5c-3.6,3.8-7.1,7.6-9.7,12.1c-1.5,2.6-3,5.3-4.2,8.1
	c-1.8,4.101-2.9,8.5-2.6,13C263.2,162.8,263.2,163.7,263.9,164.7z M345.6,87.1c-0.3,0-0.5-0.101-0.6,0c-1.3,1.1-2.6,2.1-3.7,3.399
	c-4.3,4.7-7.6,10-10.7,15.5c-1.3,2.3-2.3,4.9-2.8,7.601c-0.2,1-0.3,2,0.5,3c0.4-0.2,0.8-0.4,1-0.601c2.4-2.2,4.5-4.6,6.1-7.3
	c3.9-6.4,7-13.2,9.8-20.2C345.4,88,345.5,87.6,345.6,87.1z M443.6,87.8c-2.6,1.101-7,5.7-8.699,8.9c1.6-0.9,3.699-2.9,7.299-6.9
	C442.799,89.3,443.401,88.7,443.6,87.8z"/>
<path id="a4" fill="#FFFFFF" stroke="#000000" stroke-miterlimit="10" d="M537.2,16c1.4-1.1,2.701-2.1,4-3.1
	c2.701-2,5.4-4,8.201-5.9C555,3.3,561.2,2.7,567.6,4.5c3.4,1,5.801,3.101,6.301,6.8c0.398,2.5,0.799,5.101,0.799,7.601
	c0,5.7-0.1,11.3-1.299,16.899C573,37.6,572.7,39.4,572.2,41.2c-2.299,8.5-4.699,16.9-7,25.4c-0.4,1.5-1,3-1.5,4.5
	c-1.6,5.399-3.1,10.699-4.799,16.1c-1,3.4-2.301,6.7-3.5,10c-1.801,4.9-3.5,9.8-4.801,14.8c-0.5,1.9-0.801,3.9-1.1,5.9
	c-0.201,1.3-0.701,2.3-2.1,2.5c-0.4,0.1-0.801,0.3-1.102,0.399c-1.6,0.801-3.1,0.4-4.5-0.6c-1.699-1.1-3.5-2.2-5.398-3.4
	c-0.201-1,0.1-2.199,0.398-3.5c1.701-7,4-13.8,6.5-20.5c1.5-4,2.9-8.1,4.102-12.3c1.699-6.1,3.5-12.1,5.199-18.2
	c1.199-4.199,2.301-8.3,3.4-12.5c1.299-4.899,2.799-9.8,4-14.8c1.299-5,2.1-10.2,2.1-15.399c0-2.301,0-4.601-0.199-6.9
	c0-0.4-0.102-0.8-0.201-1.1c-0.6-0.301-1,0.1-1.4,0.3c-3.199,1.8-6.1,4-8.898,6.5c-2.701,2.5-6,2.6-9.201,0.7
	C540.299,18.3,538.7,17.2,537.2,16z"/>
<path id="a5" fill="#FFFFFF" stroke="#000000" stroke-miterlimit="10" d="M777.901,100.7c-0.801,0.5-1.102,0.6-1.4,0.8
	C772,105.4,767,108.6,762.2,112c-2.9,2.101-6.199,3.601-9.6,4.9c-0.5,0.2-1.1,0.3-1.6,0.399c-2.4,0.4-4.5,0-5.9-2.1
	c-0.801-1.1-1.801-2.1-3.199-2.6c-2.102,1-4.201,2.199-6.301,3.199c-2.4,1.101-4.699,1.301-7.1-0.199c-0.801-0.5-1.4-1.2-2-2.101
	c-0.301-0.5-0.6-1.2-1-1.7c-2.4-2.699-2.6-5.899-2.201-9.3c0.301-3,0.9-6,1.301-9c0.1-1,0.199-2,0.301-3c-0.9-0.3-1.201,0.3-1.5,0.7
	c-2.5,3.2-5.102,6.4-7.5,9.7c-2.201,3.1-4.5,6.2-6.201,9.7c-1.699,3.5-3.699,6.899-5.1,10.5c-0.4,1-1.1,1.699-2.199,2
	c-1.4,0.5-2.602,0.3-4-0.101c-0.102,0-0.4-0.1-0.4-0.2c-0.1-1.199-1.701-1.399-1.801-2.699c-0.4,0.199-0.699,0.3-1,0.5
	c-2.799,2.5-5.9,4.6-9,6.699c-1.1,0.7-1.6,1.601-1.799,2.9c-0.201,1.7-0.701,3.3-1,4.9c-0.9,4.899-1.9,9.699-3.4,14.399
	c-0.801,2.4-1.6,4.7-2.5,7c-0.801,2.101-1.701,4.2-2.5,6.2c-1.301,3.1-3.301,5.8-5.4,8.5c-1.699,2.2-3.5,4.4-5.5,6.3
	c-2.6,2.5-5.801,4-9.199,4.8c-1.801,0.4-3.701,0.2-5.4-0.5c-1.4-0.6-2.701-1.399-4.1-1.8c-1.4-0.399-2.801-0.6-4.102-0.899
	c-1-1.4-1.199-2.9-1.299-4.4c-0.201-2.1,0-4.2,0.5-6.2c0.799-2.899,1.699-5.8,2.699-8.7c0.9-2.6,2.4-5,4.1-7.3
	c2.9-3.8,6.201-7.3,9.9-10.399c5.201-4.5,10.6-8.801,16.1-12.9c3-2.2,2.602-1.3,3-5.5c0.102-0.8,0.102-1.6,0.201-2.4
	c0-0.1-0.1-0.1-0.201-0.399c-0.299,0.1-0.699,0.2-1,0.3c-1.299,0.6-2.6,1.2-3.898,1.9C670.2,123.7,669,124,667.7,123.8
	c-2.4-0.3-4.4-1.199-5.9-3.199C661.6,120.3,661.5,120,661.2,119.8c-1.9-1.6-2.699-3.699-3-6.1c0-0.3-0.1-0.6-0.199-1
	c-0.4,0.2-0.701,0.3-0.9,0.5c-1.699,1.5-3.6,2.9-5,4.8c-1.699,2.2-4.199,3-6.801,3.101c-1.398,0-2.799-0.601-3.898-1.5
	c-0.701-0.601-1.301-1.2-2-1.7c-1.801-1.4-2.701-3.3-3-5.5c-0.102-0.8,0.199-1.601-0.5-2.4c-1.301,1.2-2.301,2.5-3.301,3.8
	c-1.699,2.301-3.6,4.2-6.1,5.601c-0.801,0.399-1.5,0.8-2.301,1.2c-2.1,0.899-4,0.699-5.9-0.601c-1.299-0.899-2.699-1.8-3.898-2.7
	c-1.102-0.8-1.701-1.899-1.801-3.3c0-1.3,0-2.6,0.199-3.8c1-5.3,2-10.5,3.801-15.6c0.199-0.5,0.199-1,0.301-1.601
	c-4.201,0.5-8.201,1-12.301,1.5c-0.1,0.4-0.301,0.8-0.4,1.2c-1.199,5.2-2.4,10.4-3.6,15.6c-0.699,2.9-1.6,5.7-2.801,8.4
	c-0.699,1.6-1.898,2.1-3.398,2.2c-1.301,0.1-2.5-0.2-3.5-1.101c-1.102-1-2.301-1.899-3.602-3C589,110.7,589.5,103.4,589.6,96
	c-0.699-0.2-1.199-0.3-1.699-0.399c-3.602-0.4-7-1.601-10.102-3.601c-0.699-0.399-1.398-0.899-2.1-1.1
	c-1.6-0.5-2.799-1.601-3.799-2.8c-1.301-1.801-2.602-3.7-3.701-5.601c-0.5-0.899-0.699-1.899-0.9-2.899
	c-0.199-1,0.201-1.801,1-2.601c1.4-1.399,3.102-1.899,5-2c1-0.1,1.9-0.3,2.801-0.6c1.801-0.601,3.699-0.9,5.6-0.601
	c3.301,0.5,6.5,1.5,9.801,2.4c1.1,0.3,2.1,1,3.199,1.6c0.5,0.301,1.1,0.601,1.701,1c0.6-1.899,1-3.699,1.398-5.399
	c1.801-6.9,3.602-13.8,5.301-20.7c1.9-7.5,3.6-15.1,5.4-22.6c1.199-4.9,2.299-9.801,3.5-14.7c0.299-1.2,0.699-2.4,1.199-3.7
	c0.301-0.8,0.9-1.3,1.801-1.4c1-0.1,2-0.199,3.1,0.2c0.6,0.3,1.199,0.4,1.9,0.4c0.799,0.1,1.6,0.3,2.1,1
	c0.6,0.899,1.1,1.8,0.9,2.899c-0.1,0.601-0.201,1.101-0.301,1.7c-1.4,4.9-2.1,10-3.199,15c-1,4.8-2,9.5-3.201,14.3
	c-1.5,6.2-3.1,12.4-4.6,18.601c-1.699,6.7-3.4,13.5-5,20.2c-0.299,1.3-0.6,2.6-0.6,4.1c2.6,0,5,0,7.4-0.9
	C615.7,87,617.799,86.1,620.2,86.1c0.801,0,1.701-0.301,2.5-0.7c1.801-0.7,3.6-0.5,5.4,0.2c1.4,1.8,1.1,3.899,0.699,5.899
	c-0.199,1-0.5,2-1,3c-2.1,4.5-3.1,9.4-4.1,14.2c-0.299,1.2-0.699,2.5-0.4,4c0.4-0.2,0.801-0.3,1-0.5c1.5-1.6,3.102-3.3,4.5-5
	c2.602-3.3,5.102-6.7,7.701-10.1c0.6-0.801,1.199-1.5,1.799-2.2c1.9-2.2,3.801-4.4,4.801-7.101c0.1-0.3,0.4-0.5,0.6-0.8
	c0.301-0.1,0.6-0.1,0.9-0.2c1.6-0.199,3.199-0.3,4.699-0.8c1.102-0.399,2.301-0.5,3.5,0.3c1,0.7,1.301,1.5,0.801,2.7
	c-0.199,0.4-0.4,0.9-0.699,1.2c-1.201,1.3-1.801,2.8-2.4,4.4c-1.801,4.5-3.1,9.1-4,13.8c-0.201,1.3-0.301,2.5-0.4,3.8
	c0,0.5,0.1,0.9,0.1,1.4c0.701,0.399,1-0.2,1.301-0.4c4.6-4.1,9.1-8.3,13.299-12.8c1.301-1.4,2.801-2.7,4.102-4
	c0.898-0.9,1.699-1.9,2.5-2.9c1.6-2.1,3.199-4.2,4.898-6.2c1.301-0.6,2.602-0.699,4-0.399c1,0.2,2.102,0.1,3.102,0.1
	c0.6,0,1.199-0.1,1.699-0.6c1-0.9,2.4-0.601,3.6-1.2c0.9,0.4,1.701,0.8,2.6,1.2c0.801,1.5,2.201,2.3,3.5,3.2
	c0.4,0.3,0.6,0.699,1,1.1c-1.4,2-1.4,4.2-1.799,6.4c-0.301,1.6-0.5,3.3-0.9,4.899c-0.9,3.7-2.201,11.7-2.5,15.3c0,0.4,0,0.7,0.1,1.4
	c0.5-0.3,0.9-0.5,1.199-0.7c3.102-3.2,6.201-6.399,9.301-9.7c0.4-0.399,0.6-0.899,0.801-1.399c2.1-5.2,4.199-10.4,6.199-15.601
	c1.4-3.6,2.801-7.3,4.1-11c0.5-1.3,0.801-2.6,1.1-3.899c1.5-5.3,3-10.601,4.301-16c1.5-6,2.699-12.2,3.6-18.4
	c0.4-3.2,2-5.899,3.701-8.5c0.398-0.6,1.299-0.7,1.699-1.3c0.699-1.3,1.6-1,2.6-0.6c1.801,0.699,3.4,1.699,4.1,3.699
	c0.102,0.2,0.102,0.5,0.301,0.601c1.6,0.899,1.301,2.6,1.699,4c0.201,0.8,0.102,1.6,0.301,2.399c0.199,1.2,0.1,2.4-0.301,3.601
	c-1,2.8-1.1,5.6-1.398,8.5c-0.102,0.8-0.102,1.5-0.602,2.2c-0.398,0.6-0.6,1.5-0.699,2.3c-0.199,3-1.301,5.7-2,8.6
	c-0.1,0.3-0.199,0.601-0.301,0.9c-1,3.3-2.1,6.5-3.6,9.6c-0.4,0.9-0.799,1.9-0.799,3c0.398,0.101,0.799,0.2,1.199,0.2
	c2-0.2,4,0.2,6,0.3c1.801,0.101,3.199,1.101,4.1,2.601c1.201,1.899,1.9,4,1.6,6.399c-0.199,1.9-0.398,3.8-1,5.601
	c-0.6,1.6-0.699,3.399-1,5.199c-0.299,1.801-0.6,3.601-0.898,5.4c-0.102,1,0,2.1,0,3.2c0.5-0.101,0.898-0.101,1.199-0.3
	c1.9-1,4.301-1.4,5.9-3.301c0.1-1.3,0.299-2.8,0.4-4.199c0.299-3.4,1.5-6.4,3.199-9.2c2-3.3,4.4-6.3,7.1-9
	c1.701-1.7,3.5-3.3,5.301-4.9c1.9-1.7,4.1-2.3,6.699-1.8c0.9,0.2,1.701,0.1,2.6,0.2c1.4,0,2.701,0.399,3.9,1c1.6,0.8,1.9,1,3,2.899
	c-0.299,2.301-1.6,4.2-2.799,6c-3.201,4.601-6.701,8.9-10.701,12.9c-1,1-1.9,2-2.9,2.9c-1.299,1.1-2.799,2.199-4.199,3.199
	c-0.801,0.601-1.699,1.2-2.4,1.801c-0.299,1-0.1,1.899,0.5,2.699c0.701-0.3,1.4-0.5,1.9-0.899c1.4-0.8,2.699-1.7,4-2.601
	c2.6-1.899,5.199-3.699,7.801-5.6c4.1-3,7.898-6.2,11.6-9.7c1.199-1.1,2.4-2.1,3.6-3.2c1.4-1.3,2.9-2.5,4.199-3.899
	c1-1,1.9-2.101,3.102-3.4c0.1,0,0.6,0,1.1,0c1,0.101,1.9,0.101,2.9,0.2c0.799,0.1,1.6,0.2,2.299,0.3c1.301,0.2,2,1,2.201,2.3
	c-1.102,2.5-1.801,5.2-2.4,7.9c-1.801,8.4-5.9,15.4-11.701,21.6c-0.199,0.2-0.299,0.4-0.5,0.601c0,0.1,0,0.1-0.1,0.2
	c0.1,0.5,0.5,0.3,0.801,0.3c4.199-0.4,8.299-1.7,12.4-2.7c2.199-0.6,4.5-1.3,6.699-1.8c1.199-0.3,2.5-0.4,4-0.601
	c-0.199,0.5-0.301,0.7-0.4,0.9c-0.1,0.3-0.4,0.6-0.4,0.8c0.5,2-0.6,3.101-1.898,4.2c-0.4,0.3-0.701,0.7-1,1
	c-1.102,1-2.301,1.7-3.701,2.1c-4.799,1.601-9.799,2.2-14.799,2.4c-1.701,0.1-3.301-0.2-5-0.3c-3.4-0.2-6.701,0.2-9.801,1.7
	c-0.1,0-0.1,0.1-0.199,0.1c-2.602,1.1-3.301,0.9-4.701-1.5C760.1,120,759,119.4,758,118.4c0.5-0.601,1.199-0.7,1.799-1
	c6.9-3.3,12.801-7.9,16.801-14.601C777,102.6,777.299,101.9,777.901,100.7z M675.1,136c-0.699,0.4-1.199,0.601-1.6,1
	c-2,1.601-4,3.2-6,4.8c-3.301,2.7-6.4,5.5-9.301,8.7c-2.1,2.4-4.1,4.9-5.299,7.9c-1,2.5-1.801,5.1-2.5,7.7
	c-0.602,2.3-0.9,4.699-0.4,7.1c0.199,0.8,0.5,1.5,0.9,2.2c0.898,1.399,1.799,1.6,3.199,0.6c1-0.7,1.9-1.399,2.801-2.2
	C663.1,168.6,667.5,162.1,670,154.4c1.6-4.8,2.799-9.8,4.199-14.7C674.7,138.6,675,137.4,675.1,136z M680.6,92
	c-0.699,0.601-1.1,0.8-1.4,1.101c-3.4,3.199-6.199,6.8-8.6,10.8c-1.9,3.3-2.9,6.899-3.301,10.6c-0.199,1.3-0.1,2.5,0.301,3.8
	c0.4,0,0.699,0,1-0.1c0.801-0.4,1.6-0.8,2.199-1.4c2.5-2,4.602-4.399,6.602-6.899c0.898-1.101,1.398-2.3,1.6-3.7
	c0.199-1.4,0.5-2.8,0.699-4.2C680.2,99,680.6,95.7,680.6,92z M589.7,90.6c0.1-2.301-0.1-4.4-0.699-6.4c-0.9-2.7-2.701-4.5-5.5-5.2
	c-1-0.3-2-0.5-3-0.399c-1.9,0.1-3,2-2,3.6c1.1,1.8,2.199,3.5,3.6,5C584,89.4,586.5,90.6,589.7,90.6z M761.1,86.1
	c-3.6,2.199-8,7-8.6,9.199C755.5,93,759.901,88.4,761.1,86.1z M727.5,41.1c-0.1,1.1-0.301,2.1-0.4,3.199
	C728.1,43.3,727.901,42.2,727.5,41.1z"/>
</svg>
