<?xml version="1.0" encoding="utf-8"?>
<!-- Generator: Adobe Illustrator 19.1.0, SVG Export Plug-In . SVG Version: 6.00 Build 0)  -->
<svg version="1.1" id="Layer_1" xmlns="http://www.w3.org/2000/svg" xmlns:xlink="http://www.w3.org/1999/xlink" x="0px" y="0px"
	 viewBox="-160 -103 1119 1106" style="enable-background:new -160 -103 1119 1106;" xml:space="preserve">
<style type="text/css">
	.st0{fill:#CCC7BE;}
	.st1{fill:#4C403B;}
	.st2{fill:#424242;}
	.st3{fill:#FFFFFF;}
	.st4{fill:#F7F5AD;}
	.st5{fill:#8ABCF9;}
	.st6{fill:#C7F7B0;}
	.st7{fill:#F47676;}
	.st8{fill:#5D5D5D;}
</style>
<g id="SoSLKm_1_">
	<g id="LlmlCu_1_">
		<g>
			<path d="M952.5,216.7c0,9.4,0,18.7,0,28.1c-10,14.2-14.2,29.2-11.4,47.3c3.9,24.8,6.3,50,6.5,75.1c1.2,153.6,1.8,307.3,2,460.9
				c0,10.1-1.8,21.4-6.5,30.1c-20,37.1-42.2,72.4-78.7,96.6c-21.3,14.1-43.3,25.5-68.2,30.9c-3.9,0.8-8.2,1-11.4,3
				c-17.8,10.9-37.6,11.3-57.4,11.8c-45.3,1.1-90.6,2.1-136,3.3c-4.2,0.1-8.4,1-12.7,1.5c-71.3,0-142.6,0-213.9,0
				c-9.3-0.7-18.5-1.5-27.8-2c-48.8-2.6-97.6-2.5-146.3-9.8c-32.1-4.8-65.3-3.2-97.9-3.2s-65.2,1.9-97.8,2.3
				c-26.1,0.3-47.3-10.8-63.9-30.7c-11.5-13.8-21.6-29-34.4-41.5c-12.1-11.9-18.8-25.5-23.9-41.2c-12.4-38-18.8-76.3-18.2-116.5
				c1-64-0.8-128.1-1.6-192.1c-0.1-5.6-1.4-11.2-2.2-16.9c0-150.5,0-301,0-451.5c0.7-6,1.4-12,2.2-17.9c1.6-12.8,2-25.9,5.1-38.4
				c7.7-31.3,22.1-59.4,46.4-81.2c34-30.6,69.7-57.9,118.7-59.4c18.9-0.6,37.8-4,56.7-6.2c177.9,0,355.7,0,533.6,0
				c14.6,1.5,29.1,3.8,43.7,4.2c40.6,1.2,81.3,1.5,121.9,2.5c22.6,0.6,44.5,4.5,63.1,18.6c18.3,14,36.9,27.6,53.8,43.1
				c18.3,16.7,30.6,37.7,36.7,62.2c9.7,39.3,14.2,78.9,14,119.5C946.3,171.7,950.3,194.2,952.5,216.7z M131,322.7
				c-5.4,0.6-8.8,0.8-12.2,1.3c-21.7,2.9-43.3,7.2-65.1,8.5c-28.7,1.7-57.6,1.2-86.4,1.2c-32.8,0-57.7-24.9-58.4-57.7
				c-0.1-2.9-0.1-5.8-0.2-8.6c-0.1-10.6-7.8-10.5-15.2-10.6c-7.2,0-15.3-1.1-15.7,9.7c-0.3,9.3-0.7,18.7-0.6,28.1
				c1.5,146.4,3.4,292.9,4.2,439.4c0.3,48,0.1,95.7,19.1,141c2.1,4.9,3.8,10.3,7,14.4c13.3,17.4,26.7,34.8,40.9,51.6
				c11.4,13.5,25.5,24.7,43.9,24.8c24.9,0.2,50.3,5,74.7-5c2.8-1.2,6.4-0.9,9.6-0.8c32.3,1.7,64.7,2.9,97,5.4s64.4,8.1,96.7,9.1
				c78.4,2.4,156.9,4.1,235.4,3.9c66.9-0.2,133.8-3.9,200.7-5.4c25.1-0.6,50.5,1.8,73.6-11.2c1.2-0.7,2.7-1,4.1-1.3
				c53.4-11.5,92.7-41.9,119.3-89.2c2.5-4.4,5.1-8.7,8.1-12.7c8.5-11.4,11.8-24.2,11.7-38.4c-0.9-130.3-1.9-260.6-2.1-390.9
				c-0.1-51.2-0.4-102.2-7.4-153c-1.4-9.9-4.4-14.7-15.2-14.9c-84.9-1.7-169.7-3.7-254.5-5.7c-9.2-0.2-12.8,3.4-10.3,12.4
				c6.4,23.1,11.2,46.9,19.8,69.2c10.7,27.8,23.7,54.2,23.4,85.5c-0.3,28.3,3.6,56.6,5.4,84.9c1.9,29.8-8.5,55.8-25.6,79.5
				c-10.1,14-21.4,27.2-30.7,41.7c-12.4,19.5-27.7,34.6-50.4,41.5c-4.4,1.3-8.7,3.7-12.4,6.4c-35.7,25.7-78.9,33.6-119.8,39.5
				c-46.2,6.6-94.1,3.9-140.7-10.7c-52.4-16.3-96.5-41.4-130.5-86.3c-20-26.4-37.3-52.8-49.1-83.9c-25.8-68-20.6-134.5,4.3-201
				C128.6,331.2,129.4,327.9,131,322.7z M387.6-73.6c-28.8,0-57.6,0-86.4,0c-45.3,0-90.7,0.1-136,0c-8.4,0-15.2,0.7-14,12.1
				c2.6,24.7,5.1,49.4,6.8,74.1c1.5,20.8,4,41.8,2.1,62.3c-4.1,45.5-8.3,90.9-7.7,136.7c0.1,9.9,3.6,12.9,13.1,13.7
				c24.4,1.9,46-3.2,67.6-16.1c29.2-17.4,60.3-32,94.8-36.8c41.1-5.8,81.9-6.6,123.5-3.6c46.5,3.4,89.2,13.5,127.1,41.2
				c1.4,1.1,3.2,1.7,4.6,2.7c16.8,11.9,35.6,16.1,56,16.2c55.8,0.3,111.5,1.1,167.2,2.1c33.4,0.6,66.8,2.3,100.3,2.8
				c17.3,0.3,18.8-2.4,17.8-20c-2.2-37.3-2.8-74.8-6.8-111.9c-2.8-26.3-8.4-52.6-15.9-77.9c-8.4-28.3-33.1-43.9-54.3-62.4
				C823-59.7,795.3-67.5,764.2-68c-106.8-1.9-213.6-3.8-320.4-5.6C425-73.9,406.3-73.6,387.6-73.6z M654.3,492
				c0-10.5,0.5-19.2-0.1-27.8c-2.7-36.9-5.1-73.4-21.2-108.2c-11.5-24.8-17.2-52.3-25.7-78.5c-1.6-5-3.3-10.5-6.7-14.4
				c-25.7-29.6-60.8-44.8-95.4-60.5c-1-0.4-2.1-0.6-3.2-0.7c-51.7-5.4-103-13.3-155.6-5.2c-54.1,8.3-100.5,30.7-142.4,64.4
				c-7.1,5.8-13.4,13.3-18.3,21.1c-36.2,57.2-58.7,118.4-52.1,187.5c1,9.9,2.7,20,5.7,29.5c5.3,16.8,10.9,33.6,18.1,49.6
				c18.1,39.7,48.6,69.7,79.8,99c1.5,1.4,3.7,2.2,5.5,3.3c58.8,35.3,124,41.1,190.3,40.4c10.9-0.1,23.6-4.1,32.2-10.6
				c9.3-7,19.2-8.2,28.8-8.3c17.5-0.1,33.5-1,43.9-17.9c0.9-1.5,3.6-2.2,5.6-2.6c14.4-3.4,25.5-12.1,37.3-20.5
				c16.3-11.7,26.3-28.4,39.6-42.3C647.3,561.2,660.8,529.2,654.3,492z M22.8,307.2c0,0.1,0,0.2,0,0.3c8.6-0.5,17.2-1,25.9-1.4
				c9-0.4,18-0.2,26.9-1.2c6.3-0.7,13.2-1.8,18.5-5c9.8-5.8,18.8-13,27.8-20.1c2.3-1.8,4.4-5,5-7.9c4.9-21.8-2.9-38.9-24.1-46.9
				C51.3,205.6,1.9,211.9-44.7,240.4c-4.7,2.9-8.6,7.7-11.8,12.4c-7.7,11.2-11.8,23.2-4.6,36.3c6.9,12.7,18.3,17.8,32.2,18
				C-11.8,307.4,5.5,307.2,22.8,307.2z M-86.4,0.2c-3.2,2.3-5,3-5.9,4.4c-12.4,19.9-25,40.2-26.2,64.1c-2.3,45.2-3.1,90.5-4.1,135.8
				c-0.4,24.5,0.8,25.2,25.6,25.2c15.3,0,17.2-1.5,16.8-16.5c-1.1-44.2-2.9-88.4-4-132.6c-0.5-21.9,0-43.9-0.2-65.9
				C-84.4,10.5-85.5,6.2-86.4,0.2z M23.8,62.3c-0.6,0-1.1,0-1.7,0c0-38.1,0.2-76.3-0.3-114.4c0-4.2-2.8-10.7-6-12
				c-4.2-1.7-10.6-0.5-15,1.6c-8.5,4.1-8,12.8-7.9,20.8c0.7,72.7,1.4,145.3,2.2,218c0.2,14.8,3.2,16.6,17.8,13
				c8.8-2.2,11-7.6,11-15.8C23.7,136.4,23.8,99.4,23.8,62.3z M135.7,59.8c-3.5-36.9-6.5-70.2-9.8-103.4c-0.6-6.4-1.4-13-3.4-19
				c-1.3-3.7-5.1-6.6-7.7-9.9c-2.5,3.3-6.1,6.3-7.3,10c-1.4,4.7-0.8,10-0.9,15c-0.8,32-1.2,63.9-2.3,95.9
				c-1.5,42.3-3.5,84.6-5.1,126.9c-0.2,4.6-0.8,11,1.7,13.5c5.5,5.4,12.9,8.7,19.5,12.9c1.9-5.2,5.2-10.2,5.6-15.5
				c1.6-25.4,1.9-51,3.8-76.4C131,91.8,134,74.1,135.7,59.8z M49.6,57.7c0.2,0,0.4,0,0.7,0c0,15.8-0.1,31.6,0,47.4
				c0.2,23.4,0.3,46.7,0.9,70.1c0.3,10.4,8.2,15.9,15.3,10.6c3.2-2.4,4.7-8.5,5-13c3-54.5,5.8-109.1,8-163.7
				c0.9-22.9,0.6-45.8,0-68.7c-0.1-4.3-3.7-11.1-7.2-12.2c-12.6-4.1-22.7,4.3-22.7,17.3C49.5-17.1,49.6,20.3,49.6,57.7z M-32.1,79.6
				c-0.8,0-1.6,0-2.4,0c0-36,0.1-71.9-0.1-107.9c0-4.7-2-9.3-3.1-14c-5.1,2.9-11.2,4.9-15,9.1c-3,3.3-3.9,9.2-4.1,14
				c-0.6,12.9-0.8,25.9-0.5,38.8c1.4,59.6,3,119.3,4.8,178.9c0.1,3.3,3.2,9.4,4.4,9.3c4.2-0.4,10.2-1.9,11.9-5
				c2.8-4.9,3.8-11.5,3.9-17.4C-31.9,150.1-32.1,114.9-32.1,79.6z M169.4,256.6c-0.9-1.3-1.7-2.6-2.6-3.9c-3.3,1.1-8.3,1.4-9.5,3.6
				c-1.8,3.4-1.1,8.2-1.4,12.3c1.3,0.4,2.6,0.9,3.9,1.3C163,265.5,166.2,261.1,169.4,256.6z"/>
			<path class="st0" d="M131,322.7c-1.6,5.2-2.4,8.5-3.6,11.7c-24.9,66.5-30.2,133-4.3,201c11.8,31.1,29.2,57.5,49.1,83.9
				c33.9,44.9,78,69.9,130.5,86.3c46.6,14.5,94.5,17.3,140.7,10.7c40.9-5.9,84.1-13.8,119.8-39.5c3.7-2.7,8-5,12.4-6.4
				c22.6-6.9,37.9-22,50.4-41.5c9.3-14.5,20.6-27.7,30.7-41.7c17.1-23.7,27.5-49.7,25.6-79.5c-1.8-28.3-5.7-56.6-5.4-84.9
				c0.3-31.2-12.7-57.6-23.4-85.5c-8.6-22.3-13.4-46-19.8-69.2c-2.5-9,1.2-12.6,10.3-12.4c84.8,2,169.7,4,254.5,5.7
				c10.7,0.2,13.8,5.1,15.2,14.9c7,50.8,7.3,101.8,7.4,153c0.2,130.3,1.2,260.6,2.1,390.9c0.1,14.2-3.1,27-11.7,38.4
				c-3,4-5.6,8.4-8.1,12.7c-26.7,47.3-65.9,77.7-119.3,89.2c-1.4,0.3-2.9,0.6-4.1,1.3c-23.1,13-48.5,10.7-73.6,11.2
				c-66.9,1.5-133.8,5.2-200.7,5.4c-78.5,0.3-156.9-1.5-235.4-3.9c-32.3-1-64.4-6.7-96.7-9.1c-32.3-2.5-64.7-3.7-97-5.4
				c-3.2-0.2-6.8-0.4-9.6,0.8c-24.4,10-49.8,5.1-74.7,5c-18.4-0.1-32.4-11.3-43.9-24.8c-14.2-16.8-27.6-34.1-40.9-51.6
				c-3.2-4.2-4.9-9.5-7-14.4c-19-45.3-18.8-93-19.1-141c-0.8-146.5-2.7-293-4.2-439.4c-0.1-9.4,0.2-18.7,0.6-28.1
				c0.4-10.9,8.5-9.8,15.7-9.7c7.4,0,15.1,0,15.2,10.6c0,2.9,0.1,5.8,0.2,8.6c0.7,32.8,25.7,57.7,58.4,57.7
				c28.8,0,57.7,0.5,86.4-1.2c21.8-1.3,43.4-5.6,65.1-8.5C122.2,323.5,125.6,323.3,131,322.7z"/>
			<path class="st1" d="M387.6-73.6c18.7,0,37.4-0.3,56.1,0c106.8,1.8,213.6,3.8,320.4,5.6c31.1,0.5,58.8,8.2,83.2,29.6
				c21.2,18.5,45.9,34.1,54.3,62.4c7.5,25.3,13.1,51.6,15.9,77.9c4,37.1,4.6,74.6,6.8,111.9c1,17.6-0.5,20.2-17.8,20
				c-33.4-0.5-66.8-2.2-100.3-2.8c-55.7-1-111.5-1.8-167.2-2.1c-20.4-0.1-39.2-4.3-56-16.2c-1.5-1-3.2-1.7-4.6-2.7
				c-37.9-27.7-80.6-37.8-127.1-41.2c-41.6-3.1-82.5-2.2-123.5,3.6c-34.5,4.8-65.6,19.5-94.8,36.8c-21.6,12.8-43.2,17.9-67.6,16.1
				c-9.5-0.7-13-3.8-13.1-13.7c-0.6-45.8,3.6-91.2,7.7-136.7c1.9-20.6-0.6-41.6-2.1-62.3c-1.7-24.7-4.3-49.4-6.8-74.1
				c-1.2-11.4,5.6-12.1,14-12.1c45.3,0.1,90.7,0,136,0C330-73.6,358.8-73.6,387.6-73.6z M637.4,87.1c0.3,0,0.5,0,0.8,0
				c0,11.5-0.1,23,0,34.5c0.2,11.9,0.8,23.7,1,35.6c0.5,24.3,14.7,38.8,39.3,40.3c54.8,3.4,108.4-1.7,159.6-23.3
				c10.4-4.4,17.3-10.6,17.5-22c0.3-31.3,0.1-62.5,0.1-93.8c0-2.1-0.7-4.3-0.9-6.4c-2.1-16-4-32-6.3-47.9c-1-6.7-1-14.6-4.7-19.5
				c-12.7-16.8-28.9-29.3-51.2-29.7c-19.8-0.4-39.7,1.1-59.3-0.5c-30.1-2.4-55.6,6.5-78.8,25.2c-11,8.9-17,19.2-17.1,33
				C637.4,37.5,637.4,62.3,637.4,87.1z"/>
			<path class="st2" d="M654.3,492c6.5,37.2-7.1,69.2-33.8,97.3c-13.3,14-23.3,30.6-39.6,42.3c-11.8,8.5-22.9,17.1-37.3,20.5
				c-2,0.5-4.7,1.2-5.6,2.6c-10.4,16.8-26.4,17.7-43.9,17.9c-9.6,0.1-19.4,1.2-28.8,8.3c-8.6,6.5-21.3,10.4-32.2,10.6
				c-66.3,0.7-131.5-5.1-190.3-40.4c-1.8-1.1-4-1.9-5.5-3.3c-31.2-29.3-61.7-59.3-79.8-99c-7.3-16-12.8-32.8-18.1-49.6
				c-3-9.5-4.8-19.5-5.7-29.5c-6.6-69.1,15.8-130.3,52.1-187.5c4.9-7.8,11.2-15.3,18.3-21.1c41.8-33.7,88.3-56.1,142.4-64.4
				c52.6-8.1,103.9-0.1,155.6,5.2c1.1,0.1,2.2,0.2,3.2,0.7c34.7,15.7,69.7,30.9,95.4,60.5c3.3,3.8,5,9.4,6.7,14.4
				c8.5,26.2,14.2,53.7,25.7,78.5c16.1,34.8,18.5,71.3,21.2,108.2C654.9,472.8,654.3,481.5,654.3,492z M416.8,222.2
				c-0.1,0.6-0.2,1.3-0.2,1.9c-19.8,1.1-39.5,2.6-59.3,3.3c-43.8,1.7-81.9,18.5-115,46c-13.3,11-22.3,27-33.9,40.3
				c-24.4,27.9-35.7,60-38.9,97.1c-6.6,76.7,17,141.4,69.9,196.5c10.3,10.7,21.9,19.1,36.3,22.1c20.3,4.3,40.8,8.3,61.4,10.7
				c17.4,2.1,35.1,3.2,52.6,2.4c18.6-0.9,37-5.3,55.6-6.9c41-3.4,80.4-9.7,116.8-32.4c24.2-15.1,36.5-34.1,41-60.7
				c3.1-18.4,7-36.6,10.5-54.9c0.9-4.6,2.2-9.2,2.3-13.8c0.6-46.2-4.1-91.9-13.3-137.1c-3.2-16-11.8-29.2-23.7-40.2
				c-11.1-10.3-22.5-20.2-33.1-31c-19.3-19.6-42.7-32.2-69.1-37.5C457,224.1,436.7,224,416.8,222.2z"/>
			<path class="st3" d="M22.8,307.2c-17.3,0-34.5,0.2-51.8-0.1c-13.8-0.2-25.3-5.4-32.2-18c-7.2-13.1-3.1-25.2,4.6-36.3
				c3.2-4.6,7.1-9.5,11.8-12.4c46.7-28.4,96-34.8,147.5-15.4c21.2,8,29,25.1,24.1,46.9c-0.7,2.9-2.7,6.1-5,7.9
				c-9,7.1-18,14.3-27.8,20.1c-5.3,3.1-12.2,4.2-18.5,5c-8.9,1-18,0.8-26.9,1.2c-8.6,0.4-17.2,0.9-25.9,1.4
				C22.8,307.4,22.8,307.3,22.8,307.2z M5.9,259.5c-15.6-6.6-21.4,5.9-30,13c-0.1-3.7,1.1-6.3,1.4-9c0.2-1.8-0.8-3.8-1.2-5.7
				c-1.9,0.5-4.9,0.4-5.6,1.6c-4.1,7.1-7.7,14.6-11.9,23c12.5-1.1,22.4-1.9,34-2.9c1.1-2.1,3.2-6,5.2-9.6c2.5,4.3,4.1,10.6,7.2,11.5
				c6.3,1.8,15,3.3,19.8,0.3c12.3-7.7,24.1-4.4,36.3-2.3c2.8,0.5,5.5,1.6,8.3,1.8c6,0.4,12,0.5,15.4-7.7c-5.1,0-9.1,0-14.8,0
				c9.9-22.9-14.2-21.2-20.9-31.9c-5.9,3.5-11.4,6.9-17.5,10.6c2.9,2.3,5.2,4.2,8.1,6.6c-3.7,4.5-6.8,8.4-10.8,13.3
				c-0.9-6.1-1.4-10.1-2-14.2c-1-0.4-1.9-0.8-2.9-1.3c-5,5.6-9.9,11.2-16.2,18.2C6.8,267.7,6.3,263.2,5.9,259.5z"/>
			<path class="st1" d="M-86.4,0.2c0.8,5.9,1.9,10.3,2,14.6c0.2,21.9-0.3,43.9,0.2,65.9c1.1,44.2,2.8,88.4,4,132.6
				c0.4,15-1.5,16.4-16.8,16.5c-24.8,0-26-0.7-25.5-25.2c0.9-45.3,1.8-90.6,4.1-135.8c1.2-23.9,13.8-44.2,26.2-64.1
				C-91.4,3.3-89.5,2.6-86.4,0.2z"/>
			<path class="st4" d="M23.8,62.3c0,37.1-0.1,74.1,0.1,111.2c0,8.2-2.1,13.6-11,15.8c-14.5,3.6-17.6,1.9-17.8-13
				C-5.7,103.6-6.4,31-7.1-41.7c-0.1-8-0.6-16.7,7.9-20.8c4.4-2.1,10.8-3.3,15-1.6c3.2,1.3,5.9,7.8,6,12
				c0.5,38.1,0.3,76.3,0.3,114.4C22.7,62.3,23.2,62.3,23.8,62.3z"/>
			<path class="st5" d="M135.7,59.8c-1.8,14.3-4.7,32-6,49.9c-1.8,25.4-2.1,50.9-3.8,76.4c-0.3,5.3-3.6,10.3-5.6,15.5
				c-6.6-4.2-14-7.6-19.5-12.9c-2.6-2.5-1.9-8.9-1.7-13.5c1.6-42.3,3.7-84.6,5.1-126.9c1.1-31.9,1.6-63.9,2.3-95.9
				c0.1-5-0.5-10.3,0.9-15c1.1-3.7,4.7-6.7,7.3-10c2.7,3.3,6.5,6.2,7.7,9.9c2,6,2.8,12.6,3.4,19C129.2-10.3,132.3,22.9,135.7,59.8z"
				/>
			<path class="st6" d="M49.6,57.7c0-37.4,0-74.8,0-112.1c0-13.1,10.1-21.4,22.7-17.3c3.5,1.1,7.1,7.9,7.2,12.2
				c0.7,22.9,0.9,45.8,0,68.7c-2.2,54.6-5.1,109.1-8,163.7c-0.2,4.5-1.8,10.6-5,13c-7,5.3-15-0.2-15.3-10.6
				c-0.6-23.3-0.8-46.7-0.9-70.1c-0.1-15.8,0-31.6,0-47.4C50,57.7,49.8,57.7,49.6,57.7z"/>
			<path class="st7" d="M-32.1,79.6c0,35.2,0.2,70.5-0.2,105.7c-0.1,5.9-1,12.4-3.9,17.4c-1.8,3.1-7.7,4.6-11.9,5
				c-1.2,0.1-4.3-6-4.4-9.3c-1.8-59.6-3.4-119.3-4.8-178.9c-0.3-12.9-0.1-25.9,0.5-38.8c0.2-4.8,1.2-10.7,4.1-14
				c3.7-4.1,9.9-6.1,15-9.1c1.1,4.7,3,9.3,3.1,14c0.3,36,0.1,71.9,0.1,107.9C-33.7,79.6-32.9,79.6-32.1,79.6z"/>
			<path class="st8" d="M169.4,256.6c-3.2,4.5-6.4,8.9-9.6,13.4c-1.3-0.4-2.6-0.9-3.9-1.3c0.3-4.2-0.4-9,1.4-12.3
				c1.2-2.3,6.2-2.5,9.5-3.6C167.7,254,168.6,255.3,169.4,256.6z"/>
			<path d="M637.4,87.1c0-24.8-0.1-49.6,0-74.4c0-13.9,6-24.2,17.1-33C677.7-39,703.2-48,733.3-45.5c19.7,1.6,39.5,0.1,59.3,0.5
				c22.4,0.4,38.5,12.9,51.2,29.7c3.7,4.9,3.7,12.8,4.7,19.5c2.3,15.9,4.2,31.9,6.3,47.9c0.3,2.1,0.9,4.3,0.9,6.4
				c0.1,31.3,0.2,62.5-0.1,93.8c-0.1,11.4-7,17.6-17.5,22C786.8,196,733.3,201,678.5,197.6c-24.7-1.5-38.9-16-39.3-40.3
				c-0.2-11.9-0.8-23.7-1-35.6c-0.2-11.5,0-23,0-34.5C638,87.1,637.7,87.1,637.4,87.1z M664.4,105.5c1,19.2,1.5,32.2,2.5,45.1
				c1.2,14.9,6.9,20.2,22.1,20.6c15.5,0.4,31,0.7,46.4-0.2c27.8-1.5,54.7-7,80.4-18.5c9.9-4.4,13.7-10.4,14.1-21.3
				c1.5-39-2.7-77.4-7.7-115.9c-2.9-22-14.9-33.9-37.5-34.1c-20.1-0.2-40.3,0.1-60.4-0.2C707-19.3,692-13.6,678-4
				c-9.4,6.5-13.9,14.8-13.8,26.3C664.6,52.1,664.4,81.9,664.4,105.5z"/>
			<path d="M416.8,222.2c19.9,1.8,40.2,1.9,59.7,5.9c26.5,5.3,49.9,17.9,69.1,37.5c10.6,10.8,22,20.7,33.1,31
				c11.9,11,20.5,24.3,23.7,40.2c9.2,45.2,13.9,90.9,13.3,137.1c-0.1,4.6-1.4,9.2-2.3,13.8c-3.5,18.3-7.4,36.5-10.5,54.9
				c-4.5,26.6-16.8,45.6-41,60.7c-36.5,22.7-75.8,28.9-116.8,32.4c-18.6,1.6-37,6-55.6,6.9c-17.5,0.8-35.2-0.3-52.6-2.4
				c-20.6-2.5-41.1-6.4-61.4-10.7c-14.4-3.1-26-11.4-36.3-22.1c-52.9-55-76.5-119.8-69.9-196.5c3.2-37.1,14.5-69.2,38.9-97.1
				c11.6-13.2,20.6-29.2,33.9-40.3c33.1-27.4,71.1-44.3,115-46c19.8-0.8,39.5-2.2,59.3-3.3C416.6,223.5,416.7,222.9,416.8,222.2z
				 M415.1,246.5c-29.4,2.6-56.8,2.5-83,8c-42,8.9-76.7,30-101.8,67c-17.9,26.4-34,51.3-37.5,85.2c-7.4,71.6,12.6,132.1,62.3,183.2
				c7.5,7.7,17.7,14.3,27.8,17.3c36.7,11.2,74.6,14.6,112.8,11.9c14.7-1,29.3-3.7,43.9-5.1c41.4-4,82-10.3,117.3-35.2
				c8.6-6.1,16-12.2,18.1-22.9c3.8-19,6.2-38.4,11.7-56.9c7.4-24.8,7.8-49.5,4.6-74.7c-2.9-23.2-6-46.4-8.7-69.6
				c-2.3-20.5-11.4-36.6-28.4-48.7c-6.7-4.7-12.2-11.1-17.8-17.2c-20.2-22-44.5-36.6-74.3-40.1C445.8,247,429.2,247.2,415.1,246.5z"
				/>
			<path d="M5.9,259.5c0.4,3.8,0.9,8.2,1.7,15.3c6.3-7.1,11.3-12.6,16.2-18.2c1,0.4,1.9,0.8,2.9,1.3c0.6,4,1.1,8.1,2,14.2
				c4-4.9,7.1-8.8,10.8-13.3c-2.9-2.4-5.2-4.2-8.1-6.6c6.1-3.7,11.7-7,17.5-10.6c6.7,10.7,30.8,8.9,20.9,31.9c5.8,0,9.7,0,14.8,0
				c-3.4,8.3-9.4,8.2-15.4,7.7c-2.8-0.2-5.5-1.3-8.3-1.8c-12.2-2.1-24-5.4-36.3,2.3c-4.8,3-13.6,1.5-19.8-0.3
				c-3.1-0.9-4.6-7.2-7.2-11.5c-2,3.6-4.1,7.5-5.2,9.6c-11.6,1-21.5,1.9-34,2.9c4.3-8.4,7.9-15.9,11.9-23c0.7-1.2,3.7-1.1,5.6-1.6
				c0.4,1.9,1.4,3.9,1.2,5.7c-0.3,2.7-1.5,5.3-1.4,9C-15.5,265.3-9.7,252.9,5.9,259.5z M60.9,256.3c-12.4-1.8-14.3,3.7-12.2,12.9
				C52.3,265.4,55.8,261.6,60.9,256.3z"/>
			<path class="st2" d="M664.4,105.5c0-23.5,0.2-53.4-0.1-83.2c-0.1-11.6,4.4-19.9,13.8-26.3c14-9.6,29.1-15.3,46.3-15
				c20.1,0.3,40.3,0.1,60.4,0.2c22.5,0.2,34.6,12.1,37.5,34.1c5,38.5,9.2,76.9,7.7,115.9c-0.4,10.9-4.3,16.9-14.1,21.3
				c-25.7,11.5-52.6,17-80.4,18.5c-15.4,0.9-30.9,0.5-46.4,0.2c-15.2-0.4-20.9-5.7-22.1-20.6C665.8,137.6,665.4,124.7,664.4,105.5z
				 M758,23.8c-29.1-4.6-50.6,15.6-70.5,38.2c-10.7,12.3-12.8,33.8-3.2,46.4c10.7,14.2,22.7,28,36.3,39.3
				c17.7,14.6,36.8,13.6,55.6,0.6c5-3.5,9.8-7.3,14.8-10.7c21.5-14.2,29.1-33.9,25.4-59.4C810.7,38,796.7,23.2,758,23.8z"/>
			<path class="st3" d="M415.1,246.5c14.1,0.6,30.7,0.4,47.1,2.3c29.9,3.5,54.2,18.1,74.3,40.1c5.6,6.1,11.1,12.5,17.8,17.2
				c17,12,26.1,28.1,28.4,48.7c2.6,23.2,5.8,46.4,8.7,69.6c3.2,25.2,2.9,49.9-4.6,74.7c-5.5,18.5-7.9,37.9-11.7,56.9
				c-2.2,10.7-9.5,16.8-18.1,22.9c-35.3,24.9-75.8,31.2-117.3,35.2c-14.7,1.4-29.3,4.1-43.9,5.1c-38.3,2.7-76.1-0.7-112.8-11.9
				c-10.2-3.1-20.4-9.7-27.8-17.3c-49.7-51-69.7-111.6-62.3-183.2c3.5-33.8,19.6-58.7,37.5-85.2c25-37,59.8-58.2,101.8-67
				C358.3,249,385.7,249.2,415.1,246.5z M513.6,446.6c-0.2-25.4-9.9-59.9-23.5-81.8c-2-3.3-4.8-6.4-7.7-8.9
				c-35.6-31-75.8-41.4-122.2-29.2c-54.1,14.3-99.5,70.3-87.5,124c12,53.1,32.9,102.4,93.3,119.1c3.1,0.9,6.1,2.1,9.2,3.2
				c16.2,5.4,32.4,5.5,48.8,0.5C468.1,560.2,517.6,511.9,513.6,446.6z"/>
			<path class="st3" d="M60.9,256.3c-5.1,5.4-8.6,9.2-12.2,12.9C46.6,259.9,48.5,254.5,60.9,256.3z"/>
			<path d="M758,23.8c38.7-0.6,52.7,14.2,58.5,54.5c3.7,25.4-3.9,45.1-25.4,59.4c-5.1,3.4-9.8,7.3-14.8,10.7
				c-18.8,12.9-37.9,14-55.6-0.6c-13.6-11.3-25.6-25.1-36.3-39.3c-9.5-12.6-7.5-34.1,3.2-46.4C707.3,39.4,728.9,19.2,758,23.8z
				 M757.1,50.8c-17.8-2.3-31.5,9.8-44.3,23.5c-8.2,8.7-8.5,16.3-1,26c4.4,5.7,9.6,10.7,14,16.4c6.8,8.8,15.9,11.3,25.9,8.3
				c37.2-11,44.8-25.1,34.2-55.5C779.9,52.1,778.5,50.4,757.1,50.8z"/>
			<path d="M513.6,446.6c4,65.3-45.5,113.5-89.7,126.9c-16.3,4.9-32.6,4.8-48.8-0.5c-3.1-1-6.1-2.3-9.2-3.2
				c-60.4-16.7-81.3-66-93.3-119.1c-12.1-53.7,33.3-109.7,87.5-124c46.4-12.2,86.6-1.9,122.2,29.2c2.9,2.6,5.7,5.6,7.7,8.9
				C503.6,386.8,513.4,421.2,513.6,446.6z M486.8,456.9c1.1-45.8-18.9-82.6-48.7-98.5c-19.7-10.5-40.2-11.5-61.8-7.6
				c-56.5,10.2-103.8,70.9-63,137.2c7,11.3,14.8,22.1,21.9,33.3c9.1,14.3,22.2,20.6,38.7,21.6c10.7,0.7,21.3,3.2,31.9,3.6
				c7.3,0.3,16.2,0.6,21.7-3.1C461.1,520.9,490.3,495.1,486.8,456.9z"/>
			<path class="st3" d="M757.1,50.8c21.3-0.5,22.8,1.3,28.9,18.7c10.6,30.5,3,44.5-34.2,55.5c-10,3-19.1,0.5-25.9-8.3
				c-4.4-5.7-9.6-10.7-14-16.4c-7.5-9.7-7.2-17.3,1-26C725.6,60.7,739.3,48.5,757.1,50.8z"/>
			<path class="st2" d="M486.8,456.9c3.5,38.2-25.7,64-59.1,86.5c-5.5,3.7-14.4,3.3-21.7,3.1c-10.7-0.4-21.2-2.9-31.9-3.6
				c-16.6-1-29.7-7.3-38.7-21.6c-7.1-11.2-14.9-22-21.9-33.3c-40.8-66.3,6.5-127,63-137.2c21.5-3.9,42.1-2.9,61.8,7.6
				C467.9,374.3,487.8,411,486.8,456.9z"/>
		</g>
	</g>
</g>
</svg>
