<?xml version="1.0" encoding="utf-8"?>
<!-- Generator: Adobe Illustrator 19.1.0, SVG Export Plug-In . SVG Version: 6.00 Build 0)  -->
<svg version="1.1" id="Layer_1" xmlns="http://www.w3.org/2000/svg" xmlns:xlink="http://www.w3.org/1999/xlink" x="0px" y="0px"
	 viewBox="-467 195 504 511" style="enable-background:new -467 195 504 511;" xml:space="preserve">
<style type="text/css">
	.st0{fill:#8AB4C4;}
	.st1{fill:#FFFFFF;}
</style>
<g id="_x38_3ks7i_1_">
	<g>
		<path d="M-113.9,699.7c-31.8-1.3-63.6-2.6-95.3-3.7c-12.5-0.4-25-0.3-37.5-0.3c-36.5,0-73,0.1-109.5-0.1
			c-16.1-0.1-32.3-0.4-48.4-1.7c-5.7-0.4-11.4-3.2-16.6-5.8c-8.2-4.2-16.1-9.3-24-14c-5.7-3.4-6.8-9.4-8.4-15.3
			c-4.1-15.3-2.5-31.1-4.9-46.4c-4-25.4-3.3-50.8-3.5-76.2c-0.4-75.3-1.2-150.6-1-225.9c0-17.7,3.3-35.4,5.1-53
			c0.3-3.1,0.9-6.4,0.5-9.4c-1.1-9.2,3.2-16.5,8.1-23.4c9.6-13.6,24-19,39.4-19.5c30.1-0.9,60.3-0.3,90.5-0.2
			c5.3,0,10.6,0.7,15.9,1.1c30.7,2.3,61.3,5.2,92.2,4.4c19.5-0.5,38.9-0.1,58.4-0.4c18.6-0.2,37.3-1.1,55.9-1.1
			c12,0,23.9,1.3,35.9,1.8c4.1,0.2,8.3-0.4,12.5,0c10.6,1,21.1,2.1,31.6,3.7c6.4,1,9.9,6.4,13.8,10.8c2.4,2.7,5,5.3,8,7.4
			c5.7,4,10.4,8.7,13.4,15.1c2.1,4.5,4.7,8.8,7.5,12.9c7.1,10.5,9.6,22.4,9.5,34.7c-0.1,17.6-1.3,35.2-2.1,52.8
			c-0.1,1.3-0.1,2.7-0.1,4c0.3,32.8,0.8,65.6,0.9,98.4c0.1,28.1-0.2,56.2-0.4,84.4c-0.1,15.3,0,30.6-0.6,45.9
			c-0.3,8.1-2.4,16.1-2.8,24.2c-0.6,12.5-0.3,25-0.8,37.4c-0.7,13.9-2.4,27.5-11.1,39.2c-2.9,3.9-6.1,6-10.8,5.7
			c-4.6-0.3-8.9,0.3-12.7,3.4c-1.2,1-3,1.3-4.7,1.5c-13.2,2-26.3,3.9-39.5,5.7c-2.6,0.4-5.3,0.5-8,0.5c-18.8,0-37.7,0-56.5,0
			C-113.9,699-113.9,699.3-113.9,699.7z M-349.7,214c0,0.3,0,0.6,0,0.8c-17.7,0-35.3,0.3-53-0.1c-8.8-0.2-16.8,1.7-24.8,4.9
			c-10.9,4.4-17.8,12.9-19.4,24.1c-2.2,15.3-2.4,30.9-3.5,46.3c-0.1,1.3-0.4,2.6-0.5,4c-0.8,8.9-2.3,17.9-2.2,26.8
			c0.3,72,0.9,143.9,1.3,215.8c0.1,15-0.1,30,0.1,45c0,4.3,0.9,8.6,1.2,12.9c0.6,7.4,1.2,14.9,1.5,22.3c0.3,8,0.1,16,0.2,23.9
			c0,1.6,0.6,3.3,1.2,4.8c4.2,10.5,13.6,15.3,22.7,20.4c5,2.8,10.1,2.8,15.4,2.8c32.7,0,65.3-0.2,98,0c46.8,0.3,93.6,0.8,140.5,1.1
			c10.2,0.1,20.4,0.4,30.5-0.6c29.9-2.9,59.7-5.8,89.7-4.5c0.8,0,1.7,0,2.5,0c9.7-0.6,19.5,1.8,28.8-3.8c6.7-4,13.6-7.1,15.2-15.7
			c1.7-9,3.7-17.9,5.2-26.9c1.2-7.4,2.4-14.8,2.7-22.3c0.7-18.4,1-36.9,1.4-55.4c0.6-25.5,1.4-51,1.6-76.4
			c0.3-39.5-0.8-79,2.7-118.4c0.6-7.3,0.6-14.7,0.1-22c-1.3-18.6-3-37.2-4.6-55.7c-0.1-1.6-0.3-3.4-1-4.8c-3.1-7.5-6-15.1-9.6-22.4
			c-2.8-5.6-6.6-10.7-10.1-15.9c-0.7-1.1-2.5-1.9-3.8-2.1c-8.8-1.4-17.7-3.1-26.6-3.7c-8.6-0.6-17.3,0-25.9,0
			c-30.2,0-60.3-0.1-90.5-0.1c-19.5,0.1-38.9,0.1-58.4,0.7c-20.5,0.7-40.6-4.2-61.3-3.3C-304.8,217.7-327.3,215.1-349.7,214z
			 M16.9,264.6c-0.7,0.2-1.5,0.4-2.2,0.7c0.3,6.8,0.5,13.6,0.9,20.3c1.4,20.6,5,41,3.6,61.8c-0.8,13-2.2,25.9-2.4,38.9
			c-0.5,31.5-0.3,63-0.5,94.5c-0.1,12.7-0.3,25.3-0.8,38c-0.5,11.3-1.9,22.6-2.2,33.9c-0.4,15.2,0.5,30.3-0.2,45.5
			c-0.4,9.4-2.7,18.7-4.4,27.9c-1,5.2-2.5,10.3-3.7,15.5c-2.1,9.2-4.7,18.1-13.4,23.5c1.4,7.4-0.6,9.8-8.3,9.8c-23,0-46-0.1-69,0.1
			c-6.3,0-12.7,0.3-18.9,1.1c-22.5,2.7-45,5.2-67.8,4.2c-7-0.3-14-1-21-1c-72.6-0.1-145.3-0.2-217.9-0.2c-1.3,0-2.6,0.3-4,0.4
			c-0.1,0.4-0.1,0.9-0.2,1.3c1.9,0.8,3.8,2,5.8,2.2c13.2,1.1,26.5,2.6,39.7,2.8c69.6,1,139.2-1.3,208.9,2.8c34.2,2,68.6,0.4,103,0.3
			c2.6,0,5.3-0.3,7.9-0.7c12-1.7,24.1-3.4,36.1-5.2c2.1-0.3,4.1-1.3,6.1-1.8c4.1-1.1,8.3-2,12.3-3.3c2.3-0.8,5.3-1.7,6.3-3.5
			c2.5-4.4,5-9.1,5.9-14c1.6-9,2.1-18.1,2.7-27.2c0.6-8.8,0.5-17.6,1.3-26.4c1.4-14.9,4.7-29.7,4.6-44.6
			c-0.1-41.3-1.9-82.5-2.3-123.8c-0.3-38.4-1.6-76.9,2-115.3c1.3-14.1,1.3-28.4-2-42.2C21.8,275,19.1,269.9,16.9,264.6z"/>
		<path class="st0" d="M-349.7,214c22.5,1,45,3.6,67.3,2.6c20.7-1,40.7,3.9,61.3,3.3c19.4-0.6,38.9-0.6,58.4-0.7
			c30.2-0.1,60.3,0.1,90.5,0.1c8.6,0,17.3-0.6,25.9,0c8.9,0.6,17.8,2.3,26.6,3.7c1.4,0.2,3.1,1,3.8,2.1c3.6,5.2,7.3,10.3,10.1,15.9
			c3.7,7.2,6.5,14.8,9.6,22.4c0.6,1.5,0.8,3.2,1,4.8c1.6,18.6,3.3,37.1,4.6,55.7c0.5,7.3,0.5,14.7-0.1,22
			c-3.5,39.4-2.4,78.9-2.7,118.4c-0.2,25.5-1,51-1.6,76.4c-0.4,18.5-0.7,36.9-1.4,55.4c-0.3,7.4-1.4,14.9-2.7,22.3
			c-1.5,9-3.5,17.9-5.2,26.9C-5.9,654-12.8,657-19.5,661c-9.3,5.6-19.1,3.2-28.8,3.8c-0.8,0-1.7,0-2.5,0
			c-30.1-1.2-59.9,1.6-89.7,4.5c-10.1,1-20.3,0.7-30.5,0.6c-46.8-0.3-93.6-0.9-140.5-1.1c-32.7-0.2-65.3-0.1-98,0
			c-5.3,0-10.4,0.1-15.4-2.8c-9.1-5.2-18.5-9.9-22.7-20.4c-0.6-1.5-1.2-3.2-1.2-4.8c-0.2-8,0.1-16-0.2-23.9
			c-0.3-7.4-0.9-14.9-1.5-22.3c-0.3-4.3-1.1-8.6-1.2-12.9c-0.2-15,0-30-0.1-45c-0.5-71.9-1-143.9-1.3-215.8c0-8.9,1.4-17.9,2.2-26.8
			c0.1-1.3,0.4-2.6,0.5-4c1.1-15.4,1.3-30.9,3.5-46.2c1.6-11.1,8.5-19.6,19.4-24.1c7.9-3.2,16-5.1,24.8-4.9
			c17.7,0.4,35.3,0.1,53,0.1C-349.8,214.6-349.8,214.3-349.7,214z M-181.3,375c0-5.1,0.1-9.8,0-14.6c-0.2-5.9-4-8.9-9.3-6.6
			c-6.7,2.9-13.4,2-20.1,1.7c-6.6-0.3-13.3-1-19.9-0.7c-11.6,0.5-23.2,1.8-34.8,2.6c-4,0.3-8-0.2-11.9,0.5c-1.7,0.3-4,2.3-4.2,3.9
			c-0.3,1.5,1.5,4.8,2.7,5c4.4,0.7,4,3.6,3.9,6.6c-1.3,29.4-1,58.8-2.2,88.2c-1.7,40.1-0.3,80.3-0.3,120.4c0,2.3-0.1,4.7,0.1,7
			c0.4,5.5,5.3,10.8,10.5,12c24.6,5.7,49.6,4.9,74.5,4.2c4.3-0.1,6.4-2.5,6.7-6.5c0.2-2.3,0.1-4.7,0.1-7c0.2-11.5,0.1-23,0.6-34.5
			c0.5-10.3,1.9-20.5,2.3-30.8c0.4-12.5,0.1-25,0.1-37.5c0-15.1,2.5-29.7,7.4-44c2.8-8.2,7.4-14.3,14.9-19
			c8.2-5.2,16.7-2.8,25.2-3.2c0.4,0,1.1,0.3,1.3,0.6c4.4,5.8,10.5,11,12.6,17.5c4,12,6.6,24.6,6.2,37.6c-0.3,10-0.2,20,0.5,29.9
			c0.9,13.1,3.1,26,3.8,39.1c0.7,13.1,0.1,26.3,0.2,39.5c0,8.9,1.7,10.6,10.5,10.6c19.8,0,39.7,0,59.5,0c2.3,0,4.7,0.1,6.9,0.6
			c8.6,2,11.2,0.2,11-8.6c-0.4-24.4-1-48.9-1.3-73.3c-0.1-10.6,0.7-21.3,0.2-31.9c-0.7-15.1-2.1-30.1-3.3-45.2
			c-0.2-2.5-0.1-5.2-1-7.4c-5.1-12.1-5.6-25.4-11-37.5c-6.2-13.8-16.9-23.5-28.3-32.1c-6.2-4.7-14.9-6.2-22.4-9.3
			c-13.8-5.6-28-8.5-42.9-7c-15.3,1.6-29.6,5.2-39.4,18.5C-175.1,368.1-178.3,371.4-181.3,375z M-397,537.3c0,10.2,0,20.3,0,30.5
			c0,9.3-0.1,18.7,0.1,28c0.1,6.4,2.7,8,8.9,6.8c4.9-1,9.8-1.9,14.8-2c9.3-0.1,18.6,0.6,27.9,0.6c9.5,0,18.9-0.2,28.4-0.9
			c6.9-0.5,9.6-3.8,10-10.8c0.6-8.8,1.4-17.6,1.4-26.4c0.3-67.1,0.4-134.2-2.4-201.2c0-1-0.1-2-0.4-2.9c-1.3-3.1-3.5-4.1-6.8-3.1
			c-2.8,0.9-5.7,1.7-8.5,1.8c-8.2,0-16.3-0.8-24.5-0.5c-14,0.5-27.9,1.3-41.8,2.6c-2.2,0.2-5.5,2.8-6,4.9c-1.3,5.6-2,11.5-2,17.2
			c0.1,34.7,0.6,69.4,0.8,104.1C-396.9,502.9-397,520.1-397,537.3z M-354.2,329.8c0.1,0.3,0.1,0.7,0.2,1c6-1.2,11.9-2.9,17.9-3.5
			c14.3-1.5,22.4-11.3,30-21.8c1.1-1.6,2.1-3.6,2.3-5.5c1.7-13.5,0.7-26.8-5.7-38.9c-2.5-4.7-6.4-9.3-10.9-12
			c-7.4-4.4-15.6-7.7-24.6-6.7c-8.9,1-17.8,2.2-26.6,3.8c-2.3,0.4-5,1.7-6.5,3.5c-5.1,6.2-9.7,12.7-14.4,19.1
			c-0.7,1.2-1.3,2.7-1.5,4.2c-2.3,14.8,2.1,28.3,7.9,41.5c0.8,1.9,2.4,3.8,4.1,4.9c5.3,3.6,10.8,6.9,16.4,10.1
			c1.2,0.7,2.9,0.5,4.4,0.5C-358.8,330.1-356.5,329.9-354.2,329.8z"/>
		<path class="st1" d="M16.9,264.6c2.1,5.3,4.9,10.4,6.2,15.9c3.3,13.9,3.3,28.2,2,42.2c-3.6,38.4-2.3,76.9-2,115.3
			c0.4,41.3,2.2,82.5,2.3,123.8c0,14.8-3.3,29.7-4.6,44.6c-0.8,8.8-0.7,17.6-1.3,26.4c-0.6,9.1-1.2,18.3-2.7,27.2
			c-0.9,4.9-3.4,9.7-5.9,14c-1,1.8-4,2.8-6.3,3.5c-4,1.3-8.2,2.2-12.3,3.3c-2.1,0.6-4,1.5-6.1,1.8c-12,1.8-24,3.5-36.1,5.2
			c-2.6,0.4-5.3,0.7-7.9,0.7c-34.3,0-68.7,1.7-103-0.3c-69.6-4.1-139.2-1.7-208.9-2.8c-13.3-0.2-26.5-1.7-39.7-2.8
			c-2-0.2-3.9-1.4-5.8-2.2c0.1-0.4,0.1-0.9,0.2-1.3c1.3-0.1,2.6-0.4,4-0.4c72.6,0.1,145.3,0.1,217.9,0.2c7,0,14,0.7,21,1
			c22.7,1,45.2-1.5,67.8-4.2c6.3-0.8,12.6-1,18.9-1.1c23-0.1,46,0,69-0.1c7.7,0,9.7-2.4,8.3-9.8c8.7-5.3,11.2-14.3,13.4-23.5
			C6.5,636,8,630.9,9,625.7c1.7-9.3,3.9-18.6,4.4-27.9c0.7-15.1-0.2-30.3,0.2-45.5c0.3-11.3,1.7-22.6,2.2-33.9
			c0.5-12.6,0.8-25.3,0.8-38c0.2-31.5,0-63,0.5-94.5c0.2-13,1.5-25.9,2.4-38.9c1.4-20.7-2.2-41.2-3.6-61.8
			c-0.5-6.8-0.6-13.6-0.9-20.3C15.5,265,16.2,264.8,16.9,264.6z"/>
		<path d="M-181.3,375c3-3.6,6.2-6.9,9-10.6c9.8-13.3,24.2-16.9,39.4-18.5c14.9-1.5,29.2,1.3,42.9,7c7.5,3.1,16.2,4.5,22.4,9.3
			c11.4,8.7,22.1,18.4,28.3,32.1c5.4,12.1,5.9,25.4,11,37.5c0.9,2.2,0.8,4.9,1,7.4c1.2,15.1,2.6,30.1,3.3,45.2
			c0.5,10.6-0.3,21.3-0.2,31.9c0.3,24.4,1,48.9,1.3,73.3c0.1,8.7-2.4,10.5-11,8.6c-2.2-0.5-4.6-0.6-6.9-0.6c-19.8,0-39.7,0-59.5,0
			c-8.7,0-10.4-1.8-10.5-10.6c0-13.2,0.5-26.4-0.2-39.5c-0.7-13.1-2.9-26-3.8-39.1c-0.7-9.9-0.8-20-0.5-29.9
			c0.4-13-2.2-25.6-6.2-37.6c-2.2-6.5-8.3-11.8-12.6-17.5c-0.3-0.4-0.9-0.6-1.3-0.6c-8.5,0.4-17-2-25.2,3.2
			c-7.5,4.7-12.1,10.8-14.9,19c-4.9,14.3-7.4,28.9-7.4,44c0,12.5,0.3,25-0.1,37.5c-0.3,10.3-1.8,20.5-2.3,30.8
			c-0.5,11.5-0.4,23-0.6,34.5c0,2.3,0.1,4.7-0.1,7c-0.4,4-2.5,6.4-6.7,6.5c-25,0.7-49.9,1.5-74.5-4.2c-5.2-1.2-10.1-6.5-10.5-12
			c-0.2-2.3-0.1-4.7-0.1-7c-0.1-40.2-1.4-80.4,0.3-120.4c1.2-29.4,0.9-58.8,2.2-88.2c0.1-3,0.6-5.9-3.9-6.6c-1.2-0.2-3-3.4-2.7-5
			c0.3-1.5,2.6-3.6,4.2-3.9c3.9-0.7,8-0.2,11.9-0.5c11.6-0.8,23.2-2.1,34.8-2.6c6.6-0.3,13.3,0.5,19.9,0.7
			c6.8,0.3,13.5,1.2,20.1-1.7c5.3-2.3,9.1,0.8,9.3,6.6C-181.2,365.1-181.3,369.9-181.3,375z M-195.9,594c0-2,0-4.1,0-6.2
			c0.2-10.8,0.3-21.6,0.8-32.5c0.5-11.3,1.7-22.5,2.1-33.8c0.4-9.3,0.2-18.7,0-28c-0.3-17.9,1.6-35.5,8.2-52.3
			c2.7-6.9,4.4-14.5,11.4-18.8c3.8-2.3,7.4-5.2,11.4-7.2c10.3-5,21.1-2.5,31.8-1.9c0.4,0,1,0.4,1.3,0.7c5.5,6.6,13.2,12.5,16,20.1
			c4.3,11.6,6.2,24.4,7.5,36.8c1.2,11.4-0.2,23,0.6,34.4c1.2,18,5.1,35.8,4.1,54.1c-0.4,7.6,0.1,15.3-0.1,23c-0.1,3.8,0.8,5.2,5,5.2
			c19.5-0.2,39-0.1,58.5-0.1c1.3,0,2.6-0.2,4.4-0.4c0-2,0-3.8,0-5.6c-0.5-22.3-1-44.5-1.4-66.8c-0.2-10.6,0.4-21.3-0.1-31.9
			c-0.6-14.1-1.9-28.2-3-42.2c-0.2-2.3-0.2-4.7-0.9-6.9c-3.6-12-6.8-24.2-11.1-36c-4.1-11.2-13.9-18.2-21.5-26.7
			c-0.5-0.6-1.4-0.8-2.2-1.1c-8.2-3.1-16.5-6.1-24.7-9.2c-11.4-4.3-23.2-6.1-35.3-4.6c-10.6,1.3-21.6,2.6-28.8,11.8
			c-6.4,8.1-12,16.7-17.9,25.1c-2.2,3.1-3.1,8.3-8.5,6.7c-5-1.5-4-6.3-4.1-10.2c-0.1-7.9,0-15.8,0-23.8c-3,0-6.4,0.5-9.6-0.1
			c-19.3-3.4-38.4-1.9-57.7,0.2c-4.5,0.5-6,2-6.1,6.3c-1,28.9-2.6,57.8-3.1,86.7c-0.4,20.3,0.8,40.6,1,60.9
			c0.2,22.2,0.1,44.3,0,66.5c0,3.4,1.1,5.1,4.5,5.9C-241.2,597.3-219.1,596.9-195.9,594z"/>
		<path d="M-397,537.3c0-17.2,0.1-34.3,0-51.5c-0.2-34.7-0.7-69.4-0.8-104.1c0-5.8,0.6-11.6,2-17.2c0.5-2,3.8-4.7,6-4.9
			c13.9-1.2,27.9-2.1,41.8-2.6c8.1-0.3,16.3,0.5,24.5,0.5c2.8,0,5.8-0.9,8.5-1.8c3.3-1,5.5-0.1,6.8,3.1c0.4,0.9,0.4,2,0.4,2.9
			c2.8,67.1,2.7,134.2,2.4,201.2c0,8.8-0.8,17.6-1.4,26.4c-0.5,6.9-3.1,10.2-10,10.8c-9.4,0.7-18.9,0.9-28.4,0.9
			c-9.3,0-18.6-0.7-27.9-0.6c-4.9,0.1-9.9,1-14.8,2c-6.2,1.2-8.8-0.4-8.9-6.8c-0.2-9.3-0.1-18.7-0.1-28
			C-397,557.6-397,547.4-397,537.3z M-318.5,366.6c-19.9,0.4-39.5,0.7-59,1.3c-10,0.3-11.2,1.8-11.5,11.9c0,1,0.1,2,0.1,3
			c0,8.8-0.1,17.7,0.1,26.5c0.6,20.4,1.9,40.8,2,61.2c0.3,38.3,0,76.6-0.1,114.9c0,1.9,0,3.9,0,5.4c4.9,0,9,0,13.1,0
			c17.8,0.1,35.5,0.2,53.3,0c1.2,0,3.2-1.8,3.3-2.9c0.8-11.4,1.4-22.9,1.7-34.3c0.3-11-0.1-22,0.1-33c0.7-50-0.6-99.9-2.7-149.8
			C-318.1,370.1-318.2,369.3-318.5,366.6z"/>
		<path d="M-354.2,329.8c-2.3,0.1-4.7,0.3-7,0.3c-1.5,0-3.2,0.1-4.4-0.5c-5.6-3.2-11.1-6.5-16.4-10.1c-1.7-1.2-3.3-3-4.1-4.9
			c-5.8-13.3-10.2-26.9-7.9-41.6c0.2-1.4,0.8-3,1.6-4.2c4.7-6.5,9.3-13,14.4-19.1c1.5-1.8,4.1-3.1,6.5-3.5
			c8.8-1.5,17.7-2.8,26.6-3.8c9-1,17.3,2.3,24.6,6.7c4.5,2.7,8.4,7.3,10.9,12c6.4,12.1,7.4,25.4,5.7,38.9c-0.2,1.9-1.2,3.9-2.3,5.5
			c-7.6,10.5-15.6,20.3-30,21.8c-6,0.6-11.9,2.3-17.9,3.5C-354.1,330.4-354.1,330.1-354.2,329.8z M-311.4,288.2
			c-1.6-6.5-2.7-13.2-4.8-19.6c-2.3-6.9-7.2-11.4-13.9-14.6c-9.3-4.4-18.7-4.1-28.3-2.4c-4.6,0.8-10.2,1.7-13.3,4.6
			c-5.3,5.1-10.7,11.2-12.8,18c-3.7,12.1,1.3,23.9,5.9,35.2c0.5,1.2,1.5,2.4,2.6,3c8.1,4.5,15.9,10,25.9,8.3c3.6-0.6,7-2.1,10.5-2.7
			C-323.8,315.6-313.7,304.6-311.4,288.2z"/>
		<path class="st1" d="M-195.9,594c-23.2,2.9-45.3,3.2-67.3-1.9c-3.5-0.8-4.5-2.4-4.5-5.9c0.1-22.2,0.2-44.3,0-66.5
			c-0.2-20.3-1.4-40.6-1-60.9c0.5-28.9,2.1-57.8,3.1-86.7c0.1-4.3,1.6-5.8,6.1-6.3c19.2-2.1,38.4-3.6,57.7-0.2
			c3.2,0.6,6.6,0.1,9.6,0.1c0,8,0,15.9,0,23.8c0,3.9-0.9,8.7,4.1,10.2c5.3,1.6,6.3-3.5,8.5-6.7c5.9-8.4,11.5-17.1,17.9-25.1
			c7.2-9.2,18.2-10.5,28.8-11.8c12.1-1.5,23.9,0.3,35.3,4.6c8.2,3.1,16.5,6.2,24.7,9.2c0.8,0.3,1.7,0.5,2.2,1.1
			c7.6,8.6,17.5,15.6,21.5,26.7c4.3,11.8,7.5,23.9,11.1,36c0.7,2.2,0.7,4.6,0.9,6.9c1.1,14.1,2.4,28.2,3,42.2
			c0.5,10.6-0.1,21.2,0.1,31.9c0.4,22.3,0.9,44.6,1.4,66.8c0,1.8,0,3.6,0,5.6c-1.8,0.2-3.1,0.4-4.4,0.4c-19.5,0-39-0.1-58.5,0.1
			c-4.1,0-5.1-1.4-5-5.2c0.2-7.7-0.3-15.3,0.1-23c1-18.2-3-36-4.1-54.1c-0.7-11.5,0.7-23.1-0.6-34.4c-1.3-12.4-3.2-25.2-7.5-36.8
			c-2.8-7.6-10.5-13.5-16-20.1c-0.3-0.4-0.8-0.7-1.3-0.7c-10.7-0.6-21.6-3.1-31.8,1.9c-4,2-7.6,4.8-11.4,7.2
			c-7,4.3-8.8,11.9-11.4,18.8c-6.5,16.8-8.5,34.4-8.2,52.3c0.2,9.3,0.3,18.7,0,28c-0.4,11.3-1.6,22.5-2.1,33.8
			c-0.5,10.8-0.6,21.6-0.8,32.5C-195.9,589.9-195.9,592-195.9,594z"/>
		<path class="st1" d="M-318.5,366.6c0.2,2.7,0.4,3.5,0.4,4.3c2.1,49.9,3.5,99.8,2.7,149.8c-0.2,11,0.2,22-0.1,33
			c-0.3,11.5-0.9,22.9-1.7,34.3c-0.1,1.1-2.1,2.9-3.3,2.9c-17.8,0.1-35.5,0-53.3,0c-4.1,0-8.3,0-13.1,0c0-1.5,0-3.5,0-5.4
			c0.1-38.3,0.4-76.6,0.1-114.9c-0.2-20.4-1.4-40.8-2-61.2c-0.3-8.8-0.1-17.7-0.1-26.5c0-1-0.1-2-0.1-3c0.3-10.1,1.5-11.6,11.5-11.9
			C-357.9,367.3-338.4,367-318.5,366.6z"/>
		<path class="st1" d="M-311.4,288.2c-2.2,16.4-12.4,27.4-28.1,29.8c-3.6,0.5-7,2.1-10.5,2.7c-10,1.6-17.9-3.8-25.9-8.3
			c-1.1-0.6-2.1-1.8-2.6-3c-4.6-11.3-9.6-23.1-5.9-35.2c2.1-6.7,7.5-12.9,12.8-18c3.1-3,8.6-3.8,13.3-4.6c9.5-1.7,19-2,28.3,2.4
			c6.8,3.2,11.7,7.7,13.9,14.6C-314.1,275-313,281.7-311.4,288.2z"/>
	</g>
</g>
</svg>
