<?xml version="1.0" encoding="utf-8"?>
<!-- Generator: Adobe Illustrator 19.1.0, SVG Export Plug-In . SVG Version: 6.00 Build 0)  -->
<svg version="1.1" id="Layer_1" xmlns="http://www.w3.org/2000/svg" xmlns:xlink="http://www.w3.org/1999/xlink" x="0px" y="0px"
	 viewBox="-467 195 504 511" style="enable-background:new -467 195 504 511;" xml:space="preserve">
<style type="text/css">
	.st0{fill:#B8E3E8;}
	.st1{fill:#FFFFFF;}
</style>
<g id="EoRQ8G_1_">
	<g>
		<path d="M-158,196c17,0,34,0,51,0c5.5,0.9,11.1,2.3,16.6,2.5c12,0.4,24.1-0.6,36,0.3c15.6,1.2,30.6,4.8,41.8,17.3
			c4.4,5,9.6,9.2,14.3,14c7.9,8,17.7,14.4,22.3,25.2c2.1,5.1,3.5,10.6,4.4,16.1c0.9,6.1,0.4,12.3,1.3,18.4c3.4,21.9,6.2,43.8,5.8,66
			c-0.5,26.3-0.1,52.7-0.1,79c0,3.2-0.3,6.3-0.5,9.5c-0.9,11.8-2.2,23.5-2.8,35.3c-0.3,7.6,0.5,15.3,0.8,23
			c0.6,22.3,1.1,44.6,1.7,66.9c0.1,2,0.6,4,0.6,6c0.1,9,0.8,18,0,26.8c-0.8,9.4-4,18.7-4.3,28.1c-0.4,10.8-4.3,19.9-8.9,29.3
			C11.6,680.8-6.8,690.3-28.3,695c-8.4,1.8-17.1,2.1-25.7,3c-13.1,1.3-26.1,3.4-39.2,3.7c-27,0.7-54,0.6-81,0.7
			c-35.6,0.2-71.2,0.7-106.9,0.6c-24.6-0.1-49.3-1.3-73.9-1.7c-19.7-0.3-38.6-4.1-56.8-11.9c-3.1-1.3-7-1.6-9.6-3.6
			c-7.6-6.2-14.7-13-22-19.5c-12-10.7-17.2-25.1-17.4-40.1c-1.2-76.8,1-153.6-2.7-230.3c-1.2-24.3,0.8-48.7,0.2-73
			c-0.6-22.4,2-44.2,8.3-65.7c2.3-7.8,6.3-14.2,12-19.8c2.5-2.5,5-4.9,7.2-7.6c10.2-12.3,23.7-18.4,38.9-21.5
			c10.1-2.1,20.3-4,30.4-5.8c4.4-0.8,8.9-1.8,13.3-1.9c54.3-1,108.6-1.8,162.9-2.6c5.2-0.1,10.3,0.2,15.5-0.2
			C-169.2,197.4-163.6,196.6-158,196z M-448.6,564c0.1,0,0.3,0,0.4,0c0,13.2,0.5,26.3-0.1,39.5c-0.6,14,3.1,26.8,8.3,39.6
			c4,10,11.3,15.2,20.5,18.9c12.6,5,26,5.5,39.3,6c5.1,0.2,10.4,0.2,15.4,1.2c26.5,5.7,53.3,8.2,80.3,8.7c8.1,0.2,16.3,1.2,24.4,1.3
			c13.5,0.3,27,0.9,40.4,0c26.8-1.7,53.5-3.8,80.3-0.8c6.9,0.8,14,0.6,21,0.1c19.2-1.4,38.5-3.2,57.7-4.9c5.5-0.5,11.3-0.3,16.3-2.2
			c11.9-4.5,23.5-9.6,32.4-19.7c10.9-12.4,18-26.2,18.6-42.9c0.4-10.2,0-20.3,0.3-30.5c0.9-37.1,2-74.2,3-111.4
			c0.1-2.5,0.1-5,0.2-7.5c1.2-30.9,2.7-61.9,3.4-92.8c0.3-12.6-1.7-25.2-1.6-37.8c0.2-20.9,0-41.7-7-61.7c-0.3-0.8-0.3-1.7-0.6-2.4
			c-2.4-6.1-4.6-12.3-7.5-18.2c-2-4-4.6-7.8-7.5-11.2c-7.5-8.8-13.9-19.2-25.9-22.6c-7.8-2.2-15.9-3.5-24-4
			c-13.4-0.9-27-0.6-40.4-1.1c-13-0.5-25.9-2.4-38.8-2c-46.9,1.2-93.8,3.3-140.8,4.6c-20.1,0.6-40.3-0.2-60.5,0.2
			c-9.4,0.2-18.8,1.7-28.2,3.1c-8.1,1.2-16.1,2.6-24,4.6c-6.9,1.7-13.5,4.3-20.2,6.7c-8.9,3.2-13.5,11.5-20.2,17.4
			c-10.5,9.3-14,21.1-14.1,34.4c-0.7,79.6,1.2,159.2-0.7,238.8C-449,531.7-448.6,547.9-448.6,564z M23.3,316.1
			c-0.7,0-1.4,0.1-2.1,0.1c0.7,11.1,2.2,22.2,2,33.3c-0.3,32.6-1,65.3-2,97.9c-1.1,37.6-2.8,75.2-4,112.8
			c-0.6,17.8-0.5,35.6-0.7,53.5c0,2-0.1,4.1-0.6,6c-6.7,25-19.8,45.1-44.2,56.3c-4.4,2-8.6,4.6-13.1,5.9c-4.3,1.2-8.9,1.2-13.4,1.5
			c-21.2,1.9-42.4,3.7-63.7,5.5c-2.2,0.2-4.3,0.3-6.5,0.2c-11.1-0.6-22.3-1.9-33.4-1.7c-21.6,0.4-43.2,2.3-64.9,2.4
			c-26,0-51.9-1.2-77.9-2c-5.2-0.2-10.3-0.9-15.4-1.1c-25.9-1.4-51.1-8.9-77.2-9.2c-8.5-0.1-16.9-2.1-25.3-3.3
			c3.7,2.7,7.8,4.5,11.9,6.4c13.2,6,27.3,9.6,41.5,10.3c32.6,1.7,65.2,2.7,97.8,2.9c31.8,0.2,63.6-1,95.4-1.3
			c29.2-0.3,58.3-0.3,87.5-0.6c5.5-0.1,11-0.6,16.4-1.4c8.7-1.3,17.4-4.4,26.1-4.2c12.2,0.2,23.1-3.4,33.3-8.7
			c17.9-9.2,26.8-25,29.5-44.6c0.7-4.9,1.7-9.8,2.2-14.8c1.2-11.9,2.8-23.8,3.3-35.7c0.4-9.8-0.8-19.6-1.2-29.4
			c-0.7-18.5-1-36.9-2-55.4c-1.1-18.3-1.8-36.6,2.2-54.7c0.6-2.9,0.6-6,0.6-9c0-31.7,0.2-63.3-0.1-95
			C25.3,331.2,24,323.6,23.3,316.1z M13.8,260.6c1.2,4.7,2.4,9.5,3.5,14.2C18.8,269.3,18.9,264.3,13.8,260.6z"/>
		<path class="st0" d="M-448.6,564c0-16.2-0.3-32.3,0.1-48.5c1.9-79.6,0-159.2,0.7-238.8c0.1-13.3,3.6-25.1,14.1-34.4
			c6.7-5.9,11.2-14.2,20.2-17.4c6.7-2.4,13.3-5,20.2-6.7c7.9-2,16-3.5,24-4.6c9.3-1.4,18.8-2.8,28.2-3.1c20.2-0.5,40.3,0.3,60.5-0.2
			c46.9-1.3,93.8-3.4,140.8-4.6c12.9-0.3,25.9,1.5,38.8,2c13.5,0.5,27,0.3,40.4,1.1c8.1,0.5,16.2,1.8,24,4
			c12,3.3,18.4,13.7,25.9,22.6c2.9,3.4,5.5,7.2,7.5,11.2c2.9,5.9,5.1,12.1,7.5,18.2c0.3,0.8,0.3,1.6,0.6,2.4c7.1,20,7.2,40.8,7,61.7
			c-0.1,12.6,1.9,25.2,1.6,37.8c-0.7,31-2.2,61.9-3.4,92.8c-0.1,2.5-0.1,5-0.2,7.5c-1,37.1-2,74.2-3,111.4
			c-0.3,10.2,0.1,20.3-0.3,30.5C6,625.6-1,639.4-12,651.8c-8.9,10-20.5,15.1-32.4,19.7c-5,1.9-10.8,1.7-16.3,2.2
			c-19.2,1.7-38.4,3.5-57.7,4.9c-7,0.5-14.1,0.6-21-0.1c-26.8-3-53.5-0.9-80.3,0.8c-13.4,0.9-27,0.3-40.4,0
			c-8.1-0.2-16.3-1.2-24.4-1.3c-27-0.5-53.8-3-80.3-8.7c-5-1.1-10.2-1-15.4-1.2c-13.3-0.5-26.7-0.9-39.3-6
			c-9.3-3.7-16.5-8.9-20.5-18.9c-5.2-12.8-8.9-25.6-8.3-39.6c0.6-13.1,0.1-26.3,0.1-39.5C-448.3,564-448.5,564-448.6,564z
			 M-209.8,593.9c46.3,0,92.7,0.1,139-0.1c6.7,0,13.6-1.3,20-3.4C-31.2,584-17,563.7-17,543c0-59.7,0-119.3,0-179
			c0-27.4-23.7-50.9-51.2-50.9c-93.7,0-187.3,0-281,0.1c-5.1,0-10.3,0.7-15.2,1.9c-21.7,5.5-38.1,25.8-38.2,47.6
			c-0.2,60.5-0.2,121,0,181.5c0.1,26.8,24,49.7,50.8,49.7C-304.5,593.9-257.1,593.9-209.8,593.9z"/>
		<path class="st1" d="M23.3,316.1c0.7,7.6,2,15.2,2,22.8c0.2,31.7,0.1,63.3,0.1,95c0,3,0,6.1-0.6,9c-4,18.1-3.3,36.4-2.2,54.7
			c1.1,18.4,1.3,36.9,2,55.4c0.4,9.8,1.5,19.6,1.2,29.4c-0.4,11.9-2,23.8-3.3,35.7c-0.5,5-1.5,9.9-2.2,14.8
			c-2.7,19.6-11.6,35.4-29.5,44.6c-10.2,5.3-21.1,8.9-33.3,8.7c-8.7-0.2-17.3,2.9-26.1,4.2c-5.4,0.8-10.9,1.3-16.4,1.4
			c-29.2,0.3-58.3,0.3-87.5,0.6c-31.8,0.4-63.6,1.6-95.4,1.3c-32.6-0.2-65.2-1.2-97.8-2.9c-14.2-0.8-28.3-4.3-41.5-10.3
			c-4.1-1.9-8.2-3.6-11.9-6.4c8.4,1.1,16.9,3.2,25.3,3.3c26.1,0.3,51.3,7.8,77.2,9.2c5.2,0.3,10.3,1,15.4,1.1c26,0.8,51.9,2,77.9,2
			c21.6,0,43.2-2,64.9-2.4c11.1-0.2,22.3,1.1,33.4,1.7c2.2,0.1,4.3,0,6.5-0.2c21.2-1.8,42.4-3.6,63.7-5.5c4.5-0.4,9.1-0.3,13.4-1.5
			c4.6-1.3,8.8-3.9,13.1-5.9c24.4-11.1,37.5-31.2,44.2-56.3c0.5-1.9,0.5-4,0.6-6c0.2-17.8,0.2-35.7,0.7-53.5
			c1.2-37.6,2.9-75.2,4-112.8c1-32.6,1.7-65.3,2-97.9c0.1-11.1-1.3-22.2-2-33.3C21.9,316.1,22.6,316.1,23.3,316.1z"/>
		<path class="st1" d="M13.8,260.6c5.1,3.7,5,8.8,3.5,14.2C16.1,270,14.9,265.3,13.8,260.6z"/>
		<path d="M-209.8,593.9c-47.3,0-94.7,0-142,0c-26.8,0-50.7-22.9-50.8-49.7c-0.2-60.5-0.2-121,0-181.5c0.1-21.8,16.5-42.1,38.2-47.6
			c4.9-1.2,10.1-1.9,15.2-1.9c93.7-0.1,187.3-0.1,281-0.1c27.5,0,51.2,23.6,51.2,50.9c0,59.7,0,119.3,0,179
			c0,20.7-14.2,40.9-33.8,47.4c-6.4,2.1-13.3,3.3-20,3.4C-117.1,594-163.5,593.9-209.8,593.9z M-376.8,337.3
			c0.8,1.1,1.3,1.8,1.9,2.3c54,53.9,108,107.9,162,161.8c4.7,4.7,8.6,4.6,13.4-0.1C-147.1,449-94.8,396.7-42.4,344.5
			c3-3,2.4-4.7-0.2-7.2C-50.5,330-59.9,327-70.4,327c-68.7,0-137.3,0-206,0c-24.7,0-49.3,0-74,0
			C-360.3,327.2-369.1,330.1-376.8,337.3z M-378.2,568.4c8,8.3,17.6,11.5,28.3,11.5c93.5,0,186.9,0,280.4-0.1
			c4.9,0,9.9-1.1,14.6-2.6c5.7-1.8,10.6-5.1,13.5-9.2c-34.3-34.5-68.1-68.5-102.1-102.7c-0.9,0.9-2.2,2-3.3,3.1
			c-14.3,14.2-28.5,28.5-42.8,42.7c-10.5,10.5-22.9,10.4-33.4-0.1c-15.1-15.1-30.3-30.1-45.2-45.3c-3-3-4.6-2.9-7.5,0
			c-18.5,18.7-37.2,37.3-55.8,55.9C-346.9,537.1-362.3,552.5-378.2,568.4z M-283.9,453c-33.7-33.9-67.8-68.1-102.7-103.1
			c-0.8,5.6-2.2,11.1-2.2,16.6c-0.3,23.3-0.1,46.6-0.1,70c0,34.8-0.1,69.6,0.1,104.4c0,4.9,1.3,9.9,2,15.3
			C-351.5,520.7-317.2,486.3-283.9,453z M-32.5,553.9c0.6-4.4,1.4-8.1,1.4-11.9c0.1-59,0.1-118,0-177c0-3.2-0.7-6.4-1-9.6
			c-33.5,33.6-66.6,66.7-99.2,99.4C-98.9,487.3-66.1,520.2-32.5,553.9z"/>
		<path class="st1" d="M-376.8,337.3c7.7-7.3,16.5-10.1,26.3-10.2c24.7-0.1,49.3,0,74,0c68.7,0,137.3,0,206,0c10.6,0,20,3,27.8,10.3
			c2.7,2.5,3.3,4.2,0.2,7.2c-52.4,52.2-104.8,104.5-157.1,156.8c-4.7,4.7-8.7,4.8-13.4,0.1c-54-53.9-108-107.9-162-161.8
			C-375.5,339.1-375.9,338.4-376.8,337.3z"/>
		<path class="st1" d="M-378.2,568.4c15.9-15.9,31.3-31.3,46.7-46.7c18.6-18.6,37.3-37.2,55.8-55.9c2.9-2.9,4.5-3,7.5,0
			c14.9,15.2,30.1,30.2,45.2,45.3c10.5,10.5,22.9,10.6,33.4,0.1c14.3-14.2,28.5-28.5,42.8-42.7c1.2-1.2,2.4-2.2,3.3-3.1
			c34,34.2,67.8,68.2,102.1,102.7c-2.9,4.1-7.8,7.4-13.5,9.2c-4.7,1.5-9.7,2.6-14.6,2.6C-163,580-256.4,580-349.9,580
			C-360.7,579.8-370.2,576.7-378.2,568.4z"/>
		<path class="st1" d="M-283.9,453c-33.3,33.4-67.6,67.8-102.9,103.1c-0.8-5.5-2-10.4-2-15.3c-0.2-34.8-0.1-69.6-0.1-104.4
			c0-23.3-0.1-46.6,0.1-70c0.1-5.5,1.4-11,2.2-16.6C-351.7,384.8-317.6,419.1-283.9,453z"/>
		<path class="st1" d="M-32.5,553.9c-33.7-33.7-66.4-66.6-98.8-99c32.6-32.7,65.7-65.8,99.2-99.4c0.4,3.2,1,6.4,1,9.6
			c0.1,59,0.1,118,0,177C-31,545.8-31.9,549.5-32.5,553.9z"/>
	</g>
</g>
</svg>
