<?xml version="1.0" encoding="utf-8"?>
<!-- Generator: Adobe Illustrator 19.1.0, SVG Export Plug-In . SVG Version: 6.00 Build 0)  -->
<svg version="1.1" id="Layer_1" xmlns="http://www.w3.org/2000/svg" xmlns:xlink="http://www.w3.org/1999/xlink" x="0px" y="0px"
	 viewBox="-931.9 391 499.5 507" style="enable-background:new -931.9 391 499.5 507;" xml:space="preserve">
<style type="text/css">
	.st0{fill:#FFFFFF;}
	.st1{fill:#A5474E;}
	.st2{fill:#D3545E;}
</style>
<path class="st0" d="M-524.1,606.1c1.5-15.9-1.2-32.1-7.4-46.8c-0.8-1.8-1.6-3.7-2.5-5.5c0-0.4,0.1-0.8,0.1-1.1
	c0.6-6.6-1.7-14.2-3.8-20.4c-4.5-13.8-12.5-26.4-26.6-31.7c-4.8-1.8-10.1-2.5-15.3-2.1c0.7-3.1,0.7-6.3,0-8.9
	c-4.2-15.6-19.7-18.2-33.9-18.1c-12.1-6.2-25.7-8-38.9-4.9c-2.7-6.1-8.9-11.2-15.8-10.5c-19.4,2-38.8,4.8-58,8.5
	c-6.2,1.2-11.5,7.6-12.6,13.9c-7.9,4.1-15.2,9-19.9,16c-1.8,0.4-3.6,0.9-5.3,1.8c-28.5,14-54.1,34.5-73.9,59.4
	c-4.2,5.3-6.7,12.5-3.9,19c-3.5,8.5-5.2,17.9-4.3,27.5c0.6,7.1,2.4,14,5.2,20.5c-2.2,4.7-3.9,9.5-4.8,14.7
	c-2.3,13.5-0.7,28,7.6,39.2c5.9,8,13.8,13.3,22.7,16.3c2.7,16.8,9.6,32.2,25,42.5c8.2,5.4,18.5,1.6,23.5-5.8
	c0.9,0.4,1.8,0.9,2.7,1.3c-6.9,15.8-13.8,31.6-20.7,47.3c-3.7,8.4-2.7,19.2,6.3,23.9c2.9,1.5,6.6,2.3,10.2,2.1
	c-0.2,6.6-0.2,13.1,0,19.7c0.4,15.4,18.7,22.8,29.9,12.4c0.1-0.1,0.2-0.2,0.3-0.2c6.1-1.4,11.5-5.5,13-12.1c0.2-0.9,0.3-1.8,0.4-2.7
	c14.5-19,23.1-41.9,25.7-65.9c0,0,0-0.1,0-0.1c0.5-1,0.8-2,1-3.1c0.4-2.1,0.7-4.3,1.1-6.4c3.9,3.5,9.3,5.2,15.5,3.5
	c1.2-0.3,2.4-0.7,3.7-1c1.5,2.3,3.2,4.5,5.1,6.5c-0.8,3.8-0.3,7.9,2.1,11.6c5,7.8,15.6,11.4,23.9,6.3c8.2-5.1,16-10.7,23.3-16.7
	c8.8-6.3,17.6-12.7,26.4-19c8.4-6.1,16.8-12.2,25.2-18.3c7.3-5.3,14.7-10.7,20.7-17.5c4.7-5.3,8.5-11.2,11.2-17.6
	c3.3-2.2,5.8-5.6,7.2-9.7c6.9-21.1,9.9-43.7,8.5-65.9C-524.2,607.1-524.1,606.6-524.1,606.1z M-601.2,690.9
	c-1.8-0.1-3.6,0.1-5.4,0.6c-0.9,0.3-1.9,0.5-2.8,0.8c-14.7,1-29.1,3.5-43.1,7.5c0.6-1.8,1-3.5,1.3-5.3c1.9-12.2,0.4-25.2-3.3-37
	c-3.9-12.3-10.1-23.8-18.3-33.7c1.3-1,2.5-2.1,3.7-3.3c9.2-10,9.5-25.9,3-37.4c-0.2-0.3-0.4-0.6-0.5-0.9c-0.9-2.8-2.1-5.6-3.7-8.1
	c-7.9-12.6-23.4-18.5-37.8-14.8c-6,1.6-11.3,5-15.4,9.5c-6.9,2.4-13,6.3-16.7,12.8c-3.8,6.5-4.3,13.9-2.9,21
	c-3.7,5.2-7.3,11-10.3,17c-2.9-2.7-6-5.2-9.4-7.1c-2.5-1.5-5.1-2.7-7.7-3.7c-2.2-6.1-5.1-11.9-9-16.5c0-3.4-0.1-6.9-0.2-10.3
	c0.1-0.5,0.2-0.9,0.3-1.4c14.6-12.5,28.6-25.8,41.9-39.8c2.5-2.7,4.1-5.9,4.7-9.3c3.2-1.8,6.5-3.6,9.7-5.3c8.5-1,17-2.2,25.5-3.6
	c12.1,2.1,24.3,2.9,36.5,2.6c8,5.5,16.9,9.6,26.1,12.2c0.6,0.2,1.3,0.3,1.9,0.5c4,3.4,8.1,6.7,12.4,9.7c6,4.3,12.3,8.1,18.8,11.5
	c0.4,12.1,5,24.5,8.7,35.7c3.7,11.3,8.3,22.1,14.2,32.2c-4.6,1.5-8.8,4.3-12.1,8.6c-7.4,9.5-7.5,22.7-8.6,34.2
	C-600.4,676.8-600.9,683.8-601.2,690.9z"/>
<g>
	<path class="st0" d="M-439.1,724.4c-1.1-6.1-2.6-12.1-4.2-18.1c1-2.2,1.6-4.6,1.6-7.2c0.2-41.9,0.5-83.9,0.7-125.8
		c0.1-21.3-0.3-42.6-4.5-63.5c-0.9-4.4-2-8.7-2.9-13c-0.4-1.7-0.8-3.3-1.1-5c2.8-3.1,4.5-7.1,4.5-11.6c0-6.3,0-12.6-0.1-18.9
		c0-7.4-5.4-15.2-12.8-16.9c-0.3-0.1-0.7-0.1-1-0.2c-3.5-6.2-7.7-12.1-12.6-17.3c-12.7-13.6-32.1-23-51-21c-9.1,1-18,7.3-17.5,17.5
		c0.4,8.6,7.8,18.6,17.5,17.5c1.6-0.2,3.2-0.3,4.8-0.3c0.8,0,1.7,0,2.5,0.1c1.5,0.4,3.1,0.7,4.6,1.2c0.6,0.2,1.3,0.4,1.9,0.6
		c1.6,0.9,3.3,1.7,4.8,2.6c0.4,0.3,2.6,1.7,2.7,1.7c2.2,1.8,4.2,3.8,6.1,5.9c0.1,0.1,2.4,3.1,1.9,2.4c0.8,1.1,1.5,2.2,2.3,3.4
		c1.8,2.8,3.4,5.7,4.9,8.7c0.5,0.9,0.9,1.8,1.3,2.8c-1.6,9.5-0.6,19.5,1.2,28.9c3,15.9,6.3,28.1,7.1,42.9
		c1.8,30.6,0.6,61.6,0.2,92.3c-2.2,2.1-4,4.8-5.3,8c-12.2,29.9,2.9,60.6,8.4,90c0.2,1,0.3,1.9,0.5,2.9c-2.4,2.2-4.2,5-5.6,8.3
		c-9.4,23.8-8.4,48.7-1.9,73c0.3,1.1,0.5,2.4,0.9,3.4c0.1,0.3,0.1,0.5,0.1,0.6c0,0.3,0,0.6,0,0.8c0,0.4,0,0.8,0,1.1
		c-0.4,1-0.6,2-0.9,3c-0.1,0.2-0.3,0.6-0.6,1.1c-0.7,1.2-1.3,2.3-2.1,3.5c-0.6,0.9-1.1,1.7-1.7,2.6c-0.3,0.3-0.8,1-1.1,1.5
		c-0.7,0.9-1.5,1.7-2.3,2.5c-3-0.8-6.1-0.8-8.9-0.1c-12.5,3.5-25,7-37.5,10.4c-23.6,0.6-47.1,4-69.8,10.1
		c-6.9,0.9-13.9,1.7-21.4,2.4c-21.1,2.2-42.2,3.6-63.4,4.4c-41.9,1.5-84,0.4-125.8-3.7c-2.6-0.2-5.1-0.5-7.6-0.8
		c-0.2,0-0.5-0.1-0.9-0.1c-1.5-0.2-2.9-0.5-4.3-0.8c-2.6-0.5-5.2-1.1-7.7-1.8c-1.1-0.3-2.2-0.7-3.4-1c-0.2-0.1-2-0.7-2.8-1
		c-0.6-0.3-1.7-0.7-1.9-0.8c-1.3-0.6-2.5-1.2-3.8-1.8c-3.1-1.5-6.3-2.9-9.6-4.1c-7.1-2.6-13.9-2.6-21.2-1.5
		c-9.1,1.3-14.9,13.3-12.2,21.5c3.2,10,11.8,13.6,21.5,12.2c-2.5,0.4-1.8,0.4-1,0.4c0-0.1,0.1-0.1,0.3,0c0.4,0,0.8,0,0.8,0
		c0,0.1-0.1,0.2-0.2,0.2c0.1,0,0.2,0.1,0.3,0.1c0.8,0.4,1.7,0.6,2.6,0.9c0.2,0.1,0.6,0.3,1,0.5c4.9,2.4,10,4.8,15.2,6.6
		c10.1,3.6,20.8,4.9,31.4,6c20.8,2.2,41.8,3.4,62.8,4.1c42,1.4,84.2,0,126.1-4.1c8.2-0.8,16.5-1.7,24.7-2.7c0.7,0.1,1.4,0.1,2.2,0.1
		c4.7-0.1,9.3-0.4,14-0.9c2.9,2.4,6.6,3.9,10.5,3.5c25.8-2.4,51.5-6.3,76.8-11.8c2.3,0.4,4.6,0.2,6.9-0.7c1.5-0.5,2.8-1.2,4.1-1.9
		c0,0,0,0.1,0,0.1c10.9-4.8,21-12.2,28.8-21.2c9-10.3,16.8-22.8,17.2-36.8c0.5-1.1,0.9-2.2,1.2-3.3c3.1-16.5,4-33.1,2.7-49.5
		C-437,754.5-436.4,740-439.1,724.4z"/>
	<path class="st0" d="M-869.6,880.5c0,0.1,0.6,0.5,1,0.2c-0.3-0.1-0.5-0.2-0.6-0.2C-869.4,880.5-869.5,880.5-869.6,880.5z"/>
</g>
<g id="f7cGzx_1_">
	<g>
		<path class="st1" d="M-452.4,538c-0.7-15.4-2.5-30.9-2.4-46.3c0.1-13.7-2.1-26.8-6.4-39.7c-1.2-3.5-2.6-7-2.6-10.6
			c-0.1-4-1.6-6.9-4-9.8c-4.7-5.6-10.5-9.2-17.5-10.9c-6.4-1.6-11-5.3-12-11.9c-0.6-3.7-2.4-5.1-5.4-6.2s-6.1-1.7-9.3-1.7
			c-17.8,0-35.6-1-53.4-1.6c-14.6-0.5-29.1-2.8-43.8-2.5c-11.3,0.2-22.6,0-34,0c-20.6,0-41.3,0.2-61.9-0.1
			c-13.3-0.2-26.4,1.5-39.6,2c-19.1,0.7-38.3-1.2-57.3,2.2c-19.5,3.6-39.5,2-59,5.8c-7.4,1.5-15.5,1.6-21.8,6.4
			c-17.4,13.4-30.3,30.1-38.5,50.5c-2.5,6.2-2.3,12.8-4.2,18.9c-3.8,12.7-3.1,25.7-3,38.6c0.1,5.5,0,11-0.2,16.5
			c2.3,44.5,4.3,89,2.9,133.5c-0.3,12.5-1.3,24.9-1.2,37.3c0.1,11.6,0.7,23.1,1.5,34.6c1.7,23.7,4,47.5,3.3,71.3
			c-0.1,2.9-1.3,5.1-3.1,6.5c1.6,2.2,3,4.6,4.2,7.1c2.9,5.9,6,14.6,7.9,19.1c0.9,2.1,1.9,4.1,2.9,6.1c0.4,0.3,0.8,0.5,1.2,0.8
			c7.4,4.9,15.3,9.9,23.9,12.4c0.7,0,1.4,0,2.1-0.1c2.3-0.1,4.2,0.5,5.5,1.6c1.7,0.4,3.2,1.1,4.5,2.1c0.5,0.1,1.1,0.2,1.5,0.4
			c19.2,5.8,39.4-0.2,58.8,5.5c8.9,2.6,18.8,1.7,28.3,2.4c6.9,0.5,14,0,20.6,2.9c0.7,0.3,1.9,0.4,2.4,0c3.1-2.7,6.1-1.1,8.8,0.3
			c2.6,1.4,5.3,1.8,8.1,1.8c49.2,0,98.3,0,147.5,0c12.3,0,24.6,0.3,36.9-1.5c5.3-0.8,10.3-3.4,15.5-3c8.3,0.5,16.2-0.8,24.2-2.6
			c10.3-2.4,20.4-5.1,29.1-11.2c6.1-4.3,12.5-8.5,16.4-15.1c4.1-7,8-14.2,11.5-21.6c3.4-7.2,7.6-14.1,7.6-22.5
			c0-7.2,0-14.3,0.1-21.5c0.2-18.3-1-36.7,1.9-54.9c1.2-7.6,3.4-15.1,3.7-22.6c0.9-21.8,0.3-43.6,1.8-65.4
			C-445.8,606.7-450.8,572.4-452.4,538z M-538,653.1c0.3,2.7-1.2,5.9-2.3,8.3c-4.9,10.8-6.4,22.7-11.9,33.2c-1.6,3-3.9,5.7-5.3,8.7
			c-5.1,10.8-13.5,18.9-21,27.7c-2,2.4-5.1,2.7-7.6,4.2c-7.2,4.4-12.2,11.3-19.8,15.1c-5.9,2.9-12.4,4.6-18.1,8
			c-0.1,0.1-0.3,0.3-0.4,0.3c-12.9,0.1-25.9,0.9-38.8-0.4c-8-0.8-13.2-6.6-19-11.2c-3.7-3-8.1-4.7-11.7-8.1
			c-2.8-2.6-4.9-5.5-7.3-8.3c-1.9-2.2-3.4-4.9-7.4-4.1c-4.5,0.9-5.3,4.3-5.5,7.6c-0.6,16.4-6,31.8-9.3,47.6
			c-2.3,11.4-5.1,22.7-7.9,34c-2.1,8.1-6.2,15.4-12.5,21c-3,2.8-7.4,1.2-11,0.9c-2.7-0.3-5.5-1.7-8.4-2.3c-4.3-0.8-5-4.1-3.9-7.4
			c3.4-10.5,4.3-21.4,4.9-32.3c0-0.6,0.2-1.3,0.5-1.8c5.4-9.5,5.5-20.5,8.5-30.7c2.9-9.6,5.6-19.3,7.1-29.1
			c1.7-10.5,7.8-19.5,9.3-30c1.3-9.3,2.3-18.8,4.7-27.9c2.2-8.1,0.7-15.1-2.2-22.5c-5.8-14.7-6.5-29.6-3.5-45.2
			c1.9-9.5,5.7-17.9,11.5-25.3c6.7-8.5,15.9-12.5,26.7-11c5.2,0.7,8.9,5.7,13.8,8c0.3,0.1,0.5,0.8,0.5,1.3
			c0.4,10.3,4.9,20.4,2.9,30.8c-1.8,9.3-4,18.6-7.8,27.4c-1.4,3.2-2.2,6.4-2.1,9.9c0.5,10.7-3.4,20.9-4.5,31.4
			c-1.1,10.2-2.9,20.5,1.7,30.3c2.1,4.4,5.3,7,10.5,7.7c5.6,0.7,10.4,4.1,16,5.4c19.4,4.2,36-0.2,50.5-13.7c2.8-2.6,5.4-5.2,8.3-7.7
			c11.8-10.1,18.2-22.8,20.8-38.2c1.3-7.3,6.1-14,7.6-21.4c2.3-11,4.3-22,2.4-33.5c-1.3-7.8-0.5-16-0.2-24
			c0.2-5.5-0.4-10.9-2.2-15.9c-2.2-6-1.5-13.2-6.4-18.1c-7.2-7.2-14.3-14.7-22.3-21.1c-3.9-3.1-6.4-7.9-11.4-9.6
			c-9.4-3.2-17.9-8.5-27.4-11.8c-8.8-3.1-17.2-1.7-25-2.6c-10,0.3-19.2-0.7-28.3,2c-7.7,2.3-15.7,3.7-23,7.1
			c-7.9,3.8-16.1,6.9-23.5,11.7c-0.9,0.6-2.1,1.1-2.8,1.9c-5.3,6.8-11.5,12.9-15.6,20.6c-2.4,4.6-5.6,8.7-7.7,13.5
			c-4.1,9.4-8,19-10.5,28.9c-1.6,6.2-4.6,12-5.3,18.6c-0.9,8.3-1.6,16.7-1.5,25c0.1,6.2-1.3,12.6,1.3,18.7c3,7.2,7.1,13.8,11.5,20.2
			c4.1,6,3.5,12,1.6,18.2c-0.7,2.2-2.6,3.3-5.6,3.6c-11.2,1.2-19.1-4.7-26.6-11.4c-8.4-7.4-13.9-16.6-15.6-28.1
			c-1.4-8.9-3.6-17.7-3.9-26.8c-0.6-15.4-1.1-31,3.1-46c3.1-11.1,7.1-21.7,14.1-31.5c5.2-7.3,9.6-14.6,17.3-19.5
			c6-3.9,10-10,14.8-15.1c3-3.2,6.4-5.5,9.8-7.7c13-8.8,26.7-16.5,41.5-21.8c7.3-2.6,14.7-5.5,22.6-5.2c8.3,0.3,16-2.9,24.2-3.4
			c9.4-0.5,18.6-1.8,28.1,0.9c8,2.3,16.3,4.1,24.4,6.1c8.8,2.2,17,5.8,24.6,10c7.6,4.2,15.6,7,23.5,10.1c3,1.2,4.8,3.1,6.5,5.4
			c5.6,7.3,12.8,13.2,18,20.9c1.4,2.1,2.2,4.2,2.7,6.7c1.8,10.8,8.2,19.8,11.2,30.2c2.3,8.1,5.2,15.8,5.8,24.5
			c0.5,8.1,0.3,16.2,0.7,24.3C-535.3,630.9-539.1,641.8-538,653.1z M-458.9,582.9c-0.1,1.7,0,3.3,0,5.7c-7.6-3.6-13.9-7.9-19.2-13.4
			c-12.1-12.5-25.9-22.6-41.3-30.7c-5.1-2.7-9.2-7.3-14.3-9.8c-13.9-6.7-20.3-20.6-30.6-30.7c-2.9-2.8-5.3-6.2-9.3-7.2
			c-11.9-3-22.1-9.7-33-14.7c-14.9-6.8-30.7-10.2-46.4-14.2c-14.5-3.7-28.3-1-42.3,1.6c-8.1,1.5-16.5,1-24.5,3.5
			c-14.2,4.6-28.2,9.7-41.1,17.3c-9.7,5.7-19.6,11.2-27.7,19.1c-5.3,5.2-9.9,11.1-15.8,15.7c-1.7,1.4-3.6,2.4-5.5,3.4
			c-5.1,2.8-7.2,8-10,12.6c-4.4,7-8.6,14.2-12.7,21.4c-2,3.5-3.2,7.2-3.4,11.3c-0.3,5.9-2.6,11.6-4.3,17.2c-2.7,8.9-2,17.9-2.4,26.8
			c-0.7,16.8,3.2,33,5.9,49.3c0.9,5.6,4.9,9.7,7.3,14.6c5.4,10.9,15.1,17.6,24.5,24.1c5.4,3.7,12.5,5.1,19.5,5.1
			c2.6,0,5.3-0.5,6.4,3c0.4,1.3,1.9,1.8,3.2,2.1c6.5,1.7,11.2,6.9,17.6,9.1c1.9,0.6,0.6,2.8,0.3,3.9c-2.5,10.4-4.1,21.1-7.5,31.4
			c-1.7,5.2-2.5,10.6-3.3,16c-0.7,4.6-3.2,8.4-4.7,12.6c-1.4,3.8-2.5,7.6-2.3,11.6c0.5,9.1-2.1,17.7-4.3,26.4
			c-0.9,3.7-1,7.2-0.3,10.8c1,6.1,6.7,7,10.9,9.1c3.4,1.6,6,3.8,8.6,6.4c6.4,6.5,12.9,12.9,19.3,19.4c0.8,0.8,2,1.3,1.9,3.1
			c-11.8,0-23.5,0.5-35.2-0.1c-12.7-0.7-25.3-2.3-38-3.8c-5.9-0.7-11.9-1.5-17.5-3.2c-8.9-2.7-17.9-2.4-26.9-2.8
			c-11.1-0.4-22.2-1.1-32.6-5.3c-9.5-3.8-16.8-9.9-20.5-20c-4.6-12.4-8-24.7-7.4-38.2c0.8-17.5-0.8-35.1,0-52.7
			c0.8-18.5-0.3-37.1,1.9-55.6c0.5-4.3-0.7-8.9-0.7-13.3c-0.1-69.5-0.1-139,0-208.5c0-10.6,3.4-20.1,11.8-27.4
			c3.6-3.1,6.5-7.1,9.5-10.8c2.6-3.2,6.6-4.4,9.7-6.8c9.1-7,20.2-7.3,30.9-9.3c8.6-1.6,17.2-3.6,25.7-5.6c2-0.5,3.9-0.5,5.9-0.5
			c16.3,0,32.7-0.3,49,0.1c20.8,0.4,41.5-1.1,62.2-2c16.3-0.7,32.6-0.3,48.9-0.3c16.7,0,33.2-1.6,49.8-2.7
			c7.9-0.5,15.9-0.2,23.9,0.6c19.5,1.9,39.1,3,58.7,2.1c6.4-0.3,12.4,1.8,18.6,2.8c9.6,1.6,16,7.8,21.9,14.6
			c7.6,8.8,14.9,17.9,19.5,28.6c2.9,6.7,3.7,14.3,5.9,21.4c4.5,14.4,4.1,29.1,4,43.9C-461.1,541.8-457.5,562.2-458.9,582.9z"/>
		<path class="st2" d="M-458.9,588.6c-7.6-3.6-13.9-7.9-19.2-13.4c-12.1-12.5-25.9-22.6-41.3-30.7c-5.1-2.7-9.2-7.3-14.3-9.8
			c-13.9-6.7-20.3-20.6-30.6-30.7c-2.9-2.8-5.3-6.2-9.3-7.2c-11.9-3-22.1-9.7-33-14.7c-14.9-6.8-30.7-10.2-46.4-14.2
			c-14.5-3.7-28.3-1-42.3,1.6c-8.1,1.5-16.5,1-24.5,3.5c-14.2,4.6-28.2,9.7-41.1,17.3c-9.7,5.7-19.6,11.2-27.7,19.1
			c-5.3,5.2-9.9,11.1-15.8,15.7c-1.7,1.4-3.6,2.4-5.5,3.4c-5.1,2.8-7.2,8-10,12.6c-4.4,7-8.6,14.2-12.7,21.4
			c-2,3.5-3.2,7.2-3.4,11.3c-0.3,5.9-2.6,11.6-4.3,17.2c-2.7,8.9-2,17.9-2.4,26.8c-0.7,16.8,3.2,33,5.9,49.3
			c0.9,5.6,4.9,9.7,7.3,14.6c5.4,10.9,15.1,17.6,24.5,24.1c5.4,3.7,12.5,5.1,19.5,5.1c2.6,0,5.3-0.5,6.4,3c0.4,1.3,1.9,1.8,3.2,2.1
			c6.5,1.7,11.2,6.9,17.6,9.1c1.9,0.6,0.6,2.8,0.3,3.9c-2.5,10.4-4.1,21.1-7.5,31.4c-1.7,5.2-2.5,10.6-3.3,16
			c-0.7,4.6-3.2,8.4-4.7,12.6c-1.4,3.8-2.5,7.6-2.3,11.6c0.5,9.1-2.1,17.7-4.3,26.4c-0.9,3.7-1,7.2-0.3,10.8c1,6.1,6.7,7,10.9,9.1
			c3.4,1.6,6,3.8,8.6,6.4c6.4,6.5,12.9,12.9,19.3,19.4c0.8,0.8,2,1.3,1.9,3.1c-11.8,0-23.5,0.5-35.2-0.1c-12.7-0.7-25.3-2.3-38-3.8
			c-5.9-0.7-11.9-1.5-17.5-3.2c-8.9-2.7-17.9-2.4-26.9-2.8c-11.1-0.4-22.2-1.1-32.6-5.3c-9.5-3.8-16.8-9.9-20.5-20
			c-4.6-12.4-8-24.7-7.4-38.2c0.8-17.5-0.8-35.1,0-52.7c0.8-18.5-0.3-37.1,1.9-55.6c0.5-4.3-0.7-8.9-0.7-13.3
			c-0.1-69.5-0.1-139,0-208.5c0-10.6,3.4-20.1,11.8-27.4c3.6-3.1,6.5-7.1,9.5-10.8c2.6-3.2,6.6-4.4,9.7-6.8c9.1-7,20.2-7.3,30.9-9.3
			c8.6-1.6,17.2-3.6,25.7-5.6c2-0.5,3.9-0.5,5.9-0.5c16.3,0,32.7-0.3,49,0.1c20.8,0.4,41.5-1.1,62.2-2c16.3-0.7,32.6-0.3,48.9-0.3
			c16.7,0,33.2-1.6,49.8-2.7c7.9-0.5,15.9-0.2,23.9,0.6c19.5,1.9,39.1,3,58.7,2.1c6.4-0.3,12.4,1.8,18.6,2.8
			c9.6,1.6,16,7.8,21.9,14.6c7.6,8.8,14.9,17.9,19.5,28.6c2.9,6.7,3.7,14.3,5.9,21.4c4.5,14.4,4.1,29.1,4,43.9
			c-0.2,20.6,3.4,41.1,2,61.7C-459,584.5-458.9,586.2-458.9,588.6z"/>
	</g>
</g>
<g id="_x34_KGZKV_1_">
	<g>
		<path d="M-626,391c17,0,34,0,51,0c5.5,0.9,11.1,2.3,16.6,2.5c12,0.4,24.1-0.6,36,0.3c15.6,1.2,30.6,4.8,41.8,17.3
			c4.4,5,9.6,9.2,14.3,14c7.9,8,17.7,14.4,22.3,25.2c2.1,5.1,3.5,10.6,4.4,16.1c0.9,6.1,0.4,12.3,1.3,18.4c3.4,21.9,6.2,43.8,5.8,66
			c-0.5,26.3-0.1,52.7-0.1,79c0,3.2-0.3,6.3-0.5,9.5c-0.9,11.8-2.2,23.5-2.8,35.3c-0.3,7.6,0.5,15.3,0.8,23
			c0.6,22.3,1.1,44.6,1.7,66.9c0.1,2,0.6,4,0.6,6c0.1,9,0.8,18,0,26.8c-0.8,9.4-4,18.7-4.3,28.1c-0.4,10.8-4.3,19.9-8.9,29.3
			c-10.4,21.1-28.8,30.6-50.3,35.3c-8.4,1.8-17.1,2.1-25.7,3c-13.1,1.3-26.1,3.4-39.2,3.7c-27,0.7-54,0.6-81,0.7
			c-35.6,0.2-71.2,0.7-106.9,0.6c-24.6-0.1-49.3-1.3-73.9-1.7c-19.7-0.3-38.6-4.1-56.8-11.9c-3.1-1.3-7-1.6-9.6-3.6
			c-7.6-6.2-14.7-13-22-19.5c-12-10.7-17.2-25.1-17.4-40.1c-1.2-76.8,1-153.6-2.7-230.3c-1.2-24.3,0.8-48.7,0.2-73
			c-0.6-22.4,2-44.2,8.3-65.7c2.3-7.8,6.3-14.2,12-19.8c2.5-2.5,5-4.9,7.2-7.6c10.2-12.3,23.7-18.4,38.9-21.5
			c10.1-2.1,20.3-4,30.4-5.8c4.4-0.8,8.9-1.8,13.3-1.9c54.3-1,108.6-1.7,162.9-2.6c5.2-0.1,10.3,0.2,15.5-0.2
			C-637.2,392.4-631.6,391.6-626,391z M-916.6,759.3c1.4,22-2.8,44.4,3.9,66c2.4,7.5,5.3,15.4,9.9,21.5c7.3,9.6,18.9,12.7,30.4,14.2
			c16,2.1,32.2,2.4,48,5.3c35.6,6.5,71.6,6.5,107.5,8.1c19.2,0.9,38.6-1.8,57.9-1.9c18.8-0.2,37.6,1.7,56.4,1.1
			c25.9-0.9,51.8-3.4,77.7-5.3c4.1-0.3,8.6-0.2,12.3-1.7c11.8-4.7,23.6-9.6,32.4-19.6c11.1-12.5,18.3-26.5,18.8-43.3
			c0.3-10.2,0-20.3,0.3-30.5c0.9-37.1,2-74.2,2.9-111.4c0.1-2.8,0.1-5.7,0.3-8.5c1.1-22.3,3-44.5,3.3-66.8
			c0.3-21.3-1.6-42.6-1.5-63.8c0.1-20.4-0.1-40.7-7-60.2c-0.3-0.9-0.3-2-0.7-2.9c-2.3-5.8-4.3-11.8-7-17.3c-2.1-4.3-5-8.4-8.1-12
			c-6.6-7.8-12.3-17.2-22.4-20.9c-8-2.9-16.7-4.8-25.2-5.4c-14.1-1.1-28.3-0.6-42.4-1.1c-13-0.5-25.9-2.4-38.8-2.1
			c-46.6,1.2-93.2,3.4-139.8,4.6c-23,0.6-46,0-69,0.2c-5.1,0-10.3,0.9-15.3,1.8c-10.7,1.9-21.3,3.8-31.9,6.2
			c-5.9,1.4-11.6,3.9-17.3,6.1c-9,3.4-13.9,11.5-20.7,17.6c-10.4,9.3-14.1,21.2-14.2,34.7c-0.7,79.6,1.2,159.2-0.7,238.8
			C-917,727-916.6,743.1-916.6,759.3z M-444.6,511.1c-0.7,0-1.5,0-2.2,0c0.7,11.3,2.2,22.5,2,33.8c-0.3,32.8-1.1,65.6-2.1,98.4
			c-1.1,36.9-2.8,73.8-3.9,110.8c-0.6,18.1-0.5,36.3-0.7,54.5c0,2,0,4.1-0.6,6c-6.8,25.2-19.8,45.5-44.6,56.5
			c-4.7,2.1-9.3,4.5-14.1,5.9c-3.9,1.1-8.2,1-12.4,1.4c-21.1,1.8-42.1,3.7-63.2,5.5c-2.2,0.2-4.3,0.3-6.5,0.2
			c-12.3-0.6-24.6-1.9-36.9-1.7c-27.5,0.5-54.9,1.9-82.4,2.4c-10.8,0.2-21.6-1-32.4-1.7c-19.1-1.1-38.4-0.9-57.3-3.7
			c-28.4-4.3-57-6.2-85.6-9.8c3.9,2.2,8,4,12.1,5.8c13.4,6.1,27.6,9.6,42,10.4c31.6,1.7,63.2,2.5,94.8,2.9c23.3,0.4,46.6-0.3,70-0.6
			c37.1-0.4,74.3-0.2,111.4-1.6c24.6-1,49.1-3.5,72.8-11.4c11.9-4,21.2-10.6,26.9-21.4c4-7.4,6.9-15.4,9.4-23.4
			c1.7-5.7,1.9-11.8,2.5-17.7c1.2-11.9,2.7-23.8,3.1-35.7c0.3-8.9-0.8-17.9-1.1-26.9c-0.7-19.1-1.3-38.3-2-57.4c0-0.5-0.1-1-0.1-1.5
			c-1.2-16.6-1.7-33.2,1.5-49.8c0.9-4.5,1.3-9.3,1.3-13.9c0.1-30.7,0.2-61.3,0-92C-442.7,527.3-443.9,519.2-444.6,511.1z
			 M-451.8,455.2c-0.8,0.1-1.6,0.2-2.4,0.4c1.2,4.7,2.4,9.5,3.6,14.2c0.6-0.1,1.3-0.3,1.9-0.4C-449.8,464.6-450.8,459.9-451.8,455.2
			z"/>
		<path d="M-700,741.9c-1.1,4.2-2.2,7.3-2.9,10.6c-4.8,21.3-8.3,42.9-14.7,63.7c-3.3,10.9-8.3,23-21.1,27.5
			c-3.5,1.2-7.7,1.8-11.2,1.1c-7.7-1.7-15.3-4.2-22.7-7.2c-1.8-0.7-3.5-4.3-3.5-6.5c0.1-5.3,1.3-10.5,2.1-15.8
			c0.9-6.6,1.8-13.1,2.8-19.7c0.5-3.4,0.6-7,1.8-10.3c7.3-20.8,11.4-42.3,16.3-63.7c0.4-1.6,0.7-3.3,1.4-4.8
			c8.2-17,9.2-35.7,11.8-53.9c0.8-5.7-2.4-12.2-4.5-18.1c-4.8-13.5-3.4-27.3-2-41c1.3-12.8,6.9-24.1,15-33.7
			c9.6-11.5,22.6-16.7,37.5-13.9c5.9,1.1,11.1,5.8,16.6,8.7c6.8,3.5,6.9,10,7.5,16.3c0.5,5.1,1.6,10.2,2.1,15.3
			c1.2,10.8-0.8,21.5-4.8,31.3c-5.3,13-5.1,26.7-7.6,40c-1.6,8.3-2.2,16.8-2.6,25.3c-0.4,7.4,0.6,8.6,7.5,10.7c7,2.1,14,4,21.2,5.3
			c11.2,1.9,20.6-3.2,29-9.6c5.4-4.1,9.9-9.3,14.8-14.1c7-6.9,10.7-15.4,12.8-24.9c1.6-6.9,4.3-13.6,6.6-20.4
			c3.6-10.7,4.3-21.8,3.8-33c-0.3-7.5-1-15-0.7-22.4c0.8-17.3-5-31.1-18.1-43.1c-13.8-12.5-28.9-21.6-46.5-27.1
			c-1-0.3-1.9-0.8-2.9-0.8c-20.9-1-41.7-1.3-61.3,8c-3.4,1.6-7,3.1-10.5,4.4c-13.1,4.8-20.3,15.4-27.4,26.4
			c-10.5,16.2-16.4,34.3-20.4,52.8c-2.7,12.5-2.5,25.9-1.4,38.8c0.5,6.2,5.4,12.4,9,18.1c7.5,11.7,8,23.5,0.9,35.2
			c-1.8,3-6,5.8-9.4,6.3c-11.3,1.5-22.3,0-31.1-8.5c-5.1-4.9-10.4-9.6-15.2-14.8c-9.3-9.9-11-22.8-13.4-35.4
			c-2.9-15.4-3.2-30.8-2.4-46.3c0.4-7.6,3.1-15,4.2-22.5c2.6-17.9,14.2-31.2,22.6-46.2c1-1.8,3-3.1,4.6-4.5
			c5.5-4.8,11.6-9,16.5-14.4c14.7-16,33.4-25.7,52.8-34.2c24.5-10.7,50.8-13.1,77.1-13.6c9.9-0.2,20.3,2.6,29.7,6
			c20.3,7.4,40.1,16.1,60,24.4c1.8,0.8,3.8,1.7,5,3.2c7.9,9.2,15.6,18.6,23.3,28c1,1.2,1.7,2.9,2.2,4.4c2.7,8,4.8,16.3,8.1,24
			c7,16.3,11.1,33,10.3,50.9c-0.7,14.6-1.1,29.2-1.9,43.8c-0.2,3.4-1.4,6.8-2.6,10.1c-4.4,12.5-8.3,25.3-13.5,37.5
			c-6.6,15.1-16.7,28.1-28.7,39.2c-8.5,7.9-17.7,15.8-28.1,20.6c-12,5.6-24.3,12.5-38.9,10.6c-9.8-1.3-19.9-0.8-29.8-2.1
			c-4.3-0.6-8.7-3-12.5-5.6C-685,753.4-692,747.8-700,741.9z M-672.7,503.7c0-0.4,0.1-0.8,0.1-1.3c9.2,1.3,18.7,1.3,27.4,4.1
			c10.6,3.5,21.1,8.4,30.5,14.5c8.1,5.3,14.2,13.5,21.8,19.8c11.9,9.8,14,23.2,15,37.1c0.7,9.9,0.7,20,0.9,29.9
			c0.2,12.7-0.3,25.2-5,37.3c-2.2,5.6-4.4,11.2-5.6,17c-2.6,13.4-8.8,24.6-18.8,33.8c-3.8,3.5-7.3,7.3-11.3,10.6
			c-9.5,7.6-19.9,13.2-32.7,12.9c-10.6-0.2-20.6-3.2-30.6-6.4c-5.8-1.9-9.7-5.1-10.6-10.6c-1.1-6.8-1.6-13.9-1-20.8
			c1-11.4,3.1-22.7,4.8-34.1c0.7-4.6,1.2-9.2,2.6-13.6c3.8-11.9,8.2-23.7,7.2-36.5c-0.4-5-1.8-9.9-2-14.8c-0.2-4.8-1-8.9-5.7-11.2
			c-4-1.9-7.8-4.9-12-5.5c-10.7-1.6-19.8,3.1-26.4,11.2c-8.1,9.8-12.7,21.6-13.2,34.3c-0.4,9.2-0.2,18.8,2,27.7
			c3.1,12.1,9.1,23.6,3.8,36.6c-0.2,0.6-0.1,1.3-0.2,2c-2,10.4-3.7,21-6.2,31.3c-1.7,7.2-4.7,14.2-6.6,21.4
			c-3.3,12.4-6.4,24.8-9.2,37.3c-3.4,14.8-8.6,29.2-9.2,44.7c-0.2,4.2-1.9,8.4-2.9,12.6c-0.7,2.6,0,4.7,2.8,5.5
			c5.4,1.6,10.8,3.7,16.3,4.2c3,0.3,7.5-1.3,9.1-3.5c4.5-6.7,9-13.8,11.4-21.4c4-13,6.7-26.5,9.4-39.8c2.8-13.6,4.9-27.4,7.6-41.1
			c0.4-1.9,2.2-4.5,3.8-4.9c1.7-0.4,4.7,0.9,5.8,2.5c8,11.9,21.5,17.1,31.7,26.3c0.6,0.5,1.5,0.9,2.3,1c17.6,2.2,34.8,4.3,52.5-2
			c15-5.4,26.2-15.8,38.2-24.8c11.7-8.9,20.2-21.7,26.2-35.4c5.1-11.9,8.9-24.3,13.2-36.5c0.9-2.7,2.2-5.4,2.3-8.1
			c0.8-15.8,1.7-31.5,1.7-47.3c0-7.7-0.9-15.7-3.1-23c-4.4-15-10-29.6-15.2-44.3c-0.4-1.1-0.8-2.2-1.6-3.1c-7-8.3-13.9-16.5-21-24.7
			c-0.7-0.8-1.9-1.3-3-1.8c-18.9-7.8-37.5-16.3-56.8-23.1c-12.8-4.6-26.3-7.7-40.2-6.1c-11.6,1.3-23.2,2.4-34.6,4.6
			c-16,3-30.4,10.4-45.1,17.3c-19.7,9.3-31.8,27.6-49.4,39.4c-0.3,0.2-0.5,0.5-0.7,0.7c-9,14.6-19,28.6-22.6,46.1
			c-4.6,21.8-3.7,43.3-0.2,65c1.8,10.8,4.2,21.3,12.1,29.6c3.8,4.1,8.3,7.6,12.3,11.4c5.3,5,11.7,6.8,18.7,6.7
			c6.5-0.1,9-2.1,9.8-8.6c0.8-6.3-0.2-12-3.7-17.6c-4.2-6.7-10-13.8-10.6-21.1c-1.2-14.3-1.2-29.2,1.6-43.2
			c4.2-20.7,11-40.9,23.3-58.5c5.2-7.6,10.6-16.1,18.1-20.8C-722.1,510.4-698.7,501.8-672.7,503.7z"/>
	</g>
</g>
</svg>
