<?xml version="1.0" encoding="utf-8"?>
<!-- Generator: Adobe Illustrator 16.0.4, SVG Export Plug-In . SVG Version: 6.00 Build 0)  -->
<!DOCTYPE svg PUBLIC "-//W3C//DTD SVG 1.1//EN" "http://www.w3.org/Graphics/SVG/1.1/DTD/svg11.dtd">
<svg version="1.1" id="Layer_1" xmlns="http://www.w3.org/2000/svg" xmlns:xlink="http://www.w3.org/1999/xlink" x="0px" y="0px"
	 width="1440.3px" height="497.6px" viewBox="-0.9 147.1 1440.3 497.6" style="enable-background:new -0.9 147.1 1440.3 497.6;"
	 xml:space="preserve">
<g>
	<path d="M276.6,400.8c3.5-7,8.8-5.3,9.7,0c0.9,4.4,1.8,18.5-7,35.2c-20.3,36.1-56.4,53.7-94.2,56.4c-33.5,1.8-56.4-2.6-74.9-19.4
		c-11.4-9.7-16.7-22-17.6-35.2c-24.7,45.8-52,99.5-77.5,157.7c-1.8,4.4-6.2,6.2-8.8,0.9c-7.9-11.5-10.6-25.5-0.9-58.1
		c15.9-51.1,104.8-218.4,138.3-263.3c5.3-7,9.7-6.2,12.3,0.9c2.6,7,3.5,15,3.5,23.8c22.9-20.3,54.6-35.2,77.5-11.4
		c25.5,27.3,14.1,74-6.2,117.1c-15.9,35.2-35.2,59.9-55.5,72.2C228.1,474.8,259.8,436.1,276.6,400.8z M121.5,461.6
		c16.7,14.1,51.1-24.7,75.7-75.7c20.3-42.3,26.4-86.3,13.2-92.5c-12.3-6.2-45.8,20.3-70.5,60.8c-6.2,9.7-11.4,19.4-17.6,29.9
		C109.2,417.6,106.6,449.3,121.5,461.6z"/>
	<path d="M544.3,488.9c-40.5-1.8-57.2-37.9-44-81c10.6-35.2,44-74.9,66.1-100.4c-23.8,15-46.7,20.3-64.3,20.3
		c-15,23.8-36.1,41.4-65.2,43.2c-10.6,44.9-43.2,99.5-82.8,111.9c-19.4,6.2-46.7,5.3-66.9-22.9c-22.9-30.8-15-77.5,7.9-118.9
		c20.3-36.1,53.7-66.1,85.4-68.7c15.9-1.8,24.7,3.5,35.2,17.6c12.3,16.7,28.2,19.4,25.5,58.1c0,2.6-0.9,5.3-0.9,8.8
		c15-2.6,29.9-12.3,41.4-32.6c-38.8-16.7,12.3-86.3,33.5-87.2c18.5-0.9,8.8,37.9-1.8,66.1c18.5-2.6,37-11.4,57.2-25.5
		c7-4.4,11.4-6.2,15.9-0.9c9.7,11.4,22.9,36.1,7,53.7c-24.7,28.2-50.2,64.3-59.9,91.6c-9.7,29.1-3.5,49.3,13.2,51.1
		c21.1,1.8,48.4-33.5,65.2-72.2c1.8-4.4,6.2-6.2,7.9-0.9c2.6,6.2,4.4,20.3-1.8,34.3C603.3,466.9,573.4,490.7,544.3,488.9z
		 M368.1,312.8c-14.1,12.3-29.1,29.9-40.5,49.3c-22.9,40.5-29.9,88.1-16.7,100.4c14.1,12.3,46.7-7,73.1-54.6
		c8.8-15.9,15-29.9,18.5-43.2C381.4,353.3,368.1,332.1,368.1,312.8z M409.5,312.8c-1.8-17.6-14.1-13.2-15.9,1.8
		c-1.8,13.2,3.5,26.4,13.2,35.2C410.4,333.9,410.4,321.6,409.5,312.8z"/>
	<path d="M637.7,260.8c-5.3-7-1.8-11.4,6.2-10.6c15,0.9,29.9-0.9,44-1.8c16.7-29.1,30.8-53.7,40.5-65.2c4.4-7,9.7-6.2,12.3,0
		c6.2,15,6.2,32.6-7,59.9c20.3-0.9,28.2,8.8,32.6,15.9c3.5,6.2,1.8,9.7-6.2,9.7c-11.4-1.8-28.2,0-41.4,1.8
		c-20.3,35.2-51.1,86.3-70.5,131.2c-17.6,38.8-11.5,71.3,10.6,72.2c23.8,0.9,53.7-36.1,73.1-75.7c3.5-6.2,8.8-7,11.5,0
		c2.6,8.8,0,17.6-5.3,29.9c-7,15-41.4,61.7-83.7,59.9c-35.2-0.9-62.5-40.5-37.9-101.3C628,360.3,650,316.3,672.9,274
		C653.5,274,642.1,266.1,637.7,260.8z"/>
	<path d="M802.3,444c0,6.2-0.9,11.4-0.9,17.6c20.3-13.2,41.4-39.6,54.6-66.9c3.5-6.2,8.8-7,11.5,0.9c2.6,7.9-0.9,19.4-5.3,31.7
		c-5.3,12.3-31.7,44-63.4,54.6c-8.8,53.7-31.7,111.9-57.2,143.6c-17.6,22-30.8,24.7-46.7,10.6c-13.2-11.4-29.1-31.7-22.9-76.6
		c15-118,136.5-320.6,194.6-407.8c4.4-6.2,11.4-6.2,13.2,0.9c6.2,17.6,4.4,40.5-17.6,79.3c-22,36.1-58.1,96-86.3,151.5
		C795.3,389.4,803.2,408.8,802.3,444z M700.2,615.7c11.4,15,51.1-57.2,68.7-130.3c-15-1.8-25.5-8.8-32.6-21.1
		C707.2,534.7,687.9,599.9,700.2,615.7z M776.8,432.6c0.9-19.4-4.4-36.1-8.8-34.3c-5.3,1.8-9.7,29.9-10.6,42.3
		c-0.9,16.7,4.4,28.2,14.1,29.9C775,458.1,776.8,444.9,776.8,432.6z"/>
	<path d="M1079.8,472.2c24.7,1.8,61.7-36.1,81.9-75.7c3.5-7,8.8-7,11.5,0c2.6,8.8,0,19.4-5.3,32.6c-6.2,15-45.8,59.9-87.2,58.1
		c-35.2-1.8-55.5-25.5-43.2-82.8c1.8-7,3.5-14.1,5.3-20.3c-4.4,0.9-7.9,0.9-12.3,0.9c-6.2,0-12.3-0.9-18.5-1.8
		c-13.2,43.2-44,90.7-80.1,101.3c-19.4,6.2-46.7,6.2-66.9-22c-22.9-30.8-15-77.5,8.8-118.9c20.3-36.1,52-66.1,83.7-68.7
		c15.9-1.8,25.5,3.5,36.1,17.6c12.3,16.7,27.3,20.3,24.7,58.1c-0.9,6.2-0.9,12.3-2.6,20.3c4.4,0.9,9.7,0.9,15,0.9
		c5.3,0,11.4,0,16.7-0.9c25.5-80.1,77.5-159.4,124.2-207.9c7-7.9,15.9-9.7,22.9-2.6c14.1,14.1,17.6,33.5,11.4,57.2
		c-7.9,29.9-29.9,67.8-49.3,92.5c-22,27.3-44,49.3-71.3,62.5C1062.2,424.6,1056,470.4,1079.8,472.2z M945,313.7
		c-14.1,11.4-29.9,29.1-41.4,49.3c-22,39.6-29.9,89-15.9,100.4c14.1,12.3,46.7-7,73.1-54.6c7.9-15,13.2-28.2,17.6-40.5
		C958.2,354.2,945,333,945,313.7z M987.3,312.8c-2.6-16.7-13.2-14.1-15.9,1.8c-1.8,14.1,1.8,27.3,11.5,37.9
		C987.3,335.7,989.1,321.6,987.3,312.8z M1148.5,290.8c22.9-33.5,44-80.1,37.9-85.4c-6.2-3.5-45.8,53.7-81.9,120.7
		c-4.4,7.9-7.9,15.9-11.5,22.9C1117.7,332.1,1137,306.6,1148.5,290.8z"/>
	<path d="M1152.9,410.5c13.2-38.8,48.4-101.3,67.8-128.6c4.4-6.2,8.8-7.9,12.3-3.5c7.9,8.8,12.3,30.8-0.9,57.2
		c-11.4,22.9-33.5,59-44,85.4c-12.3,30.8-11.5,51.1,5.3,50.2c23.8-0.9,52.8-36.1,68.7-72.2c2.6-4.4,6.2-4.4,8.8,0
		c4.4,8.8,2.6,19.4-3.5,32.6c-15.9,32.6-49.3,54.6-78.4,54.6C1147.6,488,1137.9,453.7,1152.9,410.5z M1270.9,273.1
		c-7,7-22,6.2-29.9-7.9c-8.8-14.1-6.2-29.9,2.6-38.8c8.8-8.8,23.8-2.6,30.8,11.4C1281.5,251.1,1277.1,265.2,1270.9,273.1z"/>
	<path d="M1424.1,373.5c-11.4,44.9-44,98.6-83.7,111.9c-19.4,6.2-45.8,4.4-66.9-22.9c-22.9-30.8-15-76.6,8.8-118.9
		c20.3-36.1,52-66.9,83.7-68.7c16.7-0.9,25.5,3.5,36.1,17.6c12.3,16.7,28.2,20.3,24.7,58.1c-0.9,4.4-0.9,7.9-0.9,12.3
		c3.5,0,6.2-0.9,10.6-0.9c3.5,0,3.5,2.6,1.8,5.3C1434.7,370,1429.4,372.7,1424.1,373.5z M1379.2,360.3
		c-11.4-8.8-23.8-27.3-24.7-46.7c-14.1,12.3-29.9,29.9-40.5,49.3c-22,40.5-29.9,89-16.7,100.4c15,12.3,46.7-6.2,73.1-54.6
		c7.9-15,14.1-29.9,18.5-42.3C1385.4,364.7,1382.8,363,1379.2,360.3z M1397.7,312.8c-2.6-16.7-13.2-14.1-15.9,1.8
		c-2.6,14.1,3.5,29.9,11.5,37.9C1397.7,335.7,1398.6,322.5,1397.7,312.8z"/>
</g>
</svg>
