<?xml version="1.0" encoding="utf-8"?>
<!-- Generator: Adobe Illustrator 19.1.0, SVG Export Plug-In . SVG Version: 6.00 Build 0)  -->
<svg version="1.1" id="Layer_1" xmlns="http://www.w3.org/2000/svg" xmlns:xlink="http://www.w3.org/1999/xlink" x="0px" y="0px"
	 viewBox="-467 195 504 511" style="enable-background:new -467 195 504 511;" xml:space="preserve">
<style type="text/css">
	.st0{fill:#708CA0;}
	.st1{fill:#FFFFFF;}
</style>
<g id="JwHzvE_1_">
	<g>
		<path d="M-249.2,206.4c38.3,0,76.6,0.1,115,0c28.1-0.1,56.3-1,84.4-0.9c5.2,0,10.4,2.7,15.5,4.3c2.4,0.8,4.5,2.4,6.8,3
			c8.9,2.2,16.4,7.6,22.1,13.8c9.1,10.1,19.5,18.8,28.6,28.7c5.4,5.8,10.5,12.5,9.2,21.7c-0.4,2.7,0.7,5.6,1,8.4
			c1,8.3,2.6,16.5,2.7,24.8c0.4,34.2,0.5,68.3,0.4,102.5c-0.3,60.6-0.8,121.3-1.4,181.9c-0.1,6.1-1.7,12.2-2.1,18.3
			c-0.6,9.1-0.3,18.3-1.3,27.4c-1.1,9.8-0.9,19.8-4.9,29.3c-4.2,9.9-11.7,14.7-21.5,16.5c-14.1,2.6-28.2,4.7-42.3,7.1
			c-0.5,0.1-1,0.1-1.5,0.1c-24.1,0.8-48.2,2-72.3,2.4c-24.7,0.4-49.3,0.3-74,0c-33-0.3-65.9-1.3-98.9-1.2c-14.3,0-28.7,2.5-43,2.9
			c-15.5,0.4-31,0-46.4-0.9c-20.1-1.2-39.1-7.6-58-14.3c-8.4-3-15.7-8-21.3-15.1c-0.6-0.8-1.4-1.6-1.6-2.5c-2.4-13-9.2-24.5-9-38.6
			c0.5-57.5-0.5-114.9-0.9-172.4c5.9-44.6,1-89.5,3.4-134.2c1.1-19.7,2.1-39.4,2.9-59.2c0.6-15.4,5.6-29.8,18.6-39.8
			c2.8-2.2,6.2-4.2,9.6-4.9c24-4.8,48.2-8.9,72.8-8.9c35.8-0.1,71.7,0,107.5,0C-249.2,206.5-249.2,206.4-249.2,206.4z M-256.5,216.7
			c-32.2,0-64.3,0.3-96.5-0.1c-23.7-0.3-47.1,1.4-70.4,6.1c-10.8,2.3-17.4,8.5-20.5,18.1c-2.5,8-3.5,16.5-4,24.9
			c-0.8,12.1-0.3,24.3-0.8,36.5c-0.5,11.3-2.1,22.6-2.3,33.8c-0.4,20.7,0.1,41.3-0.2,62c-0.1,14.1-0.7,28.2-1.3,42.4
			c-0.2,5.6-1.5,11.2-1.6,16.9c-0.1,52.3-0.3,104.6,0.1,157c0.1,11.4-3.9,23.3,3.2,34.5c3.9,6.1,6.9,13.5,14.3,14.7
			c11.9,2,24.1,2.1,36.2,3c5.5,0.4,10.9,1,16.4,1.3c12.1,0.7,24.2,1.3,36.2,1.7c7.3,0.3,14.6,0.4,21.9,0.3c13.6-0.2,27.3-0.9,40.9-1
			c17.9-0.2,35.8-0.1,53.7-0.1c8.6,0,17.3-0.3,25.9-0.3c17,0,34.1,1.4,50.9,0c35.6-2.9,71.1-5.3,106.8-2.7
			c8.7,0.6,17.1-0.7,25.6-2.5c15.9-3.4,25-13.1,28.1-28.1c1.5-7.3-0.2-15.2-0.2-22.8c0.1-7.6,0.4-15.2,1.1-22.8
			c0.9-10.1,3.3-20.1,3.3-30.1c0.3-60.2,0.2-120.3,0.1-180.5c0-3.5-0.2-7-0.3-10.5c-1.2-22.9-2.5-45.8-3.6-68.7
			c-0.5-10.3-0.7-20.6-1.4-30.9c-1-14-8.9-25.1-17.6-35c-5.2-6-12.8-10.4-21.1-12.5c-1.7-0.4-3.6-1.2-4.9-2.3
			c-3.9-3.2-8.3-3.9-13.1-3.8c-31.5,0.6-62.9,1.2-94.4,1.5C-182.8,216.9-219.7,216.7-256.5,216.7z M-413.8,675.1
			c-0.1,0.6-0.1,1.1-0.2,1.7c17.8,7.3,36.5,10.4,55.5,10.6c19.2,0.2,38.5-1.3,57.7-2.2c1.3-0.1,2.5-0.6,3.8-0.9
			c2.4-0.4,4.9-1.2,7.3-1.1c37.5,0.7,74.9,1.8,112.4,2.3c31.5,0.4,63,0.5,94.5,0.1c14.4-0.2,28.9-1.6,43.3-2.5
			c0.8-0.1,1.6-0.4,2.4-0.5c12.8-2,25.6-4,38.4-5.9c6.2-0.9,11.6-3.4,13.5-9.6c3-9.7,6.1-19.5,7.4-29.5c1.9-14.6,2.8-29.4,3-44.2
			c0.6-48.6,0.8-97.3,1.1-145.9c0.1-14.1,0-28.3,0-42.4c0-32,0-64,0-96c0-2.8-0.2-5.7-0.6-8.5c-1.1-9.2-1.8-18.6-3.7-27.7
			c-0.8-4.1-4-7.7-6.2-11.5c-0.4,0.2-0.8,0.4-1.1,0.7c0.7,6.1,1.6,12.2,1.9,18.3c0.7,10.9,1,21.9,1.5,32.8
			c0.9,21.6,2.3,43.2,2.5,64.8c0.3,61.3,0.2,122.6,0,183.9c0,8.3-0.6,16.8-2.6,24.7c-3.3,13.2-3.5,26.4-1.2,39.6
			c3.2,18.3-5.4,29.8-20.9,39.6c-9.2,5.8-21.7,8.1-32.8,8.7c-22.9,1.1-46-0.1-69-0.1c-23.2,0-46.3,0.1-69.5,0.7
			c-14.6,0.3-29.2,2-43.8,2.2c-23.8,0.3-47.5,0.5-71,4.8c-0.6,0.1-1.3,0.1-2,0c-20.3-0.8-40.5-1.4-60.8-2.4
			c-11.8-0.6-23.5-1.8-35.2-2.7C-396.7,676.6-405.3,675.8-413.8,675.1z"/>
		<path class="st0" d="M-256.5,216.7c36.8,0,73.7,0.2,110.5-0.1c31.5-0.2,63-0.9,94.4-1.5c4.8-0.1,9.2,0.7,13.1,3.8
			c1.4,1.1,3.2,1.8,4.9,2.3c8.3,2.1,15.9,6.6,21.1,12.5c8.6,9.9,16.6,21,17.6,35C5.8,279,6,289.3,6.5,299.6
			c1.2,22.9,2.4,45.8,3.6,68.7c0.2,3.5,0.3,7,0.3,10.5c0,60.2,0.2,120.3-0.1,180.5c-0.1,10-2.4,20-3.3,30.1
			c-0.7,7.6-1,15.2-1.1,22.8c-0.1,7.6,1.7,15.5,0.2,22.8C3,650-6.1,659.7-22,663.1c-8.6,1.8-17,3.2-25.6,2.5
			c-35.7-2.6-71.2-0.2-106.8,2.7c-16.9,1.4-33.9,0-50.9,0c-8.6,0-17.2,0.3-25.9,0.3c-17.9,0.1-35.8-0.1-53.7,0.1
			c-13.6,0.2-27.3,0.8-40.9,1c-7.3,0.1-14.6,0-21.9-0.3c-12.1-0.5-24.2-1.1-36.2-1.7c-5.5-0.3-10.9-0.9-16.4-1.3
			c-12.1-0.9-24.3-1.1-36.2-3c-7.4-1.2-10.4-8.6-14.3-14.7c-7.1-11.2-3.1-23-3.2-34.5c-0.4-52.3-0.2-104.6-0.1-157
			c0-5.6,1.3-11.2,1.6-16.9c0.6-14.1,1.2-28.2,1.3-42.4c0.2-20.7-0.2-41.3,0.2-62c0.2-11.3,1.8-22.6,2.3-33.8
			c0.5-12.1,0-24.3,0.8-36.5c0.5-8.4,1.5-17,4-24.9c3-9.6,9.6-15.9,20.5-18.1c23.3-4.7,46.7-6.4,70.4-6.1
			C-320.8,217-288.6,216.7-256.5,216.7z M-207,417.5c23.8,0,46.2,0,68.7,0c8.1,0,9.2-1.2,9.2-9.3c-0.1-17.1-0.3-34.3-0.1-51.4
			c0.1-7.6-1.1-9.5-8.6-10.2c-1.3-0.1-2.7-0.1-4-0.1c-20.6,0.4-41.3,0.9-61.9,1.2c-1.6,0-4.4-1.6-4.5-2.8
			c-0.6-5.1-0.7-10.2-0.6-15.3c0.3-15.3,1-30.6,1.3-45.9c0.1-4.7-2.6-6.4-7.2-5.6c-2.1,0.4-4.3,0.7-6.4,0.7c-10,0-19.9-0.3-29.9,0
			c-2.4,0.1-6.2,1.8-6.9,3.6c-1.5,4.4-1.8,9.3-2.1,14c-0.4,6.4,0.7,13.1-0.8,19.2c-2.6,10.5-9.2,19-16.9,26.6c-2.3,2.3-5,5-8,5.7
			c-10.9,2.6-21.2,8.2-33.1,6.4c-4.3-0.6-7.9,1.7-8,6.4c-0.3,18.5-0.4,37-0.4,55.5c0,3.1,1.7,5.3,5.4,5.2c8.3-0.2,16.5-0.3,24.8-0.7
			c4.6-0.2,5.9,1.5,5.9,6c-0.5,29.8-0.6,59.6-0.9,89.5c0,1.2-0.2,2.3-0.3,3.5c-0.5,15.9-0.9,31.8-1.3,47.8c0,1.7,0.8,3.5,1.4,5.3
			c2.9,9.2,11,14.5,16.2,21.9c6.2,8.9,14.1,14.9,24.6,18c8,2.4,15.7,6.1,23.4,9.6c13.3,6.1,27.2,6.1,41.3,5.6
			c4.2-0.1,8.3-0.1,12.5,0c15.9,0.3,31-3.5,45.3-10c1.8-0.8,3.3-3.9,3.5-6.1c0.4-3.9-0.7-7.8-0.6-11.7c0.2-7,1.2-13.9,1.2-20.9
			c0-12.5-0.5-25-0.9-37.5c-0.2-7.4-5.1-10.2-11.9-7.2c-5.2,2.3-10.4,4.4-15.8,6.1c-12.1,3.8-24,0.7-35.8-2.1
			c-10.5-2.5-19.3-14.1-19.1-25c0.2-8.3,1.4-16.5,1.5-24.8c0.2-16.4-0.2-32.9-0.3-49.3C-207,432.2-207,425.1-207,417.5z"/>
		<path class="st1" d="M-413.8,675.1c8.6,0.7,17.1,1.5,25.7,2.2c11.7,1,23.5,2.2,35.2,2.7c20.3,1,40.5,1.6,60.8,2.4
			c0.7,0,1.3,0.1,2,0c23.5-4.2,47.2-4.5,71-4.8c14.6-0.2,29.2-1.8,43.8-2.2c23.1-0.5,46.3-0.7,69.5-0.7c23,0,46,1.2,69,0.1
			c11.2-0.6,23.7-2.9,32.8-8.7c15.5-9.8,24.1-21.3,20.9-39.6c-2.3-13.2-2.2-26.3,1.2-39.6c2-8,2.5-16.5,2.6-24.7
			c0.2-61.3,0.3-122.6,0-183.9c-0.1-21.6-1.6-43.2-2.5-64.8c-0.4-11-0.8-21.9-1.5-32.8c-0.4-6.1-1.3-12.2-1.9-18.3
			c0.4-0.2,0.8-0.4,1.1-0.7c2.1,3.8,5.3,7.4,6.2,11.5c1.9,9.1,2.6,18.4,3.7,27.7c0.3,2.8,0.6,5.6,0.6,8.5c0,32,0,64,0,96
			c0,14.1,0.1,28.3,0,42.4c-0.3,48.6-0.5,97.3-1.1,145.9c-0.2,14.8-1.1,29.6-3,44.2c-1.3,10-4.4,19.8-7.4,29.5
			C13,673.6,7.6,676,1.4,677c-12.8,1.9-25.6,3.9-38.4,5.9c-0.8,0.1-1.6,0.5-2.4,0.5c-14.4,0.9-28.9,2.3-43.3,2.5
			c-31.5,0.3-63,0.3-94.5-0.1c-37.5-0.5-74.9-1.6-112.4-2.3c-2.4,0-4.9,0.7-7.3,1.1c-1.3,0.2-2.6,0.8-3.8,0.9
			c-19.2,0.8-38.5,2.4-57.7,2.2c-19-0.2-37.7-3.4-55.5-10.6C-413.9,676.2-413.9,675.7-413.8,675.1z"/>
		<path d="M-207,417.5c0,7.6,0,14.7,0,21.8c0.1,16.4,0.4,32.9,0.3,49.3c-0.1,8.3-1.3,16.5-1.5,24.8c-0.2,10.9,8.6,22.4,19.1,25
			c11.8,2.8,23.7,5.9,35.8,2.1c5.4-1.7,10.6-3.8,15.8-6.1c6.8-3,11.7-0.2,11.9,7.2c0.4,12.5,0.9,25,0.9,37.5c0,7-1,13.9-1.2,20.9
			c-0.1,3.9,1,7.9,0.6,11.7c-0.2,2.2-1.7,5.3-3.5,6.1c-14.4,6.5-29.4,10.2-45.3,10c-4.2-0.1-8.3-0.1-12.5,0
			c-14.1,0.4-28.1,0.5-41.3-5.6c-7.6-3.5-15.3-7.2-23.4-9.6c-10.5-3.2-18.4-9.1-24.6-18c-5.2-7.5-13.3-12.7-16.2-21.9
			c-0.5-1.7-1.4-3.5-1.4-5.3c0.3-15.9,0.8-31.8,1.3-47.8c0-1.2,0.3-2.3,0.3-3.5c0.3-29.8,0.5-59.6,0.9-89.5c0.1-4.6-1.3-6.3-5.9-6
			c-8.3,0.4-16.5,0.4-24.8,0.7c-3.7,0.1-5.4-2.1-5.4-5.2c0-18.5,0-37,0.4-55.5c0.1-4.6,3.7-7,8-6.4c11.8,1.7,22.1-3.8,33.1-6.4
			c3-0.7,5.7-3.4,8-5.7c7.6-7.5,14.3-16.1,16.9-26.6c1.5-6.1,0.4-12.8,0.8-19.2c0.3-4.7,0.6-9.6,2.1-14c0.6-1.8,4.4-3.5,6.9-3.6
			c9.9-0.3,19.9,0,29.9,0c2.1,0,4.3-0.3,6.4-0.7c4.6-0.8,7.3,1,7.2,5.6c-0.3,15.3-0.9,30.6-1.3,45.9c-0.1,5.1,0,10.3,0.6,15.3
			c0.1,1.1,2.9,2.8,4.5,2.8c20.6-0.2,41.3-0.7,61.9-1.2c1.3,0,2.7-0.1,4,0.1c7.6,0.7,8.7,2.5,8.6,10.2c-0.2,17.1,0,34.3,0.1,51.4
			c0,8.1-1.1,9.3-9.2,9.3C-160.7,417.5-183.2,417.5-207,417.5z M-216.7,287.6c-10.1,0-19.2,0.1-28.3-0.1c-4.4-0.1-5.6,1.5-5.6,5.9
			c0,7.8,0.5,15.9-1.5,23.3c-3.3,12.3-10.4,23-19.7,31.9c-3.3,3.2-7.1,6.5-11.3,8c-10.9,3.7-22.2,6.4-34.5,9.8c0,13.4,0,28.4,0,43.8
			c2.5,0.1,4.3,0.3,6.1,0.3c8.2,0.2,16.3,0.4,24.5,0.7c4.8,0.2,6.3,2.2,6.2,7.1c-0.9,36.4-1.9,72.9-2.6,109.3
			c-0.2,11.8-0.6,23.7,0.3,35.4c0.4,4.9,2.9,10.1,5.8,14.3c3.6,5.3,8.6,9.7,12.9,14.6c1.9,2.1,3.2,5.2,5.5,6.4
			c8.6,4.4,17.1,9.2,26.3,12c14.6,4.6,29.4,9.6,45.3,7.5c5.1-0.7,10.4,0.4,15.5-0.2c10.2-1.3,20.3-3.2,30.3-5
			c4.4-0.8,6.9-3.3,6.3-8.4c-0.3-3.3,0.5-6.6,0.5-10c0.1-16.1,0-32.1,0-49.2c-6.2,2.2-10.8,4.1-15.6,5.4
			c-11.7,3.2-23.4,1.9-35.1-0.6c-5-1.1-10.9-1.3-14.7-4.2c-8.9-6.7-15.7-15.8-17.1-27.2c-1-8-0.2-16.3,0.1-24.5
			c0.5-14.9,1.4-29.8,1.7-44.7c0.2-11.2-0.2-22.3-0.2-33.5c0-7,1.6-8.5,8.6-8.5c20.7,0,41.3,0,62,0c1.8,0,3.6,0,5.1,0
			c0.5-0.8,0.8-1,0.8-1.3c0.7-15.5,1.4-30.9,1.8-46.4c0-0.9-2.2-2.7-3.4-2.7c-12.7,0-25.3,0.4-38,0.6c-12,0.2-24,0.3-36,0.2
			c-4.6,0-6.3-3.3-4.9-7.5c0.9-2.6,1.1-5.4,1.2-8.2c0.2-3.8-0.2-7.6-0.1-11.4C-218,316.7-217.4,302.7-216.7,287.6z"/>
		<path class="st1" d="M-216.7,287.6c-0.6,15.2-1.3,29.1-1.8,43c-0.1,3.8,0.2,7.6,0.1,11.4c-0.1,2.7-0.3,5.6-1.2,8.2
			c-1.4,4.2,0.3,7.5,4.9,7.5c12,0.1,24-0.1,36-0.2c12.7-0.2,25.3-0.6,38-0.6c1.2,0,3.5,1.8,3.4,2.7c-0.4,15.5-1.1,30.9-1.8,46.4
			c0,0.3-0.3,0.6-0.8,1.3c-1.5,0-3.3,0-5.1,0c-20.7,0-41.3,0-62,0c-7,0-8.6,1.5-8.6,8.5c0,11.2,0.4,22.3,0.2,33.5
			c-0.3,14.9-1.2,29.8-1.7,44.7c-0.3,8.2-1.1,16.4-0.1,24.5c1.5,11.4,8.2,20.5,17.1,27.2c3.8,2.9,9.7,3.1,14.7,4.2
			c11.6,2.5,23.4,3.7,35.1,0.6c4.7-1.3,9.3-3.2,15.6-5.4c0,17.1,0,33.1,0,49.2c0,3.3-0.9,6.7-0.5,10c0.5,5.1-1.9,7.5-6.3,8.4
			c-10.1,1.8-20.2,3.7-30.3,5c-5.1,0.7-10.4-0.4-15.5,0.2c-15.9,2-30.6-2.9-45.3-7.5c-9.1-2.8-17.7-7.6-26.3-12
			c-2.3-1.2-3.6-4.3-5.5-6.4c-4.3-4.9-9.3-9.3-12.9-14.6c-2.8-4.2-5.4-9.4-5.8-14.3c-0.8-11.8-0.5-23.6-0.3-35.4
			c0.8-36.4,1.7-72.9,2.6-109.3c0.1-4.9-1.4-6.9-6.2-7.1c-8.2-0.4-16.3-0.5-24.5-0.7c-1.8-0.1-3.6-0.2-6.1-0.3c0-15.4,0-30.4,0-43.8
			c12.2-3.4,23.5-6.1,34.5-9.8c4.2-1.4,8-4.8,11.3-8c9.3-8.9,16.4-19.5,19.7-31.9c2-7.4,1.5-15.5,1.5-23.3c0-4.3,1.2-6,5.6-5.9
			C-236,287.7-226.9,287.6-216.7,287.6z"/>
	</g>
</g>
</svg>
