<?xml version="1.0" encoding="utf-8"?>
<!-- Generator: Adobe Illustrator 19.1.0, SVG Export Plug-In . SVG Version: 6.00 Build 0)  -->
<svg version="1.1" id="Layer_1" xmlns="http://www.w3.org/2000/svg" xmlns:xlink="http://www.w3.org/1999/xlink" x="0px" y="0px"
	 viewBox="-467 195 504 511" style="enable-background:new -467 195 504 511;" xml:space="preserve">
<style type="text/css">
	.st0{fill:#A3DDEF;}
	.st1{fill:#FFFFFF;}
</style>
<path d="M-229.1,200.3c48.7,0,97.3-0.2,146,0.2c8,0.1,16,2.6,24,3.6c5.3,0.6,10.4,1.7,16.1-0.2c6.6-2.3,13.4-0.2,19.8,2.9
	c4,2,8.4,3.2,12.3,5.4c4.2,2.5,8.2,5.5,11.9,8.8c4.5,3.9,8.3,8.8,12.9,12.5c9,7.1,13,16.5,14.3,27.5c0.5,4.2,1.5,8.3,2.3,12.5
	c0.6,3.4,1.8,6.8,1.8,10.2c0.7,36.8,1.1,73.5,1.8,110.3c0.2,10.8,1.3,21.6,1.2,32.4c-0.5,38.1-1.4,76.2-2.2,114.2
	c-0.5,24.3-0.9,48.5-1.6,72.8c-0.5,16.6-1.1,33.2-2.6,49.7c-0.5,5-3.2,10.5-6.5,14.3c-5.7,6.6-12.6,12.3-21.7,14.2
	c-13.9,2.9-27.8,4.8-42.1,4.8c-10.9,0-21.9,1.9-32.8,2.6c-9.8,0.6-19.6,1.1-29.5,1.2c-43.2,0.2-86.3,0.1-129.5,0.3
	c-23.7,0.1-47.3,0.8-71,1.3c-31.5,0.6-62.9,0.5-93.9-6.3c-12.6-2.8-23.9-7.4-33-16.9c-2.1-2.2-4.9-4-7.6-5.4
	c-8.6-4.5-15-9.9-16.1-20.8c-1.3-12.7-4.8-25.1-7.1-37.7c-0.7-3.9-1.2-7.9-1.2-11.9c-0.1-61-0.2-122,0.1-183
	c-0.2-11.7,2-23.3,3.1-34.8c1-10.7,1.5-21.5,2.6-32.3c3.1-31.8,1.9-63.8,2.5-95.7c0.1-4.7,1.9-9.4,3-14.1c0.9-3.7,2.2-7.3,3.2-10.9
	c3.3-11.3,11.9-17.4,21.9-21.7c6.4-2.7,13.3-4,20.1-5.7c14.6-3.6,29.4-4.6,44.5-4.5C-317.8,200.5-273.4,200.3-229.1,200.3z
	 M-236.3,210.4c-42,2.1-94.6-3.3-147,2.3c-10.7,1.1-21.6,1.9-32.1,4.2c-9.9,2.2-18.9,6.9-23.2,17.1c-2,4.9-3,10.1-4.4,15.3
	c-0.8,2.9-1.9,5.8-1.9,8.7c0.1,34.9,0.1,69.8-2.8,104.6c-0.7,8.1-1.6,16.2-2.4,24.3c-1.2,11.7-3.3,23.4-3.3,35.1
	c-0.3,59.8-0.2,119.6-0.1,179.5c0,3.1,0.3,6.3,0.8,9.4c2.6,14.4,5.4,28.8,8.2,43.1c0.2,1.2,0.8,2.9,1.7,3.4
	c8.6,4.6,16.4,10.6,27,10.5c32.5-0.1,64.8,0.4,97.3,2.7c36.7,2.6,73.6,1.3,110.4,1.6c1,0,2-0.2,3-0.2c19.1-1.2,38.2-3.2,57.3-3.6
	c35-0.6,70-0.2,105-0.1c2,0,4.1-0.1,5.9,0.5c7.3,2.5,13.7-0.1,20.1-3.1c2.1-1,4.3-1.9,6.1-3.4c2.4-1.9,5.5-3.8,6.4-6.4
	c1.8-5,1.9-10.6,3.2-15.8C6,612.5,7.6,584.3,8.6,556c0.9-25.6,1.2-51.3,1.3-76.9c0.2-59.2,0.4-118.3,0.1-177.5
	c-0.1-11-2.7-22-4.3-33c-0.7-4.9-2.2-9.7-2.9-14.7c-1.5-10.9-4.5-20.5-15.2-26.3c-12.8-6.9-26.5-10.7-40.4-14
	c-6.9-1.6-13.9-3.1-21-3.7c-6.9-0.5-14,0.4-21,0.4C-138.4,210.4-182.1,210.4-236.3,210.4z M14.9,249.3c-0.8,0.2-1.6,0.3-2.4,0.5
	c0.7,4.2,1.1,8.5,2.2,12.6c3.4,12.7,5.8,25.5,5.7,38.9c-0.6,81.5-0.9,162.9-1.5,244.4c-0.2,30.7-2,61.2-8.7,91.3
	c-1.3,5.8-2.2,11.8-3.7,17.5c-2.7,10.3-11.1,15.3-19.6,20c-6.7,3.7-13.7,6.1-21.5,5.4c-6.9-0.5-13.9-1.3-20.8-1.3
	c-30.8-0.1-61.7-0.1-92.5,0c-4.8,0-9.7,0.2-14.5,0.4c-21.1,1.2-42.2,3.3-63.3,3.4c-33.3,0.2-66.6-0.8-99.9-1.7
	c-13.1-0.3-26.2-1.8-39.3-2.3c-11.8-0.5-23.6-0.3-35.5-0.4c-4.5,0-9.1,0-13.6,0c4.3,2.9,8.5,6,13,6.7c18.5,3,36.6,7.6,55.7,7.1
	c44.8-1.2,89.6-1.1,134.4-1.6c47.5-0.5,95-1,142.4-1.8c13.5-0.2,27-1,40.3-2.6c14-1.7,29.1-1,40-12.5c3.1-3.3,6.4-7.9,6.8-12.2
	c1.5-19.7,2.2-39.5,2.9-59.2c0.7-21.1,1.3-42.2,1.4-63.3c0.1-28.9,0.6-57.8,2.2-86.7c1.1-18.4-0.8-36.9-1.1-55.3
	c-0.6-36.6-1-73.2-1.6-109.8c-0.1-3.3-0.2-7-1.7-9.7c-2.9-5-2.3-10.2-2.8-15.5C17.3,257.3,15.9,253.3,14.9,249.3z"/>
<path class="st0" d="M-236.3,210.4c54.2,0,97.9,0,141.5,0c7,0,14-1,21-0.4c7.1,0.5,14.1,2,21,3.7c13.9,3.3,27.7,7.1,40.4,14
	c10.7,5.8,13.8,15.4,15.2,26.3c0.7,4.9,2.2,9.7,2.9,14.7c1.6,11,4.2,22,4.3,33c0.4,59.2,0.2,118.3-0.1,177.5
	c-0.1,25.6-0.4,51.3-1.3,76.9c-1,28.3-2.6,56.5-9.7,84.1c-1.3,5.2-1.5,10.8-3.2,15.8c-0.9,2.6-4,4.5-6.4,6.4c-1.8,1.4-4,2.3-6.1,3.4
	c-6.4,3.1-12.8,5.7-20.1,3.1c-1.8-0.6-3.9-0.5-5.9-0.5c-35,0-70-0.4-105,0.1c-19.1,0.3-38.2,2.3-57.3,3.6c-1,0.1-2,0.2-3,0.2
	c-36.8-0.4-73.8,1-110.4-1.6c-32.5-2.3-64.9-2.8-97.3-2.7c-10.6,0-18.5-5.9-27-10.5c-0.9-0.5-1.5-2.2-1.7-3.4
	c-2.8-14.4-5.5-28.7-8.2-43.1c-0.6-3.1-0.8-6.3-0.8-9.4c0-59.8-0.2-119.6,0.1-179.5c0.1-11.7,2.2-23.4,3.3-35.1
	c0.8-8.1,1.7-16.2,2.4-24.3c2.9-34.8,2.9-69.7,2.8-104.6c0-2.9,1.2-5.8,1.9-8.7c1.4-5.1,2.4-10.4,4.4-15.3
	c4.2-10.2,13.3-14.9,23.2-17.1c10.5-2.3,21.3-3.1,32.1-4.2C-330.8,207.1-278.2,212.5-236.3,210.4z M-322.5,533.6
	c0,0.5-0.1,0.9-0.1,1.4c-11,4.5-22,9.2-33.1,13.5c-4.7,1.8-9.8,3.5-14.8,3.8c-13.1,0.8-26.3,0.8-39.4,1.2c-1,0-2,0-3,0.3
	c-4.2,1.2-5.6,5.4-2.5,8.5c3.7,3.5,7.7,6.9,11.9,9.8c8.4,5.6,17.4,10.4,25.7,16.3c6.9,4.9,14.2,7.6,22.4,8.9
	c18.1,2.9,35.8,8.3,54.3,6.7c8.6-0.7,17.1-2.2,25.5-3.7c19.2-3.5,38.9-5,57.1-13.1c12.3-5.5,24.7-10.6,37.1-16
	c3.8-1.7,7.6-3.4,11-5.7c18.1-12.4,33.6-27.7,47.5-44.6c3.5-4.2,7.2-8.3,10.9-12.4c7.7-8.6,15.1-17.4,19.4-28.3
	c7.6-19.3,14.9-38.8,22.5-58.1c2.8-7.1,3.8-14.4,3.5-22c-0.3-8.3-0.4-16.7-0.4-25c0-1.8,0.6-4.1,1.8-5.2c4.7-4.4,10.3-7.9,14.4-12.6
	c5.8-6.7,11.1-14.1,15.8-21.6c3.2-5.1,5.2-11.1,7.4-16.7c0.6-1.5,1.1-4,0.3-5c-0.8-1.1-3.4-1.8-4.8-1.4c-4.9,1.4-9.7,3.3-14.5,5.3
	c-3.9,1.6-7.6,3.6-12.2,5.9c5.2-7.1,10-13.1,14.1-19.4c1.8-2.8,2.9-6.4,3.3-9.7c0.5-3.9-2.2-5.8-6-5.6c-1.6,0.1-3.2,0.7-4.7,1.4
	c-10.8,4.8-21.5,9.7-32.4,14.3c-1.8,0.7-4.4,0.8-6.1,0c-7-3.3-14.5-6.3-20.6-10.9c-12.2-9.2-25.7-8.7-39.6-7.4
	c-19.1,1.8-35.7,10.1-51.9,19.5c-1.8,1.1-3.4,2.7-4.7,4.4c-3.9,5-8,9.9-11.2,15.3c-4.4,7.4-8.1,15.2-11.9,23
	c-0.7,1.4-0.5,3.3-0.5,4.9c0,7.4,0,14.9,0,23c-8.6-1-18.4-2.1-28.1-3.4c-3.1-0.4-6.1-1.8-9.2-2.4c-19.5-3.4-37-11.2-53.6-21.9
	c-17.3-11.2-35.2-21.5-52.8-32.3c-1.3-0.8-2.6-1.6-3.5-2.8c-3.2-3.8-6.2-7.7-9.4-11.6c-3.1-3.8-6-3.6-7,1
	c-1.4,5.9-2.6,12.1-2.7,18.2c-0.2,7.6,0.4,15.3,1.2,22.9c0.7,6.4,2.2,12.7,3.4,19c0.6,3.1,1.4,6.1,2.3,9.2c1.2,3.9,2.4,7.8,4,11.6
	c2.5,6,5.4,11.9,8.7,19.1c-4.3-1.2-7.3-2.1-10.3-2.8c-7.3-1.8-11.9,2.8-10,10.1c1.1,4,2.1,8.4,4.5,11.6
	c11.5,15.4,19.7,33.3,34.4,46.3c0.3,0.3,0.3,0.9,0.6,1.6c-1.4-0.1-2.5-0.1-3.6-0.3c-4.6-0.8-9.3-1.2-12.2,3.2
	c-3.1,4.6-1.7,9.3,0.8,13.7c0.7,1.3,1.7,2.5,2.5,3.7c4.8,7.7,9.6,15.5,14.5,23.2c0.9,1.4,2,2.7,3.2,3.7
	C-344,524-335,531.9-322.5,533.6z"/>
<path class="st1" d="M14.9,249.3c1,4,2.4,8.1,2.8,12.2c0.5,5.2-0.1,10.5,2.8,15.5c1.6,2.7,1.7,6.4,1.7,9.7
	c0.6,36.6,1,73.2,1.6,109.8c0.3,18.4,2.2,37,1.1,55.3c-1.7,28.9-2.1,57.8-2.2,86.7c-0.1,21.1-0.7,42.2-1.4,63.3
	c-0.6,19.8-1.3,39.5-2.9,59.2c-0.3,4.2-3.6,8.9-6.8,12.2c-10.8,11.5-26,10.8-40,12.5c-13.3,1.6-26.9,2.4-40.3,2.6
	c-47.5,0.8-95,1.2-142.4,1.8c-44.8,0.5-89.6,0.4-134.4,1.6c-19.1,0.5-37.2-4.1-55.7-7.1c-4.5-0.7-8.7-3.8-13-6.7c4.5,0,9.1,0,13.6,0
	c11.8,0.1,23.7-0.1,35.5,0.4c13.1,0.5,26.2,2,39.3,2.3c33.3,0.8,66.6,1.8,99.9,1.7c21.1-0.1,42.2-2.2,63.3-3.4
	c4.8-0.3,9.7-0.4,14.5-0.4c30.8,0,61.7-0.1,92.5,0c6.9,0,13.9,0.8,20.8,1.3c7.8,0.6,14.8-1.8,21.5-5.4c8.6-4.7,16.9-9.7,19.6-20
	c1.5-5.8,2.4-11.7,3.7-17.5c6.7-30.1,8.5-60.6,8.7-91.3c0.6-81.5,0.9-162.9,1.5-244.4c0.1-13.3-2.3-26.1-5.7-38.9
	c-1.1-4.1-1.5-8.4-2.2-12.6C13.3,249.6,14.1,249.4,14.9,249.3z"/>
<path d="M-322.5,533.6c-12.5-1.7-21.4-9.6-30.7-16.9c-1.3-1-2.4-2.3-3.2-3.7c-4.9-7.7-9.7-15.5-14.5-23.2c-0.8-1.3-1.8-2.4-2.5-3.7
	c-2.5-4.4-3.8-9.1-0.8-13.7c3-4.4,7.6-4,12.2-3.2c1.1,0.2,2.2,0.2,3.6,0.3c-0.3-0.8-0.3-1.3-0.6-1.6c-14.6-13.1-22.8-30.9-34.4-46.3
	c-2.4-3.2-3.4-7.6-4.5-11.6c-2-7.3,2.6-11.8,10-10.1c3,0.7,6,1.6,10.3,2.8c-3.3-7.2-6.2-13.1-8.7-19.1c-1.6-3.8-2.8-7.7-4-11.6
	c-0.9-3-1.7-6.1-2.3-9.2c-1.3-6.3-2.7-12.6-3.4-19c-0.8-7.6-1.4-15.3-1.2-22.9c0.2-6.1,1.3-12.2,2.7-18.2c1.1-4.6,3.9-4.8,7-1
	c3.1,3.8,6.2,7.8,9.4,11.6c0.9,1.1,2.2,2,3.5,2.8c17.6,10.7,35.5,21,52.8,32.3c16.6,10.7,34.1,18.5,53.6,21.9c3.1,0.5,6.1,2,9.2,2.4
	c9.7,1.3,19.5,2.4,28.1,3.4c0-8.2,0-15.6,0-23c0-1.7-0.2-3.5,0.5-4.9c3.8-7.7,7.5-15.6,11.9-23c3.2-5.4,7.3-10.3,11.2-15.3
	c1.3-1.7,2.9-3.3,4.7-4.4c16.2-9.4,32.8-17.7,51.9-19.5c13.9-1.3,27.4-1.7,39.6,7.4c6.2,4.6,13.6,7.6,20.6,10.9
	c1.7,0.8,4.4,0.8,6.1,0c10.9-4.6,21.6-9.6,32.4-14.3c1.5-0.7,3.1-1.3,4.7-1.4c3.7-0.1,6.4,1.8,6,5.6c-0.4,3.3-1.5,6.9-3.3,9.7
	c-4.1,6.4-8.9,12.3-14.1,19.4c4.6-2.2,8.3-4.2,12.2-5.9c4.7-2,9.5-3.8,14.5-5.3c1.4-0.4,4.1,0.3,4.8,1.4c0.8,1.1,0.3,3.5-0.3,5
	c-2.3,5.7-4.2,11.6-7.4,16.7c-4.7,7.6-9.9,14.9-15.8,21.6c-4.1,4.8-9.7,8.3-14.4,12.6c-1.2,1.1-1.8,3.5-1.8,5.2
	c-0.1,8.3,0,16.7,0.4,25c0.3,7.6-0.7,14.9-3.5,22c-7.6,19.3-14.9,38.8-22.5,58.1c-4.3,10.9-11.7,19.7-19.4,28.3
	c-3.7,4.1-7.4,8.2-10.9,12.4c-13.9,16.9-29.4,32.2-47.5,44.6c-3.4,2.3-7.2,4.1-11,5.7c-12.3,5.4-24.8,10.5-37.1,16
	c-18.2,8.1-37.9,9.7-57.1,13.1c-8.5,1.5-17,3-25.5,3.7c-18.5,1.6-36.3-3.8-54.3-6.7c-8.3-1.3-15.6-4-22.4-8.9
	c-8.2-5.9-17.2-10.7-25.7-16.3c-4.3-2.8-8.2-6.2-11.9-9.8c-3.2-3-1.7-7.3,2.5-8.5c0.9-0.3,2-0.3,3-0.3c13.1-0.3,26.3-0.4,39.4-1.2
	c5-0.3,10.1-2,14.8-3.8c11.1-4.3,22.1-9,33.1-13.5C-322.6,534.5-322.6,534.1-322.5,533.6z M-57.8,306.1c-0.4-0.3-0.7-0.6-1.1-1
	c-7.7,3.1-15.2,6.9-23.1,9.2c-3.9,1.1-9.2,0.9-12.9-0.8c-9.2-4.2-18.1-9.4-26.8-14.7c-6.8-4.1-14.1-3.1-21.4-3.2
	c-25.5-0.4-47.6,7.1-63.7,28.1c-0.1,0.1-0.2,0.2-0.3,0.4c-7.2,7.8-10.9,17.7-13.3,27.6c-2,8.4-1.1,17.6,2.5,26
	c2.4,5.5-0.1,9.3-5.8,8.7c-15.5-1.4-31.2-1.1-46.3-6.1c-9.6-3.1-20-4.4-29.3-8.3c-10.2-4.3-19.6-10.5-29.3-16.1
	c-6.9-4-13.8-8-20.5-12.4c-5-3.2-9.6-7-14.5-10.4c-3.9-2.8-7.8-5.6-12-8c-3.9-2.3-8.2-3.9-12.5-6c0.3,3.9,0.7,8.3,0.9,12.6
	c0.8,18.6,3.3,36.8,12.3,53.4c2.9,5.3,6.3,10.6,10.3,15.2c2,2.3,5.6,3.4,4.3,7.4s-4.7,4.7-8.5,4.7c-6.2,0-12.5,0-19.2,0
	c1.7,2.9,3.6,6.7,6,10.2c6.7,9.5,13.8,18.8,20.5,28.2c5.6,8,13.4,13.3,21.8,17.8c3.1,1.6,5.7,3,5.1,6.8c-0.6,3.9-3.7,4.8-7.1,4.8
	c-7.8,0-15.6,0-23.9,0c0.8,1.4,1.6,2.9,2.5,4.3c4.2,6.8,8.4,13.6,12.7,20.3c1,1.7,2,3.5,3.5,4.7c12.7,10.2,26.3,17.9,43.5,17.2
	c2-0.1,4.1,2.4,6.1,3.7c-1.4,2.1-2.3,5.2-4.2,6c-15.2,6.7-30.6,13.1-46,19.3c-12,4.8-24.5,7.4-37.6,6.9c-3.6-0.1-7.1,0.7-11,1.2
	c0.4,0.9,0.5,1.4,0.9,1.6c10.7,6.6,21.5,13.2,32.3,19.8c1.1,0.7,2.5,0.8,3.8,1c11.8,2.3,23.5,5.2,35.4,6.6c13.6,1.5,27.3,4.7,41-0.6
	c3.8-1.5,8.1-2,12.1-2.9c18.4-4.3,37.7-4.6,54.9-13.7c13.2-7,27.6-12,40.3-19.8c16.8-10.3,30.2-24.9,43-39.9c4-4.7,7.9-9.4,12.1-14
	c11.7-12.7,20.8-26.8,24.5-43.9c0.8-3.7,2.1-7.4,3.6-10.9c4.5-11.1,9.2-22.1,13.7-33.2c0.9-2.3,1.4-4.9,1.4-7.3
	c0.1-11.5,0.3-23-0.1-34.5c-0.2-4.5,0.9-7.6,4.9-9.9c12.6-7.4,20.9-18.8,28.2-31c0.7-1.2,1.1-2.5,1.2-2.9
	c-10.1,2.8-20.2,5.9-30.4,8.4c-2.1,0.5-5.8-0.6-6.8-2.2c-1-1.5-0.2-5.2,1.1-6.9c2.9-3.8,6.8-6.8,10.2-10.3
	C-65,313.7-61.4,309.9-57.8,306.1z"/>
<path class="st1" d="M-57.8,306.1c-3.6,3.8-7.1,7.6-10.8,11.3c-3.4,3.4-7.2,6.5-10.2,10.3c-1.3,1.7-2.1,5.5-1.1,6.9
	c1.1,1.6,4.7,2.7,6.8,2.2c10.3-2.5,20.4-5.5,30.4-8.4c-0.2,0.4-0.5,1.7-1.2,2.9c-7.3,12.3-15.6,23.6-28.2,31c-4,2.3-5,5.4-4.9,9.9
	c0.4,11.5,0.2,23,0.1,34.5c0,2.4-0.5,5-1.4,7.3c-4.5,11.1-9.2,22.1-13.7,33.2c-1.4,3.5-2.8,7.2-3.6,10.9
	c-3.7,17.2-12.9,31.2-24.5,43.9c-4.2,4.5-8.1,9.3-12.1,14c-12.8,15-26.2,29.6-43,39.9c-12.7,7.8-27,12.8-40.3,19.8
	c-17.3,9.1-36.6,9.4-54.9,13.7c-4,0.9-8.3,1.4-12.1,2.9c-13.6,5.3-27.4,2.1-41,0.6c-11.9-1.3-23.6-4.3-35.4-6.6
	c-1.3-0.2-2.8-0.4-3.8-1c-10.8-6.5-21.6-13.1-32.3-19.8c-0.3-0.2-0.4-0.8-0.9-1.6c3.9-0.4,7.5-1.3,11-1.2c13.1,0.5,25.5-2,37.6-6.9
	c15.4-6.2,30.8-12.6,46-19.3c1.9-0.8,2.8-3.9,4.2-6c-2-1.3-4.1-3.8-6.1-3.7c-17.1,0.7-30.8-7-43.5-17.2c-1.5-1.2-2.5-3.1-3.5-4.7
	c-4.3-6.7-8.5-13.5-12.7-20.3c-0.9-1.5-1.8-3-2.5-4.3c8.3,0,16.1,0,23.9,0c3.4,0,6.5-0.9,7.1-4.8c0.6-3.8-2.1-5.2-5.1-6.8
	c-8.4-4.5-16.1-9.8-21.8-17.8c-6.7-9.5-13.8-18.8-20.5-28.2c-2.4-3.4-4.3-7.2-6-10.2c6.7,0,12.9,0,19.2,0c3.7,0,7.2-0.7,8.5-4.7
	c1.3-3.9-2.3-5-4.3-7.4c-4-4.6-7.3-9.8-10.3-15.2c-9.1-16.6-11.5-34.8-12.3-53.4c-0.2-4.4-0.6-8.8-0.9-12.6c4.4,2.1,8.6,3.8,12.5,6
	c4.2,2.4,8,5.2,12,8c4.9,3.4,9.5,7.2,14.5,10.4c6.7,4.3,13.6,8.4,20.5,12.4c9.7,5.5,19,11.8,29.3,16.1c9.3,3.9,19.6,5.1,29.3,8.3
	c15.1,4.9,30.8,4.7,46.3,6.1c5.7,0.5,8.2-3.2,5.8-8.7c-3.6-8.4-4.5-17.6-2.5-26c2.3-9.9,6-19.8,13.3-27.6c0.1-0.1,0.2-0.2,0.3-0.4
	c16.1-21,38.1-28.6,63.7-28.1c7.2,0.1,14.6-0.9,21.4,3.2c8.7,5.3,17.6,10.5,26.8,14.7c3.7,1.7,8.9,1.9,12.9,0.8
	c7.9-2.3,15.4-6,23.1-9.2C-58.6,305.5-58.2,305.8-57.8,306.1z"/>
</svg>
