<?xml version="1.0" encoding="utf-8"?>
<!-- Generator: Adobe Illustrator 16.0.3, SVG Export Plug-In . SVG Version: 6.00 Build 0)  -->
<!DOCTYPE svg PUBLIC "-//W3C//DTD SVG 1.1//EN" "http://www.w3.org/Graphics/SVG/1.1/DTD/svg11.dtd">
<svg version="1.1" id="Layer_1" xmlns="http://www.w3.org/2000/svg" xmlns:xlink="http://www.w3.org/1999/xlink" x="0px" y="0px"
	 width="266.9px" height="266.9px" viewBox="69 69.5 266.9 266.9" style="enable-background:new 69 69.5 266.9 266.9;"
	 xml:space="preserve">
<path id="Blue_1_" d="M321.1,69.5H83.7C75.5,69.5,69,76,69,84.2v237.4c0,8.1,6.6,14.7,14.7,14.7h127.8V233h-34.8v-40.3h34.8V163
	c0-34.5,21.1-53.2,51.8-53.2c14.7,0,27.4,1.1,31.1,1.6v36l-21.3,0c-16.7,0-20,7.9-20,19.6v25.7H293l-5.2,40.3h-34.7v103.4h68
	c8.1,0,14.7-6.6,14.7-14.7V84.2C335.8,76,329.2,69.5,321.1,69.5z"/>
</svg>
