<?xml version="1.0" encoding="utf-8"?>
<!-- Generator: Adobe Illustrator 16.0.3, SVG Export Plug-In . SVG Version: 6.00 Build 0)  -->
<!DOCTYPE svg PUBLIC "-//W3C//DTD SVG 1.1//EN" "http://www.w3.org/Graphics/SVG/1.1/DTD/svg11.dtd">
<svg version="1.1" id="Layer_1" xmlns="http://www.w3.org/2000/svg" xmlns:xlink="http://www.w3.org/1999/xlink" x="0px" y="0px"
	 width="384.1px" height="384.1px" viewBox="0 0 384.1 384.1" style="enable-background:new 0 0 384.1 384.1;" xml:space="preserve"
	>
<style type="text/css">
<![CDATA[
	.st0{fill-rule:evenodd;clip-rule:evenodd;fill:#FFFFFF;}
]]>
</style>
<g>
	<path d="M0,345C0,243,0,141,0,39c0.3-0.8,0.6-1.6,0.8-2.5C4.7,17.9,16,6.2,34.3,1.2C35.9,0.8,37.4,0.4,39,0c102,0,204,0,306,0
		c0.7,0.2,1.4,0.6,2.1,0.7c18.8,3.8,30.7,15.1,35.7,33.6c0.4,1.6,0.8,3.1,1.2,4.7c0,102,0,204,0,306c-0.3,0.8-0.6,1.6-0.8,2.5
		c-3.3,17.8-16.7,31.8-34.3,35.6c-1.3,0.3-2.6,0.6-3.9,1c-102,0-204,0-306,0c-0.7-0.2-1.4-0.6-2.1-0.7c-18-3.2-31.7-16.2-35.8-34
		C0.8,347.9,0.4,346.5,0,345z M44.4,162.7c-0.1,1.3-0.2,2.3-0.2,3.3c0,52.7,0,105.5,0,158.2c0,9.6,6.4,15.6,16.2,15.6
		c87.6,0,175.2,0,262.9,0c10.4,0,16.4-6.1,16.4-16.6c0-52.1,0-104.2,0-156.4c0-1.3,0-2.7,0-4.1c-11.3,0-22.1,0-33.3,0
		c8.2,36.5,2.4,70.2-20,100c-22.5,29.9-53,45.8-90.5,47.2c-31.4,1.2-59.3-8.6-82.4-29.8c-34.8-31.8-45.8-71.5-36.3-117.5
		C66.3,162.7,55.6,162.7,44.4,162.7z M265.9,192.2c0.2-40.8-32.9-74-73.8-74c-40.7-0.1-73.6,32.6-73.9,73.5
		c-0.4,40.7,32.7,73.9,73.6,74.2C232.5,266.2,265.7,233.1,265.9,192.2z M303.1,44.2c-7.1,0-14.2,0-21.4,0
		c-9.5,0.1-15.7,5.9-15.8,15.3c-0.2,14.5-0.2,29,0,43.5c0.1,9.1,6,15,15.1,15.2c14.5,0.2,29,0.2,43.5,0c9.4-0.1,15.3-6.4,15.3-15.8
		c0-14.1,0-28.2,0-42.4c0-9.5-6.2-15.7-15.7-15.8C317.1,44.2,310.1,44.2,303.1,44.2z"/>
	<path class="st0" d="M0,345c0.4,1.4,0.8,2.9,1.1,4.3c4.1,17.7,17.8,30.7,35.8,34c0.7,0.1,1.4,0.5,2.1,0.7c-13,0-26,0-39,0
		C0,371.1,0,358,0,345z"/>
	<path class="st0" d="M345,384.1c1.3-0.3,2.6-0.7,3.9-1c17.6-3.8,31-17.7,34.3-35.6c0.2-0.8,0.5-1.7,0.8-2.5c0,13,0,26,0,39
		C371.1,384.1,358,384.1,345,384.1z"/>
	<path class="st0" d="M39,0c-1.6,0.4-3.1,0.8-4.7,1.2C16,6.2,4.7,17.9,0.8,36.5C0.6,37.4,0.3,38.2,0,39C0,26.1,0,13.1,0,0
		C13,0,26,0,39,0z"/>
	<path class="st0" d="M384.1,39c-0.4-1.6-0.8-3.1-1.2-4.7c-5-18.5-16.9-29.8-35.7-33.6c-0.7-0.1-1.4-0.5-2.1-0.7c13,0,26,0,39,0
		C384.1,13,384.1,26,384.1,39z"/>
</g>
</svg>
