<?xml version="1.0" encoding="utf-8"?>
<!-- Generator: Adobe Illustrator 16.0.3, SVG Export Plug-In . SVG Version: 6.00 Build 0)  -->
<!DOCTYPE svg PUBLIC "-//W3C//DTD SVG 1.1//EN" "http://www.w3.org/Graphics/SVG/1.1/DTD/svg11.dtd">
<svg version="1.1" id="Layer_1" xmlns="http://www.w3.org/2000/svg" xmlns:xlink="http://www.w3.org/1999/xlink" x="0px" y="0px"
	 width="127.5px" height="128px" viewBox="69.3 69 127.5 128" style="enable-background:new 69.3 69 127.5 128;"
	 xml:space="preserve">
<style type="text/css">
<![CDATA[
	.st0{fill-rule:evenodd;clip-rule:evenodd;}
]]>
</style>
<path class="st0" d="M76,197c-5.5-3.2-6.8-8.1-6.7-14.3c0.3-33.2,0.3-66.3,0-99.5c0-6.2,1.2-11,6.7-14.3c38,0,76,0,114,0
	c5.5,3.2,6.8,8.1,6.7,14.3c-0.3,33.1-0.3,66.3,0,99.5c0.1,6.2-1.2,11-6.7,14.3C152,197,114,197,76,197z M118.9,116.9
	c0,20.7,0,40.8,0,61.2c6.5,0,12.7,0,19.5,0c0-8.3-0.1-16.2,0-24.2c0.1-4.1,0.4-8.3,1-12.4c0.8-5.5,5.7-9.3,10.9-9
	c4.5,0.3,7.1,2.9,7.5,8.9c0.5,8.3,0.6,16.6,0.7,24.9c0.1,3.9,0,7.8,0,11.7c7,0,13.2,0,19.7,0c0-15.1,0.4-29.7-0.1-44.3
	c-0.4-10.2-5.8-16.4-14.7-18.4c-9.7-2.1-18.4-0.2-25.7,8c-0.3-2.5-0.4-4.3-0.7-6.3C131,116.9,125.1,116.9,118.9,116.9z M107.1,116.9
	c-6.7,0-12.8,0-19,0c0,20.6,0,40.9,0,61.2c6.6,0,12.7,0,19,0C107.1,157.6,107.1,137.4,107.1,116.9z M96.8,109.4
	c7.1,0.2,12.4-4.5,12.6-11.2c0.2-6.9-4.6-12.4-11.2-12.6c-7-0.2-12.3,4.5-12.6,11.2C85.3,103.9,90.1,109.2,96.8,109.4z"/>
</svg>
