<?xml version="1.0" encoding="utf-8"?>
<!-- Generator: Adobe Illustrator 16.0.3, SVG Export Plug-In . SVG Version: 6.00 Build 0)  -->
<!DOCTYPE svg PUBLIC "-//W3C//DTD SVG 1.1//EN" "http://www.w3.org/Graphics/SVG/1.1/DTD/svg11.dtd">
<svg version="1.1" id="Layer_1" xmlns="http://www.w3.org/2000/svg" xmlns:xlink="http://www.w3.org/1999/xlink" x="0px" y="0px"
	 width="848.4px" height="754.8px" viewBox="214.7 261.6 848.4 754.8" style="enable-background:new 214.7 261.6 848.4 754.8;"
	 xml:space="preserve">
<style type="text/css">
<![CDATA[
	.st0{fill:none;stroke:#000000;stroke-width:0.3;stroke-linecap:round;stroke-linejoin:round;}
	.st1{fill:none;stroke:#000000;stroke-width:0.1;stroke-miterlimit:10;}
	.st2{fill:none;stroke:#000000;stroke-width:0.2;stroke-linecap:round;stroke-linejoin:round;}
	.st3{fill:none;stroke:#000000;stroke-width:0.1;stroke-linecap:round;stroke-linejoin:round;}
	.st4{fill:none;stroke:#000000;stroke-width:0.4;stroke-linecap:round;stroke-linejoin:round;}
]]>
</style>
<polygon class="st4" points="258.1,791.7 779.5,270.3 887.5,899.7 "/>
<line class="st0" x1="887.5" y1="899.7" x2="995.5" y2="1007.7"/>
<line class="st4" x1="258.1" y1="791.7" x2="258.1" y2="1007.7"/>
<line class="st3" x1="258.1" y1="791.7" x2="258.1" y2="270.3"/>
<line class="st3" x1="258.1" y1="270.3" x2="779.5" y2="270.3"/>
<line class="st0" x1="779.5" y1="270.3" x2="995.5" y2="270.3"/>
<line class="st0" x1="995.5" y1="270.3" x2="995.5" y2="1007.7"/>
<line class="st4" x1="214.9" y1="1007.7" x2="1038.7" y2="1007.7"/>
<polygon class="st3" points="359.5,1007.7 335.6,955.9 412.4,955.9 436.3,1007.7 "/>
<line class="st3" x1="359.5" y1="955.9" x2="359.5" y2="1007.7"/>
<line class="st3" x1="617.7" y1="955.9" x2="617.7" y2="1007.7"/>
<polyline class="st3" points="617.7,964.5 640.8,964.5 640.8,1007.7 641.4,1007.7 641.4,964.5 640.8,964.5 645.7,964.5 
	645.7,1007.7 641.4,1007.7 646,1007.7 646,964.5 645.7,964.5 658.1,964.5 658.1,1007.7 668.1,1007.7 668.1,964.5 658.1,964.5 
	668.8,964.5 668.8,1007.7 668.1,1007.7 670,1007.7 670,964.5 668.8,964.5 674.6,964.5 694.4,1007.5 670,1007.7 "/>
<polyline class="st3" points="359.5,964.5 382.7,964.5 382.7,1007.7 383.2,1007.7 383.2,964.5 382.7,964.5 387.5,964.5 
	387.5,1007.7 383.2,1007.7 387.9,1007.7 387.9,964.5 387.5,964.5 399.9,964.5 399.9,1007.7 409.9,1007.7 409.9,964.5 399.9,964.5 
	410.6,964.5 410.6,1007.7 409.9,1007.7 411.8,1007.7 411.8,964.5 410.6,964.5 416.4,964.5 436.2,1007.5 411.8,1007.7 "/>
<polygon class="st3" points="617.7,1007.7 593.8,955.9 670.6,955.9 694.5,1007.7 "/>
<line class="st3" x1="339.4" y1="653.5" x2="361" y2="653.5"/>
<line class="st3" x1="538.9" y1="510.9" x2="523.8" y2="510.9"/>
<line class="st3" x1="508.5" y1="510.9" x2="486.9" y2="510.9"/>
<line class="st3" x1="471.7" y1="510.9" x2="450.1" y2="510.9"/>
<line class="st3" x1="434.8" y1="510.9" x2="413.2" y2="510.9"/>
<line class="st3" x1="397.9" y1="510.9" x2="376.3" y2="510.9"/>
<line class="st3" x1="361" y1="510.9" x2="339.4" y2="510.9"/>
<line class="st3" x1="324.2" y1="510.9" x2="302.6" y2="510.9"/>
<line class="st3" x1="287.3" y1="510.9" x2="265.7" y2="510.9"/>
<line class="st3" x1="265.7" y1="515.3" x2="287.3" y2="515.3"/>
<line class="st3" x1="302.6" y1="515.3" x2="324.2" y2="515.3"/>
<line class="st3" x1="339.4" y1="515.3" x2="361" y2="515.3"/>
<line class="st3" x1="376.3" y1="515.3" x2="397.9" y2="515.3"/>
<line class="st3" x1="413.2" y1="515.3" x2="434.8" y2="515.3"/>
<line class="st3" x1="450.1" y1="515.3" x2="471.7" y2="515.3"/>
<line class="st3" x1="486.9" y1="515.3" x2="508.5" y2="515.3"/>
<line class="st3" x1="523.8" y1="515.3" x2="534.5" y2="515.3"/>
<line class="st3" x1="608" y1="441.8" x2="597.5" y2="441.8"/>
<line class="st3" x1="582.3" y1="441.8" x2="560.7" y2="441.8"/>
<line class="st3" x1="545.4" y1="441.8" x2="523.8" y2="441.8"/>
<line class="st3" x1="508.5" y1="441.8" x2="486.9" y2="441.8"/>
<line class="st3" x1="471.7" y1="441.8" x2="450.1" y2="441.8"/>
<line class="st3" x1="434.8" y1="441.8" x2="413.2" y2="441.8"/>
<line class="st3" x1="397.9" y1="441.8" x2="376.3" y2="441.8"/>
<line class="st3" x1="361" y1="441.8" x2="339.4" y2="441.8"/>
<line class="st3" x1="324.2" y1="441.8" x2="302.6" y2="441.8"/>
<line class="st3" x1="287.3" y1="441.8" x2="265.7" y2="441.8"/>
<line class="st3" x1="265.7" y1="446.1" x2="287.3" y2="446.1"/>
<line class="st3" x1="302.6" y1="446.1" x2="324.2" y2="446.1"/>
<line class="st3" x1="339.4" y1="446.1" x2="361" y2="446.1"/>
<line class="st3" x1="376.3" y1="446.1" x2="397.9" y2="446.1"/>
<line class="st3" x1="413.2" y1="446.1" x2="434.8" y2="446.1"/>
<line class="st3" x1="450.1" y1="446.1" x2="471.7" y2="446.1"/>
<line class="st3" x1="486.9" y1="446.1" x2="508.5" y2="446.1"/>
<line class="st3" x1="523.8" y1="446.1" x2="545.4" y2="446.1"/>
<line class="st3" x1="560.7" y1="446.1" x2="582.3" y2="446.1"/>
<line class="st3" x1="597.5" y1="446.1" x2="603.7" y2="446.1"/>
<line class="st3" x1="469.7" y1="580.1" x2="450.1" y2="580.1"/>
<line class="st3" x1="465.4" y1="584.4" x2="450.1" y2="584.4"/>
<line class="st3" x1="671.3" y1="372.7" x2="677.1" y2="372.7"/>
<line class="st3" x1="634.4" y1="372.7" x2="656" y2="372.7"/>
<line class="st3" x1="597.5" y1="372.7" x2="619.2" y2="372.7"/>
<line class="st3" x1="560.7" y1="372.7" x2="582.3" y2="372.7"/>
<line class="st3" x1="523.8" y1="372.7" x2="545.4" y2="372.7"/>
<line class="st3" x1="486.9" y1="372.7" x2="508.5" y2="372.7"/>
<line class="st3" x1="450.1" y1="372.7" x2="471.7" y2="372.7"/>
<line class="st3" x1="413.2" y1="372.7" x2="434.8" y2="372.7"/>
<line class="st3" x1="376.3" y1="372.7" x2="397.9" y2="372.7"/>
<line class="st3" x1="339.4" y1="372.7" x2="361" y2="372.7"/>
<line class="st3" x1="302.6" y1="372.7" x2="324.2" y2="372.7"/>
<line class="st3" x1="265.7" y1="372.7" x2="287.3" y2="372.7"/>
<line class="st3" x1="265.7" y1="722.6" x2="287.3" y2="722.6"/>
<line class="st3" x1="302.6" y1="722.6" x2="324.2" y2="722.6"/>
<line class="st3" x1="324.2" y1="722.6" x2="327.2" y2="722.6"/>
<line class="st3" x1="397.9" y1="649.2" x2="376.3" y2="649.2"/>
<line class="st3" x1="361" y1="649.2" x2="339.4" y2="649.2"/>
<line class="st3" x1="324.2" y1="649.2" x2="302.6" y2="649.2"/>
<line class="st3" x1="287.3" y1="649.2" x2="265.7" y2="649.2"/>
<line class="st3" x1="265.7" y1="653.5" x2="287.3" y2="653.5"/>
<line class="st3" x1="302.6" y1="653.5" x2="324.2" y2="653.5"/>
<line class="st3" x1="376.3" y1="653.5" x2="396.3" y2="653.5"/>
<line class="st3" x1="434.8" y1="580.1" x2="413.2" y2="580.1"/>
<line class="st3" x1="397.9" y1="580.1" x2="376.3" y2="580.1"/>
<line class="st3" x1="361" y1="580.1" x2="339.4" y2="580.1"/>
<line class="st3" x1="324.2" y1="580.1" x2="302.6" y2="580.1"/>
<line class="st3" x1="287.3" y1="580.1" x2="265.7" y2="580.1"/>
<line class="st3" x1="265.7" y1="584.4" x2="287.3" y2="584.4"/>
<line class="st3" x1="302.6" y1="584.4" x2="324.2" y2="584.4"/>
<line class="st3" x1="339.4" y1="584.4" x2="361" y2="584.4"/>
<line class="st3" x1="376.3" y1="584.4" x2="397.9" y2="584.4"/>
<line class="st3" x1="413.2" y1="584.4" x2="434.8" y2="584.4"/>
<line class="st4" x1="818.8" y1="722.6" x2="840.4" y2="722.6"/>
<line class="st4" x1="855.7" y1="722.6" x2="857.1" y2="722.6"/>
<line class="st4" x1="781.9" y1="372.7" x2="797.1" y2="372.7"/>
<line class="st4" x1="803.5" y1="580.1" x2="781.9" y2="580.1"/>
<line class="st4" x1="766.6" y1="649.2" x2="745" y2="649.2"/>
<line class="st4" x1="692.9" y1="510.9" x2="671.3" y2="510.9"/>
<line class="st4" x1="560.7" y1="515.3" x2="582.3" y2="515.3"/>
<line class="st4" x1="745" y1="372.7" x2="766.6" y2="372.7"/>
<line class="st4" x1="729.8" y1="510.9" x2="708.2" y2="510.9"/>
<line class="st4" x1="803.5" y1="649.2" x2="781.9" y2="649.2"/>
<line class="st4" x1="832.7" y1="580.1" x2="818.8" y2="580.1"/>
<line class="st4" x1="671.3" y1="515.3" x2="692.9" y2="515.3"/>
<line class="st4" x1="766.6" y1="510.9" x2="745" y2="510.9"/>
<line class="st4" x1="708.2" y1="515.3" x2="729.8" y2="515.3"/>
<line class="st4" x1="560.7" y1="584.4" x2="582.3" y2="584.4"/>
<line class="st4" x1="745" y1="515.3" x2="766.6" y2="515.3"/>
<line class="st4" x1="803.5" y1="510.9" x2="781.9" y2="510.9"/>
<line class="st4" x1="671.3" y1="584.4" x2="692.9" y2="584.4"/>
<line class="st4" x1="508.5" y1="580.1" x2="486.9" y2="580.1"/>
<line class="st4" x1="708.2" y1="372.7" x2="729.8" y2="372.7"/>
<line class="st4" x1="840.4" y1="649.2" x2="818.8" y2="649.2"/>
<line class="st4" x1="677.1" y1="372.7" x2="692.9" y2="372.7"/>
<line class="st4" x1="820.8" y1="510.9" x2="818.8" y2="510.9"/>
<line class="st4" x1="781.9" y1="515.3" x2="803.5" y2="515.3"/>
<line class="st4" x1="523.8" y1="584.4" x2="545.4" y2="584.4"/>
<line class="st4" x1="818.8" y1="515.3" x2="821.6" y2="515.3"/>
<line class="st4" x1="708.2" y1="584.4" x2="729.8" y2="584.4"/>
<line class="st4" x1="803.5" y1="441.8" x2="781.9" y2="441.8"/>
<line class="st4" x1="486.9" y1="584.4" x2="508.5" y2="584.4"/>
<line class="st4" x1="766.6" y1="441.8" x2="745" y2="441.8"/>
<line class="st4" x1="745" y1="584.4" x2="766.6" y2="584.4"/>
<line class="st4" x1="634.4" y1="446.1" x2="656" y2="446.1"/>
<line class="st4" x1="465.4" y1="584.4" x2="471.7" y2="584.4"/>
<line class="st4" x1="656" y1="580.1" x2="634.4" y2="580.1"/>
<line class="st4" x1="692.9" y1="441.8" x2="671.3" y2="441.8"/>
<line class="st4" x1="545.4" y1="580.1" x2="523.8" y2="580.1"/>
<line class="st4" x1="781.9" y1="584.4" x2="803.5" y2="584.4"/>
<line class="st4" x1="818.8" y1="584.4" x2="833.4" y2="584.4"/>
<line class="st4" x1="656" y1="441.8" x2="634.4" y2="441.8"/>
<line class="st4" x1="634.4" y1="515.3" x2="656" y2="515.3"/>
<line class="st4" x1="634.4" y1="653.5" x2="656" y2="653.5"/>
<line class="st4" x1="818.8" y1="653.5" x2="840.4" y2="653.5"/>
<line class="st4" x1="781.9" y1="653.5" x2="803.5" y2="653.5"/>
<line class="st4" x1="745" y1="653.5" x2="766.6" y2="653.5"/>
<line class="st4" x1="597.5" y1="515.3" x2="619.2" y2="515.3"/>
<line class="st4" x1="708.2" y1="653.5" x2="729.8" y2="653.5"/>
<line class="st4" x1="619.2" y1="510.9" x2="597.5" y2="510.9"/>
<line class="st4" x1="671.3" y1="653.5" x2="692.9" y2="653.5"/>
<line class="st4" x1="729.8" y1="441.8" x2="708.2" y2="441.8"/>
<line class="st4" x1="560.7" y1="653.5" x2="582.3" y2="653.5"/>
<line class="st4" x1="523.8" y1="653.5" x2="545.4" y2="653.5"/>
<line class="st4" x1="656" y1="510.9" x2="634.4" y2="510.9"/>
<line class="st4" x1="486.9" y1="653.5" x2="508.5" y2="653.5"/>
<line class="st4" x1="450.1" y1="653.5" x2="471.7" y2="653.5"/>
<line class="st4" x1="413.2" y1="653.5" x2="434.8" y2="653.5"/>
<line class="st4" x1="396.3" y1="653.5" x2="397.9" y2="653.5"/>
<line class="st4" x1="634.4" y1="584.4" x2="656" y2="584.4"/>
<line class="st4" x1="597.5" y1="584.4" x2="619.2" y2="584.4"/>
<line class="st4" x1="603.7" y1="446.1" x2="619.2" y2="446.1"/>
<line class="st4" x1="619.2" y1="580.1" x2="597.5" y2="580.1"/>
<line class="st4" x1="608" y1="441.8" x2="619.2" y2="441.8"/>
<line class="st4" x1="434.8" y1="649.2" x2="413.2" y2="649.2"/>
<line class="st4" x1="582.3" y1="510.9" x2="560.7" y2="510.9"/>
<line class="st4" x1="582.3" y1="580.1" x2="560.7" y2="580.1"/>
<line class="st4" x1="545.4" y1="510.9" x2="538.9" y2="510.9"/>
<line class="st4" x1="597.5" y1="653.5" x2="619.2" y2="653.5"/>
<line class="st4" x1="471.7" y1="580.1" x2="469.7" y2="580.1"/>
<line class="st4" x1="471.7" y1="649.2" x2="450.1" y2="649.2"/>
<line class="st4" x1="692.9" y1="580.1" x2="671.3" y2="580.1"/>
<line class="st4" x1="619.2" y1="649.2" x2="597.5" y2="649.2"/>
<line class="st4" x1="508.5" y1="649.2" x2="486.9" y2="649.2"/>
<line class="st4" x1="339.4" y1="722.6" x2="361" y2="722.6"/>
<line class="st4" x1="656" y1="649.2" x2="634.4" y2="649.2"/>
<line class="st4" x1="376.3" y1="722.6" x2="397.9" y2="722.6"/>
<line class="st4" x1="545.4" y1="649.2" x2="523.8" y2="649.2"/>
<line class="st4" x1="413.2" y1="722.6" x2="434.8" y2="722.6"/>
<line class="st4" x1="729.8" y1="580.1" x2="708.2" y2="580.1"/>
<line class="st4" x1="450.1" y1="722.6" x2="471.7" y2="722.6"/>
<line class="st4" x1="671.3" y1="446.1" x2="692.9" y2="446.1"/>
<line class="st4" x1="486.9" y1="722.6" x2="508.5" y2="722.6"/>
<line class="st4" x1="708.2" y1="446.1" x2="729.8" y2="446.1"/>
<line class="st4" x1="523.8" y1="722.6" x2="545.4" y2="722.6"/>
<line class="st4" x1="634.4" y1="722.6" x2="656" y2="722.6"/>
<line class="st4" x1="560.7" y1="722.6" x2="582.3" y2="722.6"/>
<line class="st4" x1="582.3" y1="649.2" x2="560.7" y2="649.2"/>
<line class="st4" x1="597.5" y1="722.6" x2="619.2" y2="722.6"/>
<line class="st4" x1="692.9" y1="649.2" x2="671.3" y2="649.2"/>
<line class="st4" x1="671.3" y1="722.6" x2="692.9" y2="722.6"/>
<line class="st4" x1="729.8" y1="649.2" x2="708.2" y2="649.2"/>
<line class="st4" x1="708.2" y1="722.6" x2="729.8" y2="722.6"/>
<line class="st4" x1="745" y1="446.1" x2="766.6" y2="446.1"/>
<line class="st4" x1="745" y1="722.6" x2="766.6" y2="722.6"/>
<line class="st4" x1="781.9" y1="446.1" x2="803.5" y2="446.1"/>
<line class="st4" x1="781.9" y1="722.6" x2="803.5" y2="722.6"/>
<line class="st4" x1="766.6" y1="580.1" x2="745" y2="580.1"/>
<line class="st4" x1="534.5" y1="515.3" x2="545.4" y2="515.3"/>
<line class="st2" x1="833.4" y1="584.4" x2="840.4" y2="584.4"/>
<line class="st2" x1="855.7" y1="446.1" x2="877.3" y2="446.1"/>
<line class="st2" x1="818.8" y1="446.1" x2="840.4" y2="446.1"/>
<line class="st2" x1="914.1" y1="441.8" x2="892.5" y2="441.8"/>
<line class="st2" x1="877.3" y1="441.8" x2="855.7" y2="441.8"/>
<line class="st2" x1="857.1" y1="722.6" x2="877.3" y2="722.6"/>
<line class="st2" x1="840.4" y1="441.8" x2="818.8" y2="441.8"/>
<line class="st2" x1="892.5" y1="722.6" x2="914.1" y2="722.6"/>
<line class="st2" x1="929.4" y1="722.6" x2="951" y2="722.6"/>
<line class="st2" x1="966.3" y1="722.6" x2="987.9" y2="722.6"/>
<line class="st2" x1="797.1" y1="372.7" x2="803.5" y2="372.7"/>
<line class="st2" x1="818.8" y1="372.7" x2="840.4" y2="372.7"/>
<line class="st2" x1="929.4" y1="584.4" x2="951" y2="584.4"/>
<line class="st2" x1="966.3" y1="584.4" x2="987.9" y2="584.4"/>
<line class="st2" x1="987.9" y1="580.1" x2="966.3" y2="580.1"/>
<line class="st2" x1="855.7" y1="372.7" x2="877.3" y2="372.7"/>
<line class="st2" x1="892.5" y1="372.7" x2="914.1" y2="372.7"/>
<line class="st2" x1="951" y1="580.1" x2="929.4" y2="580.1"/>
<line class="st2" x1="929.4" y1="372.7" x2="951" y2="372.7"/>
<line class="st2" x1="966.3" y1="372.7" x2="987.9" y2="372.7"/>
<line class="st2" x1="914.1" y1="580.1" x2="892.5" y2="580.1"/>
<line class="st2" x1="855.7" y1="653.5" x2="877.3" y2="653.5"/>
<line class="st2" x1="892.5" y1="653.5" x2="914.1" y2="653.5"/>
<line class="st2" x1="929.4" y1="653.5" x2="951" y2="653.5"/>
<line class="st2" x1="966.3" y1="653.5" x2="987.9" y2="653.5"/>
<line class="st2" x1="987.9" y1="649.2" x2="966.3" y2="649.2"/>
<line class="st2" x1="832.7" y1="580.1" x2="840.4" y2="580.1"/>
<line class="st2" x1="951" y1="649.2" x2="929.4" y2="649.2"/>
<line class="st2" x1="914.1" y1="649.2" x2="892.5" y2="649.2"/>
<line class="st2" x1="877.3" y1="649.2" x2="855.7" y2="649.2"/>
<line class="st2" x1="877.3" y1="580.1" x2="855.7" y2="580.1"/>
<line class="st2" x1="840.4" y1="510.9" x2="820.8" y2="510.9"/>
<line class="st2" x1="877.3" y1="510.9" x2="855.7" y2="510.9"/>
<line class="st2" x1="914.1" y1="510.9" x2="892.5" y2="510.9"/>
<line class="st2" x1="951" y1="510.9" x2="929.4" y2="510.9"/>
<line class="st2" x1="987.9" y1="510.9" x2="966.3" y2="510.9"/>
<line class="st2" x1="966.3" y1="515.3" x2="987.9" y2="515.3"/>
<line class="st2" x1="929.4" y1="515.3" x2="951" y2="515.3"/>
<line class="st2" x1="892.5" y1="515.3" x2="914.1" y2="515.3"/>
<line class="st2" x1="855.7" y1="515.3" x2="877.3" y2="515.3"/>
<line class="st2" x1="821.6" y1="515.3" x2="840.4" y2="515.3"/>
<line class="st2" x1="855.7" y1="584.4" x2="877.3" y2="584.4"/>
<line class="st2" x1="892.5" y1="584.4" x2="914.1" y2="584.4"/>
<line class="st2" x1="951" y1="441.8" x2="929.4" y2="441.8"/>
<line class="st2" x1="987.9" y1="441.8" x2="966.3" y2="441.8"/>
<line class="st2" x1="966.3" y1="446.1" x2="987.9" y2="446.1"/>
<line class="st2" x1="929.4" y1="446.1" x2="951" y2="446.1"/>
<line class="st2" x1="892.5" y1="446.1" x2="914.1" y2="446.1"/>
<rect x="523.8" y="462.3" class="st3" width="21.6" height="21.6"/>
<rect x="450.1" y="499.1" class="st3" width="21.6" height="21.6"/>
<polyline class="st3" points="729.8,320 729.8,314.8 708.2,314.8 708.2,336.4 713.4,336.4 "/>
<rect x="302.6" y="425.4" class="st3" width="21.6" height="21.6"/>
<rect x="560.7" y="277.9" class="st3" width="21.6" height="21.6"/>
<rect x="450.1" y="425.4" class="st3" width="21.6" height="21.6"/>
<rect x="413.2" y="499.1" class="st3" width="21.6" height="21.6"/>
<rect x="413.2" y="425.4" class="st3" width="21.6" height="21.6"/>
<polyline class="st3" points="692.9,356.9 692.9,351.7 671.3,351.7 671.3,373.3 676.5,373.3 "/>
<rect x="339.4" y="425.4" class="st3" width="21.6" height="21.6"/>
<rect x="523.8" y="277.9" class="st3" width="21.6" height="21.6"/>
<rect x="376.3" y="499.1" class="st3" width="21.6" height="21.6"/>
<polyline class="st3" points="656,393.8 656,388.5 634.4,388.5 634.4,410.1 639.7,410.1 "/>
<rect x="486.9" y="277.9" class="st3" width="21.6" height="21.6"/>
<polyline class="st3" points="619.2,430.6 619.2,425.4 597.5,425.4 597.5,447 602.8,447 "/>
<rect x="450.1" y="277.9" class="st3" width="21.6" height="21.6"/>
<polyline class="st3" points="582.3,467.5 582.3,462.3 560.7,462.3 560.7,483.9 565.9,483.9 "/>
<rect x="413.2" y="277.9" class="st3" width="21.6" height="21.6"/>
<polyline class="st3" points="545.4,504.4 545.4,499.1 523.8,499.1 523.8,520.7 529,520.7 "/>
<rect x="376.3" y="277.9" class="st3" width="21.6" height="21.6"/>
<rect x="339.4" y="277.9" class="st3" width="21.6" height="21.6"/>
<rect x="302.6" y="277.9" class="st3" width="21.6" height="21.6"/>
<polyline class="st3" points="508.5,541.3 508.5,536 486.9,536 486.9,557.6 492.2,557.6 "/>
<rect x="265.7" y="277.9" class="st3" width="21.6" height="21.6"/>
<polyline class="st3" points="471.7,578.1 471.7,572.9 450.1,572.9 450.1,594.5 455.3,594.5 "/>
<polyline class="st3" points="434.8,615 434.8,609.8 413.2,609.8 413.2,631.4 418.4,631.4 "/>
<polyline class="st3" points="397.9,651.9 397.9,646.6 376.3,646.6 376.3,668.2 381.5,668.2 "/>
<rect x="671.3" y="314.8" class="st3" width="21.6" height="21.6"/>
<rect x="634.4" y="314.8" class="st3" width="21.6" height="21.6"/>
<rect x="597.5" y="314.8" class="st3" width="21.6" height="21.6"/>
<rect x="560.7" y="314.8" class="st3" width="21.6" height="21.6"/>
<rect x="523.8" y="314.8" class="st3" width="21.6" height="21.6"/>
<polyline class="st3" points="361,688.8 361,683.5 339.4,683.5 339.4,705.1 344.7,705.1 "/>
<rect x="486.9" y="314.8" class="st3" width="21.6" height="21.6"/>
<polyline class="st3" points="324.2,725.6 324.2,720.4 302.6,720.4 302.6,742 307.8,742 "/>
<rect x="450.1" y="314.8" class="st3" width="21.6" height="21.6"/>
<polyline class="st3" points="287.3,762.5 287.3,757.3 265.7,757.3 265.7,778.9 270.9,778.9 "/>
<rect x="413.2" y="314.8" class="st3" width="21.6" height="21.6"/>
<rect x="376.3" y="314.8" class="st3" width="21.6" height="21.6"/>
<rect x="486.9" y="499.1" class="st3" width="21.6" height="21.6"/>
<rect x="339.4" y="314.8" class="st3" width="21.6" height="21.6"/>
<rect x="302.6" y="314.8" class="st3" width="21.6" height="21.6"/>
<rect x="376.3" y="425.4" class="st3" width="21.6" height="21.6"/>
<rect x="265.7" y="314.8" class="st3" width="21.6" height="21.6"/>
<rect x="634.4" y="351.7" class="st3" width="21.6" height="21.6"/>
<rect x="597.5" y="351.7" class="st3" width="21.6" height="21.6"/>
<rect x="560.7" y="351.7" class="st3" width="21.6" height="21.6"/>
<rect x="523.8" y="351.7" class="st3" width="21.6" height="21.6"/>
<rect x="486.9" y="351.7" class="st3" width="21.6" height="21.6"/>
<rect x="450.1" y="351.7" class="st3" width="21.6" height="21.6"/>
<rect x="413.2" y="351.7" class="st3" width="21.6" height="21.6"/>
<rect x="376.3" y="351.7" class="st3" width="21.6" height="21.6"/>
<rect x="339.4" y="351.7" class="st3" width="21.6" height="21.6"/>
<rect x="302.6" y="351.7" class="st3" width="21.6" height="21.6"/>
<rect x="265.7" y="351.7" class="st3" width="21.6" height="21.6"/>
<rect x="265.7" y="499.1" class="st3" width="21.6" height="21.6"/>
<rect x="302.6" y="499.1" class="st3" width="21.6" height="21.6"/>
<rect x="597.5" y="388.5" class="st3" width="21.6" height="21.6"/>
<rect x="560.7" y="388.5" class="st3" width="21.6" height="21.6"/>
<rect x="523.8" y="388.5" class="st3" width="21.6" height="21.6"/>
<rect x="486.9" y="388.5" class="st3" width="21.6" height="21.6"/>
<rect x="450.1" y="388.5" class="st3" width="21.6" height="21.6"/>
<rect x="413.2" y="388.5" class="st3" width="21.6" height="21.6"/>
<rect x="376.3" y="388.5" class="st3" width="21.6" height="21.6"/>
<rect x="339.4" y="388.5" class="st3" width="21.6" height="21.6"/>
<rect x="265.7" y="425.4" class="st3" width="21.6" height="21.6"/>
<rect x="302.6" y="388.5" class="st3" width="21.6" height="21.6"/>
<rect x="265.7" y="462.3" class="st3" width="21.6" height="21.6"/>
<rect x="265.7" y="388.5" class="st3" width="21.6" height="21.6"/>
<rect x="302.6" y="462.3" class="st3" width="21.6" height="21.6"/>
<rect x="339.4" y="462.3" class="st3" width="21.6" height="21.6"/>
<rect x="376.3" y="462.3" class="st3" width="21.6" height="21.6"/>
<rect x="339.4" y="499.1" class="st3" width="21.6" height="21.6"/>
<rect x="413.2" y="462.3" class="st3" width="21.6" height="21.6"/>
<rect x="560.7" y="425.4" class="st3" width="21.6" height="21.6"/>
<rect x="450.1" y="462.3" class="st3" width="21.6" height="21.6"/>
<rect x="523.8" y="425.4" class="st3" width="21.6" height="21.6"/>
<rect x="486.9" y="462.3" class="st3" width="21.6" height="21.6"/>
<rect x="265.7" y="646.6" class="st3" width="21.6" height="21.6"/>
<rect x="302.6" y="646.6" class="st3" width="21.6" height="21.6"/>
<rect x="339.4" y="646.6" class="st3" width="21.6" height="21.6"/>
<rect x="265.7" y="609.8" class="st3" width="21.6" height="21.6"/>
<rect x="302.6" y="609.8" class="st3" width="21.6" height="21.6"/>
<rect x="339.4" y="609.8" class="st3" width="21.6" height="21.6"/>
<rect x="376.3" y="609.8" class="st3" width="21.6" height="21.6"/>
<rect x="265.7" y="572.9" class="st3" width="21.6" height="21.6"/>
<rect x="302.6" y="683.5" class="st3" width="21.6" height="21.6"/>
<rect x="302.6" y="572.9" class="st3" width="21.6" height="21.6"/>
<rect x="265.7" y="683.5" class="st3" width="21.6" height="21.6"/>
<rect x="265.7" y="720.4" class="st3" width="21.6" height="21.6"/>
<rect x="339.4" y="572.9" class="st3" width="21.6" height="21.6"/>
<rect x="376.3" y="572.9" class="st3" width="21.6" height="21.6"/>
<rect x="413.2" y="572.9" class="st3" width="21.6" height="21.6"/>
<rect x="265.7" y="536" class="st3" width="21.6" height="21.6"/>
<rect x="302.6" y="536" class="st3" width="21.6" height="21.6"/>
<rect x="339.4" y="536" class="st3" width="21.6" height="21.6"/>
<rect x="376.3" y="536" class="st3" width="21.6" height="21.6"/>
<rect x="413.2" y="536" class="st3" width="21.6" height="21.6"/>
<rect x="450.1" y="536" class="st3" width="21.6" height="21.6"/>
<rect x="708.2" y="277.9" class="st3" width="21.6" height="21.6"/>
<rect x="671.3" y="277.9" class="st3" width="21.6" height="21.6"/>
<rect x="634.4" y="277.9" class="st3" width="21.6" height="21.6"/>
<rect x="486.9" y="425.4" class="st3" width="21.6" height="21.6"/>
<rect x="597.5" y="277.9" class="st3" width="21.6" height="21.6"/>
<polyline class="st3" points="766.6,283.1 766.6,277.9 745,277.9 745,299.5 750.3,299.5 "/>
<polyline class="st3" points="835.2,594.5 840.4,594.5 840.4,572.9 831.4,572.9 "/>
<rect x="265.7" y="978.5" class="st3" width="21.6" height="21.6"/>
<rect x="302.6" y="978.5" class="st3" width="21.6" height="21.6"/>
<rect x="450.1" y="978.5" class="st3" width="21.6" height="21.6"/>
<rect x="486.9" y="978.5" class="st3" width="21.6" height="21.6"/>
<rect x="523.8" y="978.5" class="st3" width="21.6" height="21.6"/>
<rect x="560.7" y="978.5" class="st3" width="21.6" height="21.6"/>
<rect x="708.2" y="978.5" class="st3" width="21.6" height="21.6"/>
<rect x="745" y="978.5" class="st3" width="21.6" height="21.6"/>
<rect x="781.9" y="978.5" class="st3" width="21.6" height="21.6"/>
<rect x="818.8" y="978.5" class="st3" width="21.6" height="21.6"/>
<rect x="855.7" y="978.5" class="st3" width="21.6" height="21.6"/>
<rect x="892.5" y="978.5" class="st3" width="21.6" height="21.6"/>
<rect x="929.4" y="978.5" class="st3" width="21.6" height="21.6"/>
<rect x="966.3" y="978.5" class="st3" width="21.6" height="21.6"/>
<rect x="265.7" y="941.6" class="st3" width="21.6" height="21.6"/>
<rect x="302.6" y="941.6" class="st3" width="21.6" height="21.6"/>
<rect x="450.1" y="941.6" class="st3" width="21.6" height="21.6"/>
<rect x="486.9" y="941.6" class="st3" width="21.6" height="21.6"/>
<rect x="523.8" y="941.6" class="st3" width="21.6" height="21.6"/>
<rect x="560.7" y="941.6" class="st3" width="21.6" height="21.6"/>
<rect x="708.2" y="941.6" class="st3" width="21.6" height="21.6"/>
<rect x="745" y="941.6" class="st3" width="21.6" height="21.6"/>
<rect x="781.9" y="941.6" class="st3" width="21.6" height="21.6"/>
<rect x="818.8" y="941.6" class="st3" width="21.6" height="21.6"/>
<rect x="855.7" y="941.6" class="st3" width="21.6" height="21.6"/>
<rect x="892.5" y="941.6" class="st3" width="21.6" height="21.6"/>
<rect x="929.4" y="941.6" class="st3" width="21.6" height="21.6"/>
<rect x="966.3" y="941.6" class="st3" width="21.6" height="21.6"/>
<rect x="265.7" y="904.8" class="st3" width="21.6" height="21.6"/>
<rect x="302.6" y="904.8" class="st3" width="21.6" height="21.6"/>
<rect x="339.4" y="904.8" class="st3" width="21.6" height="21.6"/>
<rect x="376.3" y="904.8" class="st3" width="21.6" height="21.6"/>
<rect x="413.2" y="904.8" class="st3" width="21.6" height="21.6"/>
<rect x="450.1" y="904.8" class="st3" width="21.6" height="21.6"/>
<rect x="486.9" y="904.8" class="st3" width="21.6" height="21.6"/>
<rect x="523.8" y="904.8" class="st3" width="21.6" height="21.6"/>
<rect x="560.7" y="904.8" class="st3" width="21.6" height="21.6"/>
<rect x="597.5" y="904.8" class="st3" width="21.6" height="21.6"/>
<rect x="634.4" y="904.8" class="st3" width="21.6" height="21.6"/>
<rect x="671.3" y="904.8" class="st3" width="21.6" height="21.6"/>
<rect x="708.2" y="904.8" class="st3" width="21.6" height="21.6"/>
<rect x="745" y="904.8" class="st3" width="21.6" height="21.6"/>
<rect x="781.9" y="904.8" class="st3" width="21.6" height="21.6"/>
<rect x="818.8" y="904.8" class="st3" width="21.6" height="21.6"/>
<rect x="855.7" y="904.8" class="st3" width="21.6" height="21.6"/>
<rect x="892.5" y="904.8" class="st3" width="21.6" height="21.6"/>
<rect x="929.4" y="904.8" class="st3" width="21.6" height="21.6"/>
<rect x="966.3" y="904.8" class="st3" width="21.6" height="21.6"/>
<rect x="265.7" y="867.9" class="st3" width="21.6" height="21.6"/>
<rect x="302.6" y="867.9" class="st3" width="21.6" height="21.6"/>
<rect x="339.4" y="867.9" class="st3" width="21.6" height="21.6"/>
<rect x="376.3" y="867.9" class="st3" width="21.6" height="21.6"/>
<rect x="413.2" y="867.9" class="st3" width="21.6" height="21.6"/>
<rect x="450.1" y="867.9" class="st3" width="21.6" height="21.6"/>
<rect x="486.9" y="867.9" class="st3" width="21.6" height="21.6"/>
<rect x="523.8" y="867.9" class="st3" width="21.6" height="21.6"/>
<rect x="560.7" y="867.9" class="st3" width="21.6" height="21.6"/>
<rect x="597.5" y="867.9" class="st3" width="21.6" height="21.6"/>
<rect x="634.4" y="867.9" class="st3" width="21.6" height="21.6"/>
<rect x="671.3" y="867.9" class="st3" width="21.6" height="21.6"/>
<rect x="892.5" y="867.9" class="st3" width="21.6" height="21.6"/>
<rect x="929.4" y="867.9" class="st3" width="21.6" height="21.6"/>
<rect x="966.3" y="867.9" class="st3" width="21.6" height="21.6"/>
<rect x="265.7" y="831" class="st3" width="21.6" height="21.6"/>
<rect x="302.6" y="831" class="st3" width="21.6" height="21.6"/>
<rect x="339.4" y="831" class="st3" width="21.6" height="21.6"/>
<rect x="376.3" y="831" class="st3" width="21.6" height="21.6"/>
<rect x="413.2" y="831" class="st3" width="21.6" height="21.6"/>
<rect x="450.1" y="831" class="st3" width="21.6" height="21.6"/>
<rect x="892.5" y="831" class="st3" width="21.6" height="21.6"/>
<rect x="929.4" y="831" class="st3" width="21.6" height="21.6"/>
<rect x="966.3" y="831" class="st3" width="21.6" height="21.6"/>
<rect x="892.5" y="794.1" class="st3" width="21.6" height="21.6"/>
<rect x="929.4" y="794.1" class="st3" width="21.6" height="21.6"/>
<rect x="966.3" y="794.1" class="st3" width="21.6" height="21.6"/>
<rect x="892.5" y="757.3" class="st3" width="21.6" height="21.6"/>
<rect x="929.4" y="757.3" class="st3" width="21.6" height="21.6"/>
<rect x="966.3" y="757.3" class="st3" width="21.6" height="21.6"/>
<rect x="892.5" y="720.4" class="st3" width="21.6" height="21.6"/>
<rect x="929.4" y="720.4" class="st3" width="21.6" height="21.6"/>
<rect x="966.3" y="720.4" class="st3" width="21.6" height="21.6"/>
<rect x="855.7" y="683.5" class="st3" width="21.6" height="21.6"/>
<rect x="892.5" y="683.5" class="st3" width="21.6" height="21.6"/>
<rect x="929.4" y="683.5" class="st3" width="21.6" height="21.6"/>
<rect x="966.3" y="683.5" class="st3" width="21.6" height="21.6"/>
<rect x="855.7" y="646.6" class="st3" width="21.6" height="21.6"/>
<rect x="892.5" y="646.6" class="st3" width="21.6" height="21.6"/>
<rect x="929.4" y="646.6" class="st3" width="21.6" height="21.6"/>
<rect x="966.3" y="646.6" class="st3" width="21.6" height="21.6"/>
<rect x="855.7" y="609.8" class="st3" width="21.6" height="21.6"/>
<rect x="892.5" y="609.8" class="st3" width="21.6" height="21.6"/>
<rect x="929.4" y="609.8" class="st3" width="21.6" height="21.6"/>
<rect x="966.3" y="609.8" class="st3" width="21.6" height="21.6"/>
<rect x="855.7" y="572.9" class="st3" width="21.6" height="21.6"/>
<rect x="892.5" y="572.9" class="st3" width="21.6" height="21.6"/>
<rect x="929.4" y="572.9" class="st3" width="21.6" height="21.6"/>
<rect x="966.3" y="572.9" class="st3" width="21.6" height="21.6"/>
<rect x="892.5" y="536" class="st3" width="21.6" height="21.6"/>
<rect x="929.4" y="536" class="st3" width="21.6" height="21.6"/>
<rect x="966.3" y="536" class="st3" width="21.6" height="21.6"/>
<rect x="855.7" y="499.1" class="st3" width="21.6" height="21.6"/>
<rect x="892.5" y="499.1" class="st3" width="21.6" height="21.6"/>
<rect x="929.4" y="499.1" class="st3" width="21.6" height="21.6"/>
<rect x="966.3" y="499.1" class="st3" width="21.6" height="21.6"/>
<rect x="818.8" y="462.3" class="st3" width="21.6" height="21.6"/>
<rect x="855.7" y="462.3" class="st3" width="21.6" height="21.6"/>
<rect x="892.5" y="462.3" class="st3" width="21.6" height="21.6"/>
<rect x="929.4" y="462.3" class="st3" width="21.6" height="21.6"/>
<rect x="966.3" y="462.3" class="st3" width="21.6" height="21.6"/>
<rect x="818.8" y="425.4" class="st3" width="21.6" height="21.6"/>
<rect x="855.7" y="425.4" class="st3" width="21.6" height="21.6"/>
<rect x="892.5" y="425.4" class="st3" width="21.6" height="21.6"/>
<rect x="929.4" y="425.4" class="st3" width="21.6" height="21.6"/>
<rect x="966.3" y="425.4" class="st3" width="21.6" height="21.6"/>
<rect x="818.8" y="388.5" class="st3" width="21.6" height="21.6"/>
<rect x="855.7" y="388.5" class="st3" width="21.6" height="21.6"/>
<rect x="892.5" y="388.5" class="st3" width="21.6" height="21.6"/>
<rect x="929.4" y="388.5" class="st3" width="21.6" height="21.6"/>
<rect x="966.3" y="388.5" class="st3" width="21.6" height="21.6"/>
<rect x="818.8" y="351.7" class="st3" width="21.6" height="21.6"/>
<rect x="855.7" y="351.7" class="st3" width="21.6" height="21.6"/>
<rect x="892.5" y="351.7" class="st3" width="21.6" height="21.6"/>
<rect x="929.4" y="351.7" class="st3" width="21.6" height="21.6"/>
<rect x="966.3" y="351.7" class="st3" width="21.6" height="21.6"/>
<rect x="818.8" y="314.8" class="st3" width="21.6" height="21.6"/>
<rect x="855.7" y="314.8" class="st3" width="21.6" height="21.6"/>
<rect x="892.5" y="314.8" class="st3" width="21.6" height="21.6"/>
<rect x="929.4" y="314.8" class="st3" width="21.6" height="21.6"/>
<rect x="966.3" y="314.8" class="st3" width="21.6" height="21.6"/>
<rect x="818.8" y="277.9" class="st3" width="21.6" height="21.6"/>
<rect x="855.7" y="277.9" class="st3" width="21.6" height="21.6"/>
<rect x="892.5" y="277.9" class="st3" width="21.6" height="21.6"/>
<rect x="929.4" y="277.9" class="st3" width="21.6" height="21.6"/>
<rect x="966.3" y="277.9" class="st3" width="21.6" height="21.6"/>
<rect x="855.7" y="536" class="st3" width="21.6" height="21.6"/>
<polyline class="st3" points="674,963.2 692.9,963.2 692.9,941.6 671.3,941.6 671.3,957.5 "/>
<polyline class="st3" points="656,955.9 656,941.6 634.4,941.6 634.4,955.9 "/>
<polyline class="st3" points="619.2,955.9 619.2,941.6 597.5,941.6 597.5,955.9 "/>
<polyline class="st3" points="690.9,1000.1 692.9,1000.1 692.9,978.5 681,978.5 "/>
<polyline class="st3" points="604.2,978.5 597.5,978.5 597.5,1000.1 614.2,1000.1 "/>
<polyline class="st3" points="415.8,963.2 434.8,963.2 434.8,941.6 413.2,941.6 413.2,957.6 "/>
<polyline class="st3" points="397.9,955.9 397.9,941.6 376.3,941.6 376.3,955.9 "/>
<polyline class="st3" points="361,955.9 361,941.6 339.4,941.6 339.4,955.9 "/>
<polyline class="st3" points="432.8,1000.1 434.8,1000.1 434.8,978.5 422.8,978.5 "/>
<polyline class="st3" points="346,978.5 339.4,978.5 339.4,1000.1 356,1000.1 "/>
<polyline class="st3" points="784.5,299.5 803.5,299.5 803.5,277.9 781.9,277.9 781.9,284.2 "/>
<polyline class="st3" points="790.9,336.4 803.5,336.4 803.5,314.8 787.2,314.8 "/>
<polyline class="st3" points="797.2,373.3 803.5,373.3 803.5,351.7 793.5,351.7 "/>
<polyline class="st3" points="803.5,410.1 803.5,388.5 799.8,388.5 "/>
<polyline class="st3" points="822.5,520.7 840.4,520.7 840.4,499.1 818.8,499.1 "/>
<polyline class="st3" points="828.8,557.6 840.4,557.6 840.4,536 825.1,536 "/>
<polyline class="st3" points="840.4,625 840.4,609.8 837.8,609.8 "/>
<polyline class="st3" points="860.5,742 877.3,742 877.3,720.4 856.8,720.4 "/>
<polyline class="st3" points="866.8,778.9 877.3,778.9 877.3,757.3 863.1,757.3 "/>
<polyline class="st3" points="873.1,815.7 877.3,815.7 877.3,794.1 869.4,794.1 "/>
<polyline class="st3" points="376.3,812 376.3,815.7 397.9,815.7 397.9,815.7 "/>
<polyline class="st3" points="339.4,805.7 339.4,815.7 361,815.7 361,809.4 "/>
<polyline class="st3" points="302.6,799.4 302.6,815.7 324.2,815.7 324.2,803.1 "/>
<polyline class="st3" points="272,794.1 265.7,794.1 265.7,815.7 287.3,815.7 287.3,796.8 "/>
<polyline class="st3" points="877.3,839.9 877.3,831 875.7,831 "/>
<polyline class="st3" points="597.5,850 597.5,852.6 612.8,852.6 "/>
<polyline class="st3" points="560.7,843.7 560.7,852.6 582.3,852.6 582.3,847.4 "/>
<polyline class="st3" points="523.8,837.3 523.8,852.6 545.4,852.6 545.4,841 "/>
<polyline class="st3" points="486.9,831 486.9,831 486.9,852.6 508.5,852.6 508.5,834.7 "/>
<polyline class="st3" points="781.9,881.6 781.9,889.5 803.5,889.5 803.5,885.3 "/>
<polyline class="st3" points="745,875.3 745,889.5 766.6,889.5 766.6,879 "/>
<polyline class="st3" points="708.2,869 708.2,889.5 729.8,889.5 729.8,872.7 "/>
<rect x="376.3" y="757.3" class="st0" width="21.6" height="21.6"/>
<rect x="745" y="609.8" class="st0" width="21.6" height="21.6"/>
<rect x="708.2" y="609.8" class="st0" width="21.6" height="21.6"/>
<rect x="671.3" y="609.8" class="st0" width="21.6" height="21.6"/>
<rect x="634.4" y="609.8" class="st0" width="21.6" height="21.6"/>
<rect x="560.7" y="609.8" class="st0" width="21.6" height="21.6"/>
<rect x="523.8" y="609.8" class="st0" width="21.6" height="21.6"/>
<rect x="486.9" y="609.8" class="st0" width="21.6" height="21.6"/>
<rect x="450.1" y="609.8" class="st0" width="21.6" height="21.6"/>
<rect x="745" y="646.6" class="st0" width="21.6" height="21.6"/>
<rect x="708.2" y="646.6" class="st0" width="21.6" height="21.6"/>
<rect x="671.3" y="646.6" class="st0" width="21.6" height="21.6"/>
<rect x="634.4" y="646.6" class="st0" width="21.6" height="21.6"/>
<rect x="560.7" y="646.6" class="st0" width="21.6" height="21.6"/>
<rect x="523.8" y="646.6" class="st0" width="21.6" height="21.6"/>
<rect x="486.9" y="646.6" class="st0" width="21.6" height="21.6"/>
<rect x="450.1" y="646.6" class="st0" width="21.6" height="21.6"/>
<rect x="413.2" y="646.6" class="st0" width="21.6" height="21.6"/>
<rect x="745" y="683.5" class="st0" width="21.6" height="21.6"/>
<rect x="708.2" y="683.5" class="st0" width="21.6" height="21.6"/>
<rect x="671.3" y="683.5" class="st0" width="21.6" height="21.6"/>
<rect x="634.4" y="683.5" class="st0" width="21.6" height="21.6"/>
<rect x="560.7" y="683.5" class="st0" width="21.6" height="21.6"/>
<rect x="523.8" y="683.5" class="st0" width="21.6" height="21.6"/>
<rect x="486.9" y="683.5" class="st0" width="21.6" height="21.6"/>
<rect x="450.1" y="683.5" class="st0" width="21.6" height="21.6"/>
<rect x="413.2" y="683.5" class="st0" width="21.6" height="21.6"/>
<rect x="376.3" y="683.5" class="st0" width="21.6" height="21.6"/>
<rect x="745" y="720.4" class="st0" width="21.6" height="21.6"/>
<rect x="708.2" y="720.4" class="st0" width="21.6" height="21.6"/>
<rect x="671.3" y="720.4" class="st0" width="21.6" height="21.6"/>
<rect x="634.4" y="720.4" class="st0" width="21.6" height="21.6"/>
<rect x="597.5" y="720.4" class="st0" width="21.6" height="21.6"/>
<rect x="560.7" y="720.4" class="st0" width="21.6" height="21.6"/>
<rect x="523.8" y="720.4" class="st0" width="21.6" height="21.6"/>
<rect x="486.9" y="720.4" class="st0" width="21.6" height="21.6"/>
<rect x="450.1" y="720.4" class="st0" width="21.6" height="21.6"/>
<rect x="413.2" y="720.4" class="st0" width="21.6" height="21.6"/>
<rect x="376.3" y="720.4" class="st0" width="21.6" height="21.6"/>
<rect x="339.4" y="720.4" class="st0" width="21.6" height="21.6"/>
<rect x="745" y="757.3" class="st0" width="21.6" height="21.6"/>
<rect x="708.2" y="757.3" class="st0" width="21.6" height="21.6"/>
<rect x="671.3" y="757.3" class="st0" width="21.6" height="21.6"/>
<rect x="634.4" y="757.3" class="st0" width="21.6" height="21.6"/>
<rect x="597.5" y="757.3" class="st0" width="21.6" height="21.6"/>
<rect x="560.7" y="757.3" class="st0" width="21.6" height="21.6"/>
<rect x="523.8" y="757.3" class="st0" width="21.6" height="21.6"/>
<rect x="486.9" y="757.3" class="st0" width="21.6" height="21.6"/>
<rect x="450.1" y="757.3" class="st0" width="21.6" height="21.6"/>
<rect x="413.2" y="757.3" class="st0" width="21.6" height="21.6"/>
<rect x="597.5" y="683.5" class="st0" width="21.6" height="21.6"/>
<rect x="597.5" y="646.6" class="st0" width="21.6" height="21.6"/>
<rect x="597.5" y="609.8" class="st0" width="21.6" height="21.6"/>
<rect x="597.5" y="572.9" class="st0" width="21.6" height="21.6"/>
<rect x="597.5" y="536" class="st0" width="21.6" height="21.6"/>
<rect x="597.5" y="499.1" class="st0" width="21.6" height="21.6"/>
<rect x="486.9" y="572.9" class="st0" width="21.6" height="21.6"/>
<rect x="339.4" y="757.3" class="st0" width="21.6" height="21.6"/>
<rect x="302.6" y="757.3" class="st0" width="21.6" height="21.6"/>
<rect x="781.9" y="831" class="st0" width="21.6" height="21.6"/>
<rect x="781.9" y="720.4" class="st0" width="21.6" height="21.6"/>
<rect x="781.9" y="425.4" class="st0" width="21.6" height="21.6"/>
<rect x="781.9" y="462.3" class="st0" width="21.6" height="21.6"/>
<rect x="781.9" y="499.1" class="st0" width="21.6" height="21.6"/>
<rect x="781.9" y="536" class="st0" width="21.6" height="21.6"/>
<rect x="781.9" y="572.9" class="st0" width="21.6" height="21.6"/>
<rect x="781.9" y="609.8" class="st0" width="21.6" height="21.6"/>
<rect x="818.8" y="646.6" class="st0" width="21.6" height="21.6"/>
<rect x="781.9" y="646.6" class="st0" width="21.6" height="21.6"/>
<rect x="818.8" y="683.5" class="st0" width="21.6" height="21.6"/>
<rect x="781.9" y="683.5" class="st0" width="21.6" height="21.6"/>
<rect x="818.8" y="720.4" class="st0" width="21.6" height="21.6"/>
<polyline class="st0" points="418.4,631.4 434.8,631.4 434.8,615 "/>
<rect x="560.7" y="794.1" class="st0" width="21.6" height="21.6"/>
<polyline class="st0" points="381.5,668.2 397.9,668.2 397.9,651.9 "/>
<rect x="523.8" y="794.1" class="st0" width="21.6" height="21.6"/>
<polyline class="st0" points="344.7,705.1 361,705.1 361,688.8 "/>
<rect x="486.9" y="794.1" class="st0" width="21.6" height="21.6"/>
<polyline class="st0" points="856.8,720.4 855.7,720.4 855.7,742 860.5,742 "/>
<polyline class="st0" points="307.8,742 324.2,742 324.2,725.6 "/>
<rect x="450.1" y="794.1" class="st0" width="21.6" height="21.6"/>
<polyline class="st0" points="863.1,757.3 855.7,757.3 855.7,778.9 866.8,778.9 "/>
<polyline class="st0" points="270.9,778.9 287.3,778.9 287.3,762.5 "/>
<rect x="413.2" y="794.1" class="st0" width="21.6" height="21.6"/>
<polyline class="st0" points="869.4,794.1 855.7,794.1 855.7,815.7 873.1,815.7 "/>
<polyline class="st0" points="397.9,815.7 397.9,794.1 376.3,794.1 376.3,812 "/>
<polyline class="st0" points="361,809.4 361,794.1 339.4,794.1 339.4,805.7 "/>
<polyline class="st0" points="324.2,803.1 324.2,794.1 302.6,794.1 302.6,799.4 "/>
<polyline class="st0" points="287.3,796.8 287.3,794.1 272,794.1 "/>
<polyline class="st0" points="875.7,831 855.7,831 855.7,852.6 877.3,852.6 877.3,839.9 "/>
<polyline class="st0" points="612.8,852.6 619.2,852.6 619.2,831 597.5,831 597.5,850 "/>
<polyline class="st0" points="582.3,847.4 582.3,831 560.7,831 560.7,843.7 "/>
<polyline class="st0" points="545.4,841 545.4,831 523.8,831 523.8,837.3 "/>
<polyline class="st0" points="508.5,834.7 508.5,831 486.9,831 "/>
<polyline class="st0" points="827.7,889.5 840.4,889.5 840.4,867.9 818.8,867.9 818.8,887.9 "/>
<polyline class="st0" points="818.8,887.9 818.8,889.5 827.7,889.5 "/>
<polyline class="st0" points="803.5,885.3 803.5,867.9 781.9,867.9 781.9,881.6 "/>
<polyline class="st0" points="766.6,879 766.6,867.9 745,867.9 745,875.3 "/>
<polyline class="st0" points="729.8,872.7 729.8,867.9 708.2,867.9 708.2,869 "/>
<rect x="818.8" y="831" class="st0" width="21.6" height="21.6"/>
<rect x="745" y="831" class="st0" width="21.6" height="21.6"/>
<rect x="708.2" y="831" class="st0" width="21.6" height="21.6"/>
<rect x="671.3" y="831" class="st0" width="21.6" height="21.6"/>
<rect x="634.4" y="831" class="st0" width="21.6" height="21.6"/>
<rect x="855.7" y="867.9" class="st0" width="21.6" height="21.6"/>
<rect x="745" y="314.8" class="st0" width="21.6" height="21.6"/>
<rect x="745" y="351.7" class="st0" width="21.6" height="21.6"/>
<rect x="708.2" y="351.7" class="st0" width="21.6" height="21.6"/>
<rect x="745" y="388.5" class="st0" width="21.6" height="21.6"/>
<rect x="708.2" y="388.5" class="st0" width="21.6" height="21.6"/>
<rect x="671.3" y="388.5" class="st0" width="21.6" height="21.6"/>
<rect x="745" y="425.4" class="st0" width="21.6" height="21.6"/>
<rect x="708.2" y="425.4" class="st0" width="21.6" height="21.6"/>
<rect x="671.3" y="425.4" class="st0" width="21.6" height="21.6"/>
<rect x="634.4" y="425.4" class="st0" width="21.6" height="21.6"/>
<rect x="745" y="462.3" class="st0" width="21.6" height="21.6"/>
<rect x="708.2" y="462.3" class="st0" width="21.6" height="21.6"/>
<rect x="671.3" y="462.3" class="st0" width="21.6" height="21.6"/>
<rect x="634.4" y="462.3" class="st0" width="21.6" height="21.6"/>
<rect x="597.5" y="462.3" class="st0" width="21.6" height="21.6"/>
<rect x="745" y="499.1" class="st0" width="21.6" height="21.6"/>
<rect x="708.2" y="499.1" class="st0" width="21.6" height="21.6"/>
<rect x="671.3" y="499.1" class="st0" width="21.6" height="21.6"/>
<rect x="634.4" y="499.1" class="st0" width="21.6" height="21.6"/>
<rect x="560.7" y="499.1" class="st0" width="21.6" height="21.6"/>
<rect x="745" y="536" class="st0" width="21.6" height="21.6"/>
<rect x="708.2" y="536" class="st0" width="21.6" height="21.6"/>
<rect x="671.3" y="536" class="st0" width="21.6" height="21.6"/>
<rect x="634.4" y="536" class="st0" width="21.6" height="21.6"/>
<rect x="560.7" y="536" class="st0" width="21.6" height="21.6"/>
<rect x="523.8" y="536" class="st0" width="21.6" height="21.6"/>
<rect x="745" y="572.9" class="st0" width="21.6" height="21.6"/>
<rect x="708.2" y="572.9" class="st0" width="21.6" height="21.6"/>
<rect x="671.3" y="572.9" class="st0" width="21.6" height="21.6"/>
<rect x="634.4" y="572.9" class="st0" width="21.6" height="21.6"/>
<rect x="560.7" y="572.9" class="st0" width="21.6" height="21.6"/>
<rect x="523.8" y="572.9" class="st0" width="21.6" height="21.6"/>
<polyline class="st0" points="781.9,284.2 781.9,299.5 784.5,299.5 "/>
<polyline class="st0" points="750.3,299.5 766.6,299.5 766.6,283.1 "/>
<rect x="818.8" y="757.3" class="st0" width="21.6" height="21.6"/>
<polyline class="st0" points="787.2,314.8 781.9,314.8 781.9,336.4 790.9,336.4 "/>
<polyline class="st0" points="713.4,336.4 729.8,336.4 729.8,320 "/>
<rect x="781.9" y="757.3" class="st0" width="21.6" height="21.6"/>
<polyline class="st0" points="793.5,351.7 781.9,351.7 781.9,373.3 797.2,373.3 "/>
<polyline class="st0" points="676.5,373.3 692.9,373.3 692.9,356.9 "/>
<rect x="818.8" y="794.1" class="st0" width="21.6" height="21.6"/>
<polyline class="st0" points="799.8,388.5 781.9,388.5 781.9,410.1 803.5,410.1 803.5,410.1 "/>
<polyline class="st0" points="639.7,410.1 656,410.1 656,393.8 "/>
<rect x="781.9" y="794.1" class="st0" width="21.6" height="21.6"/>
<polyline class="st0" points="602.8,447 619.2,447 619.2,430.6 "/>
<rect x="745" y="794.1" class="st0" width="21.6" height="21.6"/>
<polyline class="st0" points="565.9,483.9 582.3,483.9 582.3,467.5 "/>
<rect x="708.2" y="794.1" class="st0" width="21.6" height="21.6"/>
<polyline class="st0" points="818.8,499.1 818.8,499.1 818.8,520.7 822.5,520.7 "/>
<polyline class="st0" points="529,520.7 545.4,520.7 545.4,504.4 "/>
<rect x="671.3" y="794.1" class="st0" width="21.6" height="21.6"/>
<polyline class="st0" points="825.1,536 818.8,536 818.8,557.6 828.8,557.6 "/>
<polyline class="st0" points="492.2,557.6 508.5,557.6 508.5,541.3 "/>
<rect x="634.4" y="794.1" class="st0" width="21.6" height="21.6"/>
<polyline class="st0" points="831.4,572.9 818.8,572.9 818.8,594.5 835.2,594.5 "/>
<polyline class="st0" points="455.3,594.5 471.7,594.5 471.7,578.1 "/>
<rect x="597.5" y="794.1" class="st0" width="21.6" height="21.6"/>
<polyline class="st0" points="837.8,609.8 818.8,609.8 818.8,631.4 840.4,631.4 840.4,625 "/>
<path d="M1022.3,1007.7c0-1.5-0.5-2.4-1.6-3.4c-0.5-0.4-1.1-0.7-1.7-0.8c-0.3-0.1-0.6-0.1-0.9-0.1c-0.3,0-0.1,0.3-0.1,0.4
	c0,0.2,0,0.3,0,0.5c0,0.6,0,1.3,0,1.9c0,0.3,0,0.6,0,1c0,0.2,0,0.3,0,0.5c0,0.1,0.1,0,0.2,0c0.1,0,0.2,0,0.2,0
	C1019.7,1007.7,1021,1007.7,1022.3,1007.7z"/>
<path d="M1013.7,372.7c0,1.5,0.5,2.4,1.6,3.4c0.5,0.4,1.1,0.7,1.7,0.8c0.3,0.1,0.6,0.1,0.9,0.1c0.3,0,0.1-0.3,0.1-0.4
	c0-0.2,0-0.3,0-0.5c0-0.6,0-1.3,0-1.9c0-0.3,0-0.6,0-1c0-0.2,0-0.3,0-0.5c0-0.1-0.1,0-0.2,0c-0.1,0-0.2,0-0.2,0
	C1016.2,372.7,1015,372.7,1013.7,372.7z"/>
<path d="M1013.7,718.3c0,1.5,0.5,2.4,1.6,3.4c0.5,0.4,1.1,0.7,1.7,0.8c0.3,0.1,0.6,0.1,0.9,0.1c0.3,0,0.1-0.3,0.1-0.4
	c0-0.2,0-0.3,0-0.5c0-0.6,0-1.3,0-1.9c0-0.3,0-0.6,0-1c0-0.2,0-0.3,0-0.5c0-0.1-0.1,0-0.2,0c-0.1,0-0.2,0-0.2,0
	C1016.2,718.3,1015,718.3,1013.7,718.3z"/>
<path d="M1022.3,718.3c0-1.5-0.5-2.4-1.6-3.4c-0.5-0.4-1.1-0.7-1.7-0.8c-0.3-0.1-0.6-0.1-0.9-0.1c-0.3,0-0.1,0.3-0.1,0.4
	c0,0.2,0,0.3,0,0.5c0,0.6,0,1.3,0,1.9c0,0.3,0,0.6,0,1c0,0.2,0,0.3,0,0.5c0,0.1,0.1,0,0.2,0c0.1,0,0.2,0,0.2,0
	C1019.7,718.3,1021,718.3,1022.3,718.3z"/>
<path d="M1013.7,649.2c0,1.5,0.5,2.4,1.6,3.4c0.5,0.4,1.1,0.7,1.7,0.8c0.3,0.1,0.6,0.1,0.9,0.1c0.3,0,0.1-0.3,0.1-0.4
	c0-0.2,0-0.3,0-0.5c0-0.6,0-1.3,0-1.9c0-0.3,0-0.6,0-1c0-0.2,0-0.3,0-0.5c0-0.1-0.1,0-0.2,0c-0.1,0-0.2,0-0.2,0
	C1016.2,649.2,1015,649.2,1013.7,649.2z"/>
<path d="M1022.3,580.1c0-1.5-0.5-2.4-1.6-3.4c-0.5-0.4-1.1-0.7-1.7-0.8c-0.3-0.1-0.6-0.1-0.9-0.1c-0.3,0-0.1,0.3-0.1,0.4
	c0,0.2,0,0.3,0,0.5c0,0.6,0,1.3,0,1.9c0,0.3,0,0.6,0,1c0,0.2,0,0.3,0,0.5c0,0.1,0.1,0,0.2,0c0.1,0,0.2,0,0.2,0
	C1019.7,580.1,1021,580.1,1022.3,580.1z"/>
<path d="M1013.7,580.1c0,1.5,0.5,2.4,1.6,3.4c0.5,0.4,1.1,0.7,1.7,0.8c0.3,0.1,0.6,0.1,0.9,0.1c0.3,0,0.1-0.3,0.1-0.4
	c0-0.2,0-0.3,0-0.5c0-0.6,0-1.3,0-1.9c0-0.3,0-0.6,0-1c0-0.2,0-0.3,0-0.5c0-0.1-0.1,0-0.2,0c-0.1,0-0.2,0-0.2,0
	C1016.2,580.1,1015,580.1,1013.7,580.1z"/>
<path d="M1022.3,510.9c0-1.5-0.5-2.4-1.6-3.4c-0.5-0.4-1.1-0.7-1.7-0.8c-0.3-0.1-0.6-0.1-0.9-0.1c-0.3,0-0.1,0.3-0.1,0.4
	c0,0.2,0,0.3,0,0.5c0,0.6,0,1.3,0,1.9c0,0.3,0,0.6,0,1c0,0.2,0,0.3,0,0.5c0,0.1,0.1,0,0.2,0c0.1,0,0.2,0,0.2,0
	C1019.7,510.9,1021,510.9,1022.3,510.9z"/>
<path d="M1022.3,372.7c0-1.5-0.5-2.4-1.6-3.4c-0.5-0.4-1.1-0.7-1.7-0.8c-0.3-0.1-0.6-0.1-0.9-0.1c-0.3,0-0.1,0.3-0.1,0.4
	c0,0.2,0,0.3,0,0.5c0,0.6,0,1.3,0,1.9c0,0.3,0,0.6,0,1c0,0.2,0,0.3,0,0.5c0,0.1,0.1,0,0.2,0c0.1,0,0.2,0,0.2,0
	C1019.7,372.7,1021,372.7,1022.3,372.7z"/>
<path d="M1022.3,787.4c0-1.5-0.5-2.4-1.6-3.4c-0.5-0.4-1.1-0.7-1.7-0.8c-0.3-0.1-0.6-0.1-0.9-0.1c-0.3,0-0.1,0.3-0.1,0.4
	c0,0.2,0,0.3,0,0.5c0,0.6,0,1.3,0,1.9c0,0.3,0,0.6,0,1c0,0.2,0,0.3,0,0.5c0,0.1,0.1,0,0.2,0c0.1,0,0.2,0,0.2,0
	C1019.7,787.4,1021,787.4,1022.3,787.4z"/>
<path d="M1013.7,1007.7c0,1.5,0.5,2.4,1.6,3.4c0.5,0.4,1.1,0.7,1.7,0.8c0.3,0.1,0.6,0.1,0.9,0.1c0.3,0,0.1-0.3,0.1-0.4
	c0-0.2,0-0.3,0-0.5c0-0.6,0-1.3,0-1.9c0-0.3,0-0.6,0-1c0-0.2,0-0.3,0-0.5c0-0.1-0.1,0-0.2,0c-0.1,0-0.2,0-0.2,0
	C1016.2,1007.7,1015,1007.7,1013.7,1007.7z"/>
<path d="M1022.3,441.8c0-1.5-0.5-2.4-1.6-3.4c-0.5-0.4-1.1-0.7-1.7-0.8c-0.3-0.1-0.6-0.1-0.9-0.1c-0.3,0-0.1,0.3-0.1,0.4
	c0,0.2,0,0.3,0,0.5c0,0.6,0,1.3,0,1.9c0,0.3,0,0.6,0,1c0,0.2,0,0.3,0,0.5c0,0.1,0.1,0,0.2,0c0.1,0,0.2,0,0.2,0
	C1019.7,441.8,1021,441.8,1022.3,441.8z"/>
<path d="M1013.7,441.8c0,1.5,0.5,2.4,1.6,3.4c0.5,0.4,1.1,0.7,1.7,0.8c0.3,0.1,0.6,0.1,0.9,0.1c0.3,0,0.1-0.3,0.1-0.4
	c0-0.2,0-0.3,0-0.5c0-0.6,0-1.3,0-1.9c0-0.3,0-0.6,0-1c0-0.2,0-0.3,0-0.5c0-0.1-0.1,0-0.2,0c-0.1,0-0.2,0-0.2,0
	C1016.2,441.8,1015,441.8,1013.7,441.8z"/>
<path d="M1013.7,510.9c0,1.5,0.5,2.4,1.6,3.4c0.5,0.4,1.1,0.7,1.7,0.8c0.3,0.1,0.6,0.1,0.9,0.1c0.3,0,0.1-0.3,0.1-0.4
	c0-0.2,0-0.3,0-0.5c0-0.6,0-1.3,0-1.9c0-0.3,0-0.6,0-1c0-0.2,0-0.3,0-0.5c0-0.1-0.1,0-0.2,0c-0.1,0-0.2,0-0.2,0
	C1016.2,510.9,1015,510.9,1013.7,510.9z"/>
<path d="M1013.7,787.4c0,1.5,0.5,2.4,1.6,3.4c0.5,0.4,1.1,0.7,1.7,0.8c0.3,0.1,0.6,0.1,0.9,0.1c0.3,0,0.1-0.3,0.1-0.4
	c0-0.2,0-0.3,0-0.5c0-0.6,0-1.3,0-1.9c0-0.3,0-0.6,0-1c0-0.2,0-0.3,0-0.5c0-0.1-0.1,0-0.2,0c-0.1,0-0.2,0-0.2,0
	C1016.2,787.4,1015,787.4,1013.7,787.4z"/>
<path d="M1022.3,649.2c0-1.5-0.5-2.4-1.6-3.4c-0.5-0.4-1.1-0.7-1.7-0.8c-0.3-0.1-0.6-0.1-0.9-0.1c-0.3,0-0.1,0.3-0.1,0.4
	c0,0.2,0,0.3,0,0.5c0,0.6,0,1.3,0,1.9c0,0.3,0,0.6,0,1c0,0.2,0,0.3,0,0.5c0,0.1,0.1,0,0.2,0c0.1,0,0.2,0,0.2,0
	C1019.7,649.2,1021,649.2,1022.3,649.2z"/>
<line class="st1" x1="1018" y1="714" x2="1018" y2="709.7"/>
<line class="st1" x1="1018" y1="1003.4" x2="1018" y2="999.1"/>
<line class="st1" x1="1018" y1="506.6" x2="1018" y2="502.3"/>
<line class="st1" x1="1026.6" y1="718.3" x2="1022.3" y2="718.3"/>
<line class="st1" x1="1026.6" y1="1007.7" x2="1022.3" y2="1007.7"/>
<path class="st1" d="M1018,714c-2.4,0-4.3,1.9-4.3,4.3"/>
<path class="st1" d="M1018,1003.4c-2.4,0-4.3,1.9-4.3,4.3"/>
<path class="st1" d="M1018,722.6c2.4,0,4.3-1.9,4.3-4.3"/>
<line class="st1" x1="1018" y1="519.6" x2="1018" y2="515.3"/>
<path class="st1" d="M1018,1012.1c2.4,0,4.3-1.9,4.3-4.3"/>
<line class="st1" x1="1013.7" y1="510.9" x2="1009.3" y2="510.9"/>
<path class="st1" d="M1018,791.7c2.4,0,4.3-1.9,4.3-4.3"/>
<path class="st1" d="M1018,783.1c-2.4,0-4.3,1.9-4.3,4.3"/>
<line class="st1" x1="1026.6" y1="787.4" x2="1022.3" y2="787.4"/>
<line class="st1" x1="1018" y1="783.1" x2="1018" y2="778.8"/>
<line class="st1" x1="1018" y1="796.1" x2="1018" y2="791.7"/>
<line class="st1" x1="1013.7" y1="787.4" x2="1009.3" y2="787.4"/>
<path class="st1" d="M1018,446.1c2.4,0,4.3-1.9,4.3-4.3"/>
<path class="st1" d="M1018,437.5c-2.4,0-4.3,1.9-4.3,4.3"/>
<line class="st1" x1="1026.6" y1="441.8" x2="1022.3" y2="441.8"/>
<line class="st1" x1="1018" y1="437.5" x2="1018" y2="433.2"/>
<line class="st1" x1="1018" y1="450.5" x2="1018" y2="446.1"/>
<line class="st1" x1="1013.7" y1="441.8" x2="1009.3" y2="441.8"/>
<path class="st1" d="M1018,377c2.4,0,4.3-1.9,4.3-4.3"/>
<path class="st1" d="M1018,584.4c2.4,0,4.3-1.9,4.3-4.3"/>
<path class="st1" d="M1018,368.4c-2.4,0-4.3,1.9-4.3,4.3"/>
<path class="st1" d="M1018,575.7c-2.4,0-4.3,1.9-4.3,4.3"/>
<line class="st1" x1="1026.6" y1="580.1" x2="1022.3" y2="580.1"/>
<line class="st1" x1="1026.6" y1="372.7" x2="1022.3" y2="372.7"/>
<line class="st1" x1="1018" y1="575.7" x2="1018" y2="571.4"/>
<line class="st1" x1="1018" y1="368.4" x2="1018" y2="364.1"/>
<line class="st1" x1="1018" y1="588.7" x2="1018" y2="584.4"/>
<path class="st1" d="M1018,653.5c2.4,0,4.3-1.9,4.3-4.3"/>
<path class="st1" d="M1018,644.9c-2.4,0-4.3,1.9-4.3,4.3"/>
<line class="st1" x1="1026.6" y1="649.2" x2="1022.3" y2="649.2"/>
<line class="st1" x1="1018" y1="644.9" x2="1018" y2="640.5"/>
<line class="st1" x1="1018" y1="657.8" x2="1018" y2="653.5"/>
<line class="st1" x1="1013.7" y1="649.2" x2="1009.3" y2="649.2"/>
<path class="st1" d="M1018,515.3c2.4,0,4.3-1.9,4.3-4.3"/>
<line class="st1" x1="1018" y1="381.3" x2="1018" y2="377"/>
<line class="st1" x1="1013.7" y1="580.1" x2="1009.3" y2="580.1"/>
<line class="st1" x1="1013.7" y1="372.7" x2="1009.3" y2="372.7"/>
<path class="st1" d="M1018,506.6c-2.4,0-4.3,1.9-4.3,4.3"/>
<line class="st1" x1="1013.7" y1="1007.7" x2="1009.3" y2="1007.7"/>
<line class="st1" x1="1013.7" y1="718.3" x2="1009.3" y2="718.3"/>
<line class="st1" x1="1018" y1="726.9" x2="1018" y2="722.6"/>
<line class="st1" x1="1026.6" y1="510.9" x2="1022.3" y2="510.9"/>
<line class="st1" x1="1018" y1="1016.4" x2="1018" y2="1012.1"/>
<g>
	<path d="M1041.5,1004.9c0-0.7,0.1-1.2,0.2-1.6c0.1-0.4,0.3-0.7,0.6-1s0.6-0.3,1-0.3c0.3,0,0.6,0.1,0.8,0.2c0.2,0.1,0.4,0.3,0.6,0.5
		s0.3,0.5,0.4,0.9c0.1,0.4,0.1,0.8,0.1,1.4c0,0.7-0.1,1.2-0.2,1.6c-0.1,0.4-0.3,0.7-0.6,1c-0.3,0.3-0.6,0.3-1,0.3
		c-0.6,0-1-0.2-1.3-0.6C1041.7,1006.8,1041.5,1006,1041.5,1004.9z M1042.2,1004.9c0,0.9,0.1,1.6,0.3,1.9s0.5,0.5,0.8,0.5
		s0.6-0.2,0.8-0.5c0.2-0.3,0.3-0.9,0.3-1.9c0-0.9-0.1-1.6-0.3-1.9c-0.2-0.3-0.5-0.5-0.8-0.5s-0.6,0.1-0.8,0.4
		C1042.3,1003.4,1042.2,1004,1042.2,1004.9z"/>
	<path d="M1046.1,1002.8v-0.8h0.8v0.6c0,0.3,0,0.6-0.1,0.8c-0.1,0.2-0.3,0.4-0.5,0.5l-0.2-0.3c0.1-0.1,0.2-0.1,0.3-0.3
		c0.1-0.2,0.1-0.3,0.1-0.5H1046.1z"/>
	<path d="M1047.7,1004.9c0-0.7,0.1-1.2,0.2-1.6c0.1-0.4,0.3-0.7,0.6-1s0.6-0.3,1-0.3c0.3,0,0.6,0.1,0.8,0.2c0.2,0.1,0.4,0.3,0.6,0.5
		c0.2,0.2,0.3,0.5,0.4,0.9c0.1,0.4,0.1,0.8,0.1,1.4c0,0.7-0.1,1.2-0.2,1.6c-0.1,0.4-0.3,0.7-0.6,1c-0.3,0.3-0.6,0.3-1,0.3
		c-0.6,0-1-0.2-1.3-0.6C1047.9,1006.8,1047.7,1006,1047.7,1004.9z M1048.4,1004.9c0,0.9,0.1,1.6,0.3,1.9s0.5,0.5,0.8,0.5
		s0.6-0.2,0.8-0.5s0.3-0.9,0.3-1.9c0-0.9-0.1-1.6-0.3-1.9s-0.5-0.5-0.8-0.5s-0.6,0.1-0.8,0.4
		C1048.5,1003.4,1048.4,1004,1048.4,1004.9z"/>
	<path d="M1052.1,1002.8v-0.8h0.8v0.6c0,0.3,0,0.6-0.1,0.8c-0.1,0.2-0.3,0.4-0.5,0.5l-0.2-0.3c0.1-0.1,0.2-0.1,0.3-0.3
		c0.1-0.2,0.1-0.3,0.1-0.5H1052.1z M1053.4,1002.8v-0.8h0.8v0.6c0,0.3,0,0.6-0.1,0.8c-0.1,0.2-0.3,0.4-0.5,0.5l-0.2-0.3
		c0.1-0.1,0.2-0.1,0.3-0.3s0.1-0.3,0.1-0.5H1053.4z"/>
</g>
<g>
	<path d="M1041.5,786l0.7-0.1c0.1,0.4,0.2,0.6,0.4,0.8c0.2,0.2,0.4,0.3,0.7,0.3s0.6-0.1,0.9-0.4c0.3-0.3,0.4-0.6,0.4-1
		c0-0.4-0.1-0.7-0.3-0.9s-0.5-0.3-0.9-0.3c-0.2,0-0.4,0.1-0.6,0.2c-0.2,0.1-0.3,0.2-0.4,0.4l-0.7-0.1l0.6-2.9h2.8v0.7h-2.3l-0.3,1.5
		c0.3-0.2,0.7-0.4,1.1-0.4c0.5,0,0.9,0.2,1.3,0.5c0.4,0.3,0.5,0.8,0.5,1.3s-0.2,1-0.5,1.3c-0.4,0.5-0.9,0.7-1.5,0.7
		c-0.5,0-0.9-0.1-1.3-0.4C1041.7,786.9,1041.5,786.4,1041.5,786z"/>
	<path d="M1048.6,787.5h-0.7V783c-0.2,0.2-0.4,0.3-0.7,0.5s-0.5,0.3-0.7,0.4v-0.7c0.4-0.2,0.7-0.4,1-0.7s0.5-0.5,0.6-0.8h0.5V787.5
		L1048.6,787.5z"/>
	<path d="M1050.5,782.5v-0.8h0.8v0.6c0,0.3,0,0.6-0.1,0.8c-0.1,0.2-0.3,0.4-0.5,0.5l-0.2-0.3c0.1-0.1,0.2-0.1,0.3-0.3
		c0.1-0.2,0.1-0.3,0.1-0.5H1050.5z"/>
	<path d="M1052.1,784.6c0-0.7,0.1-1.2,0.2-1.6c0.1-0.4,0.3-0.7,0.6-1c0.3-0.3,0.6-0.3,1-0.3c0.3,0,0.6,0.1,0.8,0.2
		c0.2,0.1,0.4,0.3,0.6,0.5c0.2,0.2,0.3,0.5,0.4,0.9c0.1,0.4,0.1,0.8,0.1,1.4c0,0.7-0.1,1.2-0.2,1.6c-0.1,0.4-0.3,0.7-0.6,1
		s-0.6,0.3-1,0.3c-0.6,0-1-0.2-1.3-0.6C1052.3,786.5,1052.1,785.7,1052.1,784.6z M1052.9,784.6c0,0.9,0.1,1.6,0.3,1.9
		s0.5,0.5,0.8,0.5s0.6-0.2,0.8-0.5s0.3-0.9,0.3-1.9c0-0.9-0.1-1.6-0.3-1.9s-0.5-0.5-0.8-0.5s-0.6,0.1-0.8,0.4
		C1053,783.1,1052.9,783.7,1052.9,784.6z"/>
	<path d="M1056.6,782.5v-0.8h0.8v0.6c0,0.3,0,0.6-0.1,0.8c-0.1,0.2-0.3,0.4-0.5,0.5l-0.2-0.3c0.1-0.1,0.2-0.1,0.3-0.3
		c0.1-0.2,0.1-0.3,0.1-0.5H1056.6z M1057.8,782.5v-0.8h0.8v0.6c0,0.3,0,0.6-0.1,0.8c-0.1,0.2-0.3,0.4-0.5,0.5l-0.2-0.3
		c0.1-0.1,0.2-0.1,0.3-0.3c0.1-0.2,0.1-0.3,0.1-0.5H1057.8z"/>
</g>
<g>
	<path d="M1045.1,713.9l-0.7,0.1c-0.1-0.3-0.2-0.5-0.3-0.6c-0.2-0.2-0.4-0.3-0.7-0.3c-0.2,0-0.4,0.1-0.6,0.2
		c-0.2,0.2-0.4,0.4-0.5,0.7c-0.1,0.3-0.2,0.8-0.2,1.3c0.2-0.3,0.4-0.4,0.6-0.6s0.5-0.2,0.8-0.2c0.5,0,0.9,0.2,1.2,0.5
		s0.5,0.8,0.5,1.3c0,0.4-0.1,0.7-0.2,1s-0.4,0.5-0.6,0.7c-0.2,0.2-0.6,0.2-0.9,0.2c-0.6,0-1.1-0.2-1.4-0.6c-0.3-0.4-0.6-1.1-0.6-2.1
		c0-1.1,0.2-1.9,0.6-2.4c0.4-0.4,0.8-0.7,1.4-0.7c0.5,0,0.8,0.1,1.1,0.4C1044.9,713.1,1045.1,713.5,1045.1,713.9z M1042.2,716.4
		c0,0.2,0.1,0.5,0.2,0.7c0.1,0.2,0.2,0.4,0.4,0.5c0.2,0.1,0.4,0.2,0.6,0.2c0.3,0,0.6-0.1,0.8-0.4c0.2-0.3,0.3-0.6,0.3-1
		c0-0.4-0.1-0.7-0.3-0.9s-0.5-0.3-0.8-0.3c-0.3,0-0.6,0.1-0.8,0.3S1042.2,716,1042.2,716.4z"/>
	<path d="M1046,713.3v-0.7h3.7v0.5c-0.4,0.4-0.7,0.9-1.1,1.5c-0.4,0.6-0.6,1.3-0.8,2c-0.1,0.5-0.2,1-0.3,1.6h-0.7
		c0-0.5,0.1-1,0.3-1.6c0.2-0.6,0.4-1.3,0.7-1.8s0.7-1.1,1-1.5H1046z"/>
	<path d="M1050.5,713.3v-0.8h0.8v0.6c0,0.3,0,0.6-0.1,0.8c-0.1,0.2-0.3,0.4-0.5,0.5l-0.2-0.3c0.1-0.1,0.2-0.1,0.3-0.3
		c0.1-0.2,0.1-0.3,0.1-0.5H1050.5z"/>
	<path d="M1052.1,715.4c0-0.7,0.1-1.2,0.2-1.6c0.1-0.4,0.3-0.7,0.6-1c0.3-0.3,0.6-0.3,1-0.3c0.3,0,0.6,0.1,0.8,0.2
		c0.2,0.1,0.4,0.3,0.6,0.5s0.3,0.5,0.4,0.9c0.1,0.4,0.1,0.8,0.1,1.4c0,0.7-0.1,1.2-0.2,1.6c-0.1,0.4-0.3,0.7-0.6,1
		c-0.3,0.3-0.6,0.3-1,0.3c-0.6,0-1-0.2-1.3-0.6C1052.3,717.3,1052.1,716.5,1052.1,715.4z M1052.9,715.4c0,0.9,0.1,1.6,0.3,1.9
		s0.5,0.5,0.8,0.5s0.6-0.2,0.8-0.5s0.3-0.9,0.3-1.9c0-0.9-0.1-1.6-0.3-1.9s-0.5-0.5-0.8-0.5s-0.6,0.1-0.8,0.4
		C1053,713.8,1052.9,714.5,1052.9,715.4z"/>
	<path d="M1056.6,713.3v-0.8h0.8v0.6c0,0.3,0,0.6-0.1,0.8c-0.1,0.2-0.3,0.4-0.5,0.5l-0.2-0.3c0.1-0.1,0.2-0.1,0.3-0.3
		c0.1-0.2,0.1-0.3,0.1-0.5H1056.6z M1057.8,713.3v-0.8h0.8v0.6c0,0.3,0,0.6-0.1,0.8c-0.1,0.2-0.3,0.4-0.5,0.5l-0.2-0.3
		c0.1-0.1,0.2-0.1,0.3-0.3c0.1-0.2,0.1-0.3,0.1-0.5H1057.8z"/>
</g>
<g>
	<path d="M1042.5,646c-0.3-0.1-0.5-0.3-0.6-0.5c-0.1-0.2-0.2-0.4-0.2-0.7c0-0.4,0.1-0.8,0.4-1.1c0.3-0.3,0.7-0.4,1.2-0.4
		s0.9,0.1,1.2,0.4s0.5,0.6,0.5,1.1c0,0.3-0.1,0.5-0.2,0.7c-0.1,0.2-0.4,0.3-0.6,0.5c0.4,0.1,0.6,0.3,0.8,0.6
		c0.2,0.3,0.3,0.6,0.3,0.9c0,0.5-0.2,0.9-0.5,1.2c-0.3,0.3-0.8,0.5-1.4,0.5c-0.6,0-1-0.2-1.4-0.5s-0.5-0.8-0.5-1.3
		c0-0.4,0.1-0.7,0.3-0.9S1042.2,646.1,1042.5,646z M1042.2,647.5c0,0.2,0,0.4,0.1,0.6c0.1,0.2,0.2,0.3,0.4,0.4s0.4,0.2,0.6,0.2
		c0.3,0,0.6-0.1,0.8-0.3c0.2-0.2,0.3-0.5,0.3-0.8c0-0.3-0.1-0.6-0.3-0.8c-0.2-0.2-0.5-0.3-0.8-0.3s-0.6,0.1-0.8,0.3
		S1042.2,647.1,1042.2,647.5z M1042.4,644.8c0,0.3,0.1,0.5,0.3,0.7s0.4,0.3,0.7,0.3c0.3,0,0.5-0.1,0.7-0.3c0.2-0.2,0.3-0.4,0.3-0.6
		c0-0.3-0.1-0.5-0.3-0.7c-0.2-0.2-0.4-0.3-0.7-0.3c-0.3,0-0.5,0.1-0.7,0.3S1042.4,644.6,1042.4,644.8z"/>
	<path d="M1045.9,647.6l0.7-0.1c0.1,0.4,0.2,0.7,0.4,0.9c0.2,0.2,0.4,0.3,0.7,0.3s0.6-0.1,0.8-0.3c0.2-0.2,0.3-0.5,0.3-0.9
		c0-0.3-0.1-0.6-0.3-0.8s-0.5-0.3-0.8-0.3c-0.1,0-0.3,0-0.5,0.1l0.1-0.6h0.1c0.3,0,0.6-0.1,0.8-0.2c0.2-0.1,0.4-0.4,0.4-0.7
		s-0.1-0.5-0.3-0.6c-0.2-0.1-0.4-0.3-0.7-0.3c-0.3,0-0.5,0.1-0.7,0.3c-0.2,0.2-0.3,0.4-0.4,0.8l-0.7-0.1c0.1-0.5,0.3-0.8,0.6-1.1
		c0.3-0.3,0.7-0.4,1.1-0.4c0.3,0,0.6,0.1,0.9,0.2c0.3,0.1,0.5,0.3,0.6,0.5s0.2,0.5,0.2,0.7s-0.1,0.5-0.2,0.7s-0.3,0.4-0.6,0.5
		c0.3,0.1,0.6,0.2,0.8,0.5s0.3,0.6,0.3,0.9c0,0.5-0.2,0.9-0.5,1.3c-0.3,0.4-0.8,0.5-1.4,0.5c-0.5,0-0.9-0.1-1.3-0.4
		C1045.9,648.7,1046,648.1,1045.9,647.6z"/>
	<path d="M1050.5,644.2v-0.8h0.8v0.6c0,0.3,0,0.6-0.1,0.8c-0.1,0.2-0.3,0.4-0.5,0.5l-0.2-0.3c0.1-0.1,0.2-0.1,0.3-0.3
		c0.1-0.2,0.1-0.3,0.1-0.5H1050.5z"/>
	<path d="M1052.1,646.3c0-0.7,0.1-1.2,0.2-1.6c0.1-0.4,0.3-0.7,0.6-1c0.3-0.3,0.6-0.3,1-0.3c0.3,0,0.6,0.1,0.8,0.2
		c0.2,0.1,0.4,0.3,0.6,0.5c0.2,0.2,0.3,0.5,0.4,0.9c0.1,0.4,0.1,0.8,0.1,1.4c0,0.7-0.1,1.2-0.2,1.6c-0.1,0.4-0.3,0.7-0.6,1
		s-0.6,0.3-1,0.3c-0.6,0-1-0.2-1.3-0.6C1052.3,648.1,1052.1,647.4,1052.1,646.3z M1052.9,646.3c0,0.9,0.1,1.6,0.3,1.9
		s0.5,0.5,0.8,0.5s0.6-0.2,0.8-0.5s0.3-0.9,0.3-1.9c0-0.9-0.1-1.6-0.3-1.9c-0.2-0.3-0.5-0.5-0.8-0.5s-0.6,0.1-0.8,0.4
		C1053,644.7,1052.9,645.4,1052.9,646.3z"/>
	<path d="M1056.6,644.2v-0.8h0.8v0.6c0,0.3,0,0.6-0.1,0.8c-0.1,0.2-0.3,0.4-0.5,0.5l-0.2-0.3c0.1-0.1,0.2-0.1,0.3-0.3
		c0.1-0.2,0.1-0.3,0.1-0.5H1056.6z M1057.8,644.2v-0.8h0.8v0.6c0,0.3,0,0.6-0.1,0.8s-0.3,0.4-0.5,0.5l-0.2-0.3
		c0.1-0.1,0.2-0.1,0.3-0.3c0.1-0.2,0.1-0.3,0.1-0.5H1057.8z"/>
</g>
<g>
	<path d="M1041.6,578.8l0.7-0.1c0.1,0.3,0.2,0.5,0.3,0.7c0.2,0.1,0.4,0.2,0.6,0.2s0.4,0,0.6-0.1s0.3-0.2,0.4-0.4
		c0.1-0.2,0.2-0.4,0.3-0.7c0.1-0.3,0.1-0.6,0.1-0.9v-0.1c-0.1,0.2-0.3,0.4-0.6,0.5c-0.2,0.1-0.5,0.2-0.8,0.2c-0.5,0-0.9-0.2-1.2-0.5
		c-0.3-0.3-0.5-0.8-0.5-1.4c0-0.6,0.2-1,0.5-1.4c0.3-0.4,0.8-0.5,1.3-0.5c0.4,0,0.7,0.1,1,0.3c0.3,0.2,0.5,0.5,0.7,0.9
		s0.2,0.9,0.2,1.6c0,0.7-0.1,1.3-0.2,1.7c-0.1,0.4-0.4,0.8-0.7,1s-0.7,0.3-1.1,0.3c-0.4,0-0.8-0.1-1.1-0.4
		C1041.8,579.6,1041.6,579.2,1041.6,578.8z M1044.5,576.3c0-0.4-0.1-0.7-0.3-1c-0.2-0.2-0.5-0.4-0.8-0.4c-0.3,0-0.6,0.1-0.8,0.4
		c-0.2,0.3-0.3,0.6-0.3,1c0,0.4,0.1,0.7,0.3,0.9s0.5,0.3,0.8,0.3c0.3,0,0.6-0.1,0.8-0.3C1044.3,577,1044.5,576.7,1044.5,576.3z"/>
	<path d="M1046,578.8l0.7-0.1c0.1,0.3,0.2,0.5,0.3,0.7c0.2,0.1,0.4,0.2,0.6,0.2c0.2,0,0.4,0,0.6-0.1s0.3-0.2,0.4-0.4
		c0.1-0.2,0.2-0.4,0.3-0.7c0.1-0.3,0.1-0.6,0.1-0.9v-0.1c-0.1,0.2-0.3,0.4-0.6,0.5c-0.2,0.1-0.5,0.2-0.8,0.2c-0.5,0-0.9-0.2-1.2-0.5
		c-0.3-0.3-0.5-0.8-0.5-1.4c0-0.6,0.2-1,0.5-1.4c0.3-0.4,0.8-0.5,1.3-0.5c0.4,0,0.7,0.1,1,0.3c0.3,0.2,0.5,0.5,0.7,0.9
		c0.2,0.4,0.2,0.9,0.2,1.6c0,0.7-0.1,1.3-0.2,1.7c-0.1,0.4-0.4,0.8-0.7,1s-0.7,0.3-1.1,0.3c-0.4,0-0.8-0.1-1.1-0.4
		C1046.2,579.6,1046.1,579.2,1046,578.8z M1048.9,576.3c0-0.4-0.1-0.7-0.3-1c-0.2-0.2-0.5-0.4-0.8-0.4s-0.6,0.1-0.8,0.4
		s-0.3,0.6-0.3,1c0,0.4,0.1,0.7,0.3,0.9s0.5,0.3,0.8,0.3s0.6-0.1,0.8-0.3C1048.8,577,1048.9,576.7,1048.9,576.3z"/>
	<path d="M1050.5,575.1v-0.8h0.8v0.6c0,0.3,0,0.6-0.1,0.8c-0.1,0.2-0.3,0.4-0.5,0.5l-0.2-0.3c0.1-0.1,0.2-0.1,0.3-0.3
		c0.1-0.1,0.1-0.3,0.1-0.5H1050.5z"/>
	<path d="M1052.1,577.3c0-0.7,0.1-1.2,0.2-1.6c0.1-0.4,0.3-0.7,0.6-1c0.3-0.2,0.6-0.3,1-0.3c0.3,0,0.6,0.1,0.8,0.2
		c0.2,0.1,0.4,0.3,0.6,0.5c0.2,0.2,0.3,0.5,0.4,0.9c0.1,0.3,0.1,0.8,0.1,1.4c0,0.7-0.1,1.2-0.2,1.6c-0.1,0.4-0.3,0.7-0.6,1
		c-0.3,0.2-0.6,0.3-1,0.3c-0.6,0-1-0.2-1.3-0.6C1052.3,579.1,1052.1,578.4,1052.1,577.3z M1052.9,577.3c0,0.9,0.1,1.6,0.3,1.9
		s0.5,0.5,0.8,0.5s0.6-0.2,0.8-0.5s0.3-0.9,0.3-1.9c0-0.9-0.1-1.6-0.3-1.9c-0.2-0.3-0.5-0.5-0.8-0.5s-0.6,0.1-0.8,0.4
		C1053,575.7,1052.9,576.3,1052.9,577.3z"/>
	<path d="M1056.6,575.1v-0.8h0.8v0.6c0,0.3,0,0.6-0.1,0.8c-0.1,0.2-0.3,0.4-0.5,0.5l-0.2-0.3c0.1-0.1,0.2-0.1,0.3-0.3
		c0.1-0.1,0.1-0.3,0.1-0.5H1056.6z M1057.8,575.1v-0.8h0.8v0.6c0,0.3,0,0.6-0.1,0.8s-0.3,0.4-0.5,0.5l-0.2-0.3
		c0.1-0.1,0.2-0.1,0.3-0.3c0.1-0.1,0.1-0.3,0.1-0.5H1057.8z"/>
</g>
<g>
	<path d="M1044.1,511h-0.7v-4.5c-0.2,0.2-0.4,0.3-0.7,0.5s-0.5,0.3-0.7,0.4v-0.7c0.4-0.2,0.7-0.4,1-0.7s0.5-0.5,0.6-0.8h0.5V511
		L1044.1,511z"/>
	<path d="M1048,511h-0.7v-4.5c-0.2,0.2-0.4,0.3-0.7,0.5c-0.3,0.2-0.5,0.3-0.7,0.4v-0.7c0.4-0.2,0.7-0.4,1-0.7
		c0.3-0.3,0.5-0.5,0.6-0.8h0.5V511L1048,511z"/>
	<path d="M1049.8,509.5l0.7-0.1c0.1,0.4,0.2,0.6,0.4,0.8c0.2,0.2,0.4,0.3,0.7,0.3c0.3,0,0.6-0.1,0.9-0.4c0.2-0.3,0.4-0.6,0.4-1
		c0-0.4-0.1-0.7-0.3-0.9c-0.2-0.2-0.5-0.3-0.9-0.3c-0.2,0-0.4,0.1-0.6,0.2c-0.2,0.1-0.3,0.2-0.4,0.4l-0.7-0.1l0.6-2.9h2.8v0.7h-2.3
		l-0.3,1.5c0.3-0.2,0.7-0.4,1.1-0.4c0.5,0,0.9,0.2,1.3,0.5c0.3,0.3,0.5,0.8,0.5,1.3s-0.2,1-0.5,1.3c-0.4,0.5-0.9,0.7-1.5,0.7
		c-0.5,0-0.9-0.1-1.3-0.4C1050,510.4,1049.8,510,1049.8,509.5z"/>
	<path d="M1054.4,506v-0.8h0.8v0.6c0,0.3,0,0.6-0.1,0.8c-0.1,0.2-0.3,0.4-0.5,0.5l-0.2-0.3c0.1-0.1,0.2-0.1,0.3-0.3
		c0.1-0.1,0.1-0.3,0.1-0.5H1054.4L1054.4,506z"/>
	<path d="M1056,508.2c0-0.7,0.1-1.2,0.2-1.6c0.1-0.4,0.3-0.7,0.6-1c0.3-0.2,0.6-0.3,1-0.3c0.3,0,0.6,0.1,0.8,0.2
		c0.2,0.1,0.4,0.3,0.6,0.5s0.3,0.5,0.4,0.9c0.1,0.3,0.1,0.8,0.1,1.4c0,0.7-0.1,1.2-0.2,1.6c-0.1,0.4-0.3,0.7-0.6,1
		c-0.3,0.2-0.6,0.3-1,0.3c-0.6,0-1-0.2-1.3-0.6C1056.2,510,1056,509.2,1056,508.2z M1056.7,508.2c0,0.9,0.1,1.6,0.3,1.9
		c0.2,0.3,0.5,0.5,0.8,0.5s0.6-0.2,0.8-0.5c0.2-0.3,0.3-0.9,0.3-1.9c0-0.9-0.1-1.6-0.3-1.9c-0.2-0.3-0.5-0.5-0.8-0.5
		s-0.6,0.1-0.8,0.4C1056.8,506.6,1056.7,507.2,1056.7,508.2z"/>
	<path d="M1060.5,506v-0.8h0.8v0.6c0,0.3,0,0.6-0.1,0.8c-0.1,0.2-0.3,0.4-0.5,0.5l-0.2-0.3c0.1-0.1,0.2-0.1,0.3-0.3
		c0.1-0.1,0.1-0.3,0.1-0.5H1060.5L1060.5,506z M1061.7,506v-0.8h0.8v0.6c0,0.3,0,0.6-0.1,0.8c-0.1,0.2-0.3,0.4-0.5,0.5l-0.2-0.3
		c0.1-0.1,0.2-0.1,0.3-0.3c0.1-0.1,0.1-0.3,0.1-0.5H1061.7L1061.7,506z"/>
</g>
<g>
	<path d="M1044.1,441.9h-0.7v-4.5c-0.2,0.2-0.4,0.3-0.7,0.5c-0.3,0.2-0.5,0.3-0.7,0.4v-0.7c0.4-0.2,0.7-0.4,1-0.7
		c0.3-0.3,0.5-0.5,0.6-0.8h0.5V441.9L1044.1,441.9z"/>
	<path d="M1045.9,440.4l0.7-0.1c0.1,0.4,0.2,0.7,0.4,0.9s0.4,0.3,0.7,0.3s0.6-0.1,0.8-0.3s0.3-0.5,0.3-0.9c0-0.3-0.1-0.6-0.3-0.8
		s-0.5-0.3-0.8-0.3c-0.1,0-0.3,0-0.5,0.1l0.1-0.6h0.1c0.3,0,0.6-0.1,0.8-0.2s0.4-0.4,0.4-0.7s-0.1-0.5-0.3-0.6
		c-0.2-0.2-0.4-0.3-0.7-0.3c-0.3,0-0.5,0.1-0.7,0.3c-0.2,0.2-0.3,0.4-0.4,0.8l-0.7-0.1c0.1-0.5,0.3-0.8,0.6-1.1
		c0.3-0.3,0.7-0.4,1.1-0.4c0.3,0,0.6,0.1,0.9,0.2c0.3,0.1,0.5,0.3,0.6,0.5c0.1,0.2,0.2,0.5,0.2,0.7s-0.1,0.5-0.2,0.7
		s-0.3,0.4-0.6,0.5c0.3,0.1,0.6,0.2,0.8,0.5s0.3,0.6,0.3,0.9c0,0.5-0.2,0.9-0.5,1.3c-0.3,0.4-0.8,0.5-1.4,0.5
		c-0.5,0-0.9-0.1-1.3-0.4C1046.2,441.2,1046,440.8,1045.9,440.4z"/>
	<path d="M1053,441.9h-0.7v-4.5c-0.2,0.2-0.4,0.3-0.7,0.5c-0.3,0.2-0.5,0.3-0.7,0.4v-0.7c0.4-0.2,0.7-0.4,1-0.7
		c0.3-0.3,0.5-0.5,0.6-0.8h0.5V441.9L1053,441.9z"/>
	<path d="M1055,436.9v-0.8h0.8v0.6c0,0.3,0,0.6-0.1,0.8c-0.1,0.2-0.3,0.4-0.5,0.5l-0.2-0.3c0.1-0.1,0.2-0.1,0.3-0.3
		c0.1-0.1,0.1-0.3,0.1-0.5H1055L1055,436.9z"/>
	<path d="M1056.6,439c0-0.7,0.1-1.2,0.2-1.6c0.1-0.4,0.3-0.7,0.6-1c0.3-0.2,0.6-0.3,1-0.3c0.3,0,0.6,0.1,0.8,0.2
		c0.2,0.1,0.4,0.3,0.6,0.5s0.3,0.5,0.4,0.9c0.1,0.3,0.1,0.8,0.1,1.4c0,0.7-0.1,1.2-0.2,1.6c-0.1,0.4-0.3,0.7-0.6,1
		c-0.3,0.2-0.6,0.3-1,0.3c-0.6,0-1-0.2-1.3-0.6C1056.8,440.9,1056.6,440.1,1056.6,439z M1057.3,439c0,0.9,0.1,1.6,0.3,1.9
		c0.2,0.3,0.5,0.5,0.8,0.5c0.3,0,0.6-0.2,0.8-0.5c0.2-0.3,0.3-0.9,0.3-1.9c0-0.9-0.1-1.6-0.3-1.9c-0.2-0.3-0.5-0.5-0.8-0.5
		c-0.3,0-0.6,0.1-0.8,0.4C1057.4,437.5,1057.3,438.1,1057.3,439z"/>
	<path d="M1061,436.9v-0.8h0.8v0.6c0,0.3,0,0.6-0.1,0.8c-0.1,0.2-0.3,0.4-0.5,0.5l-0.2-0.3c0.1-0.1,0.2-0.1,0.3-0.3
		c0.1-0.1,0.1-0.3,0.1-0.5H1061L1061,436.9z M1062.3,436.9v-0.8h0.8v0.6c0,0.3,0,0.6-0.1,0.8s-0.3,0.4-0.5,0.5l-0.2-0.3
		c0.1-0.1,0.2-0.1,0.3-0.3c0.1-0.1,0.1-0.3,0.1-0.5H1062.3L1062.3,436.9z"/>
</g>
<g>
	<path d="M1044.1,372.7h-0.7v-4.5c-0.2,0.2-0.4,0.3-0.7,0.5c-0.3,0.2-0.5,0.3-0.7,0.4v-0.7c0.4-0.2,0.7-0.4,1-0.7
		c0.3-0.3,0.5-0.5,0.6-0.8h0.5V372.7L1044.1,372.7z"/>
	<path d="M1048.2,372.7v-1.4h-2.5v-0.6l2.6-3.7h0.6v3.7h0.8v0.6h-0.8v1.4H1048.2z M1048.2,370.7v-2.6l-1.8,2.6H1048.2z"/>
	<path d="M1050.4,367.8v-0.7h3.7v0.5c-0.4,0.4-0.7,0.9-1.1,1.5s-0.6,1.3-0.8,2c-0.1,0.5-0.2,1-0.3,1.6h-0.7c0-0.5,0.1-1,0.3-1.6
		s0.4-1.3,0.7-1.8c0.3-0.6,0.7-1.1,1-1.5H1050.4z"/>
	<path d="M1055,367.8V367h0.8v0.6c0,0.3,0,0.6-0.1,0.8c-0.1,0.2-0.3,0.4-0.5,0.5l-0.2-0.3c0.1-0.1,0.2-0.1,0.3-0.3
		c0.1-0.1,0.1-0.3,0.1-0.5H1055L1055,367.8z"/>
	<path d="M1056.6,369.9c0-0.7,0.1-1.2,0.2-1.6c0.1-0.4,0.3-0.7,0.6-1c0.3-0.2,0.6-0.3,1-0.3c0.3,0,0.6,0.1,0.8,0.2
		c0.2,0.1,0.4,0.3,0.6,0.5c0.2,0.2,0.3,0.5,0.4,0.9c0.1,0.3,0.1,0.8,0.1,1.4c0,0.7-0.1,1.2-0.2,1.6c-0.1,0.4-0.3,0.7-0.6,1
		c-0.3,0.2-0.6,0.3-1,0.3c-0.6,0-1-0.2-1.3-0.6C1056.8,371.8,1056.6,371,1056.6,369.9z M1057.3,369.9c0,0.9,0.1,1.6,0.3,1.9
		c0.2,0.3,0.5,0.5,0.8,0.5c0.3,0,0.6-0.2,0.8-0.5c0.2-0.3,0.3-0.9,0.3-1.9c0-0.9-0.1-1.6-0.3-1.9s-0.5-0.5-0.8-0.5
		c-0.3,0-0.6,0.1-0.8,0.4C1057.4,368.3,1057.3,369,1057.3,369.9z"/>
	<path d="M1061,367.8V367h0.8v0.6c0,0.3,0,0.6-0.1,0.8c-0.1,0.2-0.3,0.4-0.5,0.5l-0.2-0.3c0.1-0.1,0.2-0.1,0.3-0.3
		c0.1-0.1,0.1-0.3,0.1-0.5H1061L1061,367.8z M1062.3,367.8V367h0.8v0.6c0,0.3,0,0.6-0.1,0.8c-0.1,0.2-0.3,0.4-0.5,0.5l-0.2-0.3
		c0.1-0.1,0.2-0.1,0.3-0.3c0.1-0.1,0.1-0.3,0.1-0.5H1062.3L1062.3,367.8z"/>
</g>
<path d="M1013.7,270.3c0,1.5,0.5,2.4,1.6,3.4c0.5,0.4,1.1,0.7,1.7,0.8c0.3,0.1,0.6,0.1,0.9,0.1c0.3,0,0.1-0.3,0.1-0.4
	c0-0.2,0-0.3,0-0.5c0-0.6,0-1.3,0-1.9c0-0.3,0-0.6,0-1c0-0.2,0-0.3,0-0.5c0-0.1-0.1,0-0.2,0c-0.1,0-0.2,0-0.2,0
	C1016.2,270.3,1015,270.3,1013.7,270.3z"/>
<path d="M1022.3,270.3c0-1.5-0.5-2.4-1.6-3.4c-0.5-0.4-1.1-0.7-1.7-0.8c-0.3-0.1-0.6-0.1-0.9-0.1c-0.3,0-0.1,0.3-0.1,0.4
	c0,0.2,0,0.3,0,0.5c0,0.6,0,1.3,0,1.9c0,0.3,0,0.6,0,1c0,0.2,0,0.3,0,0.5c0,0.1,0.1,0,0.2,0c0.1,0,0.2,0,0.2,0
	C1019.7,270.3,1021,270.3,1022.3,270.3z"/>
<path class="st1" d="M1018,274.6c2.4,0,4.3-1.9,4.3-4.3"/>
<path class="st1" d="M1018,265.9c-2.4,0-4.3,1.9-4.3,4.3"/>
<line class="st1" x1="1026.6" y1="270.3" x2="1022.3" y2="270.3"/>
<line class="st1" x1="1018" y1="265.9" x2="1018" y2="261.6"/>
<line class="st1" x1="1018" y1="278.9" x2="1018" y2="274.6"/>
<line class="st1" x1="1013.7" y1="270.3" x2="1009.3" y2="270.3"/>
<g>
	<path d="M1044.1,270.3h-0.7v-4.5c-0.2,0.2-0.4,0.3-0.7,0.5c-0.3,0.2-0.5,0.3-0.7,0.4V266c0.4-0.2,0.7-0.4,1-0.7
		c0.3-0.3,0.5-0.5,0.6-0.8h0.5V270.3L1044.1,270.3z"/>
	<path d="M1046,265.3v-0.7h3.7v0.5c-0.4,0.4-0.7,0.9-1.1,1.5c-0.4,0.6-0.6,1.3-0.8,2c-0.1,0.5-0.2,1-0.3,1.6h-0.7
		c0-0.5,0.1-1,0.3-1.6c0.2-0.6,0.4-1.3,0.7-1.8c0.3-0.6,0.7-1.1,1-1.5H1046z"/>
	<path d="M1053,270.3h-0.7v-4.5c-0.2,0.2-0.4,0.3-0.7,0.5c-0.3,0.2-0.5,0.3-0.7,0.4V266c0.4-0.2,0.7-0.4,1-0.7
		c0.3-0.3,0.5-0.5,0.6-0.8h0.5V270.3L1053,270.3z"/>
	<path d="M1055,265.3v-0.8h0.8v0.6c0,0.3,0,0.6-0.1,0.8c-0.1,0.2-0.3,0.4-0.5,0.5l-0.2-0.3c0.1-0.1,0.2-0.1,0.3-0.3
		c0.1-0.1,0.1-0.3,0.1-0.5H1055L1055,265.3z"/>
	<path d="M1056.6,267.4c0-0.7,0.1-1.2,0.2-1.6c0.1-0.4,0.3-0.7,0.6-1c0.3-0.2,0.6-0.3,1-0.3c0.3,0,0.6,0.1,0.8,0.2
		c0.2,0.1,0.4,0.3,0.6,0.5c0.2,0.2,0.3,0.5,0.4,0.9c0.1,0.3,0.1,0.8,0.1,1.4c0,0.7-0.1,1.2-0.2,1.6c-0.1,0.4-0.3,0.7-0.6,1
		c-0.3,0.2-0.6,0.3-1,0.3c-0.6,0-1-0.2-1.3-0.6C1056.8,269.3,1056.6,268.5,1056.6,267.4z M1057.3,267.4c0,0.9,0.1,1.6,0.3,1.9
		c0.2,0.3,0.5,0.5,0.8,0.5c0.3,0,0.6-0.2,0.8-0.5c0.2-0.3,0.3-0.9,0.3-1.9c0-0.9-0.1-1.6-0.3-1.9s-0.5-0.5-0.8-0.5
		c-0.3,0-0.6,0.1-0.8,0.4C1057.4,265.9,1057.3,266.5,1057.3,267.4z"/>
	<path d="M1061,265.3v-0.8h0.8v0.6c0,0.3,0,0.6-0.1,0.8c-0.1,0.2-0.3,0.4-0.5,0.5l-0.2-0.3c0.1-0.1,0.2-0.1,0.3-0.3
		c0.1-0.1,0.1-0.3,0.1-0.5H1061L1061,265.3z M1062.3,265.3v-0.8h0.8v0.6c0,0.3,0,0.6-0.1,0.8c-0.1,0.2-0.3,0.4-0.5,0.5l-0.2-0.3
		c0.1-0.1,0.2-0.1,0.3-0.3c0.1-0.1,0.1-0.3,0.1-0.5H1062.3L1062.3,265.3z"/>
</g>
</svg>
