<?xml version="1.0" encoding="utf-8"?>
<!-- Generator: Adobe Illustrator 16.0.3, SVG Export Plug-In . SVG Version: 6.00 Build 0)  -->
<!DOCTYPE svg PUBLIC "-//W3C//DTD SVG 1.1//EN" "http://www.w3.org/Graphics/SVG/1.1/DTD/svg11.dtd">
<svg version="1.1" id="Layer_1" xmlns="http://www.w3.org/2000/svg" xmlns:xlink="http://www.w3.org/1999/xlink" x="0px" y="0px"
	 width="133.2px" height="133.2px" viewBox="0 0 133.2 133.2" style="enable-background:new 0 0 133.2 133.2;" xml:space="preserve"
	>
<style type="text/css">
<![CDATA[
	.st0{fill-rule:evenodd;clip-rule:evenodd;}
]]>
</style>
<g>
	<path class="st0" d="M48.2,130.3c3.9-10.8,7.7-21.4,11.6-32.1c5,5,11.5,7.3,19.1,6c9-1.5,16.1-6,21.6-13.3
		c9.9-13.3,11.5-33.5,3.7-46.7C95.7,30,79,22.5,61.2,25.1c-22,3.2-35,16.1-37,37.3c-0.8,9,1.9,17.2,7.9,24c1.7,2,4.3,3.3,6.8,5.1
		c2.2-5.5,3.1-9.4,0.4-14.5c-9.4-17.8,3.9-39.8,24-40.5C79,36,89.5,42.2,92.8,55c2.9,11.1,1.4,21.9-5.5,31.4
		c-3.5,4.8-8.4,7.6-14.5,7.3C66,93.5,62,88.4,63.5,81.9c1.3-5.8,3.3-11.5,4.7-17.3c1.8-7.2-0.3-12.5-5.1-13.9
		c-5.4-1.6-11.3,1.7-13.2,8.5c-1.2,4.2-0.6,8.8-0.7,13.2c-0.1,3.1,0.5,6.2,0,9.2c-2.3,13.1-4.9,26.1-7.3,39.1
		c-0.4,2.2-0.1,4.6-0.1,6.9C18.1,120.5-7.7,88.8,2.2,49.9C11.4,13.4,49.3-7.9,85.5,2.7c35.9,10.5,56,48.9,44.4,84.4
		C117.9,123.8,79.1,140.4,48.2,130.3z"/>
</g>
</svg>
