<?xml version="1.0" encoding="utf-8"?>
<!-- Generator: Adobe Illustrator 16.0.3, SVG Export Plug-In . SVG Version: 6.00 Build 0)  -->
<!DOCTYPE svg PUBLIC "-//W3C//DTD SVG 1.1//EN" "http://www.w3.org/Graphics/SVG/1.1/DTD/svg11.dtd">
<svg version="1.1" id="Layer_1" xmlns="http://www.w3.org/2000/svg" xmlns:xlink="http://www.w3.org/1999/xlink" x="0px" y="0px"
	 width="543.5px" height="704.5px" viewBox="0 0 543.5 704.5" style="enable-background:new 0 0 543.5 704.5;" xml:space="preserve"
	>
<style type="text/css">
<![CDATA[
	.st0{fill:none;stroke:#000000;stroke-miterlimit:10;}
]]>
</style>
<line class="st0" x1="250.8" y1="704" x2="202.8" y2="429.3"/>
<line class="st0" x1="202.8" y1="429.3" x2="198.8" y2="688.7"/>
<line class="st0" x1="198.8" y1="688.7" x2="250.8" y2="704"/>
<line class="st0" x1="250.8" y1="704" x2="282.1" y2="685.3"/>
<line class="st0" x1="282.1" y1="685.3" x2="288.1" y2="438.7"/>
<line class="st0" x1="288.1" y1="438.7" x2="250.8" y2="704"/>
<line class="st0" x1="202.8" y1="429.3" x2="288.1" y2="438.7"/>
<line class="st0" x1="202.8" y1="429.3" x2="291.5" y2="291.3"/>
<line class="st0" x1="291.5" y1="291.3" x2="288.1" y2="438.7"/>
<line class="st0" x1="202.8" y1="429.3" x2="217.5" y2="298"/>
<line class="st0" x1="291.5" y1="291.3" x2="4.1" y2="318.7"/>
<line class="st0" x1="291.5" y1="291.3" x2="4.1" y2="285.3"/>
<line class="st0" x1="291.5" y1="291.3" x2="304.1" y2="163.3"/>
<line class="st0" x1="304.1" y1="163.3" x2="340.8" y2="215.3"/>
<line class="st0" x1="340.8" y1="215.3" x2="291.5" y2="291.3"/>
<line class="st0" x1="304.1" y1="163.3" x2="0.1" y2="253.3"/>
<line class="st0" x1="304.1" y1="163.3" x2="4.1" y2="158"/>
<line class="st0" x1="288.1" y1="438.7" x2="340.8" y2="215.3"/>
<line class="st0" x1="202.8" y1="429.3" x2="32.1" y2="327"/>
<line class="st0" x1="32.1" y1="327" x2="210.1" y2="363.7"/>
<line class="st0" x1="78" y1="336.5" x2="77.4" y2="311.7"/>
<line class="st0" x1="32.1" y1="327" x2="32.1" y2="316"/>
<line class="st0" x1="32.1" y1="327" x2="7" y2="345.3"/>
<line class="st0" x1="7" y1="345.3" x2="11.5" y2="318"/>
<line class="st0" x1="7" y1="345.3" x2="35.5" y2="392"/>
<line class="st0" x1="35.5" y1="392" x2="32.1" y2="327"/>
<line class="st0" x1="35.5" y1="392" x2="202.8" y2="429.3"/>
<line class="st0" x1="7" y1="345.3" x2="32.1" y2="462.7"/>
<line class="st0" x1="32.1" y1="462.7" x2="35.5" y2="392"/>
<line class="st0" x1="35.5" y1="392" x2="88.1" y2="462.7"/>
<line class="st0" x1="88.1" y1="462.7" x2="81.1" y2="402.2"/>
<line class="st0" x1="88.1" y1="462.7" x2="50.8" y2="638"/>
<line class="st0" x1="50.8" y1="638" x2="32.1" y2="462.7"/>
<line class="st0" x1="32.1" y1="462.7" x2="88.1" y2="462.7"/>
<line class="st0" x1="88.1" y1="462.7" x2="84.6" y2="630.7"/>
<line class="st0" x1="84.6" y1="630.7" x2="50.8" y2="638"/>
<line class="st0" x1="50.8" y1="638" x2="28.8" y2="634.3"/>
<line class="st0" x1="28.8" y1="634.3" x2="32.1" y2="462.7"/>
<line class="st0" x1="88.1" y1="462.7" x2="161.5" y2="424"/>
<line class="st0" x1="161.5" y1="424" x2="202.8" y2="429.3"/>
<line class="st0" x1="88.1" y1="462.7" x2="200.8" y2="443.3"/>
<line class="st0" x1="182.1" y1="446.5" x2="178.8" y2="482.7"/>
<line class="st0" x1="178.8" y1="482.7" x2="202.8" y2="446.5"/>
<line class="st0" x1="178.8" y1="482.7" x2="202" y2="482.7"/>
<line class="st0" x1="178.8" y1="482.7" x2="200.3" y2="594"/>
<line class="st0" x1="178.8" y1="482.7" x2="176.1" y2="602.7"/>
<line class="st0" x1="176.1" y1="602.7" x2="198.8" y2="606"/>
<line class="st0" x1="83" y1="418.1" x2="117.5" y2="414.7"/>
<line class="st0" x1="202.8" y1="362.2" x2="194.8" y2="300.5"/>
<line class="st0" x1="185.5" y1="300.5" x2="185.4" y2="358.6"/>
<line class="st0" x1="359.8" y1="634.3" x2="385.5" y2="467.3"/>
<line class="st0" x1="385.5" y1="467.3" x2="381.5" y2="624.7"/>
<line class="st0" x1="330.8" y1="624.7" x2="334.1" y2="467.3"/>
<line class="st0" x1="334.1" y1="467.3" x2="359.8" y2="634.3"/>
<line class="st0" x1="334.1" y1="467.3" x2="385.5" y2="467.3"/>
<line class="st0" x1="334.1" y1="467.3" x2="410.1" y2="404"/>
<line class="st0" x1="410.1" y1="404" x2="385.5" y2="467.3"/>
<line class="st0" x1="334.1" y1="467.3" x2="350.8" y2="418.1"/>
<line class="st0" x1="289.8" y1="431.6" x2="414.1" y2="404"/>
<line class="st0" x1="414.1" y1="404" x2="530.3" y2="421.3"/>
<line class="st0" x1="414.1" y1="404" x2="424.1" y2="340.7"/>
<line class="st0" x1="424.1" y1="340.7" x2="292.2" y2="421.3"/>
<line class="st0" x1="307" y1="358.6" x2="424.1" y2="340.7"/>
<line class="st0" x1="424.1" y1="340.7" x2="530.3" y2="392"/>
<line class="st0" x1="424.1" y1="340.7" x2="538.8" y2="363.7"/>
<line class="st0" x1="387.3" y1="462.7" x2="450.8" y2="412.7"/>
<line class="st0" x1="387.3" y1="462.7" x2="456.1" y2="442.7"/>
<line class="st0" x1="456.1" y1="442.7" x2="434.8" y2="429.3"/>
<line class="st0" x1="450.8" y1="412.7" x2="456.1" y2="442.7"/>
<line class="st0" x1="456.1" y1="442.7" x2="536.1" y2="456.7"/>
<line class="st0" x1="500.1" y1="421.3" x2="536.1" y2="438.7"/>
<line class="st0" x1="450.8" y1="412.7" x2="538.8" y2="427.7"/>
<line class="st0" x1="406" y1="414.7" x2="434.8" y2="410.7"/>
<line class="st0" x1="334.1" y1="467.3" x2="288.1" y2="438.7"/>
<line class="st0" x1="330.8" y1="422.5" x2="347.9" y2="426.7"/>
<line class="st0" x1="334.1" y1="467.3" x2="287.7" y2="456.7"/>
<line class="st0" x1="394.1" y1="482.7" x2="406" y2="457.3"/>
<line class="st0" x1="394.1" y1="482.7" x2="385.5" y2="479.3"/>
<line class="st0" x1="430.8" y1="482.7" x2="424.1" y2="464.6"/>
<line class="st0" x1="424.1" y1="464.6" x2="394.1" y2="482.7"/>
<line class="st0" x1="394.1" y1="482.7" x2="453.5" y2="446.5"/>
<line class="st0" x1="453.5" y1="446.5" x2="430.8" y2="482.7"/>
<line class="st0" x1="430.8" y1="482.7" x2="419.1" y2="600"/>
<line class="st0" x1="419.1" y1="600" x2="394.1" y2="482.7"/>
<line class="st0" x1="394.1" y1="482.7" x2="430.8" y2="482.7"/>
<line class="st0" x1="430.8" y1="482.7" x2="424.9" y2="600"/>
<line class="st0" x1="424.9" y1="600" x2="419.1" y2="600"/>
<line class="st0" x1="419.1" y1="600" x2="389.8" y2="594"/>
<line class="st0" x1="389.8" y1="594" x2="394.1" y2="482.7"/>
<line class="st0" x1="424.1" y1="340.7" x2="375.5" y2="166.7"/>
<line class="st0" x1="375.5" y1="166.7" x2="466.8" y2="20"/>
<line class="st0" x1="477.2" y1="15.3" x2="432.8" y2="171.3"/>
<line class="st0" x1="432.8" y1="171.3" x2="375.5" y2="166.7"/>
<line class="st0" x1="432.8" y1="171.3" x2="424.1" y2="340.7"/>
<line class="st0" x1="375.5" y1="166.7" x2="372.2" y2="348.6"/>
<line class="st0" x1="432.8" y1="342.4" x2="432.8" y2="171.3"/>
<line class="st0" x1="375.5" y1="166.7" x2="412.6" y2="15.3"/>
<line class="st0" x1="432.8" y1="171.3" x2="488.8" y2="8.7"/>
<line class="st0" x1="432.8" y1="171.3" x2="512.8" y2="143.3"/>
<line class="st0" x1="512.8" y1="143.3" x2="540.1" y2="154.7"/>
<line class="st0" x1="432.8" y1="171.3" x2="502.8" y2="195.3"/>
<line class="st0" x1="502.8" y1="195.3" x2="540.1" y2="195.3"/>
<line class="st0" x1="431.6" y1="195.3" x2="502.8" y2="195.3"/>
<line class="st0" x1="502.8" y1="195.3" x2="543.5" y2="200.7"/>
<line class="st0" x1="432.8" y1="270.7" x2="502.8" y2="195.3"/>
<line class="st0" x1="502.8" y1="195.3" x2="467.8" y2="280"/>
<line class="st0" x1="467.8" y1="280" x2="432.8" y2="270.7"/>
<line class="st0" x1="447.4" y1="345.3" x2="432.8" y2="298"/>
<line class="st0" x1="467.8" y1="280" x2="466.8" y2="349.2"/>
<line class="st0" x1="431.6" y1="257.6" x2="460.8" y2="195.3"/>
<line class="st0" x1="375.5" y1="166.7" x2="340.8" y2="154.7"/>
<line class="st0" x1="340.8" y1="183.3" x2="375.1" y2="189.3"/>
<line class="st0" x1="341.1" y1="126" x2="383.6" y2="133.5"/>
<line class="st0" x1="444.1" y1="138.7" x2="512.8" y2="143.3"/>
<line class="st0" x1="512.8" y1="143.3" x2="535.5" y2="147.7"/>
<line class="st0" x1="304.1" y1="163.3" x2="264.1" y2="3.3"/>
<line class="st0" x1="304.1" y1="163.3" x2="326.8" y2="8.7"/>
<line class="st0" x1="340.8" y1="215.3" x2="341.1" y2="8.7"/>
<line class="st0" x1="227.5" y1="163.3" x2="233.4" y2="8.7"/>
<line class="st0" x1="86.1" y1="145.5" x2="162.8" y2="160.7"/>
<line class="st0" x1="86.1" y1="145.5" x2="227.5" y2="116"/>
<line class="st0" x1="227.5" y1="116" x2="86.1" y2="108.7"/>
<line class="st0" x1="86.1" y1="145.5" x2="78.8" y2="8.7"/>
<line class="st0" x1="86.1" y1="145.5" x2="40.8" y2="3.3"/>
<line class="st0" x1="18.8" y1="157.3" x2="22.8" y2="0"/>
<line class="st0" x1="18.8" y1="133.5" x2="4.1" y2="33.3"/>
<line class="st0" x1="19.3" y1="138.7" x2="30.1" y2="158"/>
<line class="st0" x1="86.1" y1="145.5" x2="82.5" y2="159.4"/>
<line class="st0" x1="327.8" y1="270.7" x2="373.9" y2="275.3"/>
<line class="st0" x1="327.8" y1="270.7" x2="375.5" y2="280"/>
<line class="st0" x1="335.5" y1="237.7" x2="372.2" y2="253.3"/>
<line class="st0" x1="336.6" y1="233" x2="374.1" y2="241.3"/>
<line class="st0" x1="330.8" y1="624.7" x2="359.8" y2="634.3"/>
<line class="st0" x1="359.8" y1="634.3" x2="381.5" y2="624.7"/>
</svg>
