<?xml version="1.0" encoding="utf-8"?>
<!-- Generator: Adobe Illustrator 16.0.3, SVG Export Plug-In . SVG Version: 6.00 Build 0)  -->
<!DOCTYPE svg PUBLIC "-//W3C//DTD SVG 1.1//EN" "http://www.w3.org/Graphics/SVG/1.1/DTD/svg11.dtd">
<svg version="1.1" id="Layer_1" xmlns="http://www.w3.org/2000/svg" xmlns:xlink="http://www.w3.org/1999/xlink" x="0px" y="0px"
	 width="277.2px" height="382.4px" viewBox="0 0 277.2 382.4" style="enable-background:new 0 0 277.2 382.4;" xml:space="preserve"
	>
<style type="text/css">
<![CDATA[
	.st0{fill-rule:evenodd;clip-rule:evenodd;}
]]>
</style>
<g>
	<path class="st0" d="M229.1,278.9c5.2,0,10.3,0.4,15.4,0.1c4-0.2,6.1,0.9,7.6,4.9c5.2,13.3,11,26.3,16.5,39.4
		c2.1,5.1,3.6,10.5,6.3,15.2c4.2,7.2,1.7,12.5-3.5,17.6c-1.7,1.6-3.4,3.2-5.3,4.6c-12.6,8.9-27,13.3-41.9,16.5
		c-17,3.6-34.2,5.1-51.5,5.3c-16.3-1.2-32.6-2.3-48.4-6.3c-35-8.9-61.9-28-75.9-62.4c-5.5-13.4-7.6-27.5-7.6-42
		c0-29.1-0.1-58.3,0.1-87.4c0-4-0.7-5.4-5-5.3c-10.8,0.4-21.7,0-32.5,0.2c-2.8,0-3.7-0.7-3.6-3.6c0.1-24.7,0.1-49.3,0-74
		c0-2.6,0.7-3.7,3.3-4.5C42,84.8,63,57.4,70.1,18.4C72.3,6.4,78.9,0.1,91,0.1c33.8,0,67.6,0.1,101.4-0.1c3.6,0,4.8,0.6,4.7,4.5
		c-0.3,11.1,0,22.3,0,33.5c0,15.8,0,31.6-0.2,47.5c0,2.8,0.8,3.7,3.7,3.7c9.2-0.2,18.3-0.2,27.5-0.2c10.5,0,20.9,0.2,31.4,0.1
		c2.8,0,3.6,0.8,3.6,3.6c-0.1,12.8,0,25.6,0.1,38.4c0,14.5-0.2,29-0.1,43.4c0,3.7-0.9,4.8-4.7,4.7c-18.8-0.2-37.6,0-56.4-0.2
		c-3.7,0-5.1,0.7-5.1,4.8c0.2,27,0.1,53.9,0.1,80.9c0,2.8,0.5,5.6,0.6,8.4c0.2,4.5,2.8,5.9,6.9,5.9C212.8,279,221,279,229.1,278.9z
		 M181.1,218.6c0-16.7,0.1-33.3-0.1-50c-0.1-3.9,1.1-4.6,4.7-4.6c19.3,0.2,38.7,0,58,0.2c3.3,0,4.5-0.6,4.5-4.3
		c-0.2-16.8-0.2-33.7,0-50.5c0-3.5-0.8-4.4-4.4-4.4c-19.3,0.2-38.7,0-58,0.2c-4.1,0-4.8-1.2-4.8-5c0.2-26.3,0-52.7,0.2-79
		c0-4-0.7-5.4-5-5.3c-14,0.3-28,0.1-42,0.1c-7.2,0-7,0-8.1,7.3c-6.3,41.1-25.7,72.3-65.9,87.9c-2.5,1-3.1,2.2-3.1,4.7
		c0.1,14.8,0.1,29.7,0,44.5c0,2.9,0.9,3.6,3.7,3.6c10.3-0.1,20.7,0.2,31-0.2c5-0.2,6.6,0.9,6.6,6.3c-0.3,31.3-0.1,62.7-0.1,94
		c0,6.8-0.1,13.7,0.9,20.4c4.9,32.5,20.6,57.6,51.6,70.8c26.3,11.3,53.7,11.6,81.2,3.9c9.3-2.6,18.4-5.9,26.2-11.8
		c2-1.5,3.9-2.9,2.7-6.1c-5.3-14.7-10.4-29.5-15.4-44.3c-0.8-2.5-1.9-2.6-4-1.7c-5.6,2.2-11.5,3.3-17.4,4.3
		c-24,3.9-39-5.8-42.5-27.7c-0.4-2.6-0.4-5.3-0.4-8C181,248.9,181.1,233.7,181.1,218.6z"/>
</g>
</svg>
