# Rhino

g object_1
v 6.343145847320557 0 8
v 8 1.171572923660278 6.828427314758301
v 8 4.58578634262085 6.242640495300293
v 8 8 5.656854152679443
v 4 8 8
v 5.171572685241699 4 8
v 1.656854271888733 8 0
v 4 8 8
v 2.828427314758301 8 4.000000953674316
v 3.552713678800501e-15 6.828427314758301 1.171572923660278
v 3.552713678800501e-15 6.242640972137451 4.585785865783691
v 3.552713678800501e-15 5.656854152679443 8
v 4 8 0
v 8 2.343145847320557 0
v 8 5.171572685241699 2.828427076339722
v 8 8 5.656854152679443
v 6.000000476837158 8 2.82842755317688
v 6 5.171572685241699 0
v 4 0 8
v 3.552713678800501e-15 0 2.343145847320557
v 2 0 5.171572685241699
v 3.552713678800501e-15 5.656854152679443 8
v 3.552713678800501e-15 2.828426599502563 5.171572208404541
v 2 2.828427076339722 8
v 6.343145847320557 0 8
v 4 4.440892098500626e-16 0
v 5.171572685241699 5.551115123125783e-17 3.999999284744263
v 3.552713678800501e-15 0 2.343145847320557
v 4 0 8
v 2 0 5.171572685241699
v 8 1.171572923660278 6.828427314758301
v 8 1.757359266281128 3.41421365737915
v 8 2.343145847320557 0
v 8 8 5.656854152679443
v 8 4.58578634262085 6.242640495300293
v 8 5.171572685241699 2.828427076339722
v 1.656854271888733 8 0
v 4 8 8
v 8 8 5.656854152679443
v 2.828427314758301 8 4.000000953674316
v 6.000000476837158 8 2.82842755317688
v 4 8 0
v 3.552713678800501e-15 6.828427314758301 1.171572923660278
v 3.552713678800501e-15 5.656854152679443 8
v 3.552713678800501e-15 6.242640972137451 4.585785865783691
v 3.552713678800501e-15 3.41421365737915 1.757359266281128
v 3.552713678800501e-15 0 2.343145847320557
v 3.552713678800501e-15 2.828426599502563 5.171572208404541
v 1.656854271888733 8 0
v 4 4.440892098500626e-16 0
v 8 2.343145847320557 0
v 2.828427314758301 3.999999284744263 0
v 6 5.171572685241699 0
v 4 8 0
v 6.343145847320557 0 8
v 5.171572685241699 4 8
v 4 8 8
v 3.552713678800501e-15 5.656854152679443 8
v 2 2.828427076339722 8
v 4 0 8
v 6.343145847320557 0 8
v 5.171572685241699 5.551115123125783e-17 3.999999284744263
v 4 4.440892098500626e-16 0
v 8 2.343145847320557 0
v 8 1.757359266281128 3.41421365737915
v 8 1.171572923660278 6.828427314758301
v 1.656854271888733 8 0
v 4 4.440892098500626e-16 0
v 3.552713678800501e-15 0 2.343145847320557
v 3.552713678800501e-15 3.41421365737915 1.757359266281128
v 3.552713678800501e-15 6.828427314758301 1.171572923660278
v 2.828427314758301 3.999999284744263 0
vt 0.2788788378238678 0.9168534278869629
vt 0.2788788378238678 0.8357127904891968
vt 0.376959502696991 0.7664549946784973
vt 0.4750401675701141 0.6971971392631531
vt 0.5562928318977356 0.8357127904891968
vt 0.4175858497619629 0.8762831091880798
vt 0.2774139940738678 0.4760759770870209
vt 0 0.5572165846824646
vt 0.1387069821357727 0.5166462659835815
vt 0.2774139940738678 0.5572165846824646
vt 0.179333359003067 0.6264744400978088
vt 0.08125268667936325 0.6957322955131531
vt 0 0.2380379885435104
vt 0.2380379885435104 0.2786275148391724
vt 0.1394394189119339 0.3766193389892578
vt 0.04084086045622826 0.4746111333370209
vt 0.02042043767869473 0.3563245832920074
vt 0.1190189942717552 0.258332759141922
vt 0.516916811466217 0
vt 0.2788788378238678 0.04058953374624252
vt 0.3978978395462036 0.02029476687312126
vt 0.4760759770870209 0.2365731447935104
vt 0.3774774074554443 0.138581320643425
vt 0.4964964091777802 0.1182865723967552
vt 0.99853515625 0.7380380034446716
vt 0.9173945188522339 0.4591591358184814
vt 0.9579648375511169 0.5985985398292542
vt 0.7788788676261902 0.5408408641815186
vt 0.9173945188522339 0.7380380034446716
vt 0.8481367230415344 0.6394394040107727
vt 0 0
vt 0.1190189942717552 0.02029476687312126
vt 0.2380379885435104 0.04058953374624252
vt 0.04084086045622826 0.2365731447935104
vt 0.02042043767869473 0.1182865723967552
vt 0.1394394189119339 0.1385813504457474
vt 0.99853515625 0
vt 0.9173945188522339 0.2788788378238678
vt 0.7788788676261902 0.1971971243619919
vt 0.9579648375511169 0.1394394636154175
vt 0.8481366634368896 0.09859857708215714
vt 0.9173945188522339 0
vt 0.2788788378238678 0.2380379885435104
vt 0.3197197020053864 0.4746111333370209
vt 0.2992992699146271 0.3563245534896851
vt 0.3978978395462036 0.258332759141922
vt 0.516916811466217 0.2786275148391724
vt 0.4183183014392853 0.3766193091869354
vt 0.5577576756477356 0.2788788378238678
vt 0.6388983130455017 0
vt 0.7774140238761902 0.08168172836303711
vt 0.5983279943466187 0.1394394040107727
vt 0.7081561684608459 0.1802802830934525
vt 0.6388983130455017 0.2788788378238678
vt 0.7774140238761902 0.4591591358184814
vt 0.7368437051773071 0.5985985398292542
vt 0.6962733864784241 0.7380380034446716
vt 0.5577576756477356 0.6563562750816345
vt 0.6270155310630798 0.5577576756477356
vt 0.6962733864784241 0.4591591358184814
vt 0.2774139940738678 0.9168534278869629
vt 0.1387069821357727 0.8762831091880798
vt 0 0.8357127904891968
vt 0.08125268667936325 0.6971971392631531
vt 0.1793333441019058 0.7664549946784973
vt 0.2774139940738678 0.8357127904891968
vt 0.2788788378238678 0.4760759770870209
vt 0.5562928318977356 0.5572165846824646
vt 0.4750401675701141 0.6957322955131531
vt 0.376959502696991 0.6264744400978088
vt 0.2788788378238678 0.5572165846824646
vt 0.4175858795642853 0.5166462659835815
vn 0.5 0.1464466154575348 0.8535534143447876
vn 0.5 0.1464466154575348 0.8535534143447876
vn 0.5 0.1464466154575348 0.8535534143447876
vn 0.5 0.1464466154575348 0.8535534143447876
vn 0.5 0.1464466154575348 0.8535534143447876
vn 0.5 0.1464466154575348 0.8535534143447876
vn -0.5 0.8535534143447876 0.1464466154575348
vn -0.5 0.8535534143447876 0.1464466154575348
vn -0.5 0.8535534143447876 0.1464466154575348
vn -0.5 0.8535534143447876 0.1464466154575348
vn -0.5 0.8535534143447876 0.1464466154575348
vn -0.5 0.8535534143447876 0.1464466154575348
vn 0.7071067690849304 0.5 -0.5
vn 0.7071067690849304 0.5 -0.5
vn 0.7071067690849304 0.5 -0.5
vn 0.7071067690849304 0.5 -0.5
vn 0.7071067690849304 0.5 -0.5
vn 0.7071067690849304 0.5 -0.5
vn -0.7071067690849304 -0.5 0.5
vn -0.7071067690849304 -0.5 0.5
vn -0.7071067690849304 -0.5 0.5
vn -0.7071067690849304 -0.5 0.5
vn -0.7071067690849304 -0.5 0.5
vn -0.7071067690849304 -0.5 0.5
vn 0 -1 0
vn 0 -1 0
vn 0 -1 0
vn 0 -1 0
vn 0 -1 0
vn 0 -1 0
vn 1 1.110223024625157e-16 0
vn 1 5.551115123125783e-17 0
vn 1 0 0
vn 1 0 0
vn 1 0 0
vn 1 -5.551115123125783e-17 0
vn 0 1 0
vn 0 1 0
vn 0 1 0
vn 0 1 0
vn 0 1 0
vn 0 1 0
vn -1 -2.465190328815662e-32 0
vn -1 0 0
vn -1 0 0
vn -1 2.465190328815662e-32 0
vn -1 -2.465190328815662e-32 0
vn -1 0 0
vn 0 0 -1
vn 0 0 -1
vn 0 0 -1
vn 0 0 -1
vn 0 0 -1
vn 0 0 -1
vn 0 0 1
vn 0 0 1
vn 0 0 1
vn 0 0 1
vn 0 0 1
vn 0 0 1
vn 0.5 -0.8535534143447876 -0.1464466154575348
vn 0.5 -0.8535534143447876 -0.1464466154575348
vn 0.5 -0.8535534143447876 -0.1464466154575348
vn 0.5 -0.8535534143447876 -0.1464466154575348
vn 0.5 -0.8535534143447876 -0.1464466154575348
vn 0.5 -0.8535534143447876 -0.1464466154575348
vn -0.5 -0.1464466154575348 -0.8535534143447876
vn -0.5 -0.1464466154575348 -0.8535534143447876
vn -0.5 -0.1464466154575348 -0.8535534143447876
vn -0.5 -0.1464466154575348 -0.8535534143447876
vn -0.5 -0.1464466154575348 -0.8535534143447876
vn -0.5 -0.1464466154575348 -0.8535534143447876
f 6/6/6 1/1/1 2/2/2
f 3/3/3 6/6/6 2/2/2
f 5/5/5 6/6/6 4/4/4
f 3/3/3 4/4/4 6/6/6
f 11/11/11 12/12/12 8/8/8
f 9/9/9 11/11/11 8/8/8
f 11/11/11 9/9/9 10/10/10
f 7/7/7 10/10/10 9/9/9
f 15/15/15 14/14/14 18/18/18
f 17/17/17 18/18/18 13/13/13
f 16/16/16 15/15/15 17/17/17
f 18/18/18 17/17/17 15/15/15
f 23/23/23 20/20/20 21/21/21
f 24/24/24 23/23/23 21/21/21
f 22/22/22 23/23/23 24/24/24
f 19/19/19 24/24/24 21/21/21
f 30/30/30 28/28/28 26/26/26
f 27/27/27 30/30/30 26/26/26
f 25/25/25 29/29/29 27/27/27
f 30/30/30 27/27/27 29/29/29
f 36/36/36 32/32/32 33/33/33
f 35/35/35 31/31/31 32/32/32
f 34/34/34 35/35/35 36/36/36
f 32/32/32 36/36/36 35/35/35
f 40/40/40 41/41/41 42/42/42
f 38/38/38 39/39/39 41/41/41
f 41/41/41 40/40/40 38/38/38
f 42/42/42 37/37/37 40/40/40
f 44/44/44 45/45/45 48/48/48
f 43/43/43 46/46/46 45/45/45
f 48/48/48 46/46/46 47/47/47
f 45/45/45 46/46/46 48/48/48
f 52/52/52 49/49/49 54/54/54
f 50/50/50 52/52/52 53/53/53
f 52/52/52 54/54/54 53/53/53
f 50/50/50 53/53/53 51/51/51
f 59/59/59 57/57/57 58/58/58
f 60/60/60 56/56/56 59/59/59
f 57/57/57 59/59/59 56/56/56
f 55/55/55 56/56/56 60/60/60
f 65/65/65 62/62/62 63/63/63
f 64/64/64 65/65/65 63/63/63
f 62/62/62 66/66/66 61/61/61
f 65/65/65 66/66/66 62/62/62
f 70/70/70 71/71/71 72/72/72
f 67/67/67 72/72/72 71/71/71
f 70/70/70 68/68/68 69/69/69
f 72/72/72 68/68/68 70/70/70
