<?xml version="1.0" encoding="utf-8"?>
<!-- Generator: Adobe Illustrator 16.0.3, SVG Export Plug-In . SVG Version: 6.00 Build 0)  -->
<!DOCTYPE svg PUBLIC "-//W3C//DTD SVG 1.1//EN" "http://www.w3.org/Graphics/SVG/1.1/DTD/svg11.dtd">
<svg version="1.1" id="Layer_1" xmlns="http://www.w3.org/2000/svg" xmlns:xlink="http://www.w3.org/1999/xlink" x="0px" y="0px"
	 width="725.1px" height="940.6px" viewBox="0 0 725.1 940.6" style="enable-background:new 0 0 725.1 940.6;" xml:space="preserve"
	>
<style type="text/css">
<![CDATA[
	.st0{fill-rule:evenodd;clip-rule:evenodd;}
	.st1{opacity:0.3;}
	.st2{opacity:0.8;}
	.st3{opacity:0.8;fill-rule:evenodd;clip-rule:evenodd;}
]]>
</style>
<g id="iCnVdR_1_">
	<g>
		<g id="zLCe2c_1_" class="st2">
			<g>
				<path class="st0" d="M649.6,192.4c-6.5-8.9-13.3-17.5-19.6-26.5c-4.5-6.5-8.9-13.3-12.3-20.5c-7.8-16.5-14.2-34-26.1-48.2
					c-10.9-13-22.5-25.4-33.7-38.2c-13.6-15.4-30.1-26.5-48.7-35c-21.3-9.7-42.9-18-66.6-20.3c-17.5-1.7-34.9-5.8-52.4-7.2
					c-23.2-1.8-46.2,1-69.1,4.9c-15.9,2.7-32,4.7-47,11.1c-3,1.3-6.4,1.9-9.6,2.6c-20.3,4.4-40.7,7.8-60.3,15.8
					c-21.9,9-42.9,18.5-60.4,35.2c-9.2,8.7-19.8,16.4-30.9,22.6c-11.2,6.3-21.8,12.8-30.4,22.3C69.8,125.5,59,141,57,160.9
					c-0.8,8-3.9,15-8.5,21.6c-4.4,6.2-8.7,12.7-11.6,19.7c-3.6,8.5-7.7,16.5-13.7,23.6c-7.2,8.4-10.9,18.5-10.3,29.5
					c0.7,12.3,1.8,24.6,3.8,36.7c1.6,9.5,1,17.8-3.9,26.4c-4,7.1-8.1,15.3-8.5,23.2c-0.9,17.6,0.5,35.3,1,52.9
					c0,1.3,0.4,2.6,0.7,3.9c2.4,11.9,9.6,18.4,21.6,20.3c3.7,0.6,8.3,1.1,10.7,3.4c9.6,9.1,19.6,17.9,21.9,32.4
					c1,6.2,3.8,12.7,7.5,17.7c6,8.1,13.1,15.6,20.6,22.3c3.7,3.3,9.4,6.2,14.2,6.1c11.6-0.1,21.1,3.8,29.4,11.3
					c1.2,1.1,2.7,2,4.1,2.8c7.1,3.8,14.5,7.1,22.9,4.6c4.9-1.4,7.5-3.3,8.1-6.2c-2.8,0.1-5.7-0.1-8.5-0.6c-0.3,0-0.5,0.1-0.8,0.1
					c-2,0.4-4-0.2-5.2-1.7c-5.4-1.9-10.2-5.2-13.1-10.3c-3.7-6.4-2.6-12.2,0.2-17.7c0.1-1.1,0.5-2.2,1.3-3.2
					c0.7-0.9,1.4-1.6,2.2-2.3c1-1.4,2.2-2.8,3.3-4.2c-2.1-3-5.2-5.7-6.1-9c-2.9-10.5-5-21.2-7.2-31.9c-3.4-16.1-7.1-32.1-9.7-48.4
					c-1.7-10.6-1.7-21.5-2.7-32.3c-0.8-9.1-2-18.1-2.9-27.2c-0.7-6.8-0.3-7.3,6.4-7.2c8.1,0.1,16.3,0.9,24.4,1
					c41.5,0.6,83-1.4,124.3,2.4c4.8,0.4,7.4-2.5,8.3-6c1-4.2-3.4-4.6-6.3-5.5c-3.7-1.2-7.4-2.3-11.1-3.4c1.1-1.5,2-1.8,2.9-2.1
					c11.2-3.2,22.4-6.4,33.6-9.6c13.6-3.9,27.1-8.1,40.8-11.7c6.3-1.7,7-2.6,3.4-8.1c-3-4.6-3-8.4,1.6-11.1c7.5-4.3,14.8-9.2,24-9.9
					c5.3-0.4,10.5-2.5,15.8-4c2.5-0.7,4.8-2.1,7.3-2.7c2.6-0.6,6.1-0.9,5.4-4.3c-0.3-1.6-3.7-2.9-5.9-3.7c-1.4-0.5-3.3,0-4.9,0.2
					c-8.9,1-17.9,2.2-26.8,3.1c-11.3,1.1-22.6,1.5-33.2-4.1c-3.2-1.7-6.9-2.3-10.5-3.1c-8.9-2.1-17.8-4.2-26.8-5.8
					c-7.9-1.4-13.1-6.3-17.6-12.2c-3.8-5-2.8-7.7,3.4-9.2c4-1,8.1-1.8,12.1-2.7c-6.4-2.8-12.4-5.4-18.4-8.1l0.3-1.3c1.5,0,3,0,4.5,0
					c17.5-0.4,35-0.6,52.4-1.4c10.9-0.6,21.8-2.7,32.7-3.4c19.4-1.2,38.6,0.5,57.7,3.4c19.4,2.9,38.4,1.9,57-4.9
					c5.8-2.1,11.5-4.3,17.4-6.1c12.6-3.8,25.2-4,37.4,1.9c1.8,0.9,3.6,1.6,5.5,2.2c13.1,4.1,24.6,10.1,30.1,23.9
					c1.8,4.6,4.4,9,6.8,13.3c6.9,12.3,14.3,24.4,20.8,36.9c3.4,6.5,7.5,12.2,13.4,16.4c5.9,4.2,9.9,9.2,9.2,17
					c-0.2,1.9,0.1,4.1,0.8,5.9c0.7,1.8,1.9,4,3.4,4.8c6.9,3.7,14.3,1.4,17.2-6.4c5.1-14.1,9.7-28.3,13.3-42.8
					c2.7-10.6,3.9-21.6,5.3-32.5C656.6,212.3,656.4,201.7,649.6,192.4z"/>
			</g>
		</g>
		<path class="st0" d="M247.6,591.5c-12.7-4.9-25.9-9-35.7-19.2c-7.7-8-15.4-16.1-22.6-24.5c-6.8-8-13.5-16.3-16.1-26.8
			c-0.7-3-1.6-6-2.6-8.8c-3.3-0.1-6.6-0.3-9.9,0c0.2,0.7,0.4,1.3,0.6,2c0.6,2.2,3.2,3.7,4.7,5.7c1.4,1.9,3.3,3.9,3.4,6
			c0.7,8.6,0.8,17.3,1.3,25.9c0.7,12.1,4.8,23.4,11.7,33c6.1,8.4,14.1,15.4,21.4,23c0.9,0.9,2.2,1.6,3.5,1.8c0.9,0.2,2.5-0.3,2.9-1
			c0.4-0.6-0.1-2.2-0.8-2.9c-5.5-5.8-10.9-11.6-16.7-17.1c-10.7-10.2-15.4-23-17.4-37.2c-0.7-4.8-1.1-9.7-1.7-15.2
			c10.2,12.3,19.5,23.8,29,35c8.1,9.6,18.5,16.1,30.2,20.5c4.5,1.7,8.9,3.7,13.6,4.9c1.5,0.4,3.6-1.3,5.4-2
			C250.4,593.6,249.1,592.1,247.6,591.5z"/>
		<path class="st0" d="M582.7,229c-3.4-18-9.1-34.3-27.2-43.5c-9-4.5-17.9-10-25.4-16.7c-12.7-11.4-27.2-18.3-43.5-22.4
			c-7.1-1.8-13.9-4.5-20.8-7c-7-2.6-13.8-5.9-20.9-8c-23.5-6.6-47.6-3.8-71.6-3.5c-2.6,0-5.1,1.3-7.7,2
			c-34.4,9.2-68.5,19.7-104.1,24.1c-11.2,1.4-22.4,3.1-33.7,4.6c-15.1,2.1-30.1,2.9-45.3,0.6c-16.8-2.5-33.7-4.2-50.6-6
			c-9.2-1-17.7,1.8-25.9,5.9c-6.6,3.4-13.6,5.8-20.4,9c-4.3,2-8.8,4-12.4,7c-2.2,1.8-4.8,6.7-3.9,8c2.4,3.6,6.2,0.6,9.3-0.5
			c21.2-7.3,42.2-15.8,65.4-12.8c5.6,0.7,11.3,1.1,16.9,1.5c20.1,1.4,40,5.7,60.2,2.4c14-2.2,28.1-3.8,42.1-5.7
			c8.1-1.1,16.3-1.6,24.2-3.5c27.7-6.8,55.2-14.1,82.8-21.1c3.8-1,7.8-1.7,11.8-1.8c11.8-0.2,23.7-0.4,35.5,0
			c15.5,0.5,30.4,3.6,43.8,12c2.8,1.7,6.1,2.5,9.3,3.5c10.2,3.1,20.5,5.9,30.5,9.4c2.6,0.9,4.5,3.8,6.7,5.8c-2.5,1.3-5,3.4-7.6,3.8
			c-14.3,2.3-28.9,3.4-43,6.4c-19.3,4.1-38.4,3-57.6-0.3c-7.8-1.4-15.8-2.5-23.8-2.6c-11.5-0.1-23,0.5-34.4,1.6
			c-16.7,1.6-33.5,3.2-50,6c-12.6,2.1-25,3.5-37.7,3.3c-9.6-0.2-19.3,0.6-28.9,0.2c-7.9-0.3-16-1-23.7-2.9
			c-10.5-2.6-20.7-6.4-30.9-9.8c-7.9-2.6-15.6-2.7-23.5,0.3c-4.3,1.7-9,2.4-13.5,3.6c-3.3,1-6.6,2.1-9.9,3.2
			c-4.7,1.6-9.4,3.1-14.1,4.8c-3.4,1.2-6.8,2.5-10.1,4c-0.8,0.4-1.8,2.1-1.6,2.5c0.5,1,1.9,2.3,2.8,2.2c2.1-0.1,4.2-0.8,6.3-1.4
			c2.7-0.8,5.3-2.3,8-2.5c8.6-0.6,17.2-0.5,25.8-1.1c15.5-1.1,30.1,2.2,44.2,8.5c4.4,2,8.6,4.5,13.1,6.1c6.5,2.3,13.3,4.1,20,5.8
			c10.1,2.6,20.5,4.4,30.4,7.8c9.8,3.5,19.1,8.5,28.6,13c0.5,0.2,0.9,0.8,1.3,1.2c-0.1,0.4-0.1,0.9-0.2,1.3c-7.4,0-14.8,0.2-22.3,0
			c-18.5-0.5-36.9-2-55.3-1.6c-19.9,0.5-38.8-2.7-57.3-9.5c-8.3-3.1-11.7-3.1-13.6,0.3c-2.5,4.5-1.3,8.2,5.4,13.4
			c21,16.3,41.9,32.9,63.6,48.4c15.1,10.8,31.9,18.4,50.3,22.2c5,1,9.6,3.7,14.4,5.6c-0.2,0.9-0.4,1.8-0.6,2.7
			c-6.3-0.6-12.6-0.9-18.9-1.8c-6.9-0.9-13.7-3.1-20.7-3.3c-16.5-0.5-30.3-7.6-43.4-16.7c-6.3-4.3-12.5-8.8-18.8-13.1
			c-12.2-8.3-22.9-18.1-30.9-30.5c-1-1.6-2.5-2.9-3.7-4.3c-0.5,0.3-1,0.6-1.5,0.9c0.2,1.2,0,2.6,0.5,3.6c3.2,5.6,6,11.6,10,16.6
			c7.3,9.1,15.5,17.2,26.3,22.6c6.9,3.4,12.8,9,19.3,13.3c3.9,2.6,8.1,4.6,13.2,7.4c-2.9,0.5-4.8,1-6.7,1c-10.5-0.1-21-0.4-31.4-0.6
			c-25.5-0.5-46.1-11.2-62.5-30.5c-3.4-4-5.9-9.1-9.9-12.2C73.2,263.7,67,254,64.7,241.7c-0.5-2.6-0.9-5.3-1.7-7.8
			c-0.5-1.7-1.7-3.2-2.5-4.8c-0.5,0.1-0.9,0.2-1.4,0.3c-0.3,1.5-1,3.1-0.9,4.6c0.9,15.6,1.1,31.4,6.7,46.2
			c3.9,10.3,12.4,16.3,22.6,20.1c1.3,0.5,2.4,1.7,3.5,2.6c-1.4,0.3-2.8,0.8-4.3,0.9c-1,0.1-2-0.2-3-0.4c-3.2-0.7-4.7,0.8-5,3.8
			c-0.2,2.2,0,4.4-0.3,6.5c-0.4,2.6-0.3,6.1-1.9,7.4c-4.6,3.8-6.1,8.9-8.1,14c-1.4,3.5-3.9,6.5-5.6,9.9c-3.1,6-6.2,12.1-9,18.3
			c-0.7,1.5,0.1,3.7,0.4,5.6c0.3,2.3,1.8,4.8,1.1,6.7c-2.5,7.2-5.8,14.1-8.5,21.3c-1.3,3.5-2.8,7.2-2.8,10.9
			c-0.1,8.8,0.5,17.6,0.9,26.5c0.1,1.6,0.7,3.1,1.1,4.6c0.6,0,1.1,0,1.7-0.1c0.4-2,1-3.9,1-5.9c0-7.8-0.3-15.7-0.3-23.5
			c-0.1-8.9,6-15,9.7-23.5c2.1,5.1,4.1,8.6,5.1,12.4c4.5,16.5,5.5,33.3,6,50.4c0.2,8.9,4.3,17.7,6.7,26.5c0.5,0.1,1,0.1,1.5,0.2
			c0.6-1.7,1.8-3.4,1.6-4.9c-0.4-3.6-1.4-7.1-2.3-10.6c-0.9-3.7-2.6-7.3-2.6-11c-0.4-15,0.4-30-4.5-44.5c-0.2-0.5-0.4-1.2-0.2-1.4
			c1.5-1.9,3.1-3.7,4.7-5.5c1.3,1.4,3.4,2.6,3.7,4.1c1.8,9.8,2.4,19.9,4.9,29.5c4,15.5,7.2,30.9,2.3,46.7c-0.4,1.4-0.9,3.1-0.6,4.4
			c0.7,2.2,1.8,5.6,3.2,5.8c2.5,0.4,5.9-0.4,7.9-2c1.6-1.3,2.1-4.4,2.6-6.8c0.9-3.9,1.7-7.8,2.1-11.8c0.5-5.4,1.5-11,0.7-16.2
			c-2.7-18.1-6.8-36-8.9-54.2c-3.1-26-1.9-51.9,5.3-77.3c0.3-1,1-1.9,1.9-3.6c1.5,1.9,3,3,3.7,4.5c4.8,10.5,9,21,9,32.9
			c0,25.9,0.8,51.7,10.2,76.3c0.8,2,0.7,4.3,1.2,6.4c3.6,15.3,8.1,30.2,17.9,42.7c2.2-2.6,5.1-4.2,7.6-6.5c0.4-0.4,0.8-0.6,1.3-0.9
			c-1-2-1.9-4.1-2.5-6.3c-4.5-14.5-8.2-29.2-13.2-43.5c-6.5-18.9-8-38.4-8.1-58.1c0-2.6,1.8-5.2,2.7-7.7c1.7-4.4,4.3-8.7,4.8-13.2
			c0.6-6.2-0.2-12.6-0.7-18.9c-0.4-5.1-0.1-5.3,4.9-4.8c9.8,0.8,19.6,1.8,29.3,1.6c11.4-0.3,23.1,1.8,33.9-3.7c0.4-0.2,1-0.1,1.5,0
			c8.2,1.3,16.6,2,24.6,4.1c18.4,4.8,37.3,4.9,56.1,5.5c16.3,0.5,32.6,0.2,49,0.3c1.3,0,2.8,0.2,3.9-0.4c1.2-0.6,2.8-1.8,2.9-2.8
			c0.1-1-1.2-2.9-2.3-3.3c-2.8-0.9-5.8-1.5-8.8-1.7c-11.1-0.6-22.4-0.5-33.5-1.5c-7.7-0.7-15.4-2.5-22.9-4.7
			c-4.9-1.5-9.2-4.6-13.8-7c1.4-1.4,2.4-1.9,3.3-1.8c12.9,1.7,24.2-3.5,35.5-8.4c6.6-2.9,13.2-5.7,19.5-9c1.5-0.8,3.2-3.8,2.8-5.3
			c-0.9-3.1-3.8-2.6-6.2-1.5c-2.1,1-4.2,2-6.3,3c-29.5,14.1-29.5,14.1-62.1,14c-2.7,0-5.3-0.1-8-0.1c-10.5-0.1-19.1-3.1-23.2-13.9
			c-0.5-1.2-1.5-2.2-2.4-3.2c-9.3-10.8-19.2-20.8-30.9-29c-2-1.4-3.7-3.1-5.6-4.6l0.6-1.2c3.2,0.8,6.3,1.7,9.5,2.4
			c3.6,0.8,7.2,1.8,10.8,1.9c14.7,0.4,29.3,0.9,44,0.5c10.2-0.3,19.3,2.3,28.1,7.1c7.3,3.9,14.9,7.5,22.7,10.1
			c23.3,7.7,47.6,4.6,71.5,4.9c1.8,0,3.7-2.3,5.5-3.6c-1.8-1.1-3.6-3-5.5-3.1c-9.7-0.3-19.3-0.4-29-0.1c-14.3,0.4-28.5-0.7-41.9-5.3
			c-9.3-3.2-17.9-8.1-26.9-12.2c0.2-0.6,0.4-1.1,0.6-1.7c1.2-0.2,2.5-0.7,3.7-0.6c15.8,1.1,31.5,2.2,47.3,3.4
			c3.8,0.3,7.6,1.2,11.4,1.4c25.2,1,50.3-0.5,75.3-3.2c0.7-0.1,1.4-0.6,2.1-1c0.1-0.5,0.2-1,0.2-1.4c-2.5-0.6-5-1.7-7.5-1.7
			c-20.3,0-40.7,0.3-61,0.4c-6.3,0-12.6-0.1-18.9-0.5c-2.1-0.1-4.1-1.4-6.3-2.1c4.1-7.1,3.1-9.6-4.1-11.9c-1.7-0.6-3.6-0.9-5.3-1.4
			c-8.5-2.5-17-4.7-25.3-7.7c-5.4-2-10.6-4.8-15.6-7.7c-1.6-0.9-2.2-3.3-3.3-5c1.8-0.6,3.6-1.5,5.4-1.7c10.4-1.3,20.8-2.4,31.2-3.6
			c17.2-1.9,34.4-4,51.6-5.6c8.3-0.8,16.6-0.9,25-1c6.6-0.1,13.5-0.8,19.8,0.5c25,5,49.8,6.6,74.9,0.8c2.3-0.5,4.6-0.6,6.9-1
			c13.8-2.3,27.6-4.4,41.3-7.2c4.9-1,8.9-0.8,13.3,1.7c3.9,2.3,8.5,3.5,12.8,5.2c2.2,0.8,4.6,1.3,6.5,2.5
			c13.2,8.5,25.4,17.8,29.6,34.2c0.5,1.7,2.9,3,4.5,4.4C580.7,233.3,583,230.9,582.7,229z M230.9,211.3c-14.2-2-27.8-5.3-40.8-12.2
			c-14.3-7.6-30-11.8-46.6-10.5c-4.8,0.4-9.6,0.1-14.4,0.1c0-0.3,0.1-0.5,0.1-0.8c8.1-2.1,16.2-4.6,24.5-6.2c4-0.8,8.4-0.6,12.3,0.4
			c8.9,2.2,17.7,4.8,26.2,8c9.5,3.5,19.1,5.8,29.2,5.7c4-0.1,6.5,1,8.3,5.3c1.5,3.6,5,6.5,8.2,10.3
			C235.1,211.3,233,211.6,230.9,211.3z M192.6,273.2c-0.4,0.5-0.8,1.1-1.2,1.6c-7.2-5.5-14.4-10.9-21.7-16.4
			c0.5-0.6,0.9-1.2,1.4-1.8C178.6,261.9,186.9,265.8,192.6,273.2z"/>
		<path class="st0" d="M487,940.6c-12-2.2-28.5-4.5-44.7-8.2c-18.3-4.1-36.5-9.1-54.6-14.4c-21.1-6.2-39-18-56.6-31
			c-23.1-17.1-42.3-38.1-62-58.6c-6-6.2-12.7-11.1-20.7-14.5c-3.9-1.7-7.6-4.1-10.9-6.9c-3.2-2.6-2.3-6.5,1.7-6.9
			c3.9-0.4,8.6-0.2,11.9,1.7c7.1,3.9,14.1,8.3,20.2,13.6c11.1,9.7,22.2,19.7,32.1,30.6c16.2,17.7,35.2,31.7,55.8,43.4
			c16.5,9.4,33.9,17,51.2,24.8c5.8,2.6,12.4,3.4,18.7,4.6c10.9,2.1,22.2,2.8,32.8,5.9c19.5,5.7,39.2,5.3,59,4.5
			c8.1-0.3,16.4-0.8,24.3-2.5c8.2-1.7,16.3-4.6,24.1-7.7c14.9-5.9,29.5-12.4,44.3-18.4c22-8.9,41.4-22.5,57.2-39.4
			c13.1-14.1,28.8-26.5,37.7-44.3c2.4-4.7,7.3-6.2,12.2-6.7c1.3-0.2,3.3,0.9,4,2c0.5,0.8-0.1,3.3-1,3.9c-6.1,4.3-8.4,11-11.4,17.3
			c-1,2.1-2.2,4.2-3.7,5.9c-15.7,17.6-29.6,36.7-49.2,50.6c-19,13.5-39,24.8-60.8,32.1c-24.9,8.3-50,16.5-76.9,15.9
			C511.8,937.6,501.7,939.3,487,940.6z"/>
		<path class="st0" d="M497.9,914.2c-14.8,2-29.2-0.3-43.7-3c-12.9-2.5-26.4-2.8-38.8-6.7c-31.6-9.7-60.8-24.4-84.7-48.1
			c-16.6-16.4-33.1-32.8-49.8-49.1c-3.9-3.8-8.5-6.8-12.7-10.4c-1.5-1.3-2.5-3.2-3.8-4.8c1.9-1.1,3.7-2.8,5.8-3.1
			c6.2-0.8,10.6,2.9,14.8,6.9c24.8,24.1,49.2,48.8,77.1,69.4c18.2,13.4,38.8,22.5,60.9,27.8c10.7,2.5,21.6,4.2,32.2,7
			c24,6.3,48.1,3.5,72,0.5c25.6-3.2,49.7-12.9,73.6-21.9c22.1-8.4,41.5-21.5,56.4-40.8c7.9-10.2,17.3-19.4,26.6-28.4
			c3.9-3.8,9.2-6.4,14.3-8.8c1.7-0.8,4.5,0.8,6.8,1.3c-1,1.9-1.5,4.2-2.9,5.6c-13.8,14.2-27.9,28.1-41.6,42.4
			c-14.8,15.5-32.8,26.2-52.1,34.7c-18.1,8-36.5,15.6-55.2,22c-14.9,5.1-30.4,8.7-46.6,7.4C503.6,914,500.7,914.2,497.9,914.2z"/>
		<path class="st3" d="M245.4,401.8c0.6,4.6-1.7,7-5.2,8.5c-4.9,2.1-9.9,3.9-14.7,6.3c-4.2,2.2-7.8,5.9-12.2,7.3
			c-8.6,2.7-13.8,9.3-20.2,14.6c-2.7,2.2-5.3,4.5-8,6.7c-3.8,3.1-7.6,6.4-11.7,9.1c-1.5,1-4.6,1.4-5.8,0.5c-1.5-1.1-2.8-4-2.4-5.9
			c0.5-3,2.6-5.7,3.6-8.6c1.4-4.1,2.4-8.4,3.6-12.6c0.5-1.7,0.4-4.1,1.6-5c5.8-4.9,7.1-12.3,10.7-18.3c1.5-2.5,4.3-4.3,6.8-5.9
			c1.3-0.8,3.2-0.8,4.9-0.8c10.2-0.1,19.7-2.1,27.8-9.1c1.4-1.2,3.5-1.9,5.5-2.3c4.2-0.9,7.5-2.5,10.1-6.4c1.5-2.2,5.2-3.6,8.1-4
			c10.2-1.5,20.5-3.1,30.8-3.2c4.7-0.1,9.9,2.5,14.1,5c3.8,2.3,3.1,8.2-1.3,10.4c-5.8,2.9-11.3,7.1-19.1,3c-3.1-1.7-8.8,1-13.2,2.1
			c-3.2,0.8-6.1,2.7-9.3,3.5C246.5,397.3,244.4,398.5,245.4,401.8z"/>
		<path class="st0" d="M648.9,587c-0.9,3.7-1.4,7.6-2.9,11c-8.6,20-16.8,40.3-26.3,59.8c-8.2,16.7-18.2,32.3-31.4,45.9
			c-13.4,13.9-29.1,24-46.4,31.8c-5.7,2.6-11.4,4.7-16.8,8.2c-3.2,2.1-8,2-12.1,2.7c-21,3.6-42.1,2.8-63.2,0.4
			c-14.3-1.6-27.9-5.4-41.6-9.5c-7.6-2.3-15.5-3.6-23.2-5.8c-14.1-4-27.3-9.7-38.7-19.2c-0.9-0.7-1.8-1.6-2.9-1.9
			c-14-3.9-25.2-13.2-37.9-19.7c-0.4-0.2-0.9-0.1-1.5-0.2c1.4,8.9,3.7,17.6,4.1,26.4c0.3,8.8,0.4,17.8-4.2,26.2c0-1.7-0.1-3.4,0-5
			c0.8-14.5,0.7-28.9-4.6-42.8c-0.3-0.9-0.6-2-0.5-2.9c1.5-7.3-3.1-12-8-15.5c-12.5-9.1-22.6-20.6-33.1-31.7c-0.5-0.5-0.9-1-1.3-1.5
			c-3.8-5-8.2-7.1-14.5-4.4c-5.7,2.5-11.4,1.5-16.7-1.8c-4.6-2.9-7.5-6.6-8-12.4c-0.5-6.7-1.9-13.4-2.8-20.1c-0.1-1.1,0.7-2.3,1-3.4
			c1.1,0.5,2.8,0.8,3.2,1.7c1.2,2.5,2.2,5.2,2.6,7.9c0.6,4.1,0.6,8.3,1,12.4c0.8,8.5,8.1,14.3,16.1,11.3c10.1-3.8,16.8-1.4,23.4,7
			c7.2,9.1,15.7,17.2,24.2,25.2c7.3,7,14.8,14.1,23.1,19.6c10.6,7,22.2,12.6,33.3,18.8c2,1.1,4.2,2.2,5.9,3.7
			c14.3,12.3,31.6,17.5,49.4,21.7c3.6,0.8,7.1,1.6,10.6,2.8c21,7.1,42.8,9.1,64.7,11c16.4,1.5,32.1-2.4,48.1-4.5
			c0.8-0.1,1.8-0.2,2.3-0.8c7.7-7.4,18.8-7.1,27.3-12.7c8.5-5.6,17.4-10.7,25.1-17.3c7.3-6.2,14.6-13.2,19.4-21.3
			c12.4-21,23.8-42.7,34.9-64.5c5.4-10.6,9.2-22.1,13.8-33.2c0.6-1.6,1.8-2.9,2.6-4.4C647.4,586.5,648.2,586.8,648.9,587z"/>
		<path class="st3" d="M487.3,251.3c7.6,0,15.3,0,22.9,0c1.6,0,3.6-0.1,4.9,0.7c5.3,3,10.6,4.8,17,3.8c3.9-0.6,6.2,4.6,3.3,7.4
			c-2.5,2.4-6.3,4.3-9.8,4.6c-6.9,0.6-14.3-1.3-20.8,0.3c-6,1.5-13.1,1.8-17.7,7.5c-1.4,1.7-4.3,2.5-6.6,2.9
			c-3.6,0.6-7.3,0.7-10.9,0.8c-3.6,0.1-5.4,1.8-7.9,4.6c-4.9,5.6-10.8,10.6-17.1,14.5c-3.7,2.3-9.1,1.7-13.5,3.1
			c-2.6,0.8-4.8,3-7.3,4.4c-3.1,1.7-6.2,3.6-9.6,4.5c-3.3,0.9-5.7,1.4-4.6,5.7c1,3.9-1.2,6.4-4.6,7.8c-3.7,1.4-7.2,1.4-9.9-2.1
			c-1.3-1.7-2.4-3.6-3.8-5.3c-4.4-5.6-3-11,3.8-13.2c4.4-1.4,7.9-3,10.5-7.4c1.4-2.4,6.2-3.3,9.6-3.7c4.9-0.5,8.7-0.8,10.8-6.5
			c0.9-2.5,5.5-3.5,8.4-5.3c2.5-1.6,4.9-3.5,7.4-5c3.2-1.9,6.5-5,9.8-4.9c8.5,0.1,13.9-5.6,20.3-9.3c0.7-0.4,1.2-1.5,1.5-2.4
			c2.3-7.8,3.2-8.5,11.4-8.3c0.8,0,1.7,0,2.5,0C487.3,250.8,487.3,251.1,487.3,251.3z"/>
		<path class="st0" d="M280.2,436.9c11.6,15.8,10.6,30.9-1.9,39.1c-7,4.6-14.4,4.5-22,1.7c-8-3-10.7-10.3-13.9-18.6
			c-2,2.8-3.3,4.7-4.7,6.6c-4.9,6.7-9.7,13.4-14.6,20.1c-0.7,0.9-1.7,1.8-2.7,2.1c-1.9,0.5-3.9,0.5-5.8,0.8c0.8-1.7,1.4-3.6,2.5-5.1
			c5.2-7,11.2-13.5,15.8-20.9c8.1-13,17.8-24,33.1-27.8c12.4-3.1,25-5.3,37.7-7.1c4.9-0.7,10.3,0.6,15.2,1.8
			c1.8,0.4,4.5,3.4,4.2,4.8c-0.7,3.5-3.6,1.7-5.6,0.9C304.9,430.9,292.9,433.6,280.2,436.9z"/>
		<path class="st0" d="M236,131.4c-10.1-0.8-20.4-0.6-30.3-2.5c-13-2.5-25.8-6.3-38.5-10.1c-19-5.7-34.2,0.9-47.6,13.9
			c-1.1,1-1.8,2.5-3,3.3c-1.5,0.9-3.3,1.3-5,2c0.1-2-0.5-4.3,0.4-5.8c1.7-2.8,3.8-5.6,6.4-7.6c14.6-11.4,30.4-17.6,49.2-11.3
			c11.5,3.9,23.1,8.5,34.9,10c19.1,2.4,38.6,3.9,57.8,3c13.9-0.7,27.7-5.3,41.3-9.2c14.9-4.2,29.4-9.6,44.2-14.2
			c4.1-1.3,8.6-1.1,12.8-1.9c12.5-2.2,24.9-4.8,37.3-6.9c30.9-5.4,59.2,1.3,84.9,19.3c0.8,0.6,1.8,1,2.4,1.8c0.6,0.8,0.7,2,1.1,3
			c-1.2,0.3-2.5,1.1-3.5,0.8c-1.5-0.5-2.8-1.6-4.2-2.5c-18-11.4-37.1-20-59-18.8c-12.1,0.7-24.1,2.5-36.1,4.1
			c-10.4,1.4-20.8,2.9-31,5.2c-8.4,1.9-16.5,5.2-24.8,7.7c-17.1,5-34,10.9-51.4,14.6c-12.4,2.6-25.4,2.3-38.1,3.3
			C236.1,132.2,236,131.8,236,131.4z"/>
		<path class="st0" d="M450.2,351.7c-2.1,2.7-3.7,4.8-5.3,6.9c-3.2,4.2-6.5,8.4-9.6,12.8c-1.3,1.9-1.9,4.2-3,6.2
			c-0.6,1-1.7,1.7-2.6,2.5c-0.9-1-2.7-2.2-2.6-3c0.4-2.5,1.1-5.3,2.6-7.3c11.2-15.1,22.1-31,38.1-41.2
			c16.6-10.7,34.5-19.9,55.7-16.2c3.4,0.6,7,0.4,10.4,0.9c1.1,0.2,2.1,1.7,3.1,2.6c-1.1,0.7-2.3,1.9-3.4,2
			c-3.5,0.2-7.1,0.3-10.5-0.3c-10.3-1.9-19.8,1-29.3,4.1c-3.4,1.1-3.9,2.4-2.1,5.7c8,14.4,3,30.2-11.5,37.1
			c-10.1,4.8-20.5,1.8-26.6-7.6C452.8,355.5,452,354.3,450.2,351.7z"/>
		<path class="st0" d="M671.5,292.9c2.6,2.8,4.6,4.5,6,6.7c0.6,0.9,0.1,2.7,0,4.1c-1.3-0.4-2.9-0.3-3.7-1.2
			c-7.6-7.2-15.1-14.5-22.4-22c-1-1-0.7-3.2-1-4.8c1.5,0.4,3.4,0.3,4.4,1.2c4.9,4,9.5,8.3,14.4,12.7c2.1-0.6,5.4-1.7,9-2.8
			c-3.5-13.7-10-26-19.9-36.5c-0.7-0.7-1.6-1.5-1.8-2.3c-0.3-1.6-0.2-3.3-0.2-5c1.5,0.7,3.5,1,4.3,2.2c6.2,9,12.6,18,18,27.4
			c2.3,4,2.7,9.2,3.9,13.9c-0.5,0.2-0.9,0.5-1.4,0.7c1.7,0.5,3.4,0.9,5.1,1.4c4,1.3,6.4,3.7,7.2,8.1c0.6,3.6,2.1,7,3,10.5
			c1.1,4.5,2.9,9.1,2.7,13.6c-0.6,23.4-0.9,46.9-2.8,70.3c-1.1,12.9-8.2,23.8-17.7,32.7c-2.4,2.3-4.9,4.5-7.5,6.5
			c-4.4,3.5-10.8,3.1-14.5-1c-0.9-1-0.7-2.9-1.1-4.4c1.3,0.1,3-0.2,3.9,0.5c3.7,2.9,6.8,2.4,10.3-0.5c12.9-10.8,21.7-23.5,22-41.2
			c0.4-20.3,2.4-40.5,2.2-60.8c-0.1-9-3.8-18.1-6.4-27c-0.4-1.4-3-2.7-4.8-2.9C679.6,292.6,676.1,292.9,671.5,292.9z"/>
		<path class="st0" d="M213.1,93.8c1.4,0.1,2.8,0.1,4.2,0.5c16.2,4,32.7,5.1,49.1,2c7.9-1.5,15.5-5.8,22.9-9.5
			c34.7-17.7,70.9-30.1,110.3-29.7c21.8,0.2,42.2,7.5,61.9,16.3c4.9,2.2,8.7,7,13.1,10.6c-0.5,0.7-1,1.4-1.5,2.2
			c-1.8-1-3.7-1.9-5.5-3c-4.1-2.5-7.8-5.9-12.3-7.4c-21.4-7.5-42.7-15.2-66-13.9C368.8,63,349,68,329.9,74.7
			c-17.1,6-33.5,13.9-50,21.3c-9.3,4.1-19,5.3-28.8,5c-11.3-0.3-22.6-1.7-33.8-2.9c-1.7-0.2-3.3-1.6-5-2.4
			C212.5,95.2,212.8,94.5,213.1,93.8z"/>
		<path class="st0" d="M555.3,536.1c-2.1,1.7-3.1,3-4.3,3.4c-13.9,4-25,12.8-36.7,20.8c-3,2-6.3,3.7-9.4,5.6
			c-10.5,6.4-21.2,12.5-31.3,19.5c-9.2,6.5-18.9,11.8-29.5,15.3c-2.8,0.9-5.9,1.2-8.8,1.2c-11.7,0-22.3,3.3-31.5,10.6
			c-7.4,5.9-14.9,11.8-22.4,17.5c-1.1,0.8-2.9,0.8-4.3,1.2c0.2-1.8-0.2-4.1,0.7-5.2c2.4-2.7,5.4-5,8.3-7.2
			c12.8-9.8,24.8-21.6,42.1-21.9c15.8-0.3,28.7-6.9,41.2-15.5c11.1-7.6,22.7-14.4,34.1-21.6c11-6.9,21.8-14,33-20.6
			c4.1-2.4,8.9-3.5,13.5-4.9C551.1,534.1,552.7,535.2,555.3,536.1z"/>
		<path class="st0" d="M590.3,235c0.4-5.4,0.3-10.2,1-14.7c1.4-8.3-0.6-15.8-3.7-23.3c-6.3-15.3-16.5-27.8-27.1-40.5
			c-13.5-16.2-29.1-28.7-48.8-36.1c-1.2-0.4-1.9-2.2-2.8-3.4c1.5-0.4,3.2-1.4,4.4-1c4.5,1.6,9,3.5,13.3,5.7
			c12.6,6.7,24.3,14.4,32.8,26.4c3.5,5,8.1,9.3,12.6,13.5c10.2,9.9,16.8,21.7,20.8,35.3c2.4,8.2,3.1,16.3,2.9,24.9
			c-0.3,13.4,1.4,26.8,2.7,40.2c0.2,2.4,2.2,4.8,3.7,7c3.8,5.3,7.9,10.3,11.6,15.6c0.8,1.2,0.4,3.3,0.6,4.9
			c-1.5-0.6-3.4-0.8-4.3-1.9c-4.6-5.7-9.2-11.4-13.2-17.6c-2.1-3.2-3.3-7.2-3.8-11.1C591.8,250.8,591.2,242.5,590.3,235z"/>
		<path class="st0" d="M633.2,179.7c8.8,16.3,22,30.5,21.9,50.7c0,3-0.1,5.6-4,6.4c-0.9,0.2-1.7,2.5-1.8,3.9
			c-0.4,5.5-0.1,11-0.9,16.4c-0.6,3.8-2.8,7.4-4.1,11.1c-1.2,3.6-2.4,7.2-3.3,10.9c-7,29-6.2,57.3,7.4,84.6c1.4,2.9,2.1,6.3,2.6,9.5
			c0.1,0.9-1.6,2-2.4,3.1c-0.9-0.8-2.2-1.5-2.6-2.5c-1.9-5.1-3.1-10.5-5.5-15.4c-6.4-13.3-7.8-27.4-8.4-41.8c-0.6-14,0-28,4.8-41.4
			c1.5-4.1,3.4-8.1,4.6-12.2c1.2-4.1,2.2-8.3,2.7-12.6c0.5-4.8,0.2-9.7,0.1-14.5c0-3,0.3-5.5,3.9-6.6c0.9-0.3,1.9-2.8,1.6-4
			c-1.5-6.4-2.9-13-5.4-19c-2.9-6.9-7.1-13.2-10.6-19.8c-1-1.9-1.7-4.1-2.5-6.2C632,180.2,632.6,179.9,633.2,179.7z"/>
		<path class="st0" d="M351,504.8c0.5,7.9,0.4,15.1,1.5,22c1.8,10.8,9.5,16.2,19.4,19.1c3.6,1,6.9,0.2,8.8-3
			c5.5-9.6,15.5-10.5,24.1-9.8c15.8,1.4,24.6-6.8,31.9-18.4c2.4-3.8,3.9-8.1,6.1-12c3.9-7.2,10.5-10.5,18.4-11.1
			c1.5-0.1,3.2,1.5,4.8,2.3c-1.3,1-2.5,2.7-4,2.9c-9,1.1-14.2,6.5-17.3,14.6c-3.9,9.8-10.3,17.7-19.1,23.7
			c-6.1,4.2-12.9,3.6-19.7,3.6c-4.8,0-9.6,0.5-14.3,1.4c-1.8,0.4-3.7,2.2-4.9,3.8c-6.4,8.7-11.4,10.5-21.3,5.9
			c-8-3.7-13.6-9.8-15.3-19C348.5,522.2,347.9,513.9,351,504.8z"/>
		<path class="st0" d="M506.7,539.5c0.7,0.4,2,0.7,2.2,1.4c0.3,0.9,0.1,2.4-0.5,3c-1,1-2.4,1.7-3.8,2.3c-8.6,3.5-17.5,6.6-25.8,10.6
			c-6.8,3.3-13.2,7.5-19.4,11.8c-5.3,3.7-10.6,6.6-17.3,6.8c-11.8,0.5-21.8,4.8-30,13.7c-4.3,4.6-9,8.8-13.8,12.9
			c-1.1,0.9-3.1,0.8-4.7,1.2c0.3-1.6-0.1-3.9,0.9-4.8c7-6.9,13.8-14,21.5-20c7.3-5.7,16.2-7.9,25.6-8.9c5-0.6,9.9-3.2,14.5-5.7
			c6.8-3.7,13-8.6,20-11.9c9.1-4.3,18.8-7.6,28.2-11.3C504.8,540.3,505.6,540,506.7,539.5z"/>
		<path class="st0" d="M435.2,633.2c-3,0-6,0.3-9-0.1c-1.3-0.2-2.5-1.7-3.7-2.6c1.2-0.9,2.3-2,3.6-2.7c0.6-0.4,1.6-0.2,2.5-0.1
			c20.6,1.5,38.3-6.4,55.3-16.9c11.5-7.1,21-16.2,29.9-26.2c1.4-1.6,2.6-3.5,4.3-4.8c1.5-1.1,3.5-1.6,5.3-2.3c-0.4,2-0.2,4.7-1.3,6
			c-5.9,6.7-11.8,13.7-18.5,19.6c-15.8,13.9-33.8,24.2-54.5,29c-4.5,1-9.2,1.2-13.8,1.8C435.2,633.6,435.2,633.4,435.2,633.2z"/>
		<path class="st0" d="M658.3,617.4c0.3,0.7,0.8,1.5,0.8,2.2c-0.2,13.5-0.2,27-0.7,40.4c-0.5,12.8-1.5,25.6-2.2,38.4
			c-1.2,19.9-2.3,39.8-3.4,59.7c-0.2,4.1-0.1,8.3-0.7,12.4c-0.2,1.3-2,2.4-3.1,3.6c-0.6-1.5-1.9-3.1-1.8-4.6
			c2.2-33.5,4.7-67.1,6.8-100.6c0.9-15.1,1-30.2,1.6-45.4c0.1-2.1,0.7-4.3,1.1-6.4C657.2,617.3,657.8,617.4,658.3,617.4z"/>
		<path class="st0" d="M522.8,306.3c-1.2,0.3-2.3,0.9-3.5,0.8c-26.3-1.6-49.1,7.8-70.8,21.6c-11.1,7.1-20.4,16-28.3,26.4
			c-1.1,1.4-3.2,2.1-4.8,3.1c0.5-1.9,0.4-4.3,1.6-5.7c5.8-6.6,11.2-13.8,18-19.3c10.8-8.8,22.4-16.8,35.9-21.1
			c2.8-0.9,5.6-2.2,8.3-3.5c12.3-5.8,25.5-5.9,38.7-5.6c1.7,0,3.3,1,4.9,1.6C522.8,305.2,522.8,305.8,522.8,306.3z"/>
		<path class="st0" d="M291.7,420.6c-2,1-3.8,2.3-5.9,2.9c-9.4,3.1-19.5,4.9-28.3,9.3c-12.1,6-22.4,14.8-30.9,25.6
			c-3.2,4-6.4,8-9.7,11.9c-0.5,0.6-1.9,1-2.6,0.7c-0.7-0.3-1.8-1.6-1.6-2.2c0.5-2.2,1-4.7,2.4-6.3c10.1-11.5,20.2-23.1,33.4-31.2
			c5.9-3.6,12.4-6.2,19-8.3c6.6-2.1,13.6-3.1,20.5-4.5c0.9-0.2,1.9,0.1,2.9,0.2C291.1,419.4,291.4,420,291.7,420.6z"/>
		<path class="st0" d="M337.7,594.2c-0.1,2.9-0.1,4.9-0.4,6.9c-0.9,7.9-2.5,15.8-2.6,23.7c-0.1,8.7,4.6,15.3,12.4,19.7
			c7.2,4.1,14.4,8.3,21.4,12.9c1.5,1,1.9,3.7,2.8,5.6c-1.9-0.3-4.1,0-5.7-0.9c-7.8-4.4-15.6-9-23.2-13.7c-7-4.4-11.3-10.9-12.9-18.8
			c-2.5-11.8,2.1-22.6,5.6-33.5C335.2,595.6,336.1,595.3,337.7,594.2z"/>
		<path class="st0" d="M555.3,476.1c0.7-0.3,1.5-0.9,2.2-0.9c9.9,0.7,20,0.4,27.5,8.9c4.5,5.1,9.7,9.7,14.2,14.7
			c7.7,8.6,7.9,20.2,11.5,30.5c0.3,0.8-0.3,1.8-0.4,2.7c-0.4,0.2-0.9,0.4-1.3,0.6c-0.8-1.7-1.8-3.3-2.5-5c-3.6-8-6.1-16.7-10.9-23.9
			c-4.7-7.1-11.1-13.5-18-18.5c-4.7-3.4-11.4-4-17.3-5.9c-1.7-0.6-3.4-1.1-5.2-1.7C555.2,477.1,555.2,476.6,555.3,476.1z"/>
		<path class="st0" d="M39.8,330.1c-0.2,1.7-0.1,3.5-0.7,5c-2.5,6.8-5.6,13.5-7.8,20.4c-3.8,11.8-7.3,23.8-10.6,35.7
			c-0.7,2.6-0.1,5.6,0.5,8.3c1.1,5.5,2.6,11,3.7,16.6c0.4,1.8,0.1,3.7,0.1,5.6c-0.4,0.1-0.8,0.2-1.2,0.3c-0.5-1.2-1.2-2.3-1.5-3.5
			c-1.6-6.1-3.6-12.2-4.6-18.4c-0.8-5.3-1.4-11.1-0.1-16.2c2.7-10.2,6.7-20.1,10.3-30.1c2.3-6.6,4.7-13.1,7.2-19.6
			c0.7-1.8,2-3.4,3-5C38.6,329.6,39.2,329.8,39.8,330.1z"/>
		<path class="st0" d="M671,337.8c1,4.6-1.1,8.1-4,12c-2.5,3.3-3.3,7.8-5,11.7c-0.6,1.4-1.7,2.5-2.5,3.8c-0.8-1.4-2.5-3.1-2.2-4.2
			c1.3-4.7,2.5-9.8,5.2-13.7c4.5-6.4,4.6-12.7,1.5-19.2c-3.2-6.6-8.7-10.7-15.9-12.7c-1.6-0.5-2.9-2.1-4.4-3.2
			c1.9-0.5,3.8-1.7,5.5-1.5C658.7,311.9,672.7,324.6,671,337.8z"/>
		<path class="st0" d="M316.7,392.9c3,0.3,4.9,0.1,6.3,0.8c2.6,1.1,5.3,2.4,7.3,4.3c13,12.2,23.9,25.9,28.2,43.7
			c0.3,1.4,0.4,2.8,0.6,4.2c-0.5,0.3-1.1,0.6-1.6,0.9c-1-1.5-2.6-2.8-3.1-4.5c-2.9-10.5-7.8-19.7-16-27.1
			c-6.7-6.1-13.2-12.5-19.7-18.7C318.3,395.8,318,395,316.7,392.9z"/>
		<path class="st0" d="M232.1,607.5c-0.1,0.8,0.1,1.8-0.2,2.5c-1,1.7-2.2,3.3-3.3,4.9c-1.1-1.6-2.9-3.2-3.1-4.9
			c-0.8-7.4-5.8-11.6-11-15.8c-2.4-2-6.9-3.6-4-7.5c2.7-3.7,6-0.6,8.8,1.1C226.7,592.2,231.9,598.2,232.1,607.5z"/>
		<path class="st0" d="M678.6,359.1c1.2-6.5,2.3-11.9,3.1-17.3c0.6-3.8,0.5-7.6,1.1-11.3c0.2-1.5,1.5-2.8,2.3-4.1
			c0.9,1.4,2.7,2.8,2.6,4.1c-0.4,6.3-1,12.5-2.2,18.7c-1.1,5.8-2.5,11.3,0.8,16.9c0.4,0.8-0.4,2.3-0.6,3.4c-1.2-0.4-3-0.5-3.4-1.3
			C680.7,365.1,679.6,361.7,678.6,359.1z"/>
		<path class="st0" d="M591.5,536c-0.5,0.6-1.7,1.9-2.9,3.1c-1-1.4-2.8-2.8-3-4.3c-0.6-7.6-2.7-14.3-9.3-18.9
			c-0.7-0.5-1.4-1.1-1.6-1.8c-0.4-1.4-0.4-2.9-0.5-4.4c1.4,0.1,3-0.2,4.1,0.5C587,516,590.6,524.6,591.5,536z"/>
		<path class="st0" d="M373.1,646.5c-7.3,0-10.4-4.1-8.8-10.1c0.5-1.8,0.7-3.6,1.4-5.2c0.5-1,1.7-1.7,2.6-2.5c0.8,1,2.1,2,2.4,3.2
			c0.4,1.2,0.1,2.7-0.4,3.9c-1.1,3-0.2,4.6,2.9,5.5c1.1,0.3,1.8,1.9,2.7,3C374.8,645.1,373.6,646.1,373.1,646.5z"/>
	</g>
</g>
<g id="YhGUAo_1_" class="st1">
	<g>
		<path d="M144.7,514.1c-3.9-7.3-7.7-14.6-11.6-21.9c0.4-2.5-0.1-5.7,1.3-7.2c14.3-15.6,28.6-31.3,43.5-46.3
			c15.7-15.8,33.4-28.9,54.9-36.5c11.5-4,22.2-10.2,33.8-13.8c16.3-5.1,33.1-8.4,50.4-5c3.3,0.6,6-0.4,7.7-3
			c5.4-8.1,14.1-11.3,22.1-15.7c2.5-1.4,5.6-1.7,8.1-3.1c4.8-2.7,9.2-6.2,14.2-8.6c3.5-1.7,7.5-2.9,11.3-3.1c7.3-0.4,8.3-0.6,11-7.5
			c6.9-17,19.8-28.9,33.9-39.8c-1.2,1.5-2.5,3-3.6,4.4c10-7,20-14,28.9-20.2c-2.5,1.3-6.1,3.2-9.7,5.1c3.7-2.8,7.4-5.6,11.1-8.4
			c3.4-1.8,6.8-3.6,10.2-5.4c2.7-1.1,5.5-2.1,8.2-3.1c9.4-3.4,18.6-7.9,28.3-10c25.5-5.4,51.2-9.7,76.7-14.5c3-0.6,4.8,0.8,6.1,3.2
			c2.9,5.5,5.7,11,8.4,16.5c3.1,6.5,2.9,8-2.9,12.3c-8.3,6.1-11.8,14-10.1,24.2c0.4,2.2,0.6,4.4,0.8,6.6c1.6,14.8,3.8,29.5,4.6,44.3
			c1,21.3-7.4,39.1-23.1,53.3c-16.5,14.9-35.9,24.4-57.4,30c-24.6,6.3-47.3,1.8-67.3-13.5c-11.7-9-22.1-19.8-33-29.9
			c-3.8-3.5-5.1-7.6-4.7-13c1-11.4-6.3-17.5-17.4-14.9c-13.3,3.1-25.1,9.5-35.3,18.4c-9.2,8.1-8.3,17.3,2.2,23.8
			c3.4,2.1,5.6,4.8,6.2,8.6c2.5,15.7,6.1,31.3,7,47.1c1.6,28.5-9.6,51.6-32.9,68.5c-5.6,4.1-11.3,8-16.9,11.9
			c-2.1,1.1-4.2,2.2-6.3,3.3c-2.2,0.8-4.4,1.7-6.6,2.3c-11,3.1-21.8,7.3-33.1,9c-22,3.4-40.2-6-56.2-20.2
			c-9.1-8.1-18.1-16.4-27-24.7c-6.8-6.3-14.2-8.2-23.1-4.7C153.5,514.6,149.2,516.4,144.7,514.1z M561.8,315.3
			c-0.1,0.1-0.2,0.2-0.2,0.3c-3.6-5.9-7-11.9-10.8-17.6c-10.5-15.6-28.3-24.8-48.6-18.6c-15.6,4.8-30.4,11.1-44.5,19.2
			c-15.5,8.9-30.2,18.9-41.9,32.8c-8.3,10-11,21.2-7.9,33.9c2.8,11.6,8,22.2,15.1,31.7c22,30,51.6,43.6,88.7,29
			c12.6-5,24.8-11.6,36.5-18.6c5.1-3,9.1-8.5,12.5-13.6c7.3-11.1,11.9-23.2,11.6-36.9c-0.3-11.6-2-22.9-5.7-33.8
			c-1.7-5.1-4.2-9.8-6.3-14.8c-0.4,0.2-0.8,0.4-1.2,0.5C559.9,311.1,560.9,313.2,561.8,315.3z M194.9,509.7
			c-0.1,0.1-0.2,0.1-0.3,0.2c1.1,1.8,2.2,3.6,3.4,5.4c6.9,9.6,15,17.8,24.7,24.8c12.4,9,25.7,13.6,40.9,11.5
			c23.9-3.3,44.4-14.1,62.4-29.9c14.4-12.6,21.6-28.8,21.8-48c0.2-20.1-6-38.2-16.8-54.9c-12.1-18.8-29-24.9-50.7-19.5
			c-31.3,7.9-59.4,21.9-83.3,43.6c-10.3,9.3-15.3,21.4-12.3,35.4c1.5,7.1,3.8,14.3,7.1,20.8c4.6,9.3,10.4,17.9,15.6,26.5
			C203.4,520.6,199.2,515.2,194.9,509.7z M575.6,269.7c-0.3-0.5-0.5-1.1-0.8-1.6c-5,0.9-10,1.6-14.9,2.7c-1.1,0.3-2.7,1.9-2.7,3.1
			c-0.1,1.8,0.2,4.3,1.4,5.4c1.2,1.1,4.4,1.8,5.5,1C568.2,277.1,571.8,273.3,575.6,269.7z M169.2,485.4c-6.5-3.5-6.5-3.5-11.4,1.4
			c-1.4,1.3-2.8,2.6-4.1,4c-1.2,1.3-2.2,2.6-3.5,4.2c1,0.4,1.3,0.6,1.5,0.6c3.5-0.6,6.9-1.2,10.4-1.8
			C168.3,492.5,168.5,492.2,169.2,485.4z"/>
	</g>
</g>
<g>
</g>
<g>
</g>
<g>
</g>
<g>
</g>
<g>
</g>
<g>
</g>
</svg>
