<?xml version="1.0" encoding="utf-8"?>
<!-- Generator: Adobe Illustrator 16.0.3, SVG Export Plug-In . SVG Version: 6.00 Build 0)  -->
<!DOCTYPE svg PUBLIC "-//W3C//DTD SVG 1.1//EN" "http://www.w3.org/Graphics/SVG/1.1/DTD/svg11.dtd">
<svg version="1.1" id="Layer_1" xmlns="http://www.w3.org/2000/svg" xmlns:xlink="http://www.w3.org/1999/xlink" x="0px" y="0px"
	 width="2002px" height="2776px" viewBox="0 0 2002 2776" style="enable-background:new 0 0 2002 2776;" xml:space="preserve">
<style type="text/css">
<![CDATA[
	.st0{fill-rule:evenodd;clip-rule:evenodd;}
]]>
</style>
<g id="mObLkx_1_">
	<g>
		<path class="st0" d="M2002,2674c-8.4,1.1-16.1,0-24.2-3.6c-18.8-8.4-38.2-15.4-57.4-22.8c-3.3-1.3-7.1-1.5-10.7-2.3
			c-1.6,2.6-2.9,4.7-4.1,6.5c-1,0-1.4,0.1-1.6,0c-26.3-14.8-55.8-12.8-84.3-15.5c-1.7-0.2-3.3-0.2-5-0.1c-23.4,2-45.5-3.5-67.7-10
			c-17.2-5.1-34.8-9-52.1-13.7c-3.8-1-7-3.9-10.8-5c-14.7-4.3-29.4-8.3-44.9-9.1c-43.3-2.3-86.5-5.5-129.7-7.9
			c-14.6-0.8-29.3-0.6-44-0.5c-24.1,0.2-47.9-2.4-71.5-7c-1.6-0.3-3.3-0.7-4.9-0.9c-32.2-3.1-63.7-10.6-95.6-15.8
			c-12.1-2-24.5-2.2-36.8-3c-4.6-0.3-9.3-0.3-14-0.2c-21.4,0.5-42.2-1.8-63.4-6c-33.3-6.7-67.1-10.7-101.2-11.9
			c-7.5-0.3-15.1-2.1-22.5-3.4c-13.5-2.4-26.9-4.8-40.3-7.3c-23.6-4.4-47.2-8.7-70.7-13.5c-11.7-2.4-22.6-2.6-34.2,1.9
			c-14.9,5.7-30.5,9.6-46,13.4c-9,2.2-18.4,3.5-27.6,3.8c-21.6,0.6-43.3,0.7-65,0.4c-8.2-0.1-16.5-2.1-24.7-3.4
			c-22.1-3.5-44.3-5.4-66.7-5.2c-19.3,0.2-38.7-0.7-58,0.2c-24.3,1.2-46.7-5.8-68.9-14.1c-11.8-4.4-23.7-8.8-35.5-13.3
			c-2.8-1.1-5.5-2.4-7.9-4.2c-9.1-6.8-18.1-13.5-30-14.6c-1.1-0.1-3.1-2.4-2.9-3.2c0.5-1.6,1.9-3.7,3.4-4c2.1-0.5,4.8-0.2,6.7,0.8
			c8,4,15.8,8.5,23.7,12.7c4.6,2.5,9.3,5,14.1,7c7.7,3.2,15.5,6.2,23.3,8.9c15.7,5.4,31.5,10.7,47.4,15.7c3.7,1.2,7.9,1,11.9,1
			c13.3,0.1,26.7,0.2,40,0c7.5-0.1,15.4,1.8,21.9-3.9c0.8-0.7,2.6-0.5,3.9-0.6c14.3-1.2,28.5-2.5,42.8-3.4
			c17.9-1.1,34.8-4.9,50.7-13.6c5.7-3.1,12.5-4.2,19-5.8c2.5-0.6,5.4-0.5,6.4,4.3c-2.1,0.9-4.3,1.9-6.5,2.7
			c-6.8,2.5-14,4.4-20.5,7.5c-11.6,5.5-23.5,9.4-36.2,10.7c-3.9,0.4-7.8,1.2-11.6,2.4c34.9,6.7,69.9,11.7,106.8,8
			c0.2-3.3,0.7-6.8,0.7-10.3c0.1-24.7,0-49.3,0-74c0-7.3,0-14.6,0-22.4c-1.2,0.3-2.8,0.4-4,1.1c-14.9,8.9-29.4,18.4-44.6,26.6
			c-9.9,5.4-20.6,9.3-31.2,13.3c-15.9,6-32.2,10.9-47.9,17.3c-12.6,5.1-25.4,4.5-38.4,4c-1.6-0.1-3.1-1.7-4.6-4.7
			c2.6-0.6,5.4-2,7.9-1.7c18,2,34-4.5,50.1-11.3c8.3-3.5,17-5.9,25.5-8.8c14.8-5.1,29.4-10.4,42.7-19c12.3-8,25.1-15.2,37.8-22.4
			c2.7-1.5,6.1-1.7,9.7-2.6c5.5-11.8-0.2-22.6-14.1-25.9c-15.9-3.8-31.7-7.5-47.4-12c-7.6-2.2-14.8-6-22.2-8.9
			c-8.6-3.4-17.4-6.4-26-9.9c-3.9-1.6-7.8-3.9-11.2-6.5c-11.1-8.5-22.1-17.1-35.9-21.1c-4.7-1.4-9-4.3-13.2-7.1
			c-16.4-10.8-32.8-21.6-46.9-35.5c-7.1-7-14.7-13.7-23.1-19c-5.4-3.4-12.4-4.3-18.9-5.5c-2-0.3-5.1,1.8-6.6,3.7
			c-7.7,9.5-16.1,18.5-20.5,30.5c-1.8,4.8-5.4,9.2-8.8,13.2c-10.6,12.2-18.9,25.4-23.3,41.4c-2.6,9.4-7.9,18.3-12.9,26.9
			c-8,13.8-17.8,26.9-20.1,43.2c-2.3,16.4-6.6,32.7-5.3,49.5c0.3,3.6,1.4,8.1-3.7,11.1c-1.1-1.7-2.2-3.1-3.1-4.6
			c-1-1.6-1.5-4.5-2.8-4.7c-7.5-1.8-9.3-8.1-11.8-13.8c-3-7-5.5-14.1-8.4-21.5c-0.2-0.1-0.8-0.7-1.4-0.6c-12.2,0.8-23.4-2.6-35-5.9
			c-19.8-5.7-40.3-9.1-60.2-14.5c-22.1-6.1-44.6-6.9-67.3-7.7c-20.9-0.7-42-2.1-62.7-5.3c-38.8-6.1-77.4-13.5-116-20.7
			c-25.2-4.7-50.3-10.3-75.5-15c-7.1-1.3-14.6-1-21.9-1.4c0-2,0-4,0-6c8.6,0.3,17.5-0.6,25.8,0.9c53,10,105.9,20.7,158.9,30.8
			c33.8,6.4,67.8,10.5,102.3,10.1c22.2-0.3,43.7,3.7,65,9.3c16.4,4.3,33.1,7.8,49.6,11.7c4.2,1,8.6,1.8,12.4,3.7
			c8.6,4.4,17.3,3.1,27,2.7c-0.1-18.8,8.6-34.6,16-50.3c8.3-17.6,15.8-35.7,28.1-51.4c12.9-16.4,23.3-34.8,34.4-52.6
			c10.2-16.4,19.5-33.3,29.7-49.7c3.3-5.3,8.1-9.6,12.2-14.4c2.3-2.6,5.1-3.4,8-1.6c4.8,2.9,10.1,5.5,13.7,9.6
			c14.5,16.2,29.8,31.2,48.7,42.5c7.9,4.7,14.5,11.6,21.6,17.7c6,5.2,11.7,10.9,17.7,16.1c1.9,1.6,4.5,2.9,7,3.4
			c21.2,4.4,38.6,16.1,54.9,29.5c4.9,4,9.9,6.5,15.9,7.6c11.5,2.1,22.9,4.3,34.3,6.5c18.9,3.7,35.9,12.1,52.7,21
			c4.1,2.2,7.6,5.3,11.5,7.9c9.4,6.2,13.5,14.1,12.9,26c-1.3,26.3-1.2,52.6-1.7,78.9c0,2,0.1,4.2-0.8,5.9
			c-7.6,14.5-2.9,28.4,1.5,42.8c2.2-0.1,4.3,0.1,6.1-0.4c14.7-4.3,29.6-8.1,44-13.2c8.9-3.2,17.4-4,26.4-2.3
			c37,6.8,74.3,12.5,111,20.8c17.8,4,35.6,4.1,53.4,6.2c33.4,4,67,6.3,99.7,15.1c3.8,1,7.9,1.2,11.9,1.3c12.7,0.2,25.3,0.1,38,0.1
			c18,0,36,1,53.6,5.2c5.7,1.4,11.6,3.5,16.7-2.1c0.9-1,3.2-0.6,4.8-0.9c9.8-1.9,19.6-3.7,29.3-5.6c13.7-2.7,27.5-5,41.1-8.5
			c13.2-3.4,25.9-8.5,39.1-12.1c15.7-4.4,31.5-8.4,47.5-11.8c18.2-4,36.7-6.9,54.9-10.8c13.5-2.9,26.9-4.1,40.7-4
			c25.7,0.2,51.3,0.4,77-0.2c8.8-0.2,17.7-2.4,26.4-4.3c12.7-2.8,25.2-6.3,37.8-9.3c11-2.5,22.1-4.9,33.2-6.9c3.7-0.7,8-1.5,12,3.6
			c-2.6,1.2-4.7,2.7-6.9,3c-26.5,3.3-52.3,9.9-77.8,17.5c-7.2,2.1-15,3.2-22.6,3.3c-22.3,0.4-44.7,0.5-67,0.1
			c-19.8-0.3-39.2,1-58.6,5.3c-20.5,4.6-41.1,8.3-61.7,12.5c-17,3.5-33.4,8.7-49.7,14.7c-12.1,4.4-25.2,6.3-37.8,9.1
			c-15.2,3.5-30.4,6.8-45.8,12.1c1.9,0.8,3.8,2,5.8,2.4c9.9,1.6,19.7,3,29.6,4.5c17.5,2.6,34.9,5.4,52.4,7.8
			c8.6,1.1,17.3,2,25.9,1.8c43.4-1.2,86.5,3.8,129.8,6.3c18,1,35.9,2.3,53.9,2.5c17.6,0.2,34.3,4.5,50.9,9.5
			c16.3,4.9,25.5,0.4,32.7-14.9c5.4-11.4,10.4-23.4,18-33.3c8.2-10.7,18.8-19.6,29.1-28.5c5.1-4.4,12.1-4.7,18.7-3.6
			c1.7,4-0.8,5.5-3.4,5.9c-18.1,3.1-28.5,16.8-38.4,29.8c-7.5,10-11.8,22.3-18.2,33.2c-3.6,6.2-8.3,11.8-13,18.4
			c1.7,0.8,3.4,2.1,5.4,2.7c20.8,5.9,41.7,11.7,62.6,17.4c3.5,0.9,7.2,1.1,10.9,1.1c33.7-0.4,67.2,2.9,100.7,6.5
			c4.2,0.4,7.6,0.5,11-2.8c11.6-11,23.5-21.7,35.2-32.6c12-11.2,12.4-15.4,3.1-29.1c-2.4-3.5-5.4-6.7-9-11.2
			c-3.7,2.8-7.1,5.1-10.2,7.8c-7.1,6.1-13.8,12.5-21,18.4c-8.5,6.9-17.9,12.9-26.1,20.2c-11.1,9.8-24,8.4-36.9,7.7
			c-1.9-0.1-3.7-2.4-5.3-3.5c-5.9,0.9-11.1,7.7-17.4,1.2c0.8-1.2,1.1-2.4,1.8-2.7c24.2-10.9,40.9-30.1,56.6-50.7
			c4.6-6,10-11.5,15.4-16.9c7.1-7,14.1-13.9,20.3-23.5c-3.9-1.9-7.1-3.3-10.1-4.9c-6-3.3-12.4-6.3-17.9-10.4
			c-9.4-6.9-18.2-14.5-27.3-21.8c-4.7-3.8-10-4.6-15.9-4.8c-17-0.7-33.9-1.8-50.8-3.1c-3.5-0.3-7.2-1.4-10.4-3
			c-11.1-5.4-21.7-11.8-33-16.7c-10-4.4-20.9-6.7-30.9-11.2c-17.3-7.7-34.3-16.2-51.2-24.8c-7.7-3.9-15.4-6.2-24-5.6
			c-4.8,0.4-9.1,0.4-12.5-4.1c-1.4-1.8-4.6-2.4-7-3.4c-14.5-5.9-29-11.7-43.5-17.5c-9.3-3.7-18.5-7.6-27.8-11.2
			c-19.3-7.4-38.5-15.1-58-21.8c-28.7-9.9-57.2-20.3-83.9-34.6c-17.2-9.2-35.1-13.9-53.8-17.5c-23.6-4.5-46.2-12.5-69-20
			c-11-3.6-22.6-5.6-34.2-6.9c-21.5-2.4-43.2-3.2-64.7-5.7c-28.8-3.4-57.4-7.7-86.1-11.6c-5.3-0.7-10.6-1.5-15.9-1.4
			c-28.2,0.5-55.6-5.4-83.2-10.5c-18.7-3.5-37.2-7.5-54.7-15.1c-5.5-2.4-11-4.7-16.4-7.4c-1.8-0.9-3.1-2.9-4.6-4.4
			c3-3.9,5.9-2.4,8.5-1.3c5.2,2.2,10.2,5,15.6,6.8c43.8,14.9,88.7,23.6,135,24.7c5.3,0.1,10.6,0.8,15.9,1.5
			c16.2,2,32.4,4.2,48.5,6.2c17.5,2.2,35,4.3,52.5,6.2c19.2,2,38.5,4,57.7,5.6c16.9,1.4,32.1,8.6,48.1,13c18.9,5.2,37.9,10.1,57,15
			c8.4,2.2,16.9,3.9,25.3,6c2.9,0.7,5.6,2.1,8.3,3.3c17.8,8.3,35.3,17.2,53.4,24.7c25.2,10.4,50.9,19.7,76.4,29.4
			c23.4,8.8,46.9,17.2,69.4,28.1c12.8,6.2,26.4,10.8,39.8,15.8c2.4,0.9,5.3,0.3,7.9,1c7.7,2,15.6,3.3,22.8,6.5
			c21,9.4,41,21.1,62.5,28.8c18.6,6.7,36.4,14.4,53.6,24c2.8,1.5,6.3,2.1,9.6,2.3c15.6,1,31.2,2.2,46.9,2.5c8.8,0.2,16.3,2.3,23,7.9
			c8.9,7.5,17.6,15.4,27.2,21.9c7.6,5.2,16.3,8.5,24.9,12.8c16.6-16.9,36.2-17.4,56.4-14.6c0.3,1.2,0.6,2.3,0.9,3.5
			c-2.2,0.7-4.4,2-6.6,2.1c-5,0.3-10,0.1-15,0.2c-8.6,0.2-16.5,2.6-23.4,7.6c-5.1,3.7-5.6,6.2-2.7,11.9c4.3,8.6,8.6,17.2,12.8,25.6
			c8.8,0.4,13.4-9.8,22.9-7.1c-2.3,9.4-13.3,8.7-17.4,16.3c4.7,7.8,9.7,15.9,15.2,25c3.6-3.5,6.5-7.1,10.2-9.8
			c3.6-2.7,7.7-5.3,12-6.5c5.3-1.4,8.4,2,7.3,7.5c-0.7,3.1-2.3,6.3-4.2,8.9c-4,5.3-8.1,10.7-12.8,15.3c-5.4,5.2-6.5,10.1-2.7,16.7
			c6.5,11.4,7.3,24.1,6.4,36.9c-0.2,2.6-1,5.2-1.6,8.5c8.8,2.9,16.3,9.5,26.6,9c1.8-0.1,3.7,1.3,5.5,2
			C2002,2671.3,2002,2672.7,2002,2674z M461.6,2468.5c0.8-0.2,1.6-0.5,2.4-0.7c0.2-1.3,0.5-2.5,0.7-3.8c2-14.2,3.5-28.4,6-42.5
			c3-16.5,12.8-29.8,21.1-43.9c4.5-7.7,9.4-15.7,11.6-24.2c4.4-17.1,13.3-31,24.6-44c3-3.5,6.2-7.3,7.7-11.5
			c5-13.5,14.5-23.8,23.7-34.3c2-2.3,5.8-4.5,8.5-4.3c8.9,0.7,18.1,1.6,25.5,7.3c7.9,6,15.7,12.4,22.8,19.3
			c14,13.6,29.9,24.4,46.2,34.8c4.7,3,10.1,5.1,15.1,7.8c8.2,4.4,16.7,8.3,24.4,13.4c8.8,5.9,16.4,13.7,27.9,14.6
			c2.5,0.2,4.9,2,7.3,3.2c24.2,12.3,49.7,21.1,76.7,24.8c10.4,1.4,16.3,8.4,22.3,15.4c1.8,2.2,2.1,6.3,1.9,9.5
			c-0.3,4.6-1.8,9.1-2.6,13.7c-1.1,5.5-2.9,11.1-2.9,16.6c-0.3,28.7-0.2,57.3-0.1,86c0,2.2,0.7,4.4,1.2,7.2c7-0.4,13.6,1,20.1-3.1
			c-0.3-2.4-0.4-4.7-0.9-6.9c-3.7-13.7-5.3-27.4,0.9-40.9c0.7-1.4,0.5-3.3,0.5-4.9c0.5-22.6,1.3-45.3,1.5-67.9
			c0.3-22.4-0.8-24-20.1-35.7c-1.1-0.7-2.3-1.4-3.5-2c-22.9-12.2-47-20.3-72.8-23.3c-11.3-1.3-21.5-4.8-30.7-12.7
			c-15-12.7-31.6-23.3-51.8-26.7c-3.3-0.6-6.4-3.4-9.1-5.7c-16.8-14-31.1-31.2-51.3-41.1c-0.9-0.4-1.6-1.2-2.3-1.9
			c-11-10.7-21.9-21.4-33-31.9c-3.2-3.1-7.1-5.5-10.4-8.1c-11.4,6.3-16.4,16.5-21.5,26c-15.4,28.8-33.2,56.2-51.2,83.4
			c-8.8,13.3-18.8,25.5-24.5,40.8c-5.3,14.3-12.4,27.9-18.8,41.8c-4.7,10.1-4.9,20.9-3.3,31.4
			C452.4,2452.4,456.5,2460.9,461.6,2468.5z M1838,2606c13.8,2.4,24.7,2,34.3-7c6-5.7,13.2-10.1,19.6-15.4
			c12.3-10.1,24.3-20.3,37-30.9c-4.6-9.6-8.8-18.4-13.4-27.9c-2.4,1.8-3.9,2.6-5,3.7c-8.2,8.3-16.3,16.6-24.4,25
			c-2.3,2.4-4.2,5.1-6.3,7.7c-6.1,7.4-11.9,15.2-18.4,22.2C1854.5,2590.8,1846.8,2597.6,1838,2606z M1944.3,2615.6
			c-1.1-4.1,2.5-5.6,4.5-8c2.2-2.5,4.4-4.9,1-9.1c-13.2,13.1-28.3,23.3-39.7,37.2c18.6,7.2,36.2,14.1,54.4,21.3
			c-0.1-16.1,2.1-31.5-8.7-44.2C1951.4,2613.2,1949.2,2619.1,1944.3,2615.6z M1958.1,2596.3c7.8-7.1,13.3-13.3,16.4-21.5
			c-6.2,4.4-11.4,9.6-16.3,15C1957.5,2590.6,1958.1,2592.7,1958.1,2596.3z"/>
		<path class="st0" d="M1242,2776c-9.3-6.1-20.2-5.8-30.5-8c-2.3-0.5-4.7-0.6-7-0.5c-9.2,0.5-17.5-1.6-25.4-7
			c-4.8-3.3-10.9-5-16.7-6.4c-33-7.9-66.1-16-99.3-23c-14.9-3.2-30.3-4.1-45.5-6.2c-26.4-3.7-52.7-7.8-79.1-11.3
			c-12.4-1.6-24.6-1.7-36.5-7.5c-8-4-18-4.2-27.2-5.6c-16.5-2.5-33-4.3-49.5-6.8c-33.9-5.1-67.8-10.4-101.7-15.6
			c-16.5-2.5-32.9-5.8-49.4-7.2c-37-3.2-73-11.4-109.1-19c-16.2-3.4-32.1-8.7-48-13.6c-20.8-6.4-42.3-9-63.7-12.2
			c-35.6-5.3-71.1-11.4-106.9-15.1c-47.5-4.9-93.9-15.4-140.4-25.8c-25.6-5.8-51.5-10.4-77.3-15.5c-15.7-3.1-31.3-6.9-47.1-8.8
			c-19.8-2.3-39.8-2.9-59.8-4.1c-6.6-0.4-13.3-0.5-19.9-0.8c0-2,0-4,0-6c49.7-2.6,98.1,5.8,146.5,16.5
			c57.9,12.8,116.1,23.9,174.3,35c17,3.2,34.5,3.3,51.6,5.7c30,4.2,59.9,9.6,89.9,13.5c19.6,2.6,39.1,5.3,57.6,12
			c28.7,10.3,58.6,15.3,88.3,21.4c40.1,8.3,81,11.6,121.5,18c24,3.8,48,7.6,72.1,11.2c25,3.7,50.1,6.8,75.1,10.8
			c11.4,1.8,22.6,5.3,33.9,8.1c3.9,1,7.6,2.6,11.5,3.1c30,4.2,60,8.2,90.1,12.2c13.9,1.8,27.8,3,41.6,5.3c12.5,2.1,24.8,5.2,37.1,8
			c22.1,5.1,44.1,10.3,66.2,15.3c10.2,2.3,19.8,5.7,28.8,11.1c3.2,1.9,7.5,2.8,11.3,2.9c23.3,0.7,45.2,7.5,67.3,13.8
			c1.2,0.3,2.2,1.4,3.3,2.1C1260.7,2776,1251.3,2776,1242,2776z"/>
		<path class="st0" d="M2002,2436c-3.2-0.8-6.6-1.2-9.5-2.6c-22.6-10.6-45.3-21-67.5-32.5c-7.2-3.7-13.4-9.8-18.9-15.8
			c-3.8-4.1-7.7-7.1-12.8-8.9c-8.8-3-17.6-6.3-26.3-9.4c-5.6-2-11-4.4-17.4-1.8c-2.1,0.9-5.3-0.2-7.7-1.2
			c-11.6-5.1-22.9-10.6-34.5-15.6c-7.3-3.1-14.9-5.7-22.5-8.3c-11-3.7-22.2-7.1-33.2-10.8c-2.2-0.7-4.1-2.2-6.1-3.3
			c-9.8-5.6-19.6-11.3-29.4-16.8c-10.5-5.8-21.4-10.9-31.5-17.2c-8.9-5.5-18.3-9.4-28.3-12.1c-14.5-4-29.1-7.3-43.3-12.2
			c-15.1-5.2-29.6-11.8-44.3-18c-8.9-3.8-17.6-7.9-26.2-12.3c-3.5-1.8-6.9-4.2-9.6-7c-6.1-6.2-13.4-9.9-21.7-11.6
			c-18.9-3.8-38-7-56.8-11c-8.7-1.8-17.5-4.1-25.7-7.5c-14.7-6.2-29-13.5-43.5-20.2c-22.5-10.3-45.4-19-69.8-23.8
			c-21.9-4.3-43.6-9.2-64.6-16.9c-15-5.5-30.6-9.4-46.2-12.7c-16.7-3.5-33-0.1-49,5.8c-7.7,2.8-16,4.4-24.1,6
			c-2.9,0.6-6.9,1.1-8.5-4c1.6-0.8,3.1-2,4.8-2.4c9.3-2.4,18.8-4.1,27.9-7c12.5-3.9,24.9-7.5,38.1-6.5c4.6,0.3,9.4,0.4,13.8,1.7
			c19.8,5.7,39.4,12.2,59.3,17.6c17,4.6,34.2,8.6,51.5,12.1c26,5.3,50.4,14.7,74.2,26.2c15,7.2,29.9,14.8,45.6,20.4
			c11.8,4.2,24.6,5.3,37,7.9c14,2.9,28.2,5.3,41.9,9c6.2,1.7,12.7,5,17.4,9.3c8.3,7.6,17.9,12.8,27.9,17.2
			c14.6,6.4,29.2,13,44.2,18.3c15.4,5.4,31.2,9.6,46.9,13.8c13,3.4,25.3,7.8,36.6,15.3c8.3,5.5,17.5,9.6,26.2,14.4
			c10.8,5.9,21.4,12.1,32.3,17.8c4.1,2.1,8.6,3.3,12.9,5c20.6,8.4,42.7,12.9,62.3,24.2c6.6,3.8,14,6.2,21.1,8.9
			c2.1,0.8,5,1.7,6.7,0.9c6.3-2.8,11.7-0.2,17.3,1.8c9.4,3.4,18.8,6.8,28.2,10.1c5.8,2,10.2,5.4,14.2,10.3
			c4.5,5.5,10.2,10.9,16.5,14.1c24.4,12.3,49.2,23.6,73.9,35.4C2002,2432,2002,2434,2002,2436z"/>
		<path class="st0" d="M1053.1,1899.2c-9,4.3-17.9,8.9-27,12.9c-4.3,1.9-8.6,5.4-15,1.8c1.7-1.9,2.8-3.9,4.5-4.8
			c14.4-7.6,29-14.9,43.4-22.6c2.7-1.4,4.7-4,7.1-6c-0.4-0.7-0.8-1.4-1.2-2.2c-2.2,0.7-4.6,1.2-6.7,2.2c-6.9,3.2-9.7,1.6-10.2-5.9
			c-1.2-16.4,10.7-25.1,26.8-19.1c1.6-4.6,1.6-9.3-0.7-13.4c-5.2-9.2-10.4-18.4-18.9-25.5c-8.1-6.8-15.4-14.7-22.9-22.2
			c-1.6-1.6-3.9-3.7-3.9-5.5c0-7.6-5.5-10.1-10.7-13c-7.2-4.1-14.5-8-22.8-12.7c0.7,2.8,0.8,4.9,1.7,6.7
			c12.2,24.4,17,50.4,15.4,77.5c-1,16.9-2.5,33.8-5.3,50.5c-1.5,9-5.7,17.7-9.4,26.2c-3.2,7.4-6.8,14.4-6.3,22.8
			c0.1,2.2-1.3,4.6-2.6,8.9c-2.2-3.4-3.8-4.8-4-6.3c-0.7-7-0.6-14,2.8-20.5c2.3-4.4,4.6-8.9,6.5-13.5c3.9-9.2,6.6-18.6,6.9-28.9
			c0.3-11.6,2.9-23,3.7-34.6c0.7-10.6,1.5-21.5-0.1-31.9c-2.6-17.4-6.9-34.5-15.4-50.4c-6.4-12-11.2-24.8-17.1-38
			c-6.8-0.7-13.3-1.8-19.8-2c-8.7-0.4-17.3,0-26-0.2c-3.1-0.1-6.2-0.9-9.4-1.4c0.8-6,4.5-5.5,7.7-5.6c9.7-0.1,19.3-0.3,29,0
			c8.8,0.3,17.2-0.6,25.1-5c1.2-0.6,2.4-1.1,3.7-1.5c5.7-2,11.1-3,14.3,5.7c4.2-5.1,7.5-9.2,11-13.1c1.2-1.3,3.4-2.8,4.8-2.5
			c1.4,0.2,2.9,2.5,3.4,4.1c3.6,10.9,8.1,13.1,20.9,9.2c-4.4-4.6-8.9-8.9-12.9-13.5c-1.8-2.1-3.9-4.9-4-7.4
			c-0.3-17-0.4-34.2,8.7-49.5c2.1-3.6,4.8-7.7,8.2-9.7c14.5-8.3,25.3-7.6,29.7,11.4c4.1,17.3,2.7,34.6-4.4,50.9
			c-2.3,5.3-6.7,9.8-10.7,14.1c-2.4,2.6-5.9,3.7-5.8,8.4c0,1.7-3.2,4.1-5.4,5.2c-13.6,6.9-26.9,14.8-42.5,17c-0.9,0.1-1.6,0.9-3.7,2
			c2.5,3.3,4.4,6.8,7.3,9.2c3.8,3.2,8.1,5.8,12.4,8.3c14.4,8.2,28.8,16.4,43.4,24.3c3.1,1.7,6.7,2.8,10.3,3.5
			c12.7,2.4,22.8,7.9,30.2,19.2c4.4,6.8,11.2,12.2,17.4,17.6c6.2,5.5,14.2,5.8,21.8,4.8c7.2-1,14.7-2.2,21.1-5.2
			c8.4-3.9,16.8-6.5,25.8-6.8c4.3-0.2,7.5-1.5,10.3-4.9c5.7-6.9,11.6-13.7,17.8-20.2c2.9-3.1,6.6-5.6,10.1-8.1
			c18-13.1,32.4-28.6,37.1-51.3c0.3-1.6,1.1-3.3,1.1-4.9c-0.4-20.6,0.3-41.3-1.8-61.8c-1.8-18.1-5.5-36.2-10.6-53.7
			c-5-16.8-12.1-33.2-26.3-45.1c-5.4-4.5-11.3-7-18.1-7.4c-12.7-0.6-25.3-0.1-37.5,4.2c-3.4,1.2-7.1,1.7-10.6,2.8
			c-1.8,0.6-4.7,1.2-5.1,2.5c-2.2,7.2-8,5.9-13.1,6c-29.3,0-58.7,0-88,0c-3.6,0-7.1,0-11.7,0c1,3.3,1.3,5.3,2.2,6.9
			c5,9,10.2,17.9,15.3,26.9c0.8,1.4,1.7,2.9,2.2,4.5c1.3,4.2-0.2,6.6-4.5,6.8c-4.3,0.2-8.7,0-13-0.4c-1.5-0.1-3.9-1-4.3-2
			c-2.1-7.1-8.6-8.2-14.4-10.3c3.8-6.1,11.5-6.5,16.3-1.2c1.1,1.2,1.6,2.9,2.6,4.2c1.3,1.7,1.4,1.6,7.7,1.2
			c-6.9-13.6-12.7-27.2-23.1-38.3c-3-3.2-5.9-6.4-8.3-9.9c-1-1.5-0.5-3.9-0.8-6.9c8.6,2.1,10.9,9.4,14.9,12.3
			c11.2-0.2,21.1-0.6,31-0.6c20-0.1,40,0,60,0c4.6,0,9.5,0.8,12.8-3.7c0.3-0.5,1.1-0.8,1.8-0.8c20.5-2.5,39.6-11.2,60.7-11.3
			c20.2-0.1,33.8,9.4,43.4,25.2c9.4,15.4,17,31.9,19.6,49.9c4,28.2,11.3,56.2,8.3,85.2c-0.4,3.9-0.1,7.9-0.1,12.5
			c6.1-0.9,7.9-5.2,9.7-8.7c11-20.2,21.5-40.6,32.6-60.7c3.4-6.2,3.2-11.6,0.9-18c-5.7-16-10.4-32.3-16.1-48.3
			c-1.7-4.9-4.6-9.6-8-13.5c-8.7-10.1-17.2-20.6-27.3-29.1c-9.3-7.8-20.4-13.9-31.4-19.3c-16-7.8-30.7-17.2-43.8-29.3
			c-12.9-11.9-31.2-8.1-39.2,7.4c-7.5,14.5-12.1,29.4-11.2,45.9c0.2,3-0.9,6.1-1.4,9c-5.2,0-5.3-2.8-5.6-5.5
			c-1.1-13.8,1-27.2,5.8-40.1c1.3-3.6,1.8-6.3,0.1-10.2c-2-4.4-1.7-9.8-2.9-14.6c-1.6-6.4-3.6-12.6-5.7-18.9
			c-2.2-6.6-7.6-8.8-13.9-9.7c-5.9-0.9-11.8-2.3-17.7-3c-6.6-0.8-10.4-4-11.1-10.6c-0.1-0.7-0.4-1.3-0.5-1.9
			c-1.3-9.9-6.7-16.4-16-19.9c-2.4-0.9-4.8-2.1-8-3.5c-1.9,3-4,5.5-5.3,8.4c-6.2,13.6-12.1,27.3-18.1,41c-1.2,2.7-2.4,5.4-3.8,8
			c-2.4,4.4-5.2,8.6-7.3,13.1c-6,12.7-13.6,24.3-22.4,35.3c-5.6,7-10.1,14.8-14.7,22.5c-1,1.7-0.1,4.4-0.1,7.2
			c-2.4,0-4.6,0.3-6.7-0.1c-2.3-0.3-4.5-1.2-6.7-1.9c-14.7-4.9-29.7-6.5-45.2-6.4c-24.6,0.1-49.3-1.1-73.9-1.8
			c-2.4-0.1-4.7-1.2-7.5-1.9c2.3-5.6,6.3-5,9.7-4.9c15.7,0.2,31.3,0.6,47,1c10.7,0.3,21.3,0.9,32,0.8c10.4-0.1,20.5,0.8,30.6,4
			c10,3.2,15.1,0.4,20.7-8.5c6.6-10.4,14.4-20,20.6-30.6c7.8-13.4,14.8-27.4,21.7-41.3c8.1-16.4,14.7-33.6,23.8-49.4
			c7.2-12.3,11.6-25.4,15.5-38.8c8.7-30,17.3-60.1,25.9-90.2c3.1-10.8,8.5-21,8.7-32.7c0.1-4.6,1.2-9.2,1.3-13.9
			c0.2-10-0.1-20,0.1-30c0.3-16.4-1-32.3-5.5-48.3c-5.3-18.5-7-37.9-11.3-56.6c-3.6-15.8-8.6-31.4-13.1-47
			c-4.5-15.3-9.2-30.5-13.9-45.8c-0.5-1.6-1.2-3.1-2-4.5c-7.9-14.1-11.9-29.3-13.7-45.4c-1.8-16.5-6.3-32.7-8.4-49.2
			c-1.5-11.8-1-23.9-1.3-35.9c-0.1-4.2,0-8.4,0-14.8c-5.5,4.3-8.9,6.9-12.9,10c-4.1-5.8-0.4-8.9,2.6-12.3
			c6.8-7.7,13.9-15.2,20.2-23.3c6.8-8.8,6.5-9.4,0.4-18.3c-2.2-3.2-4.1-6.6-6.3-10.3c3.6-2,7.4-2.9,8.7-5.2c1.5-2.6,0.7-6.5,1-9.8
			c1.1-14.4-5-25.6-15.3-35.5c-10.6,10.1-8.5,24.3-12.8,35.9c-6-1.8-4.8-5.6-4.8-8.7c0.1-10.6,4.2-20.1,8.9-29.4
			c7.6-15.1,15-30.4,22.4-45.7c1.1-2.3,1.8-4.8,3.3-8.9c-3.4,1.4-5.7,1.7-7.2,3c-14.6,12.5-32.4,15.2-50.5,16
			c-31.7,1.5-63.2-1-94.6-6c-3.8-0.6-7.5-2.4-11.1-4c-2.1-0.9-3.8-2.9-6-3.6c-18.1-6.2-28.5-20.9-39.6-35.1
			c-4.7-6-10.3-11.2-15.4-16.9c-11.6-12.9-23-25.8-34.5-38.7c-5.8-18.1-18.8-34-17.5-54.5c0.3-5.1-1.2-10.4-1.8-15.5
			c6.3,1.9,9.2,4.2,8.9,10.2c-1.1,23.2,10.4,41.4,22.2,59.7c9.4,14.7,20.7,27.5,33.6,39.3c8.5,7.8,15.2,17.6,22.2,26.9
			c4.3,5.7,8.9,10.6,15.8,13.2c3.1,1.1,6.2,2.8,8.8,4.8c8,6.2,17.4,7.9,27.1,9.1c27.2,3.3,54.4,5.1,81.7,4
			c17.2-0.7,33.8-3.6,47.6-15.3c4.3-3.7,9.2-6.6,14.1-9.5c1.5-0.9,4.6-1.5,5.3-0.7c1.2,1.5,2.2,4.4,1.6,6c-4.7,12.4-9.9,24.7-15,37
			c-0.9,2.1-2.2,4.1-3.4,6.1c-5,8.3-4.7,15.2,2.2,23.4c12.2,14.5,14.3,31.8,8.3,49.8c-1,3.2-1.1,5.5,0.8,8.3
			c4.9,7.4,3.7,14.4-1.7,21.1c-4.9,6.3-9.5,12.8-13.7,18.3c1.3,4.9,3.6,9.2,3.3,13.3c-1.8,25.9,3.4,51,7.6,76.3
			c1.7,9.8,2.1,19.9,4.3,29.6c1.8,7.7,5.3,15,8.1,22.4c5.1,14,10.7,27.9,15.3,42c5.6,17.4,10.5,35,15.4,52.6
			c1.8,6.7,2.7,13.6,4,20.5c0.3,1.6,0.1,3.4,0.5,5c4.1,18.5,8.3,37,12.4,55.5c0.8,3.6,1.8,7.2,1.9,10.8c0.2,19.7,0.9,39.3-0.2,58.9
			c-0.6,11.1-3.6,22.3-6.6,33.1c-6.4,23.4-13.3,46.7-20.3,70c-6.2,20.4-12.8,40.6-19.2,60.9c-0.5,1.6-0.9,3.1-1.6,5.5
			c2.8,1.7,5.5,3.7,8.3,5.1c9.3,4.5,15.7,11.3,17.3,21.7c1,6.3,4.4,9.3,10.4,10.1c3,0.4,5.9,1.6,8.8,1.6c19.8,0.1,26.7,13.3,30.1,31
			c0.8,4,1.3,8.1,2,12.3c1.9-0.6,2.8-0.5,3-0.9c8.6-12.5,21.3-12.5,34.1-10.5c4.6,0.7,9.3,3.7,12.9,6.9
			c13.1,11.6,27.2,21.2,43.1,28.6c9.9,4.6,19.1,10.8,28.6,16.4c1.1,0.7,2.3,1.4,3.2,2.4c10.8,11.8,21.8,23.4,32.1,35.6
			c3.2,3.8,4.8,9.3,6.5,14.2c4.5,13.2,8.6,26.6,12.9,39.9c0.4,1.3,0.8,3,1.7,3.5c7.4,4.4,6.1,11.9,6.5,18.6
			c0.7,12.4-0.2,24.5-5.5,36.2c-3.1,6.9-5,14.4-7.5,21.7c-6.1,18.4-21,31.5-29.6,48.4c-1.5,3-3.7,5.6-5.1,8.6
			c-4.4,9.1-10.5,16.8-17.6,24.1c-8.1,8.3-15,17.8-25.2,24c-4.5,2.8-8.8,5.9-13.2,8.9c-2.6,1.8-5.2,3.6-7.4,6.2
			c10.5-0.5,20-2.9,29.1-8.1c28-15.9,48.6-39,66.5-65.1c2.1-3.1,3.3-7.6,9-6.1c1.6,4.3-1.2,7.3-3.2,9.9
			c-9.8,12.6-19.7,25.1-30.1,37.2c-11.4,13.3-25.8,23.3-41.2,31.3c-8.1,4.2-17.5,6.1-26.3,8.9c-1.9,0.6-4.1,0.4-5.9,1.2
			c-23.3,10.7-47.9,4.5-72,5.6c-4.9,0.2-9.1-0.6-7.4-7.5c-18.1-2.1-30.2-12.7-39.3-26.7c-5.3-8.1-12.1-13.7-21.4-15
			c-9.3-1.3-17-5.2-24.5-10.4c-1.6-1.1-3.4-1.8-6.9-3.6c1.1,3,1.3,4.7,2.2,5.6c6.7,6.5,13.2,13.2,20.4,19.1
			c9.3,7.7,16.5,17.5,19.8,28.3c4.1,13.6,4.8,28.2-5.8,40.7c-4.6,5.4-8.6,10.9-15.7,13.3c-2.3,0.8-4.2,3.2-6.2,4.8L1053.1,1899.2z
			 M1192.2,1832.1c0.5,0.8,0.9,1.6,1.4,2.4c3-0.9,6.3-1.4,9-2.9c8.3-4.9,16.2-10.4,24.4-15.4c10.4-6.4,17.4-16.2,25.8-24.6
			c6.5-6.4,11.9-13.4,15.8-21.6c1.7-3.6,4.4-6.7,6.1-10.3c8.1-16,22-28.4,28-45.8c4-11.6,8.1-23.2,11.9-34.8
			c0.8-2.6,0.5-5.6,0.9-10.7c-2.4,2.7-3.4,3.5-4,4.6c-17,28.1-30.7,58.1-49.7,85c-0.8,1.1-1.4,2.3-1.8,3.5c-2.1,5.6-6,9.2-10.7,13.3
			c-10.5,9.1-20.6,18.5-31.7,27.1c-7.5,5.8-13,14.1-19.3,21.5C1196.2,1826.1,1194.3,1829.2,1192.2,1832.1z M1061.7,1672.2
			c-1-8.3-1.1-14.4-2.5-20.1c-2.8-11.3-11.1-13.8-20.1-6.1c-2,1.7-3.3,4.1-4.7,6.3c-5.7,9.1-6.3,19.4-7.8,29.6
			c-1.3,8.9,1.3,16.4,6.2,23.4c5.8,8.3,12.3,8.6,18.5,0.6c2-2.6,3.9-5.6,4.7-8.7C1058.3,1688.2,1060.1,1679.2,1061.7,1672.2z
			 M1021.8,1729.1c-4.7-3.5-8.7-6.4-12.6-9.2c-8.6,6.2-17,12.3-25.9,18.7c1.3,1.1,2.5,2.7,3.2,2.5
			C998.2,1738.2,1010.9,1738.1,1021.8,1729.1z M1147.4,1841.5c0.1,0.7,0.2,1.5,0.4,2.2c11.6,0,23.2,0,34.5,0c0-4.6,0-8.7,0-13
			C1168.8,1830.1,1159.1,1838.8,1147.4,1841.5z M1070.4,1870.9c0.5,0.4,0.9,0.8,1.4,1.2c0.7-1,1.6-1.9,2.1-3.1
			c0.5-1.2,0.5-2.6,0.7-3.9c-0.4-0.1-0.9-0.2-1.3-0.3C1072.2,1866.9,1071.3,1868.9,1070.4,1870.9z"/>
		<path class="st0" d="M491.5,1831c6.6-4.9,14.5-1.9,21.7-2.4c8-0.5,16.2-1.1,23.9,0.2c7.2,1.2,13.9,4.8,22.2,7.8
			c-6.2-24.6-20-44.8-25.6-69.5c-6.3,3.1-11.7,6-17.3,8.5c-6.1,2.7-12.2,5.3-18.5,7.4c-4.4,1.5-4.6,1.1-11.2-2.6
			c7.3-5.3,16.2-5,23.1-9.1c6.8-4.1,14-7.7,21.5-11.8c-2.7-15.9-5.2-31.5-12.8-46.4c-18.3,4.4-30.8,19.1-47.3,26.2
			c-3.1-4.5-0.7-6.6,1.8-8.2c10-6.6,20.1-13,30.2-19.4c2.5-1.6,5.6-2.5,7.9-4.3c1.5-1.3,3.3-3.9,3-5.6c-2.4-12.4-5.2-24.7-8-37.1
			c-0.2-0.9-1-1.7-2.1-3.4c-4.1,1.4-8.8,2.1-12.7,4.3c-16,8.9-32,17.9-46,29.9c-4.8,4.2-8.2,9.2-9.1,17.8c3.4-2.8,5.3-4.4,7.2-6
			c6-5,13-6.5,20.6-5.9c6.2,0.4,9.3,4.6,11.9,9.4c2.7,4.9-0.7,8.1-3.2,11.6c-4.1,5.6-9.5,9.4-16.1,11.3c-5.7,1.6-11.7,1.8-15.3-3.9
			c-2.7-4.3-6.4-4.9-10.5-4.5c-4.3-15.5-0.9-27.2,10.9-36c9.3-7,18.9-13.6,28.8-19.7c9.9-6.1,20.3-11.2,31.4-17.3
			c-0.3-2.1-0.5-5-1.3-7.8c-5.1-17.3-10.4-34.4-15.4-51.7c-1.3-4.4-4.1-5.9-8.2-5.5c-8.3,0.9-16.6,1.7-24.8,3.1
			c-17.4,2.9-34.5,7.2-51.1,13.5c-10.8,4.1-22,7.4-34,11.4c3.8,3.3,7.4,2.2,10.7,2.2c31.7,0.1,63.3,0,95,0.1c3.7,0,8.1-1.4,10.8,3.3
			c-2.4,4.8-6.9,3.4-10.5,3.4c-23.3,0.1-46.7,0.1-70,0.1c-15.7,0-31.3,0-47,0c-2.7,0-5.4,0.2-8-0.4c-1.6-0.4-3.7-2.1-4-3.5
			c-0.3-1.5,0.9-3.7,2.2-5c1.4-1.3,3.4-2,5.3-2.6c25.9-8.6,51.6-17.9,77.9-25.2c15.6-4.3,32.1-5.2,48.3-7.7c1.3-0.2,2.5-0.5,5.2-1
			c-0.6-3.6-0.7-7.1-1.8-10.3c-7.9-22-16.2-43.7-23.8-65.8c-2.9-8.4-4-17.4-5.9-26.2c-0.3-1.6-0.1-3.4-0.8-4.9
			c-5.6-12.4-10.7-25.1-17.1-37.1c-6.9-12.9-14.8-25.2-19-39.5c-2.1-7.1-6.4-12.9-13.5-16.5c-12.1-6.3-24.1-12.9-36-19.6
			c-11.9-6.7-24.8-9.5-38.3-9.3c-5,0.1-10,0.2-15-0.1c-2.4-0.1-4.7-1.2-7-2.9c7.8-6.3,16.9-4,25.2-3.7c9.2,0.3,18.7,1.6,27.4,4.5
			c8.3,2.7,15.8,8,25.7,13.2c-2.4-7.7-4.1-13.3-6-18.8c-3.2-9.8-6.7-19.5-9.7-29.3c-1.3-4.4-2.4-9.1-2.4-13.6
			c-0.1-44.6-1.4-89.3,4.2-133.8c0.2-1.6,0.5-3.4,0.3-5c-1.6-14.6,3.8-27.4,10.4-39.9c10.1-19.1,20.6-38.1,30-57.5
			c6.3-13.1,10.8-27.1,16.6-40.5c1.5-3.5,4-6.9,7-9.4c21.7-18.3,47.2-30.4,73.5-39.8c12-4.3,23.2-9.2,34.2-15.2
			c14.5-8,29.9-12.6,46.9-11.9c17,0.7,34,0.3,51,0.1c6.2-0.1,11.7,1.1,17.2,4.2c7.6,4.2,15.6,7.4,23.5,11.1
			c13.9,6.5,27.7,13.2,41.6,19.6c4.8,2.2,9.7,4.9,14.8,5.8c7.8,1.4,13.6,5.2,18.4,11c21.1,25.7,42.7,50.9,59.1,80.3
			c10.8,19.4,18.8,39.6,26,60.3c1.2,3.4,1.4,7.2,1.4,10.8c0.2,13.3,0.2,26.7,0,40c0,3.6-0.7,7.3-1.1,10.9c-2,15.5-4,31.1-6.2,46.5
			c-0.7,4.5-1.6,9.2-3.4,13.4c-7.2,17.6-14.9,35-22,52.5c-1.9,4.6-2.6,9.6-4,14.4c-0.6,2-1.6,3.9-3.4,8c-1.7-4.1-3.3-6.1-3.1-7.9
			c0.4-4.6,1-9.4,2.7-13.6c7.3-18.2,15.1-36.3,22.6-54.5c1.6-3.9,2.9-8.1,3.6-12.3c2.5-16.5,5-32.9,6.7-49.5
			c1-10.2-0.1-20.7,0.9-30.9c1.8-17.2-4.1-32.7-9.2-48.5c-5.8-18.4-17-33.9-26.2-50.4c-12.5-22.6-30.6-41.1-46.3-61.3
			c-5.2-6.7-11.4-11.9-20.5-13c-3.8-0.5-7.5-2.7-11.1-4.4c-23.5-11.1-46.9-22.3-70.5-33.3c-2.9-1.4-6.4-2-9.6-2.1
			c-20.3-0.2-40.7-0.4-61,0c-18.4,0.4-33.8,9.2-48.8,18.8c-3.5,2.2-7.6,3.5-11.6,4.8c-3.1,1-6.7,0.9-9.7,2.2
			c-24.8,10.6-49.8,21.1-70.8,38.6c-2.4,2-4.7,4.9-5.6,7.8c-5.8,18.5-14.5,35.6-23.9,52.6c-11.3,20.3-20.5,41.8-30.5,62.9
			c-1.1,2.3-1.6,5.1-1.8,7.7c-4.3,49.2-6.3,98.4-4.9,147.8c0.2,5.8,1.9,11.7,3.7,17.3c4.6,14.9,9.7,29.7,14.4,44.6
			c0.6,1.8,0.1,3.9,0.1,6.4c4.6,2.6,9.1,5.4,13.8,7.7c9.9,4.9,14.8,13.3,18.5,23.5c3.9,10.9,9.8,21,14.9,31.5
			c6.6,13.8,13.2,27.5,19.7,41.3c0.7,1.5,1,3.2,1,4.9c0,13.4,5,25.3,9.6,37.5c7.3,19.3,14.1,38.8,21.1,58.2c0.7,1.9,0.8,3.9,1.2,5.9
			c2.1,10.8,3.5,21.7,6.4,32.3c5.4,19.6,11.6,38.9,17.5,58.4c0.4,1.3,1,2.5,1.1,3.8c1.2,19,8.7,36.1,15.1,53.6
			c2.7,7.5,3.8,15.5,6,23.2c4.2,15,8,30.2,13.1,44.9c4.6,13.5,11.5,26.3,15.8,39.9c3.6,11.3,9,21.3,14.3,31.7
			c4.6,9.1,7.3,19.2,9.9,29.1c2.8,10.6,4.9,21.4,6.8,32.2c0.9,5.5,0.8,11.3,0.8,16.9c0,5.2,2,8.6,6.4,11.5
			c5.8,3.8,11.2,8.3,16.5,12.9c5.8,5,6.8,12,7.2,19.1c0.6,9.8,2.4,19.4,8.3,27.4c5.5,7.5,11.8,14.3,18,21.3c1.2,1.4,3.4,2.1,5.3,2.6
			c13.7,4.1,26.6,10.2,39.7,15.7c9.6,4.1,18.3,9,26.9,14.6c4.4,2.9,9.1,5.6,13.1,9.1c5.9,5.1,12.3,7.5,20.1,7.2
			c10.3-0.3,20.7,0,31-0.1c15.5-0.1,28.5-6.6,39.4-16.9c6.2-5.8,10.8-13.4,16.4-19.9c12-13.9,24.6-27.3,40.4-36.9
			c11.1-6.7,22.8-12.3,34-18.8c8.6-5,17-10.3,25.1-16.1c2.8-2,4.4-5.7,6.3-8.9c7.3-12.5,12-25.7,13.2-40.4
			c1.1-12.5,3.7-24.9,5.9-37.3c0.5-2.6,2.3-5,3.4-7.4c4.9,1.3,4.3,4.1,3.9,6.8c-2.2,15.4-3.9,30.9-6.8,46.2
			c-2.9,15.1-8.4,29.4-17.2,42.3c-0.9,1.4-2,2.8-3.3,3.7c-8.2,5.5-16.1,11.7-24.9,16c-29.1,14.1-55.9,31-76.1,56.8
			c-4.1,5.2-7.6,10.9-12.1,15.7c-7.6,8.1-16.8,14.1-27.2,18.1c-8.8,3.4-18,4.4-27.4,4.1c-8.7-0.3-17.4-0.5-26,0.1
			c-8.3,0.5-14.7-2.7-21-7.5c-8.7-6.6-17.3-14-27-18.6c-16.4-7.8-33.5-14.1-50.6-20.3c-5.6-2-10.3-4.1-13.4-9.4
			c-1.5-2.6-3.4-5.1-5.7-6.9c-11.8-9.4-17.8-22.5-18.2-36.5c-0.3-14.5-7.3-23.5-18.2-29.7c-10.2-5.9-12.2-13.7-13-24.6
			c-1.3-16.1-5.5-32-8.1-48.1c-2.6-16.4-13-29-20.1-42.9c-4.3-1.4-9-1.8-12.3-4.2c-7.1-4.9-14.7-5.5-22.8-5.3
			c-8.7,0.3-17.3,0.2-26,0c-3-0.1-6.1-1-9.1-1.5C491.4,1833.1,491.4,1832,491.5,1831z"/>
		<path class="st0" d="M740,773c-9.9-16.9-23.9-30.2-38.7-42.7c-12.8-10.9-20.8-25.4-28.4-39.5c-5.5-10.1-4-22.8,2.6-33.5
			c1-1.6,3.4-2.4,5.1-3.5c0.6,0.4,1.3,0.8,1.9,1.2c-0.5,2.3-0.7,4.7-1.6,6.9c-5.1,12.6-3.8,23.7,3.9,35.7
			c10.8,16.9,23.6,31.2,39.2,43.4c1.8,1.4,3.3,3.3,4.7,5.2c14.9,19.2,29.7,38.5,44.6,57.7c4.9,6.3,9.8,12.6,14.7,19
			c18,23.5,36,47.1,53.9,70.6c12.9,16.9,25.5,34.2,38.9,50.8c7,8.7,15.3,16.3,23,24.5c1.4-1.1,2.6-1.5,2.9-2.3
			c7.4-16,14.9-31.9,22.1-48c2.3-5.1,4.1-10.6,5.6-16c3.6-14.1,10.2-26.7,18.8-38.3c3.5-4.8,6.6-9.8,9.8-14.6
			c-16.3-15.8-32-30.5-47.2-45.8c-11.5-11.6-22.3-23.7-33.2-35.9c-5.8-6.4-11.1-13-18.7-17.7c-13.5-8.4-26.5-17.6-41-24.6
			c-11.2-5.3-21.1-13.9-31-21.7c-10.5-8.2-20.5-17-30.6-25.7c-2.2-1.9-4.1-4.4-5.9-6.7c-8.1-10.5-16-21.4-24.4-31.7
			c-6.1-7.4-9.9-15.7-12.6-24.7c-3.6-12.1-1.5-18.2,8.9-25.8c2.1-1.5,4.3-3,6.3-4.5c4.5,1.9,3.9,4.7,1.6,7.2
			c-1.7,1.9-4.3,3.1-6.3,4.8c-5.1,4.1-5.4,5.9-3,14.2c5.2-2.5,8.2-6.8,10.3-11.6c7.7-17.6,17.5-34.5,21.4-53.7
			c0.7-3.3,0.5-7.7,5.8-8.2c3.9,2.9,2.4,6.7,1.2,9.9c-5.1,14.1-9.9,28.2-15.9,41.9c-3.8,8.7-9.3,16.8-14.5,24.9
			c-5.2,8-5.5,11,0.4,18.7c8.7,11.4,17.4,22.7,26.2,34.1c1,1.3,1.9,3.4,3.2,3.8c9.2,2.4,12.7,11.4,19.5,16.5
			c13.5,10.2,26.4,21.4,40.3,31c10.6,7.3,22.6,12.6,33.8,19.2c13.6,8,25,18.3,34.5,31.1c7.7,10.3,17.4,19.2,26.5,28.4
			c11.5,11.6,23.4,22.8,34.9,34.2c5.7,5.7,11.3,11.2,20.5,10.4c0.6,2.3,1.4,4.2,1.5,6.1c0.2,3.5,1.9,5.5,5,6.6
			c1.3,0.4,2.5,1,3.6,1.7c13.2,7.3,20.1,17.6,20.6,33.6c0.5,16.4-4,30.8-10.5,45.2c-2.4,5.2-3,10,0.1,15.1c12,19.3,7.1,39,1,58.7
			c-3.4,10.8-6.8,21.6-9.8,32.5c-1,3.5-0.9,7.3-0.9,10.9c0.1,16.6,0.5,33.3-2.7,49.7c-1.4,7.1-3.5,14.2-5.9,21.1
			c-2.9,8.1-6.4,16.1-9.8,24c-6.9,15.9-14,31.6-21.1,47.4c-1.2,2.7-2.9,5.3-4.3,7.9c-3.5,6.2-5.8,12.5-6.2,19.8
			c-0.4,7.3-1.9,14.5-3.5,21.7c-3.4,15.2-7,30.5-11,45.6c-1.8,6.7-4.1,13.5-7.3,19.6c-7.4,14.4-11,30-15.4,45.3
			c-5.4,18.6-11.4,36.8-22.2,53.2c-3.3,5-5.3,10.8-8.7,15.7c-4.2,5.9-8.8,11.6-14.2,16.5c-7.1,6.4-15.1,12-22.8,17.8
			c-3.9,2.9-4,2.7-10.1,2.5c-1.2-4.1,1.8-5.8,4.4-7.7c8-5.9,16.3-11.6,23.9-18c4.7-4,9.2-8.8,12.4-14.1c11-18.2,21.6-36.7,27.7-57.4
			c2-6.7,4.4-13.3,5.8-20.1c2.9-14.2,9-27.1,14.5-40.4c4.3-10.4,7.5-21.4,9.9-32.4c3.9-18.2,6.7-36.6,10.1-54.9
			c0.5-2.9,1.5-5.8,2.8-8.5c9.6-20.8,19.5-41.6,28.9-62.5c11.5-25.4,19.7-51.6,17.8-80c-1.4-20.4,4.2-39.3,10.8-58.3
			c3.6-10.2,4.7-21.3,5.8-32.2c0.8-7.3-1.3-10.5-7.6-18.4c-2.8,9.7-5.4,18.4-8,27.5c-5.7-1.9-5.3-5.5-4.5-8.5
			c2.3-9,4.5-18.1,7.7-26.8c4.1-11.3,9.5-22.1,13.4-33.4c4.2-12.3,3.6-25.3,0-37.4c-2.3-7.7-10.2-12-17.5-15.3
			c-3.3-1.5-6.9-2.3-10.6-3.4c-11.6,14.5-21.5,29.5-26.2,47.8c-2.5,9.6-7.2,18.6-11.1,27.8c-5,11.6-10.1,23.2-15.3,34.6
			c-1.2,2.6-2.9,5.3-4.9,7.3c-4.5,4.2-8,3.9-11.8-0.8c-15.1-18.6-31.1-36.4-45-56c-14.4-20.3-30.5-39.4-45.8-59.1
			c-5.7-7.4-11-15.1-16.6-22.5c-2-2.6-4.4-4.9-6.6-7.5c-5.9,3.9-10.8,9.6-19.2,5.6c2.7-6.8,10-5.5,14.8-10.2
			c-12.7-17.3-23.6-36.3-39.4-51.7C739.6,772.7,740,773,740,773z"/>
		<path class="st0" d="M175.7,1540c-1.2-4.2-2.2-6.5-2.3-8.9c-0.3-5.7,0.2-11.4-0.2-17c-0.6-7.2-1.9-14.4-2.7-21.6
			c-1.6-14.2-3.7-28.4-4.4-42.7c-1.5-34.7,1.4-69.2,5.3-103.7c2.7-24.2,4.4-48.4,7.1-72.6c0.7-6.5,2.6-13.1,4.8-19.3
			c11.8-33.6,24.2-67.1,35.7-100.8c4.1-11.9,5.7-24.7,10-36.5c4.9-13.7,10.7-27.3,17.5-40.2c9.3-17.7,21.3-34.1,29.4-52.2
			c14.5-32.7,38.4-58.2,61.3-84.5c14-16.1,31-29.5,44.3-46c21-25.9,47-46.2,71.9-67.7c12.8-11,27.3-20.2,41.7-29.1
			c15.2-9.4,31.6-16.9,46.9-26.3c9.3-5.7,17.3-13.5,25.9-20.3c5.5-4.3,11.1-8.5,16.5-13c3.3-2.7,6.6-5.6,9.5-8.8
			c8.7-10,17.1-20.3,25.7-30.5c0.5-0.6,1.7-0.7,3.8-1.5c0.3,2.5,0.8,4.6,0.6,6.5c-0.2,1.5-1.2,3.2-2.2,4.4
			c-10,11.2-19.5,22.8-30.2,33.2c-8.8,8.5-19.2,15.4-28.9,23c-4.4,3.5-8.7,7.3-13.3,10.6c-7.5,5.5-16.2,9-24.3,13.4
			c-19.8,10.8-39.7,22.2-57.6,35.8c-20.7,15.6-40.6,32.7-58.6,51.3c-34.5,35.6-70.3,70.1-100.3,109.7c-8.1,10.6-15.5,21.3-21.4,33.5
			c-9.9,20.3-22.3,39.4-33,59.4c-6.3,11.7-11.8,23.9-16.9,36.2c-2.1,5.1-1.8,11.2-3.6,16.5c-11.1,33.2-22.3,66.3-33.7,99.4
			c-3.9,11.3-8.3,22.5-12.2,33.8c-1.1,3.1-1.7,6.5-2,9.8c-2.7,27.5-5.3,55-8.1,82.5c-2.7,27.2-5.2,54.4-4.6,81.8
			c0.4,20.3,2.4,40.3,6.4,60.4c2.3,11.5,0.7,23.9,0.6,35.9C179.8,1535.4,178,1536.8,175.7,1540z"/>
		<path class="st0" d="M1996.9,1824.4c-5.9,0.6-9.9,1.4-14,1.4c-57,0.1-114,0-171,0.1c-25.3,0-50.8-0.8-75.8,3.6
			c-41.5,7.2-83,5.5-124.5,1.2c-38.1-4-76.1-9.2-114.2-13.5c-11.6-1.3-23.3-1.8-34.9-1.9c-40-0.2-80-0.1-120-0.1
			c-5.2,0-10.4,0-15.6,0c-1.3-4.1,0.9-5.9,4.2-6.6c2.9-0.5,6-0.5,9-0.5c32.3,0,64.7,0.5,97-0.2c34.1-0.7,67.9,2.3,101.6,6.8
			c29.1,3.8,58.1,8.4,87.4,10.4c35.8,2.5,71.8,4.3,107.6-2.3c14-2.6,28.5-3.3,42.8-3.4c69-0.5,138-0.4,207-0.5
			C1987.4,1818.9,1992.1,1817.5,1996.9,1824.4z"/>
		<path class="st0" d="M1101.2,2088.3c1.8,5.3-0.6,7.6-4.2,8.2c-18.2,3-33,13.9-49.5,20.8c-32.7,13.5-61,35.2-92.9,50.3
			c-9.5,4.5-16.9,11.1-24.3,18.4c-16.6,16.3-33,32.8-52.6,45.9c-13.5,9-25.7,20.1-38.7,30c-9.2,7.1-18.8,13.7-28.2,20.6
			c-3.7,2.8-7.1,6.1-10.9,8.8c-12,8.4-23.9,16.9-36.2,24.7c-5.2,3.3-11.4,5.6-18.2,0.5c1.3-1.4,2.2-3.4,3.3-3.5
			c15.1-1.8,26.2-11.2,37.6-19.7c24.8-18.5,49-37.8,73.4-56.8c2.5-2,4.9-4.2,7.9-6.9c-5.8-4-11.5-4.5-16.9-4.6
			c-6.3-0.2-11.4-2.4-16.8-5.3c-11.7-6.3-23.7-12-35.8-17.6c-22.4-10.2-45-20.1-67.4-30.3c-9.1-4.1-17.9-8.9-26.8-13.3
			c-4.2-2.1-8.4-3.9-12.6-6.1c-2.6-1.4-5.7-2.5-7.5-4.6c-14.5-17-32.9-29-51.7-40.5c-3.3-2-6.5-4.7-9-7.7c-2.1-2.5-3.6-5.7-0.3-8.6
			c0.9,0,1.9-0.3,2.1,0c5.4,8,13.7,12.4,21.7,17.2c14.5,8.5,27.3,19,39,31c3.1,3.2,7.3,5.7,11.3,7.7c14.5,7.4,29.1,14.7,43.9,21.6
			c17.5,8.1,35.3,15.6,52.8,23.8c15.4,7.1,30.4,14.9,45.8,22.1c3.8,1.8,8.1,2.8,12.2,3.4c7.6,1.1,15.2,1.7,21.9,7
			c9.5-3.6,16.9-10.5,24-17.3c12.6-11.9,24.5-24.4,36.7-36.6c1.4-1.4,3-2.6,4.8-3.5c20.5-11,41.1-21.9,61.7-32.8
			c0.9-0.5,1.8-0.9,2.6-1.5c16.6-13.4,36.8-19.6,55.6-28.8c5.1-2.5,10.6-4.3,15.3-7.4C1082.3,2091.6,1091.4,2090.2,1101.2,2088.3z"
			/>
		<path class="st0" d="M1052.9,1899.3c3.5,6.4,7.5,12.5,10.3,19.1c5.6,13.2,11.2,26.4,9.7,41.3c-0.2,2.4,0.6,5.4,2,7.4
			c9.6,13.8,17,28.5,19.4,45.6c12.6,3.7,25,7.4,37.4,11c5.3,1.5,9.6,3.8,12.9,8.6c1.9,2.8,5.5,4.7,8.7,6.1
			c10.8,4.7,19.4,11.6,25.1,22c4.9,9.1,9.6,18.3,14.1,27.6c1.1,2.2,1.2,4.8,1.7,7.1c-5,2.1-6.3-1-7.7-3.6c-4.2-8-8.3-16-12.3-24
			c-5.5-10.9-13.7-18.6-25.2-23.1c-4.9-1.9-9.8-4.4-14.2-7.4c-11.7-7.9-24.9-10.5-38.4-13.2c-24.5-4.9-49-1.9-73.6-2.1
			c-20.7-0.1-40.2,4.1-59.7,10.3c-13.1,4.1-26.5,6.5-40.4,5.8c-3.2-0.2-6.7,0.4-9.1-4.5c2.7-0.9,5-2.4,7.2-2.3
			c21.5,0.9,41.4-6.1,61.6-11.7c7.9-2.2,16.3-3.4,24.5-3.7c24-0.9,47.9-1.2,71.9-1.8c1.9,0,3.8-0.5,5.6-0.8c2.4-11.1-9-37.6-18-42.4
			c-1.6-0.9-3.9-1.3-5.6-0.9c-8.4,2-17,3.7-25,6.7c-9.5,3.6-19.1,5.5-29.3,5c-6-0.3-12,0.1-18-0.2c-2.6-0.1-5.2-1.2-8.2-1.9
			c1.6-5.2,4.8-5.1,7.7-5.1c8.7-0.1,17.3,0.3,26-0.2c4.9-0.3,9.8-1.5,14.6-2.7c7.7-2,15.3-4.6,23-6.6c14.1-3.6,16.3-5.6,12.7-21.1
			c-2.5-10.6-7.5-20.6-11.9-30.7c-2.1-4.9-4-9.3,0.3-13.8C1053.1,1899.2,1052.9,1899.3,1052.9,1899.3z"/>
		<path class="st0" d="M1362.6,1745.1c5.9-0.6,10-1.4,14-1.5c61.6-0.1,123.2-0.1,184.9-0.1c135.6,0,271.1,0,406.7,0
			c3.1,0,6.3,0.3,9.4,0.5c0.2,0.7,0.5,1.4,0.7,2.1c-1.5,1.3-2.8,3.2-4.6,3.7c-2.8,0.7-5.9,0.5-8.9,0.5c-196.2,0-392.4,0-588.6,0
			C1372.2,1750.4,1367.5,1751.9,1362.6,1745.1z"/>
		<path class="st0" d="M345.3,2221.8c-4.4,1.8-5.8-0.5-6.9-3.1c-1.6-4-3.4-8-4.3-12.2c-4-18.7-11.2-36.2-19.8-53.2
			c-1-2.1-2.2-4.1-3.5-6.1c-12.6-19.4-22.8-39.7-27.3-62.8c-1.7-8.9-6.4-17.3-10-25.9c-4.9-11.7-10.5-23-14.8-34.9
			c-2.4-6.6-6.1-11.6-11.2-16c-8.8-7.6-17.2-15.6-26.2-23c-7.3-5.9-8.1-13.3-6.6-21.6c0.8-4.6,1.7-9.2,3.1-13.6
			c4.5-14.3,4.1-29,3.7-43.6c-0.1-3.6-1.3-7.2-2.2-10.7c-2.3-9-4.3-18.1-7.2-27c-1.4-4.3-4.2-8.2-6.9-11.9
			c-5.7-7.8-12.2-15-17.6-22.9c-2.3-3.4-3.9-8-4-12c-0.5-16.7-0.3-33.3-0.1-50c0-2.4,1.2-4.7,1.9-7.4c5.9,1.9,4.8,6,4.8,9.3
			c0.1,12.3,0.9,24.7-0.2,37c-1.1,13.3,4.6,23.1,12.5,32.5c2.6,3,5.9,5.6,8.1,8.9c3.3,4.9,6.5,10,8.6,15.5c2.8,7.5,4.4,15.3,6.6,23
			c4.6,16.4,3.4,33,1.4,49.5c-1,7.9-3.2,15.6-5,23.4c-1.7,7.1-0.5,13,5.4,17.9c8.2,6.8,15.8,14.2,24.1,20.9
			c6.8,5.6,11.7,11.7,14.4,20.6c3.4,11.4,8.6,22.4,14.4,32.9c5.5,10.1,9.8,20.7,11.5,31.7c3.1,19.8,12.7,36.4,22.7,52.9
			c11.7,19.2,20.1,39.7,25.6,61.5c1.1,4.5,3.2,8.7,4.5,13.2C345.4,2217,345.1,2219.6,345.3,2221.8z"/>
		<path class="st0" d="M255.2,1750.3c4,1.3,7.6,2.4,11.2,3.8c12,4.8,24.3,9.1,35.9,14.7c10.4,5,20.1,11.6,30.2,17.4
			c2.6,1.5,5.3,3.2,8.1,3.8c17.9,3.7,35.8,7.9,53.9,10.4c11.1,1.5,22.6,0.5,33.9,0.2c4.8-0.1,9.5-1.5,16.1-2.6
			c-10.2-11.3-19.7-19.8-31.4-25.6c-5-2.5-10.4-4.5-15.1-7.6c-11.4-7.4-24-11.5-37.2-13.5c-6.8-1-12.8-3.2-17.5-8.5
			c-1.9-2.1-4.8-3.6-7.5-4.6c-22-7.7-44-15.5-66.1-22.8c-7.9-2.6-16.3-3.4-24.3-5.7c-6-1.8-11.9-4.3-17.4-7.3
			c-4.4-2.5-4.3-3.8-2-10.5c11.4,11.1,26.5,11.1,40.3,15.3c25.2,7.6,49.9,16.8,74.7,25.4c1.8,0.6,3.9,1.6,5.1,3.1
			c5.3,6.4,12.4,8,20.1,9.6c12,2.4,23.8,5.7,34.3,12.8c9.3,6.3,19.9,10.6,29.2,16.9c7.1,4.8,13.3,10.9,19.4,17c2,2,3.5,5.8,3.4,8.6
			c-0.2,3.9-4.2,4.5-7.6,5c-22.2,3.7-44.4,3.7-66.6,0.2c-10.5-1.6-21.1-3.7-31.3-6.7c-7.9-2.3-15.2-6.4-22.7-9.8
			c-15.1-6.8-28-17.9-44.4-22.3c-6.7-1.8-13.1-4.8-19.5-7.6C256.9,1757.8,253.3,1756.2,255.2,1750.3z"/>
		<path class="st0" d="M1439.2,2114.3c-5.3,3.3-8.3,0.6-10.6-2.8c-4.2-6.4-8.4-12.8-11.9-19.6c-15.1-28.8-15.2-29.7-13.7-62
			c0.2-4.7,0.3-9.4,1.1-13.9c4.2-22.4,3.8-45.1,4.3-67.7c0.3-14.9,1.8-29.9,7.9-43.9c6-13.8,14.3-25.5,28.8-31.7
			c1.5-0.6,2.9-1.6,4.3-2.6c15.5-11.3,32-9.3,48.6-3.6c6.8,2.3,11.4,7.4,14.8,14c5.4,10.7,7.9,21.6,7.6,33.6c-0.5,19,0.2,38-0.3,57
			c-0.3,10.9-1.7,21.8-2.8,32.8c-0.1,1.4-1.5,2.7-2.4,4.3c-5.4-2.4-4.7-6.9-4.1-10.4c4.9-28.2,1.4-56.5,2.6-84.8
			c0.4-9.9-2-19-6.2-27.9c-3.4-7.3-8.5-11.8-16.1-13.6c-13.6-3.2-26.9-4.1-39.1,5.2c-6,4.6-13.4,6.8-18.5,13.1
			c-9,11.3-13.6,23.8-15.8,38.1c-2.6,17-1.6,33.9-2.4,50.8c-0.4,8.3-1.6,16.6-2.2,24.9c-1.2,16.9-2.2,33.8-3.1,50.8
			c-0.2,3.2,0.3,6.8,1.6,9.7c7.1,16.5,13.5,33.4,26.2,46.8C1438.3,2111.4,1438.5,2112.5,1439.2,2114.3z"/>
		<path class="st0" d="M1053.7,363.2c-1.1,1.5-2.2,3.8-3.9,5.1c-1.3,1-4,1.7-5.2,1.1c-1.2-0.7-1.7-3.3-1.7-5c0-1.5,1-3,0.2-5.6
			c-4.3,5-8.5,10-13.2,15.4c-2.6-1.5-4.8-2.8-7-4c-7.3,4.4-11.7,4.8-13.9,1c-2.4-4.1,0.9-12.1,6.5-15.3c1.1-0.6,2.7-1.3,3.7-0.9
			c10,3.5,17.4-2.3,25.3-6.6c1.2-0.6,2.2-1.5,3.3-2.2c6.6-3.9,7.5-3.7,13.6,3.2c4.7-1.2,10.1-3.4,13.5,2.5
			c12.1-4.4,12.1-4.4,19.2-0.3c2.5-2.1,5.1-4.7,8.1-6.6c2.6-1.6,5.7-2.5,8.6-3.7c0.8,2.9,1.6,5.9,2.6,9.5c1.8-0.2,5-1.5,7.3-0.5
			c2.2,0.9,3.3,4.2,5.4,7.2c5.3-1.4,11.3-1,15.6,4.8c1.3,1.7,2.4,3.5,3.7,5.3c-1.8,1.2-3.7,3.5-5.5,3.5c-7.2-0.3-14.4-1.1-21.6-2.3
			c-7.1-1.1-14-3.5-20.9,0.7c-1,0.6-1.7,1.8-3.8,4c14.1,3.2,24.1,11.3,34.1,19.5c3.2,2.6,5.8,5.3,2.6,10.5c-2.3-1.5-4.3-2.5-6-3.8
			c-5.3-4.1-10.3-8.5-15.7-12.3c-6.7-4.7-14.2-7.2-22.5-6.8c-12.6,0.5-25.3,0.6-37.9,1.4c-9.5,0.6-18.1,4.3-26.3,8.9
			c-2.7,1.5-5.4,4.3-9.2,1.8c-0.6-5.3,3.8-6.6,6.9-8.5c12.3-7.3,26-10.1,40.1-10.4c8.3-0.2,16.6,0,25.3,0c1-3.6,1.9-6.7,3-10.8
			C1076.7,365.8,1065.9,369.1,1053.7,363.2z"/>
		<path class="st0" d="M1738.1,2100.9c-0.8-3-1.8-5-2-7.2c-2.5-24.5-5.8-49-7-73.6c-1.7-35.2-3.1-70.6,1.1-105.8
			c0.5-3.9,1.5-7.9,2.5-11.7c6.2-23.5,27.2-32.8,50.1-36.2c4.6-0.7,9.3,0,14-0.1c9-0.4,15.3,3.6,19.6,11.2c2,3.5,4.2,6.8,6.6,10
			c10.8,14,14.6,30.3,17.1,47.3c4.3,29.5,2,59.2,2.5,88.8c0.1,3.4,1.2,7.5-3.4,9.7c-4.9-2.2-3.3-6.7-3.4-10.4c-0.2-19,0.2-38-0.2-57
			c-0.3-19-2.6-37.9-8.4-56.1c-1.1-3.5-2.7-6.8-4.6-10c-2.2-3.7-4.6-7.3-7.3-10.7c-4-5.1-5.5-13.8-12.6-14.7
			c-9.7-1.1-19.9-0.6-29.6,0.9c-6.4,1-12.4,4.8-18.3,7.8c-10.1,5.2-14,15.1-16.3,25.2c-2,8.7-3.2,17.8-3.3,26.7
			c-0.7,44-0.9,88,5.7,131.7c1.2,8.2,1.5,16.6,2,24.9C1743.1,2094.9,1743.7,2098.5,1738.1,2100.9z"/>
		<path class="st0" d="M618.3,2156.2c0.2-15.2,1.7-29.1-1.7-42.7c-0.8-3-3.2-5.8-5.4-8.1c-2.5-2.6-5.7-4.6-8.5-7
			c-10.4-8.7-13.6-19.4-9.5-32.1c0.3-0.8,1.3-1.3,2.1-2c4.6,1.2,4.4,5,4,8.1c-1.4,10.6,2.8,18.2,11.5,23.5
			c11.4,6.8,14.6,17.4,15,29.6c0.4,11.6,1.2,23.3,0.8,34.9c-0.1,3.4-2.8,7.8-5.7,9.8c-9.9,6.8-20.1,13.2-30.6,18.8
			c-4.5,2.4-10.2,3.1-15.4,3.2c-15.3,0.4-30.7,0.4-46,0.1c-8.4-0.2-14.6,2.9-19.9,9.4c-5,6.2-10.8,11.8-16.4,17.5
			c-2.3,2.4-5.1,4.5-9.2,1.1c1-1.6,1.7-3.4,2.9-4.7c6.5-7.1,13.1-14.1,19.7-21.2c5.2-5.6,11.5-8.8,19.4-8.8c14,0.1,28-0.4,42,0.1
			c10.7,0.4,20.4-1.7,29.2-8.1c5.5-4,12.5-6.2,16.5-12.5c-3.8-7.4-10.6-9.6-17.6-9.4c-9.9,0.3-19.9,1.5-29.7,3.2
			c-8.5,1.4-17,3.5-25.3,5.9c-9.4,2.7-18.1,7.1-24.3,15c-6.5,8.3-16.3,11.4-25.1,15.9c-2.8,1.5-6.1,0.4-6-2.8
			c0.1-10.9,0.9-21.8,1.5-32.7c0-0.4,1-0.7,2.5-1.6c6.3,7.6,0.4,17.3,4.4,25.6c5.6,0.8,10.6-1.9,13.8-5.9
			c14.1-17.6,34.6-21.6,54.8-25.9c9.1-1.9,18.4-3.3,27.6-3.9C600.9,2147.6,605,2149.1,618.3,2156.2z"/>
		<path class="st0" d="M913.8,354.6c-5.2,0-9,0-12.9,0c-1.6,0-3.5-0.5-4.8,0.1c-4.7,2.4-8.5,0.8-12-2.1c-3.6-3-7.3-3.7-11.9-3.7
			c-5.6,0-11.5-0.8-16.6-2.8c-6.2-2.4-12.2-2.6-18.5-2.5c-5.3,0.1-10.6-0.6-15.9-0.8c-2.3-0.1-5.1-0.4-6.8,0.7
			c-8.4,5.2-15.9-1.4-23.8-1.6c-0.6,0-1.3-1.4-1.9-2.1c0.6-4.4,3.8-5,7.1-5.6c2.9-0.6,6.2-0.8,8.5-2.4c5.9-4.2,11.6-6.4,19.4-5.3
			c4.9,0.7,10.7-2.8,15.6-5.3c3.7-1.9,6.7-1.7,10.4-0.5c14.8,4.6,14.9,4.5,21.4,10.7c4.2-3.8,8.1-2.5,12.1,1c4.4,3.9,9.1,7.4,15,9.9
			c-1.2-2.2-2.7-4.2-3.5-6.5c-0.5-1.4-0.7-4,0.1-4.5c1.4-1,3.6-1.2,5.4-1.1c1.2,0.1,2.3,1.3,3.3,2.1c7.6,5.8,15.2,11.6,22.8,17.3
			c0.7,0.5,1.8,0.5,3.6,0.9c0-4.3-0.3-8.3,0.2-12.1c0.2-1.5,2-3.3,3.5-3.9c0.9-0.4,3.6,1.1,3.9,2.1c2.4,9.2,9.8,17,7.8,27.4
			c-0.4,2.1-1.3,4.2-2.3,7.5c-2.1-2.2-3.2-3.6-4.6-4.6c-1.9-1.5-4.4-4.1-6.1-3.8C923.6,365,918.4,360.2,913.8,354.6z"/>
		<path class="st0" d="M1240.2,2366c-2.8,1.7-5,3.6-7.6,4.5c-33.8,12.2-66,28.8-101.1,37.4c-35.2,8.6-67.6,24.3-100.7,38
			c-34.1,14.1-69.4,22.5-105.7,27.7c-13.5,1.9-26.8,4.9-40.3,7.1c-4.1,0.7-8.6,2.1-12-2c0-3.9,2.9-4,5.5-4.4
			c33.8-5.9,67.6-11.7,101.3-17.6c2.9-0.5,5.9-1.1,8.7-2.2c37-14.8,74-29.8,111.1-44.4c6.7-2.7,14.2-3.6,21-6
			c25.1-8.7,50.2-17.6,75.3-26.7c11.9-4.3,23.6-9.2,35.4-13.7C1233.6,2362.7,1236.5,2360.8,1240.2,2366z"/>
		<path class="st0" d="M334.6,1923.6c7.8-2.6,15.5-2.3,23.5,1.1c16,6.8,25.5,20.1,29.7,35.4c4,14.4,5,30.2-3.1,44.7
			c-2.1,3.7-3.7,7.7-6.1,12.7c3,0,5.2,0.5,7-0.1c7.9-2.6,15.7-5.5,23.5-8.5c20.5-8,41.2-14.7,63.7-14.7c15.3,0,30.3-3.2,45-8.1
			c20.2-6.7,40.5-12.9,60.9-18.7c5.3-1.5,11.2-1.1,16.8-1.1c1.5,0,3.1,1.6,6.1,3.4c-3.4,1.5-5.4,3.1-7.3,3.1
			c-18.5-0.3-35,7.3-52,12.9c-26,8.6-52,15.9-79.8,16.2c-18,0.2-35,7.1-51.8,13.8c-9.6,3.8-19.4,7.1-29.4,9.6
			c-4,1-10.6,0.6-12.8-1.9c-3.5-4,1.4-8.7,4.1-12c11.5-14,12.4-30.8,8.8-46.5c-3.9-17.5-16.4-36-39.3-36.1c-2.7,0-5.3-1.1-7.9-1.7
			C334.5,1926,334.5,1924.8,334.6,1923.6z"/>
		<path class="st0" d="M1574.1,2062.1c-0.7-4.4-1.7-7.5-1.7-10.6c-0.1-36-0.2-71.9,0.1-107.9c0.1-5.4,1.5-11.5,4.4-16
			c8.8-13.7,18.7-26.6,30.5-38c5.3-5.2,11.2-8.1,18.7-7.7c2.7,0.2,5.3,0,8,0c14.5,0.1,22.6,5.8,27.8,19.6
			c7.2,19.5,11.6,39.4,10.9,60.4c-0.7,18.3-0.1,36.6-0.2,54.9c0,3.7,1.1,8.1-3.2,10.7c-5.1-2.5-3.6-7-3.6-10.7
			c-0.2-21.3-0.2-42.6-0.1-63.9c0.1-18-5.1-34.8-11.6-51.2c-3.5-8.7-10-12.6-20.2-13.1c-12.8-0.6-21.7,4.1-29.1,13.8
			c-5.8,7.6-11.9,15.1-18,22.6c-5.3,6.5-7.6,13.5-7.5,22.1c0.3,34.3,0.2,68.6,0.1,102.9C1579.5,2053.7,1580.7,2058,1574.1,2062.1z"
			/>
		<path class="st0" d="M1130.6,146.5c19.6,22,34.5,46.8,49.4,71.6c1.2,2,2.5,4.1,2.8,6.3c2.2,17.8,7.4,35.3,4.5,53.5
			c-2.9,17.5,3.7,32.8,12.3,47.3c3.1,5.2,4.2,9.9,3.7,15.9c-1.1,13.3-1.2,26.6-1.9,39.9c-0.2,3.4-1,6.7-1.7,10.6
			c-6.1-2-5.5-6-5.4-9.4c0.4-13.6,0.8-27.3,1.7-40.9c0.3-4.9-0.5-8.8-3-13.1c-10-17-15.8-34.9-12.5-55.2c2.6-16.1-1.2-32.1-5.3-47.4
			c-2.7-9.9-9.8-18.8-15.5-27.8c-6.6-10.4-13.4-20.7-21-30.3c-5.3-6.7-12.1-12.2-18.2-18.2c-0.9-0.9-2.6-1.2-3.3-2.2
			c-1.2-1.7-2.6-3.8-2.5-5.8c0-0.9,2.9-2.3,4.7-2.7c4.9-0.9,9.9-1.1,14.7-2.2c12.2-2.7,23.2-8.1,33.4-15.3c1.9-1.3,3.9-2.6,5.9-3.7
			c3.3-1.7,6.2-0.8,7,2.8c0.8,3.6,0.6,7.5,0.9,13.8c-4.3-3.2-6.5-4.8-8.4-6.2C1159.1,134.1,1145.3,140.1,1130.6,146.5z"/>
		<path class="st0" d="M942.1,2089.1c-1.5,0.2-3.1,0.1-4.5,0.6c-28.1,10.3-56.2,20.6-84.3,30.9c-6.2,2.3-12.5,4.6-18.9,6.4
			c-4.4,1.2-4.5,0.9-10.8-2.9c2.3-1.3,3.9-2.8,5.8-3.4c4.7-1.5,9.7-2.2,14.4-3.9c30.3-11.1,60.3-23.1,90.8-33.5
			c26.4-9,53.5-16.2,80.3-24c3.9-1.1,8.1-1,12.7-1.6c0.1,6.6-4.2,6.6-7.4,7.5c-16.6,4.7-33.3,9.3-50,14c-5.7,1.6-10,4.1-14.4,9
			c-11.4,12.9-24.7,24.1-37.3,35.9c-2.2,2-4.9,3.6-6.8,5.9c-12.3,14.7-28.2,25.3-43.1,37c-3.6,2.8-7.6,5.5-11.8,7.3
			c-3,1.4-6.7,1.3-12.4,2.2c2.4-3.6,3-5.7,4.3-6.3c18.7-8.7,33.8-22.2,48.8-35.8c11.8-10.7,23.5-21.6,35.1-32.6
			c3.8-3.6,7-7.7,10.5-11.5C942.8,2090.1,942.5,2089.6,942.1,2089.1z"/>
		<path class="st0" d="M1065.6,813.7c1,3.3,2.3,5.7,2.2,7.9c-0.4,8.8,4,15,9.4,21.3c8,9.3,15.5,19.1,23,28.8c1.6,2,3,4.6,3.4,7.1
			c3.9,21.4,11.8,41.6,19.7,61.7c1.1,2.7,1.6,5.8,1.8,8.7c2.3,41.2,3.7,82.5,3.1,123.8c-0.1,7.3-1,14.6-2,21.8
			c-2.6,17.8-5.6,35.5-8.5,53.2c-0.4,2.5-1.5,4.8-2.3,7.4c-5.5-1-5.3-4.6-4.8-7.8c1.9-13.2,3.7-26.3,6.2-39.4
			c2.8-14.8,4.7-29.5,4.4-44.6c-0.6-26.3-0.7-52.6-1.3-78.9c-0.3-11.6-1.1-23.3-1.9-34.9c-0.2-2.6-1-5.2-1.9-7.7
			c-5.3-15.4-11.7-30.6-15.7-46.3c-3.3-12.9-7.6-24.5-17.2-34c-5.2-5.1-9.1-11.4-13.7-17.1c-6-7.2-9.7-15.1-8.5-24.8
			c0.2-1.3,0.7-2.5,1.2-3.7C1062.4,815.9,1063.2,815.6,1065.6,813.7z"/>
		<path class="st0" d="M1988.6,1986.9c-0.5-3.7-1.2-7.4-1.4-11.1c-1-16.3-1.2-32.6-2.8-48.8c-1.2-12.6-7.7-23.4-14.8-33.5
			c-8.5-12.2-22.4-16.9-36.2-13c-2.3,0.7-4.7,2.5-6.3,4.5c-5.6,6.7-9.4,14.3-11.2,23.1c-2.4,11.7-5.8,23.3-8.1,35
			c-1.4,7.1-2.3,14.5-2.4,21.8c-0.3,26-0.1,52-0.2,78c0,3.7-1,7.4-1.5,11.1c-0.7,0.1-1.4,0.2-2.1,0.3c-1.1-1.4-2.8-2.6-3.1-4.1
			c-0.6-2.5-0.4-5.3-0.4-8c0-14.3,0-28.7,0-43c0-48.3,0.1-48.3,11.3-94.7c2.3-9.7,7.2-17.9,13.2-25.4c1.7-2.2,4.6-4.5,7.2-4.9
			c14.8-2.3,29.4-2.7,40.7,9.9c10.7,11.9,17.8,25.8,20.7,41.5c1.8,9.4,2.2,19.2,2.7,28.8c0.4,8,0.2,16,0,24c-0.1,3-1.1,6-1.7,8.9
			C1991.1,1987.1,1989.9,1987,1988.6,1986.9z"/>
		<path class="st0" d="M776.7,223.9c-6.6,3.7-13.1,7.4-19.7,11c-3,1.6-6.4,5.8-9.3,1.1c-2.6-4.1,1.7-6.6,4.7-8.5
			c6.1-4,12.5-7.7,18.6-11.7c2.4-1.6,4.6-3.5,6.4-7.2c-6.6,1.1-13.2,2.3-19.8,3.2c-3.7,0.5-8.8,3.3-10.6-1.8c-1.7-5,4.1-5.5,7.1-7.8
			c10.9-8.1,21.5-16.7,32.1-25.1c2-1.6,3.7-3.4,5.9-5.4c3.9,4.4,1.9,7.6-0.7,10.1c-4.8,4.6-9.9,8.9-14.9,13.3
			c-1.9,1.7-3.7,3.4-4.7,7c5-1.2,10-2.6,15.1-3.3c2.3-0.3,5.7,0,7.1,1.5c2.6,2.8,0,5.6-2.2,7.7c-2.4,2.3-5.1,4.3-7.8,6.6
			c4.9,12,1.5,21.5-5.7,30.3c-2.3,2.8-4.1,6-6.2,9.1c-2,2.8-2.8,5.3-1.5,9.2c1.2,3.5,1.2,8.1,0,11.5c-2.5,7.2-5.1,14.8-9.7,20.7
			c-10.7,13.6-14.5,28.9-15,45.6c-0.1,2.7-1.1,5.3-1.6,7.9c-0.9,0.1-1.9,0.2-2.8,0.2c-0.8-2.1-2.5-4.3-2.4-6.4
			c0.7-15.6,1.1-31.3,11.7-44.5c4.3-5.4,7.4-11.8,10.6-18c1.4-2.7,1.8-5.9,0.9-9.7c-2,1.6-3.9,3.6-6.2,4.5c-1.8,0.7-5.1,0.8-6-0.3
			c-1.1-1.2-0.6-4.2-0.1-6.2c0.4-1.4,2-2.7,3.3-3.7c10.7-8.1,16.1-20.3,23.6-30.8c1.5-2.1,1.6-5.3,2.4-8
			C778.4,225.3,777.5,224.6,776.7,223.9z"/>
		<path class="st0" d="M853.7,379.9c-9,3.1-17.8,6.1-26.6,9.1c-0.4-0.8-0.8-1.7-1.2-2.5c4-8.5,13.2-11,20.9-13.7
			c8.2-2.8,17.6-3,26.5-2.8c8.7,0.2,17.4,2.2,26.8,3.4c-1.1-1.1-1.6-2.2-2.4-2.4c-14.2-3.3-28.1-8.4-43.1-5.6
			c-9.7,1.8-20,0.7-29.2,5.6c-1.7,0.9-4.6-0.4-7.1-1.9c5.8-5.7,12.6-8.4,20.2-9.3c5.6-0.7,11.2-1.4,16.9-1.7
			c24-1.3,46.4,2.9,65.4,18.9c6.1,5.1,7.2,7.3,6.9,14c-5.8,2.6-5.9-5.5-10.7-5.6c-0.4,4.6,5.9,8.7,1.4,13.9
			c-4.9-0.1-5.6-4.4-7.1-7.3c-4-8.3-10.4-11.6-19.9-10.8c-2.4,11.5-11,16.5-21.5,17C858.5,399,857.8,388,853.7,379.9z"/>
		<path class="st0" d="M1784.1,2617.9c2.2-1.8,4.4-3.5,6.5-5.3c4.9-4.4,10.2-8.5,14.3-13.6c7.3-9.2,14.9-17.8,24.7-24.5
			c11-7.5,21.7-15.4,32.4-23.3c7.9-5.8,8.8-8,7.5-16.9c-4.2-1.9-7.4,0.5-10.6,2.8c-16.5,11.7-32.7,23.9-49.6,35.1
			c-7.1,4.7-15.5,7.4-23.2,11.2c-5.9,2.9-12,5.6-17.4,9.3c-9,6.1-17.5,12.8-26.3,19.3c-3.3-2-2.9-4.7-1.1-6.8c2.3-2.8,5.1-5.2,8-7.4
			c13.7-10.6,27.9-20.4,44.8-25.3c2.5-0.7,5.2-1.7,7.3-3.2c15.6-10.8,31-21.7,46.5-32.6c4.9-3.4,9.6-7.4,15-9.6
			c9.4-3.8,14.6,0.4,15.1,10.3c0.4,8.9-4.9,14.2-11.1,18.8c-9.3,7-18.7,13.9-28.4,20.4c-11.8,7.9-21.4,17.7-29.8,29.1
			c-4.2,5.6-10.8,9.5-16.6,13.9C1789.8,2621.2,1787,2621.8,1784.1,2617.9z"/>
		<path class="st0" d="M985.8,1137.6c4.5,2.4,3.5,6,3.6,9.2c1.1,23.1-0.7,45.8-6.2,68.3c-2.4,10-3.6,20.3-5.8,30.3
			c-2.2,9.7-5,19.2-7.5,28.8c-1.5,5.8-3.6,11.5-4.3,17.4c-2.2,17.4-7.6,33.7-15,49.5c-3.8,8.2-7.4,16.2-8.1,25.5
			c-0.4,5.9-2.5,11.7-4.5,17.4c-2.9,8.1-6.9,15.9-7.2,24.7c0,0.8-1.2,1.5-2.7,3.2c-1.3-2-3.5-3.7-3.4-5.3c0.5-5.2,1.5-10.4,2.8-15.5
			c2.7-10.6,5.6-21.1,8.7-31.6c1.6-5.4,3.1-10.9,5.5-16c8.3-17.6,14.4-35.7,17.1-55c1.4-10.1,5.3-19.9,7.8-29.8
			c2.8-11.3,5.6-22.5,7.9-33.9c2.6-12.7,4.6-25.5,6.8-38.3c0.6-3.3,0.8-6.6,0.9-9.9c0.1-10,0-20,0.1-30
			C982.4,1143.5,981.7,1139.9,985.8,1137.6z"/>
		<path class="st0" d="M947.1,21.7c8.7,16,18.6,31.5,25.8,48.2c6.8,15.8,10.9,32.7,15.6,49.3c1.2,4.4,1.7,9.7-3.5,15.3
			c-4.9-9.4-3.1-19.1-6.5-27.4c-3.5-8.6-4.8-18-8.2-26.6c-3.4-8.6-8-16.8-12.4-25c-4.4-8.2-9-16.3-14.2-24c-5-7.5-10.9-14.5-17-22.6
			c3.8-3.9,8.5-2.7,13.6-0.7c14.4,5.5,25.3,15.8,36.1,26.1c3.6,3.4,7.2,6.9,10.9,10.2c12.3,11,22.3,23.7,29.7,38.5
			c5.8,11.7,4.8,23.2-1.3,34.4c-0.9,1.6-2.7,2.6-3.9,3.7c-4.1-1.7-3.5-4.4-2.1-6.8c7.2-13.1,4.4-25.1-3.8-36.4
			c-5.7-7.8-11.2-15.7-17.8-22.6c-9.7-10-20.2-19.2-30.6-28.6c-2.8-2.5-6.1-4.4-9.1-6.6C947.8,20.6,947.4,21.1,947.1,21.7z"/>
		<path class="st0" d="M1314,1591.8c4.8-4.5,7.5-1.5,10.1,0.2c8.8,6,14.9,14.4,19.6,23.6c4.7,9.1,8.7,18.7,11.8,28.5
			c4.8,14.9,4.4,30,0.9,45.4c-2.8,12.6-4.4,25.6-6.6,38.3c-1,5.9-2.4,11.7-3.4,17.6c-1,5.8-1.7,11.7-2.9,17.5
			c-0.5,2.6-1.5,5.2-2.9,7.4c-7.2,11.6-13.5,24-22.2,34.3c-7.8,9.2-18.2,16.3-27.9,23.9c-2.1,1.6-5.8,1.2-8.8,1.8
			c-0.3-0.6-0.6-1.3-0.9-1.9c1.1-1.4,1.8-3.4,3.3-4.1c21.3-11.2,36-28.9,45.5-50.1c6.4-14.4,9.3-30.5,12.8-46
			c3.1-13.6,4.4-27.6,7.4-41.2c4.1-19,2.4-37-6.4-54.4c-1.8-3.5-2.7-7.5-4.5-11c-4.8-9.2-10.5-17.7-19.1-24
			C1317.8,1596,1316.2,1594,1314,1591.8z"/>
		<path class="st0" d="M1261.3,2005.8c-4.3-1.4-3.9-4.7-3.9-7.6c0.4-22.6-2.1-45.3,3.6-67.6c0.6-2.2,0.8-4.6,0.7-6.9
			c-1-11.8,3.8-21.9,10.7-30.4c8.9-10.9,21.3-16.6,35.6-17.5c3.3-0.2,6.7,0.3,10-0.1c14.3-1.7,23.2,6.3,30.2,17.1
			c8.3,12.8,13.3,26.5,12.2,42.3c-1,14.9-0.2,30-0.3,45c0,3.5,0.9,7.4-3,9.9c-5-1.8-3.8-6-3.8-9.3c-0.2-16.3-0.6-32.7,0.1-49
			c0.6-14.6-5.3-26.7-13.1-38c-5-7.2-12.2-11.7-22-11.3c-11.8,0.4-22.9,1.7-33,8.8c-10.2,7.1-14.6,16.8-16.5,28.3
			c-1.2,7.2-2,14.5-2.7,21.7c-0.8,8.9-1.6,17.9-1.8,26.8c-0.3,9.6,0,19.3-0.1,29C1264.2,2000.4,1264.6,2003.9,1261.3,2005.8z"/>
		<path class="st0" d="M584.1,938c-0.8-4.4-1.6-7.3-1.8-10.4c-2.4-32.8,5-64.2,13.5-95.4c3.8-13.8,6.8-27.8,10.3-41.6
			c0.8-3.2,1.9-6.4,3.3-9.4c5.4-12.1,10.9-24.2,16.5-36.3c3.5-7.5,7.5-14.9,11.4-22.2c0.7-1.3,2.3-2.1,3.6-3.3
			c4.9,3.7,2.5,7.3,0.8,10.7c-3.2,6.5-6.9,12.9-10,19.5c-5.4,11.4-10.9,22.8-15.7,34.4c-2.6,6.4-3.6,13.4-5.3,20.2
			c-4,15.1-8.1,30.2-12.1,45.3c-6.6,24.9-10.8,50.1-9.2,76C589.6,929.3,590.6,933.7,584.1,938z"/>
		<path class="st0" d="M358.9,2251.7c5.5,11.6,3.3,25.2,10.1,36.7c6.2,10.5,5.5,24.4,15.4,34.2c1.8-8.2,3.3-15.5,5-22.8
			c3.3-13.7,9.4-26.1,15.8-38.6c7.2-14.1,15.1-28.2,15.7-44.7c0.1-2,1.6-3.9,3.2-7.8c1.8,3.6,3.3,5.4,3.5,7.3
			c0.7,6.7-0.1,13.1-3.3,19.4c-6.3,12.8-12,25.9-18.2,38.8c-8.7,18.2-13.4,37.5-14.7,57.6c-0.1,1.7,0.2,3.5-0.4,4.9
			c-0.7,1.7-2,3.9-3.4,4.2c-1.3,0.3-4-1.2-4.6-2.6c-5.8-12.3-11.4-24.7-16.9-37.1c-1.7-3.9-2.9-8.1-4.8-11.9
			c-5.1-10-5.9-21-7.1-31.8c-0.2-1.9,1.3-3.9,2.1-5.9C357.2,2251.6,358.1,2251.6,358.9,2251.7z"/>
		<path class="st0" d="M1071.9,2275.4c-0.5,0.7-0.8,1.8-1.6,2.2c-18.4,10.6-37,21.1-55.4,31.8c-10.5,6.1-21.6,9.8-33.6,12.1
			c-9,1.7-17.6,5.9-25.9,10c-22.4,10.9-44.6,22.3-66.9,33.6c-2.9,1.5-5.5,3.7-8.3,5.5c-2.7,1.7-5.4,3.3-8.1,5
			c-0.6-0.5-1.2-0.9-1.9-1.4c0.5-1.9,0.4-4.4,1.6-5.5c3.6-3.4,7.4-6.9,11.8-9.1c25.8-13.2,51.6-26.2,77.7-38.7
			c7.4-3.5,15.8-4.6,23.6-7.3c9-3.2,18.3-6.3,26.7-10.8c14.9-8.1,29.2-17.3,43.9-25.9c3.1-1.8,6.5-3.5,9.9-4.6
			C1068,2271.7,1070.9,2271.6,1071.9,2275.4z"/>
		<path class="st0" d="M73.8,2050.5c14.8-17.1,15.7-37.8,18-57.6c4.9-43.8,1.5-87.9,2.5-131.8c0.1-4-1.7-8.8,3.7-12.5
			c1.1,1.9,2.6,3.6,3.1,5.5c0.5,2.6,0.3,5.3,0.3,8c0,28.3,0,56.6,0,85c0,26-1.5,51.9-7.7,77.4c-1.6,6.8-3.7,13.5-6.1,20
			C85.1,2051.1,82.1,2052.3,73.8,2050.5z"/>
		<path class="st0" d="M336.7,1905.1c2.6-5.9,6.3-5,9.4-4.9c12.5,0.5,24.3-2.5,36.3-5.3c16.8-3.9,34-6,51.1-8.4
			c37.1-5.3,74.4-1.6,111.6-2.6c7.3-0.2,14.7,0.7,21.3-3.4c0.6-0.4,1.8,0.3,3.2,0.6c0.4,6-3.5,8.2-8.1,9.2c-2.9,0.7-6,0.4-8.9,0.4
			c-28.6,0-57.2-0.6-85.8,0.2c-30.3,0.9-60.2,4.4-89.7,12.4c-10.4,2.8-21.6,2.8-32.5,3.7C342.2,1907.2,339.8,1905.9,336.7,1905.1z"
			/>
		<path class="st0" d="M1797.3,2424.4c1.4-4.2,4.6-3.9,7.5-3.9c31.9,0.4,63.9,0.8,95.8,1.3c9.3,0.1,18.6,0.4,28,0.3
			c13.3-0.2,25,4.1,34.5,13.1c6.2,5.9,11.6,12.8,17,19.5c1.4,1.8,1.6,4.5,2.4,6.8c-0.7,0.5-1.3,1.1-2,1.6c-1.9-1.3-4.2-2.2-5.6-3.9
			c-4-4.5-7.5-9.4-11.4-13.9c-9.2-10.5-20.6-16.3-35-16.4c-39.9-0.3-79.9-0.9-119.8-1.4C1804.8,2427.5,1800.1,2429,1797.3,2424.4z"
			/>
		<path class="st0" d="M440.2,1663.6c-2.9,1.7-5.7,4.2-8.8,4.9c-11.7,2.5-23.4,5.5-35.2,6.4c-15.6,1.1-31.3,0.3-46.9,0.2
			c-3.3,0-6.8-0.2-9.8-1.3c-10-3.5-20.4-6.5-29.7-11.4c-17.2-9-34-7.2-51-0.4c-6.5,2.6-6.5,2.7-12.2,0.5c0.6-1.1,1-2.7,1.8-3.1
			c20.4-10.4,41.1-14.6,63-3.8c9.8,4.8,20.4,7.9,30.7,11.8c0.6,0.2,1.3,0.5,1.9,0.5c20.9-0.4,41.8-0.3,62.7-1.6
			c9.1-0.6,18-4.1,27.1-6.1c1.7-0.4,3.6,0.4,5.5,0.7C439.5,1661.8,439.8,1662.7,440.2,1663.6z"/>
		<path class="st0" d="M1130.4,1283.6c2.1-1.9,3.3-3.4,4.9-4.4c13.9-9.1,28.2-17.7,41.6-27.4c6.1-4.4,12.6-10.2,15.1-16.8
			c2.8-7.2,2.3-16.3,1.2-24.3c-1.2-8.4-5.8-16.3-7.1-24.8c-1.5-9.4-2.5-19.4-0.9-28.6c1.6-9.1,6.7-17.6,10.3-26.3c0.8,0,1.5,0,2.3,0
			c0.8,1.8,2.4,3.6,2.3,5.3c-0.3,2.9-1.2,5.9-2.6,8.4c-7.9,14.7-8.5,29.9-2.1,45.1c5.4,12.9,7.3,26.1,5.9,39.8
			c-0.4,4-2.3,8.2-4.6,11.6c-9.2,13.6-22.9,21.9-36.2,30.7c-5.8,3.8-11.7,7.7-17.7,11.2C1139.5,1285.1,1135.9,1287.5,1130.4,1283.6z
			"/>
		<path class="st0" d="M202.4,1523.7c8.1,0.5,10.8,4.6,13.6,8.1c4.8,5.9,9.1,12.3,14,18.2c8.1,9.7,16.3,19.3,24.8,28.6
			c9.9,11,11.5,24.2,11.4,38.1c0,4.2-2.9,6.3-6,8.5c-4.9,3.4-9.5,7.2-14.1,11c-10.7,8.6-12.2,19.9-9.6,32.5c0.9,4.2,2,8.4,2.4,12.7
			c0.2,1.6-1.1,3.3-2.3,6.5c-2.2-2.9-4.1-4.4-4.5-6.3c-1.5-6.1-2.6-12.3-3.6-18.6c-3-19.2,9.3-30.2,22.4-40.4
			c9.2-7.2,9.2-7.6,7.5-18.9c-1.8-11.6-8.5-19.9-15.6-28.3c-8.7-10.1-17.2-20.3-25.7-30.5c-3.6-4.3-7.2-8.7-10.6-13.2
			C205.1,1529.8,204.3,1527.4,202.4,1523.7z"/>
		<path class="st0" d="M1094.5,396.9c-5.9,14.6-10.2,17.5-22.4,17.2c-11.6-0.3-14.6-8.5-16.3-17.5c-5.8-1.8-10.2,0.5-14.5,3.1
			c-3.4,2.1-6.6,4.5-10.2,6.2c-2,0.9-4.6,0.5-7.1-0.5c15.5-17.6,35.9-20.6,57.4-19.6c16.2,0.8,35.9,11.9,39.2,21.5
			c-6.2,3.4-8.4-3.5-12.6-4.9C1103.6,400.9,1099.4,398.9,1094.5,396.9z"/>
		<path class="st0" d="M834.9,14.4c7.8-4.9,12.1,0.7,17.7,0.6c8-7.2,18.1-5.5,27.5-2.9c21.1,6,34.9,21.2,45.7,39.4
			c0.9,1.6,0.5,3.9,0.9,8.1c-3.6-2.6-5.7-3.5-7-5.1c-2.8-3.3-5.5-6.8-7.7-10.5c-6.4-10.8-16.1-17.3-27.1-22.7
			c-8.2-4-16.5-4.3-27-3.2c2.4,3,3.8,5,5.5,6.7c10.5,10.2,21.2,20.2,31.7,30.4c2.1,2.1,4.3,4.4,5.6,6.9c1.8,3.5,3.2,7.4-1.4,10.4
			C881.6,49.6,861.7,29.4,834.9,14.4z"/>
		<path class="st0" d="M867,1696.2c-0.6-3.3-1.6-6.3-1.7-9.2c-0.2-7.6-0.2-15.3-0.1-22.9c0.1-5.1-1.2-9.1-6.2-11.4
			c-6.1-2.8-9.6-7.4-11.2-14.2c-1.6-6.7-4.2-13.5-12.2-15.5c-0.6-0.2-0.9-1.6-1.3-2.5c3.6-5.3,8.7-0.8,13.7-2.4
			c0-7.6,0.9-15.7-0.4-23.4c-0.7-4.4-4.3-9-7.8-12c-7.8-6.5-16.5-12-24.8-18c-0.6-0.5-0.7-1.7-1.3-3.2c5.2-3.2,9.7-1,13.6,1.8
			c6.7,4.9,13.2,10,19.5,15.4c4.9,4.3,7.9,10,8.4,16.5c0.5,7.3,0.5,14.6,0,21.9c-0.2,3-2.3,5.9-4,9.8c0.9,2.4,2.7,5.7,3.4,9.2
			c1.2,5.3,4.1,8.8,9,11.1c6.1,2.8,8.7,7.7,8.5,14.4c-0.2,8.6,0,17.3-0.1,25.9C872.1,1690.6,872.8,1694.3,867,1696.2z"/>
		<path class="st0" d="M1133.3,568c-3.5-4.7-0.8-7.1,1-9.9c5.7-8.5,11.5-17,17-25.7c7.3-11.5,14.4-23,21.4-34.7
			c8.4-14.1,14.6-29.2,18.9-44.9c2.2-8.2,1.8-17.1,2.7-25.7c0.3-3.1,0.9-6.2,1.3-9c5.2-0.2,5.8,2.6,5.7,5.2
			c-0.8,10.9-0.3,22.2-3.2,32.6c-7.1,24.7-18.4,47.5-33.5,68.6c-6.8,9.4-11.9,19.9-18,29.8C1143.1,559.6,1139.2,564.4,1133.3,568z"
			/>
		<path class="st0" d="M1029.5,123.2c0.4-4,0.7-8.1,1.2-12.3c1-6.9,2.5-13.7,3.1-20.7c2-22.5-6.6-41.5-20.1-58.8
			c-3.1-3.9-6.3-7.8-8.8-12.1c-0.9-1.5-0.4-5,0.8-6.1c1.1-0.9,4.8-0.6,6,0.6c12.1,11.9,23.2,23.7,27.3,41.7
			c4.3,18.7,3.3,37,2.6,55.5c-0.1,2.9-1.1,5.9-2.3,8.6C1037.8,123.5,1034.9,125.3,1029.5,123.2z"/>
		<path class="st0" d="M1197.8,2017c-0.5-1.4-1.5-2.8-1.5-4.2c-0.1-1.6,0.9-3.2,0.9-4.8c0.1-45.7,7.2-92-12.8-135.8
			c-1.9-4-1.7-4.1,1.1-8.7c5.1,2.4,6.3,7.5,7.9,12c8.5,23,13.1,46.6,11.9,71.4c-0.8,17.6,0,35.3-0.3,53c-0.1,4.6-1.3,9.1-2.4,13.6
			c-0.4,1.8-1.6,3.5-2.5,5.2C1199.5,2018,1198.7,2017.5,1197.8,2017z"/>
		<path class="st0" d="M747.5,459.3c-7.8,0-14.3,0-20.8,0c-1.4-8.7,1.5-9.8,18.4-5.6c-0.8-3.6-1.4-6.7-2.1-9.7
			c-2.5-10.3-5.3-20.6-7.5-31c-0.9-4.4-1.9-9.2,2.8-14.1c1.4,2.1,3.2,3.6,3.4,5.3c2.7,27.5,12.5,52.9,22.6,78.2
			c5.2,13,12.1,25.1,21.1,36c2.4,2.9,4.1,6.3,6.3,9.9c-5.9,3.3-7.6-0.6-9.9-3.1c-12.8-14.4-21-31.4-27.7-49.1
			C751.9,470.5,749.7,465,747.5,459.3z"/>
		<path class="st0" d="M391.2,2045.2c0.7,2.3,1.9,4.6,2,7c0.3,9.8,4.1,18,11,24.9c11.8,11.6,19.3,26.2,27.7,40.1
			c1,1.7,1.8,3.6,2,5.5c2.3,19.5,4.5,38.9,6.7,58.4c0.1,0.9-0.4,1.9-1,4.2c-2.2-1.2-4.4-1.8-5.3-3.2c-1.2-1.9-1.4-4.4-1.7-6.7
			c-1.8-15.8-3.4-31.7-5.5-47.5c-0.5-3.8-2.1-7.6-3.9-11.1c-7.1-14-16.2-26.7-27-38.1c-7-7.4-9.9-16.4-10-26.4
			c0-2.4,1.1-4.7,1.6-7.1C389,2045.2,390.1,2045.2,391.2,2045.2z"/>
		<path class="st0" d="M353.5,2055.2c1.5,0.3,3.3,0.2,4.4,1c11.1,8.8,20,19,24.8,32.8c6,17.3,12.2,34.6,22.4,50
			c5.5,8.3,11,16.6,16.7,24.8c4,5.9,7.4,12,7.1,19.3c-0.1,2.2-1.4,4.4-2.1,6.7c-0.7,0-1.5,0-2.2,0c-0.8-1.9-2.4-3.8-2.4-5.7
			c-0.2-7.1-3.7-12.6-7.5-18.2c-5.1-7.4-10.2-14.8-15.1-22.4c-9.7-14.9-16.1-31.3-22.1-48c-4.2-11.7-9.3-22.7-20.1-30.1
			c-2.6-1.8-4-5.4-6-8.2C352.2,2056.7,352.8,2056,353.5,2055.2z"/>
		<path class="st0" d="M1700.1,2374c4.8-0.7,7.9-1.5,11-1.5c20.9-0.1,41.9-0.5,62.8,0.2c7.8,0.2,15.6,2.7,23.4,4.5
			c11.6,2.7,23.2,5.8,34.8,8.5c5.5,1.3,11,2.2,13.3,9.5c-2.1,0.4-3.7,1.2-5,0.9c-19.2-5.1-38.4-10.4-57.6-15.4
			c-3.8-1-7.9-0.9-11.9-0.9c-19.6-0.1-39.2,0-58.8-0.1C1708.4,2379.6,1704.1,2380.5,1700.1,2374z"/>
		<path class="st0" d="M811,1130.2c1.4,0.7,1.9,0.8,1.9,0.9c2.2,16.2,10,31.5,6.3,48.9c-3,13.9-3.8,28.2-5.5,42.3
			c-0.5,3.8,0.9,9.5-4.4,9.5c-5.3,0-4.1-5.7-4.5-9.5c-0.4-4-1.1-7.9-0.9-11.9c0.3-9.2-0.2-18.7,1.8-27.6c3.2-13.9,1.8-27.8,2.3-41.7
			C808.1,1137.5,806.9,1133.2,811,1130.2z"/>
		<path class="st0" d="M834.6,1552.5c-5.2-2.2-4.2-5.9-4.3-9c-0.2-7.6,0.2-15.3-0.2-22.9c-0.1-2.7-1-6.5-2.9-7.8
			c-8.1-5.6-10.1-14.1-10.4-22.6c-0.2-6.9-2.8-10.5-9-12.3c-13.3-3.9-26.7-7.9-40-11.9c-3.9-1.2-7.7-2.7-11.5-4.1
			c0.1-0.8,0.1-1.6,0.2-2.4c1.9-0.6,3.9-2,5.7-1.7c19.8,3.1,38.7,9.2,57.1,17c3.7,1.6,4.2,4.6,4.4,8.1c0.3,4.9,0.8,9.9,1.7,14.7
			c0.7,4,2.5,7.3,6.9,9c2,0.8,4.6,3.6,4.6,5.6c0.3,12.3,0.1,24.6-0.2,36.8C836.8,1550,835.5,1551.1,834.6,1552.5z"/>
		<path class="st0" d="M169.4,1667.6c-2.6,0.7-5.2,1.9-7.8,1.9c-20.9-0.3-42,1.9-62.6-3.9c-5.6-1.6-11.9-1.4-17.9-1.5
			c-17.7-0.2-35.3,0-53-0.1c-3.3,0-6.6-1-10-1.6c-0.1-0.9-0.1-1.9-0.2-2.8c2.2-0.8,4.3-2.2,6.5-2.2c23.7,0,47.6-2.1,70.9,1.1
			c21.9,3,43.7,3.7,65.6,4c2.8,0,5.5,1,8.3,1.5C169.3,1665.2,169.3,1666.4,169.4,1667.6z"/>
		<path class="st0" d="M320.4,2069.4c2.2-0.6,3.8-1.7,5-1.3c2.1,0.6,4.6,1.7,5.9,3.3c11.8,14.7,25.7,27.8,35,44.5
			c5.5,9.8,10.7,19.9,14.9,30.3c4.7,11.6,8.3,23.8,12,35.8c1.2,3.8,2.4,8.4-3.1,11.8c-5.2-15.4-10-30.3-15.4-45
			c-5.6-15.3-12.9-29.8-23.3-42.5C341.4,2094.1,331.1,2082.2,320.4,2069.4z"/>
		<path class="st0" d="M361.4,2220.7c-0.6-2.6-1.6-5.3-1.6-7.9c0.1-8.1-0.5-15.9-3.7-23.5c-0.8-1.8-1.3-3.9-1.2-5.8
			c0.4-11.9-5.3-22.5-7.7-33.8c-0.8-3.8-3.2-7.3-5.3-10.7c-8.2-12.9-15.3-26.5-25.6-37.9c-2.1-2.3-3.4-5.3-4.9-7.7
			c4.1-3.9,6.5-1.8,8.4,0.7c6.7,9.1,13.3,18.2,19.7,27.4c2.3,3.3,3.8,7,6.2,10.2c8.9,12.1,11.9,26.4,15.1,40.6
			c1.7,7.4,3.6,14.8,4.5,22.4c0.9,7.5,0.8,15.2,0.9,22.8c0,1-1.2,2.1-1.9,3.1C363.3,2220.7,362.3,2220.7,361.4,2220.7z"/>
		<path class="st0" d="M1023.5,612.6c-4.9,5.3-9.4,4.6-12.9,2.2c-9.1-6.3-19.2-6.5-29.6-6.2c-9.6,0.2-19-1-28.6-2.7
			c-13.6-2.3-27.5-2.6-41.3,2.2c-8.2,2.8-17.6,2.1-26.5,2.6c-1.2,0.1-2.6-2.3-3.9-3.5c1.4-1.2,2.5-2.9,4.1-3.4
			c1.8-0.6,3.9-0.1,5.9-0.1c7,0.1,13.7,0.1,20.4-3.3c4.2-2.1,9.7-2.5,14.6-2.5c13.2,0,26.4-0.8,39.5,3.1c7.7,2.2,16.5,0.9,24.8,0.7
			c7.2-0.2,13.8,0.9,20,4.7C1013.8,608.7,1018.1,610.1,1023.5,612.6z"/>
		<path class="st0" d="M1285.7,1478.5c-1.4-2.6-2.8-4.6-3.8-6.9c-4.6-10.8-6.3-22.3-8.2-33.8c-1.2-7.4-4-14.6-6.4-21.8
			c-1.9-5.7-3.9-11.3-6.4-16.7c-3.6-7.9-10-13-17.6-16.9c-7.8-4-9-12.3-2.1-21.8c1.1,3.1,2.5,5.2,2.5,7.4c0.1,4.5,1.8,7.3,5.7,9.7
			c9.9,6,18.2,13.5,20.1,25.8c0.2,1.3,0.8,2.6,1.5,3.7c7.5,13,10.1,27.2,11.5,42c0.6,6.5,3.7,12.7,5.6,19.1
			C1289.7,1473.2,1289.6,1473.2,1285.7,1478.5z"/>
		<path class="st0" d="M888.3,130.3c-2.8,0.3-4.6,1.1-5.7,0.5c-7.7-4-16-7.4-22.5-12.8c-4.1-3.5-7-10-7.9-15.5
			c-1.8-11.4-6.4-20.6-14.9-28.5c-5.8-5.4-10.1-12.4-15.5-18.2c-4.9-5.4-10.4-10.2-15.6-15.3c-1.1-1.1-1.7-2.5-3.5-5.3
			c3.5,0,6.1-0.8,7.4,0.1c4.5,3.3,9.1,6.8,12.8,10.9c9,9.8,17.4,20.2,26.3,30.1c5.1,5.7,7.8,12.5,8.6,19.8
			c1.2,10.9,6.3,18.2,16.5,23C884.4,123.6,884.1,124.2,888.3,130.3z"/>
		<path class="st0" d="M176.3,1839c1.4,5.3-2.1,6.4-4.9,7.9c-4,2.1-5.5,5.2-5.7,9.7c-0.4,8.6-1.1,17.2-2.2,25.8
			c-3.4,24.5-3.3,49-3.2,73.6c0,3.7,1.5,8.1-2.9,10.6c-4.4-0.9-3.8-4.3-3.9-7.1c-0.3-27.2-0.5-54.5,3.4-81.6
			c1-6.9,1.5-13.9,1.7-20.8C158.9,1844.4,162,1841,176.3,1839z"/>
		<path class="st0" d="M189.6,1678.6c5.6,4.3,3.9,9.3,3.8,13.6c-0.4,11.5,1.1,22.5,6.1,33c2.3,4.8,4.2,9.7,5.8,14.7
			c2,6.6,3.9,13.3,5.2,20c1.8,9,6.3,16.7,10.8,24.5c2.1,3.6,4.6,7.5,0.3,11.3c-1-0.3-2-0.3-2.2-0.7c-7.6-12.5-14.9-24.9-17-39.9
			c-1.2-8.6-4.5-17.4-8.5-25.2c-7.8-15.3-8.3-31.2-6.9-47.6C187.1,1681.3,188.4,1680.3,189.6,1678.6z"/>
		<path class="st0" d="M463,2164c-0.5-3-1.3-6.1-1.4-9.1c-0.2-8.6-0.2-17.3-0.1-26c0.2-17.1-5-31.8-17.8-43.9
			c-7.9-7.5-14.6-16.4-21.8-24.6c-3.5-4-5-8.4-3.5-15.2c2.4,1.5,4.8,2.2,5.5,3.7c5.5,11.7,13.9,21.2,23.2,29.7
			c15.4,14.1,22,31.2,21.3,51.7c-0.3,8.3,0.1,16.6-0.1,25c-0.1,3-1,6-1.5,8.9C465.5,2164.1,464.2,2164,463,2164z"/>
		<path class="st0" d="M632.2,2044c-1.2,7.2-5.5,9.5-10.5,10.5c-7.8,1.6-15.8,2.5-23.6,4.2c-4.8,1.1-9.4,2.8-13.9,5
			c-10.5,5-20.8,10.3-31.1,15.7c-2.9,1.5-5.5,3.6-8.1,5.8c-4.8,4.1-9.4,8.4-14.3,12.5c-3,2.5-6.2,4.1-9.8-1.1
			c2.8-2.3,5.5-4.4,8.2-6.7c4.3-3.7,8.2-7.9,12.7-11.3c3.6-2.7,7.9-4.7,11.9-6.9c9.1-4.9,18.1-9.9,27.3-14.4c4.7-2.3,9.7-4,14.7-5.3
			c10.5-2.8,22-1.7,31.5-8.3C628.3,2043.1,629.9,2043.8,632.2,2044z"/>
		<path class="st0" d="M1142.6,974.6c7.6,11.2,14.5,21.3,13.4,35.2c-1.5,19.1-5.3,37.5-14.9,54.2c-3.7,6.3-2.2,12.9-2.8,19.4
			c-0.4,4,1.7,8.8-3,11.7c-0.8-0.3-1.9-0.4-2-0.7c-3-11.7-4-23.2,2.2-34.6c9.7-17.9,14.2-37.3,12.9-57.5c-0.3-5.6-4.3-10.9-6.7-16.3
			C1140,982.4,1137,979,1142.6,974.6z"/>
		<path class="st0" d="M1218.5,1508c2.6-0.6,5.3-1.9,7.9-1.7c14.2,0.9,26.8-4.8,39.5-9.4c8.4-3,16.4-7.4,24.1-11.9
			c9.5-5.4,19.4-3.5,29.2-2.6c4.5,0.4,5.8,5,7,8.9c1.1,3.8,2.4,7.6-3.2,11.4c-1.3-3.1-2.5-5.6-3.2-8.2c-1.2-4.1-3.7-5.9-8-6
			c-7.7-0.2-14.9,0.5-21.9,4.8c-15.4,9.5-32.6,15-50.1,19.1c-6.7,1.6-14.3,2.7-20.9-1.5C1218.7,1509.9,1218.6,1509,1218.5,1508z"/>
		<path class="st0" d="M845,143.8c-4.2-1.5-6.5-1.7-8.2-2.9c-9.4-6.8-19-13.4-27.9-20.8c-4.7-4-9-9.1-12-14.4
			c-10-17.9-13.3-37.4-11.6-57.7c0.1-1.5,1.2-2.9,2.5-6c1.9,2.7,3.6,4.2,3.9,5.9c0.6,2.9,0.5,6,0.3,8.9c-1.2,12.6,3,24.3,6.5,36.1
			c4.6,15.7,17.2,24.7,29.9,33.5c4.6,3.2,9.2,6.5,13.5,10.2C843.2,137.5,843.5,139.9,845,143.8z"/>
		<path class="st0" d="M788.4,1302.5c-1.8-4.2-3.4-6.3-3.4-8.4c0.1-8.9,0.8-17.9,1.2-26.8c0.4-9.3,0.9-18.5,1.2-27.8
			c0.2-5.6-0.1-11.3,0.1-17c0.4-11.5-4.1-21.3-10.7-30.3c-0.6-0.8-1.7-1.4-1.9-2.3c-0.3-1.4-0.8-3.6,0-4.3c0.8-0.8,3.6-1.2,4.3-0.5
			c2.9,2.7,6,5.5,7.7,8.9c4.8,9.5,8.6,19.2,7.7,30.4c-0.8,9.2,0.1,18.6-0.2,27.9c-0.6,14.2-1.5,28.4-2.5,42.6
			C791.6,1296.8,790.3,1298.4,788.4,1302.5z"/>
		<path class="st0" d="M1056.7,128.6c5-5.5,9.6-10.2,13.8-15.2c13.3-16.1,14.1-35.3,12.9-54.9c-0.2-2.8-1.8-5.6-3.1-8.2
			c-2.8-5.6-6.1-11.1-8.8-16.8c-0.9-1.8-0.9-4.1-1.4-6.4c5.2-1.4,6.8,1.7,8.4,4.6c3.4,6.1,6.9,12.2,10.1,18.3
			c0.9,1.7,1.5,3.7,1.7,5.7c1.8,23.4,0.1,46-16.2,65c-2.8,3.3-5.7,6.5-9.1,9.1C1062.4,131.9,1058.9,132.8,1056.7,128.6z"/>
		<path class="st0" d="M903.7,513.7c4.2,1.9,6.1,2.4,7.6,3.4c4.2,3,8.5,3.3,13.2,1.6c7.6-2.9,14-0.8,20.3,4.3
			c14.7,11.8,14.9,11.6,31.6,1.6c6.1-3.6,12.5-6.4,19.8-5.3c4.6,0.7,9,1.9,11.4,8.6c-3,0-5.3,0.6-7-0.1c-7.3-3.3-13.6-1-19.9,2.6
			c-2.6,1.5-5,3.3-7.6,4.8c-12,7.2-18,6.7-28.1-2.7c-6.4-6-12.7-9.9-22.2-6.3c-6.1,2.4-12.6,0.3-17.1-5.1
			C904.7,520,904.8,517.8,903.7,513.7z"/>
		<path class="st0" d="M884.6,1788.1c-4.3-3.8-3.6-7.6-2.3-11.4c0.4-1.2,1.3-2.4,2.2-3.3c12.3-12.9,14.2-28.7,13-45.5
			c-0.4-4.9-1.4-8.5-5.6-11.9c-7.9-6.6-10.4-16.7-14.1-25.9c-0.3-0.8,0.8-2.2,1.3-3.6c4.9,0.5,6.5,3.9,7.8,7.2
			c3.1,7.8,6.3,15.2,13.8,20.3c2.2,1.5,3.3,5.8,3.4,8.8c0.4,9.3,0.4,18.7,0,28c-0.1,3.2-1.1,6.7-2.6,9.5
			C896.3,1769.3,890.6,1778.1,884.6,1788.1z"/>
		<path class="st0" d="M755.2,1290.2c1.5-3.1,4.3-2.8,7.2-1.1c1.1,0.6,2.1,1.7,2.7,2.8c10.3,19.2,25,35.9,32.4,56.7
			c3.2,8.9,2.5,18.3,0.6,27.5c-0.1,0.7-1.4,1.2-2.3,2c-4.1-1.7-3.6-5.2-3.6-8.4c0.5-22.6-10.2-40.5-23.8-57.2
			c-1.2-1.5-2.6-3-3.6-4.7C761.6,1302.1,758.5,1296.3,755.2,1290.2z"/>
		<path class="st0" d="M766.9,1376c2.4,0.4,5.2,0.1,7,1.4c11.8,8.5,24.4,16.1,33,28.4c6.7,9.7,7.4,28.4,1.8,38.8
			c-1.8,3.3-2,7.5-3.1,11.2c-0.5,1.7-1.7,3.1-2.7,4.9c-5.1-5.6-5.8-12.1-2-18.1c9.3-15,4.3-32.6-7.5-41.8
			c-6.8-5.3-13.7-10.4-20.6-15.7c-2.5-1.9-4.8-3.9-7.2-5.9C766,1378.1,766.4,1377.1,766.9,1376z"/>
		<path class="st0" d="M176.6,1759.1c-1.9,4.7-6.1,3.3-9.5,3.4c-15.3,0.2-30.6,0.1-45.9,0.1c-18.6,0-37.3,0-55.9,0
			c-3.2,0-6.4-0.4-9.6-0.6c-0.3-0.7-0.5-1.4-0.8-2c1.4-1.3,2.7-3.1,4.4-3.7c1.8-0.7,3.9-0.5,5.9-0.5c34,0,67.9-0.1,101.9,0
			C170.5,1755.8,174.7,1754.4,176.6,1759.1z"/>
		<path class="st0" d="M944.1,1441.3c-0.2,2.7-0.1,5.4-0.8,7.9c-9.2,31.6-28.1,56.4-53.8,76.8c-4.7-3.6-1.6-6.7,0.7-9.2
			c5.6-6.1,11.3-12.2,17.4-17.8c9.7-9,15.9-20.2,21.1-32.1c2.9-6.7,5.3-13.6,8.2-20.3c1-2.3,2.7-4.2,4.1-6.3
			C942,1440.7,943,1441,944.1,1441.3z"/>
		<path class="st0" d="M180.8,1645.9c-2.1-3.7-3.8-5.2-3.9-6.8c-1.1-28.7-1.7-57.3,8.5-84.9c0.8-2.2,2.3-4.2,4.6-8.2
			c1.4,3.9,2.5,5.5,2.4,7.2c-0.2,3-1,5.9-1.9,8.8c-6.2,18.6-7.7,37.7-6.8,57.2c0.3,6,0.2,12-0.1,18
			C183.5,1639.4,182.2,1641.6,180.8,1645.9z"/>
		<path class="st0" d="M1166.3,1025.1c0.6,2.3,1.8,4.6,1.8,7c0.1,20.3,0.1,40.6,0,60.9c0,2.6-0.7,5.3-1.7,7.7
			c-4,9.8-8.3,19.6-12.5,29.4c-0.8,1.8-1.6,3.6-2.4,5.4c-1-0.6-2.1-1.2-3.1-1.9c-0.3-2-1.3-4.3-0.7-6c2.3-6.6,4.8-13.1,7.9-19.4
			c3.9-7.9,6.1-16,5.8-24.9c-0.4-16-0.2-32-0.1-47.9c0-3.4,0.9-6.7,1.4-10.1C1163.9,1025.3,1165.1,1025.2,1166.3,1025.1z"/>
		<path class="st0" d="M215.1,2063.4c-9.3-5.1-17.3-9.4-24.7-14.9c-7.4-5.6-15.1-11-21.6-17.6c-4-4-7.6-9.8-8.4-15.2
			c-1.4-9.7-0.6-19.8-0.5-29.8c0-1.3,1.5-2.6,3.5-5.9c1.4,4.1,2.6,6.2,2.8,8.5c0.3,6,0.2,11.9,0.2,17.9c-0.1,9.2,2.7,16.7,10.7,22.2
			c10.9,7.5,21.4,15.5,32.1,23.3C212.2,2054.2,216.4,2055.6,215.1,2063.4z"/>
		<path class="st0" d="M780.8,2240.8c-3.2,2.8-4.5,4.3-6.1,5.2c-7.3,4-14.4,8.3-22,11.6c-13.3,5.8-24.6,14.3-35.5,23.7
			c-4,3.4-8.6,6.2-13.2,8.8c-1.3,0.8-3.5,0.1-6.4,0.1c1-2.3,1.3-4.1,2.3-5c22.8-18.3,46.5-35.3,74-45.8
			C775.3,2238.8,777,2239.9,780.8,2240.8z"/>
		<path class="st0" d="M1332.5,1548.1c-5.8-6.3-12-11.3-16-17.7c-5.5-8.8-12.8-10.2-22.1-9.4c-10.9,1-21.8,1.1-32.7,1.4
			c-2.8,0.1-6.2,0.5-7.8-4.2c1.9-0.8,3.7-2.2,5.7-2.3c13.9-0.8,27.8-1.3,41.7-2c8.1-0.4,13.9,2.8,18.6,9.3
			c3.1,4.2,7.1,7.8,10.4,11.9C1333,1538.3,1336.9,1541.7,1332.5,1548.1z"/>
		<path class="st0" d="M1127,1174.9c-3.4-2.9-2.1-6.4,0.6-9.1c3.9-4,7.9-8.4,12.8-10.9c15.5-8,27.8-18.9,36.4-34.1
			c1.6-2.8,4.7-4.8,7.1-7.1c0.8,0.5,1.6,0.9,2.4,1.4c-0.6,2.2-0.7,4.7-1.8,6.6c-8.9,15-19.7,28-35.5,36.6
			C1141.4,1162.5,1134.9,1168.8,1127,1174.9z"/>
		<path class="st0" d="M893.5,2178c0.6-1.7,0.6-2.6,1-2.9c20.3-13.1,36-31.1,52.4-48.4c4.7-4.9,4.7-4.9,10.4-6.5
			c2.7,2.7,0.9,5-1,6.8c-15.7,15.7-31.4,31.4-47.4,46.8c-2.5,2.4-6.1,4.1-9.4,5.3C897.8,2179.7,895.6,2178.5,893.5,2178z"/>
		<path class="st0" d="M695.9,694.5c-1.7-1.8-3.1-2.6-3.3-3.7c-5.3-24.2-8.4-48.5,0-72.7c1.3-3.8,1.9-8.7,8.6-8.4
			c0,2.2,0.5,4.2-0.1,5.8c-8.2,20.9-8.5,42.1-3.3,63.6C699,683.7,700.1,688.7,695.9,694.5z"/>
		<path class="st0" d="M455,1764c0-7,5.8-11.6,14.4-11.3c5,0.2,11.1,9.2,10.8,16c-0.2,6.3-5.1,10.4-12.3,10.3
			C458.7,1778.9,455,1774.6,455,1764z"/>
		<path class="st0" d="M1110.1,1886.5c-0.2,2.7-0.2,5.5-0.6,8.3c-0.7,4.9-1.3,9.8-2.6,14.6c-4.2,15.7-2,31.7-2.7,47.6
			c-0.2,3.7,1.4,8.1-3.8,11c-1-1.7-2.6-3.2-2.7-4.8c-0.7-23.9-1.4-47.7,4.9-71.1C1103.6,1888.8,1104.2,1885.3,1110.1,1886.5z"/>
		<path class="st0" d="M716.2,379.9c-3.4,1.5-6.8,2.3-7.5-2.7c-1.3-8.9-2.2-17.8-3-26.7c-0.3-3.2-0.4-7.7,3.8-8
			c2.8-0.2,6.8,1.4,8.5,3.6c5,6.6,9.3,13.8,13.4,21c1.2,2.2,0.7,5.4,1,8.7c-7.9-0.2-6.7-6.7-9.4-9.9c-2.9-3.4-5-7.5-9.2-10.7
			c0.7,8.3,1.5,16.7,2.2,25L716.2,379.9z"/>
		<path class="st0" d="M1219.6,423.5c1.5,2.1,2.7,3.1,2.8,4.2c1.3,11.9,2.5,23.8,3.5,35.7c0.8,9.9-5.6,16.2-12.3,21.7
			c-3.7,3-8.4,3.2-12.9-1.7c2.1-1.3,3.5-2.5,5.1-3.2c8.6-3.3,13.1-8.8,12.9-17.9c-0.1-6.9-1.3-13.9-1.9-20.8
			C1216.2,435.8,1214,429.8,1219.6,423.5z"/>
		<path class="st0" d="M1217.4,149.6c-3.1,0.7-4.4,1.3-5.5,1.1c-17-3.4-33.7-2.2-50.2,2.9c-3.2,1-6.4,1.9-9.7,2.2
			c-1.9,0.2-4-0.9-6-1.4c-0.1-0.7-0.3-1.4-0.4-2.1c2.1-1.1,4.1-2.7,6.3-3.4c16.6-5.3,33.5-8.2,51.1-7
			C1208.3,142.4,1213.3,143.1,1217.4,149.6z"/>
		<path class="st0" d="M715.9,380.2c2.1,0,4.2,0,6.3,0c-0.1,2.2,0.5,4.8-0.6,6.4c-6.9,10.9-3.9,22.4-2.4,33.8
			c0.7,5.1,3.8,9,9.2,10.8c1.9,0.6,3.2,2.6,5.2,4.3c-7,3.3-13.1,2-17-3.2c-1.4-1.9-2.8-3.9-3.3-6.1c-3.5-14.6-6-29.3,2-43.4
			c0.5-0.8,0.6-1.9,0.9-2.9C716.2,379.9,715.9,380.2,715.9,380.2z"/>
		<path class="st0" d="M760.7,93.3c4,7.9,6.9,15.4,11.3,21.8c4.5,6.5,10.1,12.4,16,17.8c5.6,5.2,12.2,9.3,19.6,14.8
			c-3,1.2-4.2,2.1-5.3,2.1c-1.6-0.1-3.3-0.6-4.7-1.5c-17.5-10.7-31.2-24.7-39.2-43.8C756.9,101.1,755.1,97.2,760.7,93.3z"/>
		<path class="st0" d="M1086.5,140c2.6-2.3,4.2-3.8,5.9-5.2c9.4-7.7,16.5-17.3,21.7-28.2c1.4-2.9,1.4-6.4,2.1-9.6
			c1.2-5.4,2.4-10.8,3.6-15.9c5.9,0.1,5.7,3.2,5.6,6.3c-0.8,21-11.4,37.1-26,51.1C1096.3,141.2,1092.7,144.2,1086.5,140z"/>
		<path class="st0" d="M939.8,59.1c-0.2,3.3,0.2,5.1-0.5,6.3c-5.2,8.3-5.3,17.8-6.4,26.9c-1.6,12.2-2.8,24.4-4.3,36.5
			c-0.2,1.7-1.4,3.4-2.7,6.3c-1.8-2.6-3.3-3.9-3.7-5.4c-0.5-2.2-0.5-4.7-0.2-6.9c1.9-15.5,3.5-31,6.1-46.4
			c0.9-5.3,4.1-10.3,6.6-15.3C935,60.4,936.8,60.3,939.8,59.1z"/>
		<path class="st0" d="M1010.9,2098.3c-6.3-4.3-13.1,0.2-17.4-5.5c2.6-5.3,7.5-3.7,11.4-3.7c4.4,0,10-1.8,12.5,3.5
			c2.3,5-0.2,9.9-3,14.1c-6.7,10-15.6,17.7-26.9,23c-3.3-5.6,0.5-7.4,3.1-9.6c4.6-3.9,9.4-7.4,13.6-11.7
			C1007,2105.6,1008.6,2101.9,1010.9,2098.3z"/>
		<path class="st0" d="M991.8,449.3c-5.7-7-6.9-19.3-5.3-35.5c0.9-8.5,8.4-22.9,15-27.9c0.7,1.8,1.4,3.4,1.9,5.1
			c0.1,0.5-0.3,1.3-0.7,1.8c-9.6,13.7-10,29.2-9.3,45.1C993.6,440.9,992.6,444,991.8,449.3z"/>
		<path class="st0" d="M486.6,2089.9c-0.8-1.4-2-2.5-2.1-3.6c-1-16.6-12.3-27.4-21.9-39.2c-2.5-3-4.5-6.4-6.3-9.9
			c-0.5-0.9,0.8-2.8,1.7-5.3c5.3,5.4,10.3,9.6,14.3,14.6c5,6.2,9.7,12.7,13.5,19.7c2.6,4.8,3.8,10.6,5.1,16
			C491.6,2084.9,491.6,2088.3,486.6,2089.9z"/>
		<path class="st0" d="M508.4,2077.8c-5.1,0.1-5.8-3.1-6.3-5.9c-0.6-3.2-0.7-6.6-0.6-9.9c0.5-11.4-0.8-22.4-4.2-33.4
			c-1.6-5.2-3.1-10.9,2.2-16.8c5.8,6.5,3.9,14.7,6.1,21.5c2.2,6.8,2.3,14.3,2.7,21.6C508.7,2062.4,508.4,2069.9,508.4,2077.8z"/>
		<path class="st0" d="M1213.2,1258.8c1,1.3,2.7,2.5,2.7,3.8c0.6,12.5,2.2,25.1-5.8,36.5c-3.9,5.6-6.4,12.2-9.9,18.2
			c-0.8,1.3-3.4,2.9-4.5,2.5c-1.4-0.5-2.7-2.9-2.8-4.5c-0.1-1.8,0.9-3.9,1.8-5.6c1.6-2.9,3.3-5.8,5.3-8.4c6.9-9,10.7-18.8,9.6-30.5
			C1209.3,1266.9,1207.9,1262,1213.2,1258.8z"/>
		<path class="st0" d="M1234.9,404.2c-6.3,3.3-10.7,5.6-16.8,8.8c0.6-3.7,0.2-6.6,1.4-7.6c4.1-3.3,8.4-6.4,13.2-8.6
			c3.9-1.8,7.2,0.8,8.4,4.7c0.8,2.8,1.3,6,0.7,8.8c-1.6,7.1-3.7,14.1-6.1,20.9c-0.6,1.6-3.3,2.3-5.1,3.4c-0.5-2-1.9-4.1-1.5-5.9
			c1-4.5,3.1-8.8,4.3-13.2C1234.1,412.6,1234.2,409.4,1234.9,404.2z"/>
		<path class="st0" d="M1322,1564.9c5.3-6,10.2-4,14.4-1.9c14.6,7.2,23,19.4,27,34.8c0.3,1.3-0.7,2.9-1.1,4.2
			c-4.8,0.4-5.1-3-6.4-5.5c-3-5.5-5.7-11.2-9.2-16.3c-4.6-6.8-10.9-11.4-19.4-12.7C1325.8,1567.4,1324.5,1566.2,1322,1564.9z"/>
		<path class="st0" d="M1219.3,1337.2c3.8,5.2,0.9,8.1-2.8,9.8c-7.2,3.4-12.3,8.8-17.3,14.7c-4.5,5.4-9.2,10.4-10.9,17.6
			c-0.2,1.1-1.6,1.9-2.6,3c-5-3-4.6-7.5-2.4-10.4c7.3-9.4,14.9-18.5,23.1-27C1209.7,1341.5,1214.8,1339.8,1219.3,1337.2z"/>
		<path class="st0" d="M1019.5,1606.8c-3.9-9.2-6.4-18.2-11.2-25.8c-4.9-7.7-11.9-14-18.5-21.4c2.3-4,5.7-3,8.7-0.6
			c13.6,10.8,21.8,24.9,24.9,42c0.2,0.9-0.2,2-0.6,2.8C1022.6,1604.4,1021.9,1604.7,1019.5,1606.8z"/>
		<path class="st0" d="M532.6,2055.8c-4.8,0.2-5.8-2.8-6.2-5.7c-1.6-11.6-5.2-22.4-11.1-32.6c-1.4-2.4-0.8-6-1.2-9.6
			C524,2011.3,534.7,2040.3,532.6,2055.8z"/>
		<path class="st0" d="M1166.3,179c0.9-0.5,1.7-1,2.6-1.4c1.2-0.4,2.5-0.9,3.8-0.9c13-0.5,26.1-0.9,40-1.3c-1,1.9-1.4,4.2-2.7,4.8
			c-3.2,1.6-6.8,3.1-10.2,3.3c-8.9,0.5-17.9,0.3-26.9,0.1c-2.1,0-4.1-1.3-6.1-2C1166.6,180.7,1166.5,179.9,1166.3,179z"/>
		<path class="st0" d="M1111.2,1238.7c2-1.3,3-2.7,4-2.6c14.2,0.8,26.8-3.6,38.4-11.5c1.5-1,4.2-0.1,6.7-0.1
			C1153.8,1238.8,1126,1247,1111.2,1238.7z"/>
		<path class="st0" d="M590.5,2041.7c-9-8.3-12.5-34.9-6.5-47c1.4,1.5,3.6,2.7,3.6,4c-0.2,13,1.7,25.8,4.5,38.4
			C592.3,2038.2,591.3,2039.5,590.5,2041.7z"/>
		<path class="st0" d="M610,2033.3c-0.9-1-2.2-1.7-2.4-2.8c-2.8-10.1-5.4-20.3-7.9-30.5c-0.9-3.4-2.2-7.1,2.6-10
			c1.2,1.6,2.7,2.8,3.2,4.4c2.6,8.2,5,16.4,7.4,24.6C614.8,2025.9,614.3,2028.3,610,2033.3z"/>
		<path class="st0" d="M1220.9,188.9c-7.5,15.8-22.4,21.4-37.1,13.7c2.2-1.4,3.8-3,5.6-3.4c2.5-0.6,5.3-0.3,7.9-0.4
			c5.5-0.3,10.4-1.6,13.7-6.6C1213.1,189,1215.8,186.7,1220.9,188.9z"/>
		<path class="st0" d="M789.9,1101c1.4,2.8,2.8,4.1,2.8,5.5c0.2,9,0.4,17.9,0.1,26.9c-0.2,4.6-0.7,4.7-6.8,7.1
			c0-6.6-0.4-13.1,0.1-19.4C786.6,1114.9,783.6,1108,789.9,1101z"/>
		<path class="st0" d="M564.2,1997.6c1.1,0.7,2.5,1.1,2.6,1.8c2.7,10.8,5.2,21.7,7.6,32.6c0.2,1-0.9,2.2-2,4.8
			c-7.3-7-7.9-15.8-9.9-23.5C561.2,2008.3,559.1,2002.5,564.2,1997.6z"/>
		<path class="st0" d="M1015.5,1655.4c-3.1-2.6-1.8-5.6-0.1-7.8c4.8-6.2,7.8-12.8,7.3-20.9c-0.1-1,1.2-2.2,1.9-3.3
			c1.2,0.4,2.7,0.4,3,1C1032.9,1634.8,1027,1649.9,1015.5,1655.4z"/>
		<path class="st0" d="M543.6,2042.2c-2.7-12-3.3-23.9-0.6-36c5.7,0.7,5,4.1,5.2,6.9C549.4,2030.6,548.6,2037.7,543.6,2042.2z"/>
		<path class="st0" d="M740,773c0,0-0.4-0.3-0.4-0.3c1.2,3.3,0.9,6.6-3,6.7c-6.9,0.2-13.8-0.5-20.6-1c-0.7,0-1.2-1.3-1.8-2
			C719,771.6,722.2,771.2,740,773z"/>
		<path class="st0" d="M690.3,761.7c3.4-5.9,13.4-7.9,22.7-4.6C709.2,763.5,700.2,765.3,690.3,761.7z"/>
		<path class="st0" d="M869.8,960.7c1.7,6.7-0.3,18.5-3.7,23.3C859.8,977.9,861.1,967.6,869.8,960.7z"/>
		<path class="st0" d="M922.6,983.4c-1.1,8.6,1.2,16.4-3.4,24.7c-6.4-6.7-4.1-13.3-3.6-19.5C915.8,985.4,916.3,985.4,922.6,983.4z"
			/>
		<path class="st0" d="M852.6,970.2c-6.5-10.1-4.2-19,6-23C857,955.6,856.1,963.1,852.6,970.2z"/>
		<path class="st0" d="M657.6,717.8c-6.6-4.2-5.8-7.8-3.6-10.7c3.7-4.7,7.1-10.5,15.9-8.8C667.8,706.6,658,708.3,657.6,717.8z"/>
		<path class="st0" d="M666.9,741.2c-4.3-8-4.2-8.2,1.4-14.6c5.3-6,5.3-6,11.6-3.6C675.8,728.9,671.7,734.5,666.9,741.2z"/>
		<path class="st0" d="M939.1,1009.5c-5.9-12.2-4.7-22,2.8-25.4C942,992.4,943.9,1000.1,939.1,1009.5z"/>
		<path class="st0" d="M676.8,755.6c-2.9-9.1,3.4-14.7,15.5-14.8C690.3,749.3,681.9,749.9,676.8,755.6z"/>
		<path class="st0" d="M483.9,2119.2c4.5,6.8,13.4,7.6,14.1,16.4C487,2135,480.9,2128.9,483.9,2119.2z"/>
		<path class="st0" d="M795,857.3c-5.6,7.9-10.2,9.9-16.8,7.5C782.6,857,789.2,854,795,857.3z"/>
		<path class="st0" d="M1008.8,1701.2c-6.8-3.2-7.7-13.2-2-20.6C1011,1685.8,1011.5,1691.8,1008.8,1701.2z"/>
		<path class="st0" d="M1199,504.8c-3-5.4-5.5-9.6-7.7-13.9c-0.3-0.7,0-2.3,0.6-2.7c0.9-0.7,2.5-1.3,3.5-1
			C1201.4,489.1,1203.4,496.8,1199,504.8z"/>
		<path class="st0" d="M961.5,992.7c5,7.5,4.4,13.6,1.2,20.3C956.8,1008.6,956.3,1002.4,961.5,992.7z"/>
		<path class="st0" d="M884.7,975.3c4.1,6.7,4.4,12.1,0.3,17.8C879.2,987.6,879,983.4,884.7,975.3z"/>
		<path class="st0" d="M826.3,901.7c-3.1,5.2-6.1,10.1-9.6,15.8c-4.8-5.1-3.3-9-0.7-12.4C818.2,902.1,820.4,898.1,826.3,901.7z"/>
		<path class="st0" d="M977.9,1008.9c-4.8-7.6-4.7-11,0-16.6C982.7,998,982.8,1001.3,977.9,1008.9z"/>
		<path class="st0" d="M660.7,684.5c-0.8,5.8-5.9,7.4-9.8,10.1c-0.5,0.4-2.2,0-2.6-0.5c-0.7-0.9-1.3-2.4-1-3.5
			C648.4,686.1,654.8,683.1,660.7,684.5z"/>
		<path class="st0" d="M835.4,909.1c2,7-3,10.5-6.5,15.1C824.1,916.9,826,912.7,835.4,909.1z"/>
		<path class="st0" d="M843.2,936.7c0.1,6.5-4.3,9.8-7.6,14c-4.9-3.1-3.6-6.2-1.7-9C836,938.7,837.6,934.3,843.2,936.7z"/>
		<path class="st0" d="M1008.2,1676.5c-2.1-4.1-4.3-6.5-4.2-8.7c0.1-1.7,3.1-4.4,4.9-4.5c3.3-0.2,5.7,2.5,4.8,5.9
			C1013.3,1671.2,1011,1672.9,1008.2,1676.5z"/>
		<path class="st0" d="M804.9,897.8c-4.3-4.7-2.9-7.6-0.3-9.9c2.3-2.1,4.9-4.8,9.2-0.3C811,890.8,808.3,894,804.9,897.8z"/>
		<path class="st0" d="M750.3,819.1c7.1-7.5,7.6-7.6,13.6-4C758.5,821.6,757.1,822.1,750.3,819.1z"/>
		<path class="st0" d="M1054.3,569.3c-2.8,2.4-4.4,4.7-6.5,5.3c-2.9,0.8-5.3-1.1-5.3-4.3c0-3.5,2.2-5.9,5.6-5.5
			C1049.9,565,1051.5,567.1,1054.3,569.3z"/>
		<path class="st0" d="M539.9,2106.9c-4.6,4-8.3,1.3-11.9,0.4c-0.8-0.2-1.9-2.1-1.8-3c0.1-1,1.5-2.4,2.5-2.5
			C533.1,2101.2,537.3,2101.5,539.9,2106.9z"/>
		<path class="st0" d="M899,996.7c-5-5.4-3.6-9.8-1.5-15.1C903.6,986.6,903.7,988.1,899,996.7z"/>
		<path class="st0" d="M735.8,798.9c0.7-1.3,0.8-1.7,1-1.9c2.5-2.1,5.1-3,7.7-0.4c0.5,0.6,0.3,2.8-0.3,3.4
			C741.2,802.6,738.4,802.2,735.8,798.9z"/>
		<path class="st0" d="M504.6,2124.3c6.4-4,6.5-4,10.4,2C509.2,2129.1,509.2,2129.1,504.6,2124.3z"/>
		<path class="st0" d="M577.5,2441.8c1.7-1.5,2.6-3,3.9-3.5c21-8.3,42.4-15.9,63.1-24.9c17.7-7.7,34.8-16.7,51.9-25.8
			c5.5-2.9,9.9-7.8,14.9-11.6c2.7-2,5.4-5.3,10.4-1c-6.6,7.8-13.7,14.7-22.4,19c-30.4,15.1-60.3,31.3-92.6,42.3
			c-5.7,1.9-11,4.7-16.7,6.7C586.1,2444.5,582,2445.6,577.5,2441.8z"/>
		<path class="st0" d="M645,2340.1c-7.3,4.5-13.8,8.4-20.1,12.4c-7.6,4.8-14.9,10-22.6,14.7c-3.8,2.3-8,4.8-12.6-0.8
			c5.5-3.4,10.4-6.5,15.4-9.6c9.6-6,19.1-12.2,28.8-18.1C636.9,2336.9,640.7,2334.4,645,2340.1z"/>
		<path class="st0" d="M1029.8,1677c5.7-5.4,11.6-7,14.1-3.8c4.3,5.4,9.3,10.8,10.2,19.6c-2.7-0.8-4.9-0.8-5.9-1.9
			C1042.8,1685.5,1040.5,1676.9,1029.8,1677z"/>
	</g>
</g>
<g>
</g>
<g>
</g>
<g>
</g>
<g>
</g>
<g>
</g>
<g>
</g>
</svg>
