<?xml version="1.0" encoding="utf-8"?>
<!-- Generator: Adobe Illustrator 16.0.3, SVG Export Plug-In . SVG Version: 6.00 Build 0)  -->
<!DOCTYPE svg PUBLIC "-//W3C//DTD SVG 1.1//EN" "http://www.w3.org/Graphics/SVG/1.1/DTD/svg11.dtd">
<svg version="1.1" id="Layer_1" xmlns="http://www.w3.org/2000/svg" xmlns:xlink="http://www.w3.org/1999/xlink" x="0px" y="0px"
	 width="590.2px" height="397.7px" viewBox="0 0 590.2 397.7" style="enable-background:new 0 0 590.2 397.7;" xml:space="preserve"
	>
<style type="text/css">
<![CDATA[
	.st0{fill:none;stroke:#000000;stroke-miterlimit:10;}
]]>
</style>
<line class="st0" x1="149.6" y1="250.3" x2="242.9" y2="315"/>
<line class="st0" x1="242.9" y1="315" x2="208.2" y2="363.6"/>
<line class="st0" x1="208.2" y1="363.6" x2="260.2" y2="373"/>
<line class="st0" x1="260.2" y1="373" x2="242.9" y2="315"/>
<line class="st0" x1="242.9" y1="315" x2="196.2" y2="247"/>
<line class="st0" x1="196.2" y1="247" x2="149.6" y2="250.3"/>
<line class="st0" x1="149.6" y1="250.3" x2="178.9" y2="91"/>
<line class="st0" x1="178.9" y1="91" x2="196.2" y2="247"/>
<line class="st0" x1="196.2" y1="247" x2="187.6" y2="91"/>
<line class="st0" x1="187.6" y1="91" x2="178.9" y2="91"/>
<line class="st0" x1="178.9" y1="91" x2="164.2" y2="47.6"/>
<line class="st0" x1="164.2" y1="47.6" x2="136.9" y2="91"/>
<line class="st0" x1="136.9" y1="91" x2="178.9" y2="91"/>
<line class="st0" x1="136.9" y1="91" x2="149.6" y2="250.3"/>
<line class="st0" x1="149.6" y1="250.3" x2="208.2" y2="363.6"/>
<line class="st0" x1="0.2" y1="335" x2="149.6" y2="250.3"/>
<line class="st0" x1="0.2" y1="335" x2="169.3" y2="288.4"/>
<line class="st0" x1="149.6" y1="250.3" x2="0.2" y2="288.4"/>
<line class="st0" x1="0.2" y1="288.4" x2="150.2" y2="247"/>
<line class="st0" x1="8.9" y1="281" x2="3" y2="267.7"/>
<line class="st0" x1="3.7" y1="334" x2="8.9" y2="392.5"/>
<line class="st0" x1="24.9" y1="392.5" x2="22" y2="329"/>
<line class="st0" x1="84.8" y1="311.7" x2="94.2" y2="392.5"/>
<line class="st0" x1="94.2" y1="392.5" x2="94.2" y2="309.1"/>
<line class="st0" x1="53.6" y1="320.3" x2="54.9" y2="392.5"/>
<line class="st0" x1="3" y1="233" x2="59.6" y2="269.4"/>
<line class="st0" x1="38.2" y1="274.3" x2="3" y2="267.7"/>
<line class="st0" x1="3" y1="233" x2="71.6" y2="247"/>
<line class="st0" x1="71.6" y1="247" x2="68.4" y2="271"/>
<line class="st0" x1="71.6" y1="247" x2="147.9" y2="229"/>
<line class="st0" x1="68.4" y1="271" x2="148.8" y2="240"/>
<line class="st0" x1="136.9" y1="91" x2="94.2" y2="26.3"/>
<line class="st0" x1="94.2" y1="26.3" x2="164.2" y2="47.6"/>
<line class="st0" x1="164.2" y1="47.6" x2="140.2" y2="29.6"/>
<line class="st0" x1="140.2" y1="29.6" x2="94.2" y2="26.3"/>
<line class="st0" x1="94.2" y1="26.3" x2="0.2" y2="47.6"/>
<line class="st0" x1="94.2" y1="26.3" x2="0.2" y2="73.6"/>
<line class="st0" x1="0.2" y1="84.3" x2="109.7" y2="65"/>
<line class="st0" x1="109.7" y1="65" x2="94.2" y2="26.3"/>
<line class="st0" x1="109.7" y1="65" x2="136.9" y2="91"/>
<line class="st0" x1="109.7" y1="65" x2="0.2" y2="91"/>
<line class="st0" x1="164.2" y1="47.6" x2="321.6" y2="7"/>
<line class="st0" x1="321.6" y1="7" x2="178.9" y2="91"/>
<line class="st0" x1="178.9" y1="91" x2="334.2" y2="53.6"/>
<line class="st0" x1="321.6" y1="7" x2="334.2" y2="53.6"/>
<line class="st0" x1="321.6" y1="7" x2="409.6" y2="84.3"/>
<line class="st0" x1="409.6" y1="84.3" x2="334.2" y2="53.6"/>
<line class="st0" x1="321.6" y1="7" x2="446.2" y2="33.6"/>
<line class="st0" x1="446.2" y1="33.6" x2="368.2" y2="11.6"/>
<line class="st0" x1="368.2" y1="11.6" x2="321.6" y2="7"/>
<line class="st0" x1="446.2" y1="33.6" x2="409.6" y2="84.3"/>
<line class="st0" x1="409.6" y1="84.3" x2="467.6" y2="84.3"/>
<line class="st0" x1="467.6" y1="84.3" x2="446.2" y2="33.6"/>
<line class="st0" x1="427.9" y1="274.3" x2="409.6" y2="84.3"/>
<line class="st0" x1="467.6" y1="84.3" x2="427.9" y2="274.3"/>
<line class="st0" x1="427.9" y1="274.3" x2="477.6" y2="271"/>
<line class="st0" x1="477.6" y1="271" x2="467.6" y2="84.3"/>
<line class="st0" x1="446.2" y1="33.6" x2="562.2" y2="0.5"/>
<line class="st0" x1="467.6" y1="84.3" x2="590" y2="11.6"/>
<line class="st0" x1="467.6" y1="84.3" x2="584.9" y2="50"/>
<line class="st0" x1="547.4" y1="61" x2="590" y2="74.6"/>
<line class="st0" x1="477.6" y1="271" x2="520.9" y2="334"/>
<line class="st0" x1="520.9" y1="334" x2="499.2" y2="288.4"/>
<line class="st0" x1="499.2" y1="288.4" x2="477.6" y2="271"/>
<line class="st0" x1="477.6" y1="271" x2="438.6" y2="320.3"/>
<line class="st0" x1="438.6" y1="320.3" x2="520.9" y2="334"/>
<line class="st0" x1="438.6" y1="320.3" x2="427.9" y2="274.3"/>
<line class="st0" x1="427.9" y1="274.3" x2="260.2" y2="373"/>
<line class="st0" x1="260.2" y1="373" x2="438.6" y2="320.3"/>
<line class="st0" x1="242.9" y1="315" x2="427.9" y2="274.3"/>
<line class="st0" x1="427.9" y1="274.3" x2="418.7" y2="265"/>
<line class="st0" x1="418.7" y1="265" x2="242.9" y2="315"/>
<line class="st0" x1="418.7" y1="265" x2="409.6" y2="84.3"/>
<line class="st0" x1="208.2" y1="363.6" x2="210.9" y2="392.5"/>
<line class="st0" x1="260.2" y1="373" x2="260.2" y2="392.5"/>
<line class="st0" x1="260.2" y1="373" x2="266.9" y2="392.5"/>
<line class="st0" x1="276" y1="368.3" x2="276.9" y2="392.5"/>
<line class="st0" x1="427.9" y1="323.4" x2="438.6" y2="392.5"/>
<line class="st0" x1="427.9" y1="323.4" x2="433.2" y2="389"/>
<line class="st0" x1="462.2" y1="323.7" x2="467.6" y2="392.5"/>
<line class="st0" x1="477.6" y1="392.5" x2="467.6" y2="325.1"/>
<line class="st0" x1="467.6" y1="325.1" x2="472.6" y2="392.5"/>
<line class="st0" x1="520.9" y1="334" x2="510.1" y2="397.6"/>
<line class="st0" x1="520.9" y1="334" x2="524.2" y2="397.6"/>
<line class="st0" x1="520.9" y1="334" x2="590" y2="297.3"/>
<line class="st0" x1="499.2" y1="288.4" x2="590" y2="269.7"/>
<line class="st0" x1="499.2" y1="288.4" x2="590" y2="259"/>
<line class="st0" x1="520.9" y1="334" x2="590" y2="315"/>
<line class="st0" x1="187.6" y1="91" x2="334.2" y2="53.6"/>
<line class="st0" x1="196.2" y1="88.8" x2="208.2" y2="102.3"/>
<line class="st0" x1="208.2" y1="102.3" x2="250.2" y2="78"/>
<line class="st0" x1="250.2" y1="78" x2="196.2" y2="88.8"/>
<line class="st0" x1="208.2" y1="102.3" x2="321.6" y2="74.6"/>
<line class="st0" x1="321.6" y1="74.6" x2="330.8" y2="59"/>
<line class="st0" x1="330.8" y1="59" x2="250.2" y2="78"/>
<line class="st0" x1="250.2" y1="78" x2="208.2" y2="102.3"/>
<line class="st0" x1="321.6" y1="74.6" x2="371.9" y2="98.3"/>
<line class="st0" x1="371.9" y1="98.3" x2="330.8" y2="59"/>
<line class="st0" x1="371.9" y1="98.3" x2="334.2" y2="53.6"/>
<line class="st0" x1="376.2" y1="98.3" x2="407.2" y2="98.3"/>
<line class="st0" x1="334.2" y1="53.6" x2="407.2" y2="98.3"/>
<line class="st0" x1="376.2" y1="98.3" x2="386.9" y2="233"/>
<line class="st0" x1="386.9" y1="233" x2="409.6" y2="129"/>
<line class="st0" x1="386.9" y1="233" x2="417.1" y2="233"/>
<line class="st0" x1="386.9" y1="233" x2="417.9" y2="248.6"/>
<line class="st0" x1="386.9" y1="233" x2="418.7" y2="265"/>
<line class="st0" x1="398.2" y1="265" x2="386.9" y2="233"/>
<line class="st0" x1="398.2" y1="265" x2="402" y2="269.7"/>
<line class="st0" x1="398.2" y1="265" x2="268.9" y2="302.5"/>
<line class="st0" x1="268.9" y1="302.5" x2="386.9" y2="233"/>
<line class="st0" x1="386.9" y1="233" x2="256.6" y2="265"/>
<line class="st0" x1="256.6" y1="265" x2="268.9" y2="302.5"/>
<line class="st0" x1="256.6" y1="265" x2="383.9" y2="229"/>
<line class="st0" x1="383.9" y1="229" x2="386.9" y2="233"/>
<line class="st0" x1="383.9" y1="229" x2="368.2" y2="211.6"/>
<line class="st0" x1="368.2" y1="211.6" x2="381.6" y2="211.6"/>
<line class="st0" x1="381.6" y1="211.6" x2="379.5" y2="138.9"/>
<line class="st0" x1="368.2" y1="211.6" x2="357.6" y2="105.6"/>
<line class="st0" x1="357.6" y1="105.6" x2="371.9" y2="98.3"/>
<line class="st0" x1="357.6" y1="105.6" x2="321.6" y2="74.6"/>
<line class="st0" x1="371.9" y1="98.3" x2="368.2" y2="211.6"/>
<line class="st0" x1="357.6" y1="105.6" x2="364.7" y2="207.6"/>
<line class="st0" x1="364.7" y1="207.6" x2="368.2" y2="211.6"/>
<line class="st0" x1="368.2" y1="211.6" x2="268.9" y2="259"/>
<line class="st0" x1="268.9" y1="259" x2="260.2" y2="233"/>
<line class="st0" x1="260.2" y1="233" x2="223.2" y2="220.3"/>
<line class="st0" x1="223.2" y1="220.3" x2="268.9" y2="259"/>
<line class="st0" x1="260.2" y1="233" x2="368.2" y2="211.6"/>
<line class="st0" x1="256.6" y1="231.7" x2="364.7" y2="207.6"/>
<line class="st0" x1="223.2" y1="220.3" x2="260.2" y2="263.9"/>
<line class="st0" x1="256.6" y1="259.6" x2="268.9" y2="259"/>
<line class="st0" x1="256.6" y1="259.6" x2="196.2" y2="222.3"/>
<line class="st0" x1="196.2" y1="222.3" x2="223.2" y2="220.3"/>
<line class="st0" x1="223.2" y1="220.3" x2="208.2" y2="102.3"/>
<line class="st0" x1="208.2" y1="102.3" x2="193.4" y2="196.5"/>
<line class="st0" x1="200.8" y1="247" x2="242.9" y2="315"/>
<line class="st0" x1="200.8" y1="247" x2="268.9" y2="302.5"/>
<line class="st0" x1="268.9" y1="302.5" x2="268.9" y2="307.6"/>
<line class="st0" x1="256.6" y1="265" x2="200.8" y2="247"/>
<line class="st0" x1="200.8" y1="247" x2="196.2" y2="222.3"/>
</svg>
