<?xml version="1.0" encoding="utf-8"?>
<!-- Generator: Adobe Illustrator 16.0.3, SVG Export Plug-In . SVG Version: 6.00 Build 0)  -->
<!DOCTYPE svg PUBLIC "-//W3C//DTD SVG 1.1//EN" "http://www.w3.org/Graphics/SVG/1.1/DTD/svg11.dtd">
<svg version="1.1" id="Layer_1" xmlns="http://www.w3.org/2000/svg" xmlns:xlink="http://www.w3.org/1999/xlink" x="0px" y="0px"
	 width="596.1px" height="343px" viewBox="0 0 596.1 343" style="enable-background:new 0 0 596.1 343;" xml:space="preserve">
<style type="text/css">
<![CDATA[
	.st0{fill:none;stroke:#000000;stroke-miterlimit:10;}
]]>
</style>
<line class="st0" x1="0.5" y1="329.6" x2="48" y2="208.6"/>
<line class="st0" x1="48" y1="208.6" x2="36.5" y2="213.1"/>
<line class="st0" x1="36.5" y1="213.1" x2="0.5" y2="329.6"/>
<line class="st0" x1="48" y1="208.6" x2="57.5" y2="186.6"/>
<line class="st0" x1="57.5" y1="186.6" x2="36.5" y2="213.1"/>
<line class="st0" x1="48" y1="208.6" x2="148" y2="150.1"/>
<line class="st0" x1="57.5" y1="186.6" x2="148" y2="150.1"/>
<line class="st0" x1="0.5" y1="329.6" x2="48" y2="329.6"/>
<line class="st0" x1="48" y1="329.6" x2="77" y2="213.1"/>
<line class="st0" x1="77" y1="213.1" x2="71.5" y2="202.6"/>
<line class="st0" x1="71.5" y1="202.6" x2="48" y2="208.6"/>
<line class="st0" x1="48" y1="208.6" x2="77" y2="213.1"/>
<line class="st0" x1="71.5" y1="202.6" x2="163.5" y2="182.6"/>
<line class="st0" x1="163.5" y1="182.6" x2="77" y2="213.1"/>
<line class="st0" x1="148" y1="150.1" x2="163.5" y2="182.6"/>
<line class="st0" x1="163.5" y1="182.6" x2="187" y2="154.1"/>
<line class="st0" x1="187" y1="154.1" x2="148" y2="150.1"/>
<line class="st0" x1="187" y1="154.1" x2="251.5" y2="223.1"/>
<line class="st0" x1="251.5" y1="223.1" x2="163.5" y2="182.6"/>
<line class="st0" x1="163.5" y1="182.6" x2="229.5" y2="225.6"/>
<line class="st0" x1="229.5" y1="225.6" x2="240.9" y2="218.3"/>
<line class="st0" x1="229.5" y1="225.6" x2="251.5" y2="223.1"/>
<line class="st0" x1="251.5" y1="223.1" x2="262.5" y2="320.6"/>
<line class="st0" x1="262.5" y1="320.6" x2="259.5" y2="225.6"/>
<line class="st0" x1="259.5" y1="225.6" x2="251.5" y2="223.1"/>
<line class="st0" x1="229.5" y1="225.6" x2="229.5" y2="320.6"/>
<line class="st0" x1="229.5" y1="320.6" x2="262.5" y2="320.6"/>
<line class="st0" x1="251.5" y1="223.1" x2="246" y2="199.9"/>
<line class="st0" x1="187" y1="154.1" x2="246" y2="199.9"/>
<line class="st0" x1="246" y1="199.9" x2="334.5" y2="174.1"/>
<line class="st0" x1="334.5" y1="174.1" x2="251.5" y2="223.1"/>
<line class="st0" x1="259.5" y1="225.6" x2="334.5" y2="202.9"/>
<line class="st0" x1="334.5" y1="202.9" x2="334.5" y2="174.1"/>
<line class="st0" x1="334.5" y1="174.1" x2="391" y2="205.6"/>
<line class="st0" x1="391" y1="205.6" x2="334.5" y2="202.9"/>
<line class="st0" x1="391" y1="205.6" x2="410.5" y2="171.6"/>
<line class="st0" x1="410.5" y1="171.6" x2="433" y2="198.6"/>
<line class="st0" x1="433" y1="198.6" x2="391" y2="205.6"/>
<line class="st0" x1="334.5" y1="174.1" x2="410.5" y2="171.6"/>
<line class="st0" x1="282" y1="241.6" x2="265.5" y2="223.8"/>
<line class="st0" x1="282" y1="241.6" x2="259.7" y2="232.7"/>
<line class="st0" x1="265.5" y1="241.6" x2="270.8" y2="237.2"/>
<line class="st0" x1="265.5" y1="241.6" x2="259.5" y2="237.2"/>
<line class="st0" x1="265.5" y1="241.6" x2="282" y2="241.6"/>
<line class="st0" x1="265.5" y1="241.6" x2="268.2" y2="307.6"/>
<line class="st0" x1="268.2" y1="307.6" x2="287.5" y2="307.6"/>
<line class="st0" x1="287.5" y1="307.6" x2="282" y2="241.6"/>
<line class="st0" x1="282" y1="241.6" x2="284.7" y2="241.6"/>
<line class="st0" x1="284.7" y1="241.6" x2="287.5" y2="307.6"/>
<line class="st0" x1="282" y1="241.6" x2="334.5" y2="210.9"/>
<line class="st0" x1="334.5" y1="210.9" x2="277.8" y2="226.3"/>
<line class="st0" x1="277.8" y1="226.3" x2="270.8" y2="223.1"/>
<line class="st0" x1="277.8" y1="226.3" x2="282" y2="241.6"/>
<line class="st0" x1="334.5" y1="210.9" x2="367.5" y2="234"/>
<line class="st0" x1="367.5" y1="234" x2="342.5" y2="226.3"/>
<line class="st0" x1="342.5" y1="226.3" x2="282" y2="241.6"/>
<line class="st0" x1="334.5" y1="210.9" x2="342.5" y2="226.3"/>
<line class="st0" x1="148" y1="150.1" x2="180.3" y2="51.5"/>
<line class="st0" x1="180.3" y1="51.5" x2="187" y2="154.1"/>
<line class="st0" x1="187" y1="154.1" x2="194" y2="69.5"/>
<line class="st0" x1="194" y1="69.5" x2="180.3" y2="51.5"/>
<line class="st0" x1="180.3" y1="51.5" x2="282" y2="32.1"/>
<line class="st0" x1="282" y1="32.1" x2="194" y2="69.5"/>
<line class="st0" x1="180.3" y1="51.5" x2="161" y2="64.5"/>
<line class="st0" x1="161" y1="64.5" x2="148" y2="150.1"/>
<line class="st0" x1="161" y1="64.5" x2="180.3" y2="39.8"/>
<line class="st0" x1="180.3" y1="39.8" x2="270" y2="0.5"/>
<line class="st0" x1="270" y1="0.5" x2="180.3" y2="51.5"/>
<line class="st0" x1="282" y1="32.1" x2="270" y2="0.5"/>
<line class="st0" x1="270" y1="0.5" x2="301.4" y2="9.5"/>
<line class="st0" x1="301.4" y1="9.5" x2="282" y2="32.1"/>
<line class="st0" x1="282" y1="32.1" x2="324" y2="99.1"/>
<line class="st0" x1="324" y1="99.1" x2="346" y2="91.1"/>
<line class="st0" x1="346" y1="91.1" x2="282" y2="32.1"/>
<line class="st0" x1="301.4" y1="9.5" x2="346" y2="91.1"/>
<line class="st0" x1="324" y1="99.1" x2="293" y2="97.1"/>
<line class="st0" x1="293" y1="97.1" x2="317.1" y2="88.1"/>
<line class="st0" x1="293" y1="97.1" x2="233.3" y2="119.8"/>
<line class="st0" x1="233.3" y1="119.8" x2="193.2" y2="78.8"/>
<line class="st0" x1="193.2" y1="78.8" x2="235.3" y2="131.1"/>
<line class="st0" x1="235.3" y1="131.1" x2="293" y2="97.1"/>
<line class="st0" x1="324" y1="99.1" x2="303" y2="117.5"/>
<line class="st0" x1="303" y1="117.5" x2="235.3" y2="131.1"/>
<line class="st0" x1="235.3" y1="131.1" x2="191" y2="105"/>
<line class="st0" x1="190.5" y1="108.5" x2="219.2" y2="136.1"/>
<line class="st0" x1="219.2" y1="136.1" x2="235.3" y2="131.1"/>
<line class="st0" x1="235.3" y1="131.1" x2="243" y2="139.8"/>
<line class="st0" x1="235.3" y1="131.1" x2="219.5" y2="179.4"/>
<line class="st0" x1="235.3" y1="133.6" x2="241" y2="196.1"/>
<line class="st0" x1="243" y1="197.6" x2="243" y2="139.8"/>
<line class="st0" x1="219.2" y1="136.1" x2="219.5" y2="179.4"/>
<line class="st0" x1="243" y1="139.8" x2="303" y2="117.5"/>
<line class="st0" x1="303" y1="117.5" x2="330" y2="154.1"/>
<line class="st0" x1="331.6" y1="174.1" x2="325.6" y2="111.8"/>
<line class="st0" x1="303" y1="117.5" x2="328" y2="136.1"/>
<line class="st0" x1="325.6" y1="118.1" x2="321.3" y2="111.8"/>
<line class="st0" x1="303" y1="117.5" x2="325.6" y2="111.8"/>
<line class="st0" x1="346" y1="91.1" x2="334.5" y2="174.1"/>
<line class="st0" x1="340.2" y1="78.8" x2="419" y2="48.8"/>
<line class="st0" x1="419" y1="48.8" x2="346" y2="91.1"/>
<line class="st0" x1="346" y1="91.1" x2="360" y2="173.3"/>
<line class="st0" x1="354.8" y1="143" x2="395" y2="119.8"/>
<line class="st0" x1="395" y1="119.8" x2="353" y2="132.6"/>
<line class="st0" x1="395" y1="119.8" x2="438.3" y2="126.2"/>
<line class="st0" x1="395" y1="119.8" x2="434.3" y2="114.9"/>
<line class="st0" x1="419" y1="48.8" x2="494" y2="39.8"/>
<line class="st0" x1="494" y1="39.8" x2="509.6" y2="16.3"/>
<line class="st0" x1="509.6" y1="16.3" x2="419" y2="48.8"/>
<line class="st0" x1="509.6" y1="16.3" x2="536.6" y2="23.8"/>
<line class="st0" x1="536.6" y1="23.8" x2="494" y2="39.8"/>
<line class="st0" x1="494" y1="39.8" x2="538.3" y2="131.1"/>
<line class="st0" x1="538.3" y1="131.1" x2="536.6" y2="23.8"/>
<line class="st0" x1="494" y1="39.8" x2="515.3" y2="137.8"/>
<line class="st0" x1="538.3" y1="131.1" x2="410.5" y2="171.6"/>
<line class="st0" x1="438.3" y1="126.2" x2="462" y2="119.8"/>
<line class="st0" x1="462" y1="119.8" x2="428" y2="75.8"/>
<line class="st0" x1="428" y1="75.8" x2="438.3" y2="126.2"/>
<line class="st0" x1="438.3" y1="126.2" x2="419" y2="78.8"/>
<line class="st0" x1="445" y1="70" x2="462" y2="119.8"/>
<line class="st0" x1="428" y1="75.8" x2="348.3" y2="105"/>
<line class="st0" x1="428" y1="75.8" x2="497.2" y2="54.5"/>
<line class="st0" x1="428" y1="75.8" x2="494" y2="39.8"/>
<line class="st0" x1="293" y1="97.1" x2="303" y2="117.5"/>
<line class="st0" x1="346" y1="91.1" x2="428" y2="75.8"/>
<line class="st0" x1="428" y1="75.8" x2="419" y2="48.8"/>
<line class="st0" x1="462" y1="119.8" x2="462" y2="154.1"/>
<line class="st0" x1="437.5" y1="124.3" x2="452.1" y2="158.5"/>
<line class="st0" x1="462" y1="118.1" x2="468.3" y2="153.3"/>
<line class="st0" x1="438.3" y1="126.2" x2="444.8" y2="160.8"/>
<line class="st0" x1="400.7" y1="137.8" x2="430.3" y2="165.4"/>
<line class="st0" x1="400.7" y1="137.8" x2="413.3" y2="170.8"/>
<line class="st0" x1="416.6" y1="135.5" x2="430.3" y2="165.4"/>
<line class="st0" x1="400.7" y1="137.8" x2="416.6" y2="135.5"/>
<line class="st0" x1="416.6" y1="135.5" x2="438.3" y2="133.6"/>
<line class="st0" x1="400.7" y1="137.8" x2="355.2" y2="145.1"/>
<line class="st0" x1="400.7" y1="137.8" x2="425.4" y2="124.3"/>
<line class="st0" x1="400.7" y1="137.8" x2="395" y2="119.8"/>
<line class="st0" x1="400.7" y1="137.8" x2="356.6" y2="153.3"/>
<line class="st0" x1="400.7" y1="137.8" x2="434.3" y2="126.8"/>
<line class="st0" x1="334.5" y1="210.9" x2="334.5" y2="202.9"/>
<line class="st0" x1="337" y1="208.5" x2="351" y2="208.5"/>
<line class="st0" x1="347.6" y1="202.9" x2="372.5" y2="237.2"/>
<line class="st0" x1="372.5" y1="237.2" x2="374.9" y2="222"/>
<line class="st0" x1="374.9" y1="222" x2="395" y2="234"/>
<line class="st0" x1="392.9" y1="232.7" x2="378" y2="205.6"/>
<line class="st0" x1="374.9" y1="222" x2="347.6" y2="202.9"/>
<line class="st0" x1="374.9" y1="222" x2="378" y2="205.6"/>
<line class="st0" x1="372.5" y1="237.2" x2="383" y2="313.5"/>
<line class="st0" x1="383" y1="313.5" x2="395" y2="234"/>
<line class="st0" x1="395" y1="234" x2="372.5" y2="237.2"/>
<line class="st0" x1="395" y1="234" x2="405" y2="313.5"/>
<line class="st0" x1="405" y1="313.5" x2="383" y2="313.5"/>
<line class="st0" x1="377.7" y1="303.5" x2="369" y2="303.8"/>
<line class="st0" x1="369" y1="303.8" x2="361.3" y2="246.1"/>
<line class="st0" x1="361.3" y1="246.1" x2="342.5" y2="226.3"/>
<line class="st0" x1="342.5" y1="226.3" x2="362.7" y2="239.4"/>
<line class="st0" x1="361.3" y1="244.5" x2="362.7" y2="239.4"/>
<line class="st0" x1="362.7" y1="239.4" x2="367.5" y2="234"/>
<line class="st0" x1="367.5" y1="234" x2="370.6" y2="246.1"/>
<line class="st0" x1="370.6" y1="246.1" x2="377.7" y2="303.5"/>
<line class="st0" x1="361.3" y1="246.1" x2="370.6" y2="246.1"/>
<line class="st0" x1="418" y1="342.5" x2="433" y2="198.6"/>
<line class="st0" x1="391" y1="205.6" x2="418" y2="342.5"/>
<line class="st0" x1="418" y1="342.5" x2="408.6" y2="335.5"/>
<line class="st0" x1="408.6" y1="335.5" x2="391" y2="205.6"/>
<line class="st0" x1="433" y1="198.6" x2="453" y2="339"/>
<line class="st0" x1="453" y1="339" x2="418" y2="342.5"/>
<line class="st0" x1="433" y1="198.6" x2="538.3" y2="131.1"/>
<line class="st0" x1="433" y1="198.6" x2="547.6" y2="170.8"/>
<line class="st0" x1="547.6" y1="170.8" x2="538.3" y2="131.1"/>
<line class="st0" x1="538.3" y1="131.1" x2="564.3" y2="136.6"/>
<line class="st0" x1="564.3" y1="136.6" x2="547.6" y2="170.8"/>
<line class="st0" x1="564.3" y1="136.6" x2="536.6" y2="23.8"/>
<line class="st0" x1="547.6" y1="170.8" x2="572.6" y2="214.3"/>
<line class="st0" x1="572.6" y1="214.3" x2="564.3" y2="136.6"/>
<line class="st0" x1="524.3" y1="175.5" x2="533" y2="217.1"/>
<line class="st0" x1="533" y1="217.1" x2="547.6" y2="170.8"/>
<line class="st0" x1="533" y1="217.1" x2="572.6" y2="214.3"/>
<line class="st0" x1="572.6" y1="214.3" x2="572.6" y2="321.8"/>
<line class="st0" x1="572.6" y1="321.8" x2="533" y2="217.1"/>
<line class="st0" x1="533" y1="217.1" x2="552.8" y2="319.1"/>
<line class="st0" x1="552.8" y1="319.1" x2="572.6" y2="321.8"/>
<line class="st0" x1="572.6" y1="321.8" x2="595.6" y2="321.8"/>
<line class="st0" x1="595.6" y1="321.8" x2="572.6" y2="214.3"/>
<line class="st0" x1="466.6" y1="194" x2="533.4" y2="219.2"/>
<line class="st0" x1="468.3" y1="192.5" x2="527.9" y2="192.5"/>
<line class="st0" x1="433.8" y1="204.3" x2="450.3" y2="198.6"/>
<line class="st0" x1="436.3" y1="222" x2="465.1" y2="212.4"/>
<line class="st0" x1="463.7" y1="212.9" x2="533.4" y2="219.2"/>
<line class="st0" x1="450.3" y1="198.6" x2="450.7" y2="194.3"/>
<line class="st0" x1="450.3" y1="198.6" x2="466.6" y2="194"/>
<line class="st0" x1="466.6" y1="194" x2="465.1" y2="190.8"/>
<line class="st0" x1="466.6" y1="194" x2="468.3" y2="190.8"/>
<line class="st0" x1="463.7" y1="212.9" x2="466.6" y2="237.2"/>
<line class="st0" x1="466.6" y1="237.2" x2="488.6" y2="306.1"/>
<line class="st0" x1="488.6" y1="306.1" x2="490.3" y2="236.7"/>
<line class="st0" x1="490.3" y1="236.7" x2="463.7" y2="212.9"/>
<line class="st0" x1="466.6" y1="237.2" x2="479" y2="303.8"/>
<line class="st0" x1="479" y1="303.8" x2="488.6" y2="306.1"/>
<line class="st0" x1="488.6" y1="306.1" x2="504" y2="306.1"/>
<line class="st0" x1="504" y1="306.1" x2="490.3" y2="236.7"/>
<line class="st0" x1="490.3" y1="236.7" x2="483.8" y2="214.7"/>
<line class="st0" x1="466.6" y1="237.2" x2="458.2" y2="214.7"/>
<line class="st0" x1="466.6" y1="237.2" x2="436.3" y2="222"/>
<line class="st0" x1="446.5" y1="218.6" x2="459.9" y2="219.2"/>
<line class="st0" x1="437.5" y1="232.8" x2="466.6" y2="237.2"/>
<line class="st0" x1="383" y1="212.4" x2="392.3" y2="212.4"/>
<line class="st0" x1="479" y1="192.4" x2="477.6" y2="187"/>
</svg>
