<?xml version="1.0" encoding="utf-8"?>
<!-- Generator: Adobe Illustrator 16.0.3, SVG Export Plug-In . SVG Version: 6.00 Build 0)  -->
<!DOCTYPE svg PUBLIC "-//W3C//DTD SVG 1.1//EN" "http://www.w3.org/Graphics/SVG/1.1/DTD/svg11.dtd">
<svg version="1.1" id="Layer_1" xmlns="http://www.w3.org/2000/svg" xmlns:xlink="http://www.w3.org/1999/xlink" x="0px" y="0px"
	 width="409px" height="426.5px" viewBox="0 0 409 426.5" enable-background="new 0 0 409 426.5" xml:space="preserve">
<rect fill="#FFFFFF" width="409" height="426.5"/>
<line fill="none" stroke="#000000" stroke-miterlimit="10" x1="39.5" y1="407.5" x2="29.5" y2="259.5"/>
<line fill="none" stroke="#000000" stroke-miterlimit="10" x1="29.5" y1="259.5" x2="131.5" y2="202.5"/>
<line fill="none" stroke="#000000" stroke-miterlimit="10" x1="131.5" y1="202.5" x2="151.5" y2="149.5"/>
<line fill="none" stroke="#000000" stroke-miterlimit="10" x1="39.5" y1="407.5" x2="0.5" y2="402.5"/>
<line fill="none" stroke="#000000" stroke-miterlimit="10" x1="0.5" y1="402.5" x2="29.5" y2="259.5"/>
<line fill="none" stroke="#000000" stroke-miterlimit="10" x1="29.5" y1="259.5" x2="97.5" y2="156.5"/>
<line fill="none" stroke="#000000" stroke-miterlimit="10" x1="97.5" y1="156.5" x2="151.5" y2="149.5"/>
<line fill="none" stroke="#000000" stroke-miterlimit="10" x1="151.5" y1="149.5" x2="131.5" y2="5.5"/>
<line fill="none" stroke="#000000" stroke-miterlimit="10" x1="131.5" y1="5.5" x2="97.5" y2="156.5"/>
<line fill="none" stroke="#000000" stroke-miterlimit="10" x1="151.5" y1="149.5" x2="171.5" y2="38.5"/>
<line fill="none" stroke="#000000" stroke-miterlimit="10" x1="171.5" y1="38.5" x2="131.5" y2="5.5"/>
<line fill="none" stroke="#000000" stroke-miterlimit="10" x1="171.5" y1="38.5" x2="189.5" y2="94"/>
<line fill="none" stroke="#000000" stroke-miterlimit="10" x1="189.5" y1="94" x2="164.5" y2="77.5"/>
<line fill="none" stroke="#000000" stroke-miterlimit="10" x1="189.5" y1="94" x2="156.9" y2="119.2"/>
<line fill="none" stroke="#000000" stroke-miterlimit="10" x1="189.5" y1="94" x2="153.3" y2="139.4"/>
<line fill="none" stroke="#000000" stroke-miterlimit="10" x1="153.3" y1="139.4" x2="173.2" y2="149.5"/>
<line fill="none" stroke="#000000" stroke-miterlimit="10" x1="173.2" y1="149.5" x2="151.5" y2="149.5"/>
<line fill="none" stroke="#000000" stroke-miterlimit="10" x1="151.5" y1="149.5" x2="289.5" y2="245.5"/>
<line fill="none" stroke="#000000" stroke-miterlimit="10" x1="289.5" y1="245.5" x2="131.5" y2="202.5"/>
<line fill="none" stroke="#000000" stroke-miterlimit="10" x1="173.2" y1="149.5" x2="208" y2="176.1"/>
<path fill="none" stroke="#000000" stroke-miterlimit="10" d="M151.5,149.5"/>
<line fill="none" stroke="#000000" stroke-miterlimit="10" x1="151.5" y1="149.5" x2="289.5" y2="214.5"/>
<line fill="none" stroke="#000000" stroke-miterlimit="10" x1="289.5" y1="214.5" x2="289.5" y2="245.5"/>
<line fill="none" stroke="#000000" stroke-miterlimit="10" x1="289.5" y1="245.5" x2="316.5" y2="253.5"/>
<line fill="none" stroke="#000000" stroke-miterlimit="10" x1="289.5" y1="214.5" x2="316.5" y2="253.5"/>
<line fill="none" stroke="#000000" stroke-miterlimit="10" x1="316.5" y1="253.5" x2="308.5" y2="222.3"/>
<line fill="none" stroke="#000000" stroke-miterlimit="10" x1="308.5" y1="222.3" x2="289.5" y2="214.5"/>
<line fill="none" stroke="#000000" stroke-miterlimit="10" x1="308.5" y1="222.3" x2="284.5" y2="126.5"/>
<line fill="none" stroke="#000000" stroke-miterlimit="10" x1="284.5" y1="126.5" x2="275.7" y2="208"/>
<line fill="none" stroke="#000000" stroke-miterlimit="10" x1="39.5" y1="407.5" x2="74.5" y2="263.5"/>
<line fill="none" stroke="#000000" stroke-miterlimit="10" x1="74.5" y1="263.5" x2="29.5" y2="259.5"/>
<line fill="none" stroke="#000000" stroke-miterlimit="10" x1="39.5" y1="407.5" x2="52" y2="395.5"/>
<line fill="none" stroke="#000000" stroke-miterlimit="10" x1="52" y1="395.5" x2="74.5" y2="263.5"/>
<line fill="none" stroke="#000000" stroke-miterlimit="10" x1="74.5" y1="263.5" x2="104.5" y2="227"/>
<line fill="none" stroke="#000000" stroke-miterlimit="10" x1="104.5" y1="227" x2="131.5" y2="227"/>
<line fill="none" stroke="#000000" stroke-miterlimit="10" x1="131.5" y1="227" x2="74.5" y2="263.5"/>
<line fill="none" stroke="#000000" stroke-miterlimit="10" x1="131.5" y1="227" x2="131.5" y2="202.5"/>
<line fill="none" stroke="#000000" stroke-miterlimit="10" x1="131.5" y1="202.5" x2="104.5" y2="227"/>
<line fill="none" stroke="#000000" stroke-miterlimit="10" x1="131.5" y1="227" x2="208" y2="278.5"/>
<line fill="none" stroke="#000000" stroke-miterlimit="10" x1="208" y1="278.5" x2="210.5" y2="257"/>
<line fill="none" stroke="#000000" stroke-miterlimit="10" x1="210.5" y1="257" x2="131.5" y2="227"/>
<line fill="none" stroke="#000000" stroke-miterlimit="10" x1="57" y1="366.1" x2="74.5" y2="366"/>
<line fill="none" stroke="#000000" stroke-miterlimit="10" x1="74.5" y1="366" x2="89.5" y2="283.5"/>
<line fill="none" stroke="#000000" stroke-miterlimit="10" x1="89.5" y1="283.5" x2="85" y2="270.5"/>
<line fill="none" stroke="#000000" stroke-miterlimit="10" x1="85" y1="270.5" x2="72.2" y2="277"/>
<line fill="none" stroke="#000000" stroke-miterlimit="10" x1="72.2" y1="277" x2="118" y2="253.5"/>
<line fill="none" stroke="#000000" stroke-miterlimit="10" x1="118" y1="253.5" x2="74.5" y2="263.5"/>
<line fill="none" stroke="#000000" stroke-miterlimit="10" x1="118" y1="253.5" x2="208" y2="278.5"/>
<line fill="none" stroke="#000000" stroke-miterlimit="10" x1="118" y1="253.5" x2="131.5" y2="227"/>
<line fill="none" stroke="#000000" stroke-miterlimit="10" x1="208" y1="278.5" x2="242.5" y2="249.5"/>
<line fill="none" stroke="#000000" stroke-miterlimit="10" x1="131.5" y1="202.5" x2="269.5" y2="258.5"/>
<line fill="none" stroke="#000000" stroke-miterlimit="10" x1="269.5" y1="258.5" x2="289.5" y2="245.5"/>
<line fill="none" stroke="#000000" stroke-miterlimit="10" x1="289.5" y1="245.5" x2="331" y2="426"/>
<line fill="none" stroke="#000000" stroke-miterlimit="10" x1="331" y1="426" x2="269.5" y2="422"/>
<line fill="none" stroke="#000000" stroke-miterlimit="10" x1="269.5" y1="422" x2="289.5" y2="245.5"/>
<line fill="none" stroke="#000000" stroke-miterlimit="10" x1="289.5" y1="245.5" x2="269.5" y2="258.5"/>
<line fill="none" stroke="#000000" stroke-miterlimit="10" x1="269.5" y1="258.5" x2="269.5" y2="422"/>
<line fill="none" stroke="#000000" stroke-miterlimit="10" x1="233.1" y1="243.7" x2="210.5" y2="257"/>
<line fill="none" stroke="#000000" stroke-miterlimit="10" x1="217.7" y1="252.7" x2="218.7" y2="237.9"/>
<line fill="none" stroke="#000000" stroke-miterlimit="10" x1="228" y1="281" x2="221.8" y2="273.7"/>
<line fill="none" stroke="#000000" stroke-miterlimit="10" x1="221.8" y1="273.7" x2="265.8" y2="257"/>
<line fill="none" stroke="#000000" stroke-miterlimit="10" x1="228" y1="281" x2="269.5" y2="258.5"/>
<line fill="none" stroke="#000000" stroke-miterlimit="10" x1="221.8" y1="273.7" x2="208" y2="278.5"/>
<line fill="none" stroke="#000000" stroke-miterlimit="10" x1="208" y1="278.5" x2="224.9" y2="373.5"/>
<line fill="none" stroke="#000000" stroke-miterlimit="10" x1="224.9" y1="373.5" x2="228" y2="281"/>
<line fill="none" stroke="#000000" stroke-miterlimit="10" x1="228" y1="281" x2="208" y2="278.5"/>
<line fill="none" stroke="#000000" stroke-miterlimit="10" x1="208" y1="278.5" x2="195.5" y2="373.5"/>
<line fill="none" stroke="#000000" stroke-miterlimit="10" x1="195.5" y1="373.5" x2="224.9" y2="373.5"/>
<line fill="none" stroke="#000000" stroke-miterlimit="10" x1="200.5" y1="281" x2="195.5" y2="373.5"/>
<line fill="none" stroke="#000000" stroke-miterlimit="10" x1="200.5" y1="281" x2="208" y2="278.5"/>
<line fill="none" stroke="#000000" stroke-miterlimit="10" x1="198" y1="279.7" x2="118" y2="253.5"/>
<line fill="none" stroke="#000000" stroke-miterlimit="10" x1="198" y1="279.7" x2="200.5" y2="281"/>
<line fill="none" stroke="#000000" stroke-miterlimit="10" x1="191.9" y1="290" x2="187" y2="352"/>
<line fill="none" stroke="#000000" stroke-miterlimit="10" x1="187" y1="352" x2="167.5" y2="352"/>
<line fill="none" stroke="#000000" stroke-miterlimit="10" x1="167.5" y1="352" x2="177.2" y2="290"/>
<line fill="none" stroke="#000000" stroke-miterlimit="10" x1="177.2" y1="287.5" x2="187" y2="352"/>
<line fill="none" stroke="#000000" stroke-miterlimit="10" x1="177.2" y1="287.5" x2="191.9" y2="290"/>
<line fill="none" stroke="#000000" stroke-miterlimit="10" x1="177.2" y1="287.5" x2="190.8" y2="277.4"/>
<line fill="none" stroke="#000000" stroke-miterlimit="10" x1="191.9" y1="290" x2="189.4" y2="283.5"/>
<line fill="none" stroke="#000000" stroke-miterlimit="10" x1="189.4" y1="283.5" x2="177.2" y2="287.5"/>
<line fill="none" stroke="#000000" stroke-miterlimit="10" x1="189.4" y1="283.5" x2="200.5" y2="281"/>
<line fill="none" stroke="#000000" stroke-miterlimit="10" x1="191.9" y1="290" x2="200.4" y2="283.5"/>
<line fill="none" stroke="#000000" stroke-miterlimit="10" x1="167.5" y1="352" x2="173.2" y2="290"/>
<line fill="none" stroke="#000000" stroke-miterlimit="10" x1="173.2" y1="290" x2="177.2" y2="287.5"/>
<line fill="none" stroke="#000000" stroke-miterlimit="10" x1="173.2" y1="290" x2="124.5" y2="255.6"/>
<line fill="none" stroke="#000000" stroke-miterlimit="10" x1="124.5" y1="255.6" x2="110" y2="266"/>
<line fill="none" stroke="#000000" stroke-miterlimit="10" x1="110" y1="266" x2="117.2" y2="273.7"/>
<line fill="none" stroke="#000000" stroke-miterlimit="10" x1="117.2" y1="273.7" x2="173.2" y2="290"/>
<line fill="none" stroke="#000000" stroke-miterlimit="10" x1="89.5" y1="283.5" x2="118" y2="253.5"/>
<line fill="none" stroke="#000000" stroke-miterlimit="10" x1="89.5" y1="283.5" x2="117.2" y2="273.7"/>
<line fill="none" stroke="#000000" stroke-miterlimit="10" x1="110" y1="266" x2="118" y2="253.5"/>
<line fill="none" stroke="#000000" stroke-miterlimit="10" x1="131.5" y1="5.5" x2="148.9" y2="0.5"/>
<line fill="none" stroke="#000000" stroke-miterlimit="10" x1="148.9" y1="0.5" x2="171.5" y2="38.5"/>
<line fill="none" stroke="#000000" stroke-miterlimit="10" x1="148.9" y1="0.5" x2="201.6" y2="63"/>
<line fill="none" stroke="#000000" stroke-miterlimit="10" x1="201.6" y1="63" x2="171.5" y2="38.5"/>
<line fill="none" stroke="#000000" stroke-miterlimit="10" x1="201.6" y1="63" x2="284.5" y2="126.5"/>
<line fill="none" stroke="#000000" stroke-miterlimit="10" x1="284.5" y1="126.5" x2="284.5" y2="113"/>
<line fill="none" stroke="#000000" stroke-miterlimit="10" x1="284.5" y1="113" x2="201.6" y2="63"/>
<line fill="none" stroke="#000000" stroke-miterlimit="10" x1="189.5" y1="94" x2="269.5" y2="139.4"/>
<line fill="none" stroke="#000000" stroke-miterlimit="10" x1="269.5" y1="139.4" x2="284.5" y2="126.5"/>
<line fill="none" stroke="#000000" stroke-miterlimit="10" x1="284.5" y1="126.5" x2="189.5" y2="94"/>
<line fill="none" stroke="#000000" stroke-miterlimit="10" x1="189.5" y1="94" x2="201.6" y2="63"/>
<line fill="none" stroke="#000000" stroke-miterlimit="10" x1="284.5" y1="113" x2="299" y2="137"/>
<line fill="none" stroke="#000000" stroke-miterlimit="10" x1="299" y1="137" x2="284.5" y2="126.5"/>
<line fill="none" stroke="#000000" stroke-miterlimit="10" x1="299" y1="137" x2="308.5" y2="222.3"/>
<line fill="none" stroke="#000000" stroke-miterlimit="10" x1="269.5" y1="139.4" x2="272.9" y2="206.7"/>
<line fill="none" stroke="#000000" stroke-miterlimit="10" x1="228" y1="174.4" x2="228" y2="185.5"/>
<line fill="none" stroke="#000000" stroke-miterlimit="10" x1="228" y1="174.4" x2="173.2" y2="149.5"/>
<line fill="none" stroke="#000000" stroke-miterlimit="10" x1="228" y1="174.4" x2="269.5" y2="141.5"/>
<line fill="none" stroke="#000000" stroke-miterlimit="10" x1="269.5" y1="141.5" x2="229.5" y2="182"/>
<line fill="none" stroke="#000000" stroke-miterlimit="10" x1="240.7" y1="191.5" x2="269.5" y2="167.2"/>
<line fill="none" stroke="#000000" stroke-miterlimit="10" x1="229.5" y1="182" x2="269.5" y2="167.2"/>
<line fill="none" stroke="#000000" stroke-miterlimit="10" x1="249.5" y1="185.5" x2="272.9" y2="206.7"/>
<line fill="none" stroke="#000000" stroke-miterlimit="10" x1="249.5" y1="185.5" x2="272.4" y2="196.1"/>
<line fill="none" stroke="#000000" stroke-miterlimit="10" x1="305.6" y1="196.1" x2="324.5" y2="179.9"/>
<line fill="none" stroke="#000000" stroke-miterlimit="10" x1="324.5" y1="179.9" x2="302.4" y2="167.2"/>
<line fill="none" stroke="#000000" stroke-miterlimit="10" x1="301.8" y1="161.9" x2="352" y2="179.4"/>
<line fill="none" stroke="#000000" stroke-miterlimit="10" x1="352" y1="179.4" x2="352" y2="188"/>
<line fill="none" stroke="#000000" stroke-miterlimit="10" x1="352" y1="188" x2="336.5" y2="185.5"/>
<line fill="none" stroke="#000000" stroke-miterlimit="10" x1="336.5" y1="185.5" x2="324.5" y2="179.9"/>
<line fill="none" stroke="#000000" stroke-miterlimit="10" x1="299" y1="139.4" x2="352" y2="179.4"/>
<line fill="none" stroke="#000000" stroke-miterlimit="10" x1="352" y1="179.4" x2="346.5" y2="165"/>
<line fill="none" stroke="#000000" stroke-miterlimit="10" x1="346.5" y1="165" x2="299" y2="139.4"/>
<line fill="none" stroke="#000000" stroke-miterlimit="10" x1="346.5" y1="165" x2="357.5" y2="182.7"/>
<line fill="none" stroke="#000000" stroke-miterlimit="10" x1="357.5" y1="182.7" x2="352" y2="179.4"/>
<line fill="none" stroke="#000000" stroke-miterlimit="10" x1="352" y1="179.4" x2="368" y2="245.5"/>
<line fill="none" stroke="#000000" stroke-miterlimit="10" x1="368" y1="245.5" x2="357.5" y2="182.7"/>
<line fill="none" stroke="#000000" stroke-miterlimit="10" x1="352" y1="188" x2="346.5" y2="237.9"/>
<line fill="none" stroke="#000000" stroke-miterlimit="10" x1="341.5" y1="234" x2="336.5" y2="185.5"/>
<line fill="none" stroke="#000000" stroke-miterlimit="10" x1="306.5" y1="204.5" x2="337.1" y2="191.5"/>
<line fill="none" stroke="#000000" stroke-miterlimit="10" x1="305.6" y1="190.8" x2="324.5" y2="179.9"/>
<line fill="none" stroke="#000000" stroke-miterlimit="10" x1="337.1" y1="191.5" x2="307.1" y2="209.7"/>
<line fill="none" stroke="#000000" stroke-miterlimit="10" x1="307.5" y1="218.4" x2="381.5" y2="273.7"/>
<line fill="none" stroke="#000000" stroke-miterlimit="10" x1="381.5" y1="273.7" x2="374.5" y2="250.3"/>
<line fill="none" stroke="#000000" stroke-miterlimit="10" x1="374.5" y1="250.3" x2="307.5" y2="218.4"/>
<line fill="none" stroke="#000000" stroke-miterlimit="10" x1="374.5" y1="250.3" x2="390.5" y2="276.1"/>
<line fill="none" stroke="#000000" stroke-miterlimit="10" x1="390.5" y1="276.1" x2="381.5" y2="273.7"/>
<line fill="none" stroke="#000000" stroke-miterlimit="10" x1="381.5" y1="273.7" x2="316.5" y2="253.5"/>
<line fill="none" stroke="#000000" stroke-miterlimit="10" x1="316.5" y1="253.5" x2="331" y2="426"/>
<line fill="none" stroke="#000000" stroke-miterlimit="10" x1="381.5" y1="273.7" x2="360" y2="277.4"/>
<line fill="none" stroke="#000000" stroke-miterlimit="10" x1="360" y1="277.4" x2="317" y2="259.5"/>
<line fill="none" stroke="#000000" stroke-miterlimit="10" x1="360" y1="277.4" x2="372.1" y2="373.5"/>
<line fill="none" stroke="#000000" stroke-miterlimit="10" x1="372.1" y1="373.5" x2="381.5" y2="273.7"/>
<line fill="none" stroke="#000000" stroke-miterlimit="10" x1="381.5" y1="273.7" x2="408.5" y2="373.5"/>
<line fill="none" stroke="#000000" stroke-miterlimit="10" x1="408.5" y1="373.5" x2="372.1" y2="373.5"/>
<line fill="none" stroke="#000000" stroke-miterlimit="10" x1="390.5" y1="276.1" x2="408.5" y2="373.5"/>
<line fill="none" stroke="#000000" stroke-miterlimit="10" x1="240.7" y1="274.1" x2="269.5" y2="281"/>
<line fill="none" stroke="#000000" stroke-miterlimit="10" x1="269.5" y1="272.8" x2="257" y2="265.2"/>
<line fill="none" stroke="#000000" stroke-miterlimit="10" x1="263.3" y1="262" x2="269.5" y2="263.2"/>
<line fill="none" stroke="#000000" stroke-miterlimit="10" x1="240.7" y1="274.1" x2="269.5" y2="285.5"/>
<line fill="none" stroke="#000000" stroke-miterlimit="10" x1="318.6" y1="278.5" x2="346.5" y2="271.7"/>
<line fill="none" stroke="#000000" stroke-miterlimit="10" x1="317" y1="266.6" x2="326" y2="263.2"/>
<line fill="none" stroke="#000000" stroke-miterlimit="10" x1="318.6" y1="283.5" x2="346.5" y2="271.7"/>
<line fill="none" stroke="#000000" stroke-miterlimit="10" x1="322.7" y1="281" x2="338.5" y2="290"/>
<line fill="none" stroke="#000000" stroke-miterlimit="10" x1="338.5" y1="290" x2="331" y2="290"/>
<line fill="none" stroke="#000000" stroke-miterlimit="10" x1="331" y1="290" x2="318.6" y2="283.5"/>
<line fill="none" stroke="#000000" stroke-miterlimit="10" x1="331" y1="277.5" x2="339" y2="281.9"/>
<line fill="none" stroke="#000000" stroke-miterlimit="10" x1="339" y1="281.9" x2="338.5" y2="290"/>
<line fill="none" stroke="#000000" stroke-miterlimit="10" x1="339" y1="281.9" x2="344.5" y2="290"/>
<line fill="none" stroke="#000000" stroke-miterlimit="10" x1="344.5" y1="290" x2="338.5" y2="290"/>
<line fill="none" stroke="#000000" stroke-miterlimit="10" x1="338.5" y1="290" x2="352" y2="343.5"/>
<line fill="none" stroke="#000000" stroke-miterlimit="10" x1="352" y1="343.5" x2="344.5" y2="290"/>
<line fill="none" stroke="#000000" stroke-miterlimit="10" x1="338.5" y1="290" x2="337.1" y2="343.5"/>
<line fill="none" stroke="#000000" stroke-miterlimit="10" x1="337.1" y1="343.5" x2="352" y2="343.5"/>
<line fill="none" stroke="#000000" stroke-miterlimit="10" x1="335" y1="343.5" x2="331" y2="290"/>
<line fill="none" stroke="#000000" stroke-miterlimit="10" x1="97.5" y1="156.5" x2="131.5" y2="202.5"/>
</svg>
