<?xml version="1.0" encoding="utf-8"?>
<!-- Generator: Adobe Illustrator 16.0.3, SVG Export Plug-In . SVG Version: 6.00 Build 0)  -->
<!DOCTYPE svg PUBLIC "-//W3C//DTD SVG 1.1//EN" "http://www.w3.org/Graphics/SVG/1.1/DTD/svg11.dtd">
<svg version="1.1" id="Layer_1" xmlns="http://www.w3.org/2000/svg" xmlns:xlink="http://www.w3.org/1999/xlink" x="0px" y="0px"
	 width="361.3px" height="348px" viewBox="0 0 361.3 348" enable-background="new 0 0 361.3 348" xml:space="preserve">
<rect x="0.5" fill="#FFFFFF" stroke="#000000" stroke-miterlimit="10" width="360.8" height="348"/>
<line fill="none" stroke="#000000" stroke-miterlimit="10" x1="0.5" y1="260.2" x2="7.2" y2="198.8"/>
<line fill="none" stroke="#000000" stroke-miterlimit="10" x1="7.2" y1="198.8" x2="0.5" y2="198.8"/>
<line fill="none" stroke="#000000" stroke-miterlimit="10" x1="0.5" y1="198.8" x2="0.5" y2="260.2"/>
<line fill="none" stroke="#000000" stroke-miterlimit="10" x1="0.5" y1="198.8" x2="7.2" y2="183.8"/>
<line fill="none" stroke="#000000" stroke-miterlimit="10" x1="7.2" y1="183.8" x2="7.2" y2="198.8"/>
<line fill="none" stroke="#000000" stroke-miterlimit="10" x1="7.2" y1="198.8" x2="47.8" y2="165.5"/>
<line fill="none" stroke="#000000" stroke-miterlimit="10" x1="47.8" y1="165.5" x2="7.2" y2="183.8"/>
<line fill="none" stroke="#000000" stroke-miterlimit="10" x1="10.9" y1="182.2" x2="10.2" y2="178.8"/>
<line fill="none" stroke="#000000" stroke-miterlimit="10" x1="10.2" y1="178.8" x2="36.8" y2="162.8"/>
<line fill="none" stroke="#000000" stroke-miterlimit="10" x1="36.8" y1="162.8" x2="34.6" y2="171.5"/>
<line fill="none" stroke="#000000" stroke-miterlimit="10" x1="10.2" y1="178.8" x2="8.8" y2="183.8"/>
<line fill="none" stroke="#000000" stroke-miterlimit="10" x1="10.2" y1="178.8" x2="18.8" y2="162.8"/>
<line fill="none" stroke="#000000" stroke-miterlimit="10" x1="18.8" y1="162.8" x2="36.8" y2="162.8"/>
<line fill="none" stroke="#000000" stroke-miterlimit="10" x1="7.2" y1="198.8" x2="41.5" y2="187.2"/>
<line fill="none" stroke="#000000" stroke-miterlimit="10" x1="23.5" y1="193.3" x2="23.5" y2="260.2"/>
<line fill="none" stroke="#000000" stroke-miterlimit="10" x1="21.8" y1="260.2" x2="0.5" y2="260.2"/>
<line fill="none" stroke="#000000" stroke-miterlimit="10" x1="36.8" y1="162.8" x2="47.8" y2="165.5"/>
<line fill="none" stroke="#000000" stroke-miterlimit="10" x1="36.8" y1="162.8" x2="49.2" y2="162.8"/>
<line fill="none" stroke="#000000" stroke-miterlimit="10" x1="18.8" y1="162.8" x2="24.3" y2="106.5"/>
<line fill="none" stroke="#000000" stroke-miterlimit="10" x1="24.3" y1="106.5" x2="36.8" y2="162.8"/>
<line fill="none" stroke="#000000" stroke-miterlimit="10" x1="36.8" y1="162.8" x2="36.8" y2="106.5"/>
<line fill="none" stroke="#000000" stroke-miterlimit="10" x1="36.8" y1="106.5" x2="24.3" y2="106.5"/>
<line fill="none" stroke="#000000" stroke-miterlimit="10" x1="24.3" y1="106.5" x2="27.5" y2="93.2"/>
<line fill="none" stroke="#000000" stroke-miterlimit="10" x1="27.5" y1="93.2" x2="20.2" y2="108.2"/>
<line fill="none" stroke="#000000" stroke-miterlimit="10" x1="20.2" y1="108.2" x2="18.8" y2="162.8"/>
<line fill="none" stroke="#000000" stroke-miterlimit="10" x1="20.2" y1="108.2" x2="24.3" y2="106.5"/>
<line fill="none" stroke="#000000" stroke-miterlimit="10" x1="24.3" y1="106.5" x2="61.5" y2="73.2"/>
<line fill="none" stroke="#000000" stroke-miterlimit="10" x1="61.5" y1="73.2" x2="27.5" y2="93.2"/>
<line fill="none" stroke="#000000" stroke-miterlimit="10" x1="24.3" y1="106.5" x2="49.2" y2="97.2"/>
<line fill="none" stroke="#000000" stroke-miterlimit="10" x1="36.8" y1="106.5" x2="49.2" y2="101.8"/>
<line fill="none" stroke="#000000" stroke-miterlimit="10" x1="36.8" y1="106.5" x2="33" y2="103.2"/>
<line fill="none" stroke="#000000" stroke-miterlimit="10" x1="49.2" y1="95.2" x2="61.5" y2="74.8"/>
<line fill="none" stroke="#000000" stroke-miterlimit="10" x1="61.5" y1="74.8" x2="58.5" y2="93.2"/>
<line fill="none" stroke="#000000" stroke-miterlimit="10" x1="58.5" y1="93.2" x2="49.2" y2="95.2"/>
<line fill="none" stroke="#000000" stroke-miterlimit="10" x1="49.2" y1="95.2" x2="47.8" y2="165.5"/>
<line fill="none" stroke="#000000" stroke-miterlimit="10" x1="47.8" y1="165.5" x2="34.9" y2="207.5"/>
<line fill="none" stroke="#000000" stroke-miterlimit="10" x1="34.9" y1="207.5" x2="44.5" y2="187.2"/>
<line fill="none" stroke="#000000" stroke-miterlimit="10" x1="44.5" y1="187.2" x2="42.3" y2="214.8"/>
<line fill="none" stroke="#000000" stroke-miterlimit="10" x1="42.3" y1="214.8" x2="34.9" y2="207.5"/>
<line fill="none" stroke="#000000" stroke-miterlimit="10" x1="44.5" y1="187.2" x2="73.5" y2="164.2"/>
<line fill="none" stroke="#000000" stroke-miterlimit="10" x1="73.5" y1="164.2" x2="49.2" y2="162.8"/>
<line fill="none" stroke="#000000" stroke-miterlimit="10" x1="73.5" y1="164.2" x2="58.5" y2="93.2"/>
<line fill="none" stroke="#000000" stroke-miterlimit="10" x1="58.5" y1="93.2" x2="49.2" y2="162.8"/>
<line fill="none" stroke="#000000" stroke-miterlimit="10" x1="58.5" y1="93.2" x2="73.5" y2="95.2"/>
<line fill="none" stroke="#000000" stroke-miterlimit="10" x1="73.5" y1="95.2" x2="73.5" y2="164.2"/>
<line fill="none" stroke="#000000" stroke-miterlimit="10" x1="58.5" y1="93.2" x2="111.2" y2="46.2"/>
<line fill="none" stroke="#000000" stroke-miterlimit="10" x1="58.5" y1="93.2" x2="104.8" y2="74.8"/>
<line fill="none" stroke="#000000" stroke-miterlimit="10" x1="73.5" y1="95.2" x2="104.8" y2="78.2"/>
<line fill="none" stroke="#000000" stroke-miterlimit="10" x1="61.5" y1="74.8" x2="111.2" y2="46.2"/>
<line fill="none" stroke="#000000" stroke-miterlimit="10" x1="104.8" y1="73.2" x2="111.2" y2="46.2"/>
<line fill="none" stroke="#000000" stroke-miterlimit="10" x1="111.2" y1="46.2" x2="118.2" y2="46.2"/>
<line fill="none" stroke="#000000" stroke-miterlimit="10" x1="118.2" y1="46.2" x2="104.8" y2="73.2"/>
<line fill="none" stroke="#000000" stroke-miterlimit="10" x1="120.2" y1="66.5" x2="118.2" y2="46.2"/>
<line fill="none" stroke="#000000" stroke-miterlimit="10" x1="104.8" y1="73.2" x2="120.2" y2="66.5"/>
<line fill="none" stroke="#000000" stroke-miterlimit="10" x1="104.8" y1="73.2" x2="104.8" y2="167.1"/>
<line fill="none" stroke="#000000" stroke-miterlimit="10" x1="104.8" y1="167.1" x2="120.2" y2="66.5"/>
<line fill="none" stroke="#000000" stroke-miterlimit="10" x1="120.2" y1="66.5" x2="200.5" y2="0.5"/>
<line fill="none" stroke="#000000" stroke-miterlimit="10" x1="200.5" y1="0.5" x2="118.2" y2="46.2"/>
<line fill="none" stroke="#000000" stroke-miterlimit="10" x1="73.5" y1="164.2" x2="70.5" y2="178.8"/>
<line fill="none" stroke="#000000" stroke-miterlimit="10" x1="44.5" y1="187.2" x2="104.8" y2="167.1"/>
<line fill="none" stroke="#000000" stroke-miterlimit="10" x1="104.8" y1="167.1" x2="42.3" y2="214.8"/>
<line fill="none" stroke="#000000" stroke-miterlimit="10" x1="42.3" y1="214.8" x2="34.9" y2="296.8"/>
<line fill="none" stroke="#000000" stroke-miterlimit="10" x1="34.9" y1="296.8" x2="34.9" y2="207.5"/>
<line fill="none" stroke="#000000" stroke-miterlimit="10" x1="34.9" y1="296.8" x2="62.8" y2="295.2"/>
<line fill="none" stroke="#000000" stroke-miterlimit="10" x1="62.8" y1="295.2" x2="62.8" y2="209.5"/>
<line fill="none" stroke="#000000" stroke-miterlimit="10" x1="42.3" y1="214.8" x2="120.5" y2="193"/>
<line fill="none" stroke="#000000" stroke-miterlimit="10" x1="120.5" y1="193" x2="104.8" y2="167.1"/>
<line fill="none" stroke="#000000" stroke-miterlimit="10" x1="104.8" y1="167.1" x2="137.8" y2="168.5"/>
<line fill="none" stroke="#000000" stroke-miterlimit="10" x1="137.8" y1="168.5" x2="120.5" y2="193"/>
<line fill="none" stroke="#000000" stroke-miterlimit="10" x1="137.8" y1="168.5" x2="120.2" y2="66.5"/>
<line fill="none" stroke="#000000" stroke-miterlimit="10" x1="120.5" y1="68.4" x2="135.8" y2="74.8"/>
<line fill="none" stroke="#000000" stroke-miterlimit="10" x1="135.8" y1="74.8" x2="137.8" y2="168.5"/>
<line fill="none" stroke="#000000" stroke-miterlimit="10" x1="120.2" y1="66.5" x2="135.8" y2="62.8"/>
<line fill="none" stroke="#000000" stroke-miterlimit="10" x1="135.8" y1="62.8" x2="135.8" y2="74.8"/>
<line fill="none" stroke="#000000" stroke-miterlimit="10" x1="135.8" y1="74.8" x2="217.8" y2="33.5"/>
<line fill="none" stroke="#000000" stroke-miterlimit="10" x1="217.8" y1="33.5" x2="135.8" y2="62.8"/>
<line fill="none" stroke="#000000" stroke-miterlimit="10" x1="200.5" y1="0.5" x2="217.8" y2="33.5"/>
<line fill="none" stroke="#000000" stroke-miterlimit="10" x1="217.8" y1="33.5" x2="238.5" y2="2.2"/>
<line fill="none" stroke="#000000" stroke-miterlimit="10" x1="238.5" y1="2.2" x2="200.5" y2="0.5"/>
<line fill="none" stroke="#000000" stroke-miterlimit="10" x1="217.8" y1="33.5" x2="296.5" y2="68.8"/>
<line fill="none" stroke="#000000" stroke-miterlimit="10" x1="296.5" y1="68.8" x2="238.5" y2="2.2"/>
<line fill="none" stroke="#000000" stroke-miterlimit="10" x1="238.5" y1="2.2" x2="289.8" y2="48.2"/>
<line fill="none" stroke="#000000" stroke-miterlimit="10" x1="289.8" y1="48.2" x2="296.5" y2="68.8"/>
<line fill="none" stroke="#000000" stroke-miterlimit="10" x1="219.5" y1="33.5" x2="244.5" y2="54.2"/>
<line fill="none" stroke="#000000" stroke-miterlimit="10" x1="244.5" y1="54.2" x2="190.201" y2="93.2"/>
<line fill="none" stroke="#000000" stroke-miterlimit="10" x1="190.201" y1="93.2" x2="190.201" y2="78.2"/>
<line fill="none" stroke="#000000" stroke-miterlimit="10" x1="190.201" y1="78.2" x2="162.3" y2="61.5"/>
<line fill="none" stroke="#000000" stroke-miterlimit="10" x1="157.4" y1="64" x2="190.201" y2="93.2"/>
<line fill="none" stroke="#000000" stroke-miterlimit="10" x1="190.201" y1="78.2" x2="243.1" y2="53"/>
<line fill="none" stroke="#000000" stroke-miterlimit="10" x1="135.8" y1="74.8" x2="190.201" y2="93.2"/>
<line fill="none" stroke="#000000" stroke-miterlimit="10" x1="137.8" y1="75.5" x2="176.8" y2="95.2"/>
<line fill="none" stroke="#000000" stroke-miterlimit="10" x1="176.8" y1="95.2" x2="190.201" y2="93.2"/>
<line fill="none" stroke="#000000" stroke-miterlimit="10" x1="190.201" y1="93.2" x2="180.5" y2="162.8"/>
<line fill="none" stroke="#000000" stroke-miterlimit="10" x1="180.5" y1="162.8" x2="176.8" y2="95.2"/>
<line fill="none" stroke="#000000" stroke-miterlimit="10" x1="96.8" y1="82.5" x2="104.8" y2="89.8"/>
<line fill="none" stroke="#000000" stroke-miterlimit="10" x1="100.8" y1="80.3" x2="104.8" y2="82.5"/>
<line fill="none" stroke="#000000" stroke-miterlimit="10" x1="81.4" y1="90.9" x2="104.8" y2="97.2"/>
<line fill="none" stroke="#000000" stroke-miterlimit="10" x1="79" y1="92.2" x2="104.8" y2="101.8"/>
<line fill="none" stroke="#000000" stroke-miterlimit="10" x1="136.2" y1="89.8" x2="151.7" y2="82.5"/>
<line fill="none" stroke="#000000" stroke-miterlimit="10" x1="135.8" y1="99.8" x2="157.4" y2="85"/>
<line fill="none" stroke="#000000" stroke-miterlimit="10" x1="136.4" y1="103.2" x2="172.9" y2="93.2"/>
<line fill="none" stroke="#000000" stroke-miterlimit="10" x1="137.8" y1="108.2" x2="172.9" y2="93.2"/>
<line fill="none" stroke="#000000" stroke-miterlimit="10" x1="190.201" y1="93.2" x2="200.5" y2="162.8"/>
<line fill="none" stroke="#000000" stroke-miterlimit="10" x1="200.5" y1="162.8" x2="180.5" y2="162.8"/>
<line fill="none" stroke="#000000" stroke-miterlimit="10" x1="200.5" y1="162.8" x2="198.5" y2="97"/>
<line fill="none" stroke="#000000" stroke-miterlimit="10" x1="198.5" y1="97" x2="190.201" y2="93.2"/>
<line fill="none" stroke="#000000" stroke-miterlimit="10" x1="190.201" y1="93.2" x2="260.201" y2="71.6"/>
<line fill="none" stroke="#000000" stroke-miterlimit="10" x1="244.5" y1="54.2" x2="272.5" y2="75.5"/>
<line fill="none" stroke="#000000" stroke-miterlimit="10" x1="272.5" y1="75.5" x2="280.1" y2="61.5"/>
<line fill="none" stroke="#000000" stroke-miterlimit="10" x1="272.5" y1="75.5" x2="296.5" y2="68.8"/>
<line fill="none" stroke="#000000" stroke-miterlimit="10" x1="296.5" y1="68.8" x2="280.1" y2="164.2"/>
<line fill="none" stroke="#000000" stroke-miterlimit="10" x1="280.1" y1="164.2" x2="272.5" y2="75.5"/>
<line fill="none" stroke="#000000" stroke-miterlimit="10" x1="260.201" y1="71.6" x2="272.5" y2="75.5"/>
<line fill="none" stroke="#000000" stroke-miterlimit="10" x1="198.5" y1="97" x2="260.201" y2="71.6"/>
<line fill="none" stroke="#000000" stroke-miterlimit="10" x1="280.1" y1="164.2" x2="307.8" y2="164.2"/>
<line fill="none" stroke="#000000" stroke-miterlimit="10" x1="296.5" y1="68.8" x2="307.8" y2="164.2"/>
<line fill="none" stroke="#000000" stroke-miterlimit="10" x1="280.1" y1="164.2" x2="339.201" y2="196.2"/>
<line fill="none" stroke="#000000" stroke-miterlimit="10" x1="339.201" y1="196.2" x2="307.8" y2="164.2"/>
<line fill="none" stroke="#000000" stroke-miterlimit="10" x1="280.1" y1="164.2" x2="315.8" y2="226.2"/>
<line fill="none" stroke="#000000" stroke-miterlimit="10" x1="315.8" y1="226.2" x2="339.201" y2="196.2"/>
<line fill="none" stroke="#000000" stroke-miterlimit="10" x1="339.201" y1="196.2" x2="351.5" y2="233.2"/>
<line fill="none" stroke="#000000" stroke-miterlimit="10" x1="351.5" y1="233.2" x2="315.8" y2="226.2"/>
<line fill="none" stroke="#000000" stroke-miterlimit="10" x1="324.5" y1="347.5" x2="351.5" y2="233.2"/>
<line fill="none" stroke="#000000" stroke-miterlimit="10" x1="315.8" y1="226.2" x2="324.5" y2="347.5"/>
<line fill="none" stroke="#000000" stroke-miterlimit="10" x1="324.5" y1="347.5" x2="360.8" y2="343.8"/>
<line fill="none" stroke="#000000" stroke-miterlimit="10" x1="360.8" y1="343.8" x2="351.5" y2="233.2"/>
<line fill="none" stroke="#000000" stroke-miterlimit="10" x1="280.1" y1="164.2" x2="204.5" y2="207.5"/>
<line fill="none" stroke="#000000" stroke-miterlimit="10" x1="204.5" y1="207.5" x2="137.8" y2="168.5"/>
<line fill="none" stroke="#000000" stroke-miterlimit="10" x1="137.8" y1="168.5" x2="200.5" y2="183.8"/>
<line fill="none" stroke="#000000" stroke-miterlimit="10" x1="200.5" y1="183.8" x2="204.5" y2="207.5"/>
<line fill="none" stroke="#000000" stroke-miterlimit="10" x1="200.5" y1="183.8" x2="280.1" y2="164.2"/>
<line fill="none" stroke="#000000" stroke-miterlimit="10" x1="204.5" y1="207.5" x2="293" y2="186.5"/>
<line fill="none" stroke="#000000" stroke-miterlimit="10" x1="204.5" y1="207.5" x2="216.8" y2="286.8"/>
<line fill="none" stroke="#000000" stroke-miterlimit="10" x1="216.8" y1="286.8" x2="213.9" y2="205.3"/>
<line fill="none" stroke="#000000" stroke-miterlimit="10" x1="204.5" y1="207.5" x2="190.5" y2="286.8"/>
<line fill="none" stroke="#000000" stroke-miterlimit="10" x1="190.5" y1="286.8" x2="216.8" y2="286.8"/>
<line fill="none" stroke="#000000" stroke-miterlimit="10" x1="190.5" y1="286.8" x2="187.5" y2="205.3"/>
<line fill="none" stroke="#000000" stroke-miterlimit="10" x1="204.5" y1="207.5" x2="120.5" y2="193"/>
<line fill="none" stroke="#000000" stroke-miterlimit="10" x1="73.5" y1="164.2" x2="89.2" y2="171.5"/>
<line fill="none" stroke="#000000" stroke-miterlimit="10" x1="73.5" y1="164.2" x2="100.8" y2="168.5"/>
<line fill="none" stroke="#000000" stroke-miterlimit="10" x1="137.8" y1="159.2" x2="151.8" y2="168.5"/>
<line fill="none" stroke="#000000" stroke-miterlimit="10" x1="146.6" y1="168.5" x2="180.5" y2="162.8"/>
<line fill="none" stroke="#000000" stroke-miterlimit="10" x1="137.8" y1="159.2" x2="160.8" y2="165.7"/>
<line fill="none" stroke="#000000" stroke-miterlimit="10" x1="180.5" y1="162.8" x2="182.201" y2="178.8"/>
<line fill="none" stroke="#000000" stroke-miterlimit="10" x1="180.5" y1="162.8" x2="200.5" y2="183.8"/>
<line fill="none" stroke="#000000" stroke-miterlimit="10" x1="200.5" y1="162.8" x2="200.5" y2="183.8"/>
<line fill="none" stroke="#000000" stroke-miterlimit="10" x1="200.5" y1="162.8" x2="207.3" y2="182.2"/>
<line fill="none" stroke="#000000" stroke-miterlimit="10" x1="200.5" y1="162.8" x2="225.201" y2="177.7"/>
<line fill="none" stroke="#000000" stroke-miterlimit="10" x1="200.5" y1="162.8" x2="240.3" y2="174.7"/>
<line fill="none" stroke="#000000" stroke-miterlimit="10" x1="160.8" y1="174" x2="180.5" y2="162.8"/>
<line fill="none" stroke="#000000" stroke-miterlimit="10" x1="128.2" y1="195.2" x2="120.5" y2="255.8"/>
<line fill="none" stroke="#000000" stroke-miterlimit="10" x1="120.5" y1="255.8" x2="120.5" y2="193"/>
<line fill="none" stroke="#000000" stroke-miterlimit="10" x1="139.8" y1="197" x2="141.2" y2="255.8"/>
<line fill="none" stroke="#000000" stroke-miterlimit="10" x1="141.2" y1="255.8" x2="120.5" y2="255.8"/>
<line fill="none" stroke="#000000" stroke-miterlimit="10" x1="141.2" y1="255.8" x2="130.8" y2="195.2"/>
<line fill="none" stroke="#000000" stroke-miterlimit="10" x1="94.5" y1="200.3" x2="95.5" y2="236.5"/>
<line fill="none" stroke="#000000" stroke-miterlimit="10" x1="95.5" y1="236.5" x2="89.2" y2="201"/>
<line fill="none" stroke="#000000" stroke-miterlimit="10" x1="83.5" y1="203.3" x2="79" y2="236.5"/>
<line fill="none" stroke="#000000" stroke-miterlimit="10" x1="79" y1="236.5" x2="79" y2="205.3"/>
<line fill="none" stroke="#000000" stroke-miterlimit="10" x1="79" y1="236.5" x2="95.5" y2="236.5"/>
<line fill="none" stroke="#000000" stroke-miterlimit="10" x1="169.2" y1="233.2" x2="187.5" y2="231.8"/>
<line fill="none" stroke="#000000" stroke-miterlimit="10" x1="185.3" y1="231.8" x2="180.3" y2="203.3"/>
<line fill="none" stroke="#000000" stroke-miterlimit="10" x1="173.8" y1="202.2" x2="169.2" y2="233.2"/>
<line fill="none" stroke="#000000" stroke-miterlimit="10" x1="169.2" y1="233.2" x2="167.8" y2="202.2"/>
<line fill="none" stroke="#000000" stroke-miterlimit="10" x1="185.3" y1="231.8" x2="185.3" y2="203.9"/>
<line fill="none" stroke="#000000" stroke-miterlimit="10" x1="198.5" y1="97" x2="225.201" y2="106.5"/>
<line fill="none" stroke="#000000" stroke-miterlimit="10" x1="225.201" y1="106.5" x2="210.701" y2="92.2"/>
<line fill="none" stroke="#000000" stroke-miterlimit="10" x1="217.9" y1="90.9" x2="226.8" y2="97"/>
<line fill="none" stroke="#000000" stroke-miterlimit="10" x1="226.8" y1="97" x2="225.201" y2="106.5"/>
<line fill="none" stroke="#000000" stroke-miterlimit="10" x1="225.201" y1="106.5" x2="233.201" y2="107.3"/>
<line fill="none" stroke="#000000" stroke-miterlimit="10" x1="233.201" y1="107.3" x2="226.8" y2="97"/>
<line fill="none" stroke="#000000" stroke-miterlimit="10" x1="225.201" y1="106.5" x2="235.201" y2="159.2"/>
<line fill="none" stroke="#000000" stroke-miterlimit="10" x1="235.201" y1="159.2" x2="233.201" y2="107.3"/>
<line fill="none" stroke="#000000" stroke-miterlimit="10" x1="225.201" y1="106.5" x2="215.3" y2="108.2"/>
<line fill="none" stroke="#000000" stroke-miterlimit="10" x1="215.3" y1="108.2" x2="198.5" y2="97"/>
<line fill="none" stroke="#000000" stroke-miterlimit="10" x1="215.3" y1="108.2" x2="220.3" y2="159.2"/>
<line fill="none" stroke="#000000" stroke-miterlimit="10" x1="220.3" y1="159.2" x2="235.201" y2="159.2"/>
<line fill="none" stroke="#000000" stroke-miterlimit="10" x1="225.201" y1="106.5" x2="220.3" y2="159.2"/>
<line fill="none" stroke="#000000" stroke-miterlimit="10" x1="220.3" y1="159.2" x2="231.8" y2="168.8"/>
<line fill="none" stroke="#000000" stroke-miterlimit="10" x1="231.8" y1="168.8" x2="235.201" y2="159.2"/>
<line fill="none" stroke="#000000" stroke-miterlimit="10" x1="235.201" y1="159.2" x2="240.3" y2="174.7"/>
<line fill="none" stroke="#000000" stroke-miterlimit="10" x1="231.8" y1="168.8" x2="240.3" y2="174.7"/>
<line fill="none" stroke="#000000" stroke-miterlimit="10" x1="217.9" y1="159.2" x2="222.701" y2="168.8"/>
<line fill="none" stroke="#000000" stroke-miterlimit="10" x1="210.701" y1="165.5" x2="220.3" y2="159.2"/>
<line fill="none" stroke="#000000" stroke-miterlimit="10" x1="220.3" y1="159.2" x2="202.701" y2="163.5"/>
<line fill="none" stroke="#000000" stroke-miterlimit="10" x1="230.201" y1="201" x2="231.8" y2="249.5"/>
<line fill="none" stroke="#000000" stroke-miterlimit="10" x1="231.8" y1="249.5" x2="252.8" y2="249.5"/>
<line fill="none" stroke="#000000" stroke-miterlimit="10" x1="252.8" y1="249.5" x2="244.201" y2="198.8"/>
<line fill="none" stroke="#000000" stroke-miterlimit="10" x1="248.701" y1="197" x2="252.8" y2="249.5"/>
<line fill="none" stroke="#000000" stroke-miterlimit="10" x1="236.1" y1="200.3" x2="231.8" y2="249.5"/>
</svg>
