<?xml version="1.0" encoding="utf-8"?>
<!-- Generator: Adobe Illustrator 16.0.3, SVG Export Plug-In . SVG Version: 6.00 Build 0)  -->
<!DOCTYPE svg PUBLIC "-//W3C//DTD SVG 1.1//EN" "http://www.w3.org/Graphics/SVG/1.1/DTD/svg11.dtd">
<svg version="1.1" id="Layer_1" xmlns="http://www.w3.org/2000/svg" xmlns:xlink="http://www.w3.org/1999/xlink" x="0px" y="0px"
	 width="1278px" height="1278px" viewBox="0 0 1278 1278" style="enable-background:new 0 0 1278 1278;" xml:space="preserve">
<style type="text/css">
<![CDATA[
	.st0{fill:none;stroke:#000000;stroke-width:0.45;stroke-linecap:round;stroke-linejoin:round;}
	.st1{fill:none;stroke:#000000;stroke-width:0.3;stroke-linecap:round;stroke-linejoin:round;}
	.st2{fill:none;stroke:#000000;stroke-width:0.6;stroke-linecap:round;stroke-linejoin:round;}
	.st3{fill:none;stroke:#000000;stroke-width:0.1;stroke-miterlimit:10;}
	.st4{fill:none;stroke:#000000;stroke-width:0.2;stroke-linecap:round;stroke-linejoin:round;}
	.st5{fill:none;stroke:#000000;stroke-width:1.000000e-02;stroke-linecap:round;stroke-linejoin:round;}
	.st6{fill:none;stroke:#000000;stroke-width:0.1;stroke-linecap:round;stroke-linejoin:round;}
	.st7{fill:none;stroke:#000000;stroke-width:0.4;stroke-linecap:round;stroke-linejoin:round;}
]]>
</style>
<g>
	<polygon class="st2" points="258,486.3 779.5,1007.8 887.5,378.3 	"/>
	<line class="st1" x1="887.5" y1="378.3" x2="995.5" y2="270.3"/>
	<g>
		<path d="M1041.5,1004.9c0-0.7,0.1-1.2,0.2-1.6s0.3-0.7,0.6-1s0.6-0.3,1-0.3c0.3,0,0.6,0.1,0.8,0.2s0.4,0.3,0.6,0.5
			s0.3,0.5,0.4,0.9s0.1,0.8,0.1,1.4c0,0.7-0.1,1.2-0.2,1.6s-0.3,0.7-0.6,1s-0.6,0.3-1,0.3c-0.6,0-1-0.2-1.3-0.6
			C1041.7,1006.8,1041.5,1006,1041.5,1004.9z M1042.2,1004.9c0,0.9,0.1,1.6,0.3,1.9s0.5,0.5,0.8,0.5s0.6-0.2,0.8-0.5
			s0.3-0.9,0.3-1.9c0-0.9-0.1-1.6-0.3-1.9s-0.5-0.5-0.8-0.5c-0.3,0-0.6,0.1-0.8,0.4C1042.3,1003.3,1042.2,1004,1042.2,1004.9z"/>
		<path d="M1046.1,1002.8v-0.8h0.8v0.6c0,0.3,0,0.6-0.1,0.8c-0.1,0.2-0.3,0.4-0.5,0.5l-0.2-0.3c0.1-0.1,0.2-0.1,0.3-0.3
			s0.1-0.3,0.1-0.5H1046.1z"/>
		<path d="M1047.7,1004.9c0-0.7,0.1-1.2,0.2-1.6s0.3-0.7,0.6-1s0.6-0.3,1-0.3c0.3,0,0.6,0.1,0.8,0.2s0.4,0.3,0.6,0.5
			s0.3,0.5,0.4,0.9s0.1,0.8,0.1,1.4c0,0.7-0.1,1.2-0.2,1.6s-0.3,0.7-0.6,1s-0.6,0.3-1,0.3c-0.6,0-1-0.2-1.3-0.6
			C1047.9,1006.8,1047.7,1006,1047.7,1004.9z M1048.4,1004.9c0,0.9,0.1,1.6,0.3,1.9s0.5,0.5,0.8,0.5s0.6-0.2,0.8-0.5
			s0.3-0.9,0.3-1.9c0-0.9-0.1-1.6-0.3-1.9s-0.5-0.5-0.8-0.5c-0.3,0-0.6,0.1-0.8,0.4C1048.6,1003.3,1048.4,1004,1048.4,1004.9z"/>
		<path d="M1052.2,1002.8v-0.8h0.8v0.6c0,0.3,0,0.6-0.1,0.8c-0.1,0.2-0.3,0.4-0.5,0.5l-0.2-0.3c0.1-0.1,0.2-0.1,0.3-0.3
			s0.1-0.3,0.1-0.5H1052.2z M1053.4,1002.8v-0.8h0.8v0.6c0,0.3,0,0.6-0.1,0.8c-0.1,0.2-0.3,0.4-0.5,0.5l-0.2-0.3
			c0.1-0.1,0.2-0.1,0.3-0.3s0.1-0.3,0.1-0.5H1053.4z"/>
	</g>
	<g>
		<path d="M1041.5,785.9l0.7-0.1c0.1,0.4,0.2,0.6,0.4,0.8s0.4,0.3,0.7,0.3c0.3,0,0.6-0.1,0.9-0.4s0.4-0.6,0.4-1
			c0-0.4-0.1-0.7-0.3-0.9s-0.5-0.3-0.9-0.3c-0.2,0-0.4,0.1-0.6,0.2s-0.3,0.2-0.4,0.4l-0.7-0.1l0.6-2.9h2.8v0.7h-2.3l-0.3,1.5
			c0.3-0.2,0.7-0.4,1.1-0.4c0.5,0,0.9,0.2,1.3,0.5s0.5,0.8,0.5,1.3c0,0.5-0.2,1-0.5,1.3c-0.4,0.5-0.9,0.7-1.5,0.7
			c-0.5,0-0.9-0.1-1.3-0.4S1041.5,786.4,1041.5,785.9z"/>
		<path d="M1048.6,787.4h-0.7V783c-0.2,0.2-0.4,0.3-0.7,0.5s-0.5,0.3-0.7,0.4v-0.7c0.4-0.2,0.7-0.4,1-0.7s0.5-0.5,0.6-0.8h0.5V787.4
			z"/>
		<path d="M1050.5,782.5v-0.8h0.8v0.6c0,0.3,0,0.6-0.1,0.8c-0.1,0.2-0.3,0.4-0.5,0.5l-0.2-0.3c0.1-0.1,0.2-0.1,0.3-0.3
			s0.1-0.3,0.1-0.5H1050.5z"/>
		<path d="M1052.2,784.6c0-0.7,0.1-1.2,0.2-1.6s0.3-0.7,0.6-1s0.6-0.3,1-0.3c0.3,0,0.6,0.1,0.8,0.2s0.4,0.3,0.6,0.5s0.3,0.5,0.4,0.9
			s0.1,0.8,0.1,1.4c0,0.7-0.1,1.2-0.2,1.6s-0.3,0.7-0.6,1s-0.6,0.3-1,0.3c-0.6,0-1-0.2-1.3-0.6
			C1052.4,786.5,1052.2,785.7,1052.2,784.6z M1052.9,784.6c0,0.9,0.1,1.6,0.3,1.9s0.5,0.5,0.8,0.5s0.6-0.2,0.8-0.5s0.3-0.9,0.3-1.9
			c0-0.9-0.1-1.6-0.3-1.9s-0.5-0.5-0.8-0.5c-0.3,0-0.6,0.1-0.8,0.4C1053,783,1052.9,783.7,1052.9,784.6z"/>
		<path d="M1056.6,782.5v-0.8h0.8v0.6c0,0.3,0,0.6-0.1,0.8c-0.1,0.2-0.3,0.4-0.5,0.5l-0.2-0.3c0.1-0.1,0.2-0.1,0.3-0.3
			s0.1-0.3,0.1-0.5H1056.6z M1057.8,782.5v-0.8h0.8v0.6c0,0.3,0,0.6-0.1,0.8c-0.1,0.2-0.3,0.4-0.5,0.5l-0.2-0.3
			c0.1-0.1,0.2-0.1,0.3-0.3s0.1-0.3,0.1-0.5H1057.8z"/>
	</g>
	<g>
		<path d="M1045.1,713.9l-0.7,0.1c-0.1-0.3-0.2-0.5-0.3-0.6c-0.2-0.2-0.4-0.3-0.7-0.3c-0.2,0-0.4,0.1-0.6,0.2
			c-0.2,0.2-0.4,0.4-0.5,0.7s-0.2,0.8-0.2,1.3c0.2-0.3,0.4-0.4,0.6-0.6s0.5-0.2,0.8-0.2c0.5,0,0.9,0.2,1.2,0.5s0.5,0.8,0.5,1.3
			c0,0.4-0.1,0.7-0.2,1s-0.4,0.5-0.6,0.7s-0.6,0.2-0.9,0.2c-0.6,0-1.1-0.2-1.4-0.6s-0.6-1.1-0.6-2.1c0-1.1,0.2-1.9,0.6-2.4
			c0.4-0.4,0.8-0.7,1.4-0.7c0.5,0,0.8,0.1,1.1,0.4S1045.1,713.4,1045.1,713.9z M1042.3,716.4c0,0.2,0.1,0.5,0.2,0.7s0.2,0.4,0.4,0.5
			s0.4,0.2,0.6,0.2c0.3,0,0.6-0.1,0.8-0.4s0.3-0.6,0.3-1c0-0.4-0.1-0.7-0.3-0.9s-0.5-0.3-0.8-0.3c-0.3,0-0.6,0.1-0.8,0.3
			S1042.3,716,1042.3,716.4z"/>
		<path d="M1046,713.2v-0.7h3.7v0.5c-0.4,0.4-0.7,0.9-1.1,1.5s-0.6,1.3-0.8,2c-0.1,0.5-0.2,1-0.3,1.6h-0.7c0-0.5,0.1-1,0.3-1.6
			s0.4-1.3,0.7-1.8s0.7-1.1,1-1.5H1046z"/>
		<path d="M1050.5,713.2v-0.8h0.8v0.6c0,0.3,0,0.6-0.1,0.8c-0.1,0.2-0.3,0.4-0.5,0.5l-0.2-0.3c0.1-0.1,0.2-0.1,0.3-0.3
			s0.1-0.3,0.1-0.5H1050.5z"/>
		<path d="M1052.2,715.4c0-0.7,0.1-1.2,0.2-1.6s0.3-0.7,0.6-1s0.6-0.3,1-0.3c0.3,0,0.6,0.1,0.8,0.2s0.4,0.3,0.6,0.5s0.3,0.5,0.4,0.9
			s0.1,0.8,0.1,1.4c0,0.7-0.1,1.2-0.2,1.6s-0.3,0.7-0.6,1s-0.6,0.3-1,0.3c-0.6,0-1-0.2-1.3-0.6
			C1052.4,717.2,1052.2,716.5,1052.2,715.4z M1052.9,715.4c0,0.9,0.1,1.6,0.3,1.9s0.5,0.5,0.8,0.5s0.6-0.2,0.8-0.5s0.3-0.9,0.3-1.9
			c0-0.9-0.1-1.6-0.3-1.9s-0.5-0.5-0.8-0.5c-0.3,0-0.6,0.1-0.8,0.4C1053,713.8,1052.9,714.4,1052.9,715.4z"/>
		<path d="M1056.6,713.2v-0.8h0.8v0.6c0,0.3,0,0.6-0.1,0.8c-0.1,0.2-0.3,0.4-0.5,0.5l-0.2-0.3c0.1-0.1,0.2-0.1,0.3-0.3
			s0.1-0.3,0.1-0.5H1056.6z M1057.8,713.2v-0.8h0.8v0.6c0,0.3,0,0.6-0.1,0.8c-0.1,0.2-0.3,0.4-0.5,0.5l-0.2-0.3
			c0.1-0.1,0.2-0.1,0.3-0.3s0.1-0.3,0.1-0.5H1057.8z"/>
	</g>
	<g>
		<path d="M1042.6,646c-0.3-0.1-0.5-0.3-0.6-0.5s-0.2-0.4-0.2-0.7c0-0.4,0.2-0.8,0.4-1.1s0.7-0.4,1.2-0.4c0.5,0,0.9,0.1,1.2,0.4
			s0.5,0.6,0.5,1.1c0,0.3-0.1,0.5-0.2,0.7s-0.4,0.3-0.6,0.5c0.4,0.1,0.6,0.3,0.8,0.6s0.3,0.6,0.3,0.9c0,0.5-0.2,0.9-0.5,1.2
			s-0.8,0.5-1.4,0.5s-1-0.2-1.4-0.5s-0.5-0.8-0.5-1.3c0-0.4,0.1-0.7,0.3-0.9S1042.2,646.1,1042.6,646z M1042.2,647.4
			c0,0.2,0,0.4,0.1,0.6s0.2,0.3,0.4,0.4s0.4,0.2,0.6,0.2c0.3,0,0.6-0.1,0.8-0.3s0.3-0.5,0.3-0.8c0-0.3-0.1-0.6-0.3-0.8
			s-0.5-0.3-0.8-0.3c-0.3,0-0.6,0.1-0.8,0.3S1042.2,647.1,1042.2,647.4z M1042.4,644.8c0,0.3,0.1,0.5,0.3,0.7s0.4,0.3,0.7,0.3
			c0.3,0,0.5-0.1,0.7-0.3s0.3-0.4,0.3-0.6c0-0.3-0.1-0.5-0.3-0.7s-0.4-0.3-0.7-0.3c-0.3,0-0.5,0.1-0.7,0.3
			S1042.4,644.6,1042.4,644.8z"/>
		<path d="M1045.9,647.6l0.7-0.1c0.1,0.4,0.2,0.7,0.4,0.9s0.4,0.3,0.7,0.3c0.3,0,0.6-0.1,0.8-0.3s0.3-0.5,0.3-0.9
			c0-0.3-0.1-0.6-0.3-0.8s-0.5-0.3-0.8-0.3c-0.1,0-0.3,0-0.5,0.1l0.1-0.6c0,0,0.1,0,0.1,0c0.3,0,0.6-0.1,0.8-0.2s0.4-0.4,0.4-0.7
			c0-0.3-0.1-0.5-0.3-0.6s-0.4-0.3-0.7-0.3c-0.3,0-0.5,0.1-0.7,0.3s-0.3,0.4-0.4,0.8l-0.7-0.1c0.1-0.5,0.3-0.8,0.6-1.1
			s0.7-0.4,1.1-0.4c0.3,0,0.6,0.1,0.9,0.2s0.5,0.3,0.6,0.5s0.2,0.5,0.2,0.7c0,0.2-0.1,0.5-0.2,0.7s-0.3,0.4-0.6,0.5
			c0.3,0.1,0.6,0.2,0.8,0.5s0.3,0.6,0.3,0.9c0,0.5-0.2,0.9-0.5,1.3s-0.8,0.5-1.4,0.5c-0.5,0-0.9-0.1-1.3-0.4
			S1046,648.1,1045.9,647.6z"/>
		<path d="M1050.5,644.1v-0.8h0.8v0.6c0,0.3,0,0.6-0.1,0.8c-0.1,0.2-0.3,0.4-0.5,0.5l-0.2-0.3c0.1-0.1,0.2-0.1,0.3-0.3
			s0.1-0.3,0.1-0.5H1050.5z"/>
		<path d="M1052.2,646.3c0-0.7,0.1-1.2,0.2-1.6s0.3-0.7,0.6-1s0.6-0.3,1-0.3c0.3,0,0.6,0.1,0.8,0.2s0.4,0.3,0.6,0.5s0.3,0.5,0.4,0.9
			s0.1,0.8,0.1,1.4c0,0.7-0.1,1.2-0.2,1.6s-0.3,0.7-0.6,1s-0.6,0.3-1,0.3c-0.6,0-1-0.2-1.3-0.6
			C1052.4,648.1,1052.2,647.3,1052.2,646.3z M1052.9,646.3c0,0.9,0.1,1.6,0.3,1.9s0.5,0.5,0.8,0.5s0.6-0.2,0.8-0.5s0.3-0.9,0.3-1.9
			c0-0.9-0.1-1.6-0.3-1.9s-0.5-0.5-0.8-0.5c-0.3,0-0.6,0.1-0.8,0.4C1053,644.7,1052.9,645.3,1052.9,646.3z"/>
		<path d="M1056.6,644.1v-0.8h0.8v0.6c0,0.3,0,0.6-0.1,0.8c-0.1,0.2-0.3,0.4-0.5,0.5l-0.2-0.3c0.1-0.1,0.2-0.1,0.3-0.3
			s0.1-0.3,0.1-0.5H1056.6z M1057.8,644.1v-0.8h0.8v0.6c0,0.3,0,0.6-0.1,0.8c-0.1,0.2-0.3,0.4-0.5,0.5l-0.2-0.3
			c0.1-0.1,0.2-0.1,0.3-0.3s0.1-0.3,0.1-0.5H1057.8z"/>
	</g>
	<g>
		<path d="M1041.6,578.7l0.7-0.1c0.1,0.3,0.2,0.5,0.3,0.7c0.2,0.1,0.4,0.2,0.6,0.2c0.2,0,0.4,0,0.6-0.1c0.2-0.1,0.3-0.2,0.4-0.4
			c0.1-0.2,0.2-0.4,0.3-0.7s0.1-0.6,0.1-0.9c0,0,0-0.1,0-0.1c-0.1,0.2-0.3,0.4-0.6,0.5c-0.2,0.1-0.5,0.2-0.8,0.2
			c-0.5,0-0.9-0.2-1.2-0.5s-0.5-0.8-0.5-1.4c0-0.6,0.2-1,0.5-1.4c0.3-0.4,0.8-0.5,1.3-0.5c0.4,0,0.7,0.1,1,0.3
			c0.3,0.2,0.5,0.5,0.7,0.9s0.2,0.9,0.2,1.6c0,0.7-0.1,1.3-0.2,1.7s-0.4,0.8-0.7,1s-0.7,0.3-1.1,0.3c-0.4,0-0.8-0.1-1.1-0.4
			C1041.8,579.5,1041.7,579.2,1041.6,578.7z M1044.5,576.2c0-0.4-0.1-0.7-0.3-1c-0.2-0.2-0.5-0.4-0.8-0.4c-0.3,0-0.6,0.1-0.8,0.4
			c-0.2,0.3-0.3,0.6-0.3,1c0,0.4,0.1,0.7,0.3,0.9c0.2,0.2,0.5,0.3,0.8,0.3c0.3,0,0.6-0.1,0.8-0.3
			C1044.4,576.9,1044.5,576.6,1044.5,576.2z"/>
		<path d="M1046,578.7l0.7-0.1c0.1,0.3,0.2,0.5,0.3,0.7c0.2,0.1,0.4,0.2,0.6,0.2c0.2,0,0.4,0,0.6-0.1c0.2-0.1,0.3-0.2,0.4-0.4
			c0.1-0.2,0.2-0.4,0.3-0.7s0.1-0.6,0.1-0.9c0,0,0-0.1,0-0.1c-0.1,0.2-0.3,0.4-0.6,0.5c-0.2,0.1-0.5,0.2-0.8,0.2
			c-0.5,0-0.9-0.2-1.2-0.5s-0.5-0.8-0.5-1.4c0-0.6,0.2-1,0.5-1.4c0.3-0.4,0.8-0.5,1.3-0.5c0.4,0,0.7,0.1,1,0.3
			c0.3,0.2,0.5,0.5,0.7,0.9s0.2,0.9,0.2,1.6c0,0.7-0.1,1.3-0.2,1.7s-0.4,0.8-0.7,1s-0.7,0.3-1.1,0.3c-0.4,0-0.8-0.1-1.1-0.4
			C1046.3,579.5,1046.1,579.2,1046,578.7z M1048.9,576.2c0-0.4-0.1-0.7-0.3-1c-0.2-0.2-0.5-0.4-0.8-0.4c-0.3,0-0.6,0.1-0.8,0.4
			c-0.2,0.3-0.3,0.6-0.3,1c0,0.4,0.1,0.7,0.3,0.9c0.2,0.2,0.5,0.3,0.8,0.3c0.3,0,0.6-0.1,0.8-0.3
			C1048.8,576.9,1048.9,576.6,1048.9,576.2z"/>
		<path d="M1050.5,575.1v-0.8h0.8v0.6c0,0.3,0,0.6-0.1,0.8c-0.1,0.2-0.3,0.4-0.5,0.5l-0.2-0.3c0.1-0.1,0.2-0.1,0.3-0.3
			c0.1-0.1,0.1-0.3,0.1-0.5H1050.5z"/>
		<path d="M1052.2,577.2c0-0.7,0.1-1.2,0.2-1.6c0.1-0.4,0.3-0.7,0.6-1c0.3-0.2,0.6-0.3,1-0.3c0.3,0,0.6,0.1,0.8,0.2
			c0.2,0.1,0.4,0.3,0.6,0.5c0.2,0.2,0.3,0.5,0.4,0.9c0.1,0.3,0.1,0.8,0.1,1.4c0,0.7-0.1,1.2-0.2,1.6c-0.1,0.4-0.3,0.7-0.6,1
			c-0.3,0.2-0.6,0.3-1,0.3c-0.6,0-1-0.2-1.3-0.6C1052.4,579.1,1052.2,578.3,1052.2,577.2z M1052.9,577.2c0,0.9,0.1,1.6,0.3,1.9
			c0.2,0.3,0.5,0.5,0.8,0.5s0.6-0.2,0.8-0.5s0.3-0.9,0.3-1.9c0-0.9-0.1-1.6-0.3-1.9c-0.2-0.3-0.5-0.5-0.8-0.5
			c-0.3,0-0.6,0.1-0.8,0.4C1053,575.7,1052.9,576.3,1052.9,577.2z"/>
		<path d="M1056.6,575.1v-0.8h0.8v0.6c0,0.3,0,0.6-0.1,0.8c-0.1,0.2-0.3,0.4-0.5,0.5l-0.2-0.3c0.1-0.1,0.2-0.1,0.3-0.3
			c0.1-0.1,0.1-0.3,0.1-0.5H1056.6z M1057.8,575.1v-0.8h0.8v0.6c0,0.3,0,0.6-0.1,0.8c-0.1,0.2-0.3,0.4-0.5,0.5l-0.2-0.3
			c0.1-0.1,0.2-0.1,0.3-0.3c0.1-0.1,0.1-0.3,0.1-0.5H1057.8z"/>
	</g>
	<g>
		<path d="M1044.1,511h-0.7v-4.5c-0.2,0.2-0.4,0.3-0.7,0.5c-0.3,0.2-0.5,0.3-0.7,0.4v-0.7c0.4-0.2,0.7-0.4,1-0.7
			c0.3-0.3,0.5-0.5,0.6-0.8h0.5V511z"/>
		<path d="M1048,511h-0.7v-4.5c-0.2,0.2-0.4,0.3-0.7,0.5c-0.3,0.2-0.5,0.3-0.7,0.4v-0.7c0.4-0.2,0.7-0.4,1-0.7
			c0.3-0.3,0.5-0.5,0.6-0.8h0.5V511z"/>
		<path d="M1049.8,509.5l0.7-0.1c0.1,0.4,0.2,0.6,0.4,0.8c0.2,0.2,0.4,0.3,0.7,0.3c0.3,0,0.6-0.1,0.9-0.4c0.2-0.3,0.4-0.6,0.4-1
			c0-0.4-0.1-0.7-0.3-0.9c-0.2-0.2-0.5-0.3-0.9-0.3c-0.2,0-0.4,0.1-0.6,0.2c-0.2,0.1-0.3,0.2-0.4,0.4l-0.7-0.1l0.6-2.9h2.8v0.7h-2.3
			l-0.3,1.5c0.3-0.2,0.7-0.4,1.1-0.4c0.5,0,0.9,0.2,1.3,0.5c0.3,0.3,0.5,0.8,0.5,1.3c0,0.5-0.2,1-0.5,1.3c-0.4,0.5-0.9,0.7-1.5,0.7
			c-0.5,0-0.9-0.1-1.3-0.4C1050,510.3,1049.8,509.9,1049.8,509.5z"/>
		<path d="M1054.4,506v-0.8h0.8v0.6c0,0.3,0,0.6-0.1,0.8c-0.1,0.2-0.3,0.4-0.5,0.5l-0.2-0.3c0.1-0.1,0.2-0.1,0.3-0.3
			c0.1-0.1,0.1-0.3,0.1-0.5H1054.4z"/>
		<path d="M1056,508.1c0-0.7,0.1-1.2,0.2-1.6c0.1-0.4,0.3-0.7,0.6-1c0.3-0.2,0.6-0.3,1-0.3c0.3,0,0.6,0.1,0.8,0.2
			c0.2,0.1,0.4,0.3,0.6,0.5c0.2,0.2,0.3,0.5,0.4,0.9c0.1,0.3,0.1,0.8,0.1,1.4c0,0.7-0.1,1.2-0.2,1.6c-0.1,0.4-0.3,0.7-0.6,1
			c-0.3,0.2-0.6,0.3-1,0.3c-0.6,0-1-0.2-1.3-0.6C1056.2,510,1056,509.2,1056,508.1z M1056.7,508.1c0,0.9,0.1,1.6,0.3,1.9
			c0.2,0.3,0.5,0.5,0.8,0.5s0.6-0.2,0.8-0.5s0.3-0.9,0.3-1.9c0-0.9-0.1-1.6-0.3-1.9c-0.2-0.3-0.5-0.5-0.8-0.5
			c-0.3,0-0.6,0.1-0.8,0.4C1056.9,506.5,1056.7,507.2,1056.7,508.1z"/>
		<path d="M1060.5,506v-0.8h0.8v0.6c0,0.3,0,0.6-0.1,0.8c-0.1,0.2-0.3,0.4-0.5,0.5l-0.2-0.3c0.1-0.1,0.2-0.1,0.3-0.3
			c0.1-0.1,0.1-0.3,0.1-0.5H1060.5z M1061.7,506v-0.8h0.8v0.6c0,0.3,0,0.6-0.1,0.8c-0.1,0.2-0.3,0.4-0.5,0.5l-0.2-0.3
			c0.1-0.1,0.2-0.1,0.3-0.3c0.1-0.1,0.1-0.3,0.1-0.5H1061.7z"/>
	</g>
	<g>
		<path d="M1044.1,441.8h-0.7v-4.5c-0.2,0.2-0.4,0.3-0.7,0.5c-0.3,0.2-0.5,0.3-0.7,0.4v-0.7c0.4-0.2,0.7-0.4,1-0.7
			c0.3-0.3,0.5-0.5,0.6-0.8h0.5V441.8z"/>
		<path d="M1045.9,440.3l0.7-0.1c0.1,0.4,0.2,0.7,0.4,0.9s0.4,0.3,0.7,0.3c0.3,0,0.6-0.1,0.8-0.3c0.2-0.2,0.3-0.5,0.3-0.9
			c0-0.3-0.1-0.6-0.3-0.8c-0.2-0.2-0.5-0.3-0.8-0.3c-0.1,0-0.3,0-0.5,0.1l0.1-0.6c0,0,0.1,0,0.1,0c0.3,0,0.6-0.1,0.8-0.2
			s0.4-0.4,0.4-0.7c0-0.3-0.1-0.5-0.3-0.6c-0.2-0.2-0.4-0.3-0.7-0.3c-0.3,0-0.5,0.1-0.7,0.3s-0.3,0.4-0.4,0.8l-0.7-0.1
			c0.1-0.5,0.3-0.8,0.6-1.1c0.3-0.3,0.7-0.4,1.1-0.4c0.3,0,0.6,0.1,0.9,0.2c0.3,0.1,0.5,0.3,0.6,0.5c0.1,0.2,0.2,0.5,0.2,0.7
			c0,0.2-0.1,0.5-0.2,0.7s-0.3,0.4-0.6,0.5c0.3,0.1,0.6,0.2,0.8,0.5s0.3,0.6,0.3,0.9c0,0.5-0.2,0.9-0.5,1.3s-0.8,0.5-1.4,0.5
			c-0.5,0-0.9-0.1-1.3-0.4C1046.2,441.2,1046,440.8,1045.9,440.3z"/>
		<path d="M1053,441.8h-0.7v-4.5c-0.2,0.2-0.4,0.3-0.7,0.5c-0.3,0.2-0.5,0.3-0.7,0.4v-0.7c0.4-0.2,0.7-0.4,1-0.7
			c0.3-0.3,0.5-0.5,0.6-0.8h0.5V441.8z"/>
		<path d="M1055,436.9V436h0.8v0.6c0,0.3,0,0.6-0.1,0.8c-0.1,0.2-0.3,0.4-0.5,0.5l-0.2-0.3c0.1-0.1,0.2-0.1,0.3-0.3
			c0.1-0.1,0.1-0.3,0.1-0.5H1055z"/>
		<path d="M1056.6,439c0-0.7,0.1-1.2,0.2-1.6c0.1-0.4,0.3-0.7,0.6-1c0.3-0.2,0.6-0.3,1-0.3c0.3,0,0.6,0.1,0.8,0.2
			c0.2,0.1,0.4,0.3,0.6,0.5c0.2,0.2,0.3,0.5,0.4,0.9c0.1,0.3,0.1,0.8,0.1,1.4c0,0.7-0.1,1.2-0.2,1.6c-0.1,0.4-0.3,0.7-0.6,1
			c-0.3,0.2-0.6,0.3-1,0.3c-0.6,0-1-0.2-1.3-0.6C1056.8,440.9,1056.6,440.1,1056.6,439z M1057.3,439c0,0.9,0.1,1.6,0.3,1.9
			c0.2,0.3,0.5,0.5,0.8,0.5s0.6-0.2,0.8-0.5s0.3-0.9,0.3-1.9c0-0.9-0.1-1.6-0.3-1.9c-0.2-0.3-0.5-0.5-0.8-0.5
			c-0.3,0-0.6,0.1-0.8,0.4C1057.5,437.4,1057.3,438.1,1057.3,439z"/>
		<path d="M1061.1,436.9V436h0.8v0.6c0,0.3,0,0.6-0.1,0.8c-0.1,0.2-0.3,0.4-0.5,0.5l-0.2-0.3c0.1-0.1,0.2-0.1,0.3-0.3
			c0.1-0.1,0.1-0.3,0.1-0.5H1061.1z M1062.3,436.9V436h0.8v0.6c0,0.3,0,0.6-0.1,0.8c-0.1,0.2-0.3,0.4-0.5,0.5l-0.2-0.3
			c0.1-0.1,0.2-0.1,0.3-0.3c0.1-0.1,0.1-0.3,0.1-0.5H1062.3z"/>
	</g>
	<g>
		<path d="M1044.1,372.7h-0.7v-4.5c-0.2,0.2-0.4,0.3-0.7,0.5c-0.3,0.2-0.5,0.3-0.7,0.4v-0.7c0.4-0.2,0.7-0.4,1-0.7
			c0.3-0.3,0.5-0.5,0.6-0.8h0.5V372.7z"/>
		<path d="M1048.2,372.7v-1.4h-2.5v-0.6l2.6-3.7h0.6v3.7h0.8v0.6h-0.8v1.4H1048.2z M1048.2,370.7v-2.6l-1.8,2.6H1048.2z"/>
		<path d="M1050.4,367.7v-0.7h3.7v0.5c-0.4,0.4-0.7,0.9-1.1,1.5c-0.4,0.6-0.6,1.3-0.8,2c-0.1,0.5-0.2,1-0.3,1.6h-0.7
			c0-0.5,0.1-1,0.3-1.6c0.2-0.6,0.4-1.3,0.7-1.8c0.3-0.6,0.7-1.1,1-1.5H1050.4z"/>
		<path d="M1055,367.7v-0.8h0.8v0.6c0,0.3,0,0.6-0.1,0.8c-0.1,0.2-0.3,0.4-0.5,0.5l-0.2-0.3c0.1-0.1,0.2-0.1,0.3-0.3
			c0.1-0.1,0.1-0.3,0.1-0.5H1055z"/>
		<path d="M1056.6,369.9c0-0.7,0.1-1.2,0.2-1.6c0.1-0.4,0.3-0.7,0.6-1c0.3-0.2,0.6-0.3,1-0.3c0.3,0,0.6,0.1,0.8,0.2
			c0.2,0.1,0.4,0.3,0.6,0.5c0.2,0.2,0.3,0.5,0.4,0.9c0.1,0.3,0.1,0.8,0.1,1.4c0,0.7-0.1,1.2-0.2,1.6c-0.1,0.4-0.3,0.7-0.6,1
			c-0.3,0.2-0.6,0.3-1,0.3c-0.6,0-1-0.2-1.3-0.6C1056.8,371.7,1056.6,371,1056.6,369.9z M1057.3,369.9c0,0.9,0.1,1.6,0.3,1.9
			c0.2,0.3,0.5,0.5,0.8,0.5s0.6-0.2,0.8-0.5s0.3-0.9,0.3-1.9c0-0.9-0.1-1.6-0.3-1.9c-0.2-0.3-0.5-0.5-0.8-0.5
			c-0.3,0-0.6,0.1-0.8,0.4C1057.5,368.3,1057.3,368.9,1057.3,369.9z"/>
		<path d="M1061.1,367.7v-0.8h0.8v0.6c0,0.3,0,0.6-0.1,0.8c-0.1,0.2-0.3,0.4-0.5,0.5l-0.2-0.3c0.1-0.1,0.2-0.1,0.3-0.3
			c0.1-0.1,0.1-0.3,0.1-0.5H1061.1z M1062.3,367.7v-0.8h0.8v0.6c0,0.3,0,0.6-0.1,0.8c-0.1,0.2-0.3,0.4-0.5,0.5l-0.2-0.3
			c0.1-0.1,0.2-0.1,0.3-0.3c0.1-0.1,0.1-0.3,0.1-0.5H1062.3z"/>
	</g>
	<path d="M1013.7,270.2c0,1.5,0.5,2.4,1.6,3.4c0.5,0.4,1.1,0.7,1.7,0.8c0.3,0.1,0.6,0.1,0.9,0.1c0.3,0,0.1-0.3,0.1-0.4
		c0-0.2,0-0.3,0-0.5c0-0.6,0-1.3,0-1.9c0-0.3,0-0.6,0-1c0-0.2,0-0.3,0-0.5c0-0.1-0.1,0-0.2,0c-0.1,0-0.2,0-0.2,0
		C1016.3,270.2,1015,270.2,1013.7,270.2z"/>
	<path d="M1022.3,270.2c0-1.5-0.5-2.4-1.6-3.4c-0.5-0.4-1.1-0.7-1.7-0.8c-0.3-0.1-0.6-0.1-0.9-0.1c-0.3,0-0.1,0.3-0.1,0.4
		c0,0.2,0,0.3,0,0.5c0,0.6,0,1.3,0,1.9c0,0.3,0,0.6,0,1c0,0.2,0,0.3,0,0.5c0,0.1,0.1,0,0.2,0c0.1,0,0.2,0,0.2,0
		C1019.8,270.2,1021,270.2,1022.3,270.2z"/>
	<path class="st3" d="M1018,274.5c2.4,0,4.3-1.9,4.3-4.3"/>
	<path class="st3" d="M1018,265.9c-2.4,0-4.3,1.9-4.3,4.3"/>
	<line class="st3" x1="1026.7" y1="270.2" x2="1022.3" y2="270.2"/>
	<line class="st3" x1="1018" y1="265.9" x2="1018" y2="261.6"/>
	<line class="st3" x1="1018" y1="278.9" x2="1018" y2="274.5"/>
	<line class="st3" x1="1013.7" y1="270.2" x2="1009.4" y2="270.2"/>
	<g>
		<path d="M1044.1,270.2h-0.7v-4.5c-0.2,0.2-0.4,0.3-0.7,0.5c-0.3,0.2-0.5,0.3-0.7,0.4v-0.7c0.4-0.2,0.7-0.4,1-0.7
			c0.3-0.3,0.5-0.5,0.6-0.8h0.5V270.2z"/>
		<path d="M1046,265.3v-0.7h3.7v0.5c-0.4,0.4-0.7,0.9-1.1,1.5c-0.4,0.6-0.6,1.3-0.8,2c-0.1,0.5-0.2,1-0.3,1.6h-0.7
			c0-0.5,0.1-1,0.3-1.6c0.2-0.6,0.4-1.3,0.7-1.8c0.3-0.6,0.7-1.1,1-1.5H1046z"/>
		<path d="M1053,270.2h-0.7v-4.5c-0.2,0.2-0.4,0.3-0.7,0.5c-0.3,0.2-0.5,0.3-0.7,0.4v-0.7c0.4-0.2,0.7-0.4,1-0.7
			c0.3-0.3,0.5-0.5,0.6-0.8h0.5V270.2z"/>
		<path d="M1055,265.3v-0.8h0.8v0.6c0,0.3,0,0.6-0.1,0.8c-0.1,0.2-0.3,0.4-0.5,0.5l-0.2-0.3c0.1-0.1,0.2-0.1,0.3-0.3
			c0.1-0.1,0.1-0.3,0.1-0.5H1055z"/>
		<path d="M1056.6,267.4c0-0.7,0.1-1.2,0.2-1.6c0.1-0.4,0.3-0.7,0.6-1c0.3-0.2,0.6-0.3,1-0.3c0.3,0,0.6,0.1,0.8,0.2
			c0.2,0.1,0.4,0.3,0.6,0.5c0.2,0.2,0.3,0.5,0.4,0.9c0.1,0.3,0.1,0.8,0.1,1.4c0,0.7-0.1,1.2-0.2,1.6c-0.1,0.4-0.3,0.7-0.6,1
			c-0.3,0.2-0.6,0.3-1,0.3c-0.6,0-1-0.2-1.3-0.6C1056.8,269.3,1056.6,268.5,1056.6,267.4z M1057.3,267.4c0,0.9,0.1,1.6,0.3,1.9
			c0.2,0.3,0.5,0.5,0.8,0.5s0.6-0.2,0.8-0.5s0.3-0.9,0.3-1.9c0-0.9-0.1-1.6-0.3-1.9c-0.2-0.3-0.5-0.5-0.8-0.5
			c-0.3,0-0.6,0.1-0.8,0.4C1057.5,265.8,1057.3,266.5,1057.3,267.4z"/>
		<path d="M1061.1,265.3v-0.8h0.8v0.6c0,0.3,0,0.6-0.1,0.8c-0.1,0.2-0.3,0.4-0.5,0.5l-0.2-0.3c0.1-0.1,0.2-0.1,0.3-0.3
			c0.1-0.1,0.1-0.3,0.1-0.5H1061.1z M1062.3,265.3v-0.8h0.8v0.6c0,0.3,0,0.6-0.1,0.8c-0.1,0.2-0.3,0.4-0.5,0.5l-0.2-0.3
			c0.1-0.1,0.2-0.1,0.3-0.3c0.1-0.1,0.1-0.3,0.1-0.5H1062.3z"/>
	</g>
	<rect x="258" y="270.3" class="st6" width="737.5" height="737.5"/>
	<line class="st0" x1="214.8" y1="1007.8" x2="1038.7" y2="1007.8"/>
	<path d="M1013.6,787.4c0,1.5,0.5,2.4,1.6,3.4c0.5,0.4,1.1,0.7,1.7,0.8c0.3,0.1,0.6,0.1,0.9,0.1c0.3,0,0.1-0.3,0.1-0.4
		c0-0.2,0-0.3,0-0.5c0-0.6,0-1.3,0-1.9c0-0.3,0-0.6,0-1c0-0.2,0-0.3,0-0.5c0-0.1-0.1,0-0.2,0c-0.1,0-0.2,0-0.2,0
		C1016.2,787.4,1014.9,787.4,1013.6,787.4z"/>
	<path d="M1013.6,441.8c0,1.5,0.5,2.4,1.6,3.4c0.5,0.4,1.1,0.7,1.7,0.8c0.3,0.1,0.6,0.1,0.9,0.1c0.3,0,0.1-0.3,0.1-0.4
		c0-0.2,0-0.3,0-0.5c0-0.6,0-1.3,0-1.9c0-0.3,0-0.6,0-1c0-0.2,0-0.3,0-0.5c0-0.1-0.1,0-0.2,0c-0.1,0-0.2,0-0.2,0
		C1016.2,441.8,1014.9,441.8,1013.6,441.8z"/>
	<path d="M1022.3,649.2c0-1.5-0.5-2.4-1.6-3.4c-0.5-0.4-1.1-0.7-1.7-0.8c-0.3-0.1-0.6-0.1-0.9-0.1c-0.3,0-0.1,0.3-0.1,0.4
		c0,0.2,0,0.3,0,0.5c0,0.6,0,1.3,0,1.9c0,0.3,0,0.6,0,1c0,0.2,0,0.3,0,0.5c0,0.1,0.1,0,0.2,0c0.1,0,0.2,0,0.2,0
		C1019.7,649.2,1021,649.2,1022.3,649.2z"/>
	<path d="M1013.6,511c0,1.5,0.5,2.4,1.6,3.4c0.5,0.4,1.1,0.7,1.7,0.8c0.3,0.1,0.6,0.1,0.9,0.1c0.3,0,0.1-0.3,0.1-0.4
		c0-0.2,0-0.3,0-0.5c0-0.6,0-1.3,0-1.9c0-0.3,0-0.6,0-1c0-0.2,0-0.3,0-0.5c0-0.1-0.1,0-0.2,0c-0.1,0-0.2,0-0.2,0
		C1016.2,511,1014.9,511,1013.6,511z"/>
	<path d="M1022.3,441.8c0-1.5-0.5-2.4-1.6-3.4c-0.5-0.4-1.1-0.7-1.7-0.8c-0.3-0.1-0.6-0.1-0.9-0.1c-0.3,0-0.1,0.3-0.1,0.4
		c0,0.2,0,0.3,0,0.5c0,0.6,0,1.3,0,1.9c0,0.3,0,0.6,0,1c0,0.2,0,0.3,0,0.5c0,0.1,0.1,0,0.2,0c0.1,0,0.2,0,0.2,0
		C1019.7,441.8,1021,441.8,1022.3,441.8z"/>
	<path d="M1022.3,511c0-1.5-0.5-2.4-1.6-3.4c-0.5-0.4-1.1-0.7-1.7-0.8c-0.3-0.1-0.6-0.1-0.9-0.1c-0.3,0-0.1,0.3-0.1,0.4
		c0,0.2,0,0.3,0,0.5c0,0.6,0,1.3,0,1.9c0,0.3,0,0.6,0,1c0,0.2,0,0.3,0,0.5c0,0.1,0.1,0,0.2,0c0.1,0,0.2,0,0.2,0
		C1019.7,511,1021,511,1022.3,511z"/>
	<path d="M1022.3,718.3c0-1.5-0.5-2.4-1.6-3.4c-0.5-0.4-1.1-0.7-1.7-0.8c-0.3-0.1-0.6-0.1-0.9-0.1c-0.3,0-0.1,0.3-0.1,0.4
		c0,0.2,0,0.3,0,0.5c0,0.6,0,1.3,0,1.9c0,0.3,0,0.6,0,1c0,0.2,0,0.3,0,0.5c0,0.1,0.1,0,0.2,0c0.1,0,0.2,0,0.2,0
		C1019.7,718.3,1021,718.3,1022.3,718.3z"/>
	<path d="M1013.6,372.7c0,1.5,0.5,2.4,1.6,3.4c0.5,0.4,1.1,0.7,1.7,0.8c0.3,0.1,0.6,0.1,0.9,0.1c0.3,0,0.1-0.3,0.1-0.4
		c0-0.2,0-0.3,0-0.5c0-0.6,0-1.3,0-1.9c0-0.3,0-0.6,0-1c0-0.2,0-0.3,0-0.5c0-0.1-0.1,0-0.2,0c-0.1,0-0.2,0-0.2,0
		C1016.2,372.7,1014.9,372.7,1013.6,372.7z"/>
	<path d="M1022.3,372.7c0-1.5-0.5-2.4-1.6-3.4c-0.5-0.4-1.1-0.7-1.7-0.8c-0.3-0.1-0.6-0.1-0.9-0.1c-0.3,0-0.1,0.3-0.1,0.4
		c0,0.2,0,0.3,0,0.5c0,0.6,0,1.3,0,1.9c0,0.3,0,0.6,0,1c0,0.2,0,0.3,0,0.5c0,0.1,0.1,0,0.2,0c0.1,0,0.2,0,0.2,0
		C1019.7,372.7,1021,372.7,1022.3,372.7z"/>
	<path d="M1022.3,580.1c0-1.5-0.5-2.4-1.6-3.4c-0.5-0.4-1.1-0.7-1.7-0.8c-0.3-0.1-0.6-0.1-0.9-0.1c-0.3,0-0.1,0.3-0.1,0.4
		c0,0.2,0,0.3,0,0.5c0,0.6,0,1.3,0,1.9c0,0.3,0,0.6,0,1c0,0.2,0,0.3,0,0.5c0,0.1,0.1,0,0.2,0c0.1,0,0.2,0,0.2,0
		C1019.7,580.1,1021,580.1,1022.3,580.1z"/>
	<path d="M1013.6,580.1c0,1.5,0.5,2.4,1.6,3.4c0.5,0.4,1.1,0.7,1.7,0.8c0.3,0.1,0.6,0.1,0.9,0.1c0.3,0,0.1-0.3,0.1-0.4
		c0-0.2,0-0.3,0-0.5c0-0.6,0-1.3,0-1.9c0-0.3,0-0.6,0-1c0-0.2,0-0.3,0-0.5c0-0.1-0.1,0-0.2,0c-0.1,0-0.2,0-0.2,0
		C1016.2,580.1,1014.9,580.1,1013.6,580.1z"/>
	<path d="M1013.6,718.3c0,1.5,0.5,2.4,1.6,3.4c0.5,0.4,1.1,0.7,1.7,0.8c0.3,0.1,0.6,0.1,0.9,0.1c0.3,0,0.1-0.3,0.1-0.4
		c0-0.2,0-0.3,0-0.5c0-0.6,0-1.3,0-1.9c0-0.3,0-0.6,0-1c0-0.2,0-0.3,0-0.5c0-0.1-0.1,0-0.2,0c-0.1,0-0.2,0-0.2,0
		C1016.2,718.3,1014.9,718.3,1013.6,718.3z"/>
	<path d="M1013.6,649.2c0,1.5,0.5,2.4,1.6,3.4c0.5,0.4,1.1,0.7,1.7,0.8c0.3,0.1,0.6,0.1,0.9,0.1c0.3,0,0.1-0.3,0.1-0.4
		c0-0.2,0-0.3,0-0.5c0-0.6,0-1.3,0-1.9c0-0.3,0-0.6,0-1c0-0.2,0-0.3,0-0.5c0-0.1-0.1,0-0.2,0c-0.1,0-0.2,0-0.2,0
		C1016.2,649.2,1014.9,649.2,1013.6,649.2z"/>
	<path d="M1022.3,787.4c0-1.5-0.5-2.4-1.6-3.4c-0.5-0.4-1.1-0.7-1.7-0.8c-0.3-0.1-0.6-0.1-0.9-0.1c-0.3,0-0.1,0.3-0.1,0.4
		c0,0.2,0,0.3,0,0.5c0,0.6,0,1.3,0,1.9c0,0.3,0,0.6,0,1c0,0.2,0,0.3,0,0.5c0,0.1,0.1,0,0.2,0c0.1,0,0.2,0,0.2,0
		C1019.7,787.4,1021,787.4,1022.3,787.4z"/>
	<path d="M1022.3,1007.8c0-1.5-0.5-2.4-1.6-3.4c-0.5-0.4-1.1-0.7-1.7-0.8c-0.3-0.1-0.6-0.1-0.9-0.1c-0.3,0-0.1,0.3-0.1,0.4
		c0,0.2,0,0.3,0,0.5c0,0.6,0,1.3,0,1.9c0,0.3,0,0.6,0,1c0,0.2,0,0.3,0,0.5c0,0.1,0.1,0,0.2,0c0.1,0,0.2,0,0.2,0
		C1019.7,1007.8,1021,1007.8,1022.3,1007.8z"/>
	<path d="M1013.6,1007.8c0,1.5,0.5,2.4,1.6,3.4c0.5,0.4,1.1,0.7,1.7,0.8c0.3,0.1,0.6,0.1,0.9,0.1c0.3,0,0.1-0.3,0.1-0.4
		c0-0.2,0-0.3,0-0.5c0-0.6,0-1.3,0-1.9c0-0.3,0-0.6,0-1c0-0.2,0-0.3,0-0.5c0-0.1-0.1,0-0.2,0c-0.1,0-0.2,0-0.2,0
		C1016.2,1007.8,1014.9,1007.8,1013.6,1007.8z"/>
	<path class="st3" d="M1018,368.4c-2.4,0-4.3,1.9-4.3,4.3"/>
	<path class="st3" d="M1018,377c2.4,0,4.3-1.9,4.3-4.3"/>
	<path class="st3" d="M1018,446.2c2.4,0,4.3-1.9,4.3-4.3"/>
	<path class="st3" d="M1018,1012.1c2.4,0,4.3-1.9,4.3-4.3"/>
	<path class="st3" d="M1018,1003.4c-2.4,0-4.3,1.9-4.3,4.3"/>
	<line class="st3" x1="1026.6" y1="1007.8" x2="1022.3" y2="1007.8"/>
	<line class="st3" x1="1018" y1="1003.4" x2="1018" y2="999.1"/>
	<line class="st3" x1="1013.6" y1="511" x2="1009.3" y2="511"/>
	<line class="st3" x1="1018" y1="1016.4" x2="1018" y2="1012.1"/>
	<line class="st3" x1="1018" y1="519.6" x2="1018" y2="515.3"/>
	<line class="st3" x1="1018" y1="506.6" x2="1018" y2="502.3"/>
	<line class="st3" x1="1013.6" y1="1007.8" x2="1009.3" y2="1007.8"/>
	<line class="st3" x1="1026.6" y1="511" x2="1022.3" y2="511"/>
	<path class="st3" d="M1018,506.6c-2.4,0-4.3,1.9-4.3,4.3"/>
	<line class="st3" x1="1013.6" y1="372.7" x2="1009.3" y2="372.7"/>
	<path class="st3" d="M1018,515.3c2.4,0,4.3-1.9,4.3-4.3"/>
	<line class="st3" x1="1018" y1="381.4" x2="1018" y2="377"/>
	<line class="st3" x1="1013.6" y1="649.2" x2="1009.3" y2="649.2"/>
	<line class="st3" x1="1018" y1="368.4" x2="1018" y2="364.1"/>
	<line class="st3" x1="1018" y1="657.8" x2="1018" y2="653.5"/>
	<line class="st3" x1="1026.6" y1="372.7" x2="1022.3" y2="372.7"/>
	<line class="st3" x1="1018" y1="644.9" x2="1018" y2="640.6"/>
	<line class="st3" x1="1026.6" y1="649.2" x2="1022.3" y2="649.2"/>
	<path class="st3" d="M1018,644.9c-2.4,0-4.3,1.9-4.3,4.3"/>
	<path class="st3" d="M1018,653.5c2.4,0,4.3-1.9,4.3-4.3"/>
	<line class="st3" x1="1013.6" y1="787.4" x2="1009.3" y2="787.4"/>
	<line class="st3" x1="1018" y1="796.1" x2="1018" y2="791.8"/>
	<line class="st3" x1="1018" y1="783.1" x2="1018" y2="778.8"/>
	<line class="st3" x1="1026.6" y1="787.4" x2="1022.3" y2="787.4"/>
	<path class="st3" d="M1018,783.1c-2.4,0-4.3,1.9-4.3,4.3"/>
	<path class="st3" d="M1018,791.8c2.4,0,4.3-1.9,4.3-4.3"/>
	<path class="st3" d="M1018,722.6c2.4,0,4.3-1.9,4.3-4.3"/>
	<path class="st3" d="M1018,714c-2.4,0-4.3,1.9-4.3,4.3"/>
	<line class="st3" x1="1026.6" y1="718.3" x2="1022.3" y2="718.3"/>
	<line class="st3" x1="1018" y1="714" x2="1018" y2="709.7"/>
	<line class="st3" x1="1018" y1="727" x2="1018" y2="722.6"/>
	<line class="st3" x1="1013.6" y1="718.3" x2="1009.3" y2="718.3"/>
	<line class="st3" x1="1013.6" y1="580.1" x2="1009.3" y2="580.1"/>
	<line class="st3" x1="1018" y1="588.7" x2="1018" y2="584.4"/>
	<line class="st3" x1="1018" y1="575.8" x2="1018" y2="571.4"/>
	<line class="st3" x1="1026.6" y1="580.1" x2="1022.3" y2="580.1"/>
	<path class="st3" d="M1018,575.8c-2.4,0-4.3,1.9-4.3,4.3"/>
	<path class="st3" d="M1018,584.4c2.4,0,4.3-1.9,4.3-4.3"/>
	<line class="st3" x1="1013.6" y1="441.8" x2="1009.3" y2="441.8"/>
	<line class="st3" x1="1018" y1="450.5" x2="1018" y2="446.2"/>
	<line class="st3" x1="1018" y1="437.5" x2="1018" y2="433.2"/>
	<line class="st3" x1="1026.6" y1="441.8" x2="1022.3" y2="441.8"/>
	<path class="st3" d="M1018,437.5c-2.4,0-4.3,1.9-4.3,4.3"/>
	<line class="st4" x1="966.3" y1="584.4" x2="987.9" y2="584.4"/>
	<line class="st4" x1="677.1" y1="372.7" x2="692.9" y2="372.7"/>
	<line class="st4" x1="966.3" y1="372.7" x2="987.9" y2="372.7"/>
	<line class="st4" x1="339.4" y1="446.2" x2="361" y2="446.2"/>
	<line class="st4" x1="302.5" y1="446.2" x2="324.1" y2="446.2"/>
	<line class="st4" x1="265.7" y1="446.2" x2="287.3" y2="446.2"/>
	<line class="st4" x1="287.3" y1="441.8" x2="265.7" y2="441.8"/>
	<line class="st4" x1="324.1" y1="441.8" x2="302.5" y2="441.8"/>
	<line class="st4" x1="361" y1="441.8" x2="339.4" y2="441.8"/>
	<line class="st4" x1="397.9" y1="441.8" x2="376.3" y2="441.8"/>
	<line class="st4" x1="987.9" y1="580.1" x2="966.3" y2="580.1"/>
	<line class="st4" x1="929.4" y1="584.4" x2="951" y2="584.4"/>
	<line class="st4" x1="892.5" y1="584.4" x2="914.1" y2="584.4"/>
	<line class="st4" x1="855.6" y1="584.4" x2="877.2" y2="584.4"/>
	<line class="st4" x1="671.3" y1="372.7" x2="677.1" y2="372.7"/>
	<line class="st4" x1="634.4" y1="372.7" x2="656" y2="372.7"/>
	<line class="st4" x1="597.5" y1="372.7" x2="619.1" y2="372.7"/>
	<line class="st4" x1="560.6" y1="372.7" x2="582.2" y2="372.7"/>
	<line class="st4" x1="523.8" y1="372.7" x2="545.4" y2="372.7"/>
	<line class="st4" x1="486.9" y1="372.7" x2="508.5" y2="372.7"/>
	<line class="st4" x1="450" y1="372.7" x2="471.6" y2="372.7"/>
	<line class="st4" x1="413.2" y1="372.7" x2="434.8" y2="372.7"/>
	<line class="st4" x1="376.3" y1="372.7" x2="397.9" y2="372.7"/>
	<line class="st4" x1="339.4" y1="372.7" x2="361" y2="372.7"/>
	<line class="st4" x1="951" y1="580.1" x2="929.4" y2="580.1"/>
	<line class="st4" x1="302.5" y1="372.7" x2="324.1" y2="372.7"/>
	<line class="st4" x1="265.7" y1="372.7" x2="287.3" y2="372.7"/>
	<line class="st4" x1="781.9" y1="372.7" x2="797.1" y2="372.7"/>
	<line class="st4" x1="745" y1="372.7" x2="766.6" y2="372.7"/>
	<line class="st4" x1="708.1" y1="372.7" x2="729.7" y2="372.7"/>
	<line class="st4" x1="929.4" y1="372.7" x2="951" y2="372.7"/>
	<line class="st4" x1="877.2" y1="511" x2="864.7" y2="511"/>
	<line class="st4" x1="864" y1="515.3" x2="877.2" y2="515.3"/>
	<line class="st4" x1="892.5" y1="372.7" x2="914.1" y2="372.7"/>
	<line class="st4" x1="840.3" y1="653.5" x2="840.4" y2="653.5"/>
	<line class="st4" x1="855.6" y1="372.7" x2="877.2" y2="372.7"/>
	<line class="st4" x1="828.4" y1="722.6" x2="840.4" y2="722.6"/>
	<line class="st4" x1="818.8" y1="372.7" x2="840.4" y2="372.7"/>
	<line class="st4" x1="797.1" y1="372.7" x2="803.5" y2="372.7"/>
	<line class="st4" x1="486.9" y1="446.2" x2="491.9" y2="446.2"/>
	<line class="st4" x1="914.1" y1="580.1" x2="892.5" y2="580.1"/>
	<line class="st4" x1="877.2" y1="580.1" x2="855.6" y2="580.1"/>
	<line class="st4" x1="434.8" y1="441.8" x2="413.2" y2="441.8"/>
	<line class="st4" x1="471.6" y1="441.8" x2="450" y2="441.8"/>
	<line class="st4" x1="508.5" y1="441.8" x2="486.9" y2="441.8"/>
	<line class="st4" x1="857.1" y1="722.6" x2="877.2" y2="722.6"/>
	<line class="st4" x1="892.5" y1="722.6" x2="914.1" y2="722.6"/>
	<line class="st4" x1="892.5" y1="515.3" x2="914.1" y2="515.3"/>
	<line class="st4" x1="914.1" y1="441.8" x2="892.5" y2="441.8"/>
	<line class="st4" x1="951" y1="441.8" x2="929.4" y2="441.8"/>
	<line class="st4" x1="987.9" y1="441.8" x2="966.3" y2="441.8"/>
	<line class="st4" x1="966.3" y1="446.2" x2="987.9" y2="446.2"/>
	<line class="st4" x1="877.2" y1="649.2" x2="855.6" y2="649.2"/>
	<line class="st4" x1="914.1" y1="649.2" x2="892.5" y2="649.2"/>
	<line class="st4" x1="951" y1="649.2" x2="929.4" y2="649.2"/>
	<line class="st4" x1="987.9" y1="649.2" x2="966.3" y2="649.2"/>
	<line class="st4" x1="966.3" y1="653.5" x2="987.9" y2="653.5"/>
	<line class="st4" x1="929.4" y1="653.5" x2="951" y2="653.5"/>
	<line class="st4" x1="892.5" y1="653.5" x2="914.1" y2="653.5"/>
	<line class="st4" x1="855.6" y1="653.5" x2="877.2" y2="653.5"/>
	<line class="st4" x1="929.4" y1="446.2" x2="951" y2="446.2"/>
	<line class="st4" x1="892.5" y1="446.2" x2="914.1" y2="446.2"/>
	<line class="st4" x1="914.1" y1="511" x2="892.5" y2="511"/>
	<line class="st4" x1="951" y1="511" x2="929.4" y2="511"/>
	<line class="st4" x1="987.9" y1="511" x2="966.3" y2="511"/>
	<line class="st4" x1="929.4" y1="722.6" x2="951" y2="722.6"/>
	<line class="st4" x1="966.3" y1="722.6" x2="987.9" y2="722.6"/>
	<line class="st4" x1="855.6" y1="722.6" x2="857.1" y2="722.6"/>
	<line class="st4" x1="966.3" y1="515.3" x2="987.9" y2="515.3"/>
	<line class="st4" x1="929.4" y1="515.3" x2="951" y2="515.3"/>
	<line class="st4" x1="450" y1="446.2" x2="471.6" y2="446.2"/>
	<line class="st4" x1="413.2" y1="446.2" x2="434.8" y2="446.2"/>
	<line class="st4" x1="376.3" y1="446.2" x2="397.9" y2="446.2"/>
	<line class="st6" x1="339.4" y1="653.5" x2="361" y2="653.5"/>
	<line class="st6" x1="302.5" y1="653.5" x2="324.1" y2="653.5"/>
	<line class="st6" x1="396.3" y1="653.5" x2="397.9" y2="653.5"/>
	<line class="st6" x1="265.7" y1="653.5" x2="287.3" y2="653.5"/>
	<line class="st6" x1="287.3" y1="649.2" x2="265.7" y2="649.2"/>
	<line class="st6" x1="324.1" y1="649.2" x2="302.5" y2="649.2"/>
	<line class="st6" x1="361" y1="649.2" x2="339.4" y2="649.2"/>
	<line class="st6" x1="397.9" y1="649.2" x2="376.3" y2="649.2"/>
	<line class="st6" x1="324.1" y1="722.6" x2="327.1" y2="722.6"/>
	<line class="st6" x1="302.5" y1="722.6" x2="324.1" y2="722.6"/>
	<line class="st6" x1="265.7" y1="722.6" x2="287.3" y2="722.6"/>
	<line class="st6" x1="413.2" y1="653.5" x2="425.3" y2="653.5"/>
	<line class="st6" x1="376.3" y1="722.6" x2="397.9" y2="722.6"/>
	<line class="st6" x1="413.2" y1="722.6" x2="434.8" y2="722.6"/>
	<line class="st6" x1="302.5" y1="584.4" x2="324.1" y2="584.4"/>
	<line class="st6" x1="265.7" y1="584.4" x2="287.3" y2="584.4"/>
	<line class="st6" x1="287.3" y1="580.1" x2="265.7" y2="580.1"/>
	<line class="st6" x1="324.1" y1="580.1" x2="302.5" y2="580.1"/>
	<line class="st6" x1="339.4" y1="584.4" x2="356.1" y2="584.4"/>
	<line class="st6" x1="420.9" y1="649.2" x2="413.2" y2="649.2"/>
	<line class="st6" x1="265.7" y1="515.3" x2="287" y2="515.3"/>
	<line class="st6" x1="282.7" y1="511" x2="265.7" y2="511"/>
	<line class="st6" x1="351.8" y1="580.1" x2="339.4" y2="580.1"/>
	<line class="st6" x1="450" y1="722.6" x2="471.6" y2="722.6"/>
	<line class="st6" x1="339.4" y1="722.6" x2="361" y2="722.6"/>
	<line class="st6" x1="376.3" y1="653.5" x2="396.3" y2="653.5"/>
	<line class="st6" x1="486.9" y1="722.6" x2="494.4" y2="722.6"/>
	<line class="st7" x1="781.9" y1="653.5" x2="803.5" y2="653.5"/>
	<line class="st7" x1="745" y1="722.6" x2="766.6" y2="722.6"/>
	<line class="st7" x1="708.1" y1="722.6" x2="729.7" y2="722.6"/>
	<line class="st7" x1="671.3" y1="722.6" x2="692.9" y2="722.6"/>
	<line class="st7" x1="560.6" y1="722.6" x2="582.2" y2="722.6"/>
	<line class="st7" x1="523.8" y1="722.6" x2="545.4" y2="722.6"/>
	<line class="st7" x1="833.4" y1="584.4" x2="840.4" y2="584.4"/>
	<line class="st7" x1="832.6" y1="580.1" x2="840.4" y2="580.1"/>
	<line class="st7" x1="603.6" y1="446.2" x2="619.1" y2="446.2"/>
	<line class="st7" x1="607.9" y1="441.8" x2="619.1" y2="441.8"/>
	<line class="st7" x1="465.4" y1="584.4" x2="450" y2="584.4"/>
	<line class="st7" x1="469.7" y1="580.1" x2="450" y2="580.1"/>
	<line class="st7" x1="634.4" y1="446.2" x2="656" y2="446.2"/>
	<line class="st7" x1="656" y1="441.8" x2="634.4" y2="441.8"/>
	<line class="st7" x1="634.4" y1="515.3" x2="656" y2="515.3"/>
	<line class="st7" x1="597.5" y1="515.3" x2="619.1" y2="515.3"/>
	<line class="st7" x1="619.1" y1="511" x2="597.5" y2="511"/>
	<line class="st7" x1="656" y1="511" x2="634.4" y2="511"/>
	<line class="st7" x1="634.4" y1="584.4" x2="656" y2="584.4"/>
	<line class="st7" x1="597.5" y1="584.4" x2="619.1" y2="584.4"/>
	<line class="st7" x1="619.1" y1="580.1" x2="597.5" y2="580.1"/>
	<line class="st7" x1="656" y1="580.1" x2="634.4" y2="580.1"/>
	<line class="st7" x1="634.4" y1="653.5" x2="656" y2="653.5"/>
	<line class="st7" x1="597.5" y1="653.5" x2="619.1" y2="653.5"/>
	<line class="st7" x1="619.1" y1="649.2" x2="597.5" y2="649.2"/>
	<line class="st7" x1="656" y1="649.2" x2="634.4" y2="649.2"/>
	<line class="st7" x1="634.4" y1="722.6" x2="656" y2="722.6"/>
	<line class="st7" x1="597.5" y1="722.6" x2="619.1" y2="722.6"/>
	<line class="st7" x1="781.9" y1="446.2" x2="803.5" y2="446.2"/>
	<line class="st7" x1="745" y1="446.2" x2="766.6" y2="446.2"/>
	<line class="st7" x1="708.1" y1="446.2" x2="729.7" y2="446.2"/>
	<line class="st7" x1="671.3" y1="446.2" x2="692.9" y2="446.2"/>
	<line class="st7" x1="840.4" y1="441.8" x2="818.8" y2="441.8"/>
	<line class="st7" x1="877.2" y1="441.8" x2="855.6" y2="441.8"/>
	<line class="st7" x1="855.6" y1="446.2" x2="877.2" y2="446.2"/>
	<line class="st7" x1="818.8" y1="446.2" x2="840.4" y2="446.2"/>
	<line class="st7" x1="692.9" y1="441.8" x2="671.3" y2="441.8"/>
	<line class="st7" x1="729.7" y1="441.8" x2="708.1" y2="441.8"/>
	<line class="st7" x1="766.6" y1="441.8" x2="745" y2="441.8"/>
	<line class="st7" x1="803.5" y1="441.8" x2="781.9" y2="441.8"/>
	<line class="st7" x1="597.5" y1="446.2" x2="603.6" y2="446.2"/>
	<line class="st7" x1="560.6" y1="446.2" x2="582.2" y2="446.2"/>
	<line class="st7" x1="523.8" y1="446.2" x2="545.4" y2="446.2"/>
	<line class="st7" x1="545.4" y1="441.8" x2="523.8" y2="441.8"/>
	<line class="st7" x1="582.2" y1="441.8" x2="560.6" y2="441.8"/>
	<line class="st7" x1="607.9" y1="441.8" x2="597.5" y2="441.8"/>
	<line class="st7" x1="818.8" y1="515.3" x2="821.5" y2="515.3"/>
	<line class="st7" x1="781.9" y1="515.3" x2="803.5" y2="515.3"/>
	<line class="st7" x1="745" y1="515.3" x2="766.6" y2="515.3"/>
	<line class="st7" x1="708.1" y1="515.3" x2="729.7" y2="515.3"/>
	<line class="st7" x1="671.3" y1="515.3" x2="692.9" y2="515.3"/>
	<line class="st7" x1="560.6" y1="515.3" x2="582.2" y2="515.3"/>
	<line class="st7" x1="534.5" y1="515.3" x2="545.4" y2="515.3"/>
	<line class="st7" x1="840.4" y1="511" x2="820.8" y2="511"/>
	<line class="st7" x1="821.5" y1="515.3" x2="840.4" y2="515.3"/>
	<line class="st7" x1="545.4" y1="511" x2="538.8" y2="511"/>
	<line class="st7" x1="582.2" y1="511" x2="560.6" y2="511"/>
	<line class="st7" x1="692.9" y1="511" x2="671.3" y2="511"/>
	<line class="st7" x1="729.7" y1="511" x2="708.1" y2="511"/>
	<line class="st7" x1="766.6" y1="511" x2="745" y2="511"/>
	<line class="st7" x1="803.5" y1="511" x2="781.9" y2="511"/>
	<line class="st7" x1="820.8" y1="511" x2="818.8" y2="511"/>
	<line class="st7" x1="523.8" y1="515.3" x2="534.5" y2="515.3"/>
	<line class="st7" x1="486.9" y1="515.3" x2="508.5" y2="515.3"/>
	<line class="st7" x1="450" y1="515.3" x2="471.6" y2="515.3"/>
	<line class="st7" x1="413.2" y1="515.3" x2="434.8" y2="515.3"/>
	<line class="st7" x1="376.3" y1="515.3" x2="397.9" y2="515.3"/>
	<line class="st7" x1="339.4" y1="515.3" x2="361" y2="515.3"/>
	<line class="st7" x1="302.5" y1="515.3" x2="324.1" y2="515.3"/>
	<line class="st7" x1="324.1" y1="511" x2="302.5" y2="511"/>
	<line class="st7" x1="361" y1="511" x2="339.4" y2="511"/>
	<line class="st7" x1="397.9" y1="511" x2="376.3" y2="511"/>
	<line class="st7" x1="434.8" y1="511" x2="413.2" y2="511"/>
	<line class="st7" x1="471.6" y1="511" x2="450" y2="511"/>
	<line class="st7" x1="508.5" y1="511" x2="486.9" y2="511"/>
	<line class="st7" x1="538.8" y1="511" x2="523.8" y2="511"/>
	<line class="st7" x1="818.8" y1="584.4" x2="833.4" y2="584.4"/>
	<line class="st7" x1="781.9" y1="584.4" x2="803.5" y2="584.4"/>
	<line class="st7" x1="745" y1="584.4" x2="766.6" y2="584.4"/>
	<line class="st7" x1="708.1" y1="584.4" x2="729.7" y2="584.4"/>
	<line class="st7" x1="671.3" y1="584.4" x2="692.9" y2="584.4"/>
	<line class="st7" x1="560.6" y1="584.4" x2="582.2" y2="584.4"/>
	<line class="st7" x1="523.8" y1="584.4" x2="545.4" y2="584.4"/>
	<line class="st7" x1="486.9" y1="584.4" x2="508.5" y2="584.4"/>
	<line class="st7" x1="465.4" y1="584.4" x2="471.6" y2="584.4"/>
	<line class="st7" x1="471.6" y1="580.1" x2="469.7" y2="580.1"/>
	<line class="st7" x1="508.5" y1="580.1" x2="486.9" y2="580.1"/>
	<line class="st7" x1="545.4" y1="580.1" x2="523.8" y2="580.1"/>
	<line class="st7" x1="582.2" y1="580.1" x2="560.6" y2="580.1"/>
	<line class="st7" x1="692.9" y1="580.1" x2="671.3" y2="580.1"/>
	<line class="st7" x1="729.7" y1="580.1" x2="708.1" y2="580.1"/>
	<line class="st7" x1="766.6" y1="580.1" x2="745" y2="580.1"/>
	<line class="st7" x1="803.5" y1="580.1" x2="781.9" y2="580.1"/>
	<line class="st7" x1="832.6" y1="580.1" x2="818.8" y2="580.1"/>
	<line class="st7" x1="413.2" y1="584.4" x2="434.8" y2="584.4"/>
	<line class="st7" x1="287" y1="515.3" x2="287.3" y2="515.3"/>
	<line class="st7" x1="287.3" y1="511" x2="282.7" y2="511"/>
	<line class="st7" x1="356.1" y1="584.4" x2="361" y2="584.4"/>
	<line class="st7" x1="361" y1="580.1" x2="351.8" y2="580.1"/>
	<line class="st7" x1="425.3" y1="653.5" x2="434.8" y2="653.5"/>
	<line class="st7" x1="434.8" y1="649.2" x2="420.9" y2="649.2"/>
	<line class="st7" x1="494.4" y1="722.6" x2="508.5" y2="722.6"/>
	<line class="st7" x1="864.7" y1="511" x2="855.6" y2="511"/>
	<line class="st7" x1="855.6" y1="515.3" x2="864" y2="515.3"/>
	<line class="st7" x1="818.8" y1="653.5" x2="840.3" y2="653.5"/>
	<line class="st7" x1="818.8" y1="722.6" x2="828.4" y2="722.6"/>
	<line class="st7" x1="491.9" y1="446.2" x2="508.5" y2="446.2"/>
	<line class="st7" x1="376.3" y1="584.4" x2="397.9" y2="584.4"/>
	<line class="st7" x1="397.9" y1="580.1" x2="376.3" y2="580.1"/>
	<line class="st7" x1="434.8" y1="580.1" x2="413.2" y2="580.1"/>
	<line class="st7" x1="781.9" y1="722.6" x2="803.5" y2="722.6"/>
	<line class="st7" x1="745" y1="653.5" x2="766.6" y2="653.5"/>
	<line class="st7" x1="708.1" y1="653.5" x2="729.7" y2="653.5"/>
	<line class="st7" x1="671.3" y1="653.5" x2="692.9" y2="653.5"/>
	<line class="st7" x1="560.6" y1="653.5" x2="582.2" y2="653.5"/>
	<line class="st7" x1="523.8" y1="653.5" x2="545.4" y2="653.5"/>
	<line class="st7" x1="486.9" y1="653.5" x2="508.5" y2="653.5"/>
	<line class="st7" x1="450" y1="653.5" x2="471.6" y2="653.5"/>
	<line class="st7" x1="471.6" y1="649.2" x2="450" y2="649.2"/>
	<line class="st7" x1="508.5" y1="649.2" x2="486.9" y2="649.2"/>
	<line class="st7" x1="545.4" y1="649.2" x2="523.8" y2="649.2"/>
	<line class="st7" x1="582.2" y1="649.2" x2="560.6" y2="649.2"/>
	<line class="st7" x1="692.9" y1="649.2" x2="671.3" y2="649.2"/>
	<line class="st7" x1="729.7" y1="649.2" x2="708.1" y2="649.2"/>
	<line class="st7" x1="766.6" y1="649.2" x2="745" y2="649.2"/>
	<line class="st7" x1="803.5" y1="649.2" x2="781.9" y2="649.2"/>
	<line class="st7" x1="840.4" y1="649.2" x2="818.8" y2="649.2"/>
	<rect x="486.9" y="978.5" class="st5" width="21.6" height="21.6"/>
	<polyline class="st5" points="750.3,978.5 745,978.5 745,1000.1 766.6,1000.1 766.6,994.9 	"/>
	<polyline class="st5" points="713.4,941.7 708.1,941.7 708.1,963.3 729.7,963.3 729.7,958 	"/>
	<polyline class="st5" points="676.5,904.8 671.3,904.8 671.3,926.4 692.9,926.4 692.9,921.1 	"/>
	<polyline class="st5" points="639.6,867.9 634.4,867.9 634.4,889.5 656,889.5 656,884.3 	"/>
	<polyline class="st5" points="602.8,831 597.5,831 597.5,852.6 619.1,852.6 619.1,847.4 	"/>
	<polyline class="st5" points="565.9,794.2 560.6,794.2 560.6,815.8 582.2,815.8 582.2,810.5 	"/>
	<polyline class="st5" points="529,757.3 523.8,757.3 523.8,778.9 545.4,778.9 545.4,773.6 	"/>
	<polyline class="st5" points="492.1,720.4 486.9,720.4 486.9,742 508.5,742 508.5,736.8 	"/>
	<polyline class="st5" points="455.3,683.5 450,683.5 450,705.1 471.6,705.1 471.6,699.9 	"/>
	<polyline class="st5" points="418.4,646.7 413.2,646.7 413.2,668.3 434.8,668.3 434.8,663 	"/>
	<polyline class="st5" points="381.5,609.8 376.3,609.8 376.3,631.4 397.9,631.4 397.9,626.2 	"/>
	<polyline class="st5" points="344.7,572.9 339.4,572.9 339.4,594.5 361,594.5 361,589.3 	"/>
	<polyline class="st5" points="307.8,536.1 302.5,536.1 302.5,557.7 324.1,557.7 324.1,552.4 	"/>
	<polyline class="st5" points="270.9,499.2 265.7,499.2 265.7,520.8 287.3,520.8 287.3,515.5 	"/>
	<rect x="265.7" y="536.1" class="st5" width="21.6" height="21.6"/>
	<rect x="302.5" y="572.9" class="st5" width="21.6" height="21.6"/>
	<rect x="265.7" y="572.9" class="st5" width="21.6" height="21.6"/>
	<rect x="339.4" y="609.8" class="st5" width="21.6" height="21.6"/>
	<rect x="302.5" y="609.8" class="st5" width="21.6" height="21.6"/>
	<rect x="265.7" y="609.8" class="st5" width="21.6" height="21.6"/>
	<rect x="376.3" y="646.7" class="st5" width="21.6" height="21.6"/>
	<rect x="339.4" y="646.7" class="st5" width="21.6" height="21.6"/>
	<rect x="302.5" y="646.7" class="st5" width="21.6" height="21.6"/>
	<rect x="265.7" y="646.7" class="st5" width="21.6" height="21.6"/>
	<rect x="413.2" y="683.5" class="st5" width="21.6" height="21.6"/>
	<rect x="376.3" y="683.5" class="st5" width="21.6" height="21.6"/>
	<rect x="339.4" y="683.5" class="st5" width="21.6" height="21.6"/>
	<rect x="302.5" y="683.5" class="st5" width="21.6" height="21.6"/>
	<rect x="265.7" y="683.5" class="st5" width="21.6" height="21.6"/>
	<rect x="450" y="720.4" class="st5" width="21.6" height="21.6"/>
	<rect x="413.2" y="720.4" class="st5" width="21.6" height="21.6"/>
	<rect x="376.3" y="720.4" class="st5" width="21.6" height="21.6"/>
	<rect x="339.4" y="720.4" class="st5" width="21.6" height="21.6"/>
	<rect x="302.5" y="720.4" class="st5" width="21.6" height="21.6"/>
	<rect x="265.7" y="720.4" class="st5" width="21.6" height="21.6"/>
	<rect x="486.9" y="757.3" class="st5" width="21.6" height="21.6"/>
	<rect x="450" y="757.3" class="st5" width="21.6" height="21.6"/>
	<rect x="413.2" y="757.3" class="st5" width="21.6" height="21.6"/>
	<rect x="376.3" y="757.3" class="st5" width="21.6" height="21.6"/>
	<rect x="339.4" y="757.3" class="st5" width="21.6" height="21.6"/>
	<rect x="302.5" y="757.3" class="st5" width="21.6" height="21.6"/>
	<rect x="265.7" y="757.3" class="st5" width="21.6" height="21.6"/>
	<rect x="523.8" y="794.2" class="st5" width="21.6" height="21.6"/>
	<rect x="486.9" y="794.2" class="st5" width="21.6" height="21.6"/>
	<rect x="450" y="794.2" class="st5" width="21.6" height="21.6"/>
	<rect x="413.2" y="794.2" class="st5" width="21.6" height="21.6"/>
	<rect x="376.3" y="794.2" class="st5" width="21.6" height="21.6"/>
	<rect x="339.4" y="794.2" class="st5" width="21.6" height="21.6"/>
	<rect x="302.5" y="794.2" class="st5" width="21.6" height="21.6"/>
	<rect x="265.7" y="794.2" class="st5" width="21.6" height="21.6"/>
	<rect x="560.6" y="831" class="st5" width="21.6" height="21.6"/>
	<rect x="523.8" y="831" class="st5" width="21.6" height="21.6"/>
	<rect x="486.9" y="831" class="st5" width="21.6" height="21.6"/>
	<rect x="450" y="831" class="st5" width="21.6" height="21.6"/>
	<rect x="413.2" y="831" class="st5" width="21.6" height="21.6"/>
	<rect x="376.3" y="831" class="st5" width="21.6" height="21.6"/>
	<rect x="339.4" y="831" class="st5" width="21.6" height="21.6"/>
	<rect x="302.5" y="831" class="st5" width="21.6" height="21.6"/>
	<rect x="265.7" y="831" class="st5" width="21.6" height="21.6"/>
	<rect x="597.5" y="867.9" class="st5" width="21.6" height="21.6"/>
	<rect x="560.6" y="867.9" class="st5" width="21.6" height="21.6"/>
	<rect x="523.8" y="867.9" class="st5" width="21.6" height="21.6"/>
	<rect x="486.9" y="867.9" class="st5" width="21.6" height="21.6"/>
	<rect x="450" y="867.9" class="st5" width="21.6" height="21.6"/>
	<rect x="413.2" y="867.9" class="st5" width="21.6" height="21.6"/>
	<rect x="376.3" y="867.9" class="st5" width="21.6" height="21.6"/>
	<rect x="339.4" y="867.9" class="st5" width="21.6" height="21.6"/>
	<rect x="302.5" y="867.9" class="st5" width="21.6" height="21.6"/>
	<rect x="265.7" y="867.9" class="st5" width="21.6" height="21.6"/>
	<rect x="634.4" y="904.8" class="st5" width="21.6" height="21.6"/>
	<rect x="597.5" y="904.8" class="st5" width="21.6" height="21.6"/>
	<rect x="560.6" y="904.8" class="st5" width="21.6" height="21.6"/>
	<rect x="523.8" y="904.8" class="st5" width="21.6" height="21.6"/>
	<rect x="486.9" y="904.8" class="st5" width="21.6" height="21.6"/>
	<rect x="450" y="904.8" class="st5" width="21.6" height="21.6"/>
	<rect x="413.2" y="904.8" class="st5" width="21.6" height="21.6"/>
	<rect x="376.3" y="904.8" class="st5" width="21.6" height="21.6"/>
	<rect x="339.4" y="904.8" class="st5" width="21.6" height="21.6"/>
	<rect x="302.5" y="904.8" class="st5" width="21.6" height="21.6"/>
	<rect x="265.7" y="904.8" class="st5" width="21.6" height="21.6"/>
	<rect x="671.3" y="941.7" class="st5" width="21.6" height="21.6"/>
	<rect x="634.4" y="941.7" class="st5" width="21.6" height="21.6"/>
	<rect x="597.5" y="941.7" class="st5" width="21.6" height="21.6"/>
	<rect x="560.6" y="941.7" class="st5" width="21.6" height="21.6"/>
	<rect x="523.8" y="941.7" class="st5" width="21.6" height="21.6"/>
	<rect x="486.9" y="941.7" class="st5" width="21.6" height="21.6"/>
	<rect x="450" y="941.7" class="st5" width="21.6" height="21.6"/>
	<rect x="413.2" y="941.7" class="st5" width="21.6" height="21.6"/>
	<rect x="376.3" y="941.7" class="st5" width="21.6" height="21.6"/>
	<rect x="339.4" y="941.7" class="st5" width="21.6" height="21.6"/>
	<rect x="302.5" y="941.7" class="st5" width="21.6" height="21.6"/>
	<rect x="265.7" y="941.7" class="st5" width="21.6" height="21.6"/>
	<rect x="708.1" y="978.5" class="st5" width="21.6" height="21.6"/>
	<rect x="671.3" y="978.5" class="st5" width="21.6" height="21.6"/>
	<rect x="634.4" y="978.5" class="st5" width="21.6" height="21.6"/>
	<rect x="597.5" y="978.5" class="st5" width="21.6" height="21.6"/>
	<rect x="560.6" y="978.5" class="st5" width="21.6" height="21.6"/>
	<rect x="523.8" y="978.5" class="st5" width="21.6" height="21.6"/>
	<rect x="450" y="978.5" class="st5" width="21.6" height="21.6"/>
	<rect x="413.2" y="978.5" class="st5" width="21.6" height="21.6"/>
	<rect x="376.3" y="978.5" class="st5" width="21.6" height="21.6"/>
	<rect x="339.4" y="978.5" class="st5" width="21.6" height="21.6"/>
	<rect x="302.5" y="978.5" class="st5" width="21.6" height="21.6"/>
	<rect x="265.7" y="978.5" class="st5" width="21.6" height="21.6"/>
	<polyline class="st6" points="863,520.8 877.2,520.8 877.2,499.2 866.8,499.2 	"/>
	<polyline class="st6" points="324.1,475 324.1,462.3 302.5,462.3 302.5,478.7 	"/>
	<polyline class="st6" points="361,468.6 361,462.3 339.4,462.3 339.4,472.3 	"/>
	<polyline class="st6" points="397.9,462.3 376.3,462.3 376.3,466 	"/>
	<polyline class="st6" points="869.4,483.9 877.2,483.9 877.2,462.3 873.1,462.3 	"/>
	<polyline class="st6" points="508.5,443.3 508.5,425.4 486.9,425.4 486.9,447 	"/>
	<polyline class="st6" points="545.4,437 545.4,425.4 523.8,425.4 523.8,440.7 	"/>
	<polyline class="st6" points="582.2,430.7 582.2,425.4 560.6,425.4 560.6,434.4 	"/>
	<polyline class="st6" points="612.8,425.4 597.5,425.4 597.5,428.1 	"/>
	<polyline class="st6" points="875.7,447 877.2,447 877.2,438.1 	"/>
	<polyline class="st6" points="729.7,405.4 729.7,388.6 708.1,388.6 708.1,409.1 	"/>
	<polyline class="st6" points="766.6,399 766.6,388.6 745,388.6 745,402.7 	"/>
	<polyline class="st6" points="803.5,392.7 803.5,388.6 781.9,388.6 781.9,396.4 	"/>
	<polyline class="st6" points="827.7,388.6 818.8,388.6 818.8,390.1 	"/>
	<rect x="966.3" y="277.9" class="st6" width="21.6" height="21.6"/>
	<rect x="929.4" y="277.9" class="st6" width="21.6" height="21.6"/>
	<rect x="892.5" y="277.9" class="st6" width="21.6" height="21.6"/>
	<rect x="855.6" y="277.9" class="st6" width="21.6" height="21.6"/>
	<rect x="818.8" y="277.9" class="st6" width="21.6" height="21.6"/>
	<rect x="781.9" y="277.9" class="st6" width="21.6" height="21.6"/>
	<rect x="745" y="277.9" class="st6" width="21.6" height="21.6"/>
	<rect x="708.1" y="277.9" class="st6" width="21.6" height="21.6"/>
	<rect x="671.3" y="277.9" class="st6" width="21.6" height="21.6"/>
	<rect x="634.4" y="277.9" class="st6" width="21.6" height="21.6"/>
	<rect x="597.5" y="277.9" class="st6" width="21.6" height="21.6"/>
	<rect x="560.6" y="277.9" class="st6" width="21.6" height="21.6"/>
	<rect x="523.8" y="277.9" class="st6" width="21.6" height="21.6"/>
	<rect x="486.9" y="277.9" class="st6" width="21.6" height="21.6"/>
	<rect x="450" y="277.9" class="st6" width="21.6" height="21.6"/>
	<rect x="413.2" y="277.9" class="st6" width="21.6" height="21.6"/>
	<rect x="376.3" y="277.9" class="st6" width="21.6" height="21.6"/>
	<rect x="339.4" y="277.9" class="st6" width="21.6" height="21.6"/>
	<rect x="302.5" y="277.9" class="st6" width="21.6" height="21.6"/>
	<rect x="265.7" y="277.9" class="st6" width="21.6" height="21.6"/>
	<rect x="966.3" y="314.8" class="st6" width="21.6" height="21.6"/>
	<rect x="929.4" y="314.8" class="st6" width="21.6" height="21.6"/>
	<rect x="892.5" y="314.8" class="st6" width="21.6" height="21.6"/>
	<rect x="855.6" y="314.8" class="st6" width="21.6" height="21.6"/>
	<rect x="818.8" y="314.8" class="st6" width="21.6" height="21.6"/>
	<rect x="781.9" y="314.8" class="st6" width="21.6" height="21.6"/>
	<rect x="745" y="314.8" class="st6" width="21.6" height="21.6"/>
	<rect x="708.1" y="314.8" class="st6" width="21.6" height="21.6"/>
	<rect x="671.3" y="314.8" class="st6" width="21.6" height="21.6"/>
	<rect x="634.4" y="314.8" class="st6" width="21.6" height="21.6"/>
	<rect x="597.5" y="314.8" class="st6" width="21.6" height="21.6"/>
	<rect x="560.6" y="314.8" class="st6" width="21.6" height="21.6"/>
	<rect x="523.8" y="314.8" class="st6" width="21.6" height="21.6"/>
	<rect x="486.9" y="314.8" class="st6" width="21.6" height="21.6"/>
	<rect x="450" y="314.8" class="st6" width="21.6" height="21.6"/>
	<rect x="413.2" y="314.8" class="st6" width="21.6" height="21.6"/>
	<rect x="376.3" y="314.8" class="st6" width="21.6" height="21.6"/>
	<rect x="339.4" y="314.8" class="st6" width="21.6" height="21.6"/>
	<rect x="302.5" y="314.8" class="st6" width="21.6" height="21.6"/>
	<rect x="265.7" y="314.8" class="st6" width="21.6" height="21.6"/>
	<rect x="966.3" y="351.7" class="st6" width="21.6" height="21.6"/>
	<rect x="929.4" y="351.7" class="st6" width="21.6" height="21.6"/>
	<rect x="892.5" y="351.7" class="st6" width="21.6" height="21.6"/>
	<rect x="855.6" y="351.7" class="st6" width="21.6" height="21.6"/>
	<rect x="818.8" y="351.7" class="st6" width="21.6" height="21.6"/>
	<rect x="781.9" y="351.7" class="st6" width="21.6" height="21.6"/>
	<rect x="745" y="351.7" class="st6" width="21.6" height="21.6"/>
	<rect x="708.1" y="351.7" class="st6" width="21.6" height="21.6"/>
	<rect x="671.3" y="351.7" class="st6" width="21.6" height="21.6"/>
	<rect x="634.4" y="351.7" class="st6" width="21.6" height="21.6"/>
	<rect x="597.5" y="351.7" class="st6" width="21.6" height="21.6"/>
	<rect x="560.6" y="351.7" class="st6" width="21.6" height="21.6"/>
	<rect x="523.8" y="351.7" class="st6" width="21.6" height="21.6"/>
	<rect x="486.9" y="351.7" class="st6" width="21.6" height="21.6"/>
	<rect x="450" y="351.7" class="st6" width="21.6" height="21.6"/>
	<rect x="413.2" y="351.7" class="st6" width="21.6" height="21.6"/>
	<rect x="376.3" y="351.7" class="st6" width="21.6" height="21.6"/>
	<rect x="339.4" y="351.7" class="st6" width="21.6" height="21.6"/>
	<rect x="302.5" y="351.7" class="st6" width="21.6" height="21.6"/>
	<rect x="855.6" y="941.7" class="st6" width="21.6" height="21.6"/>
	<rect x="265.7" y="351.7" class="st6" width="21.6" height="21.6"/>
	<rect x="966.3" y="388.6" class="st6" width="21.6" height="21.6"/>
	<rect x="818.8" y="978.5" class="st6" width="21.6" height="21.6"/>
	<rect x="818.8" y="941.7" class="st6" width="21.6" height="21.6"/>
	<rect x="892.5" y="609.8" class="st6" width="21.6" height="21.6"/>
	<rect x="966.3" y="978.5" class="st6" width="21.6" height="21.6"/>
	<rect x="929.4" y="978.5" class="st6" width="21.6" height="21.6"/>
	<rect x="892.5" y="978.5" class="st6" width="21.6" height="21.6"/>
	<rect x="855.6" y="609.8" class="st6" width="21.6" height="21.6"/>
	<rect x="855.6" y="978.5" class="st6" width="21.6" height="21.6"/>
	<rect x="966.3" y="646.7" class="st6" width="21.6" height="21.6"/>
	<rect x="929.4" y="646.7" class="st6" width="21.6" height="21.6"/>
	<rect x="929.4" y="572.9" class="st6" width="21.6" height="21.6"/>
	<rect x="892.5" y="572.9" class="st6" width="21.6" height="21.6"/>
	<rect x="929.4" y="388.6" class="st6" width="21.6" height="21.6"/>
	<rect x="892.5" y="388.6" class="st6" width="21.6" height="21.6"/>
	<rect x="671.3" y="388.6" class="st6" width="21.6" height="21.6"/>
	<rect x="855.6" y="572.9" class="st6" width="21.6" height="21.6"/>
	<rect x="892.5" y="646.7" class="st6" width="21.6" height="21.6"/>
	<rect x="855.6" y="646.7" class="st6" width="21.6" height="21.6"/>
	<rect x="966.3" y="683.5" class="st6" width="21.6" height="21.6"/>
	<rect x="929.4" y="683.5" class="st6" width="21.6" height="21.6"/>
	<rect x="892.5" y="683.5" class="st6" width="21.6" height="21.6"/>
	<rect x="855.6" y="683.5" class="st6" width="21.6" height="21.6"/>
	<rect x="966.3" y="720.4" class="st6" width="21.6" height="21.6"/>
	<rect x="929.4" y="720.4" class="st6" width="21.6" height="21.6"/>
	<rect x="892.5" y="720.4" class="st6" width="21.6" height="21.6"/>
	<rect x="634.4" y="388.6" class="st6" width="21.6" height="21.6"/>
	<rect x="597.5" y="388.6" class="st6" width="21.6" height="21.6"/>
	<rect x="560.6" y="388.6" class="st6" width="21.6" height="21.6"/>
	<rect x="523.8" y="388.6" class="st6" width="21.6" height="21.6"/>
	<rect x="855.6" y="720.4" class="st6" width="21.6" height="21.6"/>
	<rect x="966.3" y="609.8" class="st6" width="21.6" height="21.6"/>
	<rect x="966.3" y="757.3" class="st6" width="21.6" height="21.6"/>
	<rect x="929.4" y="757.3" class="st6" width="21.6" height="21.6"/>
	<rect x="892.5" y="757.3" class="st6" width="21.6" height="21.6"/>
	<rect x="855.6" y="757.3" class="st6" width="21.6" height="21.6"/>
	<rect x="966.3" y="794.2" class="st6" width="21.6" height="21.6"/>
	<rect x="929.4" y="794.2" class="st6" width="21.6" height="21.6"/>
	<rect x="892.5" y="794.2" class="st6" width="21.6" height="21.6"/>
	<rect x="486.9" y="388.6" class="st6" width="21.6" height="21.6"/>
	<rect x="450" y="388.6" class="st6" width="21.6" height="21.6"/>
	<rect x="413.2" y="388.6" class="st6" width="21.6" height="21.6"/>
	<rect x="376.3" y="388.6" class="st6" width="21.6" height="21.6"/>
	<rect x="339.4" y="388.6" class="st6" width="21.6" height="21.6"/>
	<rect x="855.6" y="794.2" class="st6" width="21.6" height="21.6"/>
	<rect x="818.8" y="794.2" class="st6" width="21.6" height="21.6"/>
	<rect x="966.3" y="831" class="st6" width="21.6" height="21.6"/>
	<rect x="929.4" y="831" class="st6" width="21.6" height="21.6"/>
	<rect x="892.5" y="831" class="st6" width="21.6" height="21.6"/>
	<rect x="855.6" y="831" class="st6" width="21.6" height="21.6"/>
	<rect x="818.8" y="831" class="st6" width="21.6" height="21.6"/>
	<rect x="966.3" y="867.9" class="st6" width="21.6" height="21.6"/>
	<rect x="302.5" y="388.6" class="st6" width="21.6" height="21.6"/>
	<rect x="265.7" y="388.6" class="st6" width="21.6" height="21.6"/>
	<rect x="966.3" y="425.4" class="st6" width="21.6" height="21.6"/>
	<rect x="929.4" y="425.4" class="st6" width="21.6" height="21.6"/>
	<rect x="892.5" y="425.4" class="st6" width="21.6" height="21.6"/>
	<rect x="450" y="425.4" class="st6" width="21.6" height="21.6"/>
	<rect x="929.4" y="867.9" class="st6" width="21.6" height="21.6"/>
	<rect x="892.5" y="867.9" class="st6" width="21.6" height="21.6"/>
	<rect x="855.6" y="867.9" class="st6" width="21.6" height="21.6"/>
	<rect x="818.8" y="867.9" class="st6" width="21.6" height="21.6"/>
	<rect x="966.3" y="904.8" class="st6" width="21.6" height="21.6"/>
	<rect x="929.4" y="904.8" class="st6" width="21.6" height="21.6"/>
	<rect x="892.5" y="904.8" class="st6" width="21.6" height="21.6"/>
	<rect x="413.2" y="425.4" class="st6" width="21.6" height="21.6"/>
	<rect x="376.3" y="425.4" class="st6" width="21.6" height="21.6"/>
	<rect x="339.4" y="425.4" class="st6" width="21.6" height="21.6"/>
	<rect x="302.5" y="425.4" class="st6" width="21.6" height="21.6"/>
	<rect x="265.7" y="425.4" class="st6" width="21.6" height="21.6"/>
	<rect x="966.3" y="462.3" class="st6" width="21.6" height="21.6"/>
	<rect x="929.4" y="462.3" class="st6" width="21.6" height="21.6"/>
	<rect x="855.6" y="904.8" class="st6" width="21.6" height="21.6"/>
	<rect x="818.8" y="904.8" class="st6" width="21.6" height="21.6"/>
	<rect x="929.4" y="609.8" class="st6" width="21.6" height="21.6"/>
	<polyline class="st6" points="781.9,993.8 781.9,1000.1 803.5,1000.1 803.5,978.5 784.5,978.5 	"/>
	<rect x="966.3" y="941.7" class="st6" width="21.6" height="21.6"/>
	<rect x="929.4" y="941.7" class="st6" width="21.6" height="21.6"/>
	<rect x="892.5" y="462.3" class="st6" width="21.6" height="21.6"/>
	<rect x="966.3" y="499.2" class="st6" width="21.6" height="21.6"/>
	<rect x="929.4" y="499.2" class="st6" width="21.6" height="21.6"/>
	<rect x="892.5" y="499.2" class="st6" width="21.6" height="21.6"/>
	<rect x="966.3" y="536.1" class="st6" width="21.6" height="21.6"/>
	<rect x="929.4" y="536.1" class="st6" width="21.6" height="21.6"/>
	<rect x="892.5" y="536.1" class="st6" width="21.6" height="21.6"/>
	<rect x="966.3" y="572.9" class="st6" width="21.6" height="21.6"/>
	<polyline class="st6" points="787.1,963.3 803.5,963.3 803.5,941.7 790.8,941.7 	"/>
	<rect x="892.5" y="941.7" class="st6" width="21.6" height="21.6"/>
	<polyline class="st6" points="793.5,926.4 803.5,926.4 803.5,904.8 797.2,904.8 	"/>
	<polyline class="st6" points="799.8,889.5 803.5,889.5 803.5,867.9 	"/>
	<polyline class="st6" points="818.8,778.9 840.4,778.9 840.4,757.3 822.5,757.3 	"/>
	<polyline class="st6" points="825.1,742 840.4,742 840.4,720.4 828.8,720.4 	"/>
	<polyline class="st6" points="831.4,705.1 840.4,705.1 840.4,683.5 835.1,683.5 	"/>
	<polyline class="st6" points="837.7,668.3 840.4,668.3 840.4,653 	"/>
	<polyline class="st6" points="856.7,557.7 877.2,557.7 877.2,536.1 860.4,536.1 	"/>
	<polyline class="st6" points="287.3,481.3 287.3,462.3 265.7,462.3 265.7,483.9 272,483.9 	"/>
	<rect x="781.9" y="831" class="st1" width="21.6" height="21.6"/>
	<rect x="708.1" y="831" class="st1" width="21.6" height="21.6"/>
	<rect x="671.3" y="831" class="st1" width="21.6" height="21.6"/>
	<rect x="634.4" y="831" class="st1" width="21.6" height="21.6"/>
	<rect x="745" y="867.9" class="st1" width="21.6" height="21.6"/>
	<rect x="708.1" y="867.9" class="st1" width="21.6" height="21.6"/>
	<rect x="671.3" y="867.9" class="st1" width="21.6" height="21.6"/>
	<rect x="708.1" y="904.8" class="st1" width="21.6" height="21.6"/>
	<rect x="745" y="904.8" class="st1" width="21.6" height="21.6"/>
	<rect x="745" y="941.7" class="st1" width="21.6" height="21.6"/>
	<rect x="413.2" y="572.9" class="st1" width="21.6" height="21.6"/>
	<rect x="450" y="572.9" class="st1" width="21.6" height="21.6"/>
	<rect x="486.9" y="572.9" class="st1" width="21.6" height="21.6"/>
	<rect x="523.8" y="572.9" class="st1" width="21.6" height="21.6"/>
	<rect x="560.6" y="572.9" class="st1" width="21.6" height="21.6"/>
	<rect x="597.5" y="572.9" class="st1" width="21.6" height="21.6"/>
	<rect x="634.4" y="572.9" class="st1" width="21.6" height="21.6"/>
	<rect x="671.3" y="572.9" class="st1" width="21.6" height="21.6"/>
	<rect x="708.1" y="572.9" class="st1" width="21.6" height="21.6"/>
	<rect x="745" y="572.9" class="st1" width="21.6" height="21.6"/>
	<rect x="781.9" y="572.9" class="st1" width="21.6" height="21.6"/>
	<rect x="818.8" y="572.9" class="st1" width="21.6" height="21.6"/>
	<rect x="339.4" y="536.1" class="st1" width="21.6" height="21.6"/>
	<rect x="376.3" y="536.1" class="st1" width="21.6" height="21.6"/>
	<rect x="413.2" y="536.1" class="st1" width="21.6" height="21.6"/>
	<rect x="450" y="536.1" class="st1" width="21.6" height="21.6"/>
	<rect x="486.9" y="536.1" class="st1" width="21.6" height="21.6"/>
	<rect x="523.8" y="536.1" class="st1" width="21.6" height="21.6"/>
	<rect x="560.6" y="536.1" class="st1" width="21.6" height="21.6"/>
	<rect x="597.5" y="536.1" class="st1" width="21.6" height="21.6"/>
	<rect x="634.4" y="536.1" class="st1" width="21.6" height="21.6"/>
	<rect x="671.3" y="536.1" class="st1" width="21.6" height="21.6"/>
	<rect x="708.1" y="536.1" class="st1" width="21.6" height="21.6"/>
	<rect x="745" y="536.1" class="st1" width="21.6" height="21.6"/>
	<rect x="781.9" y="536.1" class="st1" width="21.6" height="21.6"/>
	<rect x="818.8" y="536.1" class="st1" width="21.6" height="21.6"/>
	<rect x="302.5" y="499.2" class="st1" width="21.6" height="21.6"/>
	<rect x="339.4" y="499.2" class="st1" width="21.6" height="21.6"/>
	<rect x="376.3" y="499.2" class="st1" width="21.6" height="21.6"/>
	<rect x="413.2" y="499.2" class="st1" width="21.6" height="21.6"/>
	<rect x="450" y="499.2" class="st1" width="21.6" height="21.6"/>
	<rect x="486.9" y="499.2" class="st1" width="21.6" height="21.6"/>
	<rect x="523.8" y="499.2" class="st1" width="21.6" height="21.6"/>
	<rect x="560.6" y="499.2" class="st1" width="21.6" height="21.6"/>
	<rect x="597.5" y="499.2" class="st1" width="21.6" height="21.6"/>
	<rect x="634.4" y="499.2" class="st1" width="21.6" height="21.6"/>
	<rect x="671.3" y="499.2" class="st1" width="21.6" height="21.6"/>
	<rect x="708.1" y="499.2" class="st1" width="21.6" height="21.6"/>
	<rect x="745" y="499.2" class="st1" width="21.6" height="21.6"/>
	<rect x="781.9" y="499.2" class="st1" width="21.6" height="21.6"/>
	<rect x="818.8" y="499.2" class="st1" width="21.6" height="21.6"/>
	<rect x="413.2" y="462.3" class="st1" width="21.6" height="21.6"/>
	<rect x="450" y="462.3" class="st1" width="21.6" height="21.6"/>
	<rect x="486.9" y="462.3" class="st1" width="21.6" height="21.6"/>
	<rect x="523.8" y="462.3" class="st1" width="21.6" height="21.6"/>
	<rect x="560.6" y="462.3" class="st1" width="21.6" height="21.6"/>
	<rect x="597.5" y="462.3" class="st1" width="21.6" height="21.6"/>
	<rect x="634.4" y="462.3" class="st1" width="21.6" height="21.6"/>
	<rect x="671.3" y="462.3" class="st1" width="21.6" height="21.6"/>
	<rect x="708.1" y="462.3" class="st1" width="21.6" height="21.6"/>
	<rect x="745" y="462.3" class="st1" width="21.6" height="21.6"/>
	<rect x="781.9" y="462.3" class="st1" width="21.6" height="21.6"/>
	<rect x="818.8" y="462.3" class="st1" width="21.6" height="21.6"/>
	<rect x="634.4" y="425.4" class="st1" width="21.6" height="21.6"/>
	<rect x="671.3" y="425.4" class="st1" width="21.6" height="21.6"/>
	<rect x="708.1" y="425.4" class="st1" width="21.6" height="21.6"/>
	<rect x="745" y="425.4" class="st1" width="21.6" height="21.6"/>
	<rect x="781.9" y="425.4" class="st1" width="21.6" height="21.6"/>
	<rect x="818.8" y="425.4" class="st1" width="21.6" height="21.6"/>
	<rect x="855.6" y="388.6" class="st1" width="21.6" height="21.6"/>
	<polyline class="st1" points="818.8,390.1 818.8,410.2 840.4,410.2 840.4,388.6 827.7,388.6 	"/>
	<polyline class="st1" points="781.9,396.4 781.9,410.2 803.5,410.2 803.5,392.7 	"/>
	<polyline class="st1" points="745,402.7 745,410.2 766.6,410.2 766.6,399 	"/>
	<polyline class="st1" points="708.1,409.1 708.1,410.2 729.7,410.2 729.7,405.4 	"/>
	<polyline class="st1" points="877.2,438.1 877.2,425.4 855.6,425.4 855.6,447 875.7,447 	"/>
	<polyline class="st1" points="597.5,428.1 597.5,447 619.1,447 619.1,425.4 612.8,425.4 	"/>
	<polyline class="st1" points="560.6,434.4 560.6,447 582.2,447 582.2,430.7 	"/>
	<polyline class="st1" points="523.8,440.7 523.8,447 545.4,447 545.4,437 	"/>
	<polyline class="st1" points="486.9,447 486.9,447 508.5,447 508.5,443.3 	"/>
	<polyline class="st1" points="873.1,462.3 855.6,462.3 855.6,483.9 869.4,483.9 	"/>
	<polyline class="st1" points="376.3,466 376.3,483.9 397.9,483.9 397.9,462.3 397.9,462.3 	"/>
	<polyline class="st1" points="339.4,472.3 339.4,483.9 361,483.9 361,468.6 	"/>
	<polyline class="st1" points="302.5,478.7 302.5,483.9 324.1,483.9 324.1,475 	"/>
	<polyline class="st1" points="272,483.9 287.3,483.9 287.3,481.3 	"/>
	<polyline class="st1" points="866.8,499.2 855.6,499.2 855.6,520.8 863,520.8 	"/>
	<polyline class="st1" points="287.3,515.5 287.3,499.2 270.9,499.2 	"/>
	<polyline class="st1" points="860.4,536.1 855.6,536.1 855.6,557.7 856.7,557.7 	"/>
	<polyline class="st1" points="324.1,552.4 324.1,536.1 307.8,536.1 	"/>
	<polyline class="st1" points="361,589.3 361,572.9 344.7,572.9 	"/>
	<polyline class="st1" points="397.9,626.2 397.9,609.8 381.5,609.8 	"/>
	<polyline class="st1" points="840.4,653 840.4,646.7 818.8,646.7 818.8,668.3 837.7,668.3 	"/>
	<polyline class="st1" points="434.8,663 434.8,646.7 418.4,646.7 	"/>
	<polyline class="st1" points="835.1,683.5 818.8,683.5 818.8,705.1 831.4,705.1 	"/>
	<polyline class="st1" points="471.6,699.9 471.6,683.5 455.3,683.5 	"/>
	<polyline class="st1" points="828.8,720.4 818.8,720.4 818.8,742 825.1,742 	"/>
	<polyline class="st1" points="508.5,736.8 508.5,720.4 492.1,720.4 	"/>
	<polyline class="st1" points="822.5,757.3 818.8,757.3 818.8,778.9 818.8,778.9 	"/>
	<polyline class="st1" points="545.4,773.6 545.4,757.3 529,757.3 	"/>
	<polyline class="st1" points="582.2,810.5 582.2,794.2 565.9,794.2 	"/>
	<polyline class="st1" points="619.1,847.4 619.1,831 602.8,831 	"/>
	<polyline class="st1" points="803.5,867.9 803.5,867.9 781.9,867.9 781.9,889.5 799.8,889.5 	"/>
	<polyline class="st1" points="656,884.3 656,867.9 639.6,867.9 	"/>
	<polyline class="st1" points="692.9,921.1 692.9,904.8 676.5,904.8 	"/>
	<polyline class="st1" points="729.7,958 729.7,941.7 713.4,941.7 	"/>
	<polyline class="st1" points="766.6,994.9 766.6,978.5 750.3,978.5 	"/>
	<polyline class="st1" points="784.5,978.5 781.9,978.5 781.9,993.8 	"/>
	<polyline class="st1" points="790.8,941.7 781.9,941.7 781.9,963.3 787.1,963.3 	"/>
	<polyline class="st1" points="797.2,904.8 781.9,904.8 781.9,926.4 793.5,926.4 	"/>
	<rect x="376.3" y="572.9" class="st1" width="21.6" height="21.6"/>
	<rect x="818.8" y="609.8" class="st1" width="21.6" height="21.6"/>
	<rect x="781.9" y="609.8" class="st1" width="21.6" height="21.6"/>
	<rect x="745" y="609.8" class="st1" width="21.6" height="21.6"/>
	<rect x="708.1" y="609.8" class="st1" width="21.6" height="21.6"/>
	<rect x="671.3" y="609.8" class="st1" width="21.6" height="21.6"/>
	<rect x="634.4" y="609.8" class="st1" width="21.6" height="21.6"/>
	<rect x="597.5" y="609.8" class="st1" width="21.6" height="21.6"/>
	<rect x="560.6" y="609.8" class="st1" width="21.6" height="21.6"/>
	<rect x="523.8" y="609.8" class="st1" width="21.6" height="21.6"/>
	<rect x="486.9" y="609.8" class="st1" width="21.6" height="21.6"/>
	<rect x="450" y="609.8" class="st1" width="21.6" height="21.6"/>
	<rect x="413.2" y="609.8" class="st1" width="21.6" height="21.6"/>
	<rect x="781.9" y="646.7" class="st1" width="21.6" height="21.6"/>
	<rect x="745" y="646.7" class="st1" width="21.6" height="21.6"/>
	<rect x="708.1" y="646.7" class="st1" width="21.6" height="21.6"/>
	<rect x="671.3" y="646.7" class="st1" width="21.6" height="21.6"/>
	<rect x="634.4" y="646.7" class="st1" width="21.6" height="21.6"/>
	<rect x="597.5" y="646.7" class="st1" width="21.6" height="21.6"/>
	<rect x="560.6" y="646.7" class="st1" width="21.6" height="21.6"/>
	<rect x="523.8" y="646.7" class="st1" width="21.6" height="21.6"/>
	<rect x="486.9" y="646.7" class="st1" width="21.6" height="21.6"/>
	<rect x="450" y="646.7" class="st1" width="21.6" height="21.6"/>
	<rect x="781.9" y="683.5" class="st1" width="21.6" height="21.6"/>
	<rect x="745" y="683.5" class="st1" width="21.6" height="21.6"/>
	<rect x="708.1" y="683.5" class="st1" width="21.6" height="21.6"/>
	<rect x="671.3" y="683.5" class="st1" width="21.6" height="21.6"/>
	<rect x="634.4" y="683.5" class="st1" width="21.6" height="21.6"/>
	<rect x="597.5" y="683.5" class="st1" width="21.6" height="21.6"/>
	<rect x="560.6" y="683.5" class="st1" width="21.6" height="21.6"/>
	<rect x="523.8" y="683.5" class="st1" width="21.6" height="21.6"/>
	<rect x="486.9" y="683.5" class="st1" width="21.6" height="21.6"/>
	<rect x="781.9" y="720.4" class="st1" width="21.6" height="21.6"/>
	<rect x="745" y="720.4" class="st1" width="21.6" height="21.6"/>
	<rect x="708.1" y="720.4" class="st1" width="21.6" height="21.6"/>
	<rect x="671.3" y="720.4" class="st1" width="21.6" height="21.6"/>
	<rect x="634.4" y="720.4" class="st1" width="21.6" height="21.6"/>
	<rect x="597.5" y="720.4" class="st1" width="21.6" height="21.6"/>
	<rect x="560.6" y="720.4" class="st1" width="21.6" height="21.6"/>
	<rect x="523.8" y="720.4" class="st1" width="21.6" height="21.6"/>
	<rect x="781.9" y="757.3" class="st1" width="21.6" height="21.6"/>
	<rect x="745" y="757.3" class="st1" width="21.6" height="21.6"/>
	<rect x="708.1" y="757.3" class="st1" width="21.6" height="21.6"/>
	<rect x="671.3" y="757.3" class="st1" width="21.6" height="21.6"/>
	<rect x="634.4" y="757.3" class="st1" width="21.6" height="21.6"/>
	<rect x="597.5" y="757.3" class="st1" width="21.6" height="21.6"/>
	<rect x="560.6" y="757.3" class="st1" width="21.6" height="21.6"/>
	<rect x="781.9" y="794.2" class="st1" width="21.6" height="21.6"/>
	<rect x="745" y="794.2" class="st1" width="21.6" height="21.6"/>
	<rect x="708.1" y="794.2" class="st1" width="21.6" height="21.6"/>
	<rect x="671.3" y="794.2" class="st1" width="21.6" height="21.6"/>
	<rect x="634.4" y="794.2" class="st1" width="21.6" height="21.6"/>
	<rect x="597.5" y="794.2" class="st1" width="21.6" height="21.6"/>
	<rect x="745" y="831" class="st1" width="21.6" height="21.6"/>
</g>
<g>
</g>
<g>
</g>
<g>
</g>
<g>
</g>
<g>
</g>
<g>
</g>
</svg>
