<?xml version="1.0" encoding="utf-8"?>
<!-- Generator: Adobe Illustrator 16.0.4, SVG Export Plug-In . SVG Version: 6.00 Build 0)  -->
<!DOCTYPE svg PUBLIC "-//W3C//DTD SVG 1.1//EN" "http://www.w3.org/Graphics/SVG/1.1/DTD/svg11.dtd">
<svg version="1.1" id="Layer_1" xmlns="http://www.w3.org/2000/svg" xmlns:xlink="http://www.w3.org/1999/xlink" x="0px" y="0px"
	 width="1440px" height="900px" viewBox="0 0 1440 900" style="enable-background:new 0 0 1440 900;" xml:space="preserve">
<style type="text/css">
<![CDATA[
	.st0{display:none;fill:#FFFFFF;}
	.st1{clip-path:url(#SVGID_2_);fill:#4675BA;}
	.st2{clip-path:url(#SVGID_2_);fill:none;stroke:#FFFFFF;stroke-width:2;stroke-miterlimit:10;}
	.st3{display:inline;clip-path:url(#SVGID_8_);fill:none;stroke:#231F20;stroke-miterlimit:10;}
	.st4{clip-path:url(#SVGID_2_);fill:none;stroke:#FFFFFF;stroke-miterlimit:10;}
	.st5{display:inline;clip-path:url(#SVGID_4_);}
	.st6{clip-path:url(#SVGID_2_);fill:none;stroke:#FFFFFF;stroke-width:0.5;stroke-miterlimit:10;}
	.st7{display:inline;}
	.st8{display:none;}
	.st9{clip-path:url(#SVGID_2_);fill:#006838;}
]]>
</style>
<g>
	<defs>
		<rect id="SVGID_1_" width="1440" height="900"/>
	</defs>
	<clipPath id="SVGID_2_">
		<use xlink:href="#SVGID_1_"  style="overflow:visible;"/>
	</clipPath>
	<rect y="-900" class="st1" width="1440" height="900"/>
	<path class="st9" d="M1423,895H17c-6.6,0-12-5.4-12-12V17c0-6.6,5.4-12,12-12h1406c6.6,0,12,5.4,12,12v866
		C1435,889.6,1429.6,895,1423,895"/>
	<line class="st2" x1="39.9" y1="20.5" x2="39.9" y2="888.1"/>
	<line class="st2" x1="119.7" y1="20.5" x2="119.7" y2="888.1"/>
	<line class="st2" x1="199.6" y1="20.5" x2="199.6" y2="888.1"/>
	<line class="st2" x1="279.4" y1="20.5" x2="279.4" y2="888.1"/>
	<line class="st2" x1="359.3" y1="20.5" x2="359.3" y2="888.1"/>
	<line class="st2" x1="439.2" y1="20.5" x2="439.2" y2="888.1"/>
	<line class="st2" x1="519" y1="20.5" x2="519" y2="888.1"/>
	<line class="st2" x1="598.9" y1="20.5" x2="598.9" y2="888.1"/>
	<line class="st2" x1="678.8" y1="20.5" x2="678.8" y2="888.1"/>
	<line class="st2" x1="758.6" y1="20.5" x2="758.6" y2="888.1"/>
	<line class="st2" x1="838.5" y1="20.5" x2="838.5" y2="888.1"/>
	<line class="st2" x1="918.4" y1="20.5" x2="918.4" y2="888.1"/>
	<line class="st2" x1="998.2" y1="20.5" x2="998.2" y2="888.1"/>
	<line class="st2" x1="1078.1" y1="20.5" x2="1078.1" y2="888.1"/>
	<line class="st2" x1="1158" y1="20.5" x2="1158" y2="888.1"/>
	<line class="st2" x1="1237.8" y1="20.5" x2="1237.8" y2="888.1"/>
	<line class="st2" x1="1317.7" y1="20.5" x2="1317.7" y2="888.1"/>
	<line class="st2" x1="1397.5" y1="20.5" x2="1397.5" y2="888.1"/>
	<line class="st2" x1="10" y1="46.2" x2="1419.7" y2="46.2"/>
	<line class="st2" x1="10.5" y1="127.6" x2="1420.2" y2="127.6"/>
	<line class="st2" x1="11" y1="208.9" x2="1420.7" y2="208.9"/>
	<line class="st2" x1="11.5" y1="290.3" x2="1421.2" y2="290.3"/>
	<line class="st2" x1="12.1" y1="371.6" x2="1421.7" y2="371.6"/>
	<line class="st2" x1="12.6" y1="453" x2="1422.3" y2="453"/>
	<line class="st2" x1="13.1" y1="534.4" x2="1422.8" y2="534.4"/>
	<line class="st2" x1="13.6" y1="615.7" x2="1423.3" y2="615.7"/>
	<line class="st2" x1="14.1" y1="697.1" x2="1423.8" y2="697.1"/>
	<line class="st2" x1="14.6" y1="778.4" x2="1424.3" y2="778.4"/>
	<line class="st2" x1="15.2" y1="859.8" x2="1424.8" y2="859.8"/>
	<line class="st6" x1="75" y1="31.1" x2="75" y2="875.6"/>
	<line class="st6" x1="155.4" y1="31.2" x2="155.4" y2="875.6"/>
	<line class="st6" x1="235.8" y1="31.2" x2="235.8" y2="875.7"/>
	<line class="st6" x1="316.1" y1="31.3" x2="316.1" y2="875.7"/>
	<line class="st6" x1="396.5" y1="31.4" x2="396.5" y2="875.8"/>
	<line class="st6" x1="476.9" y1="31.4" x2="476.9" y2="875.9"/>
	<line class="st6" x1="557.3" y1="31.5" x2="557.3" y2="875.9"/>
	<line class="st6" x1="637.7" y1="31.5" x2="637.7" y2="876"/>
	<line class="st6" x1="718" y1="31.6" x2="718" y2="876"/>
	<line class="st6" x1="798.4" y1="31.7" x2="798.4" y2="876.1"/>
	<line class="st6" x1="878.8" y1="31.7" x2="878.8" y2="876.2"/>
	<line class="st6" x1="959.2" y1="31.8" x2="959.2" y2="876.2"/>
	<line class="st6" x1="1039.6" y1="31.8" x2="1039.6" y2="876.3"/>
	<line class="st6" x1="1120" y1="31.9" x2="1120" y2="876.3"/>
	<line class="st6" x1="1200.3" y1="32" x2="1200.3" y2="876.4"/>
	<line class="st6" x1="1280.7" y1="32" x2="1280.7" y2="876.5"/>
	<line class="st6" x1="1361.1" y1="32.1" x2="1361.1" y2="876.5"/>
	<line class="st6" x1="21.9" y1="818.4" x2="1409.2" y2="818.4"/>
	<line class="st6" x1="21.2" y1="736.7" x2="1408.5" y2="736.7"/>
	<line class="st6" x1="20.4" y1="655.1" x2="1407.7" y2="655.1"/>
	<line class="st6" x1="19.7" y1="573.5" x2="1407" y2="573.5"/>
	<line class="st6" x1="18.9" y1="491.8" x2="1406.2" y2="491.8"/>
	<line class="st6" x1="18.2" y1="410.2" x2="1405.5" y2="410.2"/>
	<line class="st6" x1="17.4" y1="328.5" x2="1404.7" y2="328.5"/>
	<line class="st6" x1="16.7" y1="246.9" x2="1404" y2="246.9"/>
	<line class="st6" x1="15.9" y1="165.2" x2="1403.2" y2="165.2"/>
	<line class="st6" x1="15.2" y1="83.6" x2="1402.5" y2="83.6"/>
	<line class="st4" x1="30.8" y1="54.2" x2="46.4" y2="54.2"/>
	<line class="st4" x1="30.8" y1="74.1" x2="46.4" y2="74.1"/>
	<line class="st4" x1="30.8" y1="94" x2="46.5" y2="94"/>
	<line class="st4" x1="30.9" y1="113.9" x2="46.5" y2="113.9"/>
	<line class="st4" x1="30.9" y1="133.8" x2="46.5" y2="133.8"/>
	<line class="st4" x1="30.9" y1="153.7" x2="46.6" y2="153.7"/>
	<line class="st4" x1="31" y1="173.7" x2="46.6" y2="173.7"/>
	<line class="st4" x1="31" y1="193.6" x2="46.6" y2="193.6"/>
	<line class="st4" x1="31" y1="213.5" x2="46.7" y2="213.5"/>
	<line class="st4" x1="31" y1="233.4" x2="46.7" y2="233.4"/>
	<line class="st4" x1="31.1" y1="253.3" x2="46.7" y2="253.3"/>
	<line class="st4" x1="31.1" y1="273.2" x2="46.8" y2="273.2"/>
	<line class="st4" x1="31.1" y1="293.1" x2="46.8" y2="293.1"/>
	<line class="st4" x1="31.2" y1="313" x2="46.8" y2="313"/>
	<line class="st4" x1="31.2" y1="332.9" x2="46.9" y2="332.9"/>
	<line class="st4" x1="31.2" y1="352.8" x2="46.9" y2="352.8"/>
	<line class="st4" x1="31.3" y1="372.7" x2="46.9" y2="372.7"/>
	<line class="st4" x1="31.3" y1="392.7" x2="47" y2="392.7"/>
	<line class="st4" x1="31.3" y1="412.6" x2="47" y2="412.6"/>
	<line class="st4" x1="31.4" y1="432.5" x2="47" y2="432.5"/>
	<line class="st4" x1="31.4" y1="452.4" x2="47" y2="452.4"/>
	<line class="st4" x1="31.4" y1="472.3" x2="47.1" y2="472.3"/>
	<line class="st4" x1="31.5" y1="492.2" x2="47.1" y2="492.2"/>
	<line class="st4" x1="31.5" y1="512.1" x2="47.1" y2="512.1"/>
	<line class="st4" x1="31.5" y1="532" x2="47.2" y2="532"/>
	<line class="st4" x1="31.6" y1="551.9" x2="47.2" y2="551.9"/>
	<line class="st4" x1="31.6" y1="571.8" x2="47.2" y2="571.8"/>
	<line class="st4" x1="31.6" y1="591.8" x2="47.3" y2="591.8"/>
	<line class="st4" x1="31.7" y1="611.7" x2="47.3" y2="611.7"/>
	<line class="st4" x1="31.7" y1="631.6" x2="47.3" y2="631.6"/>
	<line class="st4" x1="31.7" y1="651.5" x2="47.4" y2="651.5"/>
	<line class="st4" x1="31.7" y1="671.4" x2="47.4" y2="671.4"/>
	<line class="st4" x1="31.8" y1="691.3" x2="47.4" y2="691.3"/>
	<line class="st4" x1="31.8" y1="711.2" x2="47.5" y2="711.2"/>
	<line class="st4" x1="31.8" y1="731.1" x2="47.5" y2="731.1"/>
	<line class="st4" x1="31.9" y1="751" x2="47.5" y2="751"/>
	<line class="st4" x1="31.9" y1="770.9" x2="47.6" y2="770.9"/>
	<line class="st4" x1="31.9" y1="790.8" x2="47.6" y2="790.8"/>
	<line class="st4" x1="32" y1="810.8" x2="47.6" y2="810.8"/>
	<line class="st4" x1="32" y1="830.7" x2="47.6" y2="830.7"/>
	<line class="st4" x1="32" y1="850.6" x2="47.7" y2="850.6"/>
	<line class="st4" x1="21.9" y1="840.5" x2="58.4" y2="840.5"/>
	<line class="st4" x1="21.9" y1="820.6" x2="58.4" y2="820.6"/>
	<line class="st4" x1="21.9" y1="800.7" x2="58.4" y2="800.7"/>
	<line class="st4" x1="21.9" y1="780.7" x2="58.4" y2="780.7"/>
	<line class="st4" x1="21.9" y1="760.8" x2="58.4" y2="760.8"/>
	<line class="st4" x1="21.9" y1="740.9" x2="58.4" y2="740.9"/>
	<line class="st4" x1="21.9" y1="721" x2="58.4" y2="721"/>
	<line class="st4" x1="21.9" y1="701" x2="58.4" y2="701"/>
	<line class="st4" x1="21.9" y1="681.1" x2="58.4" y2="681.1"/>
	<line class="st4" x1="21.9" y1="661.2" x2="58.4" y2="661.2"/>
	<line class="st4" x1="21.9" y1="641.3" x2="58.4" y2="641.3"/>
	<line class="st4" x1="21.8" y1="621.4" x2="58.3" y2="621.4"/>
	<line class="st4" x1="21.8" y1="601.4" x2="58.3" y2="601.4"/>
	<line class="st4" x1="21.8" y1="581.5" x2="58.3" y2="581.5"/>
	<line class="st4" x1="21.8" y1="561.6" x2="58.3" y2="561.6"/>
	<line class="st4" x1="21.8" y1="541.7" x2="58.3" y2="541.7"/>
	<line class="st4" x1="21.8" y1="521.7" x2="58.3" y2="521.7"/>
	<line class="st4" x1="21.8" y1="501.8" x2="58.3" y2="501.8"/>
	<line class="st4" x1="21.8" y1="481.9" x2="58.3" y2="481.9"/>
	<line class="st4" x1="21.8" y1="462" x2="58.3" y2="462"/>
	<line class="st4" x1="21.8" y1="442.1" x2="58.3" y2="442.1"/>
	<line class="st4" x1="21.8" y1="422.1" x2="58.3" y2="422.1"/>
	<line class="st4" x1="21.8" y1="402.2" x2="58.3" y2="402.2"/>
	<line class="st4" x1="21.7" y1="382.3" x2="58.2" y2="382.3"/>
	<line class="st4" x1="21.7" y1="362.4" x2="58.2" y2="362.4"/>
	<line class="st4" x1="21.7" y1="342.4" x2="58.2" y2="342.4"/>
	<line class="st4" x1="21.7" y1="322.5" x2="58.2" y2="322.5"/>
	<line class="st4" x1="21.7" y1="302.6" x2="58.2" y2="302.6"/>
	<line class="st4" x1="21.7" y1="282.7" x2="58.2" y2="282.7"/>
	<line class="st4" x1="21.7" y1="262.7" x2="58.2" y2="262.7"/>
	<line class="st4" x1="21.7" y1="242.8" x2="58.2" y2="242.8"/>
	<line class="st4" x1="21.7" y1="222.9" x2="58.2" y2="222.9"/>
	<line class="st4" x1="21.7" y1="203" x2="58.2" y2="203"/>
	<line class="st4" x1="21.7" y1="183.1" x2="58.2" y2="183.1"/>
	<line class="st4" x1="21.6" y1="163.1" x2="58.1" y2="163.1"/>
	<line class="st4" x1="21.6" y1="143.2" x2="58.1" y2="143.2"/>
	<line class="st4" x1="21.6" y1="123.3" x2="58.1" y2="123.3"/>
	<line class="st4" x1="21.6" y1="103.4" x2="58.1" y2="103.4"/>
	<line class="st4" x1="21.6" y1="83.4" x2="58.1" y2="83.4"/>
	<line class="st4" x1="21.6" y1="63.5" x2="58.1" y2="63.5"/>
	<line class="st4" x1="47.7" y1="54" x2="47.7" y2="38.4"/>
	<line class="st4" x1="67.7" y1="54" x2="67.7" y2="38.4"/>
	<line class="st4" x1="87.7" y1="54" x2="87.7" y2="38.3"/>
	<line class="st4" x1="107.7" y1="54" x2="107.7" y2="38.3"/>
	<line class="st4" x1="127.7" y1="53.9" x2="127.7" y2="38.3"/>
	<line class="st4" x1="147.8" y1="53.9" x2="147.8" y2="38.3"/>
	<line class="st4" x1="167.8" y1="53.9" x2="167.8" y2="38.3"/>
	<line class="st4" x1="187.8" y1="53.9" x2="187.8" y2="38.2"/>
	<line class="st4" x1="207.8" y1="53.9" x2="207.8" y2="38.2"/>
	<line class="st4" x1="227.8" y1="53.8" x2="227.8" y2="38.2"/>
	<line class="st4" x1="247.8" y1="53.8" x2="247.8" y2="38.2"/>
	<line class="st4" x1="267.9" y1="53.8" x2="267.9" y2="38.2"/>
	<line class="st4" x1="287.9" y1="53.8" x2="287.9" y2="38.1"/>
	<line class="st4" x1="307.9" y1="53.8" x2="307.9" y2="38.1"/>
	<line class="st4" x1="327.9" y1="53.8" x2="327.9" y2="38.1"/>
	<line class="st4" x1="347.9" y1="53.7" x2="347.9" y2="38.1"/>
	<line class="st4" x1="367.9" y1="53.7" x2="367.9" y2="38.1"/>
	<line class="st4" x1="387.9" y1="53.7" x2="387.9" y2="38"/>
	<line class="st4" x1="408" y1="53.7" x2="408" y2="38"/>
	<line class="st4" x1="428" y1="53.7" x2="428" y2="38"/>
	<line class="st4" x1="448" y1="53.6" x2="448" y2="38"/>
	<line class="st4" x1="468" y1="53.6" x2="468" y2="38"/>
	<line class="st4" x1="488" y1="53.6" x2="488" y2="38"/>
	<line class="st4" x1="508" y1="53.6" x2="508" y2="37.9"/>
	<line class="st4" x1="528.1" y1="53.6" x2="528.1" y2="37.9"/>
	<line class="st4" x1="548.1" y1="53.5" x2="548.1" y2="37.9"/>
	<line class="st4" x1="568.1" y1="53.5" x2="568.1" y2="37.9"/>
	<line class="st4" x1="588.1" y1="53.5" x2="588.1" y2="37.9"/>
	<line class="st4" x1="608.1" y1="53.5" x2="608.1" y2="37.8"/>
	<line class="st4" x1="628.1" y1="53.5" x2="628.1" y2="37.8"/>
	<line class="st4" x1="648.2" y1="53.5" x2="648.2" y2="37.8"/>
	<line class="st4" x1="668.2" y1="53.4" x2="668.2" y2="37.8"/>
	<line class="st4" x1="688.2" y1="53.4" x2="688.2" y2="37.8"/>
	<line class="st4" x1="708.2" y1="53.4" x2="708.2" y2="37.7"/>
	<line class="st4" x1="728.2" y1="53.4" x2="728.2" y2="37.7"/>
	<line class="st4" x1="748.2" y1="53.4" x2="748.2" y2="37.7"/>
	<line class="st4" x1="768.2" y1="53.3" x2="768.2" y2="37.7"/>
	<line class="st4" x1="788.3" y1="53.3" x2="788.3" y2="37.7"/>
	<line class="st4" x1="808.3" y1="53.3" x2="808.3" y2="37.7"/>
	<line class="st4" x1="828.3" y1="53.3" x2="828.3" y2="37.6"/>
	<line class="st4" x1="848.3" y1="53.3" x2="848.3" y2="37.6"/>
	<line class="st4" x1="868.3" y1="53.2" x2="868.3" y2="37.6"/>
	<line class="st4" x1="888.3" y1="53.2" x2="888.3" y2="37.6"/>
	<line class="st4" x1="908.4" y1="53.2" x2="908.4" y2="37.6"/>
	<line class="st4" x1="928.4" y1="53.2" x2="928.4" y2="37.5"/>
	<line class="st4" x1="948.4" y1="53.2" x2="948.4" y2="37.5"/>
	<line class="st4" x1="968.4" y1="53.1" x2="968.4" y2="37.5"/>
	<line class="st4" x1="988.4" y1="53.1" x2="988.4" y2="37.5"/>
	<line class="st4" x1="1008.4" y1="53.1" x2="1008.4" y2="37.5"/>
	<line class="st4" x1="1028.4" y1="53.1" x2="1028.4" y2="37.4"/>
	<line class="st4" x1="1048.5" y1="53.1" x2="1048.5" y2="37.4"/>
	<line class="st4" x1="1068.5" y1="53.1" x2="1068.5" y2="37.4"/>
	<line class="st4" x1="1088.5" y1="53" x2="1088.5" y2="37.4"/>
	<line class="st4" x1="1108.5" y1="53" x2="1108.5" y2="37.4"/>
	<line class="st4" x1="1128.5" y1="53" x2="1128.5" y2="37.3"/>
	<line class="st4" x1="1148.5" y1="53" x2="1148.5" y2="37.3"/>
	<line class="st4" x1="1168.6" y1="53" x2="1168.6" y2="37.3"/>
	<line class="st4" x1="1188.6" y1="52.9" x2="1188.6" y2="37.3"/>
	<line class="st4" x1="1208.6" y1="52.9" x2="1208.6" y2="37.3"/>
	<line class="st4" x1="1228.6" y1="52.9" x2="1228.6" y2="37.3"/>
	<line class="st4" x1="1248.6" y1="52.9" x2="1248.6" y2="37.2"/>
	<line class="st4" x1="1268.6" y1="52.9" x2="1268.6" y2="37.2"/>
	<line class="st4" x1="1288.7" y1="52.8" x2="1288.7" y2="37.2"/>
	<line class="st4" x1="1308.7" y1="52.8" x2="1308.7" y2="37.2"/>
	<line class="st4" x1="1328.7" y1="52.8" x2="1328.7" y2="37.2"/>
	<line class="st4" x1="1348.7" y1="52.8" x2="1348.7" y2="37.1"/>
	<line class="st4" x1="1368.7" y1="52.8" x2="1368.7" y2="37.1"/>
	<line class="st4" x1="1388.7" y1="52.8" x2="1388.7" y2="37.1"/>
	<line class="st4" x1="58.4" y1="26.8" x2="58.4" y2="63.3"/>
	<line class="st4" x1="78.5" y1="26.8" x2="78.5" y2="63.3"/>
	<line class="st4" x1="98.5" y1="26.8" x2="98.5" y2="63.3"/>
	<line class="st4" x1="118.5" y1="26.8" x2="118.5" y2="63.3"/>
	<line class="st4" x1="138.5" y1="26.8" x2="138.5" y2="63.3"/>
	<line class="st4" x1="158.5" y1="26.8" x2="158.5" y2="63.3"/>
	<line class="st4" x1="178.5" y1="26.8" x2="178.5" y2="63.3"/>
	<line class="st4" x1="198.5" y1="26.8" x2="198.5" y2="63.3"/>
	<line class="st4" x1="218.5" y1="26.8" x2="218.5" y2="63.3"/>
	<line class="st4" x1="238.6" y1="26.8" x2="238.6" y2="63.3"/>
	<line class="st4" x1="258.6" y1="26.8" x2="258.6" y2="63.3"/>
	<line class="st4" x1="278.6" y1="26.8" x2="278.6" y2="63.3"/>
	<line class="st4" x1="298.6" y1="26.8" x2="298.6" y2="63.3"/>
	<line class="st4" x1="318.6" y1="26.8" x2="318.6" y2="63.3"/>
	<line class="st4" x1="338.6" y1="26.8" x2="338.6" y2="63.3"/>
	<line class="st4" x1="358.6" y1="26.8" x2="358.6" y2="63.3"/>
	<line class="st4" x1="378.7" y1="26.8" x2="378.7" y2="63.3"/>
	<line class="st4" x1="398.7" y1="26.8" x2="398.7" y2="63.3"/>
	<line class="st4" x1="418.7" y1="26.8" x2="418.7" y2="63.3"/>
	<line class="st4" x1="438.7" y1="26.7" x2="438.7" y2="63.3"/>
	<line class="st4" x1="458.7" y1="26.7" x2="458.7" y2="63.2"/>
	<line class="st4" x1="478.7" y1="26.7" x2="478.7" y2="63.2"/>
	<line class="st4" x1="498.7" y1="26.7" x2="498.7" y2="63.2"/>
	<line class="st4" x1="518.7" y1="26.7" x2="518.7" y2="63.2"/>
	<line class="st4" x1="538.8" y1="26.7" x2="538.8" y2="63.2"/>
	<line class="st4" x1="558.8" y1="26.7" x2="558.8" y2="63.2"/>
	<line class="st4" x1="578.8" y1="26.7" x2="578.8" y2="63.2"/>
	<line class="st4" x1="598.8" y1="26.7" x2="598.8" y2="63.2"/>
	<line class="st4" x1="618.8" y1="26.7" x2="618.8" y2="63.2"/>
	<line class="st4" x1="638.8" y1="26.7" x2="638.8" y2="63.2"/>
	<line class="st4" x1="658.8" y1="26.7" x2="658.8" y2="63.2"/>
	<line class="st4" x1="678.8" y1="26.7" x2="678.8" y2="63.2"/>
	<line class="st4" x1="698.9" y1="26.7" x2="698.9" y2="63.2"/>
	<line class="st4" x1="718.9" y1="26.7" x2="718.9" y2="63.2"/>
	<line class="st4" x1="738.9" y1="26.7" x2="738.9" y2="63.2"/>
	<line class="st4" x1="758.9" y1="26.7" x2="758.9" y2="63.2"/>
	<line class="st4" x1="778.9" y1="26.7" x2="778.9" y2="63.2"/>
	<line class="st4" x1="798.9" y1="26.7" x2="798.9" y2="63.2"/>
	<line class="st4" x1="818.9" y1="26.7" x2="818.9" y2="63.2"/>
	<line class="st4" x1="839" y1="26.6" x2="839" y2="63.1"/>
	<line class="st4" x1="859" y1="26.6" x2="859" y2="63.1"/>
	<line class="st4" x1="879" y1="26.6" x2="879" y2="63.1"/>
	<line class="st4" x1="899" y1="26.6" x2="899" y2="63.1"/>
	<line class="st4" x1="919" y1="26.6" x2="919" y2="63.1"/>
	<line class="st4" x1="939" y1="26.6" x2="939" y2="63.1"/>
	<line class="st4" x1="959" y1="26.6" x2="959" y2="63.1"/>
	<line class="st4" x1="979" y1="26.6" x2="979" y2="63.1"/>
	<line class="st4" x1="999.1" y1="26.6" x2="999.1" y2="63.1"/>
	<line class="st4" x1="1019.1" y1="26.6" x2="1019.1" y2="63.1"/>
	<line class="st4" x1="1039.1" y1="26.6" x2="1039.1" y2="63.1"/>
	<line class="st4" x1="1059.1" y1="26.6" x2="1059.1" y2="63.1"/>
	<line class="st4" x1="1079.1" y1="26.6" x2="1079.1" y2="63.1"/>
	<line class="st4" x1="1099.1" y1="26.6" x2="1099.1" y2="63.1"/>
	<line class="st4" x1="1119.1" y1="26.6" x2="1119.1" y2="63.1"/>
	<line class="st4" x1="1139.1" y1="26.6" x2="1139.1" y2="63.1"/>
	<line class="st4" x1="1159.2" y1="26.6" x2="1159.2" y2="63.1"/>
	<line class="st4" x1="1179.2" y1="26.6" x2="1179.2" y2="63.1"/>
	<line class="st4" x1="1199.2" y1="26.6" x2="1199.2" y2="63.1"/>
	<line class="st4" x1="1219.2" y1="26.5" x2="1219.2" y2="63.1"/>
	<line class="st4" x1="1239.2" y1="26.5" x2="1239.2" y2="63"/>
	<line class="st4" x1="1259.2" y1="26.5" x2="1259.2" y2="63"/>
	<line class="st4" x1="1279.2" y1="26.5" x2="1279.2" y2="63"/>
	<line class="st4" x1="1299.2" y1="26.5" x2="1299.2" y2="63"/>
	<line class="st4" x1="1319.3" y1="26.5" x2="1319.3" y2="63"/>
	<line class="st4" x1="1339.3" y1="26.5" x2="1339.3" y2="63"/>
	<line class="st4" x1="1359.3" y1="26.5" x2="1359.3" y2="63"/>
	<line class="st4" x1="1379.3" y1="26.5" x2="1379.3" y2="63"/>
	<line class="st4" x1="1379.5" y1="842.8" x2="1416" y2="842.8"/>
	<line class="st4" x1="1379.5" y1="822.9" x2="1416" y2="822.9"/>
	<line class="st4" x1="1379.4" y1="803" x2="1416" y2="803"/>
	<line class="st4" x1="1379.4" y1="783" x2="1415.9" y2="783"/>
	<line class="st4" x1="1379.4" y1="763.1" x2="1415.9" y2="763.1"/>
	<line class="st4" x1="1379.4" y1="743.2" x2="1415.9" y2="743.2"/>
	<line class="st4" x1="1379.4" y1="723.3" x2="1415.9" y2="723.3"/>
	<line class="st4" x1="1379.4" y1="703.3" x2="1415.9" y2="703.3"/>
	<line class="st4" x1="1379.4" y1="683.4" x2="1415.9" y2="683.4"/>
	<line class="st4" x1="1379.4" y1="663.5" x2="1415.9" y2="663.5"/>
	<line class="st4" x1="1379.4" y1="643.6" x2="1415.9" y2="643.6"/>
	<line class="st4" x1="1379.4" y1="623.7" x2="1415.9" y2="623.7"/>
	<line class="st4" x1="1379.4" y1="603.7" x2="1415.9" y2="603.7"/>
	<line class="st4" x1="1379.4" y1="583.8" x2="1415.9" y2="583.8"/>
	<line class="st4" x1="1379.3" y1="563.9" x2="1415.8" y2="563.9"/>
	<line class="st4" x1="1379.3" y1="544" x2="1415.8" y2="544"/>
	<line class="st4" x1="1379.3" y1="524" x2="1415.8" y2="524"/>
	<line class="st4" x1="1379.3" y1="504.1" x2="1415.8" y2="504.1"/>
	<line class="st4" x1="1379.3" y1="484.2" x2="1415.8" y2="484.2"/>
	<line class="st4" x1="1379.3" y1="464.3" x2="1415.8" y2="464.3"/>
	<line class="st4" x1="1379.3" y1="444.3" x2="1415.8" y2="444.3"/>
	<line class="st4" x1="1379.3" y1="424.4" x2="1415.8" y2="424.4"/>
	<line class="st4" x1="1379.3" y1="404.5" x2="1415.8" y2="404.5"/>
	<line class="st4" x1="1379.3" y1="384.6" x2="1415.8" y2="384.6"/>
	<line class="st4" x1="1379.3" y1="364.7" x2="1415.8" y2="364.7"/>
	<line class="st4" x1="1379.2" y1="344.7" x2="1415.8" y2="344.7"/>
	<line class="st4" x1="1379.2" y1="324.8" x2="1415.7" y2="324.8"/>
	<line class="st4" x1="1379.2" y1="304.9" x2="1415.7" y2="304.9"/>
	<line class="st4" x1="1379.2" y1="285" x2="1415.7" y2="285"/>
	<line class="st4" x1="1379.2" y1="265" x2="1415.7" y2="265"/>
	<line class="st4" x1="1379.2" y1="245.1" x2="1415.7" y2="245.1"/>
	<line class="st4" x1="1379.2" y1="225.2" x2="1415.7" y2="225.2"/>
	<line class="st4" x1="1379.2" y1="205.3" x2="1415.7" y2="205.3"/>
	<line class="st4" x1="1379.2" y1="185.3" x2="1415.7" y2="185.3"/>
	<line class="st4" x1="1379.2" y1="165.4" x2="1415.7" y2="165.4"/>
	<line class="st4" x1="1379.2" y1="145.5" x2="1415.7" y2="145.5"/>
	<line class="st4" x1="1379.2" y1="125.6" x2="1415.7" y2="125.6"/>
	<line class="st4" x1="1379.1" y1="105.7" x2="1415.6" y2="105.7"/>
	<line class="st4" x1="1379.1" y1="85.7" x2="1415.6" y2="85.7"/>
	<line class="st4" x1="1379.1" y1="65.8" x2="1415.6" y2="65.8"/>
	<line class="st4" x1="1389.3" y1="56.1" x2="1404.9" y2="56.1"/>
	<line class="st4" x1="1389.3" y1="76" x2="1404.9" y2="76"/>
	<line class="st4" x1="1389.3" y1="95.9" x2="1405" y2="95.9"/>
	<line class="st4" x1="1389.4" y1="115.8" x2="1405" y2="115.8"/>
	<line class="st4" x1="1389.4" y1="135.8" x2="1405" y2="135.8"/>
	<line class="st4" x1="1389.4" y1="155.7" x2="1405.1" y2="155.7"/>
	<line class="st4" x1="1389.5" y1="175.6" x2="1405.1" y2="175.6"/>
	<line class="st4" x1="1389.5" y1="195.5" x2="1405.1" y2="195.5"/>
	<line class="st4" x1="1389.5" y1="215.4" x2="1405.2" y2="215.4"/>
	<line class="st4" x1="1389.5" y1="235.3" x2="1405.2" y2="235.3"/>
	<line class="st4" x1="1389.6" y1="255.2" x2="1405.2" y2="255.2"/>
	<line class="st4" x1="1389.6" y1="275.1" x2="1405.3" y2="275.1"/>
	<line class="st4" x1="1389.6" y1="295" x2="1405.3" y2="295"/>
	<line class="st4" x1="1389.7" y1="314.9" x2="1405.3" y2="314.9"/>
	<line class="st4" x1="1389.7" y1="334.9" x2="1405.4" y2="334.9"/>
	<line class="st4" x1="1389.7" y1="354.8" x2="1405.4" y2="354.8"/>
	<line class="st4" x1="1389.8" y1="374.7" x2="1405.4" y2="374.7"/>
	<line class="st4" x1="1389.8" y1="394.6" x2="1405.4" y2="394.6"/>
	<line class="st4" x1="1389.8" y1="414.5" x2="1405.5" y2="414.5"/>
	<line class="st4" x1="1389.9" y1="434.4" x2="1405.5" y2="434.4"/>
	<line class="st4" x1="1389.9" y1="454.3" x2="1405.5" y2="454.3"/>
	<line class="st4" x1="1389.9" y1="474.2" x2="1405.6" y2="474.2"/>
	<line class="st4" x1="1390" y1="494.1" x2="1405.6" y2="494.1"/>
	<line class="st4" x1="1390" y1="514" x2="1405.6" y2="514"/>
	<line class="st4" x1="1390" y1="533.9" x2="1405.7" y2="533.9"/>
	<line class="st4" x1="1390.1" y1="553.9" x2="1405.7" y2="553.9"/>
	<line class="st4" x1="1390.1" y1="573.8" x2="1405.7" y2="573.8"/>
	<line class="st4" x1="1390.1" y1="593.7" x2="1405.8" y2="593.7"/>
	<line class="st4" x1="1390.1" y1="613.6" x2="1405.8" y2="613.6"/>
	<line class="st4" x1="1390.2" y1="633.5" x2="1405.8" y2="633.5"/>
	<line class="st4" x1="1390.2" y1="653.4" x2="1405.9" y2="653.4"/>
	<line class="st4" x1="1390.2" y1="673.3" x2="1405.9" y2="673.3"/>
	<line class="st4" x1="1390.3" y1="693.2" x2="1405.9" y2="693.2"/>
	<line class="st4" x1="1390.3" y1="713.1" x2="1406" y2="713.1"/>
	<line class="st4" x1="1390.3" y1="733" x2="1406" y2="733"/>
	<line class="st4" x1="1390.4" y1="752.9" x2="1406" y2="752.9"/>
	<line class="st4" x1="1390.4" y1="772.9" x2="1406" y2="772.9"/>
	<line class="st4" x1="1390.4" y1="792.8" x2="1406.1" y2="792.8"/>
	<line class="st4" x1="1390.5" y1="812.7" x2="1406.1" y2="812.7"/>
	<line class="st4" x1="1390.5" y1="832.6" x2="1406.1" y2="832.6"/>
	<line class="st4" x1="1390.5" y1="852.5" x2="1406.2" y2="852.5"/>
	<line class="st2" x1="198.8" y1="860.8" x2="690.7" y2="45.9"/>
	<line class="st2" x1="198.8" y1="860.8" x2="994.8" y2="44.9"/>
	<line class="st2" x1="742.3" y1="303.7" x2="1316.9" y2="859.8"/>
	<line class="st4" x1="49.5" y1="868.9" x2="49.5" y2="853.3"/>
	<line class="st4" x1="69.5" y1="868.9" x2="69.5" y2="853.2"/>
	<line class="st4" x1="89.5" y1="868.9" x2="89.5" y2="853.2"/>
	<line class="st4" x1="109.5" y1="868.8" x2="109.5" y2="853.2"/>
	<line class="st4" x1="129.5" y1="868.8" x2="129.5" y2="853.2"/>
	<line class="st4" x1="149.6" y1="868.8" x2="149.6" y2="853.2"/>
	<line class="st4" x1="169.6" y1="868.8" x2="169.6" y2="853.1"/>
	<line class="st4" x1="189.6" y1="868.8" x2="189.6" y2="853.1"/>
	<line class="st4" x1="209.6" y1="868.8" x2="209.6" y2="853.1"/>
	<line class="st4" x1="229.6" y1="868.7" x2="229.6" y2="853.1"/>
	<line class="st4" x1="249.6" y1="868.7" x2="249.6" y2="853.1"/>
	<line class="st4" x1="269.6" y1="868.7" x2="269.6" y2="853"/>
	<line class="st4" x1="289.7" y1="868.7" x2="289.7" y2="853"/>
	<line class="st4" x1="309.7" y1="868.7" x2="309.7" y2="853"/>
	<line class="st4" x1="329.7" y1="868.6" x2="329.7" y2="853"/>
	<line class="st4" x1="349.7" y1="868.6" x2="349.7" y2="853"/>
	<line class="st4" x1="369.7" y1="868.6" x2="369.7" y2="853"/>
	<line class="st4" x1="389.7" y1="868.6" x2="389.7" y2="852.9"/>
	<line class="st4" x1="409.8" y1="868.6" x2="409.8" y2="852.9"/>
	<line class="st4" x1="429.8" y1="868.5" x2="429.8" y2="852.9"/>
	<line class="st4" x1="449.8" y1="868.5" x2="449.8" y2="852.9"/>
	<line class="st4" x1="469.8" y1="868.5" x2="469.8" y2="852.9"/>
	<line class="st4" x1="489.8" y1="868.5" x2="489.8" y2="852.8"/>
	<line class="st4" x1="509.8" y1="868.5" x2="509.8" y2="852.8"/>
	<line class="st4" x1="529.9" y1="868.4" x2="529.9" y2="852.8"/>
	<line class="st4" x1="549.9" y1="868.4" x2="549.9" y2="852.8"/>
	<line class="st4" x1="569.9" y1="868.4" x2="569.9" y2="852.8"/>
	<line class="st4" x1="589.9" y1="868.4" x2="589.9" y2="852.7"/>
	<line class="st4" x1="609.9" y1="868.4" x2="609.9" y2="852.7"/>
	<line class="st4" x1="629.9" y1="868.4" x2="629.9" y2="852.7"/>
	<line class="st4" x1="649.9" y1="868.3" x2="649.9" y2="852.7"/>
	<line class="st4" x1="670" y1="868.3" x2="670" y2="852.7"/>
	<line class="st4" x1="690" y1="868.3" x2="690" y2="852.6"/>
	<line class="st4" x1="710" y1="868.3" x2="710" y2="852.6"/>
	<line class="st4" x1="730" y1="868.3" x2="730" y2="852.6"/>
	<line class="st4" x1="750" y1="868.2" x2="750" y2="852.6"/>
	<line class="st4" x1="770" y1="868.2" x2="770" y2="852.6"/>
	<line class="st4" x1="790.1" y1="868.2" x2="790.1" y2="852.6"/>
	<line class="st4" x1="810.1" y1="868.2" x2="810.1" y2="852.5"/>
	<line class="st4" x1="830.1" y1="868.2" x2="830.1" y2="852.5"/>
	<line class="st4" x1="850.1" y1="868.1" x2="850.1" y2="852.5"/>
	<line class="st4" x1="870.1" y1="868.1" x2="870.1" y2="852.5"/>
	<line class="st4" x1="890.1" y1="868.1" x2="890.1" y2="852.5"/>
	<line class="st4" x1="910.1" y1="868.1" x2="910.1" y2="852.4"/>
	<line class="st4" x1="930.2" y1="868.1" x2="930.2" y2="852.4"/>
	<line class="st4" x1="950.2" y1="868.1" x2="950.2" y2="852.4"/>
	<line class="st4" x1="970.2" y1="868" x2="970.2" y2="852.4"/>
	<line class="st4" x1="990.2" y1="868" x2="990.2" y2="852.4"/>
	<line class="st4" x1="1010.2" y1="868" x2="1010.2" y2="852.3"/>
	<line class="st4" x1="1030.2" y1="868" x2="1030.2" y2="852.3"/>
	<line class="st4" x1="1050.3" y1="868" x2="1050.3" y2="852.3"/>
	<line class="st4" x1="1070.3" y1="867.9" x2="1070.3" y2="852.3"/>
	<line class="st4" x1="1090.3" y1="867.9" x2="1090.3" y2="852.3"/>
	<line class="st4" x1="1110.3" y1="867.9" x2="1110.3" y2="852.3"/>
	<line class="st4" x1="1130.3" y1="867.9" x2="1130.3" y2="852.2"/>
	<line class="st4" x1="1150.3" y1="867.9" x2="1150.3" y2="852.2"/>
	<line class="st4" x1="1170.4" y1="867.8" x2="1170.4" y2="852.2"/>
	<line class="st4" x1="1190.4" y1="867.8" x2="1190.4" y2="852.2"/>
	<line class="st4" x1="1210.4" y1="867.8" x2="1210.4" y2="852.2"/>
	<line class="st4" x1="1230.4" y1="867.8" x2="1230.4" y2="852.1"/>
	<line class="st4" x1="1250.4" y1="867.8" x2="1250.4" y2="852.1"/>
	<line class="st4" x1="1270.4" y1="867.7" x2="1270.4" y2="852.1"/>
	<line class="st4" x1="1290.4" y1="867.7" x2="1290.4" y2="852.1"/>
	<line class="st4" x1="1310.5" y1="867.7" x2="1310.5" y2="852.1"/>
	<line class="st4" x1="1330.5" y1="867.7" x2="1330.5" y2="852"/>
	<line class="st4" x1="1350.5" y1="867.7" x2="1350.5" y2="852"/>
	<line class="st4" x1="1370.5" y1="867.7" x2="1370.5" y2="852"/>
	<line class="st4" x1="1390.5" y1="867.6" x2="1390.5" y2="852"/>
	<line class="st4" x1="60.2" y1="841.7" x2="60.2" y2="878.2"/>
	<line class="st4" x1="80.3" y1="841.7" x2="80.3" y2="878.2"/>
	<line class="st4" x1="100.3" y1="841.7" x2="100.3" y2="878.2"/>
	<line class="st4" x1="120.3" y1="841.7" x2="120.3" y2="878.2"/>
	<line class="st4" x1="140.3" y1="841.7" x2="140.3" y2="878.2"/>
	<line class="st4" x1="160.3" y1="841.7" x2="160.3" y2="878.2"/>
	<line class="st4" x1="180.3" y1="841.7" x2="180.3" y2="878.2"/>
	<line class="st4" x1="200.3" y1="841.7" x2="200.3" y2="878.2"/>
	<line class="st4" x1="220.3" y1="841.7" x2="220.3" y2="878.2"/>
	<line class="st4" x1="240.4" y1="841.7" x2="240.4" y2="878.2"/>
	<line class="st4" x1="260.4" y1="841.7" x2="260.4" y2="878.2"/>
	<line class="st4" x1="280.4" y1="841.7" x2="280.4" y2="878.2"/>
	<line class="st4" x1="300.4" y1="841.7" x2="300.4" y2="878.2"/>
	<line class="st4" x1="320.4" y1="841.7" x2="320.4" y2="878.2"/>
	<line class="st4" x1="340.4" y1="841.7" x2="340.4" y2="878.2"/>
	<line class="st4" x1="360.4" y1="841.7" x2="360.4" y2="878.2"/>
	<line class="st4" x1="380.4" y1="841.6" x2="380.4" y2="878.1"/>
	<line class="st4" x1="400.5" y1="841.6" x2="400.5" y2="878.1"/>
	<line class="st4" x1="420.5" y1="841.6" x2="420.5" y2="878.1"/>
	<line class="st4" x1="440.5" y1="841.6" x2="440.5" y2="878.1"/>
	<line class="st4" x1="460.5" y1="841.6" x2="460.5" y2="878.1"/>
	<line class="st4" x1="480.5" y1="841.6" x2="480.5" y2="878.1"/>
	<line class="st4" x1="500.5" y1="841.6" x2="500.5" y2="878.1"/>
	<line class="st4" x1="520.5" y1="841.6" x2="520.5" y2="878.1"/>
	<line class="st4" x1="540.6" y1="841.6" x2="540.6" y2="878.1"/>
	<line class="st4" x1="560.6" y1="841.6" x2="560.6" y2="878.1"/>
	<line class="st4" x1="580.6" y1="841.6" x2="580.6" y2="878.1"/>
	<line class="st4" x1="600.6" y1="841.6" x2="600.6" y2="878.1"/>
	<line class="st4" x1="620.6" y1="841.6" x2="620.6" y2="878.1"/>
	<line class="st4" x1="640.6" y1="841.6" x2="640.6" y2="878.1"/>
	<line class="st4" x1="660.6" y1="841.6" x2="660.6" y2="878.1"/>
	<line class="st4" x1="680.6" y1="841.6" x2="680.6" y2="878.1"/>
	<line class="st4" x1="700.7" y1="841.6" x2="700.7" y2="878.1"/>
	<line class="st4" x1="720.7" y1="841.6" x2="720.7" y2="878.1"/>
	<line class="st4" x1="740.7" y1="841.6" x2="740.7" y2="878.1"/>
	<line class="st4" x1="760.7" y1="841.5" x2="760.7" y2="878.1"/>
	<line class="st4" x1="780.7" y1="841.5" x2="780.7" y2="878"/>
	<line class="st4" x1="800.7" y1="841.5" x2="800.7" y2="878"/>
	<line class="st4" x1="820.7" y1="841.5" x2="820.7" y2="878"/>
	<line class="st4" x1="840.7" y1="841.5" x2="840.7" y2="878"/>
	<line class="st4" x1="860.8" y1="841.5" x2="860.8" y2="878"/>
	<line class="st4" x1="880.8" y1="841.5" x2="880.8" y2="878"/>
	<line class="st4" x1="900.8" y1="841.5" x2="900.8" y2="878"/>
	<line class="st4" x1="920.8" y1="841.5" x2="920.8" y2="878"/>
	<line class="st4" x1="940.8" y1="841.5" x2="940.8" y2="878"/>
	<line class="st4" x1="960.8" y1="841.5" x2="960.8" y2="878"/>
	<line class="st4" x1="980.8" y1="841.5" x2="980.8" y2="878"/>
	<line class="st4" x1="1000.8" y1="841.5" x2="1000.8" y2="878"/>
	<line class="st4" x1="1020.9" y1="841.5" x2="1020.9" y2="878"/>
	<line class="st4" x1="1040.9" y1="841.5" x2="1040.9" y2="878"/>
	<line class="st4" x1="1060.9" y1="841.5" x2="1060.9" y2="878"/>
	<line class="st4" x1="1080.9" y1="841.5" x2="1080.9" y2="878"/>
	<line class="st4" x1="1100.9" y1="841.5" x2="1100.9" y2="878"/>
	<line class="st4" x1="1120.9" y1="841.5" x2="1120.9" y2="878"/>
	<line class="st4" x1="1140.9" y1="841.5" x2="1140.9" y2="878"/>
	<line class="st4" x1="1161" y1="841.4" x2="1161" y2="877.9"/>
	<line class="st4" x1="1181" y1="841.4" x2="1181" y2="877.9"/>
	<line class="st4" x1="1201" y1="841.4" x2="1201" y2="877.9"/>
	<line class="st4" x1="1221" y1="841.4" x2="1221" y2="877.9"/>
	<line class="st4" x1="1241" y1="841.4" x2="1241" y2="877.9"/>
	<line class="st4" x1="1261" y1="841.4" x2="1261" y2="877.9"/>
	<line class="st4" x1="1281" y1="841.4" x2="1281" y2="877.9"/>
	<line class="st4" x1="1301" y1="841.4" x2="1301" y2="877.9"/>
	<line class="st4" x1="1321.1" y1="841.4" x2="1321.1" y2="877.9"/>
	<line class="st4" x1="1341.1" y1="841.4" x2="1341.1" y2="877.9"/>
	<line class="st4" x1="1361.1" y1="841.4" x2="1361.1" y2="877.9"/>
	<line class="st4" x1="1381.1" y1="841.4" x2="1381.1" y2="877.9"/>
</g>
<g class="st8">
	<defs>
		<path id="SVGID_3_" d="M0,900h1440H0z"/>
	</defs>
	<clipPath id="SVGID_4_" class="st7">
		<use xlink:href="#SVGID_3_"  style="overflow:visible;"/>
	</clipPath>
	<g class="st5">
		<defs>
			<rect id="SVGID_5_" y="900" width="1440" height="900"/>
		</defs>
		<clipPath id="SVGID_6_">
			<use xlink:href="#SVGID_5_"  style="overflow:visible;"/>
		</clipPath>
		<g transform="matrix(1 0 0 1 0 0)" style="clip-path:url(#SVGID_6_);">
			
				<image style="overflow:visible;" width="1500" height="1167" xlink:href="6C0E076C85323E.jpg"  transform="matrix(0.96 0 0 0.7712 0 900)">
			</image>
		</g>
	</g>
</g>
<path class="st0" d="M94.8,170.8c-11,0-13.4-15.2-3.5-29.6c9.6-13.8,19.1-19.3,25.2-19.3c4.7,0,7.1,3.7,7.1,7.9
	c1.8-3,3.4-5.4,4.2-6.6c1-1.4,1.9-1.8,2.9-0.7c1.9,2.2,2.8,7.2,0.1,13.2c-2.4,5.4-8.8,14.8-11.4,20.9c-2.9,6.8-2.4,11.3,1.3,10.9
	c7.7-0.7,18.5-15.5,24.1-33.1c-9.7-3.5,1.7-19.8,6.5-20.2c3.7-0.2,2.5,6.8,0,15.1c4.3-0.5,8.8-2.5,13.3-5.6c1.7-1.2,2.5-1.4,3.6-0.2
	c2.3,2.5,5.2,8,1.7,12.1c-5.6,6.5-11.8,14.9-13.7,20.9c-2,6.6-0.7,11.3,3,11.5c5,0.4,11-7.6,14.9-16.6c0.5-1,1.3-1.2,1.8,0
	c0.6,1.4,1,4.4-0.5,7.8c-3.1,7.2-10.2,12.5-16.8,12.2c-9.1-0.4-12.7-8.6-9.8-18.2c2.4-7.9,9.7-16.8,14.9-22.6
	c-5.3,3.1-10.4,4.4-14.2,4.4c-5.9,16.9-16.7,35-29.5,36c-6.6,0.5-10.2-3.7-10.1-9.8C106.1,166.1,100.7,170.8,94.8,170.8z
	 M99.3,145.9c-6.5,10.3-7.8,20.8-3.1,20.9c4.8,0.1,11-7.2,17.2-18c7.4-13.1,8.5-20.6,5-20.9C114.6,127.7,105.9,135.4,99.3,145.9z
	 M209.1,129.7c2.5,5-2.3,11.4-4.7,17.9c-0.5,1.4-1,1.8-2.5,1c-2.9-1.4-4.6-5-2.9-10.4c1.3-4.3,4.9-9.5,3.2-10.8
	c-2-1.7-11,6-16.4,16.9c-6.6,13.6-4.1,23.5,3,23.6c10.1,0.1,18.7-9.5,23.6-17c0.6-1,1.7-1.1,2.2,0.1c0.4,1-0.1,4-2.2,7.2
	c-4.6,7.1-14,13-23.2,13.1c-15.2,0.2-20.4-14.6-12.6-30.1c7.7-15.1,19.8-21.6,25.8-18C205.7,125.1,207.6,127,209.1,129.7z
	 M240.3,171.4c-10.1,0-12.6-7.3-9-17.8c4-11.6,14.4-24.1,12.5-25.2c-1.7-1-14.8,7.2-21.7,18.6c-4.3,7.1-8.8,15.5-11.6,22.8
	c-0.5,1.1-1.3,1.3-2,0.5c-1.9-2.2-3-5.5-0.5-12.7c4.2-12,29.2-54.2,38.9-66.4c1.1-1.4,2.3-1.3,2.9,0.1c1.6,3.5,1.2,9.5-3.4,17
	c-2.9,4.8-9.2,14.5-14.4,22.6c4.9-4.8,11.2-8.8,14.4-8.4c4.1,0.5,7.8,6.5,4.7,12.6c-2.6,5.3-8.4,14-11.2,20.3c-3,7-2.4,12.6,2,12.4
	c4.9-0.2,11.5-8.9,15.2-16.6c0.5-1.1,1.7-1.1,2.2-0.1c0.6,1.3,0.6,3.8-1.2,7.4C254.7,165.4,247.4,171.4,240.3,171.4z M255.7,153.7
	c3-8.8,10.9-22.9,15.4-29.2c1.1-1.4,1.9-1.8,2.9-0.7c1.8,1.9,2.8,7.1-0.1,13.1c-2.5,5.3-7.6,13.4-10.1,19.4
	c-2.9,7-2.6,11.6,1.2,11.4c5.4-0.2,12-8.2,15.6-16.4c0.6-1.1,1.4-1,1.9,0c1,1.9,0.6,4.4-0.8,7.4c-3.6,7.4-11.2,12.5-17.9,12.5
	C254.6,171.2,252.3,163.6,255.7,153.7z M282.4,122.4c-1.6,1.7-4.9,1.3-6.7-1.8c-1.9-3.2-1.3-6.8,0.6-8.9s5.4-0.6,7,2.6
	C284.8,117.5,284,120.7,282.4,122.4z M286.7,119.7c-1.2-1.7-0.5-2.5,1.3-2.4c3.4,0.1,6.7-0.1,10-0.5c3.7-6.6,7.1-12.2,9.1-14.9
	c1.1-1.6,2.3-1.4,2.9,0c1.3,3.4,1.3,7.3-1.6,13.6c4.7-0.1,6.5,2,7.4,3.6c0.8,1.4,0.4,2.3-1.4,2.3c-2.6-0.4-6.4,0-9.4,0.5
	c-4.7,8-11.5,19.7-16.1,29.8c-4,8.8-2.6,16.2,2.4,16.4c5.4,0.2,12.2-8.3,16.7-17.3c0.7-1.4,2-1.7,2.5,0c0.6,1.9,0,4.1-1.2,6.8
	c-1.6,3.5-9.5,14-19.1,13.7c-7.9-0.2-14.3-9.1-8.5-22.9c2.5-6,7.6-16.1,12.7-25.6C290.5,122.8,287.7,121,286.7,119.7z M319.3,167.9
	c10,0.5,18.7-9.1,23.9-17c0.6-1,1.6-1,2,0.1c0.5,1,0.1,4.3-2,7.4c-5,7.3-14.3,12.8-23.5,13c-15.2,0.2-20.5-14.8-12.7-30.2
	s20-21.7,26-18.2c3,1.8,5.2,3.6,7.1,6.2c2.2,2.9,1.2,10.2-3.8,16.3c-5.9,7.2-13.9,10.3-22.3,3.5C310,160,312.9,167.5,319.3,167.9z
	 M329.2,140.3c3.8-5,6.5-11.3,4.8-12.6c-2.5-2-12.5,5.2-18.1,16.6c-0.4,0.7-0.7,1.4-1,2C320.8,150,325.7,144.9,329.2,140.3z
	 M377.5,129.7c2.5,5-2.3,11.4-4.7,17.9c-0.5,1.4-1,1.8-2.5,1c-2.9-1.4-4.6-5-2.9-10.4c1.3-4.3,4.9-9.5,3.2-10.8
	c-2-1.7-11,6-16.4,16.9c-6.6,13.6-4.1,23.5,3,23.6c10.1,0.1,18.7-9.5,23.6-17c0.6-1,1.7-1.1,2.2,0.1c0.4,1-0.1,4-2.2,7.2
	c-4.6,7.1-14,13-23.2,13.1c-15.2,0.2-20.4-14.6-12.6-30.1c7.7-15.1,19.8-21.6,25.8-18C374.1,125.1,376,127,377.5,129.7z
	 M385.7,119.7c-1.2-1.7-0.5-2.5,1.3-2.4c3.4,0.1,6.7-0.1,10-0.5c3.7-6.6,7.1-12.2,9.1-14.9c1.1-1.6,2.3-1.4,2.9,0
	c1.3,3.4,1.3,7.3-1.6,13.6c4.7-0.1,6.5,2,7.4,3.6c0.8,1.4,0.4,2.3-1.4,2.3c-2.6-0.4-6.4,0-9.4,0.5c-4.7,8-11.5,19.7-16.1,29.8
	c-4,8.8-2.6,16.2,2.4,16.4c5.4,0.2,12.2-8.3,16.7-17.3c0.7-1.4,2-1.7,2.5,0c0.6,1.9,0,4.1-1.2,6.8c-1.6,3.5-9.5,14-19.1,13.7
	c-7.9-0.2-14.3-9.1-8.5-22.9c2.5-6,7.6-16.1,12.7-25.6C389.5,122.8,386.7,121,385.7,119.7z M475,171.2c-9.4-0.2-13-8.5-10-18.1
	c2.5-8,10-17,15-22.8c-5.3,3.4-10.4,4.6-14.4,4.6c-6.2,15.8-16.4,35-29.4,36.1c-7.2,0.6-10.7-4.3-10.1-11.2
	c-4.2,5.6-10.2,11.5-16.8,11c-8.6-0.6-8.8-9.5-6.1-17.3c2.6-7.9,8.5-19.6,16.6-30.4c1-1.2,1.9-1.3,2.8-0.1c2.9,4,2.3,8.9-2,16.1
	c-4.2,7.1-7.2,11.9-9.5,17.5c-2.4,5.9-2,10.1,0.6,10.3c4.7,0.4,11.4-7.9,17.8-18.2c7.6-12.4,10.9-20.4,14.8-25.6
	c1.1-1.4,1.9-1.7,2.9-0.7c1.8,1.9,2.8,7.2-0.1,13.2c-2.5,5.4-8.6,14.4-11.3,20.5c-3,6.8-2.4,11.5,1.3,11.2
	c7.7-0.7,17.6-16.1,24-33.1c-9.6-3.6,1.7-19.8,6.6-20.2c3.8-0.2,2.9,7.2,0.2,15.1c4.2-0.6,8.5-2.5,13.2-5.6c1.4-1.2,2.6-1.6,3.6-0.4
	c2.2,2.6,5.2,8.2,1.6,12.2c-5.6,6.4-11.4,14.6-13.6,20.8c-2.3,6.6-0.8,11.4,3,11.6c4.8,0.2,10.9-7.6,14.8-16.6
	c0.5-1.1,1.3-1.1,1.8,0c0.6,1.3,0.8,4.2-0.6,7.8C488.6,166.3,481.4,171.4,475,171.2z M505.4,167.9c10,0.5,18.7-9.1,23.9-17
	c0.6-1,1.6-1,2,0.1c0.5,1,0.1,4.3-2,7.4c-5,7.3-14.3,12.8-23.5,13c-15.2,0.2-20.5-14.8-12.7-30.2c7.8-15.5,20-21.7,26-18.2
	c3,1.8,5.2,3.6,7.1,6.2c2.2,2.9,1.2,10.2-3.8,16.3c-5.9,7.2-13.9,10.3-22.3,3.5C496.1,160,499,167.5,505.4,167.9z M515.3,140.3
	c3.8-5,6.5-11.3,4.8-12.6c-2.5-2-12.5,5.2-18.1,16.6c-0.4,0.7-0.7,1.4-1,2C506.9,150,511.9,144.9,515.3,140.3z"/>
<g class="st8">
	<defs>
		<rect id="SVGID_7_" width="1440" height="900"/>
	</defs>
	<clipPath id="SVGID_8_" class="st7">
		<use xlink:href="#SVGID_7_"  style="overflow:visible;"/>
	</clipPath>
	<path class="st3" d="M118.4,127.9c3.5,0.2,2.4,7.8-5,20.9c-6.1,10.8-12.4,18.1-17.2,18c-4.7-0.1-3.4-10.6,3.1-20.9
		C105.9,135.4,114.7,127.7,118.4,127.9z M110,161.2c-0.1,6.1,3.5,10.3,10.1,9.8c12.8-1,23.6-19.1,29.5-36c3.7,0,8.9-1.3,14.2-4.4
		c-5.2,5.8-12.5,14.6-14.9,22.6c-2.9,9.6,0.7,17.9,9.8,18.2c6.6,0.2,13.7-5,16.8-12.2c1.4-3.4,1.1-6.4,0.5-7.8c-0.5-1.2-1.3-1-1.8,0
		c-3.8,9-9.8,16.9-14.9,16.6c-3.7-0.2-5-4.9-3-11.5c1.9-6,8-14.4,13.7-20.9c3.5-4.1,0.6-9.6-1.7-12.1c-1.1-1.2-1.9-1-3.6,0.2
		c-4.6,3.1-9,5.2-13.3,5.6c2.5-8.3,3.7-15.4,0-15.1c-4.8,0.4-16.2,16.7-6.5,20.2c-5.6,17.6-16.4,32.4-24.1,33.1
		c-3.7,0.4-4.2-4.1-1.3-10.9c2.6-6.1,9-15.5,11.4-20.9c2.6-6,1.8-11-0.1-13.2c-1-1.1-1.9-0.7-2.9,0.7c-0.8,1.2-2.4,3.6-4.2,6.6
		c0-4.2-2.4-7.9-7.1-7.9c-6.1,0-15.6,5.5-25.2,19.3c-10,14.4-7.6,29.6,3.5,29.6C100.7,170.8,106.1,166.1,110,161.2z"/>
	<path class="st3" d="M202.5,123.1c-6-3.6-18.1,2.9-25.8,18c-7.8,15.5-2.6,30.4,12.6,30.1c9.1-0.1,18.6-6,23.2-13.1
		c2-3.2,2.5-6.2,2.2-7.2c-0.5-1.2-1.6-1.1-2.2-0.1c-4.9,7.6-13.6,17.2-23.6,17c-7.1-0.1-9.6-10.1-3-23.6
		c5.4-10.9,14.4-18.6,16.4-16.9c1.7,1.3-1.9,6.5-3.2,10.8c-1.7,5.4,0,9,2.9,10.4c1.6,0.8,2,0.5,2.5-1c2.4-6.5,7.2-12.8,4.7-17.9
		C207.6,127,205.7,125.1,202.5,123.1z"/>
	<path class="st3" d="M258,158.5c1.8-3.6,1.8-6.1,1.2-7.4c-0.5-1-1.7-1-2.2,0.1c-3.7,7.7-10.3,16.3-15.2,16.6c-4.4,0.2-5-5.4-2-12.4
		c2.8-6.2,8.5-15,11.2-20.3c3.1-6.1-0.6-12.1-4.7-12.6c-3.2-0.4-9.5,3.6-14.4,8.4c5.2-8,11.5-17.8,14.4-22.6
		c4.6-7.6,4.9-13.6,3.4-17c-0.6-1.4-1.8-1.6-2.9-0.1c-9.7,12.1-34.7,54.4-38.9,66.4c-2.5,7.2-1.4,10.6,0.5,12.7
		c0.7,0.8,1.6,0.6,2-0.5c2.9-7.3,7.3-15.7,11.6-22.8c7-11.4,20-19.6,21.7-18.6c1.9,1.1-8.5,13.6-12.5,25.2
		c-3.6,10.4-1.1,17.8,9,17.8C247.4,171.4,254.7,165.4,258,158.5z"/>
	<path class="st3" d="M263.7,171.2c6.7,0,14.3-5,17.9-12.5c1.4-3,1.8-5.5,0.8-7.4c-0.5-1-1.3-1.1-1.9,0
		c-3.6,8.3-10.2,16.2-15.6,16.4c-3.8,0.2-4.1-4.4-1.2-11.4c2.5-6,7.6-14.2,10.1-19.4c2.9-6,1.9-11.2,0.1-13.1
		c-1-1.1-1.8-0.7-2.9,0.7c-4.4,6.2-12.4,20.4-15.4,29.2C252.3,163.6,254.6,171.2,263.7,171.2z M283.2,114.4c-1.6-3.2-5-4.7-7-2.6
		s-2.5,5.6-0.6,8.9c1.8,3.1,5.2,3.5,6.7,1.8S284.8,117.5,283.2,114.4z"/>
	<path class="st3" d="M294.5,122.8c-5.2,9.5-10.2,19.6-12.7,25.6c-5.8,13.8,0.6,22.7,8.5,22.9c9.6,0.4,17.5-10.2,19.1-13.7
		c1.2-2.8,1.8-4.9,1.2-6.8c-0.5-1.7-1.8-1.4-2.5,0c-4.4,9-11.3,17.5-16.7,17.3c-5-0.2-6.4-7.7-2.4-16.4
		c4.6-10.1,11.4-21.7,16.1-29.8c3-0.5,6.7-0.8,9.4-0.5c1.8,0,2.3-0.8,1.4-2.3c-1-1.6-2.8-3.7-7.4-3.6c2.9-6.2,2.9-10.2,1.6-13.6
		c-0.6-1.4-1.8-1.6-2.9,0c-2,2.6-5.4,8.3-9.1,14.9c-3.2,0.4-6.6,0.6-10,0.5c-1.8-0.1-2.5,0.7-1.3,2.4
		C287.7,121,290.4,122.8,294.5,122.8z"/>
	<path class="st3" d="M314.9,146.3c0.2-0.6,0.6-1.3,1-2c5.6-11.4,15.6-18.6,18.1-16.6c1.7,1.3-1,7.6-4.8,12.6
		C325.7,144.9,320.8,150,314.9,146.3z M313.8,148.9c8.4,6.8,16.4,3.7,22.3-3.5c5-6.1,6-13.4,3.8-16.3c-1.9-2.6-4.1-4.4-7.1-6.2
		c-6-3.5-18.2,2.8-26,18.2s-2.5,30.5,12.7,30.2c9.2-0.1,18.5-5.6,23.5-13c2.2-3.1,2.5-6.5,2-7.4c-0.5-1.1-1.4-1.1-2-0.1
		c-5.2,7.9-13.9,17.5-23.9,17C312.9,167.5,310,160,313.8,148.9z"/>
	<path class="st3" d="M370.8,123.1c-6-3.6-18.1,2.9-25.8,18c-7.8,15.5-2.6,30.4,12.6,30.1c9.1-0.1,18.6-6,23.2-13.1
		c2-3.2,2.5-6.2,2.2-7.2c-0.5-1.2-1.6-1.1-2.2-0.1c-4.9,7.6-13.6,17.2-23.6,17c-7.1-0.1-9.6-10.1-3-23.6
		c5.4-10.9,14.4-18.6,16.4-16.9c1.7,1.3-1.9,6.5-3.2,10.8c-1.7,5.4,0,9,2.9,10.4c1.6,0.8,2,0.5,2.5-1c2.4-6.5,7.2-12.8,4.7-17.9
		C376,127,374.1,125.1,370.8,123.1z"/>
	<path class="st3" d="M393.5,122.8c-5.2,9.5-10.2,19.6-12.7,25.6c-5.8,13.8,0.6,22.7,8.5,22.9c9.6,0.4,17.5-10.2,19.1-13.7
		c1.2-2.8,1.8-4.9,1.2-6.8c-0.5-1.7-1.8-1.4-2.5,0c-4.4,9-11.3,17.5-16.7,17.3c-5-0.2-6.4-7.7-2.4-16.4
		c4.6-10.1,11.4-21.7,16.1-29.8c3-0.5,6.7-0.8,9.4-0.5c1.8,0,2.3-0.8,1.4-2.3c-1-1.6-2.8-3.7-7.4-3.6c2.9-6.2,2.9-10.2,1.6-13.6
		c-0.6-1.4-1.8-1.6-2.9,0c-2,2.6-5.4,8.3-9.1,14.9c-3.2,0.4-6.6,0.6-10,0.5c-1.8-0.1-2.5,0.7-1.3,2.4
		C386.7,121,389.4,122.8,393.5,122.8z"/>
	<path class="st3" d="M491.6,159.1c1.4-3.6,1.2-6.5,0.6-7.8c-0.5-1.1-1.3-1.1-1.8,0c-3.8,9-10,16.8-14.8,16.6c-3.8-0.2-5.3-5-3-11.6
		c2.2-6.1,7.9-14.4,13.6-20.8c3.6-4.1,0.6-9.6-1.6-12.2c-1-1.2-2.2-0.8-3.6,0.4c-4.7,3.1-9,5-13.2,5.6c2.6-7.9,3.6-15.4-0.2-15.1
		c-4.9,0.4-16.2,16.6-6.6,20.2c-6.4,17-16.3,32.4-24,33.1c-3.7,0.4-4.3-4.3-1.3-11.2c2.6-6.1,8.8-15.1,11.3-20.5
		c2.9-6,1.9-11.3,0.1-13.2c-1-1-1.8-0.7-2.9,0.7c-3.8,5.2-7.2,13.2-14.8,25.6c-6.4,10.3-13.1,18.6-17.8,18.2
		c-2.6-0.2-3-4.4-0.6-10.3c2.3-5.6,5.3-10.4,9.5-17.5c4.3-7.2,4.9-12.1,2-16.1c-0.8-1.2-1.8-1.1-2.8,0.1
		c-8,10.8-13.9,22.4-16.6,30.4c-2.6,7.8-2.5,16.7,6.1,17.3c6.6,0.5,12.6-5.4,16.8-11c-0.6,6.8,2.9,11.8,10.1,11.2
		c13-1.1,23.2-20.3,29.4-36.1c4,0,9.1-1.2,14.4-4.6c-5,5.8-12.5,14.8-15,22.8c-3,9.6,0.6,17.9,10,18.1
		C481.4,171.4,488.6,166.3,491.6,159.1z"/>
	<path class="st3" d="M501,146.3c0.2-0.6,0.6-1.3,1-2c5.6-11.4,15.6-18.6,18.1-16.6c1.7,1.3-1,7.6-4.8,12.6
		C511.8,144.9,506.9,150,501,146.3z M500,148.9c8.4,6.8,16.4,3.7,22.3-3.5c5-6.1,6-13.4,3.8-16.3c-1.9-2.6-4.1-4.4-7.1-6.2
		c-6-3.5-18.2,2.8-26,18.2c-7.8,15.5-2.5,30.5,12.7,30.2c9.2-0.1,18.5-5.6,23.5-13c2.2-3.1,2.5-6.5,2-7.4c-0.5-1.1-1.4-1.1-2-0.1
		c-5.2,7.9-13.9,17.5-23.9,17C499,167.5,496.1,160,500,148.9z"/>
</g>
</svg>
