<?xml version="1.0" encoding="utf-8"?>
<!-- Generator: Adobe Illustrator 16.0.4, SVG Export Plug-In . SVG Version: 6.00 Build 0)  -->
<!DOCTYPE svg PUBLIC "-//W3C//DTD SVG 1.1//EN" "http://www.w3.org/Graphics/SVG/1.1/DTD/svg11.dtd">
<svg version="1.1" id="Layer_1" xmlns="http://www.w3.org/2000/svg" xmlns:xlink="http://www.w3.org/1999/xlink" x="0px" y="0px"
	 width="1440px" height="900px" viewBox="0 0 1440 900" style="enable-background:new 0 0 1440 900;" xml:space="preserve">
<style type="text/css">
<![CDATA[
	.st0{fill:#4675BA;}
	.st1{display:none;fill:#FFFFFF;}
	.st2{display:inline;clip-path:url(#SVGID_2_);fill:none;stroke:#000000;stroke-miterlimit:10;}
	.st3{display:inline;fill:#FFFFFF;}
	.st4{fill:#FFFFFF;}
	.st5{display:inline;}
	.st6{fill:none;stroke:#FFFFFF;stroke-width:0.25;stroke-miterlimit:10;}
	.st7{display:none;}
]]>
</style>
<g id="Layer_2">
	<g>
		<rect class="st0" width="1440" height="900"/>
		<path class="st4" d="M10,890V10V890z"/>
		<line class="st6" x1="10" y1="10" x2="10" y2="890"/>
		<path class="st4" d="M30,890V10V890z"/>
		<line class="st6" x1="30" y1="10" x2="30" y2="890"/>
		<path class="st4" d="M50,890V10V890z"/>
		<line class="st6" x1="50" y1="10" x2="50" y2="890"/>
		<path class="st4" d="M70,890V10V890z"/>
		<line class="st6" x1="70" y1="10" x2="70" y2="890"/>
		<path class="st4" d="M90,890V10V890z"/>
		<line class="st6" x1="90" y1="10" x2="90" y2="890"/>
		<path class="st4" d="M110,890V10V890z"/>
		<line class="st6" x1="110" y1="10" x2="110" y2="890"/>
		<path class="st4" d="M130,890V10V890z"/>
		<line class="st6" x1="130" y1="10" x2="130" y2="890"/>
		<path class="st4" d="M150,890V10V890z"/>
		<line class="st6" x1="150" y1="10" x2="150" y2="890"/>
		<path class="st4" d="M170,890V10V890z"/>
		<line class="st6" x1="170" y1="10" x2="170" y2="890"/>
		<path class="st4" d="M190,890V10V890z"/>
		<line class="st6" x1="190" y1="10" x2="190" y2="890"/>
		<path class="st4" d="M210,890V10V890z"/>
		<line class="st6" x1="210" y1="10" x2="210" y2="890"/>
		<path class="st4" d="M230,890V10V890z"/>
		<line class="st6" x1="230" y1="10" x2="230" y2="890"/>
		<path class="st4" d="M250,890V10V890z"/>
		<line class="st6" x1="250" y1="10" x2="250" y2="890"/>
		<path class="st4" d="M270,890V10V890z"/>
		<line class="st6" x1="270" y1="10" x2="270" y2="890"/>
		<path class="st4" d="M290,890V10V890z"/>
		<line class="st6" x1="290" y1="10" x2="290" y2="890"/>
		<path class="st4" d="M310,890V10V890z"/>
		<line class="st6" x1="310" y1="10" x2="310" y2="890"/>
		<path class="st4" d="M330,890V10V890z"/>
		<line class="st6" x1="330" y1="10" x2="330" y2="890"/>
		<path class="st4" d="M350,890V10V890z"/>
		<line class="st6" x1="350" y1="10" x2="350" y2="890"/>
		<path class="st4" d="M370,890V10V890z"/>
		<line class="st6" x1="370" y1="10" x2="370" y2="890"/>
		<path class="st4" d="M390,890V10V890z"/>
		<line class="st6" x1="390" y1="10" x2="390" y2="890"/>
		<path class="st4" d="M410,890V10V890z"/>
		<line class="st6" x1="410" y1="10" x2="410" y2="890"/>
		<path class="st4" d="M430,890V10V890z"/>
		<line class="st6" x1="430" y1="10" x2="430" y2="890"/>
		<path class="st4" d="M450,890V10V890z"/>
		<line class="st6" x1="450" y1="10" x2="450" y2="890"/>
		<path class="st4" d="M470,890V10V890z"/>
		<line class="st6" x1="470" y1="10" x2="470" y2="890"/>
		<path class="st4" d="M490,890V10V890z"/>
		<line class="st6" x1="490" y1="10" x2="490" y2="890"/>
		<path class="st4" d="M510,890V10V890z"/>
		<line class="st6" x1="510" y1="10" x2="510" y2="890"/>
		<path class="st4" d="M530,890V10V890z"/>
		<line class="st6" x1="530" y1="10" x2="530" y2="890"/>
		<path class="st4" d="M550,890V10V890z"/>
		<line class="st6" x1="550" y1="10" x2="550" y2="890"/>
		<path class="st4" d="M570,890V10V890z"/>
		<line class="st6" x1="570" y1="10" x2="570" y2="890"/>
		<path class="st4" d="M590,890V10V890z"/>
		<line class="st6" x1="590" y1="10" x2="590" y2="890"/>
		<path class="st4" d="M610,890V10V890z"/>
		<line class="st6" x1="610" y1="10" x2="610" y2="890"/>
		<path class="st4" d="M630,890V10V890z"/>
		<line class="st6" x1="630" y1="10" x2="630" y2="890"/>
		<path class="st4" d="M650,890V10V890z"/>
		<line class="st6" x1="650" y1="10" x2="650" y2="890"/>
		<path class="st4" d="M670,890V10V890z"/>
		<line class="st6" x1="670" y1="10" x2="670" y2="890"/>
		<path class="st4" d="M690,890V10V890z"/>
		<line class="st6" x1="690" y1="10" x2="690" y2="890"/>
		<path class="st4" d="M710,890V10V890z"/>
		<line class="st6" x1="710" y1="10" x2="710" y2="890"/>
		<path class="st4" d="M730,890V10V890z"/>
		<line class="st6" x1="730" y1="10" x2="730" y2="890"/>
		<path class="st4" d="M750,890V10V890z"/>
		<line class="st6" x1="750" y1="10" x2="750" y2="890"/>
		<path class="st4" d="M770,890V10V890z"/>
		<line class="st6" x1="770" y1="10" x2="770" y2="890"/>
		<path class="st4" d="M790,890V10V890z"/>
		<line class="st6" x1="790" y1="10" x2="790" y2="890"/>
		<path class="st4" d="M810,890V10V890z"/>
		<line class="st6" x1="810" y1="10" x2="810" y2="890"/>
		<path class="st4" d="M830,890V10V890z"/>
		<line class="st6" x1="830" y1="10" x2="830" y2="890"/>
		<path class="st4" d="M850,890V10V890z"/>
		<line class="st6" x1="850" y1="10" x2="850" y2="890"/>
		<path class="st4" d="M870,890V10V890z"/>
		<line class="st6" x1="870" y1="10" x2="870" y2="890"/>
		<path class="st4" d="M890,890V10V890z"/>
		<line class="st6" x1="890" y1="10" x2="890" y2="890"/>
		<path class="st4" d="M910,890V10V890z"/>
		<line class="st6" x1="910" y1="10" x2="910" y2="890"/>
		<path class="st4" d="M930,890V10V890z"/>
		<line class="st6" x1="930" y1="10" x2="930" y2="890"/>
		<path class="st4" d="M950,890V10V890z"/>
		<line class="st6" x1="950" y1="10" x2="950" y2="890"/>
		<path class="st4" d="M970,890V10V890z"/>
		<line class="st6" x1="970" y1="10" x2="970" y2="890"/>
		<path class="st4" d="M990,890V10V890z"/>
		<line class="st6" x1="990" y1="10" x2="990" y2="890"/>
		<path class="st4" d="M1010,890V10V890z"/>
		<line class="st6" x1="1010" y1="10" x2="1010" y2="890"/>
		<path class="st4" d="M1030,890V10V890z"/>
		<line class="st6" x1="1030" y1="10" x2="1030" y2="890"/>
		<path class="st4" d="M1050,890V10V890z"/>
		<line class="st6" x1="1050" y1="10" x2="1050" y2="890"/>
		<path class="st4" d="M1070,890V10V890z"/>
		<line class="st6" x1="1070" y1="10" x2="1070" y2="890"/>
		<path class="st4" d="M1090,890V10V890z"/>
		<line class="st6" x1="1090" y1="10" x2="1090" y2="890"/>
		<path class="st4" d="M1110,890V10V890z"/>
		<line class="st6" x1="1110" y1="10" x2="1110" y2="890"/>
		<path class="st4" d="M1130,890V10V890z"/>
		<line class="st6" x1="1130" y1="10" x2="1130" y2="890"/>
		<path class="st4" d="M1150,890V10V890z"/>
		<line class="st6" x1="1150" y1="10" x2="1150" y2="890"/>
		<path class="st4" d="M1170,890V10V890z"/>
		<line class="st6" x1="1170" y1="10" x2="1170" y2="890"/>
		<path class="st4" d="M1190,890V10V890z"/>
		<line class="st6" x1="1190" y1="10" x2="1190" y2="890"/>
		<path class="st4" d="M1210,890V10V890z"/>
		<line class="st6" x1="1210" y1="10" x2="1210" y2="890"/>
		<path class="st4" d="M1230,890V10V890z"/>
		<line class="st6" x1="1230" y1="10" x2="1230" y2="890"/>
		<path class="st4" d="M1250,890V10V890z"/>
		<line class="st6" x1="1250" y1="10" x2="1250" y2="890"/>
		<path class="st4" d="M1270,890V10V890z"/>
		<line class="st6" x1="1270" y1="10" x2="1270" y2="890"/>
		<path class="st4" d="M1290,890V10V890z"/>
		<line class="st6" x1="1290" y1="10" x2="1290" y2="890"/>
		<path class="st4" d="M1310,890V10V890z"/>
		<line class="st6" x1="1310" y1="10" x2="1310" y2="890"/>
		<path class="st4" d="M1330,890V10V890z"/>
		<line class="st6" x1="1330" y1="10" x2="1330" y2="890"/>
		<path class="st4" d="M1350,890V10V890z"/>
		<line class="st6" x1="1350" y1="10" x2="1350" y2="890"/>
		<path class="st4" d="M1370,890V10V890z"/>
		<line class="st6" x1="1370" y1="10" x2="1370" y2="890"/>
		<path class="st4" d="M1390,890V10V890z"/>
		<line class="st6" x1="1390" y1="10" x2="1390" y2="890"/>
		<path class="st4" d="M1410,890V10V890z"/>
		<line class="st6" x1="1410" y1="10" x2="1410" y2="890"/>
		<path class="st4" d="M1430,890V10V890z"/>
		<line class="st6" x1="1430" y1="10" x2="1430" y2="890"/>
		<line class="st6" x1="10" y1="10" x2="1430" y2="10"/>
		<line class="st6" x1="10" y1="30" x2="1430" y2="30"/>
		<line class="st6" x1="10" y1="50" x2="1430" y2="50"/>
		<line class="st6" x1="10" y1="70" x2="1430" y2="70"/>
		<line class="st6" x1="10" y1="90" x2="1430" y2="90"/>
		<line class="st6" x1="10" y1="110" x2="1430" y2="110"/>
		<line class="st6" x1="10" y1="130" x2="1430" y2="130"/>
		<line class="st6" x1="10" y1="150" x2="1430" y2="150"/>
		<line class="st6" x1="10" y1="170" x2="1430" y2="170"/>
		<line class="st6" x1="10" y1="190" x2="1430" y2="190"/>
		<line class="st6" x1="10" y1="210" x2="1430" y2="210"/>
		<line class="st6" x1="10" y1="230" x2="1430" y2="230"/>
		<line class="st6" x1="10" y1="250" x2="1430" y2="250"/>
		<line class="st6" x1="10" y1="270" x2="1430" y2="270"/>
		<line class="st6" x1="10" y1="290" x2="1430" y2="290"/>
		<line class="st6" x1="10" y1="310" x2="1430" y2="310"/>
		<line class="st6" x1="10" y1="330" x2="1430" y2="330"/>
		<line class="st6" x1="10" y1="350" x2="1430" y2="350"/>
		<line class="st6" x1="10" y1="370" x2="1430" y2="370"/>
		<line class="st6" x1="10" y1="390" x2="1430" y2="390"/>
		<line class="st6" x1="10" y1="410" x2="1430" y2="410"/>
		<line class="st6" x1="10" y1="430" x2="1430" y2="430"/>
		<line class="st6" x1="10" y1="450" x2="1430" y2="450"/>
		<line class="st6" x1="10" y1="470" x2="1430" y2="470"/>
		<line class="st6" x1="10" y1="490" x2="1430" y2="490"/>
		<line class="st6" x1="10" y1="510" x2="1430" y2="510"/>
		<line class="st6" x1="10" y1="530" x2="1430" y2="530"/>
		<line class="st6" x1="10" y1="550" x2="1430" y2="550"/>
		<line class="st6" x1="10" y1="570" x2="1430" y2="570"/>
		<line class="st6" x1="10" y1="590" x2="1430" y2="590"/>
		<line class="st6" x1="10" y1="610" x2="1430" y2="610"/>
		<line class="st6" x1="10" y1="630" x2="1430" y2="630"/>
		<line class="st6" x1="10" y1="650" x2="1430" y2="650"/>
		<line class="st6" x1="10" y1="670" x2="1430" y2="670"/>
		<line class="st6" x1="10" y1="690" x2="1430" y2="690"/>
		<line class="st6" x1="10" y1="710" x2="1430" y2="710"/>
		<line class="st6" x1="10" y1="730" x2="1430" y2="730"/>
		<line class="st6" x1="10" y1="750" x2="1430" y2="750"/>
		<line class="st6" x1="10" y1="770" x2="1430" y2="770"/>
		<line class="st6" x1="10" y1="790" x2="1430" y2="790"/>
		<line class="st6" x1="10" y1="810" x2="1430" y2="810"/>
		<line class="st6" x1="10" y1="830" x2="1430" y2="830"/>
		<line class="st6" x1="10" y1="850" x2="1430" y2="850"/>
		<line class="st6" x1="10" y1="870" x2="1430" y2="870"/>
		<line class="st6" x1="10" y1="890" x2="1430" y2="890"/>
	</g>
</g>
<rect x="461.5" y="54" class="st1" width="612" height="792"/>
<g class="st7">
	<path class="st5" d="M547.9,205.1c-0.1-1.9-0.2-4.1-0.2-5.8h-0.1c-0.5,1.6-1,3.3-1.7,5.1l-2.4,6.5h-1.3l-2.2-6.4
		c-0.6-1.9-1.2-3.6-1.6-5.2h0c0,1.7-0.1,3.9-0.3,6l-0.4,5.8h-1.7l0.9-13.5h2.2l2.3,6.5c0.6,1.7,1,3.1,1.4,4.5h0.1
		c0.3-1.4,0.8-2.8,1.4-4.5l2.4-6.5h2.2l0.8,13.5h-1.7L547.9,205.1z"/>
	<path class="st5" d="M553.2,201.3l2.1,5.7c0.2,0.6,0.5,1.4,0.6,2h0c0.2-0.6,0.4-1.3,0.6-2l1.9-5.7h1.9l-2.6,6.9
		c-1.3,3.3-2.1,5-3.3,6.1c-0.9,0.8-1.7,1.1-2.2,1.1l-0.4-1.5c0.4-0.1,1-0.4,1.5-0.9c0.5-0.4,1.1-1.1,1.5-2c0.1-0.2,0.1-0.3,0.1-0.4
		c0-0.1,0-0.2-0.1-0.5l-3.6-8.9H553.2z"/>
	<path class="st5" d="M566.2,203.9c0-1,0-1.8-0.1-2.6h1.6l0.1,1.6h0c0.5-0.9,1.6-1.8,3.2-1.8c1.3,0,3.4,0.8,3.4,4.1v5.8h-1.8v-5.6
		c0-1.6-0.6-2.9-2.2-2.9c-1.2,0-2.1,0.8-2.4,1.8c-0.1,0.2-0.1,0.5-0.1,0.8v5.8h-1.8V203.9z"/>
	<path class="st5" d="M582.7,211l-0.1-1.2h-0.1c-0.5,0.8-1.6,1.4-3,1.4c-2,0-3-1.4-3-2.8c0-2.3,2.1-3.6,5.8-3.6v-0.2
		c0-0.8-0.2-2.2-2.2-2.2c-0.9,0-1.8,0.3-2.5,0.7l-0.4-1.2c0.8-0.5,2-0.9,3.2-0.9c3,0,3.7,2,3.7,4v3.6c0,0.8,0,1.7,0.2,2.3H582.7z
		 M582.4,206.1c-1.9,0-4.1,0.3-4.1,2.2c0,1.1,0.8,1.7,1.7,1.7c1.3,0,2.1-0.8,2.3-1.6c0.1-0.2,0.1-0.4,0.1-0.6V206.1z"/>
	<path class="st5" d="M587,203.9c0-1,0-1.8-0.1-2.6h1.5l0.1,1.6h0.1c0.5-0.9,1.4-1.8,3-1.8c1.3,0,2.3,0.8,2.7,1.9h0
		c0.3-0.5,0.7-1,1.1-1.3c0.6-0.4,1.2-0.7,2.1-0.7c1.3,0,3.2,0.8,3.2,4.2v5.7h-1.7v-5.5c0-1.9-0.7-3-2.1-3c-1,0-1.8,0.7-2.1,1.6
		c-0.1,0.2-0.1,0.6-0.1,0.9v6H593v-5.8c0-1.5-0.7-2.7-2-2.7c-1.1,0-1.9,0.9-2.2,1.8c-0.1,0.3-0.1,0.6-0.1,0.9v5.8H587V203.9z"/>
	<path class="st5" d="M604.6,206.5c0,2.4,1.6,3.4,3.3,3.4c1.3,0,2-0.2,2.7-0.5l0.3,1.3c-0.6,0.3-1.7,0.6-3.2,0.6c-3,0-4.8-2-4.8-4.9
		c0-2.9,1.7-5.2,4.5-5.2c3.2,0,4,2.8,4,4.6c0,0.4,0,0.6-0.1,0.8H604.6z M609.8,205.2c0-1.1-0.5-2.9-2.4-2.9c-1.8,0-2.6,1.6-2.7,2.9
		H609.8z"/>
	<path class="st5" d="M619.9,198.6c0,0.6-0.4,1.1-1.1,1.1c-0.6,0-1.1-0.5-1.1-1.1c0-0.6,0.5-1.1,1.1-1.1
		C619.4,197.5,619.9,198,619.9,198.6z M617.9,211v-9.7h1.8v9.7H617.9z"/>
	<path class="st5" d="M622.3,209.2c0.5,0.3,1.4,0.7,2.3,0.7c1.3,0,1.9-0.6,1.9-1.4c0-0.8-0.5-1.3-1.8-1.8c-1.7-0.6-2.6-1.6-2.6-2.7
		c0-1.6,1.3-2.8,3.3-2.8c1,0,1.8,0.3,2.4,0.6l-0.4,1.3c-0.4-0.2-1.1-0.6-2-0.6c-1,0-1.6,0.6-1.6,1.3c0,0.8,0.6,1.2,1.8,1.6
		c1.7,0.6,2.5,1.5,2.5,2.9c0,1.7-1.3,2.9-3.6,2.9c-1.1,0-2-0.3-2.7-0.7L622.3,209.2z"/>
	<path class="st5" d="M634.8,197.7c0.9-0.2,2.1-0.3,3.3-0.3c1.9,0,3.1,0.3,3.9,1.1c0.7,0.6,1.1,1.5,1.1,2.6c0,1.8-1.1,3-2.5,3.4v0.1
		c1,0.4,1.7,1.3,2,2.7c0.4,1.9,0.8,3.2,1,3.7h-1.8c-0.2-0.4-0.5-1.5-0.9-3.2c-0.4-1.9-1.1-2.6-2.7-2.6h-1.6v5.8h-1.7V197.7z
		 M636.5,203.8h1.8c1.9,0,3-1,3-2.6c0-1.7-1.3-2.5-3.1-2.5c-0.8,0-1.4,0.1-1.7,0.2V203.8z"/>
	<path class="st5" d="M646.1,201.3l2.1,5.7c0.2,0.6,0.5,1.4,0.6,2h0c0.2-0.6,0.4-1.3,0.6-2l1.9-5.7h1.9l-2.6,6.9
		c-1.3,3.3-2.1,5-3.3,6.1c-0.9,0.8-1.7,1.1-2.2,1.1l-0.4-1.5c0.4-0.1,1-0.4,1.5-0.9c0.5-0.4,1.1-1.1,1.5-2c0.1-0.2,0.1-0.3,0.1-0.4
		c0-0.1,0-0.2-0.1-0.5l-3.6-8.9H646.1z"/>
	<path class="st5" d="M660.3,211l-0.1-1.2h-0.1c-0.5,0.8-1.6,1.4-3,1.4c-2,0-3-1.4-3-2.8c0-2.3,2.1-3.6,5.8-3.6v-0.2
		c0-0.8-0.2-2.2-2.2-2.2c-0.9,0-1.8,0.3-2.5,0.7l-0.4-1.2c0.8-0.5,2-0.9,3.2-0.9c3,0,3.7,2,3.7,4v3.6c0,0.8,0,1.7,0.2,2.3H660.3z
		 M660,206.1c-1.9,0-4.1,0.3-4.1,2.2c0,1.1,0.8,1.7,1.7,1.7c1.3,0,2.1-0.8,2.3-1.6c0.1-0.2,0.1-0.4,0.1-0.6V206.1z"/>
	<path class="st5" d="M664.6,203.9c0-1,0-1.8-0.1-2.6h1.6l0.1,1.6h0c0.5-0.9,1.6-1.8,3.2-1.8c1.3,0,3.4,0.8,3.4,4.1v5.8H671v-5.6
		c0-1.6-0.6-2.9-2.2-2.9c-1.2,0-2.1,0.8-2.4,1.8c-0.1,0.2-0.1,0.5-0.1,0.8v5.8h-1.8V203.9z"/>
	<path class="st5" d="M681.7,197.5v5.6h6.5v-5.6h1.8V211h-1.8v-6.3h-6.5v6.3H680v-13.5H681.7z"/>
	<path class="st5" d="M701,208.4c0,1,0,1.9,0.1,2.6h-1.6l-0.1-1.6h0c-0.5,0.8-1.5,1.8-3.2,1.8c-1.5,0-3.3-0.8-3.3-4.2v-5.7h1.8v5.4
		c0,1.8,0.6,3.1,2.2,3.1c1.2,0,2-0.8,2.3-1.6c0.1-0.3,0.2-0.6,0.2-0.9v-5.9h1.8V208.4z"/>
	<path class="st5" d="M712.3,201.3c0,0.7-0.1,1.5-0.1,2.7v5.6c0,2.2-0.4,3.6-1.4,4.4c-0.9,0.9-2.3,1.2-3.5,1.2
		c-1.2,0-2.4-0.3-3.2-0.8l0.4-1.3c0.6,0.4,1.6,0.8,2.8,0.8c1.8,0,3.1-0.9,3.1-3.4v-1.1h0c-0.5,0.9-1.6,1.6-3.1,1.6
		c-2.4,0-4.1-2-4.1-4.7c0-3.3,2.1-5.1,4.4-5.1c1.7,0,2.6,0.9,3,1.7h0l0.1-1.5H712.3z M710.5,205.1c0-0.3,0-0.6-0.1-0.8
		c-0.3-1-1.2-1.9-2.5-1.9c-1.7,0-2.9,1.4-2.9,3.7c0,1.9,1,3.5,2.9,3.5c1.1,0,2.1-0.7,2.4-1.8c0.1-0.3,0.1-0.6,0.1-0.9V205.1z"/>
	<path class="st5" d="M715.1,196.8h1.8v6h0c0.3-0.5,0.7-0.9,1.3-1.2c0.5-0.3,1.1-0.5,1.8-0.5c1.3,0,3.4,0.8,3.4,4.1v5.8h-1.8v-5.6
		c0-1.6-0.6-2.9-2.2-2.9c-1.1,0-2,0.8-2.4,1.8c-0.1,0.2-0.1,0.5-0.1,0.8v5.8h-1.8V196.8z"/>
	<path class="st5" d="M727.2,206.5c0,2.4,1.6,3.4,3.3,3.4c1.3,0,2-0.2,2.7-0.5l0.3,1.3c-0.6,0.3-1.7,0.6-3.2,0.6c-3,0-4.8-2-4.8-4.9
		c0-2.9,1.7-5.2,4.5-5.2c3.2,0,4,2.8,4,4.6c0,0.4,0,0.6-0.1,0.8H727.2z M732.4,205.2c0-1.1-0.5-2.9-2.4-2.9c-1.8,0-2.6,1.6-2.7,2.9
		H732.4z"/>
	<path class="st5" d="M736,209.2c0.5,0.3,1.4,0.7,2.3,0.7c1.3,0,1.9-0.6,1.9-1.4c0-0.8-0.5-1.3-1.8-1.8c-1.7-0.6-2.6-1.6-2.6-2.7
		c0-1.6,1.3-2.8,3.3-2.8c1,0,1.8,0.3,2.4,0.6l-0.4,1.3c-0.4-0.2-1.1-0.6-2-0.6c-1,0-1.6,0.6-1.6,1.3c0,0.8,0.6,1.2,1.8,1.6
		c1.7,0.6,2.5,1.5,2.5,2.9c0,1.7-1.3,2.9-3.6,2.9c-1.1,0-2-0.3-2.7-0.7L736,209.2z"/>
	<path class="st5" d="M753.8,211l-0.1-1.2h-0.1c-0.5,0.8-1.6,1.4-3,1.4c-2,0-3-1.4-3-2.8c0-2.3,2.1-3.6,5.8-3.6v-0.2
		c0-0.8-0.2-2.2-2.2-2.2c-0.9,0-1.8,0.3-2.5,0.7l-0.4-1.2c0.8-0.5,2-0.9,3.2-0.9c3,0,3.7,2,3.7,4v3.6c0,0.8,0,1.7,0.2,2.3H753.8z
		 M753.5,206.1c-1.9,0-4.1,0.3-4.1,2.2c0,1.1,0.8,1.7,1.7,1.7c1.3,0,2.1-0.8,2.3-1.6c0.1-0.2,0.1-0.4,0.1-0.6V206.1z"/>
	<path class="st5" d="M758.1,203.9c0-1,0-1.8-0.1-2.6h1.6l0.1,1.6h0c0.5-0.9,1.6-1.8,3.2-1.8c1.3,0,3.4,0.8,3.4,4.1v5.8h-1.8v-5.6
		c0-1.6-0.6-2.9-2.2-2.9c-1.2,0-2.1,0.8-2.4,1.8c-0.1,0.2-0.1,0.5-0.1,0.8v5.8h-1.8V203.9z"/>
	<path class="st5" d="M777.5,196.8v11.7c0,0.9,0,1.8,0.1,2.5H776l-0.1-1.7h0c-0.5,1.1-1.7,1.9-3.3,1.9c-2.3,0-4.1-2-4.1-4.9
		c0-3.2,2-5.2,4.3-5.2c1.5,0,2.5,0.7,2.9,1.5h0v-5.8H777.5z M775.8,205.3c0-0.2,0-0.5-0.1-0.7c-0.3-1.1-1.2-2-2.5-2
		c-1.8,0-2.9,1.6-2.9,3.7c0,2,1,3.6,2.9,3.6c1.2,0,2.3-0.8,2.6-2.1c0.1-0.2,0.1-0.5,0.1-0.8V205.3z"/>
	<path class="st5" d="M786.5,197.5V211h-1.7v-13.5H786.5z"/>
	<path class="st5" d="M791.7,197.3c-0.5,1.7-1.3,3.8-1.9,4.7l-1.1,0.1c0.4-1.2,1-3.3,1.2-4.7L791.7,197.3z"/>
	<path class="st5" d="M793.6,203.9c0-1,0-1.8-0.1-2.6h1.5l0.1,1.6h0.1c0.5-0.9,1.4-1.8,3-1.8c1.3,0,2.3,0.8,2.7,1.9h0
		c0.3-0.5,0.7-1,1.1-1.3c0.6-0.4,1.2-0.7,2.1-0.7c1.3,0,3.2,0.8,3.2,4.2v5.7h-1.7v-5.5c0-1.9-0.7-3-2.1-3c-1,0-1.8,0.7-2.1,1.6
		c-0.1,0.2-0.1,0.6-0.1,0.9v6h-1.7v-5.8c0-1.5-0.7-2.7-2-2.7c-1.1,0-1.9,0.9-2.2,1.8c-0.1,0.3-0.1,0.6-0.1,0.9v5.8h-1.7V203.9z"/>
	<path class="st5" d="M819.9,211l-0.1-1.2h-0.1c-0.5,0.8-1.6,1.4-3,1.4c-2,0-3-1.4-3-2.8c0-2.3,2.1-3.6,5.8-3.6v-0.2
		c0-0.8-0.2-2.2-2.2-2.2c-0.9,0-1.8,0.3-2.5,0.7l-0.4-1.2c0.8-0.5,2-0.9,3.2-0.9c3,0,3.7,2,3.7,4v3.6c0,0.8,0,1.7,0.2,2.3H819.9z
		 M819.6,206.1c-1.9,0-4.1,0.3-4.1,2.2c0,1.1,0.8,1.7,1.7,1.7c1.3,0,2.1-0.8,2.3-1.6c0.1-0.2,0.1-0.4,0.1-0.6V206.1z"/>
	<path class="st5" d="M824.2,204.5c0-1.2,0-2.2-0.1-3.2h1.6l0.1,1.7h0c0.7-1.2,1.9-1.9,3.4-1.9c2.3,0,4.1,2,4.1,4.9
		c0,3.5-2.1,5.2-4.4,5.2c-1.3,0-2.4-0.6-3-1.5h0v5.3h-1.7V204.5z M825.9,207.1c0,0.3,0,0.5,0.1,0.7c0.3,1.2,1.4,2.1,2.6,2.1
		c1.9,0,2.9-1.5,2.9-3.7c0-1.9-1-3.6-2.9-3.6c-1.2,0-2.3,0.9-2.7,2.2c-0.1,0.2-0.1,0.5-0.1,0.7V207.1z"/>
	<path class="st5" d="M835.5,204.5c0-1.2,0-2.2-0.1-3.2h1.6l0.1,1.7h0c0.7-1.2,1.9-1.9,3.4-1.9c2.3,0,4.1,2,4.1,4.9
		c0,3.5-2.1,5.2-4.4,5.2c-1.3,0-2.4-0.6-3-1.5h0v5.3h-1.7V204.5z M837.3,207.1c0,0.3,0,0.5,0.1,0.7c0.3,1.2,1.4,2.1,2.6,2.1
		c1.9,0,2.9-1.5,2.9-3.7c0-1.9-1-3.6-2.9-3.6c-1.2,0-2.3,0.9-2.7,2.2c-0.1,0.2-0.1,0.5-0.1,0.7V207.1z"/>
	<path class="st5" d="M846.9,196.8h1.8V211h-1.8V196.8z"/>
	<path class="st5" d="M852.3,201.3l2.1,5.7c0.2,0.6,0.5,1.4,0.6,2h0c0.2-0.6,0.4-1.3,0.6-2l1.9-5.7h1.9l-2.6,6.9
		c-1.3,3.3-2.1,5-3.3,6.1c-0.9,0.8-1.7,1.1-2.2,1.1l-0.4-1.5c0.4-0.1,1-0.4,1.5-0.9c0.5-0.4,1.1-1.1,1.5-2c0.1-0.2,0.1-0.3,0.1-0.4
		c0-0.1,0-0.2-0.1-0.5l-3.6-8.9H852.3z"/>
	<path class="st5" d="M863,198.6c0,0.6-0.4,1.1-1.1,1.1c-0.6,0-1.1-0.5-1.1-1.1c0-0.6,0.5-1.1,1.1-1.1
		C862.6,197.5,863,198,863,198.6z M861.1,211v-9.7h1.8v9.7H861.1z"/>
	<path class="st5" d="M865.7,203.9c0-1,0-1.8-0.1-2.6h1.6l0.1,1.6h0c0.5-0.9,1.6-1.8,3.2-1.8c1.3,0,3.4,0.8,3.4,4.1v5.8h-1.8v-5.6
		c0-1.6-0.6-2.9-2.2-2.9c-1.2,0-2.1,0.8-2.4,1.8c-0.1,0.2-0.1,0.5-0.1,0.8v5.8h-1.8V203.9z"/>
	<path class="st5" d="M885.2,201.3c0,0.7-0.1,1.5-0.1,2.7v5.6c0,2.2-0.4,3.6-1.4,4.4c-0.9,0.9-2.3,1.2-3.5,1.2
		c-1.2,0-2.4-0.3-3.2-0.8l0.4-1.3c0.6,0.4,1.6,0.8,2.8,0.8c1.8,0,3.1-0.9,3.1-3.4v-1.1h0c-0.5,0.9-1.6,1.6-3.1,1.6
		c-2.4,0-4.1-2-4.1-4.7c0-3.3,2.1-5.1,4.4-5.1c1.7,0,2.6,0.9,3,1.7h0l0.1-1.5H885.2z M883.4,205.1c0-0.3,0-0.6-0.1-0.8
		c-0.3-1-1.2-1.9-2.5-1.9c-1.7,0-2.9,1.4-2.9,3.7c0,1.9,1,3.5,2.9,3.5c1.1,0,2.1-0.7,2.4-1.8c0.1-0.3,0.1-0.6,0.1-0.9V205.1z"/>
	<path class="st5" d="M894.4,198.5v2.8h2.5v1.3h-2.5v5.2c0,1.2,0.3,1.9,1.3,1.9c0.5,0,0.8-0.1,1-0.1l0.1,1.3
		c-0.3,0.1-0.9,0.2-1.6,0.2c-0.8,0-1.5-0.3-1.9-0.7c-0.5-0.5-0.7-1.4-0.7-2.5v-5.3h-1.5v-1.3h1.5V199L894.4,198.5z"/>
	<path class="st5" d="M907.6,206.1c0,3.6-2.5,5.1-4.8,5.1c-2.6,0-4.6-1.9-4.6-5c0-3.2,2.1-5.1,4.8-5.1
		C905.8,201.1,907.6,203.1,907.6,206.1z M900,206.2c0,2.1,1.2,3.7,2.9,3.7c1.7,0,2.9-1.6,2.9-3.8c0-1.6-0.8-3.7-2.9-3.7
		C900.9,202.4,900,204.3,900,206.2z"/>
	<path class="st5" d="M916.2,198.5v2.8h2.5v1.3h-2.5v5.2c0,1.2,0.3,1.9,1.3,1.9c0.5,0,0.8-0.1,1-0.1l0.1,1.3
		c-0.3,0.1-0.9,0.2-1.6,0.2c-0.8,0-1.5-0.3-1.9-0.7c-0.5-0.5-0.7-1.4-0.7-2.5v-5.3H913v-1.3h1.5V199L916.2,198.5z"/>
	<path class="st5" d="M920.7,196.8h1.8v6h0c0.3-0.5,0.7-0.9,1.3-1.2c0.5-0.3,1.1-0.5,1.8-0.5c1.3,0,3.4,0.8,3.4,4.1v5.8h-1.8v-5.6
		c0-1.6-0.6-2.9-2.2-2.9c-1.1,0-2,0.8-2.4,1.8c-0.1,0.2-0.1,0.5-0.1,0.8v5.8h-1.8V196.8z"/>
	<path class="st5" d="M932.8,206.5c0,2.4,1.6,3.4,3.3,3.4c1.3,0,2-0.2,2.7-0.5l0.3,1.3c-0.6,0.3-1.7,0.6-3.2,0.6c-3,0-4.8-2-4.8-4.9
		c0-2.9,1.7-5.2,4.5-5.2c3.2,0,4,2.8,4,4.6c0,0.4,0,0.6-0.1,0.8H932.8z M938,205.2c0-1.1-0.5-2.9-2.4-2.9c-1.8,0-2.6,1.6-2.7,2.9
		H938z"/>
	<path class="st5" d="M957.5,205.1c-0.1-1.9-0.2-4.1-0.2-5.8h-0.1c-0.5,1.6-1,3.3-1.7,5.1l-2.4,6.5h-1.3l-2.2-6.4
		c-0.6-1.9-1.2-3.6-1.6-5.2h0c0,1.7-0.1,3.9-0.3,6l-0.4,5.8h-1.7l0.9-13.5h2.2l2.3,6.5c0.6,1.7,1,3.1,1.4,4.5h0.1
		c0.3-1.4,0.8-2.8,1.4-4.5l2.4-6.5h2.2l0.8,13.5h-1.7L957.5,205.1z"/>
	<path class="st5" d="M967.8,206.8l-1.4,4.2h-1.8l4.6-13.5h2.1l4.6,13.5H974l-1.4-4.2H967.8z M972.2,205.4l-1.3-3.9
		c-0.3-0.9-0.5-1.7-0.7-2.5h0c-0.2,0.8-0.4,1.6-0.7,2.4l-1.3,3.9H972.2z"/>
	<path class="st5" d="M977.8,204.3c0-1.1,0-2.1-0.1-3h1.5l0.1,1.9h0.1c0.4-1.3,1.5-2.1,2.7-2.1c0.2,0,0.3,0,0.5,0.1v1.7
		c-0.2,0-0.4-0.1-0.6-0.1c-1.2,0-2.1,0.9-2.4,2.3c0,0.2-0.1,0.5-0.1,0.8v5.2h-1.7V204.3z"/>
	<path class="st5" d="M991.2,210.6c-0.5,0.2-1.5,0.6-2.8,0.6c-2.9,0-4.8-2-4.8-4.9c0-3,2-5.1,5.2-5.1c1,0,2,0.3,2.4,0.5l-0.4,1.4
		c-0.4-0.2-1.1-0.5-2-0.5c-2.2,0-3.4,1.6-3.4,3.7c0,2.2,1.4,3.6,3.4,3.6c1,0,1.7-0.3,2.2-0.5L991.2,210.6z"/>
	<path class="st5" d="M993.3,196.8h1.8v6h0c0.3-0.5,0.7-0.9,1.3-1.2c0.5-0.3,1.1-0.5,1.8-0.5c1.3,0,3.4,0.8,3.4,4.1v5.8h-1.8v-5.6
		c0-1.6-0.6-2.9-2.2-2.9c-1.1,0-2,0.8-2.4,1.8c-0.1,0.2-0.1,0.5-0.1,0.8v5.8h-1.8V196.8z"/>
	<path class="st5" d="M1008.6,204.5c0-1.2,0-2.2-0.1-3.2h1.6l0.1,1.7h0c0.7-1.2,1.9-1.9,3.4-1.9c2.3,0,4.1,2,4.1,4.9
		c0,3.5-2.1,5.2-4.4,5.2c-1.3,0-2.4-0.6-3-1.5h0v5.3h-1.7V204.5z M1010.4,207.1c0,0.3,0,0.5,0.1,0.7c0.3,1.2,1.4,2.1,2.6,2.1
		c1.9,0,2.9-1.5,2.9-3.7c0-1.9-1-3.6-2.9-3.6c-1.2,0-2.3,0.9-2.7,2.2c-0.1,0.2-0.1,0.5-0.1,0.7V207.1z"/>
	<path class="st5" d="M1020,204.3c0-1.1,0-2.1-0.1-3h1.5l0.1,1.9h0.1c0.4-1.3,1.5-2.1,2.7-2.1c0.2,0,0.3,0,0.5,0.1v1.7
		c-0.2,0-0.4-0.1-0.6-0.1c-1.2,0-2.1,0.9-2.4,2.3c0,0.2-0.1,0.5-0.1,0.8v5.2h-1.7V204.3z"/>
	<path class="st5" d="M1035.3,206.1c0,3.6-2.5,5.1-4.8,5.1c-2.6,0-4.6-1.9-4.6-5c0-3.2,2.1-5.1,4.8-5.1
		C1033.4,201.1,1035.3,203.1,1035.3,206.1z M1027.6,206.2c0,2.1,1.2,3.7,2.9,3.7c1.7,0,2.9-1.6,2.9-3.8c0-1.6-0.8-3.7-2.9-3.7
		C1028.5,202.4,1027.6,204.3,1027.6,206.2z"/>
	<path class="st5" d="M1045.9,201.3c0,0.7-0.1,1.5-0.1,2.7v5.6c0,2.2-0.4,3.6-1.4,4.4c-0.9,0.9-2.3,1.2-3.5,1.2
		c-1.2,0-2.4-0.3-3.2-0.8l0.4-1.3c0.6,0.4,1.6,0.8,2.8,0.8c1.8,0,3.1-0.9,3.1-3.4v-1.1h0c-0.5,0.9-1.6,1.6-3.1,1.6
		c-2.4,0-4.1-2-4.1-4.7c0-3.3,2.1-5.1,4.4-5.1c1.7,0,2.6,0.9,3,1.7h0l0.1-1.5H1045.9z M1044,205.1c0-0.3,0-0.6-0.1-0.8
		c-0.3-1-1.2-1.9-2.5-1.9c-1.7,0-2.9,1.4-2.9,3.7c0,1.9,1,3.5,2.9,3.5c1.1,0,2.1-0.7,2.4-1.8c0.1-0.3,0.1-0.6,0.1-0.9V205.1z"/>
	<path class="st5" d="M1048.7,204.3c0-1.1,0-2.1-0.1-3h1.5l0.1,1.9h0.1c0.4-1.3,1.5-2.1,2.7-2.1c0.2,0,0.3,0,0.5,0.1v1.7
		c-0.2,0-0.4-0.1-0.6-0.1c-1.2,0-2.1,0.9-2.4,2.3c0,0.2-0.1,0.5-0.1,0.8v5.2h-1.7V204.3z"/>
	<path class="st5" d="M1060.6,211l-0.1-1.2h-0.1c-0.5,0.8-1.6,1.4-3,1.4c-2,0-3-1.4-3-2.8c0-2.3,2.1-3.6,5.8-3.6v-0.2
		c0-0.8-0.2-2.2-2.2-2.2c-0.9,0-1.8,0.3-2.5,0.7l-0.4-1.2c0.8-0.5,2-0.9,3.2-0.9c3,0,3.7,2,3.7,4v3.6c0,0.8,0,1.7,0.2,2.3H1060.6z
		 M1060.3,206.1c-1.9,0-4.1,0.3-4.1,2.2c0,1.1,0.8,1.7,1.7,1.7c1.3,0,2.1-0.8,2.3-1.6c0.1-0.2,0.1-0.4,0.1-0.6V206.1z"/>
	<path class="st5" d="M1064.9,203.9c0-1,0-1.8-0.1-2.6h1.5l0.1,1.6h0.1c0.5-0.9,1.4-1.8,3-1.8c1.3,0,2.3,0.8,2.7,1.9h0
		c0.3-0.5,0.7-1,1.1-1.3c0.6-0.4,1.2-0.7,2.1-0.7c1.3,0,3.2,0.8,3.2,4.2v5.7h-1.7v-5.5c0-1.9-0.7-3-2.1-3c-1,0-1.8,0.7-2.1,1.6
		c-0.1,0.2-0.1,0.6-0.1,0.9v6h-1.7v-5.8c0-1.5-0.7-2.7-2-2.7c-1.1,0-1.9,0.9-2.2,1.8c-0.1,0.3-0.1,0.6-0.1,0.9v5.8h-1.7V203.9z"/>
</g>
<g class="st7">
	<path class="st3" d="M59.8,138.3c-6.4,0-10.4-3.2-12.6-8.5c-1.1,2.5-2.4,5.4-3.5,7.9c-0.5,1.2-1.2,1.3-1.9,0.4
		c-1.8-2.4-3-5.9-0.6-13.2c3.2-10,26.8-54.4,35-65.9c1.1-1.6,2-1.6,3,0.1c1.8,3.4,1.8,8.8-3.1,17.8c-1.8,3.4-7,11.6-10.7,18.2
		c3.5-3.1,7.2-5,10.3-5c10.2,0,10.7,14.2,4.1,28.8C74.2,131.5,66.8,138.3,59.8,138.3z M65.2,99.8c-5.4,5.6-11.2,15.6-15.6,24.8
		c0.2,3.5,1.8,7.3,5,8c4.2,1,9.7-2.6,16.7-16.6c6.8-13.6,5.4-20.9,2.6-21.1C71.5,94.7,68.8,96.1,65.2,99.8z"/>
	<path class="st3" d="M116.8,93.5c1.4-1,2.4-1.2,3.2-0.2c2.3,2.5,5.2,7.8,1.7,11.8c-5.4,6.1-11.3,13.7-13.2,19.9s-0.5,10.9,3,11
		c4.7,0.2,10.4-7.2,14.3-15.8c0.5-1,1.2-1.1,1.7-0.1c0.6,1.3,0.7,4.2-0.6,7.4c-2.8,7-9.7,12-16.1,11.8c-8.6-0.4-12.1-8.3-9.1-17.3
		c2.6-7.9,9.6-16.4,14.4-22c-5.3,3.5-10.4,4.6-14,4.6C97.5,113,86,130,83.7,140.9c-0.2,1.1-1,1.7-2,0.6c-3.5-3.6-3.5-9.1-0.2-15.2
		c2.8-5.3,10.8-16.6,15.2-22.9c-6.8-4.4,3.6-18.6,8-18.7c3.7-0.1,2.8,6.8-0.2,14.4C108.3,98.6,112.4,96.7,116.8,93.5z"/>
	<path class="st3" d="M124.5,121.3c3-8.8,10.9-22.9,15.4-29.2c1.1-1.4,1.9-1.8,2.9-0.7c1.8,1.9,2.8,7.1-0.1,13.1
		c-2.5,5.3-7.6,13.4-10.1,19.4c-2.9,7-2.6,11.6,1.2,11.4c5.4-0.2,12-8.2,15.6-16.4c0.6-1.1,1.4-1,1.9,0c1,1.9,0.6,4.4-0.8,7.4
		c-3.6,7.4-11.2,12.5-17.9,12.5C123.4,138.8,121.1,131.1,124.5,121.3z M151.3,89.9c-1.6,1.7-4.9,1.3-6.7-1.8
		c-1.9-3.2-1.3-6.8,0.6-8.9c1.9-2,5.4-0.6,7,2.6C153.7,85,152.8,88.3,151.3,89.9z"/>
	<path class="st3" d="M164.8,135.4c10,0.5,18.7-9.1,23.9-17c0.6-1,1.6-1,2,0.1c0.5,1,0.1,4.3-2,7.4c-5,7.3-14.3,12.8-23.5,13
		c-15.2,0.2-20.5-14.8-12.7-30.2c7.8-15.5,20-21.7,26-18.2c3,1.8,5.2,3.6,7.1,6.2c2.2,2.9,1.2,10.2-3.8,16.3
		c-5.9,7.2-13.9,10.3-22.3,3.5C155.6,127.5,158.5,135.1,164.8,135.4z M174.8,107.8c3.8-5,6.5-11.3,4.8-12.6
		c-2.5-2-12.5,5.2-18.1,16.6c-0.4,0.7-0.7,1.4-1,2C166.4,117.5,171.3,112.4,174.8,107.8z"/>
	<path class="st3" d="M205.7,128.8c0,1.3-0.1,2.6-0.2,4.1c4.6-3,9.4-9,12.5-15.2c0.7-1.4,1.9-1.6,2.5,0.1c0.6,1.8-0.1,4.4-1.2,7.2
		c-1.2,2.9-7.2,10-14.4,12.5c-1.9,12.1-7.2,25.4-13,32.6c-4.1,5-7.1,5.5-10.7,2.4c-3-2.5-6.6-7.2-5.3-17.4
		c3.4-26.8,31-72.7,44.3-92.6c1-1.4,2.5-1.3,3,0.1c1.4,4.1,1.1,9.2-4.1,18c-4.9,8.2-13.2,21.7-19.7,34.3
		C204.1,116.3,205.9,120.9,205.7,128.8z M182.6,167.8c2.6,3.5,11.6-13.1,15.6-29.5c-3.5-0.4-5.9-1.9-7.3-4.8
		C184.1,149.5,179.8,164.3,182.6,167.8z M200,126.2c0.1-4.4-1.1-8.2-1.9-7.8c-1.2,0.5-2.3,6.8-2.4,9.6c-0.1,3.8,1,6.4,3.2,6.8
		C199.5,131.9,199.9,128.9,200,126.2z"/>
	<path class="st3" d="M260,138.3c-6.4,0-10.4-3.2-12.6-8.5c-1.1,2.5-2.4,5.4-3.5,7.9c-0.5,1.2-1.2,1.3-1.9,0.4
		c-1.8-2.4-3-5.9-0.6-13.2c3.2-10,26.8-54.4,35-65.9c1.1-1.6,2-1.6,3,0.1c1.8,3.4,1.8,8.8-3.1,17.8c-1.8,3.4-7,11.6-10.7,18.2
		c3.5-3.1,7.2-5,10.3-5c10.2,0,10.7,14.2,4.1,28.8C274.4,131.5,266.9,138.3,260,138.3z M265.4,99.8c-5.4,5.6-11.2,15.6-15.6,24.8
		c0.2,3.5,1.8,7.3,5,8c4.2,1,9.7-2.6,16.7-16.6c6.8-13.6,5.4-20.9,2.6-21.1C271.6,94.7,269,96.1,265.4,99.8z"/>
	<path class="st3" d="M285.1,121.3c3-8.8,10.9-22.9,15.4-29.2c1.1-1.4,1.9-1.8,2.9-0.7c1.8,1.9,2.8,7.1-0.1,13.1
		c-2.5,5.3-7.6,13.4-10.1,19.4c-2.9,7-2.6,11.6,1.2,11.4c5.4-0.2,12-8.2,15.6-16.4c0.6-1.1,1.4-1,1.9,0c1,1.9,0.6,4.4-0.8,7.4
		c-3.6,7.4-11.2,12.5-17.9,12.5C284,138.8,281.7,131.1,285.1,121.3z M311.8,89.9c-1.6,1.7-4.9,1.3-6.7-1.8c-1.9-3.2-1.3-6.8,0.6-8.9
		c1.9-2,5.4-0.6,7,2.6C314.2,85,313.4,88.3,311.8,89.9z"/>
	<path class="st3" d="M346.7,112.7c-2.5,10.2-10.1,22.3-19,25.3c-4.3,1.4-10.3,1-15.1-5.3c-5.3-7-3.5-17.4,1.9-27
		c4.6-8.2,11.9-15.1,19.1-15.6c3.7-0.2,5.8,0.8,8.2,4.1c2.8,3.7,6.4,4.6,5.6,13.2c-0.1,1-0.1,1.8-0.2,2.8c0.7,0,1.4-0.2,2.4-0.2
		c0.8,0,0.8,0.6,0.4,1.2C349.1,112.1,347.9,112.6,346.7,112.7z M336.5,109.7c-2.5-1.9-5.4-6.1-5.5-10.6c-3.2,2.8-6.7,6.7-9.2,11.3
		c-5,9.1-6.8,20.2-3.7,22.8c3.4,2.8,10.7-1.4,16.6-12.5c1.8-3.4,3.2-6.7,4.2-9.6C338,110.8,337.3,110.3,336.5,109.7z M340.6,99.1
		c-0.6-3.8-3-3.1-3.6,0.4c-0.6,3.2,0.7,6.7,2.6,8.5C340.6,104.2,341,101.2,340.6,99.1z"/>
</g>
<g class="st7">
	<defs>
		<rect id="SVGID_1_" width="1440" height="900"/>
	</defs>
	<clipPath id="SVGID_2_" class="st5">
		<use xlink:href="#SVGID_1_"  style="overflow:visible;"/>
	</clipPath>
	<path class="st2" d="M74,95c2.8,0.2,4.2,7.6-2.6,21.1c-7,13.9-12.5,17.5-16.7,16.6c-3.2-0.7-4.8-4.6-5-8
		c4.4-9.2,10.2-19.2,15.6-24.8C68.8,96.1,71.5,94.7,74,95z M79.9,118.9c6.6-14.6,6.1-28.8-4.1-28.8c-3.1,0-6.8,1.9-10.3,5
		c3.7-6.6,8.9-14.9,10.7-18.2c4.9-9,4.9-14.4,3.1-17.8c-1-1.7-1.9-1.7-3-0.1c-8.3,11.5-31.8,55.9-35,65.9
		c-2.4,7.3-1.2,10.8,0.6,13.2c0.7,1,1.4,0.8,1.9-0.4c1.1-2.5,2.4-5.4,3.5-7.9c2.2,5.3,6.2,8.5,12.6,8.5
		C66.8,138.3,74.2,131.5,79.9,118.9z"/>
	<path class="st2" d="M104.5,99.1c3-7.6,4-14.5,0.2-14.4c-4.4,0.1-14.9,14.3-8,18.7c-4.4,6.4-12.5,17.6-15.2,22.9
		c-3.2,6.1-3.2,11.6,0.2,15.2c1.1,1.1,1.8,0.5,2-0.6c2.3-10.9,13.8-28,18.4-36.4c3.6,0,8.8-1.1,14-4.6c-4.8,5.5-11.8,14-14.4,22
		c-3,9,0.5,16.9,9.1,17.3c6.4,0.2,13.3-4.8,16.1-11.8c1.3-3.2,1.2-6.1,0.6-7.4c-0.5-1-1.2-0.8-1.7,0.1c-3.8,8.6-9.6,16.1-14.3,15.8
		c-3.5-0.1-4.9-4.8-3-11c1.9-6.2,7.8-13.8,13.2-19.9c3.5-4,0.6-9.2-1.7-11.8c-0.8-1-1.8-0.7-3.2,0.2
		C112.4,96.7,108.3,98.6,104.5,99.1z"/>
	<path class="st2" d="M132.5,138.8c6.7,0,14.3-5,17.9-12.5c1.4-3,1.8-5.5,0.8-7.4c-0.5-1-1.3-1.1-1.9,0
		c-3.6,8.3-10.2,16.2-15.6,16.4c-3.8,0.2-4.1-4.4-1.2-11.4c2.5-6,7.6-14.2,10.1-19.4c2.9-6,1.9-11.2,0.1-13.1
		c-1-1.1-1.8-0.7-2.9,0.7c-4.4,6.2-12.4,20.4-15.4,29.2C121.1,131.1,123.4,138.8,132.5,138.8z M152.1,81.9c-1.6-3.2-5-4.7-7-2.6
		s-2.5,5.6-0.6,8.9c1.8,3.1,5.2,3.5,6.7,1.8S153.7,85,152.1,81.9z"/>
	<path class="st2" d="M160.5,113.8c0.2-0.6,0.6-1.3,1-2c5.6-11.4,15.6-18.6,18.1-16.6c1.7,1.3-1,7.6-4.8,12.6
		C171.3,112.4,166.4,117.5,160.5,113.8z M159.4,116.5c8.4,6.8,16.4,3.7,22.3-3.5c5-6.1,6-13.4,3.8-16.3c-1.9-2.6-4.1-4.4-7.1-6.2
		c-6-3.5-18.2,2.8-26,18.2c-7.8,15.5-2.5,30.5,12.7,30.2c9.2-0.1,18.5-5.6,23.5-13c2.2-3.1,2.5-6.5,2-7.4c-0.5-1.1-1.4-1.1-2-0.1
		c-5.2,7.9-13.9,17.5-23.9,17C158.5,135.1,155.6,127.5,159.4,116.5z"/>
	<path class="st2" d="M190.9,133.5c1.4,2.9,3.8,4.4,7.3,4.8c-4,16.4-13,33-15.6,29.5C179.8,164.3,184.1,149.5,190.9,133.5z
		 M198.9,134.8c-2.3-0.5-3.4-3-3.2-6.8c0.1-2.8,1.2-9.1,2.4-9.6c0.8-0.4,2,3.4,1.9,7.8C199.9,128.9,199.5,131.9,198.9,134.8z
		 M199.5,114.9c6.5-12.6,14.8-26.2,19.7-34.3c5.2-8.8,5.5-13.9,4.1-18c-0.5-1.4-2-1.6-3-0.1c-13.3,19.9-40.9,65.9-44.3,92.6
		c-1.3,10.2,2.3,14.9,5.3,17.4c3.6,3.1,6.6,2.6,10.7-2.4c5.8-7.2,11-20.5,13-32.6c7.2-2.5,13.2-9.6,14.4-12.5
		c1.1-2.8,1.8-5.4,1.2-7.2c-0.6-1.7-1.8-1.6-2.5-0.1c-3.1,6.2-7.9,12.2-12.5,15.2c0.1-1.4,0.2-2.8,0.2-4.1
		C205.9,120.9,204.1,116.3,199.5,114.9z"/>
	<path class="st2" d="M274.1,95c2.8,0.2,4.2,7.6-2.6,21.1c-7,13.9-12.5,17.5-16.7,16.6c-3.2-0.7-4.8-4.6-5-8
		c4.4-9.2,10.2-19.2,15.6-24.8C269,96.1,271.6,94.7,274.1,95z M280,118.9c6.6-14.6,6.1-28.8-4.1-28.8c-3.1,0-6.8,1.9-10.3,5
		c3.7-6.6,8.9-14.9,10.7-18.2c4.9-9,4.9-14.4,3.1-17.8c-1-1.7-1.9-1.7-3-0.1c-8.3,11.5-31.8,55.9-35,65.9
		c-2.4,7.3-1.2,10.8,0.6,13.2c0.7,1,1.4,0.8,1.9-0.4c1.1-2.5,2.4-5.4,3.5-7.9c2.2,5.3,6.2,8.5,12.6,8.5
		C266.9,138.3,274.4,131.5,280,118.9z"/>
	<path class="st2" d="M293.1,138.8c6.7,0,14.3-5,17.9-12.5c1.4-3,1.8-5.5,0.8-7.4c-0.5-1-1.3-1.1-1.9,0
		c-3.6,8.3-10.2,16.2-15.6,16.4c-3.8,0.2-4.1-4.4-1.2-11.4c2.5-6,7.6-14.2,10.1-19.4c2.9-6,1.9-11.2,0.1-13.1
		c-1-1.1-1.8-0.7-2.9,0.7c-4.4,6.2-12.4,20.4-15.4,29.2C281.7,131.1,284,138.8,293.1,138.8z M312.7,81.9c-1.6-3.2-5-4.7-7-2.6
		s-2.5,5.6-0.6,8.9c1.8,3.1,5.2,3.5,6.7,1.8S314.2,85,312.7,81.9z"/>
	<path class="st2" d="M338.8,111.2c-1,2.9-2.4,6.2-4.2,9.6c-5.9,11-13.2,15.2-16.6,12.5c-3.1-2.6-1.3-13.7,3.7-22.8
		c2.5-4.6,6-8.5,9.2-11.3c0.1,4.4,3,8.6,5.5,10.6C337.3,110.3,338,110.8,338.8,111.2z M339.7,107.9c-1.9-1.8-3.2-5.3-2.6-8.5
		c0.6-3.5,3-4.2,3.6-0.4C341,101.2,340.6,104.2,339.7,107.9z M350,111.2c0.5-0.6,0.5-1.2-0.4-1.2c-1,0-1.7,0.2-2.4,0.2
		c0.1-1,0.1-1.8,0.2-2.8c0.7-8.6-2.9-9.5-5.6-13.2c-2.4-3.2-4.4-4.3-8.2-4.1c-7.2,0.5-14.5,7.4-19.1,15.6c-5.4,9.6-7.2,20-1.9,27
		c4.8,6.2,10.8,6.7,15.1,5.3c8.9-3,16.4-15.1,19-25.3C347.9,112.6,349.1,112.1,350,111.2z"/>
</g>
</svg>
